G75*
%MOIN*%
%OFA0B0*%
%FSLAX24Y24*%
%IPPOS*%
%LPD*%
%AMOC8*
5,1,8,0,0,1.08239X$1,22.5*
%
%ADD10C,0.0080*%
%ADD11C,0.0110*%
%ADD12C,0.0315*%
%ADD13C,0.0118*%
%ADD14C,0.0079*%
%ADD15C,0.0050*%
%ADD16C,0.0120*%
%ADD17C,0.0060*%
%ADD18C,0.0030*%
%ADD19C,0.0100*%
%ADD20C,0.0040*%
%ADD21C,0.0004*%
%ADD22C,0.0000*%
D10*
X007580Y007166D02*
X007582Y007221D01*
X007588Y007275D01*
X007598Y007329D01*
X007612Y007381D01*
X007629Y007433D01*
X007651Y007483D01*
X007676Y007532D01*
X007704Y007579D01*
X007736Y007623D01*
X007771Y007665D01*
X007809Y007704D01*
X007850Y007741D01*
X007893Y007774D01*
X007938Y007804D01*
X007986Y007831D01*
X008035Y007854D01*
X008086Y007874D01*
X008139Y007890D01*
X008192Y007902D01*
X008246Y007910D01*
X008301Y007914D01*
X008355Y007914D01*
X008410Y007910D01*
X008464Y007902D01*
X008517Y007890D01*
X008570Y007874D01*
X008621Y007854D01*
X008670Y007831D01*
X008718Y007804D01*
X008763Y007774D01*
X008806Y007741D01*
X008847Y007704D01*
X008885Y007665D01*
X008920Y007623D01*
X008952Y007579D01*
X008980Y007532D01*
X009005Y007483D01*
X009027Y007433D01*
X009044Y007381D01*
X009058Y007329D01*
X009068Y007275D01*
X009074Y007221D01*
X009076Y007166D01*
X009074Y007111D01*
X009068Y007057D01*
X009058Y007003D01*
X009044Y006951D01*
X009027Y006899D01*
X009005Y006849D01*
X008980Y006800D01*
X008952Y006753D01*
X008920Y006709D01*
X008885Y006667D01*
X008847Y006628D01*
X008806Y006591D01*
X008763Y006558D01*
X008718Y006528D01*
X008670Y006501D01*
X008621Y006478D01*
X008570Y006458D01*
X008517Y006442D01*
X008464Y006430D01*
X008410Y006422D01*
X008355Y006418D01*
X008301Y006418D01*
X008246Y006422D01*
X008192Y006430D01*
X008139Y006442D01*
X008086Y006458D01*
X008035Y006478D01*
X007986Y006501D01*
X007938Y006528D01*
X007893Y006558D01*
X007850Y006591D01*
X007809Y006628D01*
X007771Y006667D01*
X007736Y006709D01*
X007704Y006753D01*
X007676Y006800D01*
X007651Y006849D01*
X007629Y006899D01*
X007612Y006951D01*
X007598Y007003D01*
X007588Y007057D01*
X007582Y007111D01*
X007580Y007166D01*
X010829Y007639D02*
X010989Y007639D01*
X010909Y007639D02*
X010909Y008120D01*
X010829Y008120D02*
X010989Y008120D01*
X011172Y007959D02*
X011253Y007959D01*
X011253Y007639D01*
X011333Y007639D02*
X011172Y007639D01*
X011516Y007639D02*
X011516Y007959D01*
X011756Y007959D01*
X011836Y007879D01*
X011836Y007639D01*
X011253Y008120D02*
X011253Y008200D01*
X016341Y008120D02*
X016501Y008120D01*
X016421Y008120D02*
X016421Y007639D01*
X016341Y007639D02*
X016501Y007639D01*
X016684Y007719D02*
X016764Y007639D01*
X016924Y007639D01*
X017005Y007719D01*
X017005Y007879D01*
X016924Y007959D01*
X016764Y007959D01*
X016684Y007879D01*
X016684Y007719D01*
X017200Y007719D02*
X017280Y007639D01*
X017520Y007639D01*
X017520Y007959D01*
X017716Y007959D02*
X017876Y007959D01*
X017796Y008040D02*
X017796Y007719D01*
X017876Y007639D01*
X017200Y007719D02*
X017200Y007959D01*
X019588Y007166D02*
X019590Y007221D01*
X019596Y007275D01*
X019606Y007329D01*
X019620Y007381D01*
X019637Y007433D01*
X019659Y007483D01*
X019684Y007532D01*
X019712Y007579D01*
X019744Y007623D01*
X019779Y007665D01*
X019817Y007704D01*
X019858Y007741D01*
X019901Y007774D01*
X019946Y007804D01*
X019994Y007831D01*
X020043Y007854D01*
X020094Y007874D01*
X020147Y007890D01*
X020200Y007902D01*
X020254Y007910D01*
X020309Y007914D01*
X020363Y007914D01*
X020418Y007910D01*
X020472Y007902D01*
X020525Y007890D01*
X020578Y007874D01*
X020629Y007854D01*
X020678Y007831D01*
X020726Y007804D01*
X020771Y007774D01*
X020814Y007741D01*
X020855Y007704D01*
X020893Y007665D01*
X020928Y007623D01*
X020960Y007579D01*
X020988Y007532D01*
X021013Y007483D01*
X021035Y007433D01*
X021052Y007381D01*
X021066Y007329D01*
X021076Y007275D01*
X021082Y007221D01*
X021084Y007166D01*
X021082Y007111D01*
X021076Y007057D01*
X021066Y007003D01*
X021052Y006951D01*
X021035Y006899D01*
X021013Y006849D01*
X020988Y006800D01*
X020960Y006753D01*
X020928Y006709D01*
X020893Y006667D01*
X020855Y006628D01*
X020814Y006591D01*
X020771Y006558D01*
X020726Y006528D01*
X020678Y006501D01*
X020629Y006478D01*
X020578Y006458D01*
X020525Y006442D01*
X020472Y006430D01*
X020418Y006422D01*
X020363Y006418D01*
X020309Y006418D01*
X020254Y006422D01*
X020200Y006430D01*
X020147Y006442D01*
X020094Y006458D01*
X020043Y006478D01*
X019994Y006501D01*
X019946Y006528D01*
X019901Y006558D01*
X019858Y006591D01*
X019817Y006628D01*
X019779Y006667D01*
X019744Y006709D01*
X019712Y006753D01*
X019684Y006800D01*
X019659Y006849D01*
X019637Y006899D01*
X019620Y006951D01*
X019606Y007003D01*
X019596Y007057D01*
X019590Y007111D01*
X019588Y007166D01*
X009929Y014253D02*
X006935Y014253D01*
X006935Y014431D01*
X006935Y015513D01*
X009929Y015513D01*
X009929Y015431D01*
X009929Y014253D01*
X008526Y014583D02*
X008226Y014883D01*
X008226Y014583D01*
X008226Y014883D02*
X008226Y015183D01*
X008226Y014883D02*
X008526Y015183D01*
X008526Y014583D01*
X007580Y026930D02*
X007582Y026985D01*
X007588Y027039D01*
X007598Y027093D01*
X007612Y027145D01*
X007629Y027197D01*
X007651Y027247D01*
X007676Y027296D01*
X007704Y027343D01*
X007736Y027387D01*
X007771Y027429D01*
X007809Y027468D01*
X007850Y027505D01*
X007893Y027538D01*
X007938Y027568D01*
X007986Y027595D01*
X008035Y027618D01*
X008086Y027638D01*
X008139Y027654D01*
X008192Y027666D01*
X008246Y027674D01*
X008301Y027678D01*
X008355Y027678D01*
X008410Y027674D01*
X008464Y027666D01*
X008517Y027654D01*
X008570Y027638D01*
X008621Y027618D01*
X008670Y027595D01*
X008718Y027568D01*
X008763Y027538D01*
X008806Y027505D01*
X008847Y027468D01*
X008885Y027429D01*
X008920Y027387D01*
X008952Y027343D01*
X008980Y027296D01*
X009005Y027247D01*
X009027Y027197D01*
X009044Y027145D01*
X009058Y027093D01*
X009068Y027039D01*
X009074Y026985D01*
X009076Y026930D01*
X009074Y026875D01*
X009068Y026821D01*
X009058Y026767D01*
X009044Y026715D01*
X009027Y026663D01*
X009005Y026613D01*
X008980Y026564D01*
X008952Y026517D01*
X008920Y026473D01*
X008885Y026431D01*
X008847Y026392D01*
X008806Y026355D01*
X008763Y026322D01*
X008718Y026292D01*
X008670Y026265D01*
X008621Y026242D01*
X008570Y026222D01*
X008517Y026206D01*
X008464Y026194D01*
X008410Y026186D01*
X008355Y026182D01*
X008301Y026182D01*
X008246Y026186D01*
X008192Y026194D01*
X008139Y026206D01*
X008086Y026222D01*
X008035Y026242D01*
X007986Y026265D01*
X007938Y026292D01*
X007893Y026322D01*
X007850Y026355D01*
X007809Y026392D01*
X007771Y026431D01*
X007736Y026473D01*
X007704Y026517D01*
X007676Y026564D01*
X007651Y026613D01*
X007629Y026663D01*
X007612Y026715D01*
X007598Y026767D01*
X007588Y026821D01*
X007582Y026875D01*
X007580Y026930D01*
X010585Y030526D02*
X010505Y030607D01*
X010585Y030526D02*
X010745Y030526D01*
X010825Y030607D01*
X010825Y030767D01*
X010745Y030847D01*
X010665Y030847D01*
X010505Y030767D01*
X010505Y031007D01*
X010825Y031007D01*
X011020Y030847D02*
X011180Y031007D01*
X011341Y030847D01*
X011341Y030526D01*
X011341Y030767D02*
X011020Y030767D01*
X011020Y030847D02*
X011020Y030526D01*
X012052Y030687D02*
X012212Y030526D01*
X012395Y030526D02*
X012636Y030526D01*
X012716Y030607D01*
X012716Y030767D01*
X012636Y030847D01*
X012395Y030847D01*
X012395Y030366D01*
X012212Y030167D02*
X012212Y029686D01*
X012052Y029686D02*
X012372Y029686D01*
X012567Y029686D02*
X012567Y030007D01*
X012727Y030167D01*
X012888Y030007D01*
X012888Y029686D01*
X013083Y029686D02*
X013403Y030167D01*
X013599Y030167D02*
X013599Y029847D01*
X013759Y029686D01*
X013919Y029847D01*
X013919Y030167D01*
X014011Y030526D02*
X013770Y030526D01*
X013850Y030687D02*
X013770Y030767D01*
X013850Y030847D01*
X014091Y030847D01*
X014011Y030687D02*
X013850Y030687D01*
X014011Y030687D02*
X014091Y030607D01*
X014011Y030526D01*
X014286Y030607D02*
X014286Y030767D01*
X014366Y030847D01*
X014526Y030847D01*
X014606Y030767D01*
X014606Y030687D01*
X014286Y030687D01*
X014286Y030607D02*
X014366Y030526D01*
X014526Y030526D01*
X014802Y030607D02*
X014802Y030767D01*
X014882Y030847D01*
X015122Y030847D01*
X015122Y031007D02*
X015122Y030526D01*
X014882Y030526D01*
X014802Y030607D01*
X014870Y030167D02*
X014710Y030167D01*
X014630Y030087D01*
X014870Y030167D02*
X014950Y030087D01*
X014950Y030007D01*
X014630Y029686D01*
X014950Y029686D01*
X015145Y029686D02*
X015145Y030167D01*
X015306Y030007D01*
X015466Y030167D01*
X015466Y029686D01*
X015661Y029686D02*
X015661Y030167D01*
X015661Y029927D02*
X015981Y029927D01*
X016177Y030007D02*
X016497Y030007D01*
X016177Y029686D01*
X016497Y029686D01*
X015981Y029686D02*
X015981Y030167D01*
X015833Y030526D02*
X016153Y030847D01*
X016153Y030927D01*
X016073Y031007D01*
X015913Y031007D01*
X015833Y030927D01*
X015833Y030526D02*
X016153Y030526D01*
X016349Y030607D02*
X016669Y030927D01*
X016669Y030607D01*
X016589Y030526D01*
X016429Y030526D01*
X016349Y030607D01*
X016349Y030927D01*
X016429Y031007D01*
X016589Y031007D01*
X016669Y030927D01*
X016864Y030847D02*
X016864Y030526D01*
X016864Y030767D02*
X017185Y030767D01*
X017185Y030847D02*
X017185Y030526D01*
X017380Y030526D02*
X017540Y030687D01*
X017540Y030847D01*
X017380Y031007D01*
X017185Y030847D02*
X017024Y031007D01*
X016864Y030847D01*
X013587Y030526D02*
X013427Y030526D01*
X013507Y030526D02*
X013507Y031007D01*
X013427Y031007D01*
X013231Y030847D02*
X013231Y030526D01*
X012991Y030526D01*
X012911Y030607D01*
X012911Y030847D01*
X012212Y031007D02*
X012052Y030847D01*
X012052Y030687D01*
X012212Y030167D02*
X012052Y030007D01*
X012567Y029927D02*
X012888Y029927D01*
X019588Y026930D02*
X019590Y026985D01*
X019596Y027039D01*
X019606Y027093D01*
X019620Y027145D01*
X019637Y027197D01*
X019659Y027247D01*
X019684Y027296D01*
X019712Y027343D01*
X019744Y027387D01*
X019779Y027429D01*
X019817Y027468D01*
X019858Y027505D01*
X019901Y027538D01*
X019946Y027568D01*
X019994Y027595D01*
X020043Y027618D01*
X020094Y027638D01*
X020147Y027654D01*
X020200Y027666D01*
X020254Y027674D01*
X020309Y027678D01*
X020363Y027678D01*
X020418Y027674D01*
X020472Y027666D01*
X020525Y027654D01*
X020578Y027638D01*
X020629Y027618D01*
X020678Y027595D01*
X020726Y027568D01*
X020771Y027538D01*
X020814Y027505D01*
X020855Y027468D01*
X020893Y027429D01*
X020928Y027387D01*
X020960Y027343D01*
X020988Y027296D01*
X021013Y027247D01*
X021035Y027197D01*
X021052Y027145D01*
X021066Y027093D01*
X021076Y027039D01*
X021082Y026985D01*
X021084Y026930D01*
X021082Y026875D01*
X021076Y026821D01*
X021066Y026767D01*
X021052Y026715D01*
X021035Y026663D01*
X021013Y026613D01*
X020988Y026564D01*
X020960Y026517D01*
X020928Y026473D01*
X020893Y026431D01*
X020855Y026392D01*
X020814Y026355D01*
X020771Y026322D01*
X020726Y026292D01*
X020678Y026265D01*
X020629Y026242D01*
X020578Y026222D01*
X020525Y026206D01*
X020472Y026194D01*
X020418Y026186D01*
X020363Y026182D01*
X020309Y026182D01*
X020254Y026186D01*
X020200Y026194D01*
X020147Y026206D01*
X020094Y026222D01*
X020043Y026242D01*
X019994Y026265D01*
X019946Y026292D01*
X019901Y026322D01*
X019858Y026355D01*
X019817Y026392D01*
X019779Y026431D01*
X019744Y026473D01*
X019712Y026517D01*
X019684Y026564D01*
X019659Y026613D01*
X019637Y026663D01*
X019620Y026715D01*
X019606Y026767D01*
X019596Y026821D01*
X019590Y026875D01*
X019588Y026930D01*
D11*
X017842Y031670D02*
X017449Y031670D01*
X017645Y031670D02*
X017645Y032260D01*
X017449Y032064D01*
X017198Y032260D02*
X017198Y031867D01*
X017001Y031670D01*
X016804Y031867D01*
X016804Y032260D01*
X015909Y031965D02*
X015909Y031867D01*
X015515Y031867D01*
X015515Y031965D02*
X015613Y032064D01*
X015810Y032064D01*
X015909Y031965D01*
X015810Y031670D02*
X015613Y031670D01*
X015515Y031768D01*
X015515Y031965D01*
X015264Y031965D02*
X015166Y032064D01*
X014870Y032064D01*
X014870Y032260D02*
X014870Y031670D01*
X015166Y031670D01*
X015264Y031768D01*
X015264Y031965D01*
X014620Y031965D02*
X014521Y032064D01*
X014324Y032064D01*
X014226Y031965D01*
X014226Y031768D01*
X014324Y031670D01*
X014521Y031670D01*
X014620Y031768D01*
X014620Y031965D01*
X013984Y032064D02*
X013886Y032064D01*
X013689Y031867D01*
X013689Y031670D02*
X013689Y032064D01*
X013438Y031965D02*
X013438Y031768D01*
X013339Y031670D01*
X013044Y031670D01*
X013044Y031473D02*
X013044Y032064D01*
X013339Y032064D01*
X013438Y031965D01*
X012149Y032064D02*
X011854Y032064D01*
X011755Y031965D01*
X011755Y031768D01*
X011854Y031670D01*
X012149Y031670D01*
X011504Y031670D02*
X011504Y032260D01*
X011504Y032064D02*
X011209Y032064D01*
X011111Y031965D01*
X011111Y031768D01*
X011209Y031670D01*
X011504Y031670D01*
X010878Y031670D02*
X010681Y031670D01*
X010779Y031670D02*
X010779Y032260D01*
X010681Y032260D02*
X010878Y032260D01*
X014915Y009721D02*
X014915Y009623D01*
X014915Y009426D02*
X014915Y009032D01*
X014817Y009032D02*
X015014Y009032D01*
X015246Y009131D02*
X015246Y009327D01*
X015345Y009426D01*
X015640Y009426D01*
X015640Y009032D02*
X015345Y009032D01*
X015246Y009131D01*
X014915Y009426D02*
X014817Y009426D01*
X014584Y009426D02*
X014387Y009426D01*
X014485Y009524D02*
X014485Y009131D01*
X014584Y009032D01*
X014136Y009229D02*
X013742Y009229D01*
X013742Y009131D02*
X013742Y009327D01*
X013841Y009426D01*
X014038Y009426D01*
X014136Y009327D01*
X014136Y009229D01*
X014038Y009032D02*
X013841Y009032D01*
X013742Y009131D01*
X013492Y009032D02*
X013492Y009327D01*
X013393Y009426D01*
X013098Y009426D01*
X013098Y009032D01*
X012847Y009032D02*
X012552Y009032D01*
X012453Y009131D01*
X012453Y009327D01*
X012552Y009426D01*
X012847Y009426D01*
X012847Y008934D01*
X012749Y008835D01*
X012650Y008835D01*
X012202Y009032D02*
X012202Y009327D01*
X012104Y009426D01*
X011907Y009426D01*
X011907Y009229D02*
X012202Y009229D01*
X012202Y009032D02*
X011907Y009032D01*
X011809Y009131D01*
X011907Y009229D01*
X011558Y009327D02*
X011558Y009032D01*
X011361Y009032D02*
X011361Y009327D01*
X011460Y009426D01*
X011558Y009327D01*
X011361Y009327D02*
X011263Y009426D01*
X011164Y009426D01*
X011164Y009032D01*
X010269Y009131D02*
X010269Y009327D01*
X010170Y009426D01*
X009974Y009426D01*
X009875Y009327D01*
X009875Y009131D01*
X009974Y009032D01*
X010170Y009032D01*
X010269Y009131D01*
X009624Y009032D02*
X009624Y009623D01*
X009231Y009623D02*
X009231Y009032D01*
X009624Y009032D02*
X009231Y009623D01*
X016535Y009426D02*
X016732Y009426D01*
X016634Y009524D02*
X016634Y009131D01*
X016732Y009032D01*
X016965Y009131D02*
X017064Y009032D01*
X017260Y009032D01*
X017359Y009131D01*
X017359Y009327D01*
X017260Y009426D01*
X017064Y009426D01*
X016965Y009327D01*
X016965Y009131D01*
X017610Y009131D02*
X017708Y009032D01*
X017905Y009032D01*
X018003Y009131D01*
X018003Y009327D01*
X017905Y009426D01*
X017708Y009426D01*
X017610Y009327D01*
X017610Y009131D01*
X018254Y009032D02*
X018451Y009032D01*
X018353Y009032D02*
X018353Y009623D01*
X018254Y009623D01*
X018684Y009327D02*
X018782Y009229D01*
X018979Y009229D01*
X019078Y009131D01*
X018979Y009032D01*
X018684Y009032D01*
X018684Y009327D02*
X018782Y009426D01*
X019078Y009426D01*
X019329Y009327D02*
X019329Y009721D01*
X019329Y009131D02*
X019329Y009032D01*
D12*
X027718Y011930D02*
X028899Y011143D01*
X030080Y012324D02*
X029293Y013505D01*
X025721Y012717D02*
X025723Y012822D01*
X025729Y012928D01*
X025739Y013032D01*
X025753Y013137D01*
X025771Y013241D01*
X025792Y013344D01*
X025818Y013446D01*
X025848Y013547D01*
X025881Y013647D01*
X025918Y013746D01*
X025959Y013843D01*
X026003Y013938D01*
X026051Y014032D01*
X026103Y014124D01*
X026158Y014214D01*
X026216Y014302D01*
X026278Y014387D01*
X026343Y014470D01*
X026410Y014551D01*
X026481Y014629D01*
X026555Y014704D01*
X026632Y014776D01*
X026711Y014846D01*
X026793Y014912D01*
X026877Y014975D01*
X026964Y015035D01*
X027053Y015092D01*
X027144Y015145D01*
X027236Y015195D01*
X027331Y015241D01*
X027427Y015284D01*
X027525Y015323D01*
X027625Y015358D01*
X027725Y015390D01*
X027827Y015417D01*
X027930Y015441D01*
X028033Y015461D01*
X028137Y015477D01*
X028242Y015489D01*
X028347Y015497D01*
X028452Y015501D01*
X028558Y015501D01*
X028663Y015497D01*
X028768Y015489D01*
X028873Y015477D01*
X028977Y015461D01*
X029080Y015441D01*
X029183Y015417D01*
X029285Y015390D01*
X029385Y015358D01*
X029485Y015323D01*
X029583Y015284D01*
X029679Y015241D01*
X029774Y015195D01*
X029866Y015145D01*
X029957Y015092D01*
X030046Y015035D01*
X030133Y014975D01*
X030217Y014912D01*
X030299Y014846D01*
X030378Y014776D01*
X030455Y014704D01*
X030529Y014629D01*
X030600Y014551D01*
X030667Y014470D01*
X030732Y014387D01*
X030794Y014302D01*
X030852Y014214D01*
X030907Y014124D01*
X030959Y014032D01*
X031007Y013938D01*
X031051Y013843D01*
X031092Y013746D01*
X031129Y013647D01*
X031162Y013547D01*
X031192Y013446D01*
X031218Y013344D01*
X031239Y013241D01*
X031257Y013137D01*
X031271Y013032D01*
X031281Y012928D01*
X031287Y012822D01*
X031289Y012717D01*
X031287Y012612D01*
X031281Y012506D01*
X031271Y012402D01*
X031257Y012297D01*
X031239Y012193D01*
X031218Y012090D01*
X031192Y011988D01*
X031162Y011887D01*
X031129Y011787D01*
X031092Y011688D01*
X031051Y011591D01*
X031007Y011496D01*
X030959Y011402D01*
X030907Y011310D01*
X030852Y011220D01*
X030794Y011132D01*
X030732Y011047D01*
X030667Y010964D01*
X030600Y010883D01*
X030529Y010805D01*
X030455Y010730D01*
X030378Y010658D01*
X030299Y010588D01*
X030217Y010522D01*
X030133Y010459D01*
X030046Y010399D01*
X029957Y010342D01*
X029866Y010289D01*
X029774Y010239D01*
X029679Y010193D01*
X029583Y010150D01*
X029485Y010111D01*
X029385Y010076D01*
X029285Y010044D01*
X029183Y010017D01*
X029080Y009993D01*
X028977Y009973D01*
X028873Y009957D01*
X028768Y009945D01*
X028663Y009937D01*
X028558Y009933D01*
X028452Y009933D01*
X028347Y009937D01*
X028242Y009945D01*
X028137Y009957D01*
X028033Y009973D01*
X027930Y009993D01*
X027827Y010017D01*
X027725Y010044D01*
X027625Y010076D01*
X027525Y010111D01*
X027427Y010150D01*
X027331Y010193D01*
X027236Y010239D01*
X027144Y010289D01*
X027053Y010342D01*
X026964Y010399D01*
X026877Y010459D01*
X026793Y010522D01*
X026711Y010588D01*
X026632Y010658D01*
X026555Y010730D01*
X026481Y010805D01*
X026410Y010883D01*
X026343Y010964D01*
X026278Y011047D01*
X026216Y011132D01*
X026158Y011220D01*
X026103Y011310D01*
X026051Y011402D01*
X026003Y011496D01*
X025959Y011591D01*
X025918Y011688D01*
X025881Y011787D01*
X025848Y011887D01*
X025818Y011988D01*
X025792Y012090D01*
X025771Y012193D01*
X025753Y012297D01*
X025739Y012402D01*
X025729Y012506D01*
X025723Y012612D01*
X025721Y012717D01*
X027717Y011930D02*
X027661Y011966D01*
X027606Y012005D01*
X027554Y012048D01*
X027505Y012094D01*
X027458Y012142D01*
X027415Y012193D01*
X027374Y012247D01*
X027336Y012302D01*
X027302Y012360D01*
X027272Y012420D01*
X027244Y012482D01*
X027221Y012545D01*
X027201Y012609D01*
X027185Y012674D01*
X027173Y012740D01*
X027165Y012807D01*
X027161Y012874D01*
X027160Y012941D01*
X027164Y013009D01*
X027171Y013075D01*
X027183Y013142D01*
X027198Y013207D01*
X027217Y013272D01*
X027240Y013335D01*
X027266Y013397D01*
X027296Y013457D01*
X027330Y013515D01*
X027367Y013571D01*
X027407Y013625D01*
X027450Y013677D01*
X027496Y013726D01*
X027545Y013772D01*
X027597Y013815D01*
X027651Y013855D01*
X027707Y013892D01*
X027765Y013926D01*
X027825Y013956D01*
X027887Y013982D01*
X027950Y014005D01*
X028015Y014024D01*
X028080Y014039D01*
X028147Y014051D01*
X028213Y014058D01*
X028281Y014062D01*
X028348Y014061D01*
X028415Y014057D01*
X028482Y014049D01*
X028548Y014037D01*
X028613Y014021D01*
X028677Y014001D01*
X028740Y013978D01*
X028802Y013950D01*
X028862Y013920D01*
X028920Y013886D01*
X028975Y013848D01*
X029029Y013807D01*
X029080Y013764D01*
X029128Y013717D01*
X029174Y013668D01*
X029217Y013616D01*
X029256Y013561D01*
X029292Y013505D01*
D13*
X029489Y011930D02*
X029883Y012028D01*
X029489Y011930D02*
X029588Y011635D01*
X029194Y011536D01*
X026537Y010749D02*
X030474Y014686D01*
D14*
X021025Y017146D02*
X021025Y017737D01*
X018958Y020985D02*
X018367Y020985D01*
X018171Y020985D02*
X017580Y020985D01*
X016596Y021379D02*
X016005Y021379D01*
X015808Y021379D02*
X015218Y021379D01*
X016793Y019804D02*
X017383Y019804D01*
X017580Y023347D02*
X018171Y023347D01*
X014332Y016162D02*
X014332Y015572D01*
X014037Y014686D02*
X013446Y014686D01*
X013446Y012914D02*
X014037Y012914D01*
X011694Y016930D02*
X011458Y016930D01*
X011458Y017560D02*
X011694Y017560D01*
X011694Y019292D02*
X011458Y019292D01*
X011458Y019922D02*
X011694Y019922D01*
X011694Y020178D02*
X011458Y020178D01*
X011458Y020808D02*
X011694Y020808D01*
X009804Y020099D02*
X009804Y019509D01*
X009706Y018623D02*
X009115Y018623D01*
X008919Y018229D02*
X008328Y018229D01*
X008230Y017146D02*
X008230Y016556D01*
X008230Y016359D02*
X008230Y015769D01*
X005789Y015749D02*
X005552Y015749D01*
X005552Y016379D02*
X005789Y016379D01*
X005789Y018111D02*
X005552Y018111D01*
X005552Y018741D02*
X005789Y018741D01*
X005789Y018997D02*
X005552Y018997D01*
X005552Y019627D02*
X005789Y019627D01*
X005572Y021379D02*
X006163Y021379D01*
X006360Y021379D02*
X006950Y021379D01*
X007147Y021379D02*
X007738Y021379D01*
X007049Y022265D02*
X007049Y022855D01*
X007049Y023446D02*
X007049Y024036D01*
X007934Y024135D02*
X008525Y024135D01*
X008722Y024135D02*
X009312Y024135D01*
X009706Y024135D02*
X010297Y024135D01*
X010493Y024135D02*
X011084Y024135D01*
X020238Y011831D02*
X020238Y011241D01*
X020238Y010847D02*
X020238Y010257D01*
D15*
X019165Y010306D02*
X019121Y010262D01*
X019032Y010262D01*
X018988Y010306D01*
X018988Y010350D01*
X019032Y010395D01*
X019121Y010395D01*
X019165Y010350D01*
X019165Y010306D01*
X019121Y010395D02*
X019165Y010439D01*
X019165Y010483D01*
X019121Y010527D01*
X019032Y010527D01*
X018988Y010483D01*
X018988Y010439D01*
X019032Y010395D01*
X018875Y010395D02*
X018875Y010483D01*
X018831Y010527D01*
X018698Y010527D01*
X018698Y010262D01*
X018698Y010350D02*
X018831Y010350D01*
X018875Y010395D01*
X018787Y010350D02*
X018875Y010262D01*
X018875Y011443D02*
X018787Y011532D01*
X018831Y011532D02*
X018698Y011532D01*
X018698Y011443D02*
X018698Y011708D01*
X018831Y011708D01*
X018875Y011664D01*
X018875Y011576D01*
X018831Y011532D01*
X018988Y011487D02*
X019165Y011664D01*
X019165Y011708D01*
X018988Y011708D01*
X018988Y011487D02*
X018988Y011443D01*
X015868Y015605D02*
X015868Y015649D01*
X016045Y015826D01*
X016045Y015870D01*
X015868Y015870D01*
X015667Y015870D02*
X015667Y015605D01*
X015755Y015605D02*
X015578Y015605D01*
X015465Y015605D02*
X015377Y015693D01*
X015421Y015693D02*
X015288Y015693D01*
X015288Y015605D02*
X015288Y015870D01*
X015421Y015870D01*
X015465Y015826D01*
X015465Y015737D01*
X015421Y015693D01*
X015578Y015781D02*
X015667Y015870D01*
X015687Y016436D02*
X015820Y016436D01*
X015864Y016480D01*
X015864Y016657D01*
X015820Y016701D01*
X015687Y016701D01*
X015687Y016436D01*
X015574Y016436D02*
X015397Y016436D01*
X015397Y016701D01*
X015574Y016701D01*
X015485Y016568D02*
X015397Y016568D01*
X015284Y016436D02*
X015107Y016436D01*
X015107Y016701D01*
X015627Y016975D02*
X015627Y017240D01*
X015715Y017240D02*
X015538Y017240D01*
X015828Y017240D02*
X015828Y016975D01*
X015828Y017063D02*
X015961Y017063D01*
X016005Y017107D01*
X016005Y017196D01*
X015961Y017240D01*
X015828Y017240D01*
X016118Y017240D02*
X016295Y017240D01*
X016295Y017196D01*
X016118Y017019D01*
X016118Y016975D01*
X016065Y016701D02*
X016065Y016436D01*
X015977Y016436D02*
X016154Y016436D01*
X015977Y016612D02*
X016065Y016701D01*
X016493Y017439D02*
X016493Y017704D01*
X016625Y017704D01*
X016670Y017660D01*
X016670Y017572D01*
X016625Y017528D01*
X016493Y017528D01*
X016581Y017528D02*
X016670Y017439D01*
X016783Y017439D02*
X016960Y017439D01*
X016871Y017439D02*
X016871Y017704D01*
X016783Y017616D01*
X017073Y017572D02*
X017161Y017616D01*
X017205Y017616D01*
X017250Y017572D01*
X017250Y017483D01*
X017205Y017439D01*
X017117Y017439D01*
X017073Y017483D01*
X017073Y017572D02*
X017073Y017704D01*
X017250Y017704D01*
X017774Y019382D02*
X017774Y019515D01*
X017818Y019559D01*
X017907Y019559D01*
X017951Y019515D01*
X017951Y019382D01*
X018039Y019382D02*
X017774Y019382D01*
X017951Y019470D02*
X018039Y019559D01*
X018039Y019672D02*
X018039Y019849D01*
X018039Y019760D02*
X017774Y019760D01*
X017863Y019672D01*
X017907Y019962D02*
X017907Y020139D01*
X018039Y020095D02*
X017774Y020095D01*
X017907Y019962D01*
X018463Y020006D02*
X018463Y020095D01*
X018507Y020139D01*
X018551Y020139D01*
X018596Y020095D01*
X018640Y020139D01*
X018684Y020139D01*
X018728Y020095D01*
X018728Y020006D01*
X018684Y019962D01*
X018728Y019849D02*
X018728Y019672D01*
X018728Y019760D02*
X018463Y019760D01*
X018551Y019672D01*
X018507Y019559D02*
X018596Y019559D01*
X018640Y019515D01*
X018640Y019382D01*
X018728Y019382D02*
X018463Y019382D01*
X018463Y019515D01*
X018507Y019559D01*
X018640Y019470D02*
X018728Y019559D01*
X018507Y019962D02*
X018463Y020006D01*
X018596Y020051D02*
X018596Y020095D01*
X020300Y021629D02*
X020388Y021629D01*
X020344Y021629D02*
X020344Y021894D01*
X020300Y021894D02*
X020388Y021894D01*
X020493Y021850D02*
X020493Y021673D01*
X020537Y021629D01*
X020626Y021629D01*
X020670Y021673D01*
X020783Y021629D02*
X020960Y021629D01*
X020872Y021629D02*
X020872Y021894D01*
X020783Y021806D01*
X020670Y021850D02*
X020626Y021894D01*
X020537Y021894D01*
X020493Y021850D01*
X020356Y023668D02*
X020356Y023933D01*
X020488Y023933D01*
X020532Y023889D01*
X020532Y023800D01*
X020488Y023756D01*
X020356Y023756D01*
X020242Y023933D02*
X020066Y023933D01*
X020154Y023933D02*
X020154Y023668D01*
X020646Y023712D02*
X020690Y023668D01*
X020778Y023668D01*
X020822Y023712D01*
X020822Y023889D01*
X020778Y023933D01*
X020690Y023933D01*
X020646Y023889D01*
X020646Y023844D01*
X020690Y023800D01*
X020822Y023800D01*
X022187Y024331D02*
X022189Y024380D01*
X022195Y024429D01*
X022205Y024477D01*
X022218Y024524D01*
X022236Y024570D01*
X022257Y024614D01*
X022281Y024657D01*
X022309Y024697D01*
X022340Y024736D01*
X022374Y024771D01*
X022411Y024804D01*
X022450Y024833D01*
X022492Y024859D01*
X022535Y024882D01*
X022581Y024901D01*
X022627Y024917D01*
X022675Y024929D01*
X022723Y024937D01*
X022772Y024941D01*
X022822Y024941D01*
X022871Y024937D01*
X022919Y024929D01*
X022967Y024917D01*
X023013Y024901D01*
X023059Y024882D01*
X023102Y024859D01*
X023144Y024833D01*
X023183Y024804D01*
X023220Y024771D01*
X023254Y024736D01*
X023285Y024697D01*
X023313Y024657D01*
X023337Y024614D01*
X023358Y024570D01*
X023376Y024524D01*
X023389Y024477D01*
X023399Y024429D01*
X023405Y024380D01*
X023407Y024331D01*
X023405Y024282D01*
X023399Y024233D01*
X023389Y024185D01*
X023376Y024138D01*
X023358Y024092D01*
X023337Y024048D01*
X023313Y024005D01*
X023285Y023965D01*
X023254Y023926D01*
X023220Y023891D01*
X023183Y023858D01*
X023144Y023829D01*
X023102Y023803D01*
X023059Y023780D01*
X023013Y023761D01*
X022967Y023745D01*
X022919Y023733D01*
X022871Y023725D01*
X022822Y023721D01*
X022772Y023721D01*
X022723Y023725D01*
X022675Y023733D01*
X022627Y023745D01*
X022581Y023761D01*
X022535Y023780D01*
X022492Y023803D01*
X022450Y023829D01*
X022411Y023858D01*
X022374Y023891D01*
X022340Y023926D01*
X022309Y023965D01*
X022281Y024005D01*
X022257Y024048D01*
X022236Y024092D01*
X022218Y024138D01*
X022205Y024185D01*
X022195Y024233D01*
X022189Y024282D01*
X022187Y024331D01*
X017941Y024294D02*
X017941Y024383D01*
X017897Y024427D01*
X017941Y024540D02*
X017764Y024717D01*
X017720Y024717D01*
X017676Y024673D01*
X017676Y024584D01*
X017720Y024540D01*
X017720Y024427D02*
X017676Y024383D01*
X017676Y024294D01*
X017720Y024250D01*
X017897Y024250D01*
X017941Y024294D01*
X017941Y024540D02*
X017941Y024717D01*
X017897Y024830D02*
X017941Y024874D01*
X017941Y024963D01*
X017897Y025007D01*
X017852Y025007D01*
X017808Y024963D01*
X017808Y024830D01*
X017897Y024830D01*
X017808Y024830D02*
X017720Y024919D01*
X017676Y025007D01*
X017252Y024371D02*
X017252Y024194D01*
X017252Y024283D02*
X016987Y024283D01*
X017075Y024194D01*
X017252Y024081D02*
X017252Y023904D01*
X017252Y023993D02*
X016987Y023993D01*
X017075Y023904D01*
X017031Y023791D02*
X017119Y023791D01*
X017163Y023747D01*
X017163Y023614D01*
X017163Y023703D02*
X017252Y023791D01*
X017252Y023614D02*
X016987Y023614D01*
X016987Y023747D01*
X017031Y023791D01*
X015776Y023485D02*
X015776Y023309D01*
X015599Y023485D01*
X015555Y023485D01*
X015510Y023441D01*
X015510Y023353D01*
X015555Y023309D01*
X015510Y023107D02*
X015776Y023107D01*
X015776Y023019D02*
X015776Y023195D01*
X015599Y023019D02*
X015510Y023107D01*
X015555Y022905D02*
X015643Y022905D01*
X015687Y022861D01*
X015687Y022729D01*
X015687Y022817D02*
X015776Y022905D01*
X015776Y022729D02*
X015510Y022729D01*
X015510Y022861D01*
X015555Y022905D01*
X014567Y023904D02*
X014479Y023904D01*
X014434Y023948D01*
X014321Y023904D02*
X014144Y024169D01*
X014321Y024169D02*
X014144Y023904D01*
X014434Y024125D02*
X014479Y024169D01*
X014567Y024169D01*
X014611Y024125D01*
X014611Y024081D01*
X014567Y024036D01*
X014611Y023992D01*
X014611Y023948D01*
X014567Y023904D01*
X014567Y024036D02*
X014523Y024036D01*
X013618Y022658D02*
X013618Y022481D01*
X013441Y022658D01*
X013397Y022658D01*
X013353Y022614D01*
X013353Y022525D01*
X013397Y022481D01*
X013618Y022368D02*
X013618Y022191D01*
X013353Y022191D01*
X013151Y022284D02*
X013151Y022048D01*
X012280Y022979D02*
X012324Y023023D01*
X012324Y023067D01*
X012280Y023111D01*
X012235Y023111D01*
X012280Y023111D02*
X012324Y023155D01*
X012324Y023200D01*
X012280Y023244D01*
X012191Y023244D01*
X012147Y023200D01*
X012034Y023200D02*
X011990Y023244D01*
X011857Y023244D01*
X011857Y022979D01*
X011990Y022979D01*
X012034Y023023D01*
X012034Y023200D01*
X012147Y023023D02*
X012191Y022979D01*
X012280Y022979D01*
X011970Y022284D02*
X011970Y022048D01*
X010779Y022872D02*
X010602Y022872D01*
X010690Y022872D02*
X010690Y023137D01*
X010602Y023049D01*
X010489Y023137D02*
X010489Y022916D01*
X010445Y022872D01*
X010356Y022872D01*
X010312Y022916D01*
X010312Y023137D01*
X010173Y024947D02*
X009908Y024947D01*
X009908Y025080D01*
X009952Y025124D01*
X010041Y025124D01*
X010085Y025080D01*
X010085Y024947D01*
X010085Y025035D02*
X010173Y025124D01*
X010041Y025237D02*
X010041Y025414D01*
X010173Y025370D02*
X009908Y025370D01*
X010041Y025237D01*
X010695Y025281D02*
X010695Y025370D01*
X010740Y025414D01*
X010784Y025414D01*
X010828Y025370D01*
X010828Y025281D01*
X010784Y025237D01*
X010740Y025237D01*
X010695Y025281D01*
X010828Y025281D02*
X010872Y025237D01*
X010916Y025237D01*
X010961Y025281D01*
X010961Y025370D01*
X010916Y025414D01*
X010872Y025414D01*
X010828Y025370D01*
X010916Y025124D02*
X010961Y025080D01*
X010961Y024991D01*
X010916Y024947D01*
X010740Y024947D01*
X010695Y024991D01*
X010695Y025080D01*
X010740Y025124D01*
X008992Y025124D02*
X008904Y025035D01*
X008904Y025080D02*
X008904Y024947D01*
X008992Y024947D02*
X008727Y024947D01*
X008727Y025080D01*
X008771Y025124D01*
X008859Y025124D01*
X008904Y025080D01*
X008948Y025237D02*
X008992Y025281D01*
X008992Y025370D01*
X008948Y025414D01*
X008904Y025414D01*
X008859Y025370D01*
X008859Y025325D01*
X008859Y025370D02*
X008815Y025414D01*
X008771Y025414D01*
X008727Y025370D01*
X008727Y025281D01*
X008771Y025237D01*
X008401Y025237D02*
X008357Y025237D01*
X008181Y025414D01*
X008136Y025414D01*
X008136Y025237D01*
X008181Y025124D02*
X008136Y025080D01*
X008136Y024991D01*
X008181Y024947D01*
X008357Y024947D01*
X008401Y024991D01*
X008401Y025080D01*
X008357Y025124D01*
X007559Y024496D02*
X007470Y024452D01*
X007382Y024363D01*
X007515Y024363D01*
X007559Y024319D01*
X007559Y024275D01*
X007515Y024231D01*
X007426Y024231D01*
X007382Y024275D01*
X007382Y024363D01*
X007269Y024275D02*
X007225Y024231D01*
X007136Y024231D01*
X007092Y024275D01*
X007092Y024452D01*
X007136Y024496D01*
X007225Y024496D01*
X007269Y024452D01*
X007284Y023216D02*
X007284Y023084D01*
X007372Y023128D01*
X007416Y023128D01*
X007460Y023084D01*
X007460Y022995D01*
X007416Y022951D01*
X007328Y022951D01*
X007284Y022995D01*
X007170Y022995D02*
X007126Y022951D01*
X007038Y022951D01*
X006994Y022995D01*
X006994Y023172D01*
X007038Y023216D01*
X007126Y023216D01*
X007170Y023172D01*
X007284Y023216D02*
X007460Y023216D01*
X007841Y021969D02*
X007885Y021881D01*
X007974Y021792D01*
X007974Y021925D01*
X008018Y021969D01*
X008062Y021969D01*
X008106Y021925D01*
X008106Y021836D01*
X008062Y021792D01*
X007974Y021792D01*
X007974Y021679D02*
X008018Y021635D01*
X008018Y021502D01*
X008106Y021502D02*
X007841Y021502D01*
X007841Y021635D01*
X007885Y021679D01*
X007974Y021679D01*
X008018Y021591D02*
X008106Y021679D01*
X008013Y020468D02*
X007881Y020468D01*
X007881Y020203D01*
X008013Y020203D01*
X008057Y020247D01*
X008057Y020424D01*
X008013Y020468D01*
X008171Y020424D02*
X008215Y020468D01*
X008303Y020468D01*
X008347Y020424D01*
X008347Y020380D01*
X008171Y020203D01*
X008347Y020203D01*
X008033Y019135D02*
X008033Y018898D01*
X008098Y018024D02*
X008098Y017847D01*
X007922Y018024D01*
X007877Y018024D01*
X007833Y017980D01*
X007833Y017891D01*
X007877Y017847D01*
X007877Y017734D02*
X007833Y017690D01*
X007833Y017601D01*
X007877Y017557D01*
X008054Y017557D01*
X008098Y017601D01*
X008098Y017690D01*
X008054Y017734D01*
X007452Y017939D02*
X007276Y017939D01*
X007364Y017939D02*
X007364Y018204D01*
X007276Y018116D01*
X007162Y017939D02*
X006986Y017939D01*
X006986Y018204D01*
X006911Y017550D02*
X006911Y017374D01*
X006778Y017506D01*
X007043Y017506D01*
X007043Y017260D02*
X007043Y017084D01*
X006778Y017084D01*
X006556Y017127D02*
X006556Y017363D01*
X007144Y016951D02*
X007409Y016951D01*
X007409Y016863D02*
X007409Y017040D01*
X007233Y016863D02*
X007144Y016951D01*
X007188Y016750D02*
X007144Y016706D01*
X007144Y016617D01*
X007188Y016573D01*
X007365Y016573D01*
X007409Y016617D01*
X007409Y016706D01*
X007365Y016750D01*
X007365Y016351D02*
X007409Y016307D01*
X007409Y016218D01*
X007365Y016174D01*
X007365Y016061D02*
X007409Y016017D01*
X007409Y015928D01*
X007365Y015884D01*
X007188Y015884D01*
X007144Y015928D01*
X007144Y016017D01*
X007188Y016061D01*
X007188Y016174D02*
X007144Y016218D01*
X007144Y016307D01*
X007188Y016351D01*
X007233Y016351D01*
X007277Y016307D01*
X007321Y016351D01*
X007365Y016351D01*
X007277Y016307D02*
X007277Y016262D01*
X005897Y015562D02*
X005897Y015518D01*
X005853Y015473D01*
X005897Y015429D01*
X005897Y015385D01*
X005853Y015341D01*
X005765Y015341D01*
X005721Y015385D01*
X005607Y015341D02*
X005431Y015341D01*
X005519Y015341D02*
X005519Y015606D01*
X005431Y015518D01*
X005317Y015562D02*
X005273Y015606D01*
X005185Y015606D01*
X005141Y015562D01*
X005141Y015385D01*
X005185Y015341D01*
X005273Y015341D01*
X005317Y015385D01*
X005721Y015562D02*
X005765Y015606D01*
X005853Y015606D01*
X005897Y015562D01*
X005853Y015473D02*
X005809Y015473D01*
X006935Y014431D02*
X006935Y014334D01*
X006590Y013324D02*
X006530Y013158D01*
X006424Y013385D01*
X006382Y013400D01*
X006326Y013374D01*
X006296Y013291D01*
X006322Y013234D01*
X006283Y013128D02*
X006366Y013097D01*
X006393Y013041D01*
X006347Y012916D01*
X006430Y012886D02*
X006181Y012977D01*
X006227Y013101D01*
X006283Y013128D01*
X006142Y012870D02*
X006082Y012704D01*
X006112Y012787D02*
X006361Y012696D01*
X006039Y011235D02*
X006039Y011059D01*
X006039Y011147D02*
X005774Y011147D01*
X005863Y011059D01*
X005863Y010945D02*
X005818Y010945D01*
X005774Y010901D01*
X005774Y010813D01*
X005818Y010769D01*
X005818Y010655D02*
X005774Y010611D01*
X005774Y010523D01*
X005818Y010479D01*
X005995Y010479D01*
X006039Y010523D01*
X006039Y010611D01*
X005995Y010655D01*
X006039Y010769D02*
X005863Y010945D01*
X006039Y010945D02*
X006039Y010769D01*
X009929Y015409D02*
X009929Y015431D01*
X011404Y016527D02*
X011448Y016482D01*
X011537Y016482D01*
X011581Y016527D01*
X011694Y016482D02*
X011871Y016482D01*
X011783Y016482D02*
X011783Y016748D01*
X011694Y016659D01*
X011581Y016703D02*
X011537Y016748D01*
X011448Y016748D01*
X011404Y016703D01*
X011404Y016527D01*
X011984Y016482D02*
X012161Y016659D01*
X012161Y016703D01*
X012117Y016748D01*
X012028Y016748D01*
X011984Y016703D01*
X011984Y016482D02*
X012161Y016482D01*
X012314Y015268D02*
X012491Y015268D01*
X012403Y015268D02*
X012403Y015003D01*
X012604Y015003D02*
X012604Y015268D01*
X012737Y015268D01*
X012781Y015224D01*
X012781Y015135D01*
X012737Y015091D01*
X012604Y015091D01*
X012894Y015047D02*
X012939Y015003D01*
X013027Y015003D01*
X013071Y015047D01*
X013071Y015135D01*
X013027Y015180D01*
X012983Y015180D01*
X012894Y015135D01*
X012894Y015268D01*
X013071Y015268D01*
X013084Y014574D02*
X013084Y014441D01*
X013040Y014397D01*
X012995Y014397D01*
X012951Y014441D01*
X012951Y014530D01*
X012995Y014574D01*
X013172Y014574D01*
X013216Y014530D01*
X013216Y014441D01*
X013172Y014397D01*
X013216Y014284D02*
X013216Y014107D01*
X013216Y014196D02*
X012951Y014196D01*
X013040Y014107D01*
X012995Y013994D02*
X012951Y013950D01*
X012951Y013861D01*
X012995Y013817D01*
X013172Y013817D01*
X013216Y013861D01*
X013216Y013950D01*
X013172Y013994D01*
X013172Y013196D02*
X013216Y013152D01*
X013216Y013063D01*
X013172Y013019D01*
X012995Y013196D01*
X013172Y013196D01*
X012995Y013196D02*
X012951Y013152D01*
X012951Y013063D01*
X012995Y013019D01*
X013172Y013019D01*
X013216Y012906D02*
X013216Y012729D01*
X013040Y012906D01*
X012995Y012906D01*
X012951Y012862D01*
X012951Y012773D01*
X012995Y012729D01*
X012995Y012616D02*
X012951Y012572D01*
X012951Y012483D01*
X012995Y012439D01*
X013172Y012439D01*
X013216Y012483D01*
X013216Y012572D01*
X013172Y012616D01*
X011866Y011743D02*
X011866Y011566D01*
X011689Y011743D01*
X011645Y011743D01*
X011601Y011699D01*
X011601Y011611D01*
X011645Y011566D01*
X011645Y011453D02*
X011601Y011409D01*
X011601Y011321D01*
X011645Y011276D01*
X011645Y011163D02*
X011601Y011119D01*
X011601Y011031D01*
X011645Y010986D01*
X011822Y010986D01*
X011866Y011031D01*
X011866Y011119D01*
X011822Y011163D01*
X011866Y011276D02*
X011689Y011453D01*
X011645Y011453D01*
X011866Y011453D02*
X011866Y011276D01*
X009680Y017538D02*
X009680Y017803D01*
X009547Y017670D01*
X009724Y017670D01*
X009434Y017582D02*
X009390Y017538D01*
X009301Y017538D01*
X009257Y017582D01*
X009257Y017759D01*
X009301Y017803D01*
X009390Y017803D01*
X009434Y017759D01*
X010223Y018363D02*
X010488Y018363D01*
X010488Y018540D01*
X010444Y018653D02*
X010488Y018697D01*
X010488Y018786D01*
X010444Y018830D01*
X010400Y018830D01*
X010356Y018786D01*
X010356Y018741D01*
X010356Y018786D02*
X010311Y018830D01*
X010267Y018830D01*
X010223Y018786D01*
X010223Y018697D01*
X010267Y018653D01*
X010263Y019049D02*
X010440Y019226D01*
X010440Y019270D01*
X010396Y019315D01*
X010307Y019315D01*
X010263Y019270D01*
X010150Y019270D02*
X010150Y019182D01*
X010106Y019138D01*
X009973Y019138D01*
X010062Y019138D02*
X010150Y019049D01*
X010263Y019049D02*
X010440Y019049D01*
X010150Y019270D02*
X010106Y019315D01*
X009973Y019315D01*
X009973Y019049D01*
X010690Y018544D02*
X010690Y018308D01*
X011871Y018308D02*
X011871Y018544D01*
X012728Y019731D02*
X012816Y019731D01*
X012861Y019775D01*
X012974Y019731D02*
X013151Y019731D01*
X013062Y019731D02*
X013062Y019996D01*
X012974Y019907D01*
X012861Y019952D02*
X012816Y019996D01*
X012728Y019996D01*
X012684Y019952D01*
X012684Y019775D01*
X012728Y019731D01*
X012728Y020124D02*
X012816Y020124D01*
X012861Y020168D01*
X012974Y020168D02*
X013018Y020124D01*
X013106Y020124D01*
X013151Y020168D01*
X013151Y020345D01*
X013106Y020389D01*
X013018Y020389D01*
X012974Y020345D01*
X012974Y020301D01*
X013018Y020257D01*
X013151Y020257D01*
X012861Y020345D02*
X012816Y020389D01*
X012728Y020389D01*
X012684Y020345D01*
X012684Y020168D01*
X012728Y020124D01*
X013264Y019863D02*
X013396Y019863D01*
X013441Y019819D01*
X013441Y019775D01*
X013396Y019731D01*
X013308Y019731D01*
X013264Y019775D01*
X013264Y019863D01*
X013352Y019952D01*
X013441Y019996D01*
X013943Y020059D02*
X013943Y020148D01*
X013988Y020192D01*
X014164Y020015D01*
X014209Y020059D01*
X014209Y020148D01*
X014164Y020192D01*
X013988Y020192D01*
X013943Y020059D02*
X013988Y020015D01*
X014164Y020015D01*
X014209Y019902D02*
X014209Y019725D01*
X014209Y019814D02*
X013943Y019814D01*
X014032Y019725D01*
X014076Y019612D02*
X014120Y019568D01*
X014120Y019435D01*
X014209Y019435D02*
X013943Y019435D01*
X013943Y019568D01*
X013988Y019612D01*
X014076Y019612D01*
X014120Y019524D02*
X014209Y019612D01*
X014337Y019568D02*
X014381Y019612D01*
X014470Y019612D01*
X014514Y019568D01*
X014514Y019435D01*
X014602Y019435D02*
X014337Y019435D01*
X014337Y019568D01*
X014381Y019725D02*
X014425Y019725D01*
X014470Y019769D01*
X014470Y019902D01*
X014558Y019902D02*
X014381Y019902D01*
X014337Y019858D01*
X014337Y019769D01*
X014381Y019725D01*
X014558Y019725D02*
X014602Y019769D01*
X014602Y019858D01*
X014558Y019902D01*
X014731Y019858D02*
X014731Y019769D01*
X014775Y019725D01*
X014775Y019612D02*
X014731Y019568D01*
X014731Y019479D01*
X014775Y019435D01*
X014952Y019435D01*
X014996Y019479D01*
X014996Y019568D01*
X014952Y019612D01*
X014996Y019725D02*
X014819Y019902D01*
X014775Y019902D01*
X014731Y019858D01*
X014863Y020015D02*
X014731Y020148D01*
X014996Y020148D01*
X014863Y020192D02*
X014863Y020015D01*
X014996Y019902D02*
X014996Y019725D01*
X014602Y019612D02*
X014514Y019524D01*
X014578Y020534D02*
X014401Y020534D01*
X014357Y020578D01*
X014357Y020666D01*
X014401Y020710D01*
X014401Y020824D02*
X014357Y020868D01*
X014357Y020956D01*
X014401Y021001D01*
X014445Y021001D01*
X014622Y020824D01*
X014622Y021001D01*
X014578Y021114D02*
X014622Y021158D01*
X014622Y021246D01*
X014578Y021291D01*
X014489Y021291D01*
X014445Y021246D01*
X014445Y021202D01*
X014489Y021114D01*
X014357Y021114D01*
X014357Y021291D01*
X014750Y021246D02*
X014795Y021291D01*
X014839Y021291D01*
X014883Y021246D01*
X014927Y021291D01*
X014971Y021291D01*
X015016Y021246D01*
X015016Y021158D01*
X014971Y021114D01*
X015016Y021001D02*
X015016Y020824D01*
X014839Y021001D01*
X014795Y021001D01*
X014750Y020956D01*
X014750Y020868D01*
X014795Y020824D01*
X014795Y020710D02*
X014750Y020666D01*
X014750Y020578D01*
X014795Y020534D01*
X014971Y020534D01*
X015016Y020578D01*
X015016Y020666D01*
X014971Y020710D01*
X014622Y020666D02*
X014578Y020710D01*
X014622Y020666D02*
X014622Y020578D01*
X014578Y020534D01*
X014795Y021114D02*
X014750Y021158D01*
X014750Y021246D01*
X014883Y021246D02*
X014883Y021202D01*
X012344Y018426D02*
X012346Y018475D01*
X012352Y018524D01*
X012362Y018572D01*
X012375Y018619D01*
X012393Y018665D01*
X012414Y018709D01*
X012438Y018752D01*
X012466Y018792D01*
X012497Y018831D01*
X012531Y018866D01*
X012568Y018899D01*
X012607Y018928D01*
X012649Y018954D01*
X012692Y018977D01*
X012738Y018996D01*
X012784Y019012D01*
X012832Y019024D01*
X012880Y019032D01*
X012929Y019036D01*
X012979Y019036D01*
X013028Y019032D01*
X013076Y019024D01*
X013124Y019012D01*
X013170Y018996D01*
X013216Y018977D01*
X013259Y018954D01*
X013301Y018928D01*
X013340Y018899D01*
X013377Y018866D01*
X013411Y018831D01*
X013442Y018792D01*
X013470Y018752D01*
X013494Y018709D01*
X013515Y018665D01*
X013533Y018619D01*
X013546Y018572D01*
X013556Y018524D01*
X013562Y018475D01*
X013564Y018426D01*
X013562Y018377D01*
X013556Y018328D01*
X013546Y018280D01*
X013533Y018233D01*
X013515Y018187D01*
X013494Y018143D01*
X013470Y018100D01*
X013442Y018060D01*
X013411Y018021D01*
X013377Y017986D01*
X013340Y017953D01*
X013301Y017924D01*
X013259Y017898D01*
X013216Y017875D01*
X013170Y017856D01*
X013124Y017840D01*
X013076Y017828D01*
X013028Y017820D01*
X012979Y017816D01*
X012929Y017816D01*
X012880Y017820D01*
X012832Y017828D01*
X012784Y017840D01*
X012738Y017856D01*
X012692Y017875D01*
X012649Y017898D01*
X012607Y017924D01*
X012568Y017953D01*
X012531Y017986D01*
X012497Y018021D01*
X012466Y018060D01*
X012438Y018100D01*
X012414Y018143D01*
X012393Y018187D01*
X012375Y018233D01*
X012362Y018280D01*
X012352Y018328D01*
X012346Y018377D01*
X012344Y018426D01*
X006852Y018898D02*
X006852Y019135D01*
X005424Y019770D02*
X005424Y020035D01*
X005291Y019902D01*
X005468Y019902D01*
X005468Y020203D02*
X005291Y020203D01*
X005380Y020203D02*
X005380Y020468D01*
X005291Y020380D01*
X005178Y020203D02*
X005001Y020203D01*
X005090Y020203D02*
X005090Y020468D01*
X005001Y020380D01*
X004888Y020424D02*
X004844Y020468D01*
X004756Y020468D01*
X004711Y020424D01*
X004711Y020247D01*
X004756Y020203D01*
X004844Y020203D01*
X004888Y020247D01*
X004844Y020035D02*
X004756Y020035D01*
X004711Y019991D01*
X004711Y019814D01*
X004756Y019770D01*
X004844Y019770D01*
X004888Y019814D01*
X005001Y019770D02*
X005178Y019770D01*
X005090Y019770D02*
X005090Y020035D01*
X005001Y019947D01*
X004888Y019991D02*
X004844Y020035D01*
X005621Y022191D02*
X005798Y022191D01*
X005842Y022235D01*
X005842Y022324D01*
X005798Y022368D01*
X005842Y022481D02*
X005842Y022658D01*
X005842Y022570D02*
X005577Y022570D01*
X005666Y022481D01*
X005621Y022368D02*
X005577Y022324D01*
X005577Y022235D01*
X005621Y022191D01*
X005971Y022191D02*
X005971Y022324D01*
X006015Y022368D01*
X006104Y022368D01*
X006148Y022324D01*
X006148Y022191D01*
X006236Y022191D02*
X005971Y022191D01*
X006148Y022280D02*
X006236Y022368D01*
X006192Y022481D02*
X006236Y022525D01*
X006236Y022614D01*
X006192Y022658D01*
X006104Y022658D01*
X006059Y022614D01*
X006059Y022570D01*
X006104Y022481D01*
X005971Y022481D01*
X005971Y022658D01*
X005842Y022815D02*
X005798Y022771D01*
X005621Y022948D01*
X005798Y022948D01*
X005842Y022904D01*
X005842Y022815D01*
X005798Y022771D02*
X005621Y022771D01*
X005577Y022815D01*
X005577Y022904D01*
X005621Y022948D01*
X005061Y024922D02*
X005063Y024971D01*
X005069Y025020D01*
X005079Y025068D01*
X005092Y025115D01*
X005110Y025161D01*
X005131Y025205D01*
X005155Y025248D01*
X005183Y025288D01*
X005214Y025327D01*
X005248Y025362D01*
X005285Y025395D01*
X005324Y025424D01*
X005366Y025450D01*
X005409Y025473D01*
X005455Y025492D01*
X005501Y025508D01*
X005549Y025520D01*
X005597Y025528D01*
X005646Y025532D01*
X005696Y025532D01*
X005745Y025528D01*
X005793Y025520D01*
X005841Y025508D01*
X005887Y025492D01*
X005933Y025473D01*
X005976Y025450D01*
X006018Y025424D01*
X006057Y025395D01*
X006094Y025362D01*
X006128Y025327D01*
X006159Y025288D01*
X006187Y025248D01*
X006211Y025205D01*
X006232Y025161D01*
X006250Y025115D01*
X006263Y025068D01*
X006273Y025020D01*
X006279Y024971D01*
X006281Y024922D01*
X006279Y024873D01*
X006273Y024824D01*
X006263Y024776D01*
X006250Y024729D01*
X006232Y024683D01*
X006211Y024639D01*
X006187Y024596D01*
X006159Y024556D01*
X006128Y024517D01*
X006094Y024482D01*
X006057Y024449D01*
X006018Y024420D01*
X005976Y024394D01*
X005933Y024371D01*
X005887Y024352D01*
X005841Y024336D01*
X005793Y024324D01*
X005745Y024316D01*
X005696Y024312D01*
X005646Y024312D01*
X005597Y024316D01*
X005549Y024324D01*
X005501Y024336D01*
X005455Y024352D01*
X005409Y024371D01*
X005366Y024394D01*
X005324Y024420D01*
X005285Y024449D01*
X005248Y024482D01*
X005214Y024517D01*
X005183Y024556D01*
X005155Y024596D01*
X005131Y024639D01*
X005110Y024683D01*
X005092Y024729D01*
X005079Y024776D01*
X005069Y024824D01*
X005063Y024873D01*
X005061Y024922D01*
X005375Y017363D02*
X005375Y017127D01*
X019187Y017137D02*
X019187Y017269D01*
X019232Y017314D01*
X019320Y017314D01*
X019364Y017269D01*
X019364Y017137D01*
X019364Y017225D02*
X019453Y017314D01*
X019453Y017427D02*
X019453Y017604D01*
X019453Y017515D02*
X019187Y017515D01*
X019276Y017427D01*
X019187Y017137D02*
X019453Y017137D01*
X020680Y016873D02*
X020680Y016696D01*
X020724Y016652D01*
X020812Y016652D01*
X020857Y016696D01*
X020970Y016652D02*
X021147Y016652D01*
X021058Y016652D02*
X021058Y016917D01*
X020970Y016829D01*
X020857Y016873D02*
X020812Y016917D01*
X020724Y016917D01*
X020680Y016873D01*
X021260Y016873D02*
X021260Y016829D01*
X021304Y016784D01*
X021393Y016784D01*
X021437Y016740D01*
X021437Y016696D01*
X021393Y016652D01*
X021304Y016652D01*
X021260Y016696D01*
X021260Y016740D01*
X021304Y016784D01*
X021393Y016784D02*
X021437Y016829D01*
X021437Y016873D01*
X021393Y016917D01*
X021304Y016917D01*
X021260Y016873D01*
D16*
X014922Y027088D02*
X014905Y027133D01*
X014884Y027177D01*
X014860Y027219D01*
X014833Y027259D01*
X014803Y027297D01*
X014770Y027333D01*
X014734Y027366D01*
X014696Y027396D01*
X014655Y027422D01*
X014613Y027446D01*
X014569Y027466D01*
X014523Y027483D01*
X014476Y027496D01*
X014429Y027505D01*
X014381Y027511D01*
X014332Y027513D01*
X014283Y027511D01*
X014235Y027505D01*
X014188Y027496D01*
X014141Y027483D01*
X014095Y027466D01*
X014051Y027446D01*
X014009Y027422D01*
X013968Y027396D01*
X013930Y027366D01*
X013894Y027333D01*
X013861Y027297D01*
X013831Y027259D01*
X013804Y027219D01*
X013780Y027177D01*
X013759Y027133D01*
X013742Y027088D01*
X013742Y026694D02*
X013759Y026649D01*
X013780Y026605D01*
X013804Y026563D01*
X013831Y026523D01*
X013861Y026485D01*
X013894Y026449D01*
X013930Y026416D01*
X013968Y026386D01*
X014009Y026360D01*
X014051Y026336D01*
X014095Y026316D01*
X014141Y026299D01*
X014188Y026286D01*
X014235Y026277D01*
X014283Y026271D01*
X014332Y026269D01*
X014381Y026271D01*
X014429Y026277D01*
X014476Y026286D01*
X014523Y026299D01*
X014569Y026316D01*
X014613Y026336D01*
X014655Y026360D01*
X014696Y026386D01*
X014734Y026416D01*
X014770Y026449D01*
X014803Y026485D01*
X014833Y026523D01*
X014860Y026563D01*
X014884Y026605D01*
X014905Y026649D01*
X014922Y026694D01*
X011655Y022481D02*
X011104Y022481D01*
X011104Y022402D01*
X011655Y022402D01*
X006419Y020473D02*
X006419Y019922D01*
X006340Y019922D01*
X006340Y020473D01*
D17*
X007990Y022153D02*
X008390Y022153D01*
X008630Y022523D02*
X008630Y022663D01*
X008770Y022663D01*
X008630Y021163D02*
X008630Y021023D01*
X008770Y021023D01*
X010130Y021023D02*
X010270Y021023D01*
X010270Y021163D01*
X010510Y021943D02*
X010910Y021943D01*
X010270Y022523D02*
X010270Y022663D01*
X010130Y022663D01*
X006978Y026930D02*
X006980Y027003D01*
X006986Y027076D01*
X006996Y027148D01*
X007010Y027220D01*
X007027Y027291D01*
X007049Y027361D01*
X007074Y027430D01*
X007103Y027497D01*
X007135Y027562D01*
X007171Y027626D01*
X007211Y027688D01*
X007253Y027747D01*
X007299Y027804D01*
X007348Y027858D01*
X007400Y027910D01*
X007454Y027959D01*
X007511Y028005D01*
X007570Y028047D01*
X007632Y028087D01*
X007696Y028123D01*
X007761Y028155D01*
X007828Y028184D01*
X007897Y028209D01*
X007967Y028231D01*
X008038Y028248D01*
X008110Y028262D01*
X008182Y028272D01*
X008255Y028278D01*
X008328Y028280D01*
X008401Y028278D01*
X008474Y028272D01*
X008546Y028262D01*
X008618Y028248D01*
X008689Y028231D01*
X008759Y028209D01*
X008828Y028184D01*
X008895Y028155D01*
X008960Y028123D01*
X009024Y028087D01*
X009086Y028047D01*
X009145Y028005D01*
X009202Y027959D01*
X009256Y027910D01*
X009308Y027858D01*
X009357Y027804D01*
X009403Y027747D01*
X009445Y027688D01*
X009485Y027626D01*
X009521Y027562D01*
X009553Y027497D01*
X009582Y027430D01*
X009607Y027361D01*
X009629Y027291D01*
X009646Y027220D01*
X009660Y027148D01*
X009670Y027076D01*
X009676Y027003D01*
X009678Y026930D01*
X009676Y026857D01*
X009670Y026784D01*
X009660Y026712D01*
X009646Y026640D01*
X009629Y026569D01*
X009607Y026499D01*
X009582Y026430D01*
X009553Y026363D01*
X009521Y026298D01*
X009485Y026234D01*
X009445Y026172D01*
X009403Y026113D01*
X009357Y026056D01*
X009308Y026002D01*
X009256Y025950D01*
X009202Y025901D01*
X009145Y025855D01*
X009086Y025813D01*
X009024Y025773D01*
X008960Y025737D01*
X008895Y025705D01*
X008828Y025676D01*
X008759Y025651D01*
X008689Y025629D01*
X008618Y025612D01*
X008546Y025598D01*
X008474Y025588D01*
X008401Y025582D01*
X008328Y025580D01*
X008255Y025582D01*
X008182Y025588D01*
X008110Y025598D01*
X008038Y025612D01*
X007967Y025629D01*
X007897Y025651D01*
X007828Y025676D01*
X007761Y025705D01*
X007696Y025737D01*
X007632Y025773D01*
X007570Y025813D01*
X007511Y025855D01*
X007454Y025901D01*
X007400Y025950D01*
X007348Y026002D01*
X007299Y026056D01*
X007253Y026113D01*
X007211Y026172D01*
X007171Y026234D01*
X007135Y026298D01*
X007103Y026363D01*
X007074Y026430D01*
X007049Y026499D01*
X007027Y026569D01*
X007010Y026640D01*
X006996Y026712D01*
X006986Y026784D01*
X006980Y026857D01*
X006978Y026930D01*
X014332Y017648D02*
X014379Y017646D01*
X014427Y017640D01*
X014473Y017631D01*
X014519Y017618D01*
X014563Y017602D01*
X014607Y017581D01*
X014648Y017558D01*
X014687Y017532D01*
X014724Y017502D01*
X014759Y017469D01*
X014791Y017434D01*
X014820Y017397D01*
X014332Y016448D02*
X014287Y016450D01*
X014241Y016455D01*
X014197Y016463D01*
X014153Y016475D01*
X014110Y016491D01*
X014068Y016509D01*
X014028Y016531D01*
X013990Y016555D01*
X013954Y016582D01*
X013919Y016612D01*
X013888Y016645D01*
X013858Y016680D01*
X014332Y016448D02*
X014377Y016450D01*
X014423Y016455D01*
X014467Y016463D01*
X014511Y016475D01*
X014554Y016491D01*
X014596Y016509D01*
X014636Y016531D01*
X014674Y016555D01*
X014710Y016582D01*
X014745Y016612D01*
X014776Y016645D01*
X014806Y016680D01*
X014332Y017648D02*
X014286Y017646D01*
X014240Y017641D01*
X014194Y017632D01*
X014149Y017620D01*
X014106Y017604D01*
X014064Y017585D01*
X014023Y017562D01*
X013984Y017537D01*
X013948Y017509D01*
X013913Y017478D01*
X013881Y017444D01*
X013852Y017408D01*
X009810Y014090D02*
X009724Y014047D01*
X009637Y013960D01*
X009767Y013960D01*
X009810Y013917D01*
X009810Y013873D01*
X009767Y013830D01*
X009680Y013830D01*
X009637Y013873D01*
X009637Y013960D01*
X009516Y013873D02*
X009516Y014047D01*
X009472Y014090D01*
X009342Y014090D01*
X009342Y013830D01*
X009472Y013830D01*
X009516Y013873D01*
X006978Y007166D02*
X006980Y007239D01*
X006986Y007312D01*
X006996Y007384D01*
X007010Y007456D01*
X007027Y007527D01*
X007049Y007597D01*
X007074Y007666D01*
X007103Y007733D01*
X007135Y007798D01*
X007171Y007862D01*
X007211Y007924D01*
X007253Y007983D01*
X007299Y008040D01*
X007348Y008094D01*
X007400Y008146D01*
X007454Y008195D01*
X007511Y008241D01*
X007570Y008283D01*
X007632Y008323D01*
X007696Y008359D01*
X007761Y008391D01*
X007828Y008420D01*
X007897Y008445D01*
X007967Y008467D01*
X008038Y008484D01*
X008110Y008498D01*
X008182Y008508D01*
X008255Y008514D01*
X008328Y008516D01*
X008401Y008514D01*
X008474Y008508D01*
X008546Y008498D01*
X008618Y008484D01*
X008689Y008467D01*
X008759Y008445D01*
X008828Y008420D01*
X008895Y008391D01*
X008960Y008359D01*
X009024Y008323D01*
X009086Y008283D01*
X009145Y008241D01*
X009202Y008195D01*
X009256Y008146D01*
X009308Y008094D01*
X009357Y008040D01*
X009403Y007983D01*
X009445Y007924D01*
X009485Y007862D01*
X009521Y007798D01*
X009553Y007733D01*
X009582Y007666D01*
X009607Y007597D01*
X009629Y007527D01*
X009646Y007456D01*
X009660Y007384D01*
X009670Y007312D01*
X009676Y007239D01*
X009678Y007166D01*
X009676Y007093D01*
X009670Y007020D01*
X009660Y006948D01*
X009646Y006876D01*
X009629Y006805D01*
X009607Y006735D01*
X009582Y006666D01*
X009553Y006599D01*
X009521Y006534D01*
X009485Y006470D01*
X009445Y006408D01*
X009403Y006349D01*
X009357Y006292D01*
X009308Y006238D01*
X009256Y006186D01*
X009202Y006137D01*
X009145Y006091D01*
X009086Y006049D01*
X009024Y006009D01*
X008960Y005973D01*
X008895Y005941D01*
X008828Y005912D01*
X008759Y005887D01*
X008689Y005865D01*
X008618Y005848D01*
X008546Y005834D01*
X008474Y005824D01*
X008401Y005818D01*
X008328Y005816D01*
X008255Y005818D01*
X008182Y005824D01*
X008110Y005834D01*
X008038Y005848D01*
X007967Y005865D01*
X007897Y005887D01*
X007828Y005912D01*
X007761Y005941D01*
X007696Y005973D01*
X007632Y006009D01*
X007570Y006049D01*
X007511Y006091D01*
X007454Y006137D01*
X007400Y006186D01*
X007348Y006238D01*
X007299Y006292D01*
X007253Y006349D01*
X007211Y006408D01*
X007171Y006470D01*
X007135Y006534D01*
X007103Y006599D01*
X007074Y006666D01*
X007049Y006735D01*
X007027Y006805D01*
X007010Y006876D01*
X006996Y006948D01*
X006986Y007020D01*
X006980Y007093D01*
X006978Y007166D01*
X009667Y004056D02*
X009669Y004116D01*
X009675Y004177D01*
X009685Y004236D01*
X009699Y004295D01*
X009716Y004353D01*
X009737Y004410D01*
X009762Y004465D01*
X009791Y004518D01*
X009823Y004570D01*
X009858Y004619D01*
X009897Y004666D01*
X009938Y004710D01*
X009982Y004751D01*
X010029Y004790D01*
X010078Y004825D01*
X010129Y004857D01*
X010183Y004886D01*
X010238Y004911D01*
X010295Y004932D01*
X010353Y004949D01*
X010412Y004963D01*
X010471Y004973D01*
X010532Y004979D01*
X010592Y004981D01*
X010652Y004979D01*
X010713Y004973D01*
X010772Y004963D01*
X010831Y004949D01*
X010889Y004932D01*
X010946Y004911D01*
X011001Y004886D01*
X011054Y004857D01*
X011106Y004825D01*
X011155Y004790D01*
X011202Y004751D01*
X011246Y004710D01*
X011287Y004666D01*
X011326Y004619D01*
X011361Y004570D01*
X011393Y004519D01*
X011422Y004465D01*
X011447Y004410D01*
X011468Y004353D01*
X011485Y004295D01*
X011499Y004236D01*
X011509Y004177D01*
X011515Y004116D01*
X011517Y004056D01*
X011515Y003996D01*
X011509Y003935D01*
X011499Y003876D01*
X011485Y003817D01*
X011468Y003759D01*
X011447Y003702D01*
X011422Y003647D01*
X011393Y003594D01*
X011361Y003542D01*
X011326Y003493D01*
X011287Y003446D01*
X011246Y003402D01*
X011202Y003361D01*
X011155Y003322D01*
X011106Y003287D01*
X011055Y003255D01*
X011001Y003226D01*
X010946Y003201D01*
X010889Y003180D01*
X010831Y003163D01*
X010772Y003149D01*
X010713Y003139D01*
X010652Y003133D01*
X010592Y003131D01*
X010532Y003133D01*
X010471Y003139D01*
X010412Y003149D01*
X010353Y003163D01*
X010295Y003180D01*
X010238Y003201D01*
X010183Y003226D01*
X010130Y003255D01*
X010078Y003287D01*
X010029Y003322D01*
X009982Y003361D01*
X009938Y003402D01*
X009897Y003446D01*
X009858Y003493D01*
X009823Y003542D01*
X009791Y003593D01*
X009762Y003647D01*
X009737Y003702D01*
X009716Y003759D01*
X009699Y003817D01*
X009685Y003876D01*
X009675Y003935D01*
X009669Y003996D01*
X009667Y004056D01*
X017147Y004056D02*
X017149Y004116D01*
X017155Y004177D01*
X017165Y004236D01*
X017179Y004295D01*
X017196Y004353D01*
X017217Y004410D01*
X017242Y004465D01*
X017271Y004518D01*
X017303Y004570D01*
X017338Y004619D01*
X017377Y004666D01*
X017418Y004710D01*
X017462Y004751D01*
X017509Y004790D01*
X017558Y004825D01*
X017609Y004857D01*
X017663Y004886D01*
X017718Y004911D01*
X017775Y004932D01*
X017833Y004949D01*
X017892Y004963D01*
X017951Y004973D01*
X018012Y004979D01*
X018072Y004981D01*
X018132Y004979D01*
X018193Y004973D01*
X018252Y004963D01*
X018311Y004949D01*
X018369Y004932D01*
X018426Y004911D01*
X018481Y004886D01*
X018534Y004857D01*
X018586Y004825D01*
X018635Y004790D01*
X018682Y004751D01*
X018726Y004710D01*
X018767Y004666D01*
X018806Y004619D01*
X018841Y004570D01*
X018873Y004519D01*
X018902Y004465D01*
X018927Y004410D01*
X018948Y004353D01*
X018965Y004295D01*
X018979Y004236D01*
X018989Y004177D01*
X018995Y004116D01*
X018997Y004056D01*
X018995Y003996D01*
X018989Y003935D01*
X018979Y003876D01*
X018965Y003817D01*
X018948Y003759D01*
X018927Y003702D01*
X018902Y003647D01*
X018873Y003594D01*
X018841Y003542D01*
X018806Y003493D01*
X018767Y003446D01*
X018726Y003402D01*
X018682Y003361D01*
X018635Y003322D01*
X018586Y003287D01*
X018535Y003255D01*
X018481Y003226D01*
X018426Y003201D01*
X018369Y003180D01*
X018311Y003163D01*
X018252Y003149D01*
X018193Y003139D01*
X018132Y003133D01*
X018072Y003131D01*
X018012Y003133D01*
X017951Y003139D01*
X017892Y003149D01*
X017833Y003163D01*
X017775Y003180D01*
X017718Y003201D01*
X017663Y003226D01*
X017610Y003255D01*
X017558Y003287D01*
X017509Y003322D01*
X017462Y003361D01*
X017418Y003402D01*
X017377Y003446D01*
X017338Y003493D01*
X017303Y003542D01*
X017271Y003593D01*
X017242Y003647D01*
X017217Y003702D01*
X017196Y003759D01*
X017179Y003817D01*
X017165Y003876D01*
X017155Y003935D01*
X017149Y003996D01*
X017147Y004056D01*
X018986Y007166D02*
X018988Y007239D01*
X018994Y007312D01*
X019004Y007384D01*
X019018Y007456D01*
X019035Y007527D01*
X019057Y007597D01*
X019082Y007666D01*
X019111Y007733D01*
X019143Y007798D01*
X019179Y007862D01*
X019219Y007924D01*
X019261Y007983D01*
X019307Y008040D01*
X019356Y008094D01*
X019408Y008146D01*
X019462Y008195D01*
X019519Y008241D01*
X019578Y008283D01*
X019640Y008323D01*
X019704Y008359D01*
X019769Y008391D01*
X019836Y008420D01*
X019905Y008445D01*
X019975Y008467D01*
X020046Y008484D01*
X020118Y008498D01*
X020190Y008508D01*
X020263Y008514D01*
X020336Y008516D01*
X020409Y008514D01*
X020482Y008508D01*
X020554Y008498D01*
X020626Y008484D01*
X020697Y008467D01*
X020767Y008445D01*
X020836Y008420D01*
X020903Y008391D01*
X020968Y008359D01*
X021032Y008323D01*
X021094Y008283D01*
X021153Y008241D01*
X021210Y008195D01*
X021264Y008146D01*
X021316Y008094D01*
X021365Y008040D01*
X021411Y007983D01*
X021453Y007924D01*
X021493Y007862D01*
X021529Y007798D01*
X021561Y007733D01*
X021590Y007666D01*
X021615Y007597D01*
X021637Y007527D01*
X021654Y007456D01*
X021668Y007384D01*
X021678Y007312D01*
X021684Y007239D01*
X021686Y007166D01*
X021684Y007093D01*
X021678Y007020D01*
X021668Y006948D01*
X021654Y006876D01*
X021637Y006805D01*
X021615Y006735D01*
X021590Y006666D01*
X021561Y006599D01*
X021529Y006534D01*
X021493Y006470D01*
X021453Y006408D01*
X021411Y006349D01*
X021365Y006292D01*
X021316Y006238D01*
X021264Y006186D01*
X021210Y006137D01*
X021153Y006091D01*
X021094Y006049D01*
X021032Y006009D01*
X020968Y005973D01*
X020903Y005941D01*
X020836Y005912D01*
X020767Y005887D01*
X020697Y005865D01*
X020626Y005848D01*
X020554Y005834D01*
X020482Y005824D01*
X020409Y005818D01*
X020336Y005816D01*
X020263Y005818D01*
X020190Y005824D01*
X020118Y005834D01*
X020046Y005848D01*
X019975Y005865D01*
X019905Y005887D01*
X019836Y005912D01*
X019769Y005941D01*
X019704Y005973D01*
X019640Y006009D01*
X019578Y006049D01*
X019519Y006091D01*
X019462Y006137D01*
X019408Y006186D01*
X019356Y006238D01*
X019307Y006292D01*
X019261Y006349D01*
X019219Y006408D01*
X019179Y006470D01*
X019143Y006534D01*
X019111Y006599D01*
X019082Y006666D01*
X019057Y006735D01*
X019035Y006805D01*
X019018Y006876D01*
X019004Y006948D01*
X018994Y007020D01*
X018988Y007093D01*
X018986Y007166D01*
X018986Y026930D02*
X018988Y027003D01*
X018994Y027076D01*
X019004Y027148D01*
X019018Y027220D01*
X019035Y027291D01*
X019057Y027361D01*
X019082Y027430D01*
X019111Y027497D01*
X019143Y027562D01*
X019179Y027626D01*
X019219Y027688D01*
X019261Y027747D01*
X019307Y027804D01*
X019356Y027858D01*
X019408Y027910D01*
X019462Y027959D01*
X019519Y028005D01*
X019578Y028047D01*
X019640Y028087D01*
X019704Y028123D01*
X019769Y028155D01*
X019836Y028184D01*
X019905Y028209D01*
X019975Y028231D01*
X020046Y028248D01*
X020118Y028262D01*
X020190Y028272D01*
X020263Y028278D01*
X020336Y028280D01*
X020409Y028278D01*
X020482Y028272D01*
X020554Y028262D01*
X020626Y028248D01*
X020697Y028231D01*
X020767Y028209D01*
X020836Y028184D01*
X020903Y028155D01*
X020968Y028123D01*
X021032Y028087D01*
X021094Y028047D01*
X021153Y028005D01*
X021210Y027959D01*
X021264Y027910D01*
X021316Y027858D01*
X021365Y027804D01*
X021411Y027747D01*
X021453Y027688D01*
X021493Y027626D01*
X021529Y027562D01*
X021561Y027497D01*
X021590Y027430D01*
X021615Y027361D01*
X021637Y027291D01*
X021654Y027220D01*
X021668Y027148D01*
X021678Y027076D01*
X021684Y027003D01*
X021686Y026930D01*
X021684Y026857D01*
X021678Y026784D01*
X021668Y026712D01*
X021654Y026640D01*
X021637Y026569D01*
X021615Y026499D01*
X021590Y026430D01*
X021561Y026363D01*
X021529Y026298D01*
X021493Y026234D01*
X021453Y026172D01*
X021411Y026113D01*
X021365Y026056D01*
X021316Y026002D01*
X021264Y025950D01*
X021210Y025901D01*
X021153Y025855D01*
X021094Y025813D01*
X021032Y025773D01*
X020968Y025737D01*
X020903Y025705D01*
X020836Y025676D01*
X020767Y025651D01*
X020697Y025629D01*
X020626Y025612D01*
X020554Y025598D01*
X020482Y025588D01*
X020409Y025582D01*
X020336Y025580D01*
X020263Y025582D01*
X020190Y025588D01*
X020118Y025598D01*
X020046Y025612D01*
X019975Y025629D01*
X019905Y025651D01*
X019836Y025676D01*
X019769Y025705D01*
X019704Y025737D01*
X019640Y025773D01*
X019578Y025813D01*
X019519Y025855D01*
X019462Y025901D01*
X019408Y025950D01*
X019356Y026002D01*
X019307Y026056D01*
X019261Y026113D01*
X019219Y026172D01*
X019179Y026234D01*
X019143Y026298D01*
X019111Y026363D01*
X019082Y026430D01*
X019057Y026499D01*
X019035Y026569D01*
X019018Y026640D01*
X019004Y026712D01*
X018994Y026784D01*
X018988Y026857D01*
X018986Y026930D01*
D18*
X008867Y020762D02*
X008553Y020448D01*
X008710Y020448D02*
X008710Y020762D01*
X008553Y020762D02*
X008867Y020448D01*
X008867Y020605D02*
X008553Y020605D01*
D19*
X011576Y015867D02*
X012659Y015867D01*
X012658Y015867D02*
X012660Y015906D01*
X012666Y015944D01*
X012675Y015981D01*
X012688Y016018D01*
X012705Y016053D01*
X012724Y016086D01*
X012747Y016117D01*
X012773Y016146D01*
X012802Y016172D01*
X012833Y016195D01*
X012866Y016214D01*
X012901Y016231D01*
X012938Y016244D01*
X012975Y016253D01*
X013013Y016259D01*
X013052Y016261D01*
X012658Y015867D02*
X012660Y015828D01*
X012666Y015790D01*
X012675Y015753D01*
X012688Y015716D01*
X012705Y015681D01*
X012724Y015648D01*
X012747Y015617D01*
X012773Y015588D01*
X012802Y015562D01*
X012833Y015539D01*
X012866Y015520D01*
X012901Y015503D01*
X012938Y015490D01*
X012975Y015481D01*
X013013Y015475D01*
X013052Y015473D01*
X013637Y016651D02*
X013667Y016603D01*
X013700Y016558D01*
X013736Y016515D01*
X013774Y016474D01*
X013816Y016437D01*
X013860Y016402D01*
X013906Y016371D01*
X013955Y016342D01*
X014005Y016318D01*
X014057Y016297D01*
X014111Y016279D01*
X014165Y016266D01*
X014220Y016256D01*
X014276Y016250D01*
X014332Y016248D01*
X013626Y017424D02*
X013653Y017471D01*
X013683Y017516D01*
X013716Y017559D01*
X013752Y017599D01*
X013791Y017637D01*
X013832Y017672D01*
X013875Y017705D01*
X013920Y017734D01*
X013968Y017760D01*
X014017Y017783D01*
X014067Y017803D01*
X014118Y017819D01*
X014171Y017832D01*
X014224Y017841D01*
X014278Y017846D01*
X014332Y017848D01*
X014943Y016531D02*
X014907Y016492D01*
X014868Y016454D01*
X014828Y016420D01*
X014785Y016388D01*
X014740Y016360D01*
X014693Y016334D01*
X014644Y016311D01*
X014594Y016292D01*
X014543Y016276D01*
X014491Y016264D01*
X014439Y016255D01*
X014385Y016250D01*
X014332Y016248D01*
X014947Y017560D02*
X014911Y017600D01*
X014872Y017638D01*
X014831Y017673D01*
X014788Y017705D01*
X014743Y017735D01*
X014696Y017761D01*
X014647Y017783D01*
X014596Y017803D01*
X014545Y017819D01*
X014493Y017832D01*
X014439Y017841D01*
X014386Y017846D01*
X014332Y017848D01*
X014923Y018032D02*
X014962Y018034D01*
X015000Y018040D01*
X015037Y018049D01*
X015074Y018062D01*
X015109Y018079D01*
X015142Y018098D01*
X015173Y018121D01*
X015202Y018147D01*
X015228Y018176D01*
X015251Y018207D01*
X015270Y018240D01*
X015287Y018275D01*
X015300Y018312D01*
X015309Y018349D01*
X015315Y018387D01*
X015317Y018426D01*
X015316Y018426D02*
X016399Y018426D01*
X015317Y018426D02*
X015315Y018465D01*
X015309Y018503D01*
X015300Y018540D01*
X015287Y018577D01*
X015270Y018612D01*
X015251Y018645D01*
X015228Y018676D01*
X015202Y018705D01*
X015173Y018731D01*
X015142Y018754D01*
X015109Y018773D01*
X015074Y018790D01*
X015037Y018803D01*
X015000Y018812D01*
X014962Y018818D01*
X014923Y018820D01*
X019352Y022954D02*
X020434Y022954D01*
X020436Y022993D01*
X020442Y023031D01*
X020451Y023068D01*
X020464Y023105D01*
X020481Y023140D01*
X020500Y023173D01*
X020523Y023204D01*
X020549Y023233D01*
X020578Y023259D01*
X020609Y023282D01*
X020642Y023301D01*
X020677Y023318D01*
X020714Y023331D01*
X020751Y023340D01*
X020789Y023346D01*
X020828Y023348D01*
X020434Y022954D02*
X020436Y022915D01*
X020442Y022877D01*
X020451Y022840D01*
X020464Y022803D01*
X020481Y022768D01*
X020500Y022735D01*
X020523Y022704D01*
X020549Y022675D01*
X020578Y022649D01*
X020609Y022626D01*
X020642Y022607D01*
X020677Y022590D01*
X020714Y022577D01*
X020751Y022568D01*
X020789Y022562D01*
X020828Y022560D01*
X016694Y025548D02*
X016694Y028233D01*
X016482Y027291D02*
X016132Y027291D01*
X016482Y027291D02*
X016482Y026491D01*
X016132Y026491D01*
X012523Y026891D02*
X012525Y026976D01*
X012531Y027060D01*
X012541Y027145D01*
X012555Y027228D01*
X012572Y027311D01*
X012594Y027393D01*
X012620Y027474D01*
X012649Y027554D01*
X012682Y027632D01*
X012718Y027708D01*
X012758Y027783D01*
X012802Y027856D01*
X012849Y027927D01*
X012899Y027995D01*
X012952Y028061D01*
X013009Y028124D01*
X013068Y028185D01*
X013130Y028243D01*
X013195Y028298D01*
X013262Y028350D01*
X013331Y028398D01*
X013403Y028443D01*
X013477Y028485D01*
X013553Y028523D01*
X013630Y028558D01*
X013709Y028589D01*
X013789Y028617D01*
X013871Y028640D01*
X013953Y028660D01*
X014036Y028676D01*
X014120Y028688D01*
X014205Y028696D01*
X014290Y028700D01*
X014374Y028700D01*
X014459Y028696D01*
X014544Y028688D01*
X014628Y028676D01*
X014711Y028660D01*
X014793Y028640D01*
X014875Y028617D01*
X014955Y028589D01*
X015034Y028558D01*
X015111Y028523D01*
X015187Y028485D01*
X015261Y028443D01*
X015333Y028398D01*
X015402Y028350D01*
X015469Y028298D01*
X015534Y028243D01*
X015596Y028185D01*
X015655Y028124D01*
X015712Y028061D01*
X015765Y027995D01*
X015815Y027927D01*
X015862Y027856D01*
X015906Y027783D01*
X015946Y027708D01*
X015982Y027632D01*
X016015Y027554D01*
X016044Y027474D01*
X016070Y027393D01*
X016092Y027311D01*
X016109Y027228D01*
X016123Y027145D01*
X016133Y027060D01*
X016139Y026976D01*
X016141Y026891D01*
X016139Y026806D01*
X016133Y026722D01*
X016123Y026637D01*
X016109Y026554D01*
X016092Y026471D01*
X016070Y026389D01*
X016044Y026308D01*
X016015Y026228D01*
X015982Y026150D01*
X015946Y026074D01*
X015906Y025999D01*
X015862Y025926D01*
X015815Y025855D01*
X015765Y025787D01*
X015712Y025721D01*
X015655Y025658D01*
X015596Y025597D01*
X015534Y025539D01*
X015469Y025484D01*
X015402Y025432D01*
X015333Y025384D01*
X015261Y025339D01*
X015187Y025297D01*
X015111Y025259D01*
X015034Y025224D01*
X014955Y025193D01*
X014875Y025165D01*
X014793Y025142D01*
X014711Y025122D01*
X014628Y025106D01*
X014544Y025094D01*
X014459Y025086D01*
X014374Y025082D01*
X014290Y025082D01*
X014205Y025086D01*
X014120Y025094D01*
X014036Y025106D01*
X013953Y025122D01*
X013871Y025142D01*
X013789Y025165D01*
X013709Y025193D01*
X013630Y025224D01*
X013553Y025259D01*
X013477Y025297D01*
X013403Y025339D01*
X013331Y025384D01*
X013262Y025432D01*
X013195Y025484D01*
X013130Y025539D01*
X013068Y025597D01*
X013009Y025658D01*
X012952Y025721D01*
X012899Y025787D01*
X012849Y025855D01*
X012802Y025926D01*
X012758Y025999D01*
X012718Y026074D01*
X012682Y026150D01*
X012649Y026228D01*
X012620Y026308D01*
X012594Y026389D01*
X012572Y026471D01*
X012555Y026554D01*
X012541Y026637D01*
X012531Y026722D01*
X012525Y026806D01*
X012523Y026891D01*
X012532Y027291D02*
X012182Y027291D01*
X012182Y026491D01*
X012532Y026491D01*
X011970Y025548D02*
X011970Y028233D01*
X012989Y029253D02*
X015675Y029253D01*
X015675Y024528D02*
X012989Y024528D01*
X006093Y014420D02*
X005723Y013403D01*
X005758Y013388D01*
X005792Y013370D01*
X005824Y013348D01*
X005854Y013323D01*
X005881Y013296D01*
X005906Y013266D01*
X005927Y013234D01*
X005945Y013200D01*
X005960Y013164D01*
X005971Y013127D01*
X005978Y013089D01*
X005982Y013050D01*
X005981Y013012D01*
X005977Y012973D01*
X005970Y012935D01*
X005958Y012898D01*
X005723Y013403D02*
X005686Y013415D01*
X005648Y013422D01*
X005609Y013426D01*
X005571Y013427D01*
X005532Y013423D01*
X005494Y013416D01*
X005457Y013405D01*
X005421Y013390D01*
X005387Y013372D01*
X005355Y013351D01*
X005325Y013326D01*
X005298Y013299D01*
X005273Y013269D01*
X005251Y013237D01*
X005233Y013203D01*
X005218Y013168D01*
D20*
X005848Y012422D02*
X006084Y012422D01*
X005848Y012422D02*
X005178Y011753D01*
X005178Y009863D01*
X006084Y009863D01*
X006832Y009863D02*
X007738Y009863D01*
X007738Y011753D01*
X007068Y012422D01*
X006832Y012422D01*
X009903Y012422D02*
X009903Y010532D01*
X010572Y009863D01*
X010808Y009863D01*
X011556Y009863D02*
X011793Y009863D01*
X012462Y010532D01*
X012462Y012422D01*
X011556Y012422D01*
X010808Y012422D02*
X009903Y012422D01*
D21*
X011563Y009966D02*
X011552Y010000D01*
X011552Y009999D02*
X011617Y010023D01*
X011680Y010049D01*
X011742Y010079D01*
X011802Y010113D01*
X011860Y010150D01*
X011915Y010191D01*
X011969Y010234D01*
X012019Y010281D01*
X012067Y010330D01*
X012112Y010382D01*
X012154Y010436D01*
X012193Y010493D01*
X012228Y010552D01*
X012260Y010612D01*
X012289Y010675D01*
X012314Y010739D01*
X012335Y010804D01*
X012353Y010871D01*
X012366Y010938D01*
X012376Y011006D01*
X012382Y011074D01*
X012384Y011143D01*
X012382Y011212D01*
X012376Y011280D01*
X012366Y011348D01*
X012353Y011415D01*
X012335Y011482D01*
X012314Y011547D01*
X012289Y011611D01*
X012260Y011674D01*
X012228Y011734D01*
X012193Y011793D01*
X012154Y011850D01*
X012112Y011904D01*
X012067Y011956D01*
X012019Y012005D01*
X011969Y012052D01*
X011915Y012095D01*
X011860Y012136D01*
X011802Y012173D01*
X011742Y012207D01*
X011680Y012237D01*
X011617Y012263D01*
X011552Y012287D01*
X011563Y012320D01*
X011563Y012321D01*
X011629Y012298D01*
X011692Y012271D01*
X011755Y012241D01*
X011815Y012207D01*
X011873Y012170D01*
X011930Y012130D01*
X011984Y012086D01*
X012035Y012040D01*
X012084Y011991D01*
X012130Y011939D01*
X012173Y011885D01*
X012213Y011829D01*
X012250Y011770D01*
X012283Y011709D01*
X012313Y011647D01*
X012339Y011583D01*
X012362Y011518D01*
X012381Y011451D01*
X012396Y011384D01*
X012408Y011315D01*
X012416Y011247D01*
X012420Y011178D01*
X012420Y011108D01*
X012416Y011039D01*
X012408Y010971D01*
X012396Y010902D01*
X012381Y010835D01*
X012362Y010768D01*
X012339Y010703D01*
X012313Y010639D01*
X012283Y010577D01*
X012250Y010516D01*
X012213Y010457D01*
X012173Y010401D01*
X012130Y010347D01*
X012084Y010295D01*
X012035Y010246D01*
X011984Y010200D01*
X011930Y010156D01*
X011873Y010116D01*
X011815Y010079D01*
X011755Y010045D01*
X011692Y010015D01*
X011629Y009988D01*
X011563Y009965D01*
X011562Y009968D01*
X011628Y009991D01*
X011691Y010018D01*
X011753Y010048D01*
X011814Y010082D01*
X011872Y010119D01*
X011928Y010159D01*
X011982Y010202D01*
X012033Y010248D01*
X012082Y010297D01*
X012128Y010349D01*
X012171Y010403D01*
X012210Y010459D01*
X012247Y010518D01*
X012280Y010578D01*
X012310Y010640D01*
X012336Y010704D01*
X012359Y010769D01*
X012378Y010836D01*
X012393Y010903D01*
X012405Y010971D01*
X012413Y011040D01*
X012417Y011108D01*
X012417Y011178D01*
X012413Y011246D01*
X012405Y011315D01*
X012393Y011383D01*
X012378Y011450D01*
X012359Y011517D01*
X012336Y011582D01*
X012310Y011646D01*
X012280Y011708D01*
X012247Y011768D01*
X012210Y011827D01*
X012171Y011883D01*
X012128Y011937D01*
X012082Y011989D01*
X012033Y012038D01*
X011982Y012084D01*
X011928Y012127D01*
X011872Y012167D01*
X011814Y012204D01*
X011753Y012238D01*
X011691Y012268D01*
X011628Y012295D01*
X011562Y012318D01*
X011562Y012315D01*
X011626Y012292D01*
X011690Y012265D01*
X011752Y012235D01*
X011812Y012202D01*
X011870Y012165D01*
X011926Y012125D01*
X011980Y012082D01*
X012031Y012036D01*
X012080Y011987D01*
X012125Y011935D01*
X012168Y011881D01*
X012208Y011825D01*
X012244Y011767D01*
X012278Y011707D01*
X012307Y011644D01*
X012334Y011581D01*
X012356Y011516D01*
X012375Y011450D01*
X012390Y011382D01*
X012402Y011315D01*
X012410Y011246D01*
X012414Y011177D01*
X012414Y011109D01*
X012410Y011040D01*
X012402Y010971D01*
X012390Y010904D01*
X012375Y010836D01*
X012356Y010770D01*
X012334Y010705D01*
X012307Y010642D01*
X012278Y010579D01*
X012244Y010519D01*
X012208Y010461D01*
X012168Y010405D01*
X012125Y010351D01*
X012080Y010299D01*
X012031Y010250D01*
X011980Y010204D01*
X011926Y010161D01*
X011870Y010121D01*
X011812Y010084D01*
X011752Y010051D01*
X011690Y010021D01*
X011626Y009994D01*
X011562Y009971D01*
X011561Y009974D01*
X011625Y009997D01*
X011689Y010023D01*
X011750Y010053D01*
X011810Y010087D01*
X011868Y010124D01*
X011924Y010164D01*
X011978Y010207D01*
X012029Y010252D01*
X012077Y010301D01*
X012123Y010352D01*
X012166Y010406D01*
X012205Y010462D01*
X012242Y010521D01*
X012275Y010581D01*
X012305Y010643D01*
X012331Y010706D01*
X012353Y010771D01*
X012372Y010837D01*
X012388Y010904D01*
X012399Y010972D01*
X012407Y011040D01*
X012411Y011109D01*
X012411Y011177D01*
X012407Y011246D01*
X012399Y011314D01*
X012388Y011382D01*
X012372Y011449D01*
X012353Y011515D01*
X012331Y011580D01*
X012305Y011643D01*
X012275Y011705D01*
X012242Y011765D01*
X012205Y011824D01*
X012166Y011880D01*
X012123Y011934D01*
X012077Y011985D01*
X012029Y012034D01*
X011978Y012079D01*
X011924Y012122D01*
X011868Y012162D01*
X011810Y012199D01*
X011750Y012233D01*
X011689Y012263D01*
X011625Y012289D01*
X011561Y012312D01*
X011560Y012309D01*
X011624Y012286D01*
X011687Y012260D01*
X011749Y012230D01*
X011809Y012197D01*
X011867Y012160D01*
X011923Y012120D01*
X011976Y012077D01*
X012027Y012031D01*
X012075Y011983D01*
X012121Y011932D01*
X012163Y011878D01*
X012203Y011822D01*
X012239Y011764D01*
X012272Y011704D01*
X012302Y011642D01*
X012328Y011579D01*
X012351Y011514D01*
X012369Y011448D01*
X012385Y011381D01*
X012396Y011314D01*
X012404Y011246D01*
X012408Y011177D01*
X012408Y011109D01*
X012404Y011040D01*
X012396Y010972D01*
X012385Y010905D01*
X012369Y010838D01*
X012351Y010772D01*
X012328Y010707D01*
X012302Y010644D01*
X012272Y010582D01*
X012239Y010522D01*
X012203Y010464D01*
X012163Y010408D01*
X012121Y010354D01*
X012075Y010303D01*
X012027Y010255D01*
X011976Y010209D01*
X011923Y010166D01*
X011867Y010126D01*
X011809Y010089D01*
X011749Y010056D01*
X011687Y010026D01*
X011624Y010000D01*
X011560Y009977D01*
X011559Y009979D01*
X011623Y010002D01*
X011686Y010029D01*
X011748Y010059D01*
X011807Y010092D01*
X011865Y010129D01*
X011921Y010168D01*
X011974Y010211D01*
X012025Y010257D01*
X012073Y010305D01*
X012118Y010356D01*
X012161Y010410D01*
X012200Y010466D01*
X012237Y010524D01*
X012270Y010584D01*
X012299Y010645D01*
X012325Y010708D01*
X012348Y010773D01*
X012367Y010839D01*
X012382Y010905D01*
X012393Y010973D01*
X012401Y011041D01*
X012405Y011109D01*
X012405Y011177D01*
X012401Y011245D01*
X012393Y011313D01*
X012382Y011381D01*
X012367Y011447D01*
X012348Y011513D01*
X012325Y011578D01*
X012299Y011641D01*
X012270Y011702D01*
X012237Y011762D01*
X012200Y011820D01*
X012161Y011876D01*
X012118Y011930D01*
X012073Y011981D01*
X012025Y012029D01*
X011974Y012075D01*
X011921Y012118D01*
X011865Y012157D01*
X011807Y012194D01*
X011748Y012227D01*
X011686Y012257D01*
X011623Y012284D01*
X011559Y012307D01*
X011558Y012304D01*
X011622Y012281D01*
X011685Y012254D01*
X011746Y012225D01*
X011806Y012191D01*
X011863Y012155D01*
X011919Y012115D01*
X011972Y012073D01*
X012023Y012027D01*
X012071Y011979D01*
X012116Y011928D01*
X012159Y011874D01*
X012198Y011819D01*
X012234Y011761D01*
X012267Y011701D01*
X012296Y011640D01*
X012322Y011577D01*
X012345Y011512D01*
X012364Y011447D01*
X012379Y011380D01*
X012390Y011313D01*
X012398Y011245D01*
X012402Y011177D01*
X012402Y011109D01*
X012398Y011041D01*
X012390Y010973D01*
X012379Y010906D01*
X012364Y010839D01*
X012345Y010774D01*
X012322Y010709D01*
X012296Y010646D01*
X012267Y010585D01*
X012234Y010525D01*
X012198Y010467D01*
X012159Y010412D01*
X012116Y010358D01*
X012071Y010307D01*
X012023Y010259D01*
X011972Y010213D01*
X011919Y010171D01*
X011863Y010131D01*
X011806Y010095D01*
X011746Y010061D01*
X011685Y010032D01*
X011622Y010005D01*
X011558Y009982D01*
X011557Y009985D01*
X011621Y010008D01*
X011684Y010034D01*
X011745Y010064D01*
X011804Y010097D01*
X011862Y010134D01*
X011917Y010173D01*
X011970Y010216D01*
X012021Y010261D01*
X012069Y010309D01*
X012114Y010360D01*
X012156Y010414D01*
X012195Y010469D01*
X012231Y010527D01*
X012264Y010586D01*
X012294Y010648D01*
X012320Y010711D01*
X012342Y010775D01*
X012361Y010840D01*
X012376Y010906D01*
X012387Y010973D01*
X012395Y011041D01*
X012399Y011109D01*
X012399Y011177D01*
X012395Y011245D01*
X012387Y011313D01*
X012376Y011380D01*
X012361Y011446D01*
X012342Y011511D01*
X012320Y011575D01*
X012294Y011638D01*
X012264Y011700D01*
X012231Y011759D01*
X012195Y011817D01*
X012156Y011872D01*
X012114Y011926D01*
X012069Y011977D01*
X012021Y012025D01*
X011970Y012070D01*
X011917Y012113D01*
X011862Y012152D01*
X011804Y012189D01*
X011745Y012222D01*
X011684Y012252D01*
X011621Y012278D01*
X011557Y012301D01*
X011556Y012298D01*
X011620Y012275D01*
X011683Y012249D01*
X011744Y012219D01*
X011803Y012186D01*
X011860Y012150D01*
X011915Y012111D01*
X011968Y012068D01*
X012019Y012023D01*
X012066Y011975D01*
X012112Y011924D01*
X012154Y011871D01*
X012193Y011815D01*
X012229Y011758D01*
X012262Y011698D01*
X012291Y011637D01*
X012317Y011574D01*
X012339Y011510D01*
X012358Y011445D01*
X012373Y011379D01*
X012384Y011312D01*
X012392Y011245D01*
X012396Y011177D01*
X012396Y011109D01*
X012392Y011041D01*
X012384Y010974D01*
X012373Y010907D01*
X012358Y010841D01*
X012339Y010776D01*
X012317Y010712D01*
X012291Y010649D01*
X012262Y010588D01*
X012229Y010528D01*
X012193Y010471D01*
X012154Y010415D01*
X012112Y010362D01*
X012066Y010311D01*
X012019Y010263D01*
X011968Y010218D01*
X011915Y010175D01*
X011860Y010136D01*
X011803Y010100D01*
X011744Y010067D01*
X011683Y010037D01*
X011620Y010011D01*
X011556Y009988D01*
X011555Y009991D01*
X011619Y010014D01*
X011681Y010040D01*
X011742Y010069D01*
X011801Y010102D01*
X011858Y010139D01*
X011913Y010178D01*
X011966Y010220D01*
X012017Y010266D01*
X012064Y010314D01*
X012109Y010364D01*
X012151Y010417D01*
X012190Y010472D01*
X012226Y010530D01*
X012259Y010589D01*
X012288Y010650D01*
X012314Y010713D01*
X012336Y010777D01*
X012355Y010842D01*
X012370Y010908D01*
X012381Y010974D01*
X012389Y011042D01*
X012393Y011109D01*
X012393Y011177D01*
X012389Y011244D01*
X012381Y011312D01*
X012370Y011378D01*
X012355Y011444D01*
X012336Y011509D01*
X012314Y011573D01*
X012288Y011636D01*
X012259Y011697D01*
X012226Y011756D01*
X012190Y011814D01*
X012151Y011869D01*
X012109Y011922D01*
X012064Y011972D01*
X012017Y012020D01*
X011966Y012066D01*
X011913Y012108D01*
X011858Y012147D01*
X011801Y012184D01*
X011742Y012217D01*
X011681Y012246D01*
X011619Y012272D01*
X011555Y012295D01*
X011554Y012292D01*
X011618Y012270D01*
X011680Y012244D01*
X011741Y012214D01*
X011800Y012181D01*
X011857Y012145D01*
X011912Y012106D01*
X011964Y012063D01*
X012015Y012018D01*
X012062Y011970D01*
X012107Y011920D01*
X012149Y011867D01*
X012188Y011812D01*
X012224Y011755D01*
X012256Y011696D01*
X012285Y011635D01*
X012311Y011572D01*
X012333Y011509D01*
X012352Y011444D01*
X012367Y011378D01*
X012378Y011311D01*
X012386Y011244D01*
X012390Y011177D01*
X012390Y011109D01*
X012386Y011042D01*
X012378Y010975D01*
X012367Y010908D01*
X012352Y010842D01*
X012333Y010777D01*
X012311Y010714D01*
X012285Y010651D01*
X012256Y010590D01*
X012224Y010531D01*
X012188Y010474D01*
X012149Y010419D01*
X012107Y010366D01*
X012062Y010316D01*
X012015Y010268D01*
X011964Y010223D01*
X011912Y010180D01*
X011857Y010141D01*
X011800Y010105D01*
X011741Y010072D01*
X011680Y010042D01*
X011618Y010016D01*
X011554Y009994D01*
X011553Y009997D01*
X011617Y010019D01*
X011679Y010045D01*
X011739Y010075D01*
X011798Y010107D01*
X011855Y010144D01*
X011910Y010183D01*
X011962Y010225D01*
X012012Y010270D01*
X012060Y010318D01*
X012105Y010368D01*
X012147Y010421D01*
X012185Y010476D01*
X012221Y010533D01*
X012254Y010592D01*
X012283Y010653D01*
X012308Y010715D01*
X012331Y010778D01*
X012349Y010843D01*
X012364Y010909D01*
X012375Y010975D01*
X012383Y011042D01*
X012387Y011109D01*
X012387Y011177D01*
X012383Y011244D01*
X012375Y011311D01*
X012364Y011377D01*
X012349Y011443D01*
X012331Y011508D01*
X012308Y011571D01*
X012283Y011633D01*
X012254Y011694D01*
X012221Y011753D01*
X012185Y011810D01*
X012147Y011865D01*
X012105Y011918D01*
X012060Y011968D01*
X012012Y012016D01*
X011962Y012061D01*
X011910Y012103D01*
X011855Y012142D01*
X011798Y012179D01*
X011739Y012211D01*
X011679Y012241D01*
X011617Y012267D01*
X011553Y012289D01*
X010801Y012320D02*
X010812Y012286D01*
X010812Y012287D02*
X010747Y012263D01*
X010684Y012237D01*
X010622Y012207D01*
X010562Y012173D01*
X010504Y012136D01*
X010449Y012095D01*
X010395Y012052D01*
X010345Y012005D01*
X010297Y011956D01*
X010252Y011904D01*
X010210Y011850D01*
X010171Y011793D01*
X010136Y011734D01*
X010104Y011674D01*
X010075Y011611D01*
X010050Y011547D01*
X010029Y011482D01*
X010011Y011415D01*
X009998Y011348D01*
X009988Y011280D01*
X009982Y011212D01*
X009980Y011143D01*
X009982Y011074D01*
X009988Y011006D01*
X009998Y010938D01*
X010011Y010871D01*
X010029Y010804D01*
X010050Y010739D01*
X010075Y010675D01*
X010104Y010612D01*
X010136Y010552D01*
X010171Y010493D01*
X010210Y010436D01*
X010252Y010382D01*
X010297Y010330D01*
X010345Y010281D01*
X010395Y010234D01*
X010449Y010191D01*
X010504Y010150D01*
X010562Y010113D01*
X010622Y010079D01*
X010684Y010049D01*
X010747Y010023D01*
X010812Y009999D01*
X010801Y009966D01*
X010801Y009965D01*
X010735Y009988D01*
X010672Y010015D01*
X010609Y010045D01*
X010549Y010079D01*
X010491Y010116D01*
X010434Y010156D01*
X010380Y010200D01*
X010329Y010246D01*
X010280Y010295D01*
X010234Y010347D01*
X010191Y010401D01*
X010151Y010457D01*
X010114Y010516D01*
X010081Y010577D01*
X010051Y010639D01*
X010025Y010703D01*
X010002Y010768D01*
X009983Y010835D01*
X009968Y010902D01*
X009956Y010971D01*
X009948Y011039D01*
X009944Y011108D01*
X009944Y011178D01*
X009948Y011247D01*
X009956Y011315D01*
X009968Y011384D01*
X009983Y011451D01*
X010002Y011518D01*
X010025Y011583D01*
X010051Y011647D01*
X010081Y011709D01*
X010114Y011770D01*
X010151Y011829D01*
X010191Y011885D01*
X010234Y011939D01*
X010280Y011991D01*
X010329Y012040D01*
X010380Y012086D01*
X010434Y012130D01*
X010491Y012170D01*
X010549Y012207D01*
X010609Y012241D01*
X010672Y012271D01*
X010735Y012298D01*
X010801Y012321D01*
X010802Y012318D01*
X010736Y012295D01*
X010673Y012268D01*
X010611Y012238D01*
X010550Y012204D01*
X010492Y012167D01*
X010436Y012127D01*
X010382Y012084D01*
X010331Y012038D01*
X010282Y011989D01*
X010236Y011937D01*
X010193Y011883D01*
X010154Y011827D01*
X010117Y011768D01*
X010084Y011708D01*
X010054Y011646D01*
X010028Y011582D01*
X010005Y011517D01*
X009986Y011450D01*
X009971Y011383D01*
X009959Y011315D01*
X009951Y011246D01*
X009947Y011178D01*
X009947Y011108D01*
X009951Y011040D01*
X009959Y010971D01*
X009971Y010903D01*
X009986Y010836D01*
X010005Y010769D01*
X010028Y010704D01*
X010054Y010640D01*
X010084Y010578D01*
X010117Y010518D01*
X010154Y010459D01*
X010193Y010403D01*
X010236Y010349D01*
X010282Y010297D01*
X010331Y010248D01*
X010382Y010202D01*
X010436Y010159D01*
X010492Y010119D01*
X010550Y010082D01*
X010611Y010048D01*
X010673Y010018D01*
X010736Y009991D01*
X010802Y009968D01*
X010802Y009971D01*
X010738Y009994D01*
X010674Y010021D01*
X010612Y010051D01*
X010552Y010084D01*
X010494Y010121D01*
X010438Y010161D01*
X010384Y010204D01*
X010333Y010250D01*
X010284Y010299D01*
X010239Y010351D01*
X010196Y010405D01*
X010156Y010461D01*
X010120Y010519D01*
X010086Y010579D01*
X010057Y010642D01*
X010030Y010705D01*
X010008Y010770D01*
X009989Y010836D01*
X009974Y010904D01*
X009962Y010971D01*
X009954Y011040D01*
X009950Y011109D01*
X009950Y011177D01*
X009954Y011246D01*
X009962Y011315D01*
X009974Y011382D01*
X009989Y011450D01*
X010008Y011516D01*
X010030Y011581D01*
X010057Y011644D01*
X010086Y011707D01*
X010120Y011767D01*
X010156Y011825D01*
X010196Y011881D01*
X010239Y011935D01*
X010284Y011987D01*
X010333Y012036D01*
X010384Y012082D01*
X010438Y012125D01*
X010494Y012165D01*
X010552Y012202D01*
X010612Y012235D01*
X010674Y012265D01*
X010738Y012292D01*
X010802Y012315D01*
X010803Y012312D01*
X010739Y012289D01*
X010675Y012263D01*
X010614Y012233D01*
X010554Y012199D01*
X010496Y012162D01*
X010440Y012122D01*
X010386Y012079D01*
X010335Y012034D01*
X010287Y011985D01*
X010241Y011934D01*
X010198Y011880D01*
X010159Y011824D01*
X010122Y011765D01*
X010089Y011705D01*
X010059Y011643D01*
X010033Y011580D01*
X010011Y011515D01*
X009992Y011449D01*
X009976Y011382D01*
X009965Y011314D01*
X009957Y011246D01*
X009953Y011177D01*
X009953Y011109D01*
X009957Y011040D01*
X009965Y010972D01*
X009976Y010904D01*
X009992Y010837D01*
X010011Y010771D01*
X010033Y010706D01*
X010059Y010643D01*
X010089Y010581D01*
X010122Y010521D01*
X010159Y010462D01*
X010198Y010406D01*
X010241Y010352D01*
X010287Y010301D01*
X010335Y010252D01*
X010386Y010207D01*
X010440Y010164D01*
X010496Y010124D01*
X010554Y010087D01*
X010614Y010053D01*
X010675Y010023D01*
X010739Y009997D01*
X010803Y009974D01*
X010804Y009977D01*
X010740Y010000D01*
X010677Y010026D01*
X010615Y010056D01*
X010555Y010089D01*
X010497Y010126D01*
X010441Y010166D01*
X010388Y010209D01*
X010337Y010255D01*
X010289Y010303D01*
X010243Y010354D01*
X010201Y010408D01*
X010161Y010464D01*
X010125Y010522D01*
X010092Y010582D01*
X010062Y010644D01*
X010036Y010707D01*
X010013Y010772D01*
X009995Y010838D01*
X009979Y010905D01*
X009968Y010972D01*
X009960Y011040D01*
X009956Y011109D01*
X009956Y011177D01*
X009960Y011246D01*
X009968Y011314D01*
X009979Y011381D01*
X009995Y011448D01*
X010013Y011514D01*
X010036Y011579D01*
X010062Y011642D01*
X010092Y011704D01*
X010125Y011764D01*
X010161Y011822D01*
X010201Y011878D01*
X010243Y011932D01*
X010289Y011983D01*
X010337Y012031D01*
X010388Y012077D01*
X010441Y012120D01*
X010497Y012160D01*
X010555Y012197D01*
X010615Y012230D01*
X010677Y012260D01*
X010740Y012286D01*
X010804Y012309D01*
X010805Y012307D01*
X010741Y012284D01*
X010678Y012257D01*
X010616Y012227D01*
X010557Y012194D01*
X010499Y012157D01*
X010443Y012118D01*
X010390Y012075D01*
X010339Y012029D01*
X010291Y011981D01*
X010246Y011930D01*
X010203Y011876D01*
X010164Y011820D01*
X010127Y011762D01*
X010094Y011702D01*
X010065Y011641D01*
X010039Y011578D01*
X010016Y011513D01*
X009997Y011447D01*
X009982Y011381D01*
X009971Y011313D01*
X009963Y011245D01*
X009959Y011177D01*
X009959Y011109D01*
X009963Y011041D01*
X009971Y010973D01*
X009982Y010905D01*
X009997Y010839D01*
X010016Y010773D01*
X010039Y010708D01*
X010065Y010645D01*
X010094Y010584D01*
X010127Y010524D01*
X010164Y010466D01*
X010203Y010410D01*
X010246Y010356D01*
X010291Y010305D01*
X010339Y010257D01*
X010390Y010211D01*
X010443Y010168D01*
X010499Y010129D01*
X010557Y010092D01*
X010616Y010059D01*
X010678Y010029D01*
X010741Y010002D01*
X010805Y009979D01*
X010806Y009982D01*
X010742Y010005D01*
X010679Y010032D01*
X010618Y010061D01*
X010558Y010095D01*
X010501Y010131D01*
X010445Y010171D01*
X010392Y010213D01*
X010341Y010259D01*
X010293Y010307D01*
X010248Y010358D01*
X010205Y010412D01*
X010166Y010467D01*
X010130Y010525D01*
X010097Y010585D01*
X010068Y010646D01*
X010042Y010709D01*
X010019Y010774D01*
X010000Y010839D01*
X009985Y010906D01*
X009974Y010973D01*
X009966Y011041D01*
X009962Y011109D01*
X009962Y011177D01*
X009966Y011245D01*
X009974Y011313D01*
X009985Y011380D01*
X010000Y011447D01*
X010019Y011512D01*
X010042Y011577D01*
X010068Y011640D01*
X010097Y011701D01*
X010130Y011761D01*
X010166Y011819D01*
X010205Y011874D01*
X010248Y011928D01*
X010293Y011979D01*
X010341Y012027D01*
X010392Y012073D01*
X010445Y012115D01*
X010501Y012155D01*
X010558Y012191D01*
X010618Y012225D01*
X010679Y012254D01*
X010742Y012281D01*
X010806Y012304D01*
X010807Y012301D01*
X010743Y012278D01*
X010680Y012252D01*
X010619Y012222D01*
X010560Y012189D01*
X010502Y012152D01*
X010447Y012113D01*
X010394Y012070D01*
X010343Y012025D01*
X010295Y011977D01*
X010250Y011926D01*
X010208Y011872D01*
X010169Y011817D01*
X010133Y011759D01*
X010100Y011700D01*
X010070Y011638D01*
X010044Y011575D01*
X010022Y011511D01*
X010003Y011446D01*
X009988Y011380D01*
X009977Y011313D01*
X009969Y011245D01*
X009965Y011177D01*
X009965Y011109D01*
X009969Y011041D01*
X009977Y010973D01*
X009988Y010906D01*
X010003Y010840D01*
X010022Y010775D01*
X010044Y010711D01*
X010070Y010648D01*
X010100Y010586D01*
X010133Y010527D01*
X010169Y010469D01*
X010208Y010414D01*
X010250Y010360D01*
X010295Y010309D01*
X010343Y010261D01*
X010394Y010216D01*
X010447Y010173D01*
X010502Y010134D01*
X010560Y010097D01*
X010619Y010064D01*
X010680Y010034D01*
X010743Y010008D01*
X010807Y009985D01*
X010808Y009988D01*
X010744Y010011D01*
X010681Y010037D01*
X010620Y010067D01*
X010561Y010100D01*
X010504Y010136D01*
X010449Y010175D01*
X010396Y010218D01*
X010345Y010263D01*
X010298Y010311D01*
X010252Y010362D01*
X010210Y010415D01*
X010171Y010471D01*
X010135Y010528D01*
X010102Y010588D01*
X010073Y010649D01*
X010047Y010712D01*
X010025Y010776D01*
X010006Y010841D01*
X009991Y010907D01*
X009980Y010974D01*
X009972Y011041D01*
X009968Y011109D01*
X009968Y011177D01*
X009972Y011245D01*
X009980Y011312D01*
X009991Y011379D01*
X010006Y011445D01*
X010025Y011510D01*
X010047Y011574D01*
X010073Y011637D01*
X010102Y011698D01*
X010135Y011758D01*
X010171Y011815D01*
X010210Y011871D01*
X010252Y011924D01*
X010298Y011975D01*
X010345Y012023D01*
X010396Y012068D01*
X010449Y012111D01*
X010504Y012150D01*
X010561Y012186D01*
X010620Y012219D01*
X010681Y012249D01*
X010744Y012275D01*
X010808Y012298D01*
X010809Y012295D01*
X010745Y012272D01*
X010683Y012246D01*
X010622Y012217D01*
X010563Y012184D01*
X010506Y012147D01*
X010451Y012108D01*
X010398Y012066D01*
X010347Y012020D01*
X010300Y011972D01*
X010255Y011922D01*
X010213Y011869D01*
X010174Y011814D01*
X010138Y011756D01*
X010105Y011697D01*
X010076Y011636D01*
X010050Y011573D01*
X010028Y011509D01*
X010009Y011444D01*
X009994Y011378D01*
X009983Y011312D01*
X009975Y011244D01*
X009971Y011177D01*
X009971Y011109D01*
X009975Y011042D01*
X009983Y010974D01*
X009994Y010908D01*
X010009Y010842D01*
X010028Y010777D01*
X010050Y010713D01*
X010076Y010650D01*
X010105Y010589D01*
X010138Y010530D01*
X010174Y010472D01*
X010213Y010417D01*
X010255Y010364D01*
X010300Y010314D01*
X010347Y010266D01*
X010398Y010220D01*
X010451Y010178D01*
X010506Y010139D01*
X010563Y010102D01*
X010622Y010069D01*
X010683Y010040D01*
X010745Y010014D01*
X010809Y009991D01*
X010810Y009994D01*
X010746Y010016D01*
X010684Y010042D01*
X010623Y010072D01*
X010564Y010105D01*
X010507Y010141D01*
X010452Y010180D01*
X010400Y010223D01*
X010349Y010268D01*
X010302Y010316D01*
X010257Y010366D01*
X010215Y010419D01*
X010176Y010474D01*
X010140Y010531D01*
X010108Y010590D01*
X010079Y010651D01*
X010053Y010714D01*
X010031Y010777D01*
X010012Y010842D01*
X009997Y010908D01*
X009986Y010975D01*
X009978Y011042D01*
X009974Y011109D01*
X009974Y011177D01*
X009978Y011244D01*
X009986Y011311D01*
X009997Y011378D01*
X010012Y011444D01*
X010031Y011509D01*
X010053Y011572D01*
X010079Y011635D01*
X010108Y011696D01*
X010140Y011755D01*
X010176Y011812D01*
X010215Y011867D01*
X010257Y011920D01*
X010302Y011970D01*
X010349Y012018D01*
X010400Y012063D01*
X010452Y012106D01*
X010507Y012145D01*
X010564Y012181D01*
X010623Y012214D01*
X010684Y012244D01*
X010746Y012270D01*
X010810Y012292D01*
X010811Y012289D01*
X010747Y012267D01*
X010685Y012241D01*
X010625Y012211D01*
X010566Y012179D01*
X010509Y012142D01*
X010454Y012103D01*
X010402Y012061D01*
X010352Y012016D01*
X010304Y011968D01*
X010259Y011918D01*
X010217Y011865D01*
X010179Y011810D01*
X010143Y011753D01*
X010110Y011694D01*
X010081Y011633D01*
X010056Y011571D01*
X010033Y011508D01*
X010015Y011443D01*
X010000Y011377D01*
X009989Y011311D01*
X009981Y011244D01*
X009977Y011177D01*
X009977Y011109D01*
X009981Y011042D01*
X009989Y010975D01*
X010000Y010909D01*
X010015Y010843D01*
X010033Y010778D01*
X010056Y010715D01*
X010081Y010653D01*
X010110Y010592D01*
X010143Y010533D01*
X010179Y010476D01*
X010217Y010421D01*
X010259Y010368D01*
X010304Y010318D01*
X010352Y010270D01*
X010402Y010225D01*
X010454Y010183D01*
X010509Y010144D01*
X010566Y010107D01*
X010625Y010075D01*
X010685Y010045D01*
X010747Y010019D01*
X010811Y009997D01*
X006077Y012320D02*
X006088Y012286D01*
X006088Y012287D02*
X006023Y012263D01*
X005960Y012237D01*
X005898Y012207D01*
X005838Y012173D01*
X005780Y012136D01*
X005725Y012095D01*
X005671Y012052D01*
X005621Y012005D01*
X005573Y011956D01*
X005528Y011904D01*
X005486Y011850D01*
X005447Y011793D01*
X005412Y011734D01*
X005380Y011674D01*
X005351Y011611D01*
X005326Y011547D01*
X005305Y011482D01*
X005287Y011415D01*
X005274Y011348D01*
X005264Y011280D01*
X005258Y011212D01*
X005256Y011143D01*
X005258Y011074D01*
X005264Y011006D01*
X005274Y010938D01*
X005287Y010871D01*
X005305Y010804D01*
X005326Y010739D01*
X005351Y010675D01*
X005380Y010612D01*
X005412Y010552D01*
X005447Y010493D01*
X005486Y010436D01*
X005528Y010382D01*
X005573Y010330D01*
X005621Y010281D01*
X005671Y010234D01*
X005725Y010191D01*
X005780Y010150D01*
X005838Y010113D01*
X005898Y010079D01*
X005960Y010049D01*
X006023Y010023D01*
X006088Y009999D01*
X006077Y009966D01*
X006077Y009965D01*
X006011Y009988D01*
X005948Y010015D01*
X005885Y010045D01*
X005825Y010079D01*
X005767Y010116D01*
X005710Y010156D01*
X005656Y010200D01*
X005605Y010246D01*
X005556Y010295D01*
X005510Y010347D01*
X005467Y010401D01*
X005427Y010457D01*
X005390Y010516D01*
X005357Y010577D01*
X005327Y010639D01*
X005301Y010703D01*
X005278Y010768D01*
X005259Y010835D01*
X005244Y010902D01*
X005232Y010971D01*
X005224Y011039D01*
X005220Y011108D01*
X005220Y011178D01*
X005224Y011247D01*
X005232Y011315D01*
X005244Y011384D01*
X005259Y011451D01*
X005278Y011518D01*
X005301Y011583D01*
X005327Y011647D01*
X005357Y011709D01*
X005390Y011770D01*
X005427Y011829D01*
X005467Y011885D01*
X005510Y011939D01*
X005556Y011991D01*
X005605Y012040D01*
X005656Y012086D01*
X005710Y012130D01*
X005767Y012170D01*
X005825Y012207D01*
X005885Y012241D01*
X005948Y012271D01*
X006011Y012298D01*
X006077Y012321D01*
X006078Y012318D01*
X006012Y012295D01*
X005949Y012268D01*
X005887Y012238D01*
X005826Y012204D01*
X005768Y012167D01*
X005712Y012127D01*
X005658Y012084D01*
X005607Y012038D01*
X005558Y011989D01*
X005512Y011937D01*
X005469Y011883D01*
X005430Y011827D01*
X005393Y011768D01*
X005360Y011708D01*
X005330Y011646D01*
X005304Y011582D01*
X005281Y011517D01*
X005262Y011450D01*
X005247Y011383D01*
X005235Y011315D01*
X005227Y011246D01*
X005223Y011178D01*
X005223Y011108D01*
X005227Y011040D01*
X005235Y010971D01*
X005247Y010903D01*
X005262Y010836D01*
X005281Y010769D01*
X005304Y010704D01*
X005330Y010640D01*
X005360Y010578D01*
X005393Y010518D01*
X005430Y010459D01*
X005469Y010403D01*
X005512Y010349D01*
X005558Y010297D01*
X005607Y010248D01*
X005658Y010202D01*
X005712Y010159D01*
X005768Y010119D01*
X005826Y010082D01*
X005887Y010048D01*
X005949Y010018D01*
X006012Y009991D01*
X006078Y009968D01*
X006078Y009971D01*
X006014Y009994D01*
X005950Y010021D01*
X005888Y010051D01*
X005828Y010084D01*
X005770Y010121D01*
X005714Y010161D01*
X005660Y010204D01*
X005609Y010250D01*
X005560Y010299D01*
X005515Y010351D01*
X005472Y010405D01*
X005432Y010461D01*
X005396Y010519D01*
X005362Y010579D01*
X005333Y010642D01*
X005306Y010705D01*
X005284Y010770D01*
X005265Y010836D01*
X005250Y010904D01*
X005238Y010971D01*
X005230Y011040D01*
X005226Y011109D01*
X005226Y011177D01*
X005230Y011246D01*
X005238Y011315D01*
X005250Y011382D01*
X005265Y011450D01*
X005284Y011516D01*
X005306Y011581D01*
X005333Y011644D01*
X005362Y011707D01*
X005396Y011767D01*
X005432Y011825D01*
X005472Y011881D01*
X005515Y011935D01*
X005560Y011987D01*
X005609Y012036D01*
X005660Y012082D01*
X005714Y012125D01*
X005770Y012165D01*
X005828Y012202D01*
X005888Y012235D01*
X005950Y012265D01*
X006014Y012292D01*
X006078Y012315D01*
X006079Y012312D01*
X006015Y012289D01*
X005951Y012263D01*
X005890Y012233D01*
X005830Y012199D01*
X005772Y012162D01*
X005716Y012122D01*
X005662Y012079D01*
X005611Y012034D01*
X005563Y011985D01*
X005517Y011934D01*
X005474Y011880D01*
X005435Y011824D01*
X005398Y011765D01*
X005365Y011705D01*
X005335Y011643D01*
X005309Y011580D01*
X005287Y011515D01*
X005268Y011449D01*
X005252Y011382D01*
X005241Y011314D01*
X005233Y011246D01*
X005229Y011177D01*
X005229Y011109D01*
X005233Y011040D01*
X005241Y010972D01*
X005252Y010904D01*
X005268Y010837D01*
X005287Y010771D01*
X005309Y010706D01*
X005335Y010643D01*
X005365Y010581D01*
X005398Y010521D01*
X005435Y010462D01*
X005474Y010406D01*
X005517Y010352D01*
X005563Y010301D01*
X005611Y010252D01*
X005662Y010207D01*
X005716Y010164D01*
X005772Y010124D01*
X005830Y010087D01*
X005890Y010053D01*
X005951Y010023D01*
X006015Y009997D01*
X006079Y009974D01*
X006080Y009977D01*
X006016Y010000D01*
X005953Y010026D01*
X005891Y010056D01*
X005831Y010089D01*
X005773Y010126D01*
X005717Y010166D01*
X005664Y010209D01*
X005613Y010255D01*
X005565Y010303D01*
X005519Y010354D01*
X005477Y010408D01*
X005437Y010464D01*
X005401Y010522D01*
X005368Y010582D01*
X005338Y010644D01*
X005312Y010707D01*
X005289Y010772D01*
X005271Y010838D01*
X005255Y010905D01*
X005244Y010972D01*
X005236Y011040D01*
X005232Y011109D01*
X005232Y011177D01*
X005236Y011246D01*
X005244Y011314D01*
X005255Y011381D01*
X005271Y011448D01*
X005289Y011514D01*
X005312Y011579D01*
X005338Y011642D01*
X005368Y011704D01*
X005401Y011764D01*
X005437Y011822D01*
X005477Y011878D01*
X005519Y011932D01*
X005565Y011983D01*
X005613Y012031D01*
X005664Y012077D01*
X005717Y012120D01*
X005773Y012160D01*
X005831Y012197D01*
X005891Y012230D01*
X005953Y012260D01*
X006016Y012286D01*
X006080Y012309D01*
X006081Y012307D01*
X006017Y012284D01*
X005954Y012257D01*
X005892Y012227D01*
X005833Y012194D01*
X005775Y012157D01*
X005719Y012118D01*
X005666Y012075D01*
X005615Y012029D01*
X005567Y011981D01*
X005522Y011930D01*
X005479Y011876D01*
X005440Y011820D01*
X005403Y011762D01*
X005370Y011702D01*
X005341Y011641D01*
X005315Y011578D01*
X005292Y011513D01*
X005273Y011447D01*
X005258Y011381D01*
X005247Y011313D01*
X005239Y011245D01*
X005235Y011177D01*
X005235Y011109D01*
X005239Y011041D01*
X005247Y010973D01*
X005258Y010905D01*
X005273Y010839D01*
X005292Y010773D01*
X005315Y010708D01*
X005341Y010645D01*
X005370Y010584D01*
X005403Y010524D01*
X005440Y010466D01*
X005479Y010410D01*
X005522Y010356D01*
X005567Y010305D01*
X005615Y010257D01*
X005666Y010211D01*
X005719Y010168D01*
X005775Y010129D01*
X005833Y010092D01*
X005892Y010059D01*
X005954Y010029D01*
X006017Y010002D01*
X006081Y009979D01*
X006082Y009982D01*
X006018Y010005D01*
X005955Y010032D01*
X005894Y010061D01*
X005834Y010095D01*
X005777Y010131D01*
X005721Y010171D01*
X005668Y010213D01*
X005617Y010259D01*
X005569Y010307D01*
X005524Y010358D01*
X005481Y010412D01*
X005442Y010467D01*
X005406Y010525D01*
X005373Y010585D01*
X005344Y010646D01*
X005318Y010709D01*
X005295Y010774D01*
X005276Y010839D01*
X005261Y010906D01*
X005250Y010973D01*
X005242Y011041D01*
X005238Y011109D01*
X005238Y011177D01*
X005242Y011245D01*
X005250Y011313D01*
X005261Y011380D01*
X005276Y011447D01*
X005295Y011512D01*
X005318Y011577D01*
X005344Y011640D01*
X005373Y011701D01*
X005406Y011761D01*
X005442Y011819D01*
X005481Y011874D01*
X005524Y011928D01*
X005569Y011979D01*
X005617Y012027D01*
X005668Y012073D01*
X005721Y012115D01*
X005777Y012155D01*
X005834Y012191D01*
X005894Y012225D01*
X005955Y012254D01*
X006018Y012281D01*
X006082Y012304D01*
X006083Y012301D01*
X006019Y012278D01*
X005956Y012252D01*
X005895Y012222D01*
X005836Y012189D01*
X005778Y012152D01*
X005723Y012113D01*
X005670Y012070D01*
X005619Y012025D01*
X005571Y011977D01*
X005526Y011926D01*
X005484Y011872D01*
X005445Y011817D01*
X005409Y011759D01*
X005376Y011700D01*
X005346Y011638D01*
X005320Y011575D01*
X005298Y011511D01*
X005279Y011446D01*
X005264Y011380D01*
X005253Y011313D01*
X005245Y011245D01*
X005241Y011177D01*
X005241Y011109D01*
X005245Y011041D01*
X005253Y010973D01*
X005264Y010906D01*
X005279Y010840D01*
X005298Y010775D01*
X005320Y010711D01*
X005346Y010648D01*
X005376Y010586D01*
X005409Y010527D01*
X005445Y010469D01*
X005484Y010414D01*
X005526Y010360D01*
X005571Y010309D01*
X005619Y010261D01*
X005670Y010216D01*
X005723Y010173D01*
X005778Y010134D01*
X005836Y010097D01*
X005895Y010064D01*
X005956Y010034D01*
X006019Y010008D01*
X006083Y009985D01*
X006084Y009988D01*
X006020Y010011D01*
X005957Y010037D01*
X005896Y010067D01*
X005837Y010100D01*
X005780Y010136D01*
X005725Y010175D01*
X005672Y010218D01*
X005621Y010263D01*
X005574Y010311D01*
X005528Y010362D01*
X005486Y010415D01*
X005447Y010471D01*
X005411Y010528D01*
X005378Y010588D01*
X005349Y010649D01*
X005323Y010712D01*
X005301Y010776D01*
X005282Y010841D01*
X005267Y010907D01*
X005256Y010974D01*
X005248Y011041D01*
X005244Y011109D01*
X005244Y011177D01*
X005248Y011245D01*
X005256Y011312D01*
X005267Y011379D01*
X005282Y011445D01*
X005301Y011510D01*
X005323Y011574D01*
X005349Y011637D01*
X005378Y011698D01*
X005411Y011758D01*
X005447Y011815D01*
X005486Y011871D01*
X005528Y011924D01*
X005574Y011975D01*
X005621Y012023D01*
X005672Y012068D01*
X005725Y012111D01*
X005780Y012150D01*
X005837Y012186D01*
X005896Y012219D01*
X005957Y012249D01*
X006020Y012275D01*
X006084Y012298D01*
X006085Y012295D01*
X006021Y012272D01*
X005959Y012246D01*
X005898Y012217D01*
X005839Y012184D01*
X005782Y012147D01*
X005727Y012108D01*
X005674Y012066D01*
X005623Y012020D01*
X005576Y011972D01*
X005531Y011922D01*
X005489Y011869D01*
X005450Y011814D01*
X005414Y011756D01*
X005381Y011697D01*
X005352Y011636D01*
X005326Y011573D01*
X005304Y011509D01*
X005285Y011444D01*
X005270Y011378D01*
X005259Y011312D01*
X005251Y011244D01*
X005247Y011177D01*
X005247Y011109D01*
X005251Y011042D01*
X005259Y010974D01*
X005270Y010908D01*
X005285Y010842D01*
X005304Y010777D01*
X005326Y010713D01*
X005352Y010650D01*
X005381Y010589D01*
X005414Y010530D01*
X005450Y010472D01*
X005489Y010417D01*
X005531Y010364D01*
X005576Y010314D01*
X005623Y010266D01*
X005674Y010220D01*
X005727Y010178D01*
X005782Y010139D01*
X005839Y010102D01*
X005898Y010069D01*
X005959Y010040D01*
X006021Y010014D01*
X006085Y009991D01*
X006086Y009994D01*
X006022Y010016D01*
X005960Y010042D01*
X005899Y010072D01*
X005840Y010105D01*
X005783Y010141D01*
X005728Y010180D01*
X005676Y010223D01*
X005625Y010268D01*
X005578Y010316D01*
X005533Y010366D01*
X005491Y010419D01*
X005452Y010474D01*
X005416Y010531D01*
X005384Y010590D01*
X005355Y010651D01*
X005329Y010714D01*
X005307Y010777D01*
X005288Y010842D01*
X005273Y010908D01*
X005262Y010975D01*
X005254Y011042D01*
X005250Y011109D01*
X005250Y011177D01*
X005254Y011244D01*
X005262Y011311D01*
X005273Y011378D01*
X005288Y011444D01*
X005307Y011509D01*
X005329Y011572D01*
X005355Y011635D01*
X005384Y011696D01*
X005416Y011755D01*
X005452Y011812D01*
X005491Y011867D01*
X005533Y011920D01*
X005578Y011970D01*
X005625Y012018D01*
X005676Y012063D01*
X005728Y012106D01*
X005783Y012145D01*
X005840Y012181D01*
X005899Y012214D01*
X005960Y012244D01*
X006022Y012270D01*
X006086Y012292D01*
X006087Y012289D01*
X006023Y012267D01*
X005961Y012241D01*
X005901Y012211D01*
X005842Y012179D01*
X005785Y012142D01*
X005730Y012103D01*
X005678Y012061D01*
X005628Y012016D01*
X005580Y011968D01*
X005535Y011918D01*
X005493Y011865D01*
X005455Y011810D01*
X005419Y011753D01*
X005386Y011694D01*
X005357Y011633D01*
X005332Y011571D01*
X005309Y011508D01*
X005291Y011443D01*
X005276Y011377D01*
X005265Y011311D01*
X005257Y011244D01*
X005253Y011177D01*
X005253Y011109D01*
X005257Y011042D01*
X005265Y010975D01*
X005276Y010909D01*
X005291Y010843D01*
X005309Y010778D01*
X005332Y010715D01*
X005357Y010653D01*
X005386Y010592D01*
X005419Y010533D01*
X005455Y010476D01*
X005493Y010421D01*
X005535Y010368D01*
X005580Y010318D01*
X005628Y010270D01*
X005678Y010225D01*
X005730Y010183D01*
X005785Y010144D01*
X005842Y010107D01*
X005901Y010075D01*
X005961Y010045D01*
X006023Y010019D01*
X006087Y009997D01*
X006839Y009966D02*
X006828Y010000D01*
X006828Y009999D02*
X006893Y010023D01*
X006956Y010049D01*
X007018Y010079D01*
X007078Y010113D01*
X007136Y010150D01*
X007191Y010191D01*
X007245Y010234D01*
X007295Y010281D01*
X007343Y010330D01*
X007388Y010382D01*
X007430Y010436D01*
X007469Y010493D01*
X007504Y010552D01*
X007536Y010612D01*
X007565Y010675D01*
X007590Y010739D01*
X007611Y010804D01*
X007629Y010871D01*
X007642Y010938D01*
X007652Y011006D01*
X007658Y011074D01*
X007660Y011143D01*
X007658Y011212D01*
X007652Y011280D01*
X007642Y011348D01*
X007629Y011415D01*
X007611Y011482D01*
X007590Y011547D01*
X007565Y011611D01*
X007536Y011674D01*
X007504Y011734D01*
X007469Y011793D01*
X007430Y011850D01*
X007388Y011904D01*
X007343Y011956D01*
X007295Y012005D01*
X007245Y012052D01*
X007191Y012095D01*
X007136Y012136D01*
X007078Y012173D01*
X007018Y012207D01*
X006956Y012237D01*
X006893Y012263D01*
X006828Y012287D01*
X006839Y012320D01*
X006839Y012321D01*
X006905Y012298D01*
X006968Y012271D01*
X007031Y012241D01*
X007091Y012207D01*
X007149Y012170D01*
X007206Y012130D01*
X007260Y012086D01*
X007311Y012040D01*
X007360Y011991D01*
X007406Y011939D01*
X007449Y011885D01*
X007489Y011829D01*
X007526Y011770D01*
X007559Y011709D01*
X007589Y011647D01*
X007615Y011583D01*
X007638Y011518D01*
X007657Y011451D01*
X007672Y011384D01*
X007684Y011315D01*
X007692Y011247D01*
X007696Y011178D01*
X007696Y011108D01*
X007692Y011039D01*
X007684Y010971D01*
X007672Y010902D01*
X007657Y010835D01*
X007638Y010768D01*
X007615Y010703D01*
X007589Y010639D01*
X007559Y010577D01*
X007526Y010516D01*
X007489Y010457D01*
X007449Y010401D01*
X007406Y010347D01*
X007360Y010295D01*
X007311Y010246D01*
X007260Y010200D01*
X007206Y010156D01*
X007149Y010116D01*
X007091Y010079D01*
X007031Y010045D01*
X006968Y010015D01*
X006905Y009988D01*
X006839Y009965D01*
X006838Y009968D01*
X006904Y009991D01*
X006967Y010018D01*
X007029Y010048D01*
X007090Y010082D01*
X007148Y010119D01*
X007204Y010159D01*
X007258Y010202D01*
X007309Y010248D01*
X007358Y010297D01*
X007404Y010349D01*
X007447Y010403D01*
X007486Y010459D01*
X007523Y010518D01*
X007556Y010578D01*
X007586Y010640D01*
X007612Y010704D01*
X007635Y010769D01*
X007654Y010836D01*
X007669Y010903D01*
X007681Y010971D01*
X007689Y011040D01*
X007693Y011108D01*
X007693Y011178D01*
X007689Y011246D01*
X007681Y011315D01*
X007669Y011383D01*
X007654Y011450D01*
X007635Y011517D01*
X007612Y011582D01*
X007586Y011646D01*
X007556Y011708D01*
X007523Y011768D01*
X007486Y011827D01*
X007447Y011883D01*
X007404Y011937D01*
X007358Y011989D01*
X007309Y012038D01*
X007258Y012084D01*
X007204Y012127D01*
X007148Y012167D01*
X007090Y012204D01*
X007029Y012238D01*
X006967Y012268D01*
X006904Y012295D01*
X006838Y012318D01*
X006838Y012315D01*
X006902Y012292D01*
X006966Y012265D01*
X007028Y012235D01*
X007088Y012202D01*
X007146Y012165D01*
X007202Y012125D01*
X007256Y012082D01*
X007307Y012036D01*
X007356Y011987D01*
X007401Y011935D01*
X007444Y011881D01*
X007484Y011825D01*
X007520Y011767D01*
X007554Y011707D01*
X007583Y011644D01*
X007610Y011581D01*
X007632Y011516D01*
X007651Y011450D01*
X007666Y011382D01*
X007678Y011315D01*
X007686Y011246D01*
X007690Y011177D01*
X007690Y011109D01*
X007686Y011040D01*
X007678Y010971D01*
X007666Y010904D01*
X007651Y010836D01*
X007632Y010770D01*
X007610Y010705D01*
X007583Y010642D01*
X007554Y010579D01*
X007520Y010519D01*
X007484Y010461D01*
X007444Y010405D01*
X007401Y010351D01*
X007356Y010299D01*
X007307Y010250D01*
X007256Y010204D01*
X007202Y010161D01*
X007146Y010121D01*
X007088Y010084D01*
X007028Y010051D01*
X006966Y010021D01*
X006902Y009994D01*
X006838Y009971D01*
X006837Y009974D01*
X006901Y009997D01*
X006965Y010023D01*
X007026Y010053D01*
X007086Y010087D01*
X007144Y010124D01*
X007200Y010164D01*
X007254Y010207D01*
X007305Y010252D01*
X007353Y010301D01*
X007399Y010352D01*
X007442Y010406D01*
X007481Y010462D01*
X007518Y010521D01*
X007551Y010581D01*
X007581Y010643D01*
X007607Y010706D01*
X007629Y010771D01*
X007648Y010837D01*
X007664Y010904D01*
X007675Y010972D01*
X007683Y011040D01*
X007687Y011109D01*
X007687Y011177D01*
X007683Y011246D01*
X007675Y011314D01*
X007664Y011382D01*
X007648Y011449D01*
X007629Y011515D01*
X007607Y011580D01*
X007581Y011643D01*
X007551Y011705D01*
X007518Y011765D01*
X007481Y011824D01*
X007442Y011880D01*
X007399Y011934D01*
X007353Y011985D01*
X007305Y012034D01*
X007254Y012079D01*
X007200Y012122D01*
X007144Y012162D01*
X007086Y012199D01*
X007026Y012233D01*
X006965Y012263D01*
X006901Y012289D01*
X006837Y012312D01*
X006836Y012309D01*
X006900Y012286D01*
X006963Y012260D01*
X007025Y012230D01*
X007085Y012197D01*
X007143Y012160D01*
X007199Y012120D01*
X007252Y012077D01*
X007303Y012031D01*
X007351Y011983D01*
X007397Y011932D01*
X007439Y011878D01*
X007479Y011822D01*
X007515Y011764D01*
X007548Y011704D01*
X007578Y011642D01*
X007604Y011579D01*
X007627Y011514D01*
X007645Y011448D01*
X007661Y011381D01*
X007672Y011314D01*
X007680Y011246D01*
X007684Y011177D01*
X007684Y011109D01*
X007680Y011040D01*
X007672Y010972D01*
X007661Y010905D01*
X007645Y010838D01*
X007627Y010772D01*
X007604Y010707D01*
X007578Y010644D01*
X007548Y010582D01*
X007515Y010522D01*
X007479Y010464D01*
X007439Y010408D01*
X007397Y010354D01*
X007351Y010303D01*
X007303Y010255D01*
X007252Y010209D01*
X007199Y010166D01*
X007143Y010126D01*
X007085Y010089D01*
X007025Y010056D01*
X006963Y010026D01*
X006900Y010000D01*
X006836Y009977D01*
X006835Y009979D01*
X006899Y010002D01*
X006962Y010029D01*
X007024Y010059D01*
X007083Y010092D01*
X007141Y010129D01*
X007197Y010168D01*
X007250Y010211D01*
X007301Y010257D01*
X007349Y010305D01*
X007394Y010356D01*
X007437Y010410D01*
X007476Y010466D01*
X007513Y010524D01*
X007546Y010584D01*
X007575Y010645D01*
X007601Y010708D01*
X007624Y010773D01*
X007643Y010839D01*
X007658Y010905D01*
X007669Y010973D01*
X007677Y011041D01*
X007681Y011109D01*
X007681Y011177D01*
X007677Y011245D01*
X007669Y011313D01*
X007658Y011381D01*
X007643Y011447D01*
X007624Y011513D01*
X007601Y011578D01*
X007575Y011641D01*
X007546Y011702D01*
X007513Y011762D01*
X007476Y011820D01*
X007437Y011876D01*
X007394Y011930D01*
X007349Y011981D01*
X007301Y012029D01*
X007250Y012075D01*
X007197Y012118D01*
X007141Y012157D01*
X007083Y012194D01*
X007024Y012227D01*
X006962Y012257D01*
X006899Y012284D01*
X006835Y012307D01*
X006834Y012304D01*
X006898Y012281D01*
X006961Y012254D01*
X007022Y012225D01*
X007082Y012191D01*
X007139Y012155D01*
X007195Y012115D01*
X007248Y012073D01*
X007299Y012027D01*
X007347Y011979D01*
X007392Y011928D01*
X007435Y011874D01*
X007474Y011819D01*
X007510Y011761D01*
X007543Y011701D01*
X007572Y011640D01*
X007598Y011577D01*
X007621Y011512D01*
X007640Y011447D01*
X007655Y011380D01*
X007666Y011313D01*
X007674Y011245D01*
X007678Y011177D01*
X007678Y011109D01*
X007674Y011041D01*
X007666Y010973D01*
X007655Y010906D01*
X007640Y010839D01*
X007621Y010774D01*
X007598Y010709D01*
X007572Y010646D01*
X007543Y010585D01*
X007510Y010525D01*
X007474Y010467D01*
X007435Y010412D01*
X007392Y010358D01*
X007347Y010307D01*
X007299Y010259D01*
X007248Y010213D01*
X007195Y010171D01*
X007139Y010131D01*
X007082Y010095D01*
X007022Y010061D01*
X006961Y010032D01*
X006898Y010005D01*
X006834Y009982D01*
X006833Y009985D01*
X006897Y010008D01*
X006960Y010034D01*
X007021Y010064D01*
X007080Y010097D01*
X007138Y010134D01*
X007193Y010173D01*
X007246Y010216D01*
X007297Y010261D01*
X007345Y010309D01*
X007390Y010360D01*
X007432Y010414D01*
X007471Y010469D01*
X007507Y010527D01*
X007540Y010586D01*
X007570Y010648D01*
X007596Y010711D01*
X007618Y010775D01*
X007637Y010840D01*
X007652Y010906D01*
X007663Y010973D01*
X007671Y011041D01*
X007675Y011109D01*
X007675Y011177D01*
X007671Y011245D01*
X007663Y011313D01*
X007652Y011380D01*
X007637Y011446D01*
X007618Y011511D01*
X007596Y011575D01*
X007570Y011638D01*
X007540Y011700D01*
X007507Y011759D01*
X007471Y011817D01*
X007432Y011872D01*
X007390Y011926D01*
X007345Y011977D01*
X007297Y012025D01*
X007246Y012070D01*
X007193Y012113D01*
X007138Y012152D01*
X007080Y012189D01*
X007021Y012222D01*
X006960Y012252D01*
X006897Y012278D01*
X006833Y012301D01*
X006832Y012298D01*
X006896Y012275D01*
X006959Y012249D01*
X007020Y012219D01*
X007079Y012186D01*
X007136Y012150D01*
X007191Y012111D01*
X007244Y012068D01*
X007295Y012023D01*
X007342Y011975D01*
X007388Y011924D01*
X007430Y011871D01*
X007469Y011815D01*
X007505Y011758D01*
X007538Y011698D01*
X007567Y011637D01*
X007593Y011574D01*
X007615Y011510D01*
X007634Y011445D01*
X007649Y011379D01*
X007660Y011312D01*
X007668Y011245D01*
X007672Y011177D01*
X007672Y011109D01*
X007668Y011041D01*
X007660Y010974D01*
X007649Y010907D01*
X007634Y010841D01*
X007615Y010776D01*
X007593Y010712D01*
X007567Y010649D01*
X007538Y010588D01*
X007505Y010528D01*
X007469Y010471D01*
X007430Y010415D01*
X007388Y010362D01*
X007342Y010311D01*
X007295Y010263D01*
X007244Y010218D01*
X007191Y010175D01*
X007136Y010136D01*
X007079Y010100D01*
X007020Y010067D01*
X006959Y010037D01*
X006896Y010011D01*
X006832Y009988D01*
X006831Y009991D01*
X006895Y010014D01*
X006957Y010040D01*
X007018Y010069D01*
X007077Y010102D01*
X007134Y010139D01*
X007189Y010178D01*
X007242Y010220D01*
X007293Y010266D01*
X007340Y010314D01*
X007385Y010364D01*
X007427Y010417D01*
X007466Y010472D01*
X007502Y010530D01*
X007535Y010589D01*
X007564Y010650D01*
X007590Y010713D01*
X007612Y010777D01*
X007631Y010842D01*
X007646Y010908D01*
X007657Y010974D01*
X007665Y011042D01*
X007669Y011109D01*
X007669Y011177D01*
X007665Y011244D01*
X007657Y011312D01*
X007646Y011378D01*
X007631Y011444D01*
X007612Y011509D01*
X007590Y011573D01*
X007564Y011636D01*
X007535Y011697D01*
X007502Y011756D01*
X007466Y011814D01*
X007427Y011869D01*
X007385Y011922D01*
X007340Y011972D01*
X007293Y012020D01*
X007242Y012066D01*
X007189Y012108D01*
X007134Y012147D01*
X007077Y012184D01*
X007018Y012217D01*
X006957Y012246D01*
X006895Y012272D01*
X006831Y012295D01*
X006830Y012292D01*
X006894Y012270D01*
X006956Y012244D01*
X007017Y012214D01*
X007076Y012181D01*
X007133Y012145D01*
X007188Y012106D01*
X007240Y012063D01*
X007291Y012018D01*
X007338Y011970D01*
X007383Y011920D01*
X007425Y011867D01*
X007464Y011812D01*
X007500Y011755D01*
X007532Y011696D01*
X007561Y011635D01*
X007587Y011572D01*
X007609Y011509D01*
X007628Y011444D01*
X007643Y011378D01*
X007654Y011311D01*
X007662Y011244D01*
X007666Y011177D01*
X007666Y011109D01*
X007662Y011042D01*
X007654Y010975D01*
X007643Y010908D01*
X007628Y010842D01*
X007609Y010777D01*
X007587Y010714D01*
X007561Y010651D01*
X007532Y010590D01*
X007500Y010531D01*
X007464Y010474D01*
X007425Y010419D01*
X007383Y010366D01*
X007338Y010316D01*
X007291Y010268D01*
X007240Y010223D01*
X007188Y010180D01*
X007133Y010141D01*
X007076Y010105D01*
X007017Y010072D01*
X006956Y010042D01*
X006894Y010016D01*
X006830Y009994D01*
X006829Y009997D01*
X006893Y010019D01*
X006955Y010045D01*
X007015Y010075D01*
X007074Y010107D01*
X007131Y010144D01*
X007186Y010183D01*
X007238Y010225D01*
X007288Y010270D01*
X007336Y010318D01*
X007381Y010368D01*
X007423Y010421D01*
X007461Y010476D01*
X007497Y010533D01*
X007530Y010592D01*
X007559Y010653D01*
X007584Y010715D01*
X007607Y010778D01*
X007625Y010843D01*
X007640Y010909D01*
X007651Y010975D01*
X007659Y011042D01*
X007663Y011109D01*
X007663Y011177D01*
X007659Y011244D01*
X007651Y011311D01*
X007640Y011377D01*
X007625Y011443D01*
X007607Y011508D01*
X007584Y011571D01*
X007559Y011633D01*
X007530Y011694D01*
X007497Y011753D01*
X007461Y011810D01*
X007423Y011865D01*
X007381Y011918D01*
X007336Y011968D01*
X007288Y012016D01*
X007238Y012061D01*
X007186Y012103D01*
X007131Y012142D01*
X007074Y012179D01*
X007015Y012211D01*
X006955Y012241D01*
X006893Y012267D01*
X006829Y012289D01*
D22*
X005966Y004351D02*
X004489Y004351D01*
X004489Y029745D01*
X005966Y029745D01*
X006043Y029747D01*
X006120Y029753D01*
X006197Y029762D01*
X006273Y029775D01*
X006349Y029792D01*
X006423Y029813D01*
X006497Y029837D01*
X006569Y029865D01*
X006639Y029896D01*
X006708Y029931D01*
X006776Y029969D01*
X006841Y030010D01*
X006904Y030055D01*
X006965Y030103D01*
X007024Y030153D01*
X007080Y030206D01*
X007133Y030262D01*
X007183Y030321D01*
X007231Y030382D01*
X007276Y030445D01*
X007317Y030510D01*
X007355Y030578D01*
X007390Y030647D01*
X007421Y030717D01*
X007449Y030789D01*
X007473Y030863D01*
X007494Y030937D01*
X007511Y031013D01*
X007524Y031089D01*
X007533Y031166D01*
X007539Y031243D01*
X007541Y031320D01*
X007541Y032796D01*
X021123Y032796D01*
X021123Y031320D01*
X021125Y031243D01*
X021131Y031166D01*
X021140Y031089D01*
X021153Y031013D01*
X021170Y030937D01*
X021191Y030863D01*
X021215Y030789D01*
X021243Y030717D01*
X021274Y030647D01*
X021309Y030578D01*
X021347Y030510D01*
X021388Y030445D01*
X021433Y030382D01*
X021481Y030321D01*
X021531Y030262D01*
X021584Y030206D01*
X021640Y030153D01*
X021699Y030103D01*
X021760Y030055D01*
X021823Y030010D01*
X021888Y029969D01*
X021956Y029931D01*
X022025Y029896D01*
X022095Y029865D01*
X022167Y029837D01*
X022241Y029813D01*
X022315Y029792D01*
X022391Y029775D01*
X022467Y029762D01*
X022544Y029753D01*
X022621Y029747D01*
X022698Y029745D01*
X024175Y029745D01*
X024175Y004351D01*
X022698Y004351D01*
X022621Y004349D01*
X022544Y004343D01*
X022467Y004334D01*
X022391Y004321D01*
X022315Y004304D01*
X022241Y004283D01*
X022167Y004259D01*
X022095Y004231D01*
X022025Y004200D01*
X021956Y004165D01*
X021888Y004127D01*
X021823Y004086D01*
X021760Y004041D01*
X021699Y003993D01*
X021640Y003943D01*
X021584Y003890D01*
X021531Y003834D01*
X021481Y003775D01*
X021433Y003714D01*
X021388Y003651D01*
X021347Y003586D01*
X021309Y003518D01*
X021274Y003449D01*
X021243Y003379D01*
X021215Y003307D01*
X021191Y003233D01*
X021170Y003159D01*
X021153Y003083D01*
X021140Y003007D01*
X021131Y002930D01*
X021125Y002853D01*
X021123Y002776D01*
X021123Y001300D01*
X007541Y001300D01*
X007541Y002776D01*
X007539Y002853D01*
X007533Y002930D01*
X007524Y003007D01*
X007511Y003083D01*
X007494Y003159D01*
X007473Y003233D01*
X007449Y003307D01*
X007421Y003379D01*
X007390Y003449D01*
X007355Y003518D01*
X007317Y003586D01*
X007276Y003651D01*
X007231Y003714D01*
X007183Y003775D01*
X007133Y003834D01*
X007080Y003890D01*
X007024Y003943D01*
X006965Y003993D01*
X006904Y004041D01*
X006841Y004086D01*
X006776Y004127D01*
X006708Y004165D01*
X006639Y004200D01*
X006569Y004231D01*
X006497Y004259D01*
X006423Y004283D01*
X006349Y004304D01*
X006273Y004321D01*
X006197Y004334D01*
X006120Y004343D01*
X006043Y004349D01*
X005966Y004351D01*
X007619Y007166D02*
X007621Y007219D01*
X007627Y007272D01*
X007637Y007324D01*
X007650Y007375D01*
X007668Y007425D01*
X007689Y007474D01*
X007714Y007521D01*
X007742Y007565D01*
X007774Y007608D01*
X007808Y007648D01*
X007846Y007686D01*
X007886Y007720D01*
X007929Y007752D01*
X007974Y007780D01*
X008020Y007805D01*
X008069Y007826D01*
X008119Y007844D01*
X008170Y007857D01*
X008222Y007867D01*
X008275Y007873D01*
X008328Y007875D01*
X008381Y007873D01*
X008434Y007867D01*
X008486Y007857D01*
X008537Y007844D01*
X008587Y007826D01*
X008636Y007805D01*
X008683Y007780D01*
X008727Y007752D01*
X008770Y007720D01*
X008810Y007686D01*
X008848Y007648D01*
X008882Y007608D01*
X008914Y007565D01*
X008942Y007520D01*
X008967Y007474D01*
X008988Y007425D01*
X009006Y007375D01*
X009019Y007324D01*
X009029Y007272D01*
X009035Y007219D01*
X009037Y007166D01*
X009035Y007113D01*
X009029Y007060D01*
X009019Y007008D01*
X009006Y006957D01*
X008988Y006907D01*
X008967Y006858D01*
X008942Y006811D01*
X008914Y006767D01*
X008882Y006724D01*
X008848Y006684D01*
X008810Y006646D01*
X008770Y006612D01*
X008727Y006580D01*
X008682Y006552D01*
X008636Y006527D01*
X008587Y006506D01*
X008537Y006488D01*
X008486Y006475D01*
X008434Y006465D01*
X008381Y006459D01*
X008328Y006457D01*
X008275Y006459D01*
X008222Y006465D01*
X008170Y006475D01*
X008119Y006488D01*
X008069Y006506D01*
X008020Y006527D01*
X007973Y006552D01*
X007929Y006580D01*
X007886Y006612D01*
X007846Y006646D01*
X007808Y006684D01*
X007774Y006724D01*
X007742Y006767D01*
X007714Y006812D01*
X007689Y006858D01*
X007668Y006907D01*
X007650Y006957D01*
X007637Y007008D01*
X007627Y007060D01*
X007621Y007113D01*
X007619Y007166D01*
X019627Y007166D02*
X019629Y007219D01*
X019635Y007272D01*
X019645Y007324D01*
X019658Y007375D01*
X019676Y007425D01*
X019697Y007474D01*
X019722Y007521D01*
X019750Y007565D01*
X019782Y007608D01*
X019816Y007648D01*
X019854Y007686D01*
X019894Y007720D01*
X019937Y007752D01*
X019982Y007780D01*
X020028Y007805D01*
X020077Y007826D01*
X020127Y007844D01*
X020178Y007857D01*
X020230Y007867D01*
X020283Y007873D01*
X020336Y007875D01*
X020389Y007873D01*
X020442Y007867D01*
X020494Y007857D01*
X020545Y007844D01*
X020595Y007826D01*
X020644Y007805D01*
X020691Y007780D01*
X020735Y007752D01*
X020778Y007720D01*
X020818Y007686D01*
X020856Y007648D01*
X020890Y007608D01*
X020922Y007565D01*
X020950Y007520D01*
X020975Y007474D01*
X020996Y007425D01*
X021014Y007375D01*
X021027Y007324D01*
X021037Y007272D01*
X021043Y007219D01*
X021045Y007166D01*
X021043Y007113D01*
X021037Y007060D01*
X021027Y007008D01*
X021014Y006957D01*
X020996Y006907D01*
X020975Y006858D01*
X020950Y006811D01*
X020922Y006767D01*
X020890Y006724D01*
X020856Y006684D01*
X020818Y006646D01*
X020778Y006612D01*
X020735Y006580D01*
X020690Y006552D01*
X020644Y006527D01*
X020595Y006506D01*
X020545Y006488D01*
X020494Y006475D01*
X020442Y006465D01*
X020389Y006459D01*
X020336Y006457D01*
X020283Y006459D01*
X020230Y006465D01*
X020178Y006475D01*
X020127Y006488D01*
X020077Y006506D01*
X020028Y006527D01*
X019981Y006552D01*
X019937Y006580D01*
X019894Y006612D01*
X019854Y006646D01*
X019816Y006684D01*
X019782Y006724D01*
X019750Y006767D01*
X019722Y006812D01*
X019697Y006858D01*
X019676Y006907D01*
X019658Y006957D01*
X019645Y007008D01*
X019635Y007060D01*
X019629Y007113D01*
X019627Y007166D01*
X019627Y026930D02*
X019629Y026983D01*
X019635Y027036D01*
X019645Y027088D01*
X019658Y027139D01*
X019676Y027189D01*
X019697Y027238D01*
X019722Y027285D01*
X019750Y027329D01*
X019782Y027372D01*
X019816Y027412D01*
X019854Y027450D01*
X019894Y027484D01*
X019937Y027516D01*
X019982Y027544D01*
X020028Y027569D01*
X020077Y027590D01*
X020127Y027608D01*
X020178Y027621D01*
X020230Y027631D01*
X020283Y027637D01*
X020336Y027639D01*
X020389Y027637D01*
X020442Y027631D01*
X020494Y027621D01*
X020545Y027608D01*
X020595Y027590D01*
X020644Y027569D01*
X020691Y027544D01*
X020735Y027516D01*
X020778Y027484D01*
X020818Y027450D01*
X020856Y027412D01*
X020890Y027372D01*
X020922Y027329D01*
X020950Y027284D01*
X020975Y027238D01*
X020996Y027189D01*
X021014Y027139D01*
X021027Y027088D01*
X021037Y027036D01*
X021043Y026983D01*
X021045Y026930D01*
X021043Y026877D01*
X021037Y026824D01*
X021027Y026772D01*
X021014Y026721D01*
X020996Y026671D01*
X020975Y026622D01*
X020950Y026575D01*
X020922Y026531D01*
X020890Y026488D01*
X020856Y026448D01*
X020818Y026410D01*
X020778Y026376D01*
X020735Y026344D01*
X020690Y026316D01*
X020644Y026291D01*
X020595Y026270D01*
X020545Y026252D01*
X020494Y026239D01*
X020442Y026229D01*
X020389Y026223D01*
X020336Y026221D01*
X020283Y026223D01*
X020230Y026229D01*
X020178Y026239D01*
X020127Y026252D01*
X020077Y026270D01*
X020028Y026291D01*
X019981Y026316D01*
X019937Y026344D01*
X019894Y026376D01*
X019854Y026410D01*
X019816Y026448D01*
X019782Y026488D01*
X019750Y026531D01*
X019722Y026576D01*
X019697Y026622D01*
X019676Y026671D01*
X019658Y026721D01*
X019645Y026772D01*
X019635Y026824D01*
X019629Y026877D01*
X019627Y026930D01*
X007619Y026930D02*
X007621Y026983D01*
X007627Y027036D01*
X007637Y027088D01*
X007650Y027139D01*
X007668Y027189D01*
X007689Y027238D01*
X007714Y027285D01*
X007742Y027329D01*
X007774Y027372D01*
X007808Y027412D01*
X007846Y027450D01*
X007886Y027484D01*
X007929Y027516D01*
X007974Y027544D01*
X008020Y027569D01*
X008069Y027590D01*
X008119Y027608D01*
X008170Y027621D01*
X008222Y027631D01*
X008275Y027637D01*
X008328Y027639D01*
X008381Y027637D01*
X008434Y027631D01*
X008486Y027621D01*
X008537Y027608D01*
X008587Y027590D01*
X008636Y027569D01*
X008683Y027544D01*
X008727Y027516D01*
X008770Y027484D01*
X008810Y027450D01*
X008848Y027412D01*
X008882Y027372D01*
X008914Y027329D01*
X008942Y027284D01*
X008967Y027238D01*
X008988Y027189D01*
X009006Y027139D01*
X009019Y027088D01*
X009029Y027036D01*
X009035Y026983D01*
X009037Y026930D01*
X009035Y026877D01*
X009029Y026824D01*
X009019Y026772D01*
X009006Y026721D01*
X008988Y026671D01*
X008967Y026622D01*
X008942Y026575D01*
X008914Y026531D01*
X008882Y026488D01*
X008848Y026448D01*
X008810Y026410D01*
X008770Y026376D01*
X008727Y026344D01*
X008682Y026316D01*
X008636Y026291D01*
X008587Y026270D01*
X008537Y026252D01*
X008486Y026239D01*
X008434Y026229D01*
X008381Y026223D01*
X008328Y026221D01*
X008275Y026223D01*
X008222Y026229D01*
X008170Y026239D01*
X008119Y026252D01*
X008069Y026270D01*
X008020Y026291D01*
X007973Y026316D01*
X007929Y026344D01*
X007886Y026376D01*
X007846Y026410D01*
X007808Y026448D01*
X007774Y026488D01*
X007742Y026531D01*
X007714Y026576D01*
X007689Y026622D01*
X007668Y026671D01*
X007650Y026721D01*
X007637Y026772D01*
X007627Y026824D01*
X007621Y026877D01*
X007619Y026930D01*
M02*
