%
M48
M72
T01C0.0157
T02C0.0197
T03C0.0236
T04C0.0276
T05C0.0315
T06C0.0320
T07C0.0354
T08C0.0394
T09C0.0400
T10C0.0510
T11C0.0512
T12C0.0520
T13C0.1417
T14C0.1772
%
T01
X10631Y20670
X11025Y21379
X11261Y21694
X11182Y22087
X11025Y22402
X10080Y22087
X9608Y22087
X9608Y21615
X10080Y21615
T02
X5277Y9961
X5277Y11143
X5277Y12324
X5277Y13505
X5277Y14292
X5277Y14686
X5277Y15080
X5277Y15473
X5277Y15867
X5277Y16851
X5277Y17835
X5277Y18229
X5277Y18623
X5277Y19017
X5277Y19410
X5277Y19804
X5277Y20198
X5277Y20985
X5277Y21772
X5277Y22560
X5867Y22560
X6458Y22560
X6458Y23150
X6458Y23741
X6458Y24331
X7245Y24331
X8033Y24331
X8033Y24922
X7049Y23150
X8623Y22678
X9608Y20670
X9470Y19568
X9096Y19568
X8741Y19410
X8741Y19784
X8741Y19017
X10119Y19528
X10986Y20985
X12265Y23347
X11773Y23741
X13052Y23347
X13840Y23347
X13840Y22560
X13840Y21772
X13840Y20985
X13052Y20985
X13052Y20591
X13052Y20198
X13052Y19804
X13052Y19410
X13052Y19017
X13052Y18623
X13052Y18229
X13052Y17442
X13052Y16654
X13052Y16261
X13052Y15867
X13052Y15473
X12364Y14686
X10887Y16457
X10493Y16457
X10100Y16457
X9706Y16457
X8722Y16457
X8328Y16457
X7934Y16457
X7541Y16457
X7639Y9961
X10001Y9961
X12364Y9961
X10592Y5434
X9706Y5040
X9214Y4056
X9608Y3072
X10592Y2678
X11576Y3072
X11970Y4056
X11576Y5040
X16104Y9961
X18663Y9961
X21025Y9961
X21222Y10552
X21222Y11536
X21419Y13505
X20631Y14686
X19076Y13229
X16694Y14292
X16301Y15080
X14726Y15178
X13741Y18426
X10789Y25316
X10001Y25316
X5277Y25709
X5277Y28859
X8426Y32009
X19253Y20198
X21025Y21379
X20828Y22954
X23387Y26103
X23387Y29253
X20238Y32009
X23387Y19410
X21025Y18229
X19253Y18032
X23387Y16261
X23387Y13111
X23387Y9961
X19056Y5040
X19450Y4056
X19056Y3072
X18072Y2678
X17088Y3072
X16694Y4056
X17186Y5040
X18072Y5434
T03
X19509Y12324
X19844Y17442
X17088Y21379
X14726Y21772
T04
X8033Y21379
T05
X11182Y13898
X11182Y13111
T06
X13832Y17048
X14832Y17048
X16875Y16867
X16875Y15867
X17875Y15867
X17875Y16867
X18875Y16867
X18875Y15867
X17875Y14867
T07
X14745Y14231
X14745Y13231
X14745Y12231
X14745Y11231
X14745Y10231
T08
X15710Y18426
X18860Y22954
T09
X8820Y14095
X7820Y14095
T10
X12332Y24891
X14332Y26891
X12332Y28891
X16332Y28891
X16332Y24891
T11
X14785Y6239
X14785Y5239
X14785Y3239
X14785Y2239
T12
X9214Y11930
X7639Y11930
X22600Y22560
T13
X20336Y26930
X8328Y26930
X8328Y7166
X20336Y7166
T14
X18072Y4056
X10592Y4056
M30
