%
M48
M72
T01C0.0157
T02C0.0197
T03C0.0236
T04C0.0315
T05C0.0320
T06C0.0354
T07C0.0394
T08C0.0400
T09C0.0510
T10C0.0512
T11C0.0520
T12C0.1260
T13C0.1772
%
T01
X14332Y17048
X11025Y21379
X11261Y21694
X11182Y22087
X11025Y22402
X10080Y22087
X9608Y22087
X9608Y21615
X10080Y21615
X10631Y20670
T02
X5277Y9961
X5277Y11143
X5277Y12324
X5277Y13505
X5277Y14292
X5277Y14686
X5277Y15080
X5277Y15473
X5277Y15867
X5277Y16851
X5277Y17835
X5277Y18229
X5277Y18623
X5277Y19017
X5277Y19410
X5277Y19804
X5277Y20198
X5277Y21379
X5277Y22560
X6458Y22560
X7049Y23150
X6458Y23741
X7049Y24331
X7836Y24528
X8623Y22678
X8741Y19784
X8741Y19410
X8741Y19017
X9096Y19568
X9470Y19568
X10119Y19528
X10986Y20985
X12344Y23347
X11773Y23741
X13052Y23347
X13840Y23347
X13840Y22560
X13840Y21772
X13840Y20985
X13446Y20985
X13052Y20985
X13052Y20591
X13052Y20198
X13052Y19804
X13052Y19410
X13052Y19017
X13052Y18623
X13741Y18426
X13052Y17442
X13052Y16654
X13052Y16261
X13052Y15867
X13052Y15473
X13052Y15080
X12364Y14686
X10986Y16457
X10592Y16457
X10198Y16457
X9804Y16457
X8623Y16457
X8230Y16457
X7836Y16457
X7442Y16457
X10001Y9961
X12364Y9961
X10592Y5434
X9706Y5040
X9214Y4056
X9608Y3072
X10592Y2678
X11576Y3072
X11970Y4056
X11576Y5040
X16104Y9961
X18663Y9961
X21025Y9961
X21222Y10552
X21222Y11536
X21419Y13505
X20631Y14686
X19076Y13229
X16694Y13898
X16202Y15080
X14726Y15178
X19253Y17639
X21025Y18229
X21025Y19804
X21025Y21379
X20828Y22954
X19253Y20099
X22797Y19902
X22797Y18918
X23387Y16261
X23387Y13111
X23387Y9961
X19056Y5040
X19450Y4056
X19056Y3072
X18072Y2678
X17088Y3072
X16694Y4056
X17186Y5040
X18072Y5434
X10789Y25316
X10001Y25316
X5277Y25709
X5277Y28859
X8426Y32009
X20238Y32009
X23387Y29253
X23387Y26103
T03
X21989Y21550
X19989Y21550
X17088Y21477
X17088Y20887
X14726Y21772
X19989Y17300
X21989Y17300
X19509Y12324
X8083Y21379
T04
X6852Y13898
X6852Y13111
T05
X13832Y17048
X14832Y17048
X16875Y16709
X16875Y15709
X17875Y15709
X17875Y16709
X18875Y16709
X18875Y15709
X17875Y14709
T06
X14745Y14231
X14745Y13231
X14745Y12231
X14745Y11231
X14745Y10231
T07
X15710Y18426
X18860Y22954
T08
X8820Y10552
X7820Y10552
T09
X12332Y24891
X14332Y26891
X12332Y28891
X16332Y28891
X16332Y24891
T10
X14785Y6239
X14785Y5239
X14785Y3239
X14785Y2239
T11
X6064Y10355
X22600Y14686
X22600Y22954
T12
X20336Y26930
X8328Y26930
X8328Y7166
X20336Y7166
T13
X18072Y4056
X10592Y4056
M30
