%
M48
M72
T01C0.0157
T02C0.0197
T03C0.0236
T04C0.0276
T05C0.0320
T06C0.0354
T07C0.0400
T08C0.0510
T09C0.0512
T10C0.0520
T11C0.1417
T12C0.1772
%
T01
X9608Y20394
X10789Y21280
T02
X5277Y10355
X5277Y14292
X4982Y17245
X5080Y20749
X5080Y22166
X6655Y23150
X8230Y22757
X8033Y21143
X8820Y20198
X9115Y20493
X8623Y19804
X8623Y19410
X9411Y16851
X10001Y16851
X10001Y16261
X9411Y16261
X11182Y14686
X11182Y13898
X11970Y10355
X9214Y10355
X10592Y5434
X9706Y5040
X9214Y4056
X9608Y3072
X10592Y2678
X11576Y3072
X11970Y4056
X11576Y5040
X16694Y4056
X17088Y3072
X18072Y2678
X19056Y3072
X19450Y4056
X19056Y5040
X18072Y5434
X17186Y5040
X16694Y10355
X19076Y13229
X20631Y14686
X21419Y13505
X21222Y11536
X21222Y10552
X22600Y10355
X23387Y14686
X21025Y18229
X19253Y18032
X19253Y20198
X21025Y21379
X23387Y22166
X23387Y18623
X16694Y14292
X16301Y15080
X15218Y15080
X12856Y21182
X12265Y21182
X11379Y22068
X11379Y23741
X8426Y32009
X5277Y28859
X20238Y32009
X23387Y28859
T03
X17088Y21379
X14726Y21772
X19844Y17442
X19450Y12324
T04
X14923Y18426
X13052Y15867
X7442Y17639
X5588Y13033
X20828Y22954
T05
X18875Y16867
X17875Y16867
X17875Y15867
X17875Y14867
X18875Y15867
X16875Y15867
X16875Y16867
X14832Y17048
X13832Y17048
T06
X14745Y14231
X14745Y13231
X14745Y12231
X14745Y11231
X14745Y10231
T07
X8426Y13505
X7426Y13505
T08
X12332Y24891
X14332Y26891
X12332Y28891
X16332Y28891
X16332Y24891
T09
X18860Y22954
X16891Y18426
X11084Y15867
X6261Y14883
X14785Y6239
X14785Y5239
X14785Y3239
X14785Y2239
T10
X12954Y18426
X5671Y24922
X22797Y25119
T11
X20336Y26930
X8328Y26930
X8328Y7166
X20336Y7166
T12
X18072Y4056
X10592Y4056
M30
