G75*
%MOIN*%
%OFA0B0*%
%FSLAX24Y24*%
%IPPOS*%
%LPD*%
%AMOC8*
5,1,8,0,0,1.08239X$1,22.5*
%
%ADD10R,0.0552X0.0631*%
%ADD11R,0.0631X0.0552*%
%ADD12R,0.0670X0.0749*%
%ADD13R,0.0591X0.0591*%
%ADD14R,0.1221X0.0434*%
%ADD15R,0.0512X0.0631*%
%ADD16R,0.0631X0.0512*%
%ADD17R,0.0160X0.0360*%
%ADD18R,0.0360X0.0160*%
%ADD19R,0.0985X0.0985*%
%ADD20C,0.0808*%
%ADD21C,0.0516*%
%ADD22C,0.0820*%
%ADD23R,0.0906X0.0276*%
%ADD24R,0.0591X0.1221*%
%ADD25C,0.0000*%
%ADD26C,0.1457*%
%ADD27C,0.3583*%
%ADD28C,0.0805*%
%ADD29R,0.0780X0.0780*%
%ADD30C,0.0780*%
%ADD31OC8,0.0700*%
%ADD32OC8,0.0560*%
%ADD33R,0.1040X0.1040*%
%ADD34C,0.0594*%
%ADD35C,0.0357*%
%ADD36C,0.0396*%
%ADD37C,0.0317*%
%ADD38C,0.0453*%
D10*
X007856Y016064D03*
X007856Y016851D03*
X008604Y016851D03*
X008604Y016064D03*
X007423Y022560D03*
X006675Y022560D03*
X006675Y023741D03*
X007423Y023741D03*
X020651Y017442D03*
X021399Y017442D03*
D11*
X018663Y017855D03*
X018663Y018603D03*
X017875Y018603D03*
X017875Y017855D03*
X017088Y019430D03*
X017088Y020178D03*
X016301Y020178D03*
X016301Y019430D03*
X015513Y019430D03*
X015513Y020178D03*
X015513Y021005D03*
X015513Y021753D03*
X016301Y021753D03*
X016301Y021005D03*
X017088Y022186D03*
X017088Y022934D03*
X017875Y022973D03*
X017875Y023721D03*
X016301Y023721D03*
X016301Y022973D03*
X010789Y023761D03*
X010789Y024509D03*
X008230Y024509D03*
X008230Y023761D03*
X005867Y021753D03*
X005867Y021005D03*
X008623Y018603D03*
X008623Y017855D03*
X009411Y018249D03*
X009411Y018997D03*
X013741Y015060D03*
X013741Y014312D03*
X013741Y013288D03*
X013741Y012540D03*
D12*
X012127Y017245D03*
X011025Y017245D03*
X011025Y019607D03*
X011025Y020493D03*
X012127Y020493D03*
X012127Y019607D03*
X006222Y019312D03*
X006222Y018426D03*
X005119Y018426D03*
X005119Y019312D03*
X005119Y016064D03*
X006222Y016064D03*
D13*
X005907Y020198D03*
X007403Y020198D03*
X011379Y021418D03*
X011379Y022914D03*
D14*
X012560Y022560D03*
X012560Y021772D03*
X011281Y018820D03*
X011281Y018032D03*
X007442Y018623D03*
X007442Y019410D03*
X005966Y017639D03*
X005966Y016851D03*
D15*
X009391Y019804D03*
X010218Y019804D03*
X013919Y015867D03*
X014745Y015867D03*
X019824Y011536D03*
X019824Y010552D03*
X020651Y010552D03*
X020651Y011536D03*
D16*
X018663Y020572D03*
X018663Y021398D03*
X017875Y021398D03*
X017875Y020572D03*
X010001Y023721D03*
X010001Y024548D03*
X009017Y024548D03*
X009017Y023721D03*
X007442Y021792D03*
X006655Y021792D03*
X006655Y020965D03*
X007442Y020965D03*
D17*
X008960Y021063D03*
X009150Y021063D03*
X009350Y021063D03*
X009550Y021063D03*
X009750Y021063D03*
X009940Y021063D03*
X009940Y022623D03*
X009750Y022623D03*
X009550Y022623D03*
X009350Y022623D03*
X009150Y022623D03*
X008960Y022623D03*
D18*
X008670Y022333D03*
X008670Y022143D03*
X008670Y021943D03*
X008670Y021743D03*
X008670Y021543D03*
X008670Y021353D03*
X010230Y021353D03*
X010230Y021543D03*
X010230Y021743D03*
X010230Y021943D03*
X010230Y022143D03*
X010230Y022333D03*
D19*
X009450Y021833D03*
D20*
X011084Y015867D03*
X006261Y014883D03*
X014785Y006239D03*
X014785Y005239D03*
X014785Y003239D03*
X014785Y002239D03*
X016891Y018426D03*
X018860Y022954D03*
D21*
X020828Y022954D03*
X014923Y018426D03*
X013052Y015867D03*
X005588Y013033D03*
D22*
X012954Y018426D03*
X005671Y024922D03*
X022797Y024331D03*
D23*
X022049Y021304D03*
X022049Y020804D03*
X022049Y020304D03*
X022049Y019804D03*
X022049Y019304D03*
X022049Y018804D03*
X022049Y018304D03*
X020001Y018304D03*
X020001Y018804D03*
X020001Y019304D03*
X020001Y019804D03*
X020001Y020304D03*
X020001Y020804D03*
X020001Y021304D03*
D24*
X011182Y012087D03*
X011182Y010198D03*
X006458Y010198D03*
X006458Y012087D03*
D25*
X005966Y004351D02*
X004489Y004351D01*
X004489Y029745D01*
X005966Y029745D01*
X006043Y029747D01*
X006120Y029753D01*
X006197Y029762D01*
X006273Y029775D01*
X006349Y029792D01*
X006423Y029813D01*
X006497Y029837D01*
X006569Y029865D01*
X006639Y029896D01*
X006708Y029931D01*
X006776Y029969D01*
X006841Y030010D01*
X006904Y030055D01*
X006965Y030103D01*
X007024Y030153D01*
X007080Y030206D01*
X007133Y030262D01*
X007183Y030321D01*
X007231Y030382D01*
X007276Y030445D01*
X007317Y030510D01*
X007355Y030578D01*
X007390Y030647D01*
X007421Y030717D01*
X007449Y030789D01*
X007473Y030863D01*
X007494Y030937D01*
X007511Y031013D01*
X007524Y031089D01*
X007533Y031166D01*
X007539Y031243D01*
X007541Y031320D01*
X007541Y032796D01*
X021123Y032796D01*
X021123Y031320D01*
X021125Y031243D01*
X021131Y031166D01*
X021140Y031089D01*
X021153Y031013D01*
X021170Y030937D01*
X021191Y030863D01*
X021215Y030789D01*
X021243Y030717D01*
X021274Y030647D01*
X021309Y030578D01*
X021347Y030510D01*
X021388Y030445D01*
X021433Y030382D01*
X021481Y030321D01*
X021531Y030262D01*
X021584Y030206D01*
X021640Y030153D01*
X021699Y030103D01*
X021760Y030055D01*
X021823Y030010D01*
X021888Y029969D01*
X021956Y029931D01*
X022025Y029896D01*
X022095Y029865D01*
X022167Y029837D01*
X022241Y029813D01*
X022315Y029792D01*
X022391Y029775D01*
X022467Y029762D01*
X022544Y029753D01*
X022621Y029747D01*
X022698Y029745D01*
X024175Y029745D01*
X024175Y004351D01*
X022698Y004351D01*
X022621Y004349D01*
X022544Y004343D01*
X022467Y004334D01*
X022391Y004321D01*
X022315Y004304D01*
X022241Y004283D01*
X022167Y004259D01*
X022095Y004231D01*
X022025Y004200D01*
X021956Y004165D01*
X021888Y004127D01*
X021823Y004086D01*
X021760Y004041D01*
X021699Y003993D01*
X021640Y003943D01*
X021584Y003890D01*
X021531Y003834D01*
X021481Y003775D01*
X021433Y003714D01*
X021388Y003651D01*
X021347Y003586D01*
X021309Y003518D01*
X021274Y003449D01*
X021243Y003379D01*
X021215Y003307D01*
X021191Y003233D01*
X021170Y003159D01*
X021153Y003083D01*
X021140Y003007D01*
X021131Y002930D01*
X021125Y002853D01*
X021123Y002776D01*
X021123Y001300D01*
X007541Y001300D01*
X007541Y002776D01*
X007539Y002853D01*
X007533Y002930D01*
X007524Y003007D01*
X007511Y003083D01*
X007494Y003159D01*
X007473Y003233D01*
X007449Y003307D01*
X007421Y003379D01*
X007390Y003449D01*
X007355Y003518D01*
X007317Y003586D01*
X007276Y003651D01*
X007231Y003714D01*
X007183Y003775D01*
X007133Y003834D01*
X007080Y003890D01*
X007024Y003943D01*
X006965Y003993D01*
X006904Y004041D01*
X006841Y004086D01*
X006776Y004127D01*
X006708Y004165D01*
X006639Y004200D01*
X006569Y004231D01*
X006497Y004259D01*
X006423Y004283D01*
X006349Y004304D01*
X006273Y004321D01*
X006197Y004334D01*
X006120Y004343D01*
X006043Y004349D01*
X005966Y004351D01*
X007619Y007166D02*
X007621Y007219D01*
X007627Y007272D01*
X007637Y007324D01*
X007650Y007375D01*
X007668Y007425D01*
X007689Y007474D01*
X007714Y007521D01*
X007742Y007565D01*
X007774Y007608D01*
X007808Y007648D01*
X007846Y007686D01*
X007886Y007720D01*
X007929Y007752D01*
X007974Y007780D01*
X008020Y007805D01*
X008069Y007826D01*
X008119Y007844D01*
X008170Y007857D01*
X008222Y007867D01*
X008275Y007873D01*
X008328Y007875D01*
X008381Y007873D01*
X008434Y007867D01*
X008486Y007857D01*
X008537Y007844D01*
X008587Y007826D01*
X008636Y007805D01*
X008683Y007780D01*
X008727Y007752D01*
X008770Y007720D01*
X008810Y007686D01*
X008848Y007648D01*
X008882Y007608D01*
X008914Y007565D01*
X008942Y007520D01*
X008967Y007474D01*
X008988Y007425D01*
X009006Y007375D01*
X009019Y007324D01*
X009029Y007272D01*
X009035Y007219D01*
X009037Y007166D01*
X009035Y007113D01*
X009029Y007060D01*
X009019Y007008D01*
X009006Y006957D01*
X008988Y006907D01*
X008967Y006858D01*
X008942Y006811D01*
X008914Y006767D01*
X008882Y006724D01*
X008848Y006684D01*
X008810Y006646D01*
X008770Y006612D01*
X008727Y006580D01*
X008682Y006552D01*
X008636Y006527D01*
X008587Y006506D01*
X008537Y006488D01*
X008486Y006475D01*
X008434Y006465D01*
X008381Y006459D01*
X008328Y006457D01*
X008275Y006459D01*
X008222Y006465D01*
X008170Y006475D01*
X008119Y006488D01*
X008069Y006506D01*
X008020Y006527D01*
X007973Y006552D01*
X007929Y006580D01*
X007886Y006612D01*
X007846Y006646D01*
X007808Y006684D01*
X007774Y006724D01*
X007742Y006767D01*
X007714Y006812D01*
X007689Y006858D01*
X007668Y006907D01*
X007650Y006957D01*
X007637Y007008D01*
X007627Y007060D01*
X007621Y007113D01*
X007619Y007166D01*
X019627Y007166D02*
X019629Y007219D01*
X019635Y007272D01*
X019645Y007324D01*
X019658Y007375D01*
X019676Y007425D01*
X019697Y007474D01*
X019722Y007521D01*
X019750Y007565D01*
X019782Y007608D01*
X019816Y007648D01*
X019854Y007686D01*
X019894Y007720D01*
X019937Y007752D01*
X019982Y007780D01*
X020028Y007805D01*
X020077Y007826D01*
X020127Y007844D01*
X020178Y007857D01*
X020230Y007867D01*
X020283Y007873D01*
X020336Y007875D01*
X020389Y007873D01*
X020442Y007867D01*
X020494Y007857D01*
X020545Y007844D01*
X020595Y007826D01*
X020644Y007805D01*
X020691Y007780D01*
X020735Y007752D01*
X020778Y007720D01*
X020818Y007686D01*
X020856Y007648D01*
X020890Y007608D01*
X020922Y007565D01*
X020950Y007520D01*
X020975Y007474D01*
X020996Y007425D01*
X021014Y007375D01*
X021027Y007324D01*
X021037Y007272D01*
X021043Y007219D01*
X021045Y007166D01*
X021043Y007113D01*
X021037Y007060D01*
X021027Y007008D01*
X021014Y006957D01*
X020996Y006907D01*
X020975Y006858D01*
X020950Y006811D01*
X020922Y006767D01*
X020890Y006724D01*
X020856Y006684D01*
X020818Y006646D01*
X020778Y006612D01*
X020735Y006580D01*
X020690Y006552D01*
X020644Y006527D01*
X020595Y006506D01*
X020545Y006488D01*
X020494Y006475D01*
X020442Y006465D01*
X020389Y006459D01*
X020336Y006457D01*
X020283Y006459D01*
X020230Y006465D01*
X020178Y006475D01*
X020127Y006488D01*
X020077Y006506D01*
X020028Y006527D01*
X019981Y006552D01*
X019937Y006580D01*
X019894Y006612D01*
X019854Y006646D01*
X019816Y006684D01*
X019782Y006724D01*
X019750Y006767D01*
X019722Y006812D01*
X019697Y006858D01*
X019676Y006907D01*
X019658Y006957D01*
X019645Y007008D01*
X019635Y007060D01*
X019629Y007113D01*
X019627Y007166D01*
X019627Y026930D02*
X019629Y026983D01*
X019635Y027036D01*
X019645Y027088D01*
X019658Y027139D01*
X019676Y027189D01*
X019697Y027238D01*
X019722Y027285D01*
X019750Y027329D01*
X019782Y027372D01*
X019816Y027412D01*
X019854Y027450D01*
X019894Y027484D01*
X019937Y027516D01*
X019982Y027544D01*
X020028Y027569D01*
X020077Y027590D01*
X020127Y027608D01*
X020178Y027621D01*
X020230Y027631D01*
X020283Y027637D01*
X020336Y027639D01*
X020389Y027637D01*
X020442Y027631D01*
X020494Y027621D01*
X020545Y027608D01*
X020595Y027590D01*
X020644Y027569D01*
X020691Y027544D01*
X020735Y027516D01*
X020778Y027484D01*
X020818Y027450D01*
X020856Y027412D01*
X020890Y027372D01*
X020922Y027329D01*
X020950Y027284D01*
X020975Y027238D01*
X020996Y027189D01*
X021014Y027139D01*
X021027Y027088D01*
X021037Y027036D01*
X021043Y026983D01*
X021045Y026930D01*
X021043Y026877D01*
X021037Y026824D01*
X021027Y026772D01*
X021014Y026721D01*
X020996Y026671D01*
X020975Y026622D01*
X020950Y026575D01*
X020922Y026531D01*
X020890Y026488D01*
X020856Y026448D01*
X020818Y026410D01*
X020778Y026376D01*
X020735Y026344D01*
X020690Y026316D01*
X020644Y026291D01*
X020595Y026270D01*
X020545Y026252D01*
X020494Y026239D01*
X020442Y026229D01*
X020389Y026223D01*
X020336Y026221D01*
X020283Y026223D01*
X020230Y026229D01*
X020178Y026239D01*
X020127Y026252D01*
X020077Y026270D01*
X020028Y026291D01*
X019981Y026316D01*
X019937Y026344D01*
X019894Y026376D01*
X019854Y026410D01*
X019816Y026448D01*
X019782Y026488D01*
X019750Y026531D01*
X019722Y026576D01*
X019697Y026622D01*
X019676Y026671D01*
X019658Y026721D01*
X019645Y026772D01*
X019635Y026824D01*
X019629Y026877D01*
X019627Y026930D01*
X007619Y026930D02*
X007621Y026983D01*
X007627Y027036D01*
X007637Y027088D01*
X007650Y027139D01*
X007668Y027189D01*
X007689Y027238D01*
X007714Y027285D01*
X007742Y027329D01*
X007774Y027372D01*
X007808Y027412D01*
X007846Y027450D01*
X007886Y027484D01*
X007929Y027516D01*
X007974Y027544D01*
X008020Y027569D01*
X008069Y027590D01*
X008119Y027608D01*
X008170Y027621D01*
X008222Y027631D01*
X008275Y027637D01*
X008328Y027639D01*
X008381Y027637D01*
X008434Y027631D01*
X008486Y027621D01*
X008537Y027608D01*
X008587Y027590D01*
X008636Y027569D01*
X008683Y027544D01*
X008727Y027516D01*
X008770Y027484D01*
X008810Y027450D01*
X008848Y027412D01*
X008882Y027372D01*
X008914Y027329D01*
X008942Y027284D01*
X008967Y027238D01*
X008988Y027189D01*
X009006Y027139D01*
X009019Y027088D01*
X009029Y027036D01*
X009035Y026983D01*
X009037Y026930D01*
X009035Y026877D01*
X009029Y026824D01*
X009019Y026772D01*
X009006Y026721D01*
X008988Y026671D01*
X008967Y026622D01*
X008942Y026575D01*
X008914Y026531D01*
X008882Y026488D01*
X008848Y026448D01*
X008810Y026410D01*
X008770Y026376D01*
X008727Y026344D01*
X008682Y026316D01*
X008636Y026291D01*
X008587Y026270D01*
X008537Y026252D01*
X008486Y026239D01*
X008434Y026229D01*
X008381Y026223D01*
X008328Y026221D01*
X008275Y026223D01*
X008222Y026229D01*
X008170Y026239D01*
X008119Y026252D01*
X008069Y026270D01*
X008020Y026291D01*
X007973Y026316D01*
X007929Y026344D01*
X007886Y026376D01*
X007846Y026410D01*
X007808Y026448D01*
X007774Y026488D01*
X007742Y026531D01*
X007714Y026576D01*
X007689Y026622D01*
X007668Y026671D01*
X007650Y026721D01*
X007637Y026772D01*
X007627Y026824D01*
X007621Y026877D01*
X007619Y026930D01*
D26*
X008328Y026930D03*
X020336Y026930D03*
X020336Y007166D03*
X008328Y007166D03*
D27*
X010592Y004056D03*
X018072Y004056D03*
D28*
X016332Y024891D03*
X014332Y026891D03*
X012332Y028891D03*
X012332Y024891D03*
X016332Y028891D03*
D29*
X008426Y013505D03*
D30*
X007426Y013505D03*
D31*
X016875Y015867D03*
X016875Y016867D03*
X017875Y016867D03*
X017875Y015867D03*
X017875Y014867D03*
X018875Y015867D03*
X018875Y016867D03*
D32*
X014832Y017048D03*
X013832Y017048D03*
D33*
X009351Y014883D03*
X007501Y014883D03*
D34*
X014745Y014231D03*
X014745Y013231D03*
X014745Y012231D03*
X014745Y011231D03*
X014745Y010231D03*
D35*
X011182Y013898D03*
X011182Y014686D03*
X010001Y016261D03*
X010001Y016851D03*
X009411Y016851D03*
X009411Y016261D03*
X008623Y019410D03*
X008623Y019804D03*
X008820Y020198D03*
X009115Y020493D03*
X008033Y021143D03*
X008230Y022757D03*
X006655Y023150D03*
X005080Y022166D03*
X005080Y020749D03*
X004982Y017245D03*
X005277Y014292D03*
X005277Y010355D03*
X009214Y010355D03*
X015218Y015080D03*
X016301Y015080D03*
X020631Y014686D03*
X021419Y013505D03*
X012856Y021182D03*
X012265Y021182D03*
X011379Y022068D03*
X011379Y023741D03*
D36*
X014726Y021772D03*
X017088Y021379D03*
X019844Y017442D03*
X019450Y012324D03*
D37*
X010789Y021280D03*
X009608Y020394D03*
D38*
X007442Y017639D03*
M02*
