G75*
%MOIN*%
%OFA0B0*%
%FSLAX24Y24*%
%IPPOS*%
%LPD*%
%AMOC8*
5,1,8,0,0,1.08239X$1,22.5*
%
%ADD10C,0.0060*%
%ADD11C,0.0080*%
%ADD12C,0.0110*%
%ADD13C,0.0315*%
%ADD14C,0.0118*%
%ADD15R,0.0118X0.0059*%
%ADD16R,0.0118X0.0118*%
%ADD17C,0.0050*%
%ADD18C,0.0000*%
%ADD19C,0.0070*%
D10*
X023057Y010555D02*
X023284Y010555D01*
X023426Y010499D02*
X023539Y010385D01*
X023652Y010499D01*
X023652Y010725D01*
X023426Y010725D02*
X023426Y010499D01*
X023539Y011369D02*
X023426Y011483D01*
X023426Y011710D01*
X023284Y011540D02*
X023057Y011540D01*
X023171Y011653D02*
X023171Y011426D01*
X023539Y011369D02*
X023652Y011483D01*
X023652Y011710D01*
D11*
X022480Y015907D02*
X022320Y015907D01*
X022239Y015987D01*
X022239Y016307D01*
X022320Y016387D01*
X022480Y016387D01*
X022560Y016307D01*
X022560Y015987D01*
X022480Y015907D01*
X022044Y016147D02*
X021884Y016147D01*
X021964Y016307D02*
X021884Y016387D01*
X021964Y016307D02*
X021964Y015907D01*
X021620Y015907D02*
X021620Y016307D01*
X021540Y016387D01*
X021540Y016147D02*
X021700Y016147D01*
X021357Y016147D02*
X021276Y016227D01*
X021036Y016227D01*
X021116Y016067D02*
X021276Y016067D01*
X021357Y016147D01*
X021357Y015907D02*
X021116Y015907D01*
X021036Y015987D01*
X021116Y016067D01*
X020841Y016067D02*
X020521Y016067D01*
X020521Y016147D01*
X020601Y016227D01*
X020761Y016227D01*
X020841Y016147D01*
X020841Y015987D01*
X020761Y015907D01*
X020601Y015907D01*
X020245Y015987D02*
X020245Y016307D01*
X020325Y016227D02*
X020165Y016227D01*
X020245Y015987D02*
X020165Y015907D01*
X017835Y008120D02*
X017675Y008120D01*
X017755Y008120D02*
X017755Y007639D01*
X017835Y007639D02*
X017675Y007639D01*
X017492Y007719D02*
X017492Y007879D01*
X017411Y007959D01*
X017251Y007959D01*
X017171Y007879D01*
X017171Y007719D01*
X017251Y007639D01*
X017411Y007639D01*
X017492Y007719D01*
X016976Y007719D02*
X016896Y007639D01*
X016656Y007639D01*
X016656Y007959D01*
X016460Y007959D02*
X016300Y007959D01*
X016380Y008040D02*
X016380Y007719D01*
X016300Y007639D01*
X016976Y007719D02*
X016976Y007959D01*
X011930Y008120D02*
X011770Y008120D01*
X011850Y008120D02*
X011850Y007639D01*
X011930Y007639D02*
X011770Y007639D01*
X011586Y007639D02*
X011426Y007639D01*
X011506Y007639D02*
X011506Y007959D01*
X011586Y007959D01*
X011506Y008120D02*
X011506Y008200D01*
X011242Y007959D02*
X011242Y007639D01*
X010922Y007639D02*
X010922Y007879D01*
X011002Y007959D01*
X011242Y007959D01*
X008555Y011552D02*
X008235Y011552D01*
X007524Y011552D02*
X007204Y011552D01*
X007364Y011712D02*
X007364Y011392D01*
X006632Y016456D02*
X006632Y016876D01*
X006422Y016876D01*
X006351Y016806D01*
X006351Y016666D01*
X006422Y016596D01*
X006632Y016596D01*
X006812Y016596D02*
X006812Y016806D01*
X006882Y016876D01*
X007092Y016876D01*
X007092Y016596D01*
X007259Y016596D02*
X007399Y016596D01*
X007329Y016596D02*
X007329Y016876D01*
X007399Y016876D01*
X007329Y017016D02*
X007329Y017086D01*
X008040Y017016D02*
X008040Y016736D01*
X008180Y016596D01*
X008320Y016736D01*
X008320Y017016D01*
X008500Y017016D02*
X008780Y017016D01*
X008780Y016806D01*
X008640Y016876D01*
X008570Y016876D01*
X008500Y016806D01*
X008500Y016666D01*
X008570Y016596D01*
X008710Y016596D01*
X008780Y016666D01*
X006171Y016666D02*
X006101Y016596D01*
X005891Y016596D01*
X005891Y016876D01*
X005711Y016876D02*
X005571Y016876D01*
X005641Y016946D02*
X005641Y016666D01*
X005571Y016596D01*
X006171Y016666D02*
X006171Y016876D01*
D12*
X009335Y019072D02*
X009335Y019170D01*
X009335Y019367D02*
X009335Y019760D01*
X009586Y019465D02*
X009882Y019465D01*
X009980Y019367D01*
X009882Y019268D01*
X009685Y019268D01*
X009586Y019170D01*
X009685Y019072D01*
X009980Y019072D01*
X010213Y019072D02*
X010410Y019072D01*
X010311Y019072D02*
X010311Y019662D01*
X010410Y019662D01*
X010661Y019367D02*
X010759Y019465D01*
X010956Y019465D01*
X011054Y019367D01*
X011054Y019170D01*
X010956Y019072D01*
X010759Y019072D01*
X010661Y019170D01*
X010661Y019367D01*
X011305Y019367D02*
X011404Y019465D01*
X011600Y019465D01*
X011699Y019367D01*
X011699Y019170D01*
X011600Y019072D01*
X011404Y019072D01*
X011305Y019170D01*
X011305Y019367D01*
X011932Y019465D02*
X012129Y019465D01*
X012030Y019564D02*
X012030Y019170D01*
X011932Y019072D01*
X013024Y019072D02*
X013319Y019072D01*
X013418Y019170D01*
X013418Y019367D01*
X013319Y019465D01*
X013024Y019465D01*
X013749Y019465D02*
X013749Y019072D01*
X013847Y019072D02*
X013650Y019072D01*
X013749Y019465D02*
X013847Y019465D01*
X013749Y019662D02*
X013749Y019760D01*
X014080Y019465D02*
X014277Y019465D01*
X014179Y019564D02*
X014179Y019170D01*
X014080Y019072D01*
X014528Y019268D02*
X014922Y019268D01*
X014922Y019170D02*
X014922Y019367D01*
X014823Y019465D01*
X014626Y019465D01*
X014528Y019367D01*
X014528Y019268D01*
X014626Y019072D02*
X014823Y019072D01*
X014922Y019170D01*
X015172Y019072D02*
X015172Y019367D01*
X015271Y019465D01*
X015566Y019465D01*
X015566Y019072D01*
X015817Y019072D02*
X016112Y019072D01*
X016211Y019170D01*
X016211Y019367D01*
X016112Y019465D01*
X015817Y019465D01*
X015817Y018973D01*
X015915Y018875D01*
X016014Y018875D01*
X016462Y019072D02*
X016757Y019072D01*
X016855Y019170D01*
X016757Y019268D01*
X016462Y019268D01*
X016462Y019367D02*
X016462Y019072D01*
X016462Y019367D02*
X016560Y019465D01*
X016757Y019465D01*
X017106Y019367D02*
X017106Y019072D01*
X017303Y019072D02*
X017303Y019367D01*
X017205Y019465D01*
X017106Y019367D01*
X017303Y019367D02*
X017401Y019465D01*
X017500Y019465D01*
X017500Y019072D01*
X018395Y019170D02*
X018395Y019367D01*
X018494Y019465D01*
X018690Y019465D01*
X018789Y019367D01*
X018789Y019170D01*
X018690Y019072D01*
X018494Y019072D01*
X018395Y019170D01*
X019040Y019072D02*
X019040Y019662D01*
X019433Y019662D02*
X019040Y019072D01*
X019433Y019072D02*
X019433Y019662D01*
D13*
X015119Y022166D02*
X013938Y021379D01*
X011548Y022954D02*
X011550Y023059D01*
X011556Y023165D01*
X011566Y023269D01*
X011580Y023374D01*
X011598Y023478D01*
X011619Y023581D01*
X011645Y023683D01*
X011675Y023784D01*
X011708Y023884D01*
X011745Y023983D01*
X011786Y024080D01*
X011830Y024175D01*
X011878Y024269D01*
X011930Y024361D01*
X011985Y024451D01*
X012043Y024539D01*
X012105Y024624D01*
X012170Y024707D01*
X012237Y024788D01*
X012308Y024866D01*
X012382Y024941D01*
X012459Y025013D01*
X012538Y025083D01*
X012620Y025149D01*
X012704Y025212D01*
X012791Y025272D01*
X012880Y025329D01*
X012971Y025382D01*
X013063Y025432D01*
X013158Y025478D01*
X013254Y025521D01*
X013352Y025560D01*
X013452Y025595D01*
X013552Y025627D01*
X013654Y025654D01*
X013757Y025678D01*
X013860Y025698D01*
X013964Y025714D01*
X014069Y025726D01*
X014174Y025734D01*
X014279Y025738D01*
X014385Y025738D01*
X014490Y025734D01*
X014595Y025726D01*
X014700Y025714D01*
X014804Y025698D01*
X014907Y025678D01*
X015010Y025654D01*
X015112Y025627D01*
X015212Y025595D01*
X015312Y025560D01*
X015410Y025521D01*
X015506Y025478D01*
X015601Y025432D01*
X015693Y025382D01*
X015784Y025329D01*
X015873Y025272D01*
X015960Y025212D01*
X016044Y025149D01*
X016126Y025083D01*
X016205Y025013D01*
X016282Y024941D01*
X016356Y024866D01*
X016427Y024788D01*
X016494Y024707D01*
X016559Y024624D01*
X016621Y024539D01*
X016679Y024451D01*
X016734Y024361D01*
X016786Y024269D01*
X016834Y024175D01*
X016878Y024080D01*
X016919Y023983D01*
X016956Y023884D01*
X016989Y023784D01*
X017019Y023683D01*
X017045Y023581D01*
X017066Y023478D01*
X017084Y023374D01*
X017098Y023269D01*
X017108Y023165D01*
X017114Y023059D01*
X017116Y022954D01*
X017114Y022849D01*
X017108Y022743D01*
X017098Y022639D01*
X017084Y022534D01*
X017066Y022430D01*
X017045Y022327D01*
X017019Y022225D01*
X016989Y022124D01*
X016956Y022024D01*
X016919Y021925D01*
X016878Y021828D01*
X016834Y021733D01*
X016786Y021639D01*
X016734Y021547D01*
X016679Y021457D01*
X016621Y021369D01*
X016559Y021284D01*
X016494Y021201D01*
X016427Y021120D01*
X016356Y021042D01*
X016282Y020967D01*
X016205Y020895D01*
X016126Y020825D01*
X016044Y020759D01*
X015960Y020696D01*
X015873Y020636D01*
X015784Y020579D01*
X015693Y020526D01*
X015601Y020476D01*
X015506Y020430D01*
X015410Y020387D01*
X015312Y020348D01*
X015212Y020313D01*
X015112Y020281D01*
X015010Y020254D01*
X014907Y020230D01*
X014804Y020210D01*
X014700Y020194D01*
X014595Y020182D01*
X014490Y020174D01*
X014385Y020170D01*
X014279Y020170D01*
X014174Y020174D01*
X014069Y020182D01*
X013964Y020194D01*
X013860Y020210D01*
X013757Y020230D01*
X013654Y020254D01*
X013552Y020281D01*
X013452Y020313D01*
X013352Y020348D01*
X013254Y020387D01*
X013158Y020430D01*
X013063Y020476D01*
X012971Y020526D01*
X012880Y020579D01*
X012791Y020636D01*
X012704Y020696D01*
X012620Y020759D01*
X012538Y020825D01*
X012459Y020895D01*
X012382Y020967D01*
X012308Y021042D01*
X012237Y021120D01*
X012170Y021201D01*
X012105Y021284D01*
X012043Y021369D01*
X011985Y021457D01*
X011930Y021547D01*
X011878Y021639D01*
X011830Y021733D01*
X011786Y021828D01*
X011745Y021925D01*
X011708Y022024D01*
X011675Y022124D01*
X011645Y022225D01*
X011619Y022327D01*
X011598Y022430D01*
X011580Y022534D01*
X011566Y022639D01*
X011556Y022743D01*
X011550Y022849D01*
X011548Y022954D01*
X012757Y022560D02*
X013545Y023741D01*
X013581Y023797D01*
X013620Y023852D01*
X013663Y023904D01*
X013709Y023953D01*
X013757Y024000D01*
X013808Y024043D01*
X013862Y024084D01*
X013917Y024122D01*
X013975Y024156D01*
X014035Y024186D01*
X014097Y024214D01*
X014160Y024237D01*
X014224Y024257D01*
X014289Y024273D01*
X014355Y024285D01*
X014422Y024293D01*
X014489Y024297D01*
X014556Y024298D01*
X014624Y024294D01*
X014690Y024287D01*
X014757Y024275D01*
X014822Y024260D01*
X014887Y024241D01*
X014950Y024218D01*
X015012Y024192D01*
X015072Y024162D01*
X015130Y024128D01*
X015186Y024091D01*
X015240Y024051D01*
X015292Y024008D01*
X015341Y023962D01*
X015387Y023913D01*
X015430Y023861D01*
X015470Y023807D01*
X015507Y023751D01*
X015541Y023693D01*
X015571Y023633D01*
X015597Y023571D01*
X015620Y023508D01*
X015639Y023443D01*
X015654Y023378D01*
X015666Y023311D01*
X015673Y023245D01*
X015677Y023177D01*
X015676Y023110D01*
X015672Y023043D01*
X015664Y022976D01*
X015652Y022910D01*
X015636Y022845D01*
X015616Y022781D01*
X015593Y022718D01*
X015565Y022656D01*
X015535Y022596D01*
X015501Y022538D01*
X015463Y022483D01*
X015422Y022429D01*
X015379Y022378D01*
X015332Y022330D01*
X015283Y022284D01*
X015231Y022241D01*
X015176Y022202D01*
X015120Y022166D01*
D14*
X013643Y021772D02*
X013249Y021871D01*
X013348Y022166D01*
X012954Y022265D01*
X012364Y024922D02*
X016301Y020985D01*
D15*
X022265Y011772D03*
X022265Y011300D03*
X022265Y010788D03*
X022265Y010316D03*
D16*
X022265Y010552D03*
X022265Y011536D03*
D17*
X022235Y011177D02*
X022367Y011177D01*
X022367Y010912D01*
X022235Y010912D01*
X022191Y010956D01*
X022191Y011133D01*
X022235Y011177D01*
X022077Y011133D02*
X022033Y011177D01*
X021945Y011177D01*
X021901Y011133D01*
X021901Y011088D01*
X022077Y010912D01*
X021901Y010912D01*
X022481Y010912D02*
X022657Y010912D01*
X022657Y011177D01*
X022657Y010173D02*
X022657Y009908D01*
X022481Y009908D01*
X022367Y009908D02*
X022367Y010173D01*
X022235Y010173D01*
X022191Y010129D01*
X022191Y009952D01*
X022235Y009908D01*
X022367Y009908D01*
X022077Y009952D02*
X022033Y009908D01*
X021945Y009908D01*
X021901Y009952D01*
X021901Y009996D01*
X021945Y010040D01*
X021989Y010040D01*
X021945Y010040D02*
X021901Y010084D01*
X021901Y010129D01*
X021945Y010173D01*
X022033Y010173D01*
X022077Y010129D01*
X015789Y015178D02*
X012875Y015178D01*
X012875Y001398D01*
X015789Y001398D01*
X015789Y015178D01*
X017757Y017942D02*
X017712Y017986D01*
X017712Y018030D01*
X017757Y018075D01*
X017889Y018075D01*
X017889Y017986D01*
X017845Y017942D01*
X017757Y017942D01*
X017889Y018075D02*
X017801Y018163D01*
X017712Y018207D01*
X018091Y018207D02*
X018091Y017942D01*
X018179Y017942D02*
X018002Y017942D01*
X018179Y018119D02*
X018091Y018207D01*
X018292Y018163D02*
X018292Y018075D01*
X018337Y018030D01*
X018469Y018030D01*
X018469Y017942D02*
X018469Y018207D01*
X018337Y018207D01*
X018292Y018163D01*
X018381Y018030D02*
X018292Y017942D01*
X008926Y014705D02*
X008926Y012505D01*
X008426Y012505D01*
X008426Y013005D01*
X007426Y013005D01*
X007426Y012505D01*
X008426Y012505D01*
X007426Y012505D02*
X006926Y012505D01*
X006926Y014705D01*
X008926Y014705D01*
X008751Y014908D02*
X008795Y014952D01*
X008751Y014908D02*
X008707Y014908D01*
X008663Y014952D01*
X008663Y015173D01*
X008707Y015173D02*
X008618Y015173D01*
X008505Y015084D02*
X008417Y015173D01*
X008417Y014908D01*
X008505Y014908D02*
X008328Y014908D01*
D18*
X005966Y004351D02*
X004489Y004351D01*
X004489Y029745D01*
X005966Y029745D01*
X006043Y029747D01*
X006120Y029753D01*
X006197Y029762D01*
X006273Y029775D01*
X006349Y029792D01*
X006423Y029813D01*
X006497Y029837D01*
X006569Y029865D01*
X006639Y029896D01*
X006708Y029931D01*
X006776Y029969D01*
X006841Y030010D01*
X006904Y030055D01*
X006965Y030103D01*
X007024Y030153D01*
X007080Y030206D01*
X007133Y030262D01*
X007183Y030321D01*
X007231Y030382D01*
X007276Y030445D01*
X007317Y030510D01*
X007355Y030578D01*
X007390Y030647D01*
X007421Y030717D01*
X007449Y030789D01*
X007473Y030863D01*
X007494Y030937D01*
X007511Y031013D01*
X007524Y031089D01*
X007533Y031166D01*
X007539Y031243D01*
X007541Y031320D01*
X007541Y032796D01*
X021123Y032796D01*
X021123Y031320D01*
X021125Y031243D01*
X021131Y031166D01*
X021140Y031089D01*
X021153Y031013D01*
X021170Y030937D01*
X021191Y030863D01*
X021215Y030789D01*
X021243Y030717D01*
X021274Y030647D01*
X021309Y030578D01*
X021347Y030510D01*
X021388Y030445D01*
X021433Y030382D01*
X021481Y030321D01*
X021531Y030262D01*
X021584Y030206D01*
X021640Y030153D01*
X021699Y030103D01*
X021760Y030055D01*
X021823Y030010D01*
X021888Y029969D01*
X021956Y029931D01*
X022025Y029896D01*
X022095Y029865D01*
X022167Y029837D01*
X022241Y029813D01*
X022315Y029792D01*
X022391Y029775D01*
X022467Y029762D01*
X022544Y029753D01*
X022621Y029747D01*
X022698Y029745D01*
X024175Y029745D01*
X024175Y004351D01*
X022698Y004351D01*
X022621Y004349D01*
X022544Y004343D01*
X022467Y004334D01*
X022391Y004321D01*
X022315Y004304D01*
X022241Y004283D01*
X022167Y004259D01*
X022095Y004231D01*
X022025Y004200D01*
X021956Y004165D01*
X021888Y004127D01*
X021823Y004086D01*
X021760Y004041D01*
X021699Y003993D01*
X021640Y003943D01*
X021584Y003890D01*
X021531Y003834D01*
X021481Y003775D01*
X021433Y003714D01*
X021388Y003651D01*
X021347Y003586D01*
X021309Y003518D01*
X021274Y003449D01*
X021243Y003379D01*
X021215Y003307D01*
X021191Y003233D01*
X021170Y003159D01*
X021153Y003083D01*
X021140Y003007D01*
X021131Y002930D01*
X021125Y002853D01*
X021123Y002776D01*
X021123Y001300D01*
X007541Y001300D01*
X007541Y002776D01*
X007539Y002853D01*
X007533Y002930D01*
X007524Y003007D01*
X007511Y003083D01*
X007494Y003159D01*
X007473Y003233D01*
X007449Y003307D01*
X007421Y003379D01*
X007390Y003449D01*
X007355Y003518D01*
X007317Y003586D01*
X007276Y003651D01*
X007231Y003714D01*
X007183Y003775D01*
X007133Y003834D01*
X007080Y003890D01*
X007024Y003943D01*
X006965Y003993D01*
X006904Y004041D01*
X006841Y004086D01*
X006776Y004127D01*
X006708Y004165D01*
X006639Y004200D01*
X006569Y004231D01*
X006497Y004259D01*
X006423Y004283D01*
X006349Y004304D01*
X006273Y004321D01*
X006197Y004334D01*
X006120Y004343D01*
X006043Y004349D01*
X005966Y004351D01*
X007619Y007166D02*
X007621Y007219D01*
X007627Y007272D01*
X007637Y007324D01*
X007650Y007375D01*
X007668Y007425D01*
X007689Y007474D01*
X007714Y007521D01*
X007742Y007565D01*
X007774Y007608D01*
X007808Y007648D01*
X007846Y007686D01*
X007886Y007720D01*
X007929Y007752D01*
X007974Y007780D01*
X008020Y007805D01*
X008069Y007826D01*
X008119Y007844D01*
X008170Y007857D01*
X008222Y007867D01*
X008275Y007873D01*
X008328Y007875D01*
X008381Y007873D01*
X008434Y007867D01*
X008486Y007857D01*
X008537Y007844D01*
X008587Y007826D01*
X008636Y007805D01*
X008683Y007780D01*
X008727Y007752D01*
X008770Y007720D01*
X008810Y007686D01*
X008848Y007648D01*
X008882Y007608D01*
X008914Y007565D01*
X008942Y007520D01*
X008967Y007474D01*
X008988Y007425D01*
X009006Y007375D01*
X009019Y007324D01*
X009029Y007272D01*
X009035Y007219D01*
X009037Y007166D01*
X009035Y007113D01*
X009029Y007060D01*
X009019Y007008D01*
X009006Y006957D01*
X008988Y006907D01*
X008967Y006858D01*
X008942Y006811D01*
X008914Y006767D01*
X008882Y006724D01*
X008848Y006684D01*
X008810Y006646D01*
X008770Y006612D01*
X008727Y006580D01*
X008682Y006552D01*
X008636Y006527D01*
X008587Y006506D01*
X008537Y006488D01*
X008486Y006475D01*
X008434Y006465D01*
X008381Y006459D01*
X008328Y006457D01*
X008275Y006459D01*
X008222Y006465D01*
X008170Y006475D01*
X008119Y006488D01*
X008069Y006506D01*
X008020Y006527D01*
X007973Y006552D01*
X007929Y006580D01*
X007886Y006612D01*
X007846Y006646D01*
X007808Y006684D01*
X007774Y006724D01*
X007742Y006767D01*
X007714Y006812D01*
X007689Y006858D01*
X007668Y006907D01*
X007650Y006957D01*
X007637Y007008D01*
X007627Y007060D01*
X007621Y007113D01*
X007619Y007166D01*
X019627Y007166D02*
X019629Y007219D01*
X019635Y007272D01*
X019645Y007324D01*
X019658Y007375D01*
X019676Y007425D01*
X019697Y007474D01*
X019722Y007521D01*
X019750Y007565D01*
X019782Y007608D01*
X019816Y007648D01*
X019854Y007686D01*
X019894Y007720D01*
X019937Y007752D01*
X019982Y007780D01*
X020028Y007805D01*
X020077Y007826D01*
X020127Y007844D01*
X020178Y007857D01*
X020230Y007867D01*
X020283Y007873D01*
X020336Y007875D01*
X020389Y007873D01*
X020442Y007867D01*
X020494Y007857D01*
X020545Y007844D01*
X020595Y007826D01*
X020644Y007805D01*
X020691Y007780D01*
X020735Y007752D01*
X020778Y007720D01*
X020818Y007686D01*
X020856Y007648D01*
X020890Y007608D01*
X020922Y007565D01*
X020950Y007520D01*
X020975Y007474D01*
X020996Y007425D01*
X021014Y007375D01*
X021027Y007324D01*
X021037Y007272D01*
X021043Y007219D01*
X021045Y007166D01*
X021043Y007113D01*
X021037Y007060D01*
X021027Y007008D01*
X021014Y006957D01*
X020996Y006907D01*
X020975Y006858D01*
X020950Y006811D01*
X020922Y006767D01*
X020890Y006724D01*
X020856Y006684D01*
X020818Y006646D01*
X020778Y006612D01*
X020735Y006580D01*
X020690Y006552D01*
X020644Y006527D01*
X020595Y006506D01*
X020545Y006488D01*
X020494Y006475D01*
X020442Y006465D01*
X020389Y006459D01*
X020336Y006457D01*
X020283Y006459D01*
X020230Y006465D01*
X020178Y006475D01*
X020127Y006488D01*
X020077Y006506D01*
X020028Y006527D01*
X019981Y006552D01*
X019937Y006580D01*
X019894Y006612D01*
X019854Y006646D01*
X019816Y006684D01*
X019782Y006724D01*
X019750Y006767D01*
X019722Y006812D01*
X019697Y006858D01*
X019676Y006907D01*
X019658Y006957D01*
X019645Y007008D01*
X019635Y007060D01*
X019629Y007113D01*
X019627Y007166D01*
X019627Y026930D02*
X019629Y026983D01*
X019635Y027036D01*
X019645Y027088D01*
X019658Y027139D01*
X019676Y027189D01*
X019697Y027238D01*
X019722Y027285D01*
X019750Y027329D01*
X019782Y027372D01*
X019816Y027412D01*
X019854Y027450D01*
X019894Y027484D01*
X019937Y027516D01*
X019982Y027544D01*
X020028Y027569D01*
X020077Y027590D01*
X020127Y027608D01*
X020178Y027621D01*
X020230Y027631D01*
X020283Y027637D01*
X020336Y027639D01*
X020389Y027637D01*
X020442Y027631D01*
X020494Y027621D01*
X020545Y027608D01*
X020595Y027590D01*
X020644Y027569D01*
X020691Y027544D01*
X020735Y027516D01*
X020778Y027484D01*
X020818Y027450D01*
X020856Y027412D01*
X020890Y027372D01*
X020922Y027329D01*
X020950Y027284D01*
X020975Y027238D01*
X020996Y027189D01*
X021014Y027139D01*
X021027Y027088D01*
X021037Y027036D01*
X021043Y026983D01*
X021045Y026930D01*
X021043Y026877D01*
X021037Y026824D01*
X021027Y026772D01*
X021014Y026721D01*
X020996Y026671D01*
X020975Y026622D01*
X020950Y026575D01*
X020922Y026531D01*
X020890Y026488D01*
X020856Y026448D01*
X020818Y026410D01*
X020778Y026376D01*
X020735Y026344D01*
X020690Y026316D01*
X020644Y026291D01*
X020595Y026270D01*
X020545Y026252D01*
X020494Y026239D01*
X020442Y026229D01*
X020389Y026223D01*
X020336Y026221D01*
X020283Y026223D01*
X020230Y026229D01*
X020178Y026239D01*
X020127Y026252D01*
X020077Y026270D01*
X020028Y026291D01*
X019981Y026316D01*
X019937Y026344D01*
X019894Y026376D01*
X019854Y026410D01*
X019816Y026448D01*
X019782Y026488D01*
X019750Y026531D01*
X019722Y026576D01*
X019697Y026622D01*
X019676Y026671D01*
X019658Y026721D01*
X019645Y026772D01*
X019635Y026824D01*
X019629Y026877D01*
X019627Y026930D01*
X007619Y026930D02*
X007621Y026983D01*
X007627Y027036D01*
X007637Y027088D01*
X007650Y027139D01*
X007668Y027189D01*
X007689Y027238D01*
X007714Y027285D01*
X007742Y027329D01*
X007774Y027372D01*
X007808Y027412D01*
X007846Y027450D01*
X007886Y027484D01*
X007929Y027516D01*
X007974Y027544D01*
X008020Y027569D01*
X008069Y027590D01*
X008119Y027608D01*
X008170Y027621D01*
X008222Y027631D01*
X008275Y027637D01*
X008328Y027639D01*
X008381Y027637D01*
X008434Y027631D01*
X008486Y027621D01*
X008537Y027608D01*
X008587Y027590D01*
X008636Y027569D01*
X008683Y027544D01*
X008727Y027516D01*
X008770Y027484D01*
X008810Y027450D01*
X008848Y027412D01*
X008882Y027372D01*
X008914Y027329D01*
X008942Y027284D01*
X008967Y027238D01*
X008988Y027189D01*
X009006Y027139D01*
X009019Y027088D01*
X009029Y027036D01*
X009035Y026983D01*
X009037Y026930D01*
X009035Y026877D01*
X009029Y026824D01*
X009019Y026772D01*
X009006Y026721D01*
X008988Y026671D01*
X008967Y026622D01*
X008942Y026575D01*
X008914Y026531D01*
X008882Y026488D01*
X008848Y026448D01*
X008810Y026410D01*
X008770Y026376D01*
X008727Y026344D01*
X008682Y026316D01*
X008636Y026291D01*
X008587Y026270D01*
X008537Y026252D01*
X008486Y026239D01*
X008434Y026229D01*
X008381Y026223D01*
X008328Y026221D01*
X008275Y026223D01*
X008222Y026229D01*
X008170Y026239D01*
X008119Y026252D01*
X008069Y026270D01*
X008020Y026291D01*
X007973Y026316D01*
X007929Y026344D01*
X007886Y026376D01*
X007846Y026410D01*
X007808Y026448D01*
X007774Y026488D01*
X007742Y026531D01*
X007714Y026576D01*
X007689Y026622D01*
X007668Y026671D01*
X007650Y026721D01*
X007637Y026772D01*
X007627Y026824D01*
X007621Y026877D01*
X007619Y026930D01*
D19*
X016025Y017737D02*
X019725Y017737D01*
X019725Y014037D01*
X019375Y014037D01*
X019375Y014242D01*
X016375Y014242D01*
X016375Y014037D01*
X016025Y014037D01*
X016025Y017737D01*
M02*
