G75*
%MOIN*%
%OFA0B0*%
%FSLAX24Y24*%
%IPPOS*%
%LPD*%
%AMOC8*
5,1,8,0,0,1.08239X$1,22.5*
%
%ADD10R,0.0512X0.0591*%
%ADD11R,0.0591X0.0512*%
%ADD12R,0.1181X0.0394*%
%ADD13R,0.0472X0.0591*%
%ADD14R,0.0591X0.0472*%
%ADD15R,0.0120X0.0320*%
%ADD16R,0.0320X0.0120*%
%ADD17R,0.0945X0.0945*%
%ADD18C,0.0780*%
%ADD19R,0.0866X0.0236*%
%ADD20C,0.0000*%
%ADD21C,0.3543*%
%ADD22C,0.0039*%
%ADD23C,0.0765*%
%ADD24C,0.0594*%
%ADD25C,0.0397*%
%ADD26R,0.0740X0.0740*%
%ADD27C,0.0740*%
%ADD28OC8,0.0660*%
%ADD29OC8,0.0520*%
%ADD30C,0.0554*%
%ADD31C,0.0768*%
%ADD32R,0.0236X0.0236*%
%ADD33R,0.0500X0.0579*%
%ADD34R,0.0394X0.0591*%
%ADD35C,0.0100*%
%ADD36C,0.0120*%
%ADD37C,0.0317*%
%ADD38C,0.0160*%
%ADD39C,0.0240*%
%ADD40C,0.0356*%
%ADD41C,0.0157*%
%ADD42C,0.0320*%
%ADD43C,0.0413*%
%ADD44C,0.0277*%
%ADD45C,0.0400*%
%ADD46C,0.0236*%
%ADD47C,0.0118*%
%ADD48C,0.0472*%
D10*
X006084Y015473D03*
X006832Y015473D03*
X006734Y017835D03*
X006734Y018623D03*
X005986Y018623D03*
X005986Y017835D03*
X005986Y019410D03*
X005986Y020198D03*
X006734Y020198D03*
X006734Y019410D03*
X007068Y022560D03*
X007816Y022560D03*
X007816Y023741D03*
X007068Y023741D03*
X009391Y020119D03*
X010139Y020119D03*
X011694Y020198D03*
X011694Y020985D03*
X012442Y020985D03*
X012442Y020198D03*
X012442Y019410D03*
X011694Y019410D03*
X011694Y018623D03*
X012442Y018623D03*
X012442Y016261D03*
X011694Y016261D03*
X020651Y017442D03*
X021399Y017442D03*
D11*
X018663Y017855D03*
X018663Y018603D03*
X017875Y018603D03*
X017875Y017855D03*
X017088Y019430D03*
X017088Y020178D03*
X016301Y020178D03*
X016301Y019430D03*
X015513Y019430D03*
X015513Y020178D03*
X015513Y021005D03*
X015513Y021753D03*
X016301Y021753D03*
X016301Y021005D03*
X017088Y022186D03*
X017088Y022934D03*
X017875Y022973D03*
X017875Y023721D03*
X016301Y023721D03*
X016301Y022973D03*
X011182Y023761D03*
X011182Y024509D03*
X008623Y024509D03*
X008623Y023761D03*
X005867Y021753D03*
X005867Y021005D03*
X007639Y017914D03*
X007639Y017166D03*
X008426Y017166D03*
X008426Y017914D03*
X009312Y018249D03*
X009312Y018997D03*
X010100Y017914D03*
X010100Y017166D03*
X010887Y017166D03*
X010887Y017914D03*
X013741Y015060D03*
X013741Y014312D03*
X013741Y013288D03*
X013741Y012540D03*
D12*
X012068Y017048D03*
X012068Y017835D03*
X012757Y021772D03*
X012757Y022560D03*
X007836Y019509D03*
X007836Y018721D03*
X006458Y017048D03*
X006458Y016261D03*
D13*
X006871Y014686D03*
X006045Y014686D03*
X010100Y018938D03*
X010926Y018938D03*
X011655Y015473D03*
X012482Y015473D03*
X013919Y015867D03*
X014745Y015867D03*
X019824Y011536D03*
X019824Y010552D03*
X020651Y010552D03*
X020651Y011536D03*
D14*
X018663Y020572D03*
X018663Y021398D03*
X017875Y021398D03*
X017875Y020572D03*
X010395Y023721D03*
X010395Y024548D03*
X009411Y024548D03*
X009411Y023721D03*
X007442Y021792D03*
X007442Y020965D03*
X006655Y020965D03*
X006655Y021792D03*
D15*
X009354Y021063D03*
X009544Y021063D03*
X009744Y021063D03*
X009944Y021063D03*
X010144Y021063D03*
X010334Y021063D03*
X010334Y022623D03*
X010144Y022623D03*
X009944Y022623D03*
X009744Y022623D03*
X009544Y022623D03*
X009354Y022623D03*
D16*
X009064Y022333D03*
X009064Y022143D03*
X009064Y021943D03*
X009064Y021743D03*
X009064Y021543D03*
X009064Y021353D03*
X010624Y021353D03*
X010624Y021543D03*
X010624Y021743D03*
X010624Y021943D03*
X010624Y022143D03*
X010624Y022333D03*
D17*
X009844Y021833D03*
D18*
X009214Y011930D03*
X007639Y011930D03*
X022600Y022560D03*
D19*
X022049Y021304D03*
X022049Y020804D03*
X022049Y020304D03*
X022049Y019804D03*
X022049Y019304D03*
X022049Y018804D03*
X022049Y018304D03*
X020001Y018304D03*
X020001Y018804D03*
X020001Y019304D03*
X020001Y019804D03*
X020001Y020304D03*
X020001Y020804D03*
X020001Y021304D03*
D20*
X005966Y004351D02*
X004489Y004351D01*
X004489Y029745D01*
X005966Y029745D01*
X006043Y029747D01*
X006120Y029753D01*
X006197Y029762D01*
X006273Y029775D01*
X006349Y029792D01*
X006423Y029813D01*
X006497Y029837D01*
X006569Y029865D01*
X006639Y029896D01*
X006708Y029931D01*
X006776Y029969D01*
X006841Y030010D01*
X006904Y030055D01*
X006965Y030103D01*
X007024Y030153D01*
X007080Y030206D01*
X007133Y030262D01*
X007183Y030321D01*
X007231Y030382D01*
X007276Y030445D01*
X007317Y030510D01*
X007355Y030578D01*
X007390Y030647D01*
X007421Y030717D01*
X007449Y030789D01*
X007473Y030863D01*
X007494Y030937D01*
X007511Y031013D01*
X007524Y031089D01*
X007533Y031166D01*
X007539Y031243D01*
X007541Y031320D01*
X007541Y032796D01*
X021123Y032796D01*
X021123Y031320D01*
X021125Y031243D01*
X021131Y031166D01*
X021140Y031089D01*
X021153Y031013D01*
X021170Y030937D01*
X021191Y030863D01*
X021215Y030789D01*
X021243Y030717D01*
X021274Y030647D01*
X021309Y030578D01*
X021347Y030510D01*
X021388Y030445D01*
X021433Y030382D01*
X021481Y030321D01*
X021531Y030262D01*
X021584Y030206D01*
X021640Y030153D01*
X021699Y030103D01*
X021760Y030055D01*
X021823Y030010D01*
X021888Y029969D01*
X021956Y029931D01*
X022025Y029896D01*
X022095Y029865D01*
X022167Y029837D01*
X022241Y029813D01*
X022315Y029792D01*
X022391Y029775D01*
X022467Y029762D01*
X022544Y029753D01*
X022621Y029747D01*
X022698Y029745D01*
X024175Y029745D01*
X024175Y004351D01*
X022698Y004351D01*
X022621Y004349D01*
X022544Y004343D01*
X022467Y004334D01*
X022391Y004321D01*
X022315Y004304D01*
X022241Y004283D01*
X022167Y004259D01*
X022095Y004231D01*
X022025Y004200D01*
X021956Y004165D01*
X021888Y004127D01*
X021823Y004086D01*
X021760Y004041D01*
X021699Y003993D01*
X021640Y003943D01*
X021584Y003890D01*
X021531Y003834D01*
X021481Y003775D01*
X021433Y003714D01*
X021388Y003651D01*
X021347Y003586D01*
X021309Y003518D01*
X021274Y003449D01*
X021243Y003379D01*
X021215Y003307D01*
X021191Y003233D01*
X021170Y003159D01*
X021153Y003083D01*
X021140Y003007D01*
X021131Y002930D01*
X021125Y002853D01*
X021123Y002776D01*
X021123Y001300D01*
X007541Y001300D01*
X007541Y002776D01*
X007539Y002853D01*
X007533Y002930D01*
X007524Y003007D01*
X007511Y003083D01*
X007494Y003159D01*
X007473Y003233D01*
X007449Y003307D01*
X007421Y003379D01*
X007390Y003449D01*
X007355Y003518D01*
X007317Y003586D01*
X007276Y003651D01*
X007231Y003714D01*
X007183Y003775D01*
X007133Y003834D01*
X007080Y003890D01*
X007024Y003943D01*
X006965Y003993D01*
X006904Y004041D01*
X006841Y004086D01*
X006776Y004127D01*
X006708Y004165D01*
X006639Y004200D01*
X006569Y004231D01*
X006497Y004259D01*
X006423Y004283D01*
X006349Y004304D01*
X006273Y004321D01*
X006197Y004334D01*
X006120Y004343D01*
X006043Y004349D01*
X005966Y004351D01*
X007619Y007166D02*
X007621Y007219D01*
X007627Y007272D01*
X007637Y007324D01*
X007650Y007375D01*
X007668Y007425D01*
X007689Y007474D01*
X007714Y007521D01*
X007742Y007565D01*
X007774Y007608D01*
X007808Y007648D01*
X007846Y007686D01*
X007886Y007720D01*
X007929Y007752D01*
X007974Y007780D01*
X008020Y007805D01*
X008069Y007826D01*
X008119Y007844D01*
X008170Y007857D01*
X008222Y007867D01*
X008275Y007873D01*
X008328Y007875D01*
X008381Y007873D01*
X008434Y007867D01*
X008486Y007857D01*
X008537Y007844D01*
X008587Y007826D01*
X008636Y007805D01*
X008683Y007780D01*
X008727Y007752D01*
X008770Y007720D01*
X008810Y007686D01*
X008848Y007648D01*
X008882Y007608D01*
X008914Y007565D01*
X008942Y007520D01*
X008967Y007474D01*
X008988Y007425D01*
X009006Y007375D01*
X009019Y007324D01*
X009029Y007272D01*
X009035Y007219D01*
X009037Y007166D01*
X009035Y007113D01*
X009029Y007060D01*
X009019Y007008D01*
X009006Y006957D01*
X008988Y006907D01*
X008967Y006858D01*
X008942Y006811D01*
X008914Y006767D01*
X008882Y006724D01*
X008848Y006684D01*
X008810Y006646D01*
X008770Y006612D01*
X008727Y006580D01*
X008682Y006552D01*
X008636Y006527D01*
X008587Y006506D01*
X008537Y006488D01*
X008486Y006475D01*
X008434Y006465D01*
X008381Y006459D01*
X008328Y006457D01*
X008275Y006459D01*
X008222Y006465D01*
X008170Y006475D01*
X008119Y006488D01*
X008069Y006506D01*
X008020Y006527D01*
X007973Y006552D01*
X007929Y006580D01*
X007886Y006612D01*
X007846Y006646D01*
X007808Y006684D01*
X007774Y006724D01*
X007742Y006767D01*
X007714Y006812D01*
X007689Y006858D01*
X007668Y006907D01*
X007650Y006957D01*
X007637Y007008D01*
X007627Y007060D01*
X007621Y007113D01*
X007619Y007166D01*
X009608Y005040D02*
X009610Y005059D01*
X009615Y005078D01*
X009625Y005094D01*
X009637Y005109D01*
X009652Y005121D01*
X009668Y005131D01*
X009687Y005136D01*
X009706Y005138D01*
X009725Y005136D01*
X009744Y005131D01*
X009760Y005121D01*
X009775Y005109D01*
X009787Y005094D01*
X009797Y005078D01*
X009802Y005059D01*
X009804Y005040D01*
X009802Y005021D01*
X009797Y005002D01*
X009787Y004986D01*
X009775Y004971D01*
X009760Y004959D01*
X009744Y004949D01*
X009725Y004944D01*
X009706Y004942D01*
X009687Y004944D01*
X009668Y004949D01*
X009652Y004959D01*
X009637Y004971D01*
X009625Y004986D01*
X009615Y005002D01*
X009610Y005021D01*
X009608Y005040D01*
X010494Y005434D02*
X010496Y005453D01*
X010501Y005472D01*
X010511Y005488D01*
X010523Y005503D01*
X010538Y005515D01*
X010554Y005525D01*
X010573Y005530D01*
X010592Y005532D01*
X010611Y005530D01*
X010630Y005525D01*
X010646Y005515D01*
X010661Y005503D01*
X010673Y005488D01*
X010683Y005472D01*
X010688Y005453D01*
X010690Y005434D01*
X010688Y005415D01*
X010683Y005396D01*
X010673Y005380D01*
X010661Y005365D01*
X010646Y005353D01*
X010630Y005343D01*
X010611Y005338D01*
X010592Y005336D01*
X010573Y005338D01*
X010554Y005343D01*
X010538Y005353D01*
X010523Y005365D01*
X010511Y005380D01*
X010501Y005396D01*
X010496Y005415D01*
X010494Y005434D01*
X011478Y005040D02*
X011480Y005059D01*
X011485Y005078D01*
X011495Y005094D01*
X011507Y005109D01*
X011522Y005121D01*
X011538Y005131D01*
X011557Y005136D01*
X011576Y005138D01*
X011595Y005136D01*
X011614Y005131D01*
X011630Y005121D01*
X011645Y005109D01*
X011657Y005094D01*
X011667Y005078D01*
X011672Y005059D01*
X011674Y005040D01*
X011672Y005021D01*
X011667Y005002D01*
X011657Y004986D01*
X011645Y004971D01*
X011630Y004959D01*
X011614Y004949D01*
X011595Y004944D01*
X011576Y004942D01*
X011557Y004944D01*
X011538Y004949D01*
X011522Y004959D01*
X011507Y004971D01*
X011495Y004986D01*
X011485Y005002D01*
X011480Y005021D01*
X011478Y005040D01*
X011872Y004056D02*
X011874Y004075D01*
X011879Y004094D01*
X011889Y004110D01*
X011901Y004125D01*
X011916Y004137D01*
X011932Y004147D01*
X011951Y004152D01*
X011970Y004154D01*
X011989Y004152D01*
X012008Y004147D01*
X012024Y004137D01*
X012039Y004125D01*
X012051Y004110D01*
X012061Y004094D01*
X012066Y004075D01*
X012068Y004056D01*
X012066Y004037D01*
X012061Y004018D01*
X012051Y004002D01*
X012039Y003987D01*
X012024Y003975D01*
X012008Y003965D01*
X011989Y003960D01*
X011970Y003958D01*
X011951Y003960D01*
X011932Y003965D01*
X011916Y003975D01*
X011901Y003987D01*
X011889Y004002D01*
X011879Y004018D01*
X011874Y004037D01*
X011872Y004056D01*
X011478Y003072D02*
X011480Y003091D01*
X011485Y003110D01*
X011495Y003126D01*
X011507Y003141D01*
X011522Y003153D01*
X011538Y003163D01*
X011557Y003168D01*
X011576Y003170D01*
X011595Y003168D01*
X011614Y003163D01*
X011630Y003153D01*
X011645Y003141D01*
X011657Y003126D01*
X011667Y003110D01*
X011672Y003091D01*
X011674Y003072D01*
X011672Y003053D01*
X011667Y003034D01*
X011657Y003018D01*
X011645Y003003D01*
X011630Y002991D01*
X011614Y002981D01*
X011595Y002976D01*
X011576Y002974D01*
X011557Y002976D01*
X011538Y002981D01*
X011522Y002991D01*
X011507Y003003D01*
X011495Y003018D01*
X011485Y003034D01*
X011480Y003053D01*
X011478Y003072D01*
X010494Y002678D02*
X010496Y002697D01*
X010501Y002716D01*
X010511Y002732D01*
X010523Y002747D01*
X010538Y002759D01*
X010554Y002769D01*
X010573Y002774D01*
X010592Y002776D01*
X010611Y002774D01*
X010630Y002769D01*
X010646Y002759D01*
X010661Y002747D01*
X010673Y002732D01*
X010683Y002716D01*
X010688Y002697D01*
X010690Y002678D01*
X010688Y002659D01*
X010683Y002640D01*
X010673Y002624D01*
X010661Y002609D01*
X010646Y002597D01*
X010630Y002587D01*
X010611Y002582D01*
X010592Y002580D01*
X010573Y002582D01*
X010554Y002587D01*
X010538Y002597D01*
X010523Y002609D01*
X010511Y002624D01*
X010501Y002640D01*
X010496Y002659D01*
X010494Y002678D01*
X009510Y003072D02*
X009512Y003091D01*
X009517Y003110D01*
X009527Y003126D01*
X009539Y003141D01*
X009554Y003153D01*
X009570Y003163D01*
X009589Y003168D01*
X009608Y003170D01*
X009627Y003168D01*
X009646Y003163D01*
X009662Y003153D01*
X009677Y003141D01*
X009689Y003126D01*
X009699Y003110D01*
X009704Y003091D01*
X009706Y003072D01*
X009704Y003053D01*
X009699Y003034D01*
X009689Y003018D01*
X009677Y003003D01*
X009662Y002991D01*
X009646Y002981D01*
X009627Y002976D01*
X009608Y002974D01*
X009589Y002976D01*
X009570Y002981D01*
X009554Y002991D01*
X009539Y003003D01*
X009527Y003018D01*
X009517Y003034D01*
X009512Y003053D01*
X009510Y003072D01*
X009116Y004056D02*
X009118Y004075D01*
X009123Y004094D01*
X009133Y004110D01*
X009145Y004125D01*
X009160Y004137D01*
X009176Y004147D01*
X009195Y004152D01*
X009214Y004154D01*
X009233Y004152D01*
X009252Y004147D01*
X009268Y004137D01*
X009283Y004125D01*
X009295Y004110D01*
X009305Y004094D01*
X009310Y004075D01*
X009312Y004056D01*
X009310Y004037D01*
X009305Y004018D01*
X009295Y004002D01*
X009283Y003987D01*
X009268Y003975D01*
X009252Y003965D01*
X009233Y003960D01*
X009214Y003958D01*
X009195Y003960D01*
X009176Y003965D01*
X009160Y003975D01*
X009145Y003987D01*
X009133Y004002D01*
X009123Y004018D01*
X009118Y004037D01*
X009116Y004056D01*
X016596Y004056D02*
X016598Y004075D01*
X016603Y004094D01*
X016613Y004110D01*
X016625Y004125D01*
X016640Y004137D01*
X016656Y004147D01*
X016675Y004152D01*
X016694Y004154D01*
X016713Y004152D01*
X016732Y004147D01*
X016748Y004137D01*
X016763Y004125D01*
X016775Y004110D01*
X016785Y004094D01*
X016790Y004075D01*
X016792Y004056D01*
X016790Y004037D01*
X016785Y004018D01*
X016775Y004002D01*
X016763Y003987D01*
X016748Y003975D01*
X016732Y003965D01*
X016713Y003960D01*
X016694Y003958D01*
X016675Y003960D01*
X016656Y003965D01*
X016640Y003975D01*
X016625Y003987D01*
X016613Y004002D01*
X016603Y004018D01*
X016598Y004037D01*
X016596Y004056D01*
X016990Y003072D02*
X016992Y003091D01*
X016997Y003110D01*
X017007Y003126D01*
X017019Y003141D01*
X017034Y003153D01*
X017050Y003163D01*
X017069Y003168D01*
X017088Y003170D01*
X017107Y003168D01*
X017126Y003163D01*
X017142Y003153D01*
X017157Y003141D01*
X017169Y003126D01*
X017179Y003110D01*
X017184Y003091D01*
X017186Y003072D01*
X017184Y003053D01*
X017179Y003034D01*
X017169Y003018D01*
X017157Y003003D01*
X017142Y002991D01*
X017126Y002981D01*
X017107Y002976D01*
X017088Y002974D01*
X017069Y002976D01*
X017050Y002981D01*
X017034Y002991D01*
X017019Y003003D01*
X017007Y003018D01*
X016997Y003034D01*
X016992Y003053D01*
X016990Y003072D01*
X017974Y002678D02*
X017976Y002697D01*
X017981Y002716D01*
X017991Y002732D01*
X018003Y002747D01*
X018018Y002759D01*
X018034Y002769D01*
X018053Y002774D01*
X018072Y002776D01*
X018091Y002774D01*
X018110Y002769D01*
X018126Y002759D01*
X018141Y002747D01*
X018153Y002732D01*
X018163Y002716D01*
X018168Y002697D01*
X018170Y002678D01*
X018168Y002659D01*
X018163Y002640D01*
X018153Y002624D01*
X018141Y002609D01*
X018126Y002597D01*
X018110Y002587D01*
X018091Y002582D01*
X018072Y002580D01*
X018053Y002582D01*
X018034Y002587D01*
X018018Y002597D01*
X018003Y002609D01*
X017991Y002624D01*
X017981Y002640D01*
X017976Y002659D01*
X017974Y002678D01*
X018958Y003072D02*
X018960Y003091D01*
X018965Y003110D01*
X018975Y003126D01*
X018987Y003141D01*
X019002Y003153D01*
X019018Y003163D01*
X019037Y003168D01*
X019056Y003170D01*
X019075Y003168D01*
X019094Y003163D01*
X019110Y003153D01*
X019125Y003141D01*
X019137Y003126D01*
X019147Y003110D01*
X019152Y003091D01*
X019154Y003072D01*
X019152Y003053D01*
X019147Y003034D01*
X019137Y003018D01*
X019125Y003003D01*
X019110Y002991D01*
X019094Y002981D01*
X019075Y002976D01*
X019056Y002974D01*
X019037Y002976D01*
X019018Y002981D01*
X019002Y002991D01*
X018987Y003003D01*
X018975Y003018D01*
X018965Y003034D01*
X018960Y003053D01*
X018958Y003072D01*
X019352Y004056D02*
X019354Y004075D01*
X019359Y004094D01*
X019369Y004110D01*
X019381Y004125D01*
X019396Y004137D01*
X019412Y004147D01*
X019431Y004152D01*
X019450Y004154D01*
X019469Y004152D01*
X019488Y004147D01*
X019504Y004137D01*
X019519Y004125D01*
X019531Y004110D01*
X019541Y004094D01*
X019546Y004075D01*
X019548Y004056D01*
X019546Y004037D01*
X019541Y004018D01*
X019531Y004002D01*
X019519Y003987D01*
X019504Y003975D01*
X019488Y003965D01*
X019469Y003960D01*
X019450Y003958D01*
X019431Y003960D01*
X019412Y003965D01*
X019396Y003975D01*
X019381Y003987D01*
X019369Y004002D01*
X019359Y004018D01*
X019354Y004037D01*
X019352Y004056D01*
X018958Y005040D02*
X018960Y005059D01*
X018965Y005078D01*
X018975Y005094D01*
X018987Y005109D01*
X019002Y005121D01*
X019018Y005131D01*
X019037Y005136D01*
X019056Y005138D01*
X019075Y005136D01*
X019094Y005131D01*
X019110Y005121D01*
X019125Y005109D01*
X019137Y005094D01*
X019147Y005078D01*
X019152Y005059D01*
X019154Y005040D01*
X019152Y005021D01*
X019147Y005002D01*
X019137Y004986D01*
X019125Y004971D01*
X019110Y004959D01*
X019094Y004949D01*
X019075Y004944D01*
X019056Y004942D01*
X019037Y004944D01*
X019018Y004949D01*
X019002Y004959D01*
X018987Y004971D01*
X018975Y004986D01*
X018965Y005002D01*
X018960Y005021D01*
X018958Y005040D01*
X017974Y005434D02*
X017976Y005453D01*
X017981Y005472D01*
X017991Y005488D01*
X018003Y005503D01*
X018018Y005515D01*
X018034Y005525D01*
X018053Y005530D01*
X018072Y005532D01*
X018091Y005530D01*
X018110Y005525D01*
X018126Y005515D01*
X018141Y005503D01*
X018153Y005488D01*
X018163Y005472D01*
X018168Y005453D01*
X018170Y005434D01*
X018168Y005415D01*
X018163Y005396D01*
X018153Y005380D01*
X018141Y005365D01*
X018126Y005353D01*
X018110Y005343D01*
X018091Y005338D01*
X018072Y005336D01*
X018053Y005338D01*
X018034Y005343D01*
X018018Y005353D01*
X018003Y005365D01*
X017991Y005380D01*
X017981Y005396D01*
X017976Y005415D01*
X017974Y005434D01*
X017088Y005040D02*
X017090Y005059D01*
X017095Y005078D01*
X017105Y005094D01*
X017117Y005109D01*
X017132Y005121D01*
X017148Y005131D01*
X017167Y005136D01*
X017186Y005138D01*
X017205Y005136D01*
X017224Y005131D01*
X017240Y005121D01*
X017255Y005109D01*
X017267Y005094D01*
X017277Y005078D01*
X017282Y005059D01*
X017284Y005040D01*
X017282Y005021D01*
X017277Y005002D01*
X017267Y004986D01*
X017255Y004971D01*
X017240Y004959D01*
X017224Y004949D01*
X017205Y004944D01*
X017186Y004942D01*
X017167Y004944D01*
X017148Y004949D01*
X017132Y004959D01*
X017117Y004971D01*
X017105Y004986D01*
X017095Y005002D01*
X017090Y005021D01*
X017088Y005040D01*
X019627Y007166D02*
X019629Y007219D01*
X019635Y007272D01*
X019645Y007324D01*
X019658Y007375D01*
X019676Y007425D01*
X019697Y007474D01*
X019722Y007521D01*
X019750Y007565D01*
X019782Y007608D01*
X019816Y007648D01*
X019854Y007686D01*
X019894Y007720D01*
X019937Y007752D01*
X019982Y007780D01*
X020028Y007805D01*
X020077Y007826D01*
X020127Y007844D01*
X020178Y007857D01*
X020230Y007867D01*
X020283Y007873D01*
X020336Y007875D01*
X020389Y007873D01*
X020442Y007867D01*
X020494Y007857D01*
X020545Y007844D01*
X020595Y007826D01*
X020644Y007805D01*
X020691Y007780D01*
X020735Y007752D01*
X020778Y007720D01*
X020818Y007686D01*
X020856Y007648D01*
X020890Y007608D01*
X020922Y007565D01*
X020950Y007520D01*
X020975Y007474D01*
X020996Y007425D01*
X021014Y007375D01*
X021027Y007324D01*
X021037Y007272D01*
X021043Y007219D01*
X021045Y007166D01*
X021043Y007113D01*
X021037Y007060D01*
X021027Y007008D01*
X021014Y006957D01*
X020996Y006907D01*
X020975Y006858D01*
X020950Y006811D01*
X020922Y006767D01*
X020890Y006724D01*
X020856Y006684D01*
X020818Y006646D01*
X020778Y006612D01*
X020735Y006580D01*
X020690Y006552D01*
X020644Y006527D01*
X020595Y006506D01*
X020545Y006488D01*
X020494Y006475D01*
X020442Y006465D01*
X020389Y006459D01*
X020336Y006457D01*
X020283Y006459D01*
X020230Y006465D01*
X020178Y006475D01*
X020127Y006488D01*
X020077Y006506D01*
X020028Y006527D01*
X019981Y006552D01*
X019937Y006580D01*
X019894Y006612D01*
X019854Y006646D01*
X019816Y006684D01*
X019782Y006724D01*
X019750Y006767D01*
X019722Y006812D01*
X019697Y006858D01*
X019676Y006907D01*
X019658Y006957D01*
X019645Y007008D01*
X019635Y007060D01*
X019629Y007113D01*
X019627Y007166D01*
X019627Y026930D02*
X019629Y026983D01*
X019635Y027036D01*
X019645Y027088D01*
X019658Y027139D01*
X019676Y027189D01*
X019697Y027238D01*
X019722Y027285D01*
X019750Y027329D01*
X019782Y027372D01*
X019816Y027412D01*
X019854Y027450D01*
X019894Y027484D01*
X019937Y027516D01*
X019982Y027544D01*
X020028Y027569D01*
X020077Y027590D01*
X020127Y027608D01*
X020178Y027621D01*
X020230Y027631D01*
X020283Y027637D01*
X020336Y027639D01*
X020389Y027637D01*
X020442Y027631D01*
X020494Y027621D01*
X020545Y027608D01*
X020595Y027590D01*
X020644Y027569D01*
X020691Y027544D01*
X020735Y027516D01*
X020778Y027484D01*
X020818Y027450D01*
X020856Y027412D01*
X020890Y027372D01*
X020922Y027329D01*
X020950Y027284D01*
X020975Y027238D01*
X020996Y027189D01*
X021014Y027139D01*
X021027Y027088D01*
X021037Y027036D01*
X021043Y026983D01*
X021045Y026930D01*
X021043Y026877D01*
X021037Y026824D01*
X021027Y026772D01*
X021014Y026721D01*
X020996Y026671D01*
X020975Y026622D01*
X020950Y026575D01*
X020922Y026531D01*
X020890Y026488D01*
X020856Y026448D01*
X020818Y026410D01*
X020778Y026376D01*
X020735Y026344D01*
X020690Y026316D01*
X020644Y026291D01*
X020595Y026270D01*
X020545Y026252D01*
X020494Y026239D01*
X020442Y026229D01*
X020389Y026223D01*
X020336Y026221D01*
X020283Y026223D01*
X020230Y026229D01*
X020178Y026239D01*
X020127Y026252D01*
X020077Y026270D01*
X020028Y026291D01*
X019981Y026316D01*
X019937Y026344D01*
X019894Y026376D01*
X019854Y026410D01*
X019816Y026448D01*
X019782Y026488D01*
X019750Y026531D01*
X019722Y026576D01*
X019697Y026622D01*
X019676Y026671D01*
X019658Y026721D01*
X019645Y026772D01*
X019635Y026824D01*
X019629Y026877D01*
X019627Y026930D01*
X007619Y026930D02*
X007621Y026983D01*
X007627Y027036D01*
X007637Y027088D01*
X007650Y027139D01*
X007668Y027189D01*
X007689Y027238D01*
X007714Y027285D01*
X007742Y027329D01*
X007774Y027372D01*
X007808Y027412D01*
X007846Y027450D01*
X007886Y027484D01*
X007929Y027516D01*
X007974Y027544D01*
X008020Y027569D01*
X008069Y027590D01*
X008119Y027608D01*
X008170Y027621D01*
X008222Y027631D01*
X008275Y027637D01*
X008328Y027639D01*
X008381Y027637D01*
X008434Y027631D01*
X008486Y027621D01*
X008537Y027608D01*
X008587Y027590D01*
X008636Y027569D01*
X008683Y027544D01*
X008727Y027516D01*
X008770Y027484D01*
X008810Y027450D01*
X008848Y027412D01*
X008882Y027372D01*
X008914Y027329D01*
X008942Y027284D01*
X008967Y027238D01*
X008988Y027189D01*
X009006Y027139D01*
X009019Y027088D01*
X009029Y027036D01*
X009035Y026983D01*
X009037Y026930D01*
X009035Y026877D01*
X009029Y026824D01*
X009019Y026772D01*
X009006Y026721D01*
X008988Y026671D01*
X008967Y026622D01*
X008942Y026575D01*
X008914Y026531D01*
X008882Y026488D01*
X008848Y026448D01*
X008810Y026410D01*
X008770Y026376D01*
X008727Y026344D01*
X008682Y026316D01*
X008636Y026291D01*
X008587Y026270D01*
X008537Y026252D01*
X008486Y026239D01*
X008434Y026229D01*
X008381Y026223D01*
X008328Y026221D01*
X008275Y026223D01*
X008222Y026229D01*
X008170Y026239D01*
X008119Y026252D01*
X008069Y026270D01*
X008020Y026291D01*
X007973Y026316D01*
X007929Y026344D01*
X007886Y026376D01*
X007846Y026410D01*
X007808Y026448D01*
X007774Y026488D01*
X007742Y026531D01*
X007714Y026576D01*
X007689Y026622D01*
X007668Y026671D01*
X007650Y026721D01*
X007637Y026772D01*
X007627Y026824D01*
X007621Y026877D01*
X007619Y026930D01*
D21*
X010592Y004056D03*
X018072Y004056D03*
D22*
X017147Y004056D02*
X017149Y004116D01*
X017155Y004177D01*
X017165Y004236D01*
X017179Y004295D01*
X017196Y004353D01*
X017217Y004410D01*
X017242Y004465D01*
X017271Y004518D01*
X017303Y004570D01*
X017338Y004619D01*
X017377Y004666D01*
X017418Y004710D01*
X017462Y004751D01*
X017509Y004790D01*
X017558Y004825D01*
X017609Y004857D01*
X017663Y004886D01*
X017718Y004911D01*
X017775Y004932D01*
X017833Y004949D01*
X017892Y004963D01*
X017951Y004973D01*
X018012Y004979D01*
X018072Y004981D01*
X018132Y004979D01*
X018193Y004973D01*
X018252Y004963D01*
X018311Y004949D01*
X018369Y004932D01*
X018426Y004911D01*
X018481Y004886D01*
X018534Y004857D01*
X018586Y004825D01*
X018635Y004790D01*
X018682Y004751D01*
X018726Y004710D01*
X018767Y004666D01*
X018806Y004619D01*
X018841Y004570D01*
X018873Y004519D01*
X018902Y004465D01*
X018927Y004410D01*
X018948Y004353D01*
X018965Y004295D01*
X018979Y004236D01*
X018989Y004177D01*
X018995Y004116D01*
X018997Y004056D01*
X018995Y003996D01*
X018989Y003935D01*
X018979Y003876D01*
X018965Y003817D01*
X018948Y003759D01*
X018927Y003702D01*
X018902Y003647D01*
X018873Y003594D01*
X018841Y003542D01*
X018806Y003493D01*
X018767Y003446D01*
X018726Y003402D01*
X018682Y003361D01*
X018635Y003322D01*
X018586Y003287D01*
X018535Y003255D01*
X018481Y003226D01*
X018426Y003201D01*
X018369Y003180D01*
X018311Y003163D01*
X018252Y003149D01*
X018193Y003139D01*
X018132Y003133D01*
X018072Y003131D01*
X018012Y003133D01*
X017951Y003139D01*
X017892Y003149D01*
X017833Y003163D01*
X017775Y003180D01*
X017718Y003201D01*
X017663Y003226D01*
X017610Y003255D01*
X017558Y003287D01*
X017509Y003322D01*
X017462Y003361D01*
X017418Y003402D01*
X017377Y003446D01*
X017338Y003493D01*
X017303Y003542D01*
X017271Y003593D01*
X017242Y003647D01*
X017217Y003702D01*
X017196Y003759D01*
X017179Y003817D01*
X017165Y003876D01*
X017155Y003935D01*
X017149Y003996D01*
X017147Y004056D01*
X009667Y004056D02*
X009669Y004116D01*
X009675Y004177D01*
X009685Y004236D01*
X009699Y004295D01*
X009716Y004353D01*
X009737Y004410D01*
X009762Y004465D01*
X009791Y004518D01*
X009823Y004570D01*
X009858Y004619D01*
X009897Y004666D01*
X009938Y004710D01*
X009982Y004751D01*
X010029Y004790D01*
X010078Y004825D01*
X010129Y004857D01*
X010183Y004886D01*
X010238Y004911D01*
X010295Y004932D01*
X010353Y004949D01*
X010412Y004963D01*
X010471Y004973D01*
X010532Y004979D01*
X010592Y004981D01*
X010652Y004979D01*
X010713Y004973D01*
X010772Y004963D01*
X010831Y004949D01*
X010889Y004932D01*
X010946Y004911D01*
X011001Y004886D01*
X011054Y004857D01*
X011106Y004825D01*
X011155Y004790D01*
X011202Y004751D01*
X011246Y004710D01*
X011287Y004666D01*
X011326Y004619D01*
X011361Y004570D01*
X011393Y004519D01*
X011422Y004465D01*
X011447Y004410D01*
X011468Y004353D01*
X011485Y004295D01*
X011499Y004236D01*
X011509Y004177D01*
X011515Y004116D01*
X011517Y004056D01*
X011515Y003996D01*
X011509Y003935D01*
X011499Y003876D01*
X011485Y003817D01*
X011468Y003759D01*
X011447Y003702D01*
X011422Y003647D01*
X011393Y003594D01*
X011361Y003542D01*
X011326Y003493D01*
X011287Y003446D01*
X011246Y003402D01*
X011202Y003361D01*
X011155Y003322D01*
X011106Y003287D01*
X011055Y003255D01*
X011001Y003226D01*
X010946Y003201D01*
X010889Y003180D01*
X010831Y003163D01*
X010772Y003149D01*
X010713Y003139D01*
X010652Y003133D01*
X010592Y003131D01*
X010532Y003133D01*
X010471Y003139D01*
X010412Y003149D01*
X010353Y003163D01*
X010295Y003180D01*
X010238Y003201D01*
X010183Y003226D01*
X010130Y003255D01*
X010078Y003287D01*
X010029Y003322D01*
X009982Y003361D01*
X009938Y003402D01*
X009897Y003446D01*
X009858Y003493D01*
X009823Y003542D01*
X009791Y003593D01*
X009762Y003647D01*
X009737Y003702D01*
X009716Y003759D01*
X009699Y003817D01*
X009685Y003876D01*
X009675Y003935D01*
X009669Y003996D01*
X009667Y004056D01*
D23*
X012332Y024891D03*
X014332Y026891D03*
X012332Y028891D03*
X016332Y028891D03*
X016332Y024891D03*
D24*
X018860Y022954D03*
X015710Y018426D03*
D25*
X013741Y018426D03*
X020828Y022954D03*
D26*
X008820Y014095D03*
D27*
X007820Y014095D03*
D28*
X016875Y015867D03*
X016875Y016867D03*
X017875Y016867D03*
X017875Y015867D03*
X017875Y014867D03*
X018875Y015867D03*
X018875Y016867D03*
D29*
X014832Y017048D03*
X013832Y017048D03*
D30*
X014745Y014231D03*
X014745Y013231D03*
X014745Y012231D03*
X014745Y011231D03*
X014745Y010231D03*
D31*
X014785Y006239D03*
X014785Y005239D03*
X014785Y003239D03*
X014785Y002239D03*
D32*
X008466Y015867D03*
X007600Y015867D03*
X007265Y020296D03*
X008131Y020296D03*
X011675Y021733D03*
X011675Y022599D03*
D33*
X010848Y015473D03*
X009155Y015473D03*
D34*
X008466Y015080D03*
X007600Y015080D03*
D35*
X006930Y016969D02*
X006537Y016969D01*
X006537Y020434D01*
X007403Y020434D01*
X007403Y020335D01*
X007265Y020296D01*
X007403Y020311D02*
X006537Y020311D01*
X006537Y020409D02*
X007403Y020409D01*
X007403Y020434D02*
X007403Y020119D01*
X007324Y020040D01*
X007167Y020040D01*
X006930Y019804D01*
X006930Y016969D01*
X006930Y017060D02*
X006537Y017060D01*
X006537Y017159D02*
X006930Y017159D01*
X006930Y017257D02*
X006537Y017257D01*
X006537Y017356D02*
X006930Y017356D01*
X006930Y017454D02*
X006537Y017454D01*
X006537Y017553D02*
X006930Y017553D01*
X006930Y017651D02*
X006537Y017651D01*
X006537Y017750D02*
X006930Y017750D01*
X006930Y017848D02*
X006537Y017848D01*
X006537Y017947D02*
X006930Y017947D01*
X006930Y018045D02*
X006537Y018045D01*
X006537Y018144D02*
X006930Y018144D01*
X006930Y018242D02*
X006537Y018242D01*
X006537Y018341D02*
X006930Y018341D01*
X006930Y018439D02*
X006537Y018439D01*
X006537Y018538D02*
X006930Y018538D01*
X006930Y018636D02*
X006537Y018636D01*
X006537Y018735D02*
X006930Y018735D01*
X006930Y018833D02*
X006537Y018833D01*
X006537Y018932D02*
X006930Y018932D01*
X006930Y019030D02*
X006537Y019030D01*
X006537Y019129D02*
X006930Y019129D01*
X006930Y019227D02*
X006537Y019227D01*
X006537Y019326D02*
X006930Y019326D01*
X006930Y019424D02*
X006537Y019424D01*
X006537Y019523D02*
X006930Y019523D01*
X006930Y019621D02*
X006537Y019621D01*
X006537Y019720D02*
X006930Y019720D01*
X006945Y019818D02*
X006537Y019818D01*
X006537Y019917D02*
X007043Y019917D01*
X007142Y020015D02*
X006537Y020015D01*
X006537Y020114D02*
X007398Y020114D01*
X007403Y020212D02*
X006537Y020212D01*
X006734Y020198D02*
X006930Y020394D01*
X006930Y020414D01*
X006950Y020434D01*
X007678Y020434D01*
X008788Y021543D01*
X009064Y021543D01*
X009165Y021333D02*
X009165Y021162D01*
X009334Y021162D01*
X009334Y020869D01*
X008348Y019883D01*
X008348Y019410D01*
X007324Y019410D01*
X007324Y019840D01*
X007407Y019840D01*
X007524Y019957D01*
X007603Y020036D01*
X007603Y020234D01*
X007761Y020234D01*
X007878Y020351D01*
X008252Y020725D01*
X008873Y021333D01*
X009165Y021333D01*
X009165Y021296D02*
X008834Y021296D01*
X008734Y021197D02*
X009165Y021197D01*
X009334Y021099D02*
X008633Y021099D01*
X008533Y021000D02*
X009334Y021000D01*
X009334Y020902D02*
X008432Y020902D01*
X008332Y020803D02*
X009268Y020803D01*
X009170Y020705D02*
X008232Y020705D01*
X008133Y020606D02*
X009071Y020606D01*
X008973Y020508D02*
X008035Y020508D01*
X007936Y020409D02*
X008874Y020409D01*
X008776Y020311D02*
X007838Y020311D01*
X007603Y020212D02*
X008677Y020212D01*
X008579Y020114D02*
X007603Y020114D01*
X007582Y020015D02*
X008480Y020015D01*
X008382Y019917D02*
X007483Y019917D01*
X007324Y019818D02*
X008348Y019818D01*
X008348Y019720D02*
X007324Y019720D01*
X007324Y019621D02*
X008348Y019621D01*
X008348Y019523D02*
X007324Y019523D01*
X007324Y019424D02*
X008348Y019424D01*
X008604Y019424D02*
X009608Y019424D01*
X009608Y019326D02*
X008604Y019326D01*
X008604Y019227D02*
X009608Y019227D01*
X009608Y019129D02*
X008604Y019129D01*
X008604Y019030D02*
X009608Y019030D01*
X009608Y019017D02*
X009411Y018820D01*
X009411Y018800D01*
X008604Y018800D01*
X008604Y019856D01*
X009437Y020690D01*
X009442Y020690D01*
X009496Y020748D01*
X009552Y020804D01*
X009552Y020808D01*
X009555Y020811D01*
X009552Y020890D01*
X009552Y020969D01*
X009549Y020972D01*
X009543Y021143D01*
X009745Y021143D01*
X009745Y020871D01*
X009744Y020869D01*
X009744Y020554D01*
X009724Y020534D01*
X009724Y020534D01*
X009665Y020475D01*
X009665Y020421D01*
X009608Y020355D01*
X009608Y019017D01*
X009523Y018932D02*
X008604Y018932D01*
X008604Y018833D02*
X009424Y018833D01*
X009923Y018833D02*
X010316Y018833D01*
X010316Y018735D02*
X009923Y018735D01*
X009923Y018636D02*
X010316Y018636D01*
X010316Y018623D02*
X009923Y018623D01*
X009923Y020450D01*
X009944Y020471D01*
X009944Y020670D01*
X009962Y020670D01*
X010080Y020591D01*
X010316Y020591D01*
X010316Y018623D01*
X010572Y018636D02*
X011182Y018636D01*
X011182Y018538D02*
X010572Y018538D01*
X010572Y018439D02*
X011182Y018439D01*
X011182Y018341D02*
X007285Y018341D01*
X007285Y018439D02*
X008348Y018439D01*
X008348Y018387D02*
X010572Y018387D01*
X010572Y020257D01*
X010545Y020294D01*
X010545Y020476D01*
X010516Y020505D01*
X010516Y020674D01*
X010399Y020791D01*
X010185Y020791D01*
X010159Y020828D01*
X010159Y021143D01*
X010336Y021143D01*
X010336Y020926D01*
X010679Y020918D01*
X010724Y020810D01*
X010811Y020724D01*
X010924Y020677D01*
X011047Y020677D01*
X011140Y020715D01*
X011182Y020715D01*
X011182Y017737D01*
X007285Y017737D01*
X007285Y018859D01*
X008348Y018859D01*
X008348Y018387D01*
X008348Y018538D02*
X007285Y018538D01*
X007285Y018636D02*
X008348Y018636D01*
X008348Y018735D02*
X007285Y018735D01*
X007285Y018833D02*
X008348Y018833D01*
X008604Y019523D02*
X009608Y019523D01*
X009608Y019621D02*
X008604Y019621D01*
X008604Y019720D02*
X009608Y019720D01*
X009608Y019818D02*
X008604Y019818D01*
X008664Y019917D02*
X009608Y019917D01*
X009608Y020015D02*
X008763Y020015D01*
X008861Y020114D02*
X009608Y020114D01*
X009608Y020212D02*
X008960Y020212D01*
X009058Y020311D02*
X009608Y020311D01*
X009655Y020409D02*
X009157Y020409D01*
X009255Y020508D02*
X009697Y020508D01*
X009744Y020606D02*
X009354Y020606D01*
X009455Y020705D02*
X009744Y020705D01*
X009744Y020803D02*
X009551Y020803D01*
X009552Y020902D02*
X009745Y020902D01*
X009745Y021000D02*
X009548Y021000D01*
X009547Y021063D02*
X009547Y021733D01*
X009744Y021733D02*
X009744Y021063D01*
X009745Y021099D02*
X009544Y021099D01*
X009944Y020606D02*
X010058Y020606D01*
X009944Y020508D02*
X010316Y020508D01*
X010316Y020409D02*
X009923Y020409D01*
X009923Y020311D02*
X010316Y020311D01*
X010316Y020212D02*
X009923Y020212D01*
X009923Y020114D02*
X010316Y020114D01*
X010316Y020015D02*
X009923Y020015D01*
X009923Y019917D02*
X010316Y019917D01*
X010316Y019818D02*
X009923Y019818D01*
X009923Y019720D02*
X010316Y019720D01*
X010316Y019621D02*
X009923Y019621D01*
X009923Y019523D02*
X010316Y019523D01*
X010316Y019424D02*
X009923Y019424D01*
X009923Y019326D02*
X010316Y019326D01*
X010316Y019227D02*
X009923Y019227D01*
X009923Y019129D02*
X010316Y019129D01*
X010316Y019030D02*
X009923Y019030D01*
X009923Y018932D02*
X010316Y018932D01*
X010572Y018932D02*
X011182Y018932D01*
X011182Y019030D02*
X010572Y019030D01*
X010572Y019129D02*
X011182Y019129D01*
X011182Y019227D02*
X010572Y019227D01*
X010572Y019326D02*
X011182Y019326D01*
X011182Y019424D02*
X010572Y019424D01*
X010572Y019523D02*
X011182Y019523D01*
X011182Y019621D02*
X010572Y019621D01*
X010572Y019720D02*
X011182Y019720D01*
X011182Y019818D02*
X010572Y019818D01*
X010572Y019917D02*
X011182Y019917D01*
X011182Y020015D02*
X010572Y020015D01*
X010572Y020114D02*
X011182Y020114D01*
X011182Y020212D02*
X010572Y020212D01*
X010545Y020311D02*
X011182Y020311D01*
X011182Y020409D02*
X010545Y020409D01*
X010516Y020508D02*
X011182Y020508D01*
X011182Y020606D02*
X010516Y020606D01*
X010486Y020705D02*
X010857Y020705D01*
X010731Y020803D02*
X010177Y020803D01*
X010159Y020902D02*
X010686Y020902D01*
X011114Y020705D02*
X011182Y020705D01*
X011576Y020705D02*
X011871Y020705D01*
X011871Y020803D02*
X011576Y020803D01*
X011576Y020902D02*
X011871Y020902D01*
X011871Y021000D02*
X011576Y021000D01*
X011576Y021099D02*
X011871Y021099D01*
X011871Y021197D02*
X011576Y021197D01*
X011576Y021296D02*
X011871Y021296D01*
X011871Y021379D02*
X011871Y017737D01*
X011576Y017737D01*
X011576Y021772D01*
X011773Y021772D01*
X011773Y021576D01*
X011871Y021379D01*
X011864Y021394D02*
X011576Y021394D01*
X011576Y021493D02*
X011814Y021493D01*
X011773Y021591D02*
X011576Y021591D01*
X011576Y021690D02*
X011773Y021690D01*
X012265Y021690D02*
X013249Y021690D01*
X013249Y021788D02*
X012265Y021788D01*
X012265Y021871D02*
X013249Y021871D01*
X013249Y018229D01*
X012265Y018229D01*
X012265Y021871D01*
X012265Y021591D02*
X013249Y021591D01*
X013249Y021493D02*
X012265Y021493D01*
X012265Y021394D02*
X013249Y021394D01*
X013249Y021296D02*
X012265Y021296D01*
X012265Y021197D02*
X013249Y021197D01*
X013249Y021099D02*
X012265Y021099D01*
X012265Y021000D02*
X013249Y021000D01*
X013249Y020902D02*
X012265Y020902D01*
X012265Y020803D02*
X013249Y020803D01*
X013249Y020705D02*
X012265Y020705D01*
X012265Y020606D02*
X013249Y020606D01*
X013249Y020508D02*
X012265Y020508D01*
X012265Y020409D02*
X013249Y020409D01*
X013249Y020311D02*
X012265Y020311D01*
X012265Y020212D02*
X013249Y020212D01*
X013249Y020114D02*
X012265Y020114D01*
X012265Y020015D02*
X013249Y020015D01*
X013249Y019917D02*
X012265Y019917D01*
X012265Y019818D02*
X013249Y019818D01*
X013249Y019720D02*
X012265Y019720D01*
X012265Y019621D02*
X013249Y019621D01*
X013249Y019523D02*
X012265Y019523D01*
X012265Y019424D02*
X013249Y019424D01*
X013249Y019326D02*
X012265Y019326D01*
X012265Y019227D02*
X013249Y019227D01*
X013249Y019129D02*
X012265Y019129D01*
X012265Y019030D02*
X013249Y019030D01*
X013249Y018932D02*
X012265Y018932D01*
X012265Y018833D02*
X013249Y018833D01*
X013249Y018735D02*
X012265Y018735D01*
X012265Y018636D02*
X013249Y018636D01*
X013249Y018538D02*
X012265Y018538D01*
X012265Y018439D02*
X013249Y018439D01*
X013249Y018341D02*
X012265Y018341D01*
X012265Y018242D02*
X013249Y018242D01*
X011871Y018242D02*
X011576Y018242D01*
X011576Y018144D02*
X011871Y018144D01*
X011871Y018045D02*
X011576Y018045D01*
X011576Y017947D02*
X011871Y017947D01*
X011871Y017848D02*
X011576Y017848D01*
X011576Y017750D02*
X011871Y017750D01*
X011871Y018341D02*
X011576Y018341D01*
X011576Y018439D02*
X011871Y018439D01*
X011871Y018538D02*
X011576Y018538D01*
X011576Y018636D02*
X011871Y018636D01*
X011871Y018735D02*
X011576Y018735D01*
X011576Y018833D02*
X011871Y018833D01*
X011871Y018932D02*
X011576Y018932D01*
X011576Y019030D02*
X011871Y019030D01*
X011871Y019129D02*
X011576Y019129D01*
X011576Y019227D02*
X011871Y019227D01*
X011871Y019326D02*
X011576Y019326D01*
X011576Y019424D02*
X011871Y019424D01*
X011871Y019523D02*
X011576Y019523D01*
X011576Y019621D02*
X011871Y019621D01*
X011871Y019720D02*
X011576Y019720D01*
X011576Y019818D02*
X011871Y019818D01*
X011871Y019917D02*
X011576Y019917D01*
X011576Y020015D02*
X011871Y020015D01*
X011871Y020114D02*
X011576Y020114D01*
X011576Y020212D02*
X011871Y020212D01*
X011871Y020311D02*
X011576Y020311D01*
X011576Y020409D02*
X011871Y020409D01*
X011871Y020508D02*
X011576Y020508D01*
X011576Y020606D02*
X011871Y020606D01*
X011025Y021379D02*
X010860Y021543D01*
X010624Y021543D01*
X010624Y021743D02*
X011232Y021743D01*
X011261Y021694D01*
X011038Y021943D02*
X011182Y022087D01*
X011038Y021943D02*
X010624Y021943D01*
X010624Y022143D02*
X010845Y022143D01*
X011025Y022324D01*
X011025Y022402D01*
X011289Y022520D02*
X011270Y022566D01*
X011188Y022647D01*
X011082Y022691D01*
X010967Y022691D01*
X010861Y022647D01*
X010780Y022566D01*
X010771Y022543D01*
X010402Y022543D01*
X010379Y022520D01*
X010154Y022520D01*
X010154Y022845D01*
X010144Y022855D01*
X010144Y022912D01*
X010186Y022954D01*
X013348Y022954D01*
X013348Y022520D01*
X011289Y022520D01*
X011260Y022576D02*
X013348Y022576D01*
X013348Y022675D02*
X011122Y022675D01*
X010928Y022675D02*
X010154Y022675D01*
X010154Y022773D02*
X013348Y022773D01*
X013348Y022872D02*
X010144Y022872D01*
X009944Y022994D02*
X009944Y022623D01*
X009744Y022623D02*
X009744Y023090D01*
X009883Y023249D01*
X009883Y024528D01*
X010375Y024528D01*
X010395Y024548D01*
X011182Y024548D01*
X011182Y024509D01*
X011182Y023761D02*
X011182Y023721D01*
X010395Y023721D01*
X010395Y023446D01*
X009944Y022994D01*
X010154Y022576D02*
X010790Y022576D01*
X009844Y021833D02*
X009744Y021733D01*
X009844Y021833D02*
X009344Y022333D01*
X009064Y022333D01*
X009064Y021943D02*
X008551Y021943D01*
X008328Y022166D01*
X008328Y022363D01*
X008131Y022560D01*
X007816Y022560D01*
X008308Y023249D02*
X007816Y023741D01*
X008308Y023249D02*
X008623Y023249D01*
X008919Y022954D01*
X009253Y022954D01*
X009354Y022853D01*
X009354Y022623D01*
X009544Y022623D02*
X009544Y022998D01*
X009273Y023269D01*
X009017Y023269D01*
X008860Y023426D01*
X008860Y023524D01*
X008623Y023761D01*
X008623Y023643D01*
X009430Y024528D02*
X009411Y024548D01*
X009430Y024528D02*
X009883Y024528D01*
X010159Y021099D02*
X010336Y021099D01*
X010336Y021000D02*
X010159Y021000D01*
X010572Y018833D02*
X011182Y018833D01*
X011182Y018735D02*
X010572Y018735D01*
X011182Y018242D02*
X007285Y018242D01*
X007285Y018144D02*
X011182Y018144D01*
X011182Y018045D02*
X007285Y018045D01*
X007285Y017947D02*
X011182Y017947D01*
X011182Y017848D02*
X007285Y017848D01*
X007285Y017750D02*
X011182Y017750D01*
X006655Y021792D02*
X006419Y021753D01*
D36*
X007442Y021792D02*
X007491Y021743D01*
X009064Y021743D01*
X009064Y022333D02*
X008751Y022333D01*
X008623Y022461D01*
X008623Y022855D02*
X008426Y023052D01*
X008131Y023052D01*
X008033Y023150D01*
X007049Y023150D01*
X008623Y023761D02*
X009371Y023761D01*
X009411Y023721D01*
X011182Y023761D02*
X011222Y023741D01*
X011773Y023741D01*
X009944Y021063D02*
X009944Y020314D01*
X010139Y020119D01*
X009744Y020649D02*
X009371Y020276D01*
X009744Y020649D02*
X009744Y021063D01*
X020001Y019804D02*
X020533Y019804D01*
X020730Y019607D01*
X020730Y017520D01*
X020651Y017442D01*
X021320Y017520D02*
X021399Y017442D01*
X021320Y017520D02*
X021320Y019607D01*
X021517Y019804D01*
X022049Y019804D01*
D37*
X021025Y021379D03*
X019253Y020198D03*
X019253Y018032D03*
X021025Y018229D03*
X023387Y019410D03*
X023387Y016261D03*
X021419Y013505D03*
X020631Y014686D03*
X019076Y013229D03*
X021222Y011536D03*
X021222Y010552D03*
X021025Y009961D03*
X018663Y009961D03*
X016104Y009961D03*
X016694Y014292D03*
X016301Y015080D03*
X014726Y015178D03*
X013052Y015473D03*
X013052Y015867D03*
X013052Y016261D03*
X013052Y016654D03*
X013052Y017442D03*
X013052Y018229D03*
X013052Y018623D03*
X013052Y019017D03*
X013052Y019410D03*
X013052Y019804D03*
X013052Y020198D03*
X013052Y020591D03*
X013052Y020985D03*
X013840Y020985D03*
X013840Y021772D03*
X013840Y022560D03*
X013840Y023347D03*
X013052Y023347D03*
X012265Y023347D03*
X011773Y023741D03*
X010789Y025316D03*
X010001Y025316D03*
X008033Y024922D03*
X008033Y024331D03*
X007245Y024331D03*
X006458Y024331D03*
X006458Y023741D03*
X006458Y023150D03*
X006458Y022560D03*
X005867Y022560D03*
X005277Y022560D03*
X005277Y021772D03*
X005277Y020985D03*
X005277Y020198D03*
X005277Y019804D03*
X005277Y019410D03*
X005277Y019017D03*
X005277Y018623D03*
X005277Y018229D03*
X005277Y017835D03*
X005277Y016851D03*
X005277Y015867D03*
X005277Y015473D03*
X005277Y015080D03*
X005277Y014686D03*
X005277Y014292D03*
X005277Y013505D03*
X005277Y012324D03*
X005277Y011143D03*
X005277Y009961D03*
X007639Y009961D03*
X010001Y009961D03*
X012364Y009961D03*
X012364Y014686D03*
X010887Y016457D03*
X010493Y016457D03*
X010100Y016457D03*
X009706Y016457D03*
X008722Y016457D03*
X008328Y016457D03*
X007934Y016457D03*
X007541Y016457D03*
X008741Y019017D03*
X008741Y019410D03*
X008741Y019784D03*
X009096Y019568D03*
X009470Y019568D03*
X010119Y019528D03*
X009608Y020670D03*
X010986Y020985D03*
X008623Y022678D03*
X007049Y023150D03*
X005277Y025709D03*
X005277Y028859D03*
X008426Y032009D03*
X020238Y032009D03*
X023387Y029253D03*
X023387Y026103D03*
X023387Y013111D03*
X023387Y009961D03*
D38*
X021025Y018229D02*
X021025Y021379D01*
X022049Y021304D02*
X022596Y021304D01*
X022678Y021221D01*
X022678Y020906D01*
X022576Y020804D01*
X022049Y020804D01*
X022049Y018804D02*
X022576Y018804D01*
X022678Y018702D01*
X022678Y018387D01*
X022596Y018304D01*
X022049Y018304D01*
X018860Y022954D02*
X017895Y022954D01*
X017875Y022973D01*
X008623Y022855D02*
X008623Y022461D01*
X007068Y022560D02*
X007049Y022580D01*
X007049Y023150D02*
X007068Y023170D01*
D39*
X007060Y023226D02*
X007060Y023733D01*
X006592Y023733D01*
X006592Y023417D01*
X006607Y023361D01*
X006636Y023311D01*
X006677Y023270D01*
X006727Y023241D01*
X006783Y023226D01*
X007060Y023226D01*
X007060Y023242D02*
X007076Y023242D01*
X007076Y023226D02*
X007353Y023226D01*
X007378Y023232D01*
X007402Y023208D01*
X007505Y023166D01*
X007925Y023166D01*
X007955Y023135D01*
X007505Y023135D01*
X007402Y023092D01*
X007378Y023069D01*
X007353Y023075D01*
X007076Y023075D01*
X007076Y022568D01*
X007060Y022568D01*
X007060Y022552D01*
X006592Y022552D01*
X006592Y022308D01*
X006304Y022308D01*
X006237Y022281D01*
X006218Y022289D01*
X005516Y022289D01*
X005414Y022246D01*
X005335Y022167D01*
X005292Y022064D01*
X005292Y021441D01*
X005318Y021379D01*
X005292Y021316D01*
X005292Y020693D01*
X005335Y020590D01*
X005414Y020511D01*
X005510Y020472D01*
X005510Y020206D01*
X005978Y020206D01*
X005978Y020190D01*
X005994Y020190D01*
X005994Y019418D01*
X005978Y019418D01*
X005978Y019926D01*
X005978Y020190D01*
X005510Y020190D01*
X005510Y019873D01*
X005525Y019817D01*
X005532Y019804D01*
X005525Y019790D01*
X005510Y019734D01*
X005510Y019418D01*
X005978Y019418D01*
X005978Y019402D01*
X005994Y019402D01*
X005994Y018631D01*
X005978Y018631D01*
X005978Y019138D01*
X005978Y019402D01*
X005510Y019402D01*
X005510Y019086D01*
X005525Y019030D01*
X005532Y019017D01*
X005525Y019003D01*
X005510Y018947D01*
X005510Y018631D01*
X005978Y018631D01*
X005978Y018615D01*
X005978Y018351D01*
X005978Y017843D01*
X005978Y017827D01*
X005510Y017827D01*
X005510Y017511D01*
X005525Y017455D01*
X005554Y017405D01*
X005595Y017364D01*
X005610Y017355D01*
X005587Y017301D01*
X005587Y016795D01*
X005630Y016693D01*
X005668Y016654D01*
X005630Y016616D01*
X005587Y016513D01*
X005587Y016008D01*
X005630Y015905D01*
X005645Y015891D01*
X005623Y015853D01*
X005608Y015797D01*
X005608Y015481D01*
X006076Y015481D01*
X006076Y015465D01*
X005608Y015465D01*
X005608Y015149D01*
X005622Y015098D01*
X005603Y015066D01*
X005588Y015010D01*
X005588Y014686D01*
X006045Y014686D01*
X006045Y014171D01*
X006310Y014171D01*
X006366Y014186D01*
X006415Y014214D01*
X006471Y014158D01*
X006471Y013405D01*
X006532Y013258D01*
X006906Y012884D01*
X007019Y012772D01*
X007166Y012711D01*
X010852Y012711D01*
X010890Y012673D01*
X011080Y012595D01*
X011285Y012595D01*
X011475Y012673D01*
X011620Y012819D01*
X011699Y013008D01*
X011699Y013112D01*
X011729Y013081D01*
X011842Y012969D01*
X011989Y012908D01*
X013195Y012908D01*
X013209Y012874D01*
X013233Y012850D01*
X013226Y012825D01*
X013226Y012548D01*
X013733Y012548D01*
X013733Y012532D01*
X013226Y012532D01*
X013226Y012255D01*
X013241Y012199D01*
X013270Y012149D01*
X013311Y012108D01*
X013361Y012079D01*
X013417Y012064D01*
X013734Y012064D01*
X013734Y012532D01*
X013749Y012532D01*
X013749Y012064D01*
X013834Y012064D01*
X013834Y010669D01*
X013894Y010522D01*
X014007Y010410D01*
X014154Y010349D01*
X014191Y010349D01*
X014188Y010342D01*
X014188Y010120D01*
X014273Y009915D01*
X014430Y009759D01*
X014635Y009674D01*
X014856Y009674D01*
X015061Y009759D01*
X015218Y009915D01*
X015240Y009968D01*
X015341Y010069D01*
X015341Y010069D01*
X016014Y010742D01*
X016069Y010874D01*
X016069Y017969D01*
X016199Y018099D01*
X016287Y018311D01*
X016287Y018541D01*
X016199Y018753D01*
X016058Y018894D01*
X016651Y018894D01*
X016694Y018912D01*
X016737Y018894D01*
X017300Y018894D01*
X017300Y018292D01*
X017326Y018229D01*
X017300Y018167D01*
X017300Y017544D01*
X017343Y017441D01*
X017421Y017362D01*
X017482Y017337D01*
X017375Y017230D01*
X017128Y017477D01*
X016623Y017477D01*
X016265Y017120D01*
X016265Y016614D01*
X016477Y016402D01*
X016477Y016331D01*
X016265Y016120D01*
X016265Y015614D01*
X016477Y015402D01*
X016477Y014677D01*
X016446Y014664D01*
X016323Y014540D01*
X016256Y014379D01*
X016256Y014205D01*
X016323Y014044D01*
X016446Y013920D01*
X016607Y013854D01*
X016781Y013854D01*
X016943Y013920D01*
X017066Y014044D01*
X017106Y014141D01*
X017213Y014248D01*
X017273Y014394D01*
X017273Y014606D01*
X017623Y014257D01*
X018128Y014257D01*
X018477Y014606D01*
X018477Y013333D01*
X018538Y013187D01*
X018677Y013048D01*
X018704Y012981D01*
X018717Y012968D01*
X018717Y010681D01*
X018769Y010557D01*
X018864Y010461D01*
X019061Y010265D01*
X019186Y010213D01*
X019308Y010213D01*
X019308Y010201D01*
X019351Y010098D01*
X019429Y010019D01*
X019532Y009977D01*
X020116Y009977D01*
X020219Y010019D01*
X020238Y010038D01*
X020256Y010019D01*
X020359Y009977D01*
X020943Y009977D01*
X021046Y010019D01*
X021124Y010098D01*
X021131Y010115D01*
X021135Y010114D01*
X021309Y010114D01*
X021470Y010180D01*
X021593Y010304D01*
X021660Y010465D01*
X021660Y010639D01*
X021593Y010800D01*
X021470Y010924D01*
X021309Y010990D01*
X021135Y010990D01*
X021131Y010989D01*
X021124Y011006D01*
X021086Y011044D01*
X021124Y011082D01*
X021131Y011099D01*
X021135Y011098D01*
X021309Y011098D01*
X021470Y011165D01*
X021593Y011288D01*
X021660Y011449D01*
X021660Y011623D01*
X021593Y011785D01*
X021470Y011908D01*
X021309Y011975D01*
X021135Y011975D01*
X021131Y011973D01*
X021124Y011990D01*
X021046Y012069D01*
X020943Y012111D01*
X020359Y012111D01*
X020281Y012079D01*
X020281Y013856D01*
X020672Y014247D01*
X020718Y014247D01*
X020880Y014314D01*
X021003Y014437D01*
X021021Y014480D01*
X021021Y013689D01*
X020980Y013592D01*
X020980Y013418D01*
X021047Y013256D01*
X021170Y013133D01*
X021331Y013066D01*
X021506Y013066D01*
X021667Y013133D01*
X021790Y013256D01*
X021857Y013418D01*
X021857Y013592D01*
X021817Y013689D01*
X021817Y016912D01*
X021892Y016988D01*
X021935Y017091D01*
X021935Y017793D01*
X021892Y017896D01*
X021882Y017906D01*
X022537Y017906D01*
X022629Y017944D01*
X022667Y017944D01*
X022800Y017999D01*
X022984Y018183D01*
X023038Y018315D01*
X023038Y018773D01*
X022984Y018905D01*
X022882Y019007D01*
X022780Y019109D01*
X022698Y019143D01*
X022702Y019157D01*
X022702Y019304D01*
X022702Y019451D01*
X022689Y019497D01*
X022719Y019527D01*
X022762Y019630D01*
X022762Y019978D01*
X022719Y020081D01*
X022689Y020110D01*
X022702Y020157D01*
X022702Y020304D01*
X022702Y020451D01*
X022698Y020465D01*
X022780Y020499D01*
X022882Y020601D01*
X022984Y020702D01*
X023038Y020835D01*
X023038Y021293D01*
X022984Y021425D01*
X022882Y021526D01*
X022800Y021609D01*
X022667Y021664D01*
X022629Y021664D01*
X022537Y021702D01*
X021560Y021702D01*
X021457Y021659D01*
X021378Y021581D01*
X021335Y021478D01*
X021335Y021130D01*
X021367Y021054D01*
X021335Y020978D01*
X021335Y020630D01*
X021378Y020527D01*
X021408Y020497D01*
X021395Y020451D01*
X021395Y020304D01*
X022049Y020304D01*
X022702Y020304D01*
X022049Y020304D01*
X022049Y020304D01*
X022049Y020304D01*
X021395Y020304D01*
X021395Y020157D01*
X021404Y020125D01*
X021324Y020092D01*
X021128Y019895D01*
X021032Y019800D01*
X021025Y019783D01*
X021018Y019800D01*
X020922Y019895D01*
X020725Y020092D01*
X020703Y020102D01*
X020714Y020130D01*
X020714Y020478D01*
X020683Y020554D01*
X020714Y020630D01*
X020714Y020978D01*
X020683Y021054D01*
X020714Y021130D01*
X020714Y021478D01*
X020672Y021581D01*
X020593Y021659D01*
X020490Y021702D01*
X019513Y021702D01*
X019417Y021663D01*
X019238Y021663D01*
X019238Y021690D01*
X019195Y021793D01*
X019117Y021872D01*
X019014Y021915D01*
X018992Y021915D01*
X018967Y021976D01*
X018573Y022369D01*
X018472Y022470D01*
X018364Y022515D01*
X018408Y022559D01*
X018417Y022580D01*
X018533Y022465D01*
X018745Y022377D01*
X018974Y022377D01*
X019186Y022465D01*
X019349Y022627D01*
X019436Y022839D01*
X019436Y023068D01*
X019349Y023280D01*
X019186Y023443D01*
X018974Y023530D01*
X018745Y023530D01*
X018533Y023443D01*
X018428Y023338D01*
X018408Y023388D01*
X018384Y023412D01*
X018391Y023436D01*
X018391Y023713D01*
X017883Y023713D01*
X017883Y023729D01*
X017867Y023729D01*
X017867Y024197D01*
X017551Y024197D01*
X017495Y024182D01*
X017486Y024177D01*
X017486Y026135D01*
X017431Y026267D01*
X016605Y027094D01*
X016504Y027195D01*
X016372Y027249D01*
X014900Y027249D01*
X014894Y027266D01*
X014707Y027452D01*
X014464Y027553D01*
X014200Y027553D01*
X013957Y027452D01*
X013770Y027266D01*
X013670Y027022D01*
X013670Y026759D01*
X013770Y026515D01*
X013957Y026329D01*
X014200Y026228D01*
X014464Y026228D01*
X014707Y026329D01*
X014894Y026515D01*
X014900Y026532D01*
X016152Y026532D01*
X016769Y025915D01*
X016769Y025561D01*
X016588Y025666D01*
X016588Y025666D01*
X016256Y025700D01*
X015939Y025597D01*
X015939Y025597D01*
X015691Y025374D01*
X015555Y025069D01*
X015555Y024736D01*
X015691Y024431D01*
X015691Y024431D01*
X015939Y024207D01*
X015973Y024196D01*
X015920Y024182D01*
X015870Y024153D01*
X015829Y024112D01*
X015800Y024062D01*
X015785Y024006D01*
X015785Y023729D01*
X016293Y023729D01*
X016293Y023713D01*
X015785Y023713D01*
X015785Y023436D01*
X015792Y023412D01*
X015768Y023388D01*
X015725Y023285D01*
X015725Y022662D01*
X015768Y022559D01*
X015847Y022480D01*
X015950Y022437D01*
X016076Y022437D01*
X016119Y022333D01*
X016223Y022229D01*
X015976Y022229D01*
X015920Y022214D01*
X015907Y022206D01*
X015893Y022214D01*
X015837Y022229D01*
X015521Y022229D01*
X015521Y021761D01*
X015505Y021761D01*
X015505Y022229D01*
X015189Y022229D01*
X015133Y022214D01*
X015083Y022185D01*
X015042Y022144D01*
X015013Y022094D01*
X014998Y022038D01*
X014998Y021761D01*
X015505Y021761D01*
X015505Y021745D01*
X014998Y021745D01*
X014998Y021468D01*
X015004Y021443D01*
X014980Y021419D01*
X014938Y021316D01*
X014938Y020693D01*
X014980Y020591D01*
X014938Y020490D01*
X014938Y019866D01*
X014964Y019804D01*
X014938Y019742D01*
X014938Y019118D01*
X014980Y019015D01*
X015059Y018937D01*
X015154Y018897D01*
X015154Y018592D01*
X015133Y018541D01*
X015133Y018311D01*
X015221Y018099D01*
X015351Y017969D01*
X015351Y014079D01*
X015297Y014102D01*
X015295Y014102D01*
X015303Y014120D01*
X015303Y014342D01*
X015218Y014547D01*
X015061Y014703D01*
X014893Y014773D01*
X014974Y014806D01*
X015097Y014930D01*
X015164Y015091D01*
X015164Y015265D01*
X015145Y015310D01*
X015145Y015339D01*
X015219Y015413D01*
X015262Y015516D01*
X015262Y016218D01*
X015219Y016321D01*
X015140Y016400D01*
X015037Y016442D01*
X014453Y016442D01*
X014351Y016400D01*
X014332Y016381D01*
X014313Y016400D01*
X014258Y016423D01*
X014258Y016710D01*
X014372Y016824D01*
X014372Y016829D01*
X014633Y016568D01*
X014832Y016568D01*
X014832Y017048D01*
X014832Y017048D01*
X014832Y016568D01*
X015031Y016568D01*
X015312Y016849D01*
X015312Y017048D01*
X014832Y017048D01*
X014832Y017048D01*
X015312Y017048D01*
X015312Y017247D01*
X015031Y017528D01*
X014832Y017528D01*
X014633Y017528D01*
X014372Y017267D01*
X014372Y017272D01*
X014056Y017588D01*
X013608Y017588D01*
X013292Y017272D01*
X013292Y016824D01*
X013580Y016537D01*
X013580Y016423D01*
X013524Y016400D01*
X013445Y016321D01*
X013402Y016218D01*
X013402Y015532D01*
X013361Y015521D01*
X013311Y015492D01*
X013270Y015451D01*
X013241Y015401D01*
X013226Y015345D01*
X013226Y015068D01*
X013733Y015068D01*
X013733Y015052D01*
X013226Y015052D01*
X013226Y014775D01*
X013233Y014750D01*
X013209Y014726D01*
X013166Y014623D01*
X013166Y014396D01*
X013164Y014391D01*
X013164Y014232D01*
X013166Y014228D01*
X013166Y014000D01*
X013209Y013897D01*
X013288Y013819D01*
X013332Y013800D01*
X013288Y013781D01*
X013214Y013708D01*
X012234Y013708D01*
X012094Y013848D01*
X012094Y014985D01*
X012111Y015002D01*
X012160Y014973D01*
X012216Y014958D01*
X012482Y014958D01*
X012747Y014958D01*
X012803Y014973D01*
X012853Y015002D01*
X012894Y015043D01*
X012923Y015093D01*
X012938Y015149D01*
X012938Y015473D01*
X012482Y015473D01*
X012482Y015473D01*
X012482Y014958D01*
X012482Y015473D01*
X012482Y015473D01*
X012938Y015473D01*
X012938Y015797D01*
X012923Y015853D01*
X012904Y015885D01*
X012918Y015936D01*
X012918Y016253D01*
X012450Y016253D01*
X012450Y016269D01*
X012918Y016269D01*
X012918Y016585D01*
X012903Y016641D01*
X012882Y016678D01*
X012896Y016693D01*
X012939Y016795D01*
X012939Y017301D01*
X012896Y017403D01*
X012858Y017442D01*
X012896Y017480D01*
X012939Y017583D01*
X012939Y018088D01*
X012896Y018191D01*
X012882Y018205D01*
X012903Y018243D01*
X012918Y018299D01*
X012918Y018615D01*
X012450Y018615D01*
X012450Y018631D01*
X012434Y018631D01*
X012434Y019138D01*
X012434Y019402D01*
X012450Y019402D01*
X012450Y018631D01*
X012918Y018631D01*
X012918Y018947D01*
X012903Y019003D01*
X012895Y019017D01*
X012903Y019030D01*
X012918Y019086D01*
X012918Y019402D01*
X012450Y019402D01*
X012450Y019418D01*
X012918Y019418D01*
X012918Y019734D01*
X012903Y019790D01*
X012895Y019804D01*
X012903Y019817D01*
X012918Y019873D01*
X012918Y020190D01*
X012450Y020190D01*
X012450Y020206D01*
X012434Y020206D01*
X012434Y020713D01*
X012434Y020977D01*
X012450Y020977D01*
X012450Y020206D01*
X012918Y020206D01*
X012918Y020522D01*
X012903Y020578D01*
X012895Y020591D01*
X012903Y020605D01*
X012918Y020661D01*
X012918Y020977D01*
X012450Y020977D01*
X012450Y020993D01*
X012918Y020993D01*
X012918Y021309D01*
X012906Y021356D01*
X013377Y021356D01*
X013433Y021371D01*
X013483Y021400D01*
X013524Y021441D01*
X013553Y021491D01*
X013568Y021547D01*
X013568Y021772D01*
X012757Y021772D01*
X012757Y021772D01*
X013568Y021772D01*
X013568Y021998D01*
X013553Y022054D01*
X013524Y022104D01*
X013504Y022125D01*
X013506Y022126D01*
X013585Y022204D01*
X013628Y022307D01*
X013628Y022334D01*
X013678Y022455D01*
X013678Y023019D01*
X013628Y023140D01*
X013535Y023233D01*
X013413Y023284D01*
X011652Y023284D01*
X011676Y023307D01*
X011686Y023303D01*
X011860Y023303D01*
X012021Y023369D01*
X012145Y023493D01*
X012211Y023654D01*
X012211Y023828D01*
X012145Y023989D01*
X012021Y024113D01*
X011860Y024179D01*
X011750Y024179D01*
X011758Y024197D01*
X011758Y024337D01*
X011923Y024188D01*
X012240Y024085D01*
X012240Y024085D01*
X012572Y024120D01*
X012861Y024286D01*
X012861Y024286D01*
X012861Y024286D01*
X013057Y024556D01*
X013057Y024556D01*
X013127Y024883D01*
X013057Y025209D01*
X013057Y025209D01*
X012861Y025479D01*
X012572Y025646D01*
X012240Y025681D01*
X011923Y025578D01*
X011675Y025354D01*
X011539Y025050D01*
X011539Y025042D01*
X011533Y025045D01*
X010831Y025045D01*
X010812Y025037D01*
X010746Y025064D01*
X010044Y025064D01*
X009941Y025022D01*
X009903Y024983D01*
X009865Y025022D01*
X009762Y025064D01*
X009060Y025064D01*
X008957Y025022D01*
X008920Y024985D01*
X008631Y024985D01*
X008631Y024517D01*
X008615Y024517D01*
X008615Y024985D01*
X008299Y024985D01*
X008243Y024970D01*
X008193Y024941D01*
X008152Y024900D01*
X008123Y024849D01*
X008108Y024794D01*
X008108Y024517D01*
X008615Y024517D01*
X008615Y024501D01*
X008108Y024501D01*
X008108Y024316D01*
X007505Y024316D01*
X007402Y024274D01*
X007378Y024250D01*
X007353Y024256D01*
X007076Y024256D01*
X007076Y023749D01*
X007060Y023749D01*
X007060Y023733D01*
X007076Y023733D01*
X007076Y023226D01*
X007060Y023075D02*
X006783Y023075D01*
X006727Y023060D01*
X006677Y023031D01*
X006636Y022990D01*
X006607Y022940D01*
X006592Y022884D01*
X006592Y022568D01*
X007060Y022568D01*
X007060Y023075D01*
X007060Y023004D02*
X007076Y023004D01*
X007060Y022765D02*
X007076Y022765D01*
X006725Y023242D02*
X004769Y023242D01*
X004769Y023004D02*
X006650Y023004D01*
X006592Y022765D02*
X004769Y022765D01*
X004769Y022527D02*
X006592Y022527D01*
X006255Y022288D02*
X006220Y022288D01*
X006419Y021753D02*
X005867Y021753D01*
X005515Y022288D02*
X004769Y022288D01*
X004769Y022050D02*
X005292Y022050D01*
X005292Y021811D02*
X004769Y021811D01*
X004769Y021573D02*
X005292Y021573D01*
X005299Y021334D02*
X004769Y021334D01*
X004769Y021096D02*
X005292Y021096D01*
X005292Y020857D02*
X004769Y020857D01*
X004769Y020619D02*
X005323Y020619D01*
X005510Y020380D02*
X004769Y020380D01*
X004769Y020142D02*
X005510Y020142D01*
X005510Y019903D02*
X004769Y019903D01*
X004769Y019665D02*
X005510Y019665D01*
X005510Y019426D02*
X004769Y019426D01*
X004769Y019188D02*
X005510Y019188D01*
X005510Y018949D02*
X004769Y018949D01*
X004769Y018711D02*
X005510Y018711D01*
X005510Y018615D02*
X005510Y018299D01*
X005525Y018243D01*
X005532Y018229D01*
X005525Y018216D01*
X005510Y018160D01*
X005510Y017843D01*
X005978Y017843D01*
X005994Y017843D01*
X005994Y018615D01*
X005978Y018615D01*
X005510Y018615D01*
X005510Y018472D02*
X004769Y018472D01*
X004769Y018234D02*
X005530Y018234D01*
X005510Y017995D02*
X004769Y017995D01*
X004769Y017757D02*
X005510Y017757D01*
X005510Y017518D02*
X004769Y017518D01*
X004769Y017280D02*
X005587Y017280D01*
X005587Y017041D02*
X004769Y017041D01*
X004769Y016803D02*
X005587Y016803D01*
X005609Y016564D02*
X004769Y016564D01*
X004769Y016326D02*
X005587Y016326D01*
X005587Y016087D02*
X004769Y016087D01*
X004769Y015849D02*
X005622Y015849D01*
X005608Y015610D02*
X004769Y015610D01*
X004769Y015372D02*
X005608Y015372D01*
X005612Y015133D02*
X004769Y015133D01*
X004769Y014895D02*
X005588Y014895D01*
X005588Y014686D02*
X005588Y014362D01*
X005603Y014306D01*
X005632Y014255D01*
X005673Y014215D01*
X005723Y014186D01*
X005779Y014171D01*
X006045Y014171D01*
X006045Y014686D01*
X006045Y014686D01*
X006045Y014686D01*
X005588Y014686D01*
X005588Y014656D02*
X004769Y014656D01*
X004769Y014418D02*
X005588Y014418D01*
X005748Y014179D02*
X004769Y014179D01*
X004769Y013941D02*
X006471Y013941D01*
X006451Y014179D02*
X006341Y014179D01*
X006045Y014179D02*
X006045Y014179D01*
X006045Y014418D02*
X006045Y014418D01*
X006045Y014656D02*
X006045Y014656D01*
X006871Y014686D02*
X006871Y013485D01*
X007245Y013111D01*
X011182Y013111D01*
X011182Y013898D01*
X010705Y013702D02*
X009410Y013702D01*
X009410Y013696D02*
X009410Y014095D01*
X008820Y014095D01*
X008820Y014095D01*
X009410Y014095D01*
X009410Y014494D01*
X009395Y014550D01*
X009366Y014600D01*
X009325Y014641D01*
X009275Y014670D01*
X009219Y014685D01*
X008959Y014685D01*
X009010Y014707D01*
X009134Y014830D01*
X009134Y014830D01*
X009208Y014904D01*
X009461Y014904D01*
X009563Y014946D01*
X009642Y015025D01*
X009685Y015128D01*
X009685Y015818D01*
X009642Y015921D01*
X009614Y015950D01*
X009614Y016800D01*
X009628Y016775D01*
X009669Y016734D01*
X009720Y016705D01*
X009775Y016690D01*
X010092Y016690D01*
X010092Y017158D01*
X010108Y017158D01*
X010108Y017174D01*
X010615Y017174D01*
X010879Y017174D01*
X010879Y017158D01*
X010895Y017158D01*
X010895Y016690D01*
X011191Y016690D01*
X011158Y016612D01*
X011158Y015974D01*
X011127Y015983D01*
X010853Y015983D01*
X010853Y015478D01*
X010843Y015478D01*
X010843Y015468D01*
X010853Y015468D01*
X010853Y014964D01*
X011127Y014964D01*
X011183Y014979D01*
X011207Y014993D01*
X011260Y014941D01*
X011294Y014926D01*
X011294Y014411D01*
X011285Y014415D01*
X011080Y014415D01*
X010890Y014336D01*
X010745Y014191D01*
X010666Y014001D01*
X010666Y013796D01*
X010745Y013606D01*
X010782Y013568D01*
X010782Y013511D01*
X009241Y013511D01*
X009275Y013520D01*
X009325Y013549D01*
X009366Y013590D01*
X009395Y013640D01*
X009410Y013696D01*
X009410Y013941D02*
X010666Y013941D01*
X010740Y014179D02*
X009410Y014179D01*
X009410Y014418D02*
X011294Y014418D01*
X011294Y014656D02*
X009300Y014656D01*
X009198Y014895D02*
X011294Y014895D01*
X010843Y014964D02*
X010843Y015468D01*
X010378Y015468D01*
X010378Y015155D01*
X010393Y015099D01*
X010422Y015049D01*
X010463Y015008D01*
X010513Y014979D01*
X010569Y014964D01*
X010843Y014964D01*
X010843Y015133D02*
X010853Y015133D01*
X010843Y015372D02*
X010853Y015372D01*
X010843Y015478D02*
X010378Y015478D01*
X010378Y015792D01*
X010393Y015848D01*
X010422Y015898D01*
X010463Y015939D01*
X010513Y015968D01*
X010569Y015983D01*
X010843Y015983D01*
X010843Y015478D01*
X010843Y015610D02*
X010853Y015610D01*
X010843Y015849D02*
X010853Y015849D01*
X011158Y016087D02*
X009614Y016087D01*
X009614Y016326D02*
X011158Y016326D01*
X011158Y016564D02*
X009614Y016564D01*
X010108Y016690D02*
X010424Y016690D01*
X010480Y016705D01*
X010493Y016713D01*
X010507Y016705D01*
X010563Y016690D01*
X010879Y016690D01*
X010879Y017158D01*
X010108Y017158D01*
X010108Y016690D01*
X010108Y016803D02*
X010092Y016803D01*
X010092Y017041D02*
X010108Y017041D01*
X010879Y017041D02*
X010895Y017041D01*
X010879Y016803D02*
X010895Y016803D01*
X011675Y017048D02*
X012068Y017048D01*
X012068Y017835D02*
X011871Y017835D01*
X011773Y017934D01*
X011773Y018544D01*
X011694Y018623D01*
X012434Y018711D02*
X012450Y018711D01*
X012434Y018949D02*
X012450Y018949D01*
X012434Y019188D02*
X012450Y019188D01*
X012450Y019418D02*
X012434Y019418D01*
X012434Y019682D01*
X012434Y020190D01*
X012450Y020190D01*
X012450Y019418D01*
X012450Y019426D02*
X012434Y019426D01*
X012434Y019665D02*
X012450Y019665D01*
X012434Y019903D02*
X012450Y019903D01*
X012434Y020142D02*
X012450Y020142D01*
X012434Y020380D02*
X012450Y020380D01*
X012434Y020619D02*
X012450Y020619D01*
X012434Y020857D02*
X012450Y020857D01*
X012918Y020857D02*
X014938Y020857D01*
X014938Y021096D02*
X012918Y021096D01*
X012912Y021334D02*
X014945Y021334D01*
X014998Y021573D02*
X013568Y021573D01*
X013568Y021811D02*
X014998Y021811D01*
X015001Y022050D02*
X013554Y022050D01*
X013620Y022288D02*
X016164Y022288D01*
X016458Y022560D02*
X016694Y022324D01*
X017068Y022324D01*
X017088Y022186D01*
X016816Y021650D02*
X017360Y021650D01*
X017360Y021398D01*
X017360Y021133D01*
X017375Y021077D01*
X017404Y021028D01*
X017343Y020966D01*
X017300Y020864D01*
X017300Y020654D01*
X017096Y020654D01*
X017096Y020186D01*
X017080Y020186D01*
X017080Y020654D01*
X016860Y020654D01*
X016876Y020693D01*
X016876Y021316D01*
X016833Y021419D01*
X016809Y021443D01*
X016816Y021468D01*
X016816Y021650D01*
X016816Y021573D02*
X017360Y021573D01*
X017360Y021398D02*
X017875Y021398D01*
X017360Y021398D01*
X017360Y021334D02*
X016868Y021334D01*
X016876Y021096D02*
X017370Y021096D01*
X017300Y020857D02*
X016876Y020857D01*
X017080Y020619D02*
X017096Y020619D01*
X017080Y020380D02*
X017096Y020380D01*
X017875Y021398D02*
X017875Y021398D01*
X018654Y022288D02*
X022054Y022288D01*
X022035Y022326D02*
X022078Y022240D01*
X022135Y022163D01*
X022202Y022095D01*
X022280Y022038D01*
X022366Y021995D01*
X022457Y021965D01*
X022552Y021950D01*
X022590Y021950D01*
X022590Y022550D01*
X022610Y022550D01*
X022610Y022570D01*
X023209Y022570D01*
X023209Y022608D01*
X023194Y022703D01*
X023165Y022794D01*
X023121Y022879D01*
X023065Y022957D01*
X022997Y023025D01*
X022919Y023081D01*
X022834Y023125D01*
X022743Y023155D01*
X022648Y023170D01*
X022610Y023170D01*
X022610Y022570D01*
X022590Y022570D01*
X022590Y023170D01*
X022552Y023170D01*
X022457Y023155D01*
X022366Y023125D01*
X022280Y023081D01*
X022202Y023025D01*
X022135Y022957D01*
X022078Y022879D01*
X022035Y022794D01*
X022005Y022703D01*
X021990Y022608D01*
X021990Y022570D01*
X022590Y022570D01*
X022590Y022550D01*
X021990Y022550D01*
X021990Y022512D01*
X022005Y022417D01*
X022035Y022326D01*
X021990Y022527D02*
X019248Y022527D01*
X019406Y022765D02*
X020455Y022765D01*
X020440Y022793D02*
X020470Y022734D01*
X020509Y022681D01*
X020555Y022634D01*
X020609Y022596D01*
X020667Y022566D01*
X020730Y022545D01*
X020795Y022535D01*
X020828Y022535D01*
X020828Y022954D01*
X020828Y023372D01*
X020795Y023372D01*
X020730Y023362D01*
X020667Y023341D01*
X020609Y023311D01*
X020555Y023273D01*
X020509Y023226D01*
X020470Y023173D01*
X020440Y023114D01*
X020420Y023052D01*
X020410Y022986D01*
X020410Y022954D01*
X020828Y022954D01*
X020828Y022954D01*
X020828Y023372D01*
X020861Y023372D01*
X020926Y023362D01*
X020989Y023341D01*
X021047Y023311D01*
X021101Y023273D01*
X021147Y023226D01*
X021186Y023173D01*
X021216Y023114D01*
X021236Y023052D01*
X021246Y022986D01*
X021246Y022954D01*
X020828Y022954D01*
X020828Y022954D01*
X020828Y022954D01*
X020410Y022954D01*
X020410Y022921D01*
X020420Y022856D01*
X020440Y022793D01*
X020412Y023004D02*
X019436Y023004D01*
X019364Y023242D02*
X020525Y023242D01*
X020828Y023242D02*
X020828Y023242D01*
X020828Y023004D02*
X020828Y023004D01*
X020828Y022954D02*
X021246Y022954D01*
X021246Y022921D01*
X021236Y022856D01*
X021216Y022793D01*
X021186Y022734D01*
X021147Y022681D01*
X021101Y022634D01*
X021047Y022596D01*
X020989Y022566D01*
X020926Y022545D01*
X020861Y022535D01*
X020828Y022535D01*
X020828Y022954D01*
X020828Y022954D01*
X020828Y022765D02*
X020828Y022765D01*
X021202Y022765D02*
X022025Y022765D01*
X022181Y023004D02*
X021244Y023004D01*
X021131Y023242D02*
X023895Y023242D01*
X023895Y023004D02*
X023018Y023004D01*
X023174Y022765D02*
X023895Y022765D01*
X023895Y022527D02*
X023209Y022527D01*
X023209Y022512D02*
X023209Y022550D01*
X022610Y022550D01*
X022610Y021950D01*
X022648Y021950D01*
X022743Y021965D01*
X022834Y021995D01*
X022919Y022038D01*
X022997Y022095D01*
X023065Y022163D01*
X023121Y022240D01*
X023165Y022326D01*
X023194Y022417D01*
X023209Y022512D01*
X023146Y022288D02*
X023895Y022288D01*
X023895Y022050D02*
X022935Y022050D01*
X022610Y022050D02*
X022590Y022050D01*
X022590Y022288D02*
X022610Y022288D01*
X022590Y022527D02*
X022610Y022527D01*
X022590Y022765D02*
X022610Y022765D01*
X022590Y023004D02*
X022610Y023004D01*
X022265Y022050D02*
X018893Y022050D01*
X019178Y021811D02*
X023895Y021811D01*
X023895Y021573D02*
X022836Y021573D01*
X023021Y021334D02*
X023895Y021334D01*
X023895Y021096D02*
X023038Y021096D01*
X023038Y020857D02*
X023895Y020857D01*
X023895Y020619D02*
X022900Y020619D01*
X022702Y020380D02*
X023895Y020380D01*
X023895Y020142D02*
X022698Y020142D01*
X022762Y019903D02*
X023895Y019903D01*
X023895Y019665D02*
X022762Y019665D01*
X022702Y019426D02*
X023895Y019426D01*
X023895Y019188D02*
X022702Y019188D01*
X022702Y019304D02*
X022049Y019304D01*
X022702Y019304D01*
X022940Y018949D02*
X023895Y018949D01*
X023895Y018711D02*
X023038Y018711D01*
X023038Y018472D02*
X023895Y018472D01*
X023895Y018234D02*
X023005Y018234D01*
X022791Y017995D02*
X023895Y017995D01*
X023895Y017757D02*
X021935Y017757D01*
X021935Y017518D02*
X023895Y017518D01*
X023895Y017280D02*
X021935Y017280D01*
X021914Y017041D02*
X023895Y017041D01*
X023895Y016803D02*
X021817Y016803D01*
X021817Y016564D02*
X023895Y016564D01*
X023895Y016326D02*
X021817Y016326D01*
X021817Y016087D02*
X023895Y016087D01*
X023895Y015849D02*
X021817Y015849D01*
X021817Y015610D02*
X023895Y015610D01*
X023895Y015372D02*
X021817Y015372D01*
X021817Y015133D02*
X023895Y015133D01*
X023895Y014895D02*
X021817Y014895D01*
X021817Y014656D02*
X023895Y014656D01*
X023895Y014418D02*
X021817Y014418D01*
X021817Y014179D02*
X023895Y014179D01*
X023895Y013941D02*
X021817Y013941D01*
X021817Y013702D02*
X023895Y013702D01*
X023895Y013464D02*
X021857Y013464D01*
X021759Y013225D02*
X023895Y013225D01*
X023895Y012987D02*
X020281Y012987D01*
X020281Y013225D02*
X021078Y013225D01*
X020980Y013464D02*
X020281Y013464D01*
X020281Y013702D02*
X021021Y013702D01*
X021021Y013941D02*
X020365Y013941D01*
X020604Y014179D02*
X021021Y014179D01*
X021021Y014418D02*
X020983Y014418D01*
X020193Y014727D02*
X019655Y014189D01*
X019603Y014064D01*
X019603Y012111D01*
X019532Y012111D01*
X019429Y012069D01*
X019395Y012035D01*
X019395Y012928D01*
X019448Y012981D01*
X019515Y013142D01*
X019515Y013316D01*
X019448Y013477D01*
X019324Y013601D01*
X019273Y013622D01*
X019273Y015402D01*
X019485Y015614D01*
X019485Y016120D01*
X019273Y016331D01*
X019273Y016402D01*
X019485Y016614D01*
X019485Y017120D01*
X019180Y017425D01*
X019195Y017441D01*
X019233Y017532D01*
X019279Y017551D01*
X019322Y017594D01*
X019340Y017594D01*
X019502Y017661D01*
X019625Y017784D01*
X019675Y017906D01*
X020168Y017906D01*
X020158Y017896D01*
X020115Y017793D01*
X020115Y017091D01*
X020158Y016988D01*
X020233Y016912D01*
X020233Y014870D01*
X020193Y014773D01*
X020193Y014727D01*
X020122Y014656D02*
X019273Y014656D01*
X019273Y014418D02*
X019883Y014418D01*
X019651Y014179D02*
X019273Y014179D01*
X019273Y013941D02*
X019603Y013941D01*
X019603Y013702D02*
X019273Y013702D01*
X019454Y013464D02*
X019603Y013464D01*
X019603Y013225D02*
X019515Y013225D01*
X019450Y012987D02*
X019603Y012987D01*
X019603Y012748D02*
X019395Y012748D01*
X019395Y012510D02*
X019603Y012510D01*
X019603Y012271D02*
X019395Y012271D01*
X018717Y012271D02*
X016069Y012271D01*
X016069Y012033D02*
X018717Y012033D01*
X018717Y011794D02*
X016069Y011794D01*
X016069Y011556D02*
X018717Y011556D01*
X018717Y011317D02*
X016069Y011317D01*
X016069Y011079D02*
X018717Y011079D01*
X018717Y010840D02*
X016054Y010840D01*
X015873Y010602D02*
X018750Y010602D01*
X018864Y010461D02*
X018864Y010461D01*
X018963Y010363D02*
X015635Y010363D01*
X015396Y010125D02*
X019340Y010125D01*
X020281Y012271D02*
X023895Y012271D01*
X023895Y012033D02*
X021082Y012033D01*
X021584Y011794D02*
X023895Y011794D01*
X023895Y011556D02*
X021660Y011556D01*
X021606Y011317D02*
X023895Y011317D01*
X023895Y011079D02*
X021121Y011079D01*
X021554Y010840D02*
X023895Y010840D01*
X023895Y010602D02*
X021660Y010602D01*
X021618Y010363D02*
X023895Y010363D01*
X023895Y010125D02*
X021335Y010125D01*
X020281Y012510D02*
X023895Y012510D01*
X023895Y012748D02*
X020281Y012748D01*
X020233Y014895D02*
X019273Y014895D01*
X019273Y015133D02*
X020233Y015133D01*
X020233Y015372D02*
X019273Y015372D01*
X019481Y015610D02*
X020233Y015610D01*
X020233Y015849D02*
X019485Y015849D01*
X019485Y016087D02*
X020233Y016087D01*
X020233Y016326D02*
X019279Y016326D01*
X019435Y016564D02*
X020233Y016564D01*
X020233Y016803D02*
X019485Y016803D01*
X019485Y017041D02*
X020136Y017041D01*
X020115Y017280D02*
X019325Y017280D01*
X019227Y017518D02*
X020115Y017518D01*
X020115Y017757D02*
X019598Y017757D01*
X020915Y019903D02*
X021135Y019903D01*
X021400Y020142D02*
X020714Y020142D01*
X020714Y020380D02*
X021395Y020380D01*
X021340Y020619D02*
X020710Y020619D01*
X020714Y020857D02*
X021335Y020857D01*
X021350Y021096D02*
X020700Y021096D01*
X020714Y021334D02*
X021335Y021334D01*
X021375Y021573D02*
X020675Y021573D01*
X019095Y023481D02*
X023895Y023481D01*
X023895Y023719D02*
X017883Y023719D01*
X017883Y023729D02*
X018391Y023729D01*
X018391Y024006D01*
X018376Y024062D01*
X018347Y024112D01*
X018306Y024153D01*
X018256Y024182D01*
X018200Y024197D01*
X017883Y024197D01*
X017883Y023729D01*
X017867Y023958D02*
X017883Y023958D01*
X017867Y024196D02*
X017883Y024196D01*
X018204Y024196D02*
X023895Y024196D01*
X023895Y023958D02*
X018391Y023958D01*
X018391Y023481D02*
X018624Y023481D01*
X017875Y022973D02*
X017127Y022973D01*
X017088Y022934D01*
X016458Y022875D02*
X016458Y022560D01*
X016458Y022875D02*
X016301Y022954D01*
X016301Y022973D01*
X015725Y023004D02*
X013678Y023004D01*
X013678Y022765D02*
X015725Y022765D01*
X015800Y022527D02*
X013678Y022527D01*
X013514Y023242D02*
X015725Y023242D01*
X015785Y023481D02*
X012133Y023481D01*
X012211Y023719D02*
X016293Y023719D01*
X015785Y023958D02*
X012158Y023958D01*
X011923Y024188D02*
X011923Y024188D01*
X011914Y024196D02*
X011757Y024196D01*
X012364Y024922D02*
X013151Y024922D01*
X013120Y024912D02*
X015555Y024912D01*
X015513Y024922D02*
X016301Y024922D01*
X016030Y025627D02*
X012605Y025627D01*
X012572Y025646D02*
X012572Y025646D01*
X012861Y025479D02*
X012861Y025479D01*
X012861Y025479D01*
X012927Y025389D02*
X015707Y025389D01*
X015691Y025374D02*
X015691Y025374D01*
X015591Y025150D02*
X013070Y025150D01*
X013082Y024673D02*
X015583Y024673D01*
X015689Y024435D02*
X012969Y024435D01*
X012705Y024196D02*
X015972Y024196D01*
X015939Y024207D02*
X015939Y024207D01*
X016256Y025700D02*
X016256Y025700D01*
X016655Y025627D02*
X016769Y025627D01*
X016769Y025866D02*
X009868Y025866D01*
X009910Y025914D02*
X010132Y026400D01*
X010132Y026400D01*
X010208Y026930D01*
X010132Y027460D01*
X009910Y027946D01*
X009910Y027946D01*
X009559Y028351D01*
X009109Y028640D01*
X008596Y028791D01*
X008061Y028791D01*
X007547Y028640D01*
X007097Y028351D01*
X007097Y028351D01*
X007097Y028351D01*
X006747Y027946D01*
X006524Y027460D01*
X006524Y027460D01*
X006448Y026930D01*
X006448Y026930D01*
X006524Y026400D01*
X006747Y025914D01*
X006747Y025914D01*
X007097Y025509D01*
X007547Y025220D01*
X007547Y025220D01*
X008061Y025069D01*
X008596Y025069D01*
X009109Y025220D01*
X009559Y025509D01*
X009559Y025509D01*
X009559Y025509D01*
X009910Y025914D01*
X009910Y025914D01*
X009997Y026104D02*
X016580Y026104D01*
X016341Y026343D02*
X014721Y026343D01*
X013943Y026343D02*
X010106Y026343D01*
X010158Y026581D02*
X013743Y026581D01*
X013670Y026820D02*
X010192Y026820D01*
X010190Y027058D02*
X013684Y027058D01*
X013801Y027297D02*
X010155Y027297D01*
X010132Y027460D02*
X010132Y027460D01*
X010097Y027535D02*
X014157Y027535D01*
X014507Y027535D02*
X018567Y027535D01*
X018532Y027460D02*
X018532Y027460D01*
X018754Y027946D01*
X018754Y027946D01*
X019105Y028351D01*
X019105Y028351D01*
X019555Y028640D01*
X019555Y028640D01*
X020068Y028791D01*
X020603Y028791D01*
X021117Y028640D01*
X021117Y028640D01*
X021567Y028351D01*
X021567Y028351D01*
X021918Y027946D01*
X021918Y027946D01*
X022140Y027460D01*
X022140Y027460D01*
X022216Y026930D01*
X022140Y026400D01*
X021918Y025914D01*
X021918Y025914D01*
X021567Y025509D01*
X021567Y025509D01*
X021117Y025220D01*
X021117Y025220D01*
X020603Y025069D01*
X020068Y025069D01*
X019555Y025220D01*
X019555Y025220D01*
X019105Y025509D01*
X019105Y025509D01*
X018754Y025914D01*
X018754Y025914D01*
X018532Y026400D01*
X018456Y026930D01*
X018532Y027460D01*
X018509Y027297D02*
X014863Y027297D01*
X015671Y028407D02*
X015919Y028184D01*
X016236Y028081D01*
X016236Y028081D01*
X016568Y028116D01*
X016857Y028282D01*
X016857Y028282D01*
X016857Y028282D01*
X017053Y028552D01*
X017053Y028552D01*
X017123Y028879D01*
X017053Y029205D01*
X016857Y029475D01*
X016568Y029642D01*
X016236Y029677D01*
X015919Y029574D01*
X015671Y029350D01*
X015535Y029046D01*
X015535Y028712D01*
X015671Y028407D01*
X015671Y028407D01*
X015671Y028407D01*
X015635Y028489D02*
X012997Y028489D01*
X013057Y028572D02*
X012861Y028302D01*
X012861Y028302D01*
X012861Y028302D01*
X012572Y028135D01*
X012572Y028135D01*
X012240Y028100D01*
X012240Y028100D01*
X011923Y028203D01*
X011923Y028203D01*
X011675Y028427D01*
X011675Y028427D01*
X011539Y028732D01*
X011539Y029065D01*
X011675Y029370D01*
X011675Y029370D01*
X011923Y029593D01*
X012240Y029696D01*
X012572Y029662D01*
X012861Y029495D01*
X012861Y029495D01*
X013057Y029225D01*
X013057Y029225D01*
X013127Y028898D01*
X013127Y028898D01*
X013057Y028572D01*
X013057Y028572D01*
X013090Y028728D02*
X015535Y028728D01*
X015513Y028859D02*
X016301Y028859D01*
X015845Y028251D02*
X012772Y028251D01*
X013151Y028859D02*
X012364Y028859D01*
X011871Y028251D02*
X009646Y028251D01*
X009559Y028351D02*
X009559Y028351D01*
X009344Y028489D02*
X011647Y028489D01*
X011541Y028728D02*
X008811Y028728D01*
X009109Y028640D02*
X009109Y028640D01*
X009853Y028012D02*
X018811Y028012D01*
X018675Y027774D02*
X009989Y027774D01*
X011539Y028966D02*
X004769Y028966D01*
X004769Y028728D02*
X007845Y028728D01*
X007547Y028640D02*
X007547Y028640D01*
X007312Y028489D02*
X004769Y028489D01*
X004769Y028251D02*
X007010Y028251D01*
X006803Y028012D02*
X004769Y028012D01*
X004769Y027774D02*
X006668Y027774D01*
X006747Y027946D02*
X006747Y027946D01*
X006559Y027535D02*
X004769Y027535D01*
X004769Y027297D02*
X006501Y027297D01*
X006466Y027058D02*
X004769Y027058D01*
X004769Y026820D02*
X006464Y026820D01*
X006498Y026581D02*
X004769Y026581D01*
X004769Y026343D02*
X006551Y026343D01*
X006524Y026400D02*
X006524Y026400D01*
X006660Y026104D02*
X004769Y026104D01*
X004769Y025866D02*
X006788Y025866D01*
X006995Y025627D02*
X004769Y025627D01*
X004769Y025389D02*
X007285Y025389D01*
X007097Y025509D02*
X007097Y025509D01*
X007785Y025150D02*
X004769Y025150D01*
X004769Y024912D02*
X008164Y024912D01*
X008108Y024673D02*
X004769Y024673D01*
X004769Y024435D02*
X008108Y024435D01*
X008623Y024509D02*
X007226Y024509D01*
X007049Y024331D01*
X007049Y023761D01*
X007068Y023741D01*
X007060Y023749D02*
X006592Y023749D01*
X006592Y024065D01*
X006607Y024121D01*
X006636Y024171D01*
X006677Y024212D01*
X006727Y024241D01*
X006783Y024256D01*
X007060Y024256D01*
X007060Y023749D01*
X007060Y023719D02*
X007076Y023719D01*
X007060Y023481D02*
X007076Y023481D01*
X007060Y023958D02*
X007076Y023958D01*
X007060Y024196D02*
X007076Y024196D01*
X006661Y024196D02*
X004769Y024196D01*
X004769Y023958D02*
X006592Y023958D01*
X006592Y023719D02*
X004769Y023719D01*
X004769Y023481D02*
X006592Y023481D01*
X006655Y021792D02*
X007442Y021792D01*
X007914Y021336D02*
X007975Y021397D01*
X007977Y021403D01*
X008181Y021403D01*
X007958Y021180D01*
X007958Y021231D01*
X007943Y021286D01*
X007914Y021336D01*
X007915Y021334D02*
X008112Y021334D01*
X008033Y021379D02*
X007619Y020965D01*
X007442Y020965D01*
X007743Y020965D01*
X007743Y020965D01*
X007442Y020965D01*
X007442Y020965D01*
X006655Y020965D02*
X006615Y021005D01*
X005867Y021005D01*
X005978Y020142D02*
X005994Y020142D01*
X005978Y019903D02*
X005994Y019903D01*
X005978Y019665D02*
X005994Y019665D01*
X005978Y019426D02*
X005994Y019426D01*
X005978Y019188D02*
X005994Y019188D01*
X005978Y018949D02*
X005994Y018949D01*
X005978Y018711D02*
X005994Y018711D01*
X005978Y018472D02*
X005994Y018472D01*
X005978Y018234D02*
X005994Y018234D01*
X005978Y017995D02*
X005994Y017995D01*
X006734Y017835D02*
X006734Y017048D01*
X006458Y017048D01*
X007248Y016654D02*
X007286Y016693D01*
X007288Y016697D01*
X007315Y016690D01*
X007631Y016690D01*
X007631Y017158D01*
X007647Y017158D01*
X007647Y016690D01*
X007963Y016690D01*
X008019Y016705D01*
X008033Y016713D01*
X008046Y016705D01*
X008102Y016690D01*
X008419Y016690D01*
X008419Y017158D01*
X008434Y017158D01*
X008434Y016690D01*
X008751Y016690D01*
X008807Y016705D01*
X008814Y016709D01*
X008814Y016151D01*
X008743Y016222D01*
X008640Y016265D01*
X008550Y016265D01*
X008545Y016267D01*
X008386Y016267D01*
X008382Y016265D01*
X008292Y016265D01*
X008189Y016222D01*
X008110Y016144D01*
X008068Y016041D01*
X008068Y015951D01*
X008066Y015946D01*
X008066Y015568D01*
X008033Y015535D01*
X007955Y015612D01*
X007905Y015633D01*
X007923Y015664D01*
X007938Y015720D01*
X007938Y015867D01*
X007938Y016014D01*
X007923Y016070D01*
X007894Y016120D01*
X007853Y016161D01*
X007803Y016190D01*
X007747Y016205D01*
X007600Y016205D01*
X007600Y015867D01*
X007938Y015867D01*
X007600Y015867D01*
X007600Y015867D01*
X007600Y015867D01*
X007600Y016205D01*
X007453Y016205D01*
X007397Y016190D01*
X007347Y016161D01*
X007329Y016143D01*
X007329Y016158D01*
X007332Y016165D01*
X007332Y016356D01*
X007329Y016364D01*
X007329Y016513D01*
X007286Y016616D01*
X007248Y016654D01*
X007307Y016564D02*
X008814Y016564D01*
X008814Y016326D02*
X007332Y016326D01*
X007600Y016087D02*
X007600Y016087D01*
X007913Y016087D02*
X008087Y016087D01*
X008066Y015849D02*
X007938Y015849D01*
X007957Y015610D02*
X008066Y015610D01*
X008466Y015867D02*
X008466Y015080D01*
X009155Y015473D02*
X009214Y015532D01*
X009214Y018229D01*
X008797Y018717D02*
X008706Y018717D01*
X008706Y018974D01*
X008664Y019077D01*
X008626Y019115D01*
X008664Y019153D01*
X008706Y019256D01*
X008706Y019761D01*
X008703Y019771D01*
X008915Y019983D01*
X008915Y019795D01*
X008930Y019739D01*
X008959Y019689D01*
X009000Y019648D01*
X009050Y019619D01*
X009106Y019604D01*
X009383Y019604D01*
X009383Y020111D01*
X009399Y020111D01*
X009399Y019604D01*
X009499Y019604D01*
X009578Y019524D01*
X009593Y019518D01*
X009593Y019473D01*
X009320Y019473D01*
X009320Y019005D01*
X009304Y019005D01*
X009304Y018989D01*
X008797Y018989D01*
X008797Y018717D01*
X008797Y018949D02*
X008706Y018949D01*
X008797Y019005D02*
X008797Y019282D01*
X008812Y019338D01*
X008841Y019388D01*
X008882Y019429D01*
X008932Y019458D01*
X008988Y019473D01*
X009304Y019473D01*
X009304Y019005D01*
X008797Y019005D01*
X008797Y019188D02*
X008678Y019188D01*
X008706Y019426D02*
X008879Y019426D01*
X008983Y019665D02*
X008706Y019665D01*
X008835Y019903D02*
X008915Y019903D01*
X009304Y019426D02*
X009320Y019426D01*
X009304Y019188D02*
X009320Y019188D01*
X009383Y019665D02*
X009399Y019665D01*
X009383Y019903D02*
X009399Y019903D01*
X009728Y021462D02*
X009728Y021717D01*
X009960Y021717D01*
X009960Y021503D01*
X009828Y021503D01*
X009728Y021462D01*
X009728Y021573D02*
X009960Y021573D01*
X009960Y021717D02*
X009960Y021950D01*
X009728Y021950D01*
X009728Y022183D01*
X009860Y022183D01*
X009960Y022183D01*
X009960Y021950D01*
X010184Y021950D01*
X010184Y021828D01*
X010219Y021743D01*
X010208Y021717D01*
X009960Y021717D01*
X009960Y021811D02*
X010191Y021811D01*
X009960Y022050D02*
X009728Y022050D01*
X009728Y021950D02*
X009504Y021950D01*
X009504Y021717D01*
X009728Y021717D01*
X009728Y021950D01*
X009728Y021811D02*
X009504Y021811D01*
X009014Y022613D02*
X009014Y022624D01*
X008853Y022624D01*
X008732Y022674D01*
X008487Y022919D01*
X008349Y022919D01*
X008352Y022911D01*
X008352Y022806D01*
X008411Y022747D01*
X008608Y022550D01*
X008658Y022429D01*
X008658Y022342D01*
X008666Y022362D01*
X008684Y022379D01*
X008684Y022422D01*
X008699Y022478D01*
X008728Y022528D01*
X008769Y022569D01*
X008819Y022598D01*
X008875Y022613D01*
X009014Y022613D01*
X008727Y022527D02*
X008618Y022527D01*
X008640Y022765D02*
X008393Y022765D01*
X008615Y024673D02*
X008631Y024673D01*
X008615Y024912D02*
X008631Y024912D01*
X008871Y025150D02*
X011584Y025150D01*
X011675Y025354D02*
X011675Y025354D01*
X011713Y025389D02*
X009372Y025389D01*
X009109Y025220D02*
X009109Y025220D01*
X009661Y025627D02*
X012075Y025627D01*
X011923Y025578D02*
X011923Y025578D01*
X012240Y025681D02*
X012240Y025681D01*
X012572Y024120D02*
X012572Y024120D01*
X011675Y020985D02*
X010986Y020985D01*
X012907Y020619D02*
X014969Y020619D01*
X014938Y020380D02*
X012918Y020380D01*
X012918Y020142D02*
X014938Y020142D01*
X014938Y019903D02*
X012918Y019903D01*
X012918Y019665D02*
X014938Y019665D01*
X014938Y019426D02*
X012918Y019426D01*
X012918Y019188D02*
X014938Y019188D01*
X015047Y018949D02*
X012918Y018949D01*
X012918Y018711D02*
X013434Y018711D01*
X013422Y018699D02*
X013384Y018645D01*
X013354Y018587D01*
X013333Y018524D01*
X013323Y018459D01*
X013323Y018426D01*
X013741Y018426D01*
X013323Y018426D01*
X013323Y018393D01*
X013333Y018328D01*
X013354Y018265D01*
X013384Y018207D01*
X013422Y018153D01*
X013469Y018107D01*
X013522Y018068D01*
X013581Y018038D01*
X013643Y018018D01*
X013709Y018008D01*
X013741Y018008D01*
X013741Y018426D01*
X013741Y018426D01*
X013741Y018426D01*
X013741Y018844D01*
X013709Y018844D01*
X013643Y018834D01*
X013581Y018814D01*
X013522Y018784D01*
X013469Y018745D01*
X013422Y018699D01*
X013325Y018472D02*
X012918Y018472D01*
X012898Y018234D02*
X013370Y018234D01*
X013741Y018234D02*
X013741Y018234D01*
X013741Y018426D02*
X013741Y018008D01*
X013774Y018008D01*
X013839Y018018D01*
X013902Y018038D01*
X013961Y018068D01*
X014014Y018107D01*
X014061Y018153D01*
X014099Y018207D01*
X014129Y018265D01*
X014150Y018328D01*
X014160Y018393D01*
X014160Y018426D01*
X014160Y018459D01*
X014150Y018524D01*
X014129Y018587D01*
X014099Y018645D01*
X014061Y018699D01*
X014014Y018745D01*
X013961Y018784D01*
X013902Y018814D01*
X013839Y018834D01*
X013774Y018844D01*
X013741Y018844D01*
X013741Y018426D01*
X013741Y018426D01*
X014160Y018426D01*
X013741Y018426D01*
X013741Y018426D01*
X013741Y018472D02*
X013741Y018472D01*
X013741Y018711D02*
X013741Y018711D01*
X014049Y018711D02*
X015154Y018711D01*
X015133Y018472D02*
X014158Y018472D01*
X014113Y018234D02*
X015165Y018234D01*
X015325Y017995D02*
X012939Y017995D01*
X012939Y017757D02*
X015351Y017757D01*
X015351Y017518D02*
X015041Y017518D01*
X014832Y017518D02*
X014832Y017518D01*
X014832Y017528D02*
X014832Y017048D01*
X014832Y017048D01*
X014832Y017528D01*
X014623Y017518D02*
X014126Y017518D01*
X014364Y017280D02*
X014385Y017280D01*
X014399Y016803D02*
X014350Y016803D01*
X014258Y016564D02*
X015351Y016564D01*
X015351Y016326D02*
X015214Y016326D01*
X015262Y016087D02*
X015351Y016087D01*
X015351Y015849D02*
X015262Y015849D01*
X015262Y015610D02*
X015351Y015610D01*
X015351Y015372D02*
X015177Y015372D01*
X015164Y015133D02*
X015351Y015133D01*
X015351Y014895D02*
X015062Y014895D01*
X015108Y014656D02*
X015351Y014656D01*
X015351Y014418D02*
X015271Y014418D01*
X015303Y014179D02*
X015351Y014179D01*
X014726Y015178D02*
X014745Y015198D01*
X014745Y015867D01*
X014318Y015338D02*
X014287Y015265D01*
X014287Y015091D01*
X014354Y014930D01*
X014477Y014806D01*
X014578Y014765D01*
X014430Y014703D01*
X014397Y014671D01*
X014297Y014671D01*
X014274Y014726D01*
X014250Y014750D01*
X014257Y014775D01*
X014257Y015052D01*
X013749Y015052D01*
X013749Y015068D01*
X014257Y015068D01*
X014257Y015311D01*
X014313Y015334D01*
X014318Y015338D01*
X014287Y015133D02*
X014257Y015133D01*
X014257Y014895D02*
X014389Y014895D01*
X013978Y014272D02*
X013741Y014312D01*
X013564Y014312D01*
X013166Y014418D02*
X012094Y014418D01*
X012094Y014656D02*
X013180Y014656D01*
X013226Y014895D02*
X012094Y014895D01*
X012482Y015133D02*
X012482Y015133D01*
X012482Y015372D02*
X012482Y015372D01*
X012938Y015372D02*
X013233Y015372D01*
X013226Y015133D02*
X012934Y015133D01*
X012938Y015610D02*
X013402Y015610D01*
X013402Y015849D02*
X012924Y015849D01*
X012918Y016087D02*
X013402Y016087D01*
X013450Y016326D02*
X012918Y016326D01*
X012918Y016564D02*
X013552Y016564D01*
X013314Y016803D02*
X012939Y016803D01*
X012939Y017041D02*
X013292Y017041D01*
X013300Y017280D02*
X012939Y017280D01*
X012912Y017518D02*
X013538Y017518D01*
X014832Y017280D02*
X014832Y017280D01*
X014832Y017041D02*
X014832Y017041D01*
X014832Y016803D02*
X014832Y016803D01*
X015265Y016803D02*
X015351Y016803D01*
X015351Y017041D02*
X015312Y017041D01*
X015279Y017280D02*
X015351Y017280D01*
X016069Y017280D02*
X016425Y017280D01*
X016265Y017041D02*
X016069Y017041D01*
X016069Y016803D02*
X016265Y016803D01*
X016316Y016564D02*
X016069Y016564D01*
X016069Y016326D02*
X016471Y016326D01*
X016265Y016087D02*
X016069Y016087D01*
X016069Y015849D02*
X016265Y015849D01*
X016270Y015610D02*
X016069Y015610D01*
X016069Y015372D02*
X016477Y015372D01*
X016477Y015133D02*
X016069Y015133D01*
X016069Y014895D02*
X016477Y014895D01*
X016438Y014656D02*
X016069Y014656D01*
X016069Y014418D02*
X016272Y014418D01*
X016267Y014179D02*
X016069Y014179D01*
X016069Y013941D02*
X016426Y013941D01*
X016069Y013702D02*
X018477Y013702D01*
X018477Y013464D02*
X016069Y013464D01*
X016069Y013225D02*
X018522Y013225D01*
X018702Y012987D02*
X016069Y012987D01*
X016069Y012748D02*
X018717Y012748D01*
X018717Y012510D02*
X016069Y012510D01*
X016963Y013941D02*
X018477Y013941D01*
X018477Y014179D02*
X017144Y014179D01*
X017273Y014418D02*
X017462Y014418D01*
X018289Y014418D02*
X018477Y014418D01*
X017425Y017280D02*
X017325Y017280D01*
X017311Y017518D02*
X016069Y017518D01*
X016069Y017757D02*
X017300Y017757D01*
X017300Y017995D02*
X016095Y017995D01*
X016255Y018234D02*
X017324Y018234D01*
X017300Y018472D02*
X016287Y018472D01*
X016216Y018711D02*
X017300Y018711D01*
X016293Y021745D02*
X015521Y021745D01*
X015521Y021761D01*
X015785Y021761D01*
X016293Y021761D01*
X016293Y021745D01*
X015521Y021811D02*
X015505Y021811D01*
X015505Y022050D02*
X015521Y022050D01*
X017486Y024196D02*
X017547Y024196D01*
X017486Y024435D02*
X023895Y024435D01*
X023895Y024673D02*
X017486Y024673D01*
X017486Y024912D02*
X023895Y024912D01*
X023895Y025150D02*
X020879Y025150D01*
X021379Y025389D02*
X023895Y025389D01*
X023895Y025627D02*
X021669Y025627D01*
X021567Y025509D02*
X021567Y025509D01*
X021876Y025866D02*
X023895Y025866D01*
X023895Y026104D02*
X022005Y026104D01*
X022113Y026343D02*
X023895Y026343D01*
X023895Y026581D02*
X022166Y026581D01*
X022140Y026400D02*
X022140Y026400D01*
X022200Y026820D02*
X023895Y026820D01*
X023895Y027058D02*
X022198Y027058D01*
X022163Y027297D02*
X023895Y027297D01*
X023895Y027535D02*
X022105Y027535D01*
X021996Y027774D02*
X023895Y027774D01*
X023895Y028012D02*
X021861Y028012D01*
X021654Y028251D02*
X023895Y028251D01*
X023895Y028489D02*
X021352Y028489D01*
X020819Y028728D02*
X023895Y028728D01*
X023895Y028966D02*
X017104Y028966D01*
X017090Y028728D02*
X019853Y028728D01*
X019320Y028489D02*
X017007Y028489D01*
X016802Y028251D02*
X019018Y028251D01*
X019105Y028351D02*
X019105Y028351D01*
X018474Y027058D02*
X016640Y027058D01*
X016879Y026820D02*
X018472Y026820D01*
X018506Y026581D02*
X017117Y026581D01*
X017356Y026343D02*
X018558Y026343D01*
X018667Y026104D02*
X017486Y026104D01*
X017486Y025866D02*
X018796Y025866D01*
X019003Y025627D02*
X017486Y025627D01*
X017486Y025389D02*
X019292Y025389D01*
X019793Y025150D02*
X017486Y025150D01*
X018376Y022527D02*
X018471Y022527D01*
X022049Y019304D02*
X022049Y019304D01*
X016568Y028116D02*
X016568Y028116D01*
X015919Y028184D02*
X015919Y028184D01*
X015535Y028966D02*
X013112Y028966D01*
X013062Y029205D02*
X015606Y029205D01*
X015671Y029350D02*
X015671Y029350D01*
X015774Y029443D02*
X012899Y029443D01*
X012382Y029682D02*
X021826Y029682D01*
X021982Y029591D02*
X021559Y029835D01*
X021559Y029835D01*
X021214Y030181D01*
X021214Y030181D01*
X020970Y030604D01*
X020970Y030604D01*
X020843Y031075D01*
X020843Y032516D01*
X007821Y032516D01*
X007821Y031075D01*
X007694Y030604D01*
X007694Y030604D01*
X007450Y030181D01*
X007105Y029835D01*
X007105Y029835D01*
X006682Y029591D01*
X006682Y029591D01*
X006210Y029465D01*
X004769Y029465D01*
X004769Y009568D01*
X023895Y009568D01*
X023895Y029465D01*
X022454Y029465D01*
X021982Y029591D01*
X021982Y029591D01*
X021475Y029920D02*
X007189Y029920D01*
X007428Y030159D02*
X021236Y030159D01*
X021089Y030397D02*
X007575Y030397D01*
X007703Y030636D02*
X020961Y030636D01*
X020897Y030874D02*
X007767Y030874D01*
X007821Y031113D02*
X020843Y031113D01*
X020843Y031351D02*
X007821Y031351D01*
X007821Y031590D02*
X020843Y031590D01*
X020843Y031828D02*
X007821Y031828D01*
X007821Y032067D02*
X020843Y032067D01*
X020843Y032305D02*
X007821Y032305D01*
X006838Y029682D02*
X012194Y029682D01*
X011756Y029443D02*
X004769Y029443D01*
X004769Y029205D02*
X011601Y029205D01*
X015919Y029574D02*
X015919Y029574D01*
X016236Y029677D02*
X016236Y029677D01*
X016568Y029642D02*
X016568Y029642D01*
X016857Y029475D02*
X016857Y029475D01*
X016857Y029475D01*
X016880Y029443D02*
X023895Y029443D01*
X023895Y029205D02*
X017053Y029205D01*
X017053Y029205D01*
X008419Y017174D02*
X008419Y017158D01*
X007911Y017158D01*
X007647Y017158D01*
X007647Y017174D01*
X008419Y017174D01*
X008419Y017041D02*
X008434Y017041D01*
X008419Y016803D02*
X008434Y016803D01*
X007647Y016803D02*
X007631Y016803D01*
X007631Y017041D02*
X007647Y017041D01*
X006871Y015473D02*
X006871Y014686D01*
X006832Y015473D02*
X006871Y015473D01*
X007639Y015040D02*
X007639Y014276D01*
X007820Y014095D01*
X007077Y012748D02*
X004769Y012748D01*
X004769Y012510D02*
X007450Y012510D01*
X007405Y012495D02*
X007320Y012451D01*
X007242Y012395D01*
X007174Y012327D01*
X007118Y012250D01*
X007074Y012164D01*
X007044Y012073D01*
X007029Y011978D01*
X007029Y011940D01*
X007629Y011940D01*
X007629Y012540D01*
X007591Y012540D01*
X007496Y012525D01*
X007405Y012495D01*
X007629Y012510D02*
X007649Y012510D01*
X007649Y012540D02*
X007687Y012540D01*
X007782Y012525D01*
X007873Y012495D01*
X007959Y012451D01*
X008036Y012395D01*
X008104Y012327D01*
X008161Y012250D01*
X008204Y012164D01*
X008234Y012073D01*
X008249Y011978D01*
X008249Y011940D01*
X007649Y011940D01*
X007629Y011940D01*
X007629Y011920D01*
X007029Y011920D01*
X007029Y011882D01*
X007044Y011787D01*
X007074Y011696D01*
X007118Y011610D01*
X007174Y011533D01*
X007242Y011465D01*
X007320Y011408D01*
X007405Y011365D01*
X007496Y011335D01*
X007591Y011320D01*
X007629Y011320D01*
X007629Y011920D01*
X007649Y011920D01*
X007649Y011320D01*
X007687Y011320D01*
X007782Y011335D01*
X007873Y011365D01*
X007959Y011408D01*
X008036Y011465D01*
X008104Y011533D01*
X008161Y011610D01*
X008204Y011696D01*
X008234Y011787D01*
X008249Y011882D01*
X008249Y011920D01*
X007649Y011920D01*
X007649Y011940D01*
X007649Y012540D01*
X007829Y012510D02*
X009024Y012510D01*
X008980Y012495D02*
X008894Y012451D01*
X008817Y012395D01*
X008749Y012327D01*
X008692Y012250D01*
X008649Y012164D01*
X008619Y012073D01*
X008604Y011978D01*
X008604Y011940D01*
X009204Y011940D01*
X009204Y012540D01*
X009166Y012540D01*
X009071Y012525D01*
X008980Y012495D01*
X009204Y012510D02*
X009224Y012510D01*
X009224Y012540D02*
X009262Y012540D01*
X009357Y012525D01*
X009448Y012495D01*
X009533Y012451D01*
X009611Y012395D01*
X009679Y012327D01*
X009735Y012250D01*
X009779Y012164D01*
X009809Y012073D01*
X009824Y011978D01*
X009824Y011940D01*
X009224Y011940D01*
X009224Y011920D01*
X009824Y011920D01*
X009824Y011882D01*
X009809Y011787D01*
X009779Y011696D01*
X009735Y011610D01*
X009679Y011533D01*
X009611Y011465D01*
X009533Y011408D01*
X009448Y011365D01*
X009357Y011335D01*
X009262Y011320D01*
X009224Y011320D01*
X009224Y011920D01*
X009204Y011920D01*
X009204Y011320D01*
X009166Y011320D01*
X009071Y011335D01*
X008980Y011365D01*
X008894Y011408D01*
X008817Y011465D01*
X008749Y011533D01*
X008692Y011610D01*
X008649Y011696D01*
X008619Y011787D01*
X008604Y011882D01*
X008604Y011920D01*
X009204Y011920D01*
X009204Y011940D01*
X009224Y011940D01*
X009224Y012540D01*
X009403Y012510D02*
X013226Y012510D01*
X013226Y012748D02*
X011549Y012748D01*
X011690Y012987D02*
X011824Y012987D01*
X012068Y013308D02*
X013722Y013308D01*
X013741Y013288D01*
X013923Y013272D01*
X013954Y013272D02*
X013741Y013288D01*
X013741Y012540D02*
X013761Y012520D01*
X014234Y012520D01*
X014523Y012231D01*
X014745Y012231D01*
X014745Y011231D02*
X013751Y011231D01*
X013741Y011241D01*
X013834Y011317D02*
X004769Y011317D01*
X004769Y011079D02*
X013834Y011079D01*
X013834Y010840D02*
X004769Y010840D01*
X004769Y010602D02*
X013862Y010602D01*
X014120Y010363D02*
X004769Y010363D01*
X004769Y010125D02*
X014188Y010125D01*
X014303Y009886D02*
X004769Y009886D01*
X004769Y009648D02*
X023895Y009648D01*
X023895Y009886D02*
X015188Y009886D01*
X015240Y009968D02*
X015240Y009968D01*
X013834Y011556D02*
X009696Y011556D01*
X009810Y011794D02*
X013834Y011794D01*
X013834Y012033D02*
X009815Y012033D01*
X009720Y012271D02*
X013226Y012271D01*
X013734Y012271D02*
X013749Y012271D01*
X013734Y012510D02*
X013749Y012510D01*
X013191Y013941D02*
X012094Y013941D01*
X012094Y014179D02*
X013166Y014179D01*
X012068Y013308D02*
X011694Y013682D01*
X011694Y015513D01*
X010393Y015849D02*
X009672Y015849D01*
X009685Y015610D02*
X010378Y015610D01*
X010378Y015372D02*
X009685Y015372D01*
X009685Y015133D02*
X010384Y015133D01*
X009224Y012271D02*
X009204Y012271D01*
X009204Y012033D02*
X009224Y012033D01*
X009204Y011794D02*
X009224Y011794D01*
X009204Y011556D02*
X009224Y011556D01*
X008732Y011556D02*
X008121Y011556D01*
X008235Y011794D02*
X008618Y011794D01*
X008613Y012033D02*
X008240Y012033D01*
X008145Y012271D02*
X008708Y012271D01*
X007649Y012271D02*
X007629Y012271D01*
X007629Y012033D02*
X007649Y012033D01*
X007629Y011794D02*
X007649Y011794D01*
X007629Y011556D02*
X007649Y011556D01*
X007157Y011556D02*
X004769Y011556D01*
X004769Y011794D02*
X007043Y011794D01*
X007038Y012033D02*
X004769Y012033D01*
X004769Y012271D02*
X007133Y012271D01*
X006804Y012987D02*
X004769Y012987D01*
X004769Y013225D02*
X006566Y013225D01*
X006471Y013464D02*
X004769Y013464D01*
X004769Y013702D02*
X006471Y013702D01*
X006627Y007206D02*
X004767Y007206D01*
X004767Y004629D01*
X006210Y004629D01*
X006681Y004502D01*
X007103Y004259D01*
X007103Y004259D01*
X007448Y003914D01*
X007448Y003914D01*
X007692Y003491D01*
X007692Y003491D01*
X007818Y003020D01*
X007818Y001577D01*
X013545Y001577D01*
X013545Y007206D01*
X010042Y007206D01*
X010048Y007166D01*
X009972Y006659D01*
X009972Y006659D01*
X009749Y006197D01*
X009749Y006197D01*
X009400Y005821D01*
X009400Y005821D01*
X008956Y005565D01*
X008956Y005565D01*
X008457Y005451D01*
X008457Y005451D01*
X007945Y005489D01*
X007945Y005489D01*
X007468Y005677D01*
X007468Y005677D01*
X007067Y005996D01*
X007067Y005996D01*
X007067Y005996D01*
X006778Y006420D01*
X006778Y006420D01*
X006627Y006910D01*
X006627Y007206D01*
X006627Y007024D02*
X004767Y007024D01*
X004767Y006786D02*
X006666Y006786D01*
X006739Y006547D02*
X004767Y006547D01*
X004767Y006309D02*
X006854Y006309D01*
X007017Y006070D02*
X004767Y006070D01*
X004767Y005832D02*
X007274Y005832D01*
X007681Y005593D02*
X004767Y005593D01*
X004767Y005355D02*
X009489Y005355D01*
X009493Y005359D02*
X009387Y005253D01*
X009330Y005115D01*
X009330Y004965D01*
X009387Y004827D01*
X009493Y004721D01*
X009568Y004690D01*
X009443Y004474D01*
X009443Y004474D01*
X009426Y004375D01*
X009289Y004432D01*
X009139Y004432D01*
X009001Y004375D01*
X008895Y004269D01*
X008838Y004131D01*
X008838Y003981D01*
X008895Y003843D01*
X009001Y003737D01*
X009139Y003680D01*
X009289Y003680D01*
X009426Y003737D01*
X009443Y003638D01*
X009443Y003638D01*
X009553Y003448D01*
X009533Y003448D01*
X009395Y003390D01*
X009289Y003285D01*
X009232Y003146D01*
X009232Y002997D01*
X009289Y002859D01*
X009395Y002753D01*
X009533Y002696D01*
X009682Y002696D01*
X009821Y002753D01*
X009926Y002859D01*
X009983Y002996D01*
X010273Y002891D01*
X010216Y002753D01*
X010216Y002603D01*
X010273Y002465D01*
X010379Y002359D01*
X010517Y002302D01*
X010667Y002302D01*
X010805Y002359D01*
X010911Y002465D01*
X010968Y002603D01*
X010968Y002753D01*
X010911Y002891D01*
X011200Y002996D01*
X011257Y002859D01*
X011363Y002753D01*
X011501Y002696D01*
X011651Y002696D01*
X011789Y002753D01*
X011895Y002859D01*
X011952Y002997D01*
X011952Y003146D01*
X011895Y003285D01*
X011789Y003390D01*
X011651Y003448D01*
X011631Y003448D01*
X011740Y003638D01*
X011758Y003737D01*
X011895Y003680D01*
X012045Y003680D01*
X012183Y003737D01*
X012288Y003843D01*
X012346Y003981D01*
X012346Y004131D01*
X012288Y004269D01*
X012183Y004375D01*
X012045Y004432D01*
X011895Y004432D01*
X011758Y004375D01*
X011740Y004474D01*
X011631Y004664D01*
X011651Y004664D01*
X011789Y004721D01*
X011895Y004827D01*
X011952Y004965D01*
X011952Y005115D01*
X011895Y005253D01*
X011789Y005359D01*
X011651Y005416D01*
X011501Y005416D01*
X011363Y005359D01*
X011257Y005253D01*
X011200Y005115D01*
X010911Y005221D01*
X010968Y005359D01*
X010968Y005509D01*
X010911Y005647D01*
X010805Y005753D01*
X010667Y005810D01*
X010517Y005810D01*
X010379Y005753D01*
X010273Y005647D01*
X010216Y005509D01*
X010216Y005359D01*
X010273Y005221D01*
X010069Y005147D01*
X010025Y005253D01*
X009919Y005359D01*
X009781Y005416D01*
X009631Y005416D01*
X009493Y005359D01*
X009331Y005116D02*
X004767Y005116D01*
X004767Y004878D02*
X009367Y004878D01*
X009538Y004639D02*
X004767Y004639D01*
X006857Y004401D02*
X009064Y004401D01*
X009364Y004401D02*
X009430Y004401D01*
X010002Y004271D02*
X009964Y004056D01*
X010002Y003841D01*
X010111Y003652D01*
X010278Y003512D01*
X010483Y003437D01*
X010701Y003437D01*
X010906Y003512D01*
X011073Y003652D01*
X011182Y003841D01*
X011220Y004056D01*
X011182Y004271D01*
X011073Y004460D01*
X010906Y004600D01*
X010701Y004674D01*
X010483Y004674D01*
X010278Y004600D01*
X010111Y004460D01*
X010002Y004271D01*
X009983Y004162D02*
X011201Y004162D01*
X011197Y003924D02*
X009987Y003924D01*
X010092Y003685D02*
X011092Y003685D01*
X010726Y003447D02*
X010458Y003447D01*
X010057Y002970D02*
X009972Y002970D01*
X009767Y002731D02*
X010216Y002731D01*
X010262Y002493D02*
X007818Y002493D01*
X007818Y002731D02*
X009448Y002731D01*
X009243Y002970D02*
X007818Y002970D01*
X007768Y003208D02*
X009257Y003208D01*
X009530Y003447D02*
X007704Y003447D01*
X007580Y003685D02*
X009127Y003685D01*
X009301Y003685D02*
X009435Y003685D01*
X008862Y003924D02*
X007438Y003924D01*
X007200Y004162D02*
X008851Y004162D01*
X010077Y004401D02*
X011107Y004401D01*
X010798Y004639D02*
X010386Y004639D01*
X010218Y005355D02*
X009923Y005355D01*
X010251Y005593D02*
X009005Y005593D01*
X009400Y005821D02*
X009400Y005821D01*
X009410Y005832D02*
X013545Y005832D01*
X013545Y006070D02*
X009631Y006070D01*
X009803Y006309D02*
X013545Y006309D01*
X013545Y006547D02*
X009918Y006547D01*
X009991Y006786D02*
X013545Y006786D01*
X013545Y007024D02*
X010027Y007024D01*
X010933Y005593D02*
X013545Y005593D01*
X013545Y005355D02*
X011793Y005355D01*
X011952Y005116D02*
X013545Y005116D01*
X013545Y004878D02*
X011916Y004878D01*
X011645Y004639D02*
X013545Y004639D01*
X013545Y004401D02*
X012120Y004401D01*
X011819Y004401D02*
X011753Y004401D01*
X011740Y004474D02*
X011740Y004474D01*
X012333Y004162D02*
X013545Y004162D01*
X013545Y003924D02*
X012322Y003924D01*
X012057Y003685D02*
X013545Y003685D01*
X013545Y003662D02*
X013545Y001577D01*
X013151Y001577D01*
X013151Y007206D01*
X015513Y007206D01*
X015513Y004843D01*
X013545Y003662D01*
X013583Y003685D02*
X013151Y003685D01*
X013151Y003447D02*
X013545Y003447D01*
X011653Y003447D01*
X011740Y003638D02*
X011740Y003638D01*
X011749Y003685D02*
X011883Y003685D01*
X011927Y003208D02*
X013545Y003208D01*
X013151Y003208D01*
X013151Y002970D02*
X013545Y002970D01*
X011941Y002970D01*
X011736Y002731D02*
X013545Y002731D01*
X013151Y002731D01*
X013151Y002493D02*
X013545Y002493D01*
X010922Y002493D01*
X010968Y002731D02*
X011416Y002731D01*
X011212Y002970D02*
X011127Y002970D01*
X011199Y005116D02*
X011201Y005116D01*
X011359Y005355D02*
X010966Y005355D01*
X013151Y005355D02*
X014192Y005355D01*
X014196Y005380D02*
X014181Y005287D01*
X014181Y005247D01*
X014777Y005247D01*
X014777Y006231D01*
X014793Y006231D01*
X014793Y006247D01*
X015389Y006247D01*
X015389Y006287D01*
X015374Y006380D01*
X015344Y006471D01*
X015301Y006555D01*
X015245Y006632D01*
X015178Y006700D01*
X015101Y006755D01*
X015017Y006799D01*
X014926Y006828D01*
X014832Y006843D01*
X014793Y006843D01*
X014793Y006247D01*
X014777Y006247D01*
X014777Y006843D01*
X014737Y006843D01*
X014643Y006828D01*
X014553Y006799D01*
X014468Y006755D01*
X014391Y006700D01*
X014324Y006632D01*
X014268Y006555D01*
X014225Y006471D01*
X014196Y006380D01*
X014181Y006287D01*
X014181Y006247D01*
X014777Y006247D01*
X014777Y006231D01*
X014181Y006231D01*
X014181Y006191D01*
X014196Y006098D01*
X014225Y006007D01*
X014268Y005922D01*
X014324Y005846D01*
X014391Y005778D01*
X014446Y005739D01*
X014391Y005700D01*
X014324Y005632D01*
X014268Y005555D01*
X014225Y005471D01*
X014196Y005380D01*
X014181Y005231D02*
X014181Y005191D01*
X014196Y005098D01*
X014225Y005007D01*
X014268Y004922D01*
X014324Y004846D01*
X014391Y004778D01*
X014468Y004723D01*
X014553Y004679D01*
X014643Y004650D01*
X014737Y004635D01*
X014777Y004635D01*
X014777Y005231D01*
X014793Y005231D01*
X014793Y005247D01*
X015389Y005247D01*
X015389Y005287D01*
X015374Y005380D01*
X015344Y005471D01*
X015301Y005555D01*
X015245Y005632D01*
X015178Y005700D01*
X015124Y005739D01*
X015178Y005778D01*
X015245Y005846D01*
X015301Y005922D01*
X015344Y006007D01*
X015374Y006098D01*
X015389Y006191D01*
X015389Y006231D01*
X014793Y006231D01*
X014793Y005635D01*
X014793Y005247D01*
X014777Y005247D01*
X014777Y005231D01*
X014181Y005231D01*
X014193Y005116D02*
X013151Y005116D01*
X013151Y004878D02*
X014301Y004878D01*
X014777Y004878D02*
X014793Y004878D01*
X014777Y005116D02*
X014793Y005116D01*
X014793Y005231D02*
X014793Y004635D01*
X014832Y004635D01*
X014926Y004650D01*
X015017Y004679D01*
X015101Y004723D01*
X015178Y004778D01*
X015245Y004846D01*
X015301Y004922D01*
X015344Y005007D01*
X015374Y005098D01*
X015389Y005191D01*
X015389Y005231D01*
X014793Y005231D01*
X014793Y005355D02*
X014777Y005355D01*
X014777Y005593D02*
X014793Y005593D01*
X014777Y005832D02*
X014793Y005832D01*
X014777Y006070D02*
X014793Y006070D01*
X014777Y006309D02*
X014793Y006309D01*
X014777Y006547D02*
X014793Y006547D01*
X014777Y006786D02*
X014793Y006786D01*
X015042Y006786D02*
X015513Y006786D01*
X015513Y007024D02*
X013151Y007024D01*
X013151Y006786D02*
X014527Y006786D01*
X014264Y006547D02*
X013151Y006547D01*
X013151Y006309D02*
X014184Y006309D01*
X014205Y006070D02*
X013151Y006070D01*
X013151Y005832D02*
X014338Y005832D01*
X014296Y005593D02*
X013151Y005593D01*
X013151Y004639D02*
X014713Y004639D01*
X014777Y004639D02*
X014793Y004639D01*
X014857Y004639D02*
X015173Y004639D01*
X015269Y004878D02*
X015513Y004878D01*
X015513Y005116D02*
X015377Y005116D01*
X015378Y005355D02*
X015513Y005355D01*
X015513Y005593D02*
X015274Y005593D01*
X015231Y005832D02*
X015513Y005832D01*
X015513Y006070D02*
X015365Y006070D01*
X015385Y006309D02*
X015513Y006309D01*
X015513Y006547D02*
X015306Y006547D01*
X015907Y006547D02*
X018747Y006547D01*
X018786Y006420D02*
X018786Y006420D01*
X019075Y005996D01*
X019476Y005677D01*
X019953Y005489D01*
X020464Y005451D01*
X020464Y005451D01*
X020964Y005565D01*
X020964Y005565D01*
X021408Y005821D01*
X021408Y005821D01*
X021757Y006197D01*
X021757Y006197D01*
X021980Y006659D01*
X022056Y007166D01*
X022050Y007206D01*
X023897Y007206D01*
X023897Y004629D01*
X022454Y004629D01*
X021983Y004502D01*
X021561Y004259D01*
X021216Y003914D01*
X020972Y003491D01*
X020846Y003020D01*
X020846Y001577D01*
X015907Y001577D01*
X015907Y007206D01*
X018635Y007206D01*
X018635Y006910D01*
X018786Y006420D01*
X018862Y006309D02*
X015907Y006309D01*
X016301Y006309D01*
X016301Y006547D02*
X015907Y006547D01*
X015907Y006786D02*
X018673Y006786D01*
X018635Y007024D02*
X015907Y007024D01*
X016301Y007024D01*
X016301Y007206D02*
X016301Y004969D01*
X016230Y004819D01*
X016171Y004655D01*
X016126Y004487D01*
X016096Y004316D01*
X016083Y004176D01*
X016301Y004176D01*
X016301Y003936D01*
X016083Y003936D01*
X016096Y003796D01*
X016126Y003624D01*
X016171Y003456D01*
X016230Y003293D01*
X016301Y003143D01*
X016301Y001577D01*
X013938Y001577D01*
X013938Y003485D01*
X015907Y004666D01*
X015907Y007206D01*
X016301Y007206D01*
X016301Y006786D02*
X015907Y006786D01*
X015907Y006070D02*
X019025Y006070D01*
X019075Y005996D02*
X019075Y005996D01*
X019282Y005832D02*
X015907Y005832D01*
X016301Y005832D01*
X016301Y006070D02*
X015907Y006070D01*
X015907Y005593D02*
X017731Y005593D01*
X017753Y005647D02*
X017696Y005509D01*
X017696Y005359D01*
X017753Y005221D01*
X017549Y005147D01*
X017505Y005253D01*
X017399Y005359D01*
X017261Y005416D01*
X017112Y005416D01*
X016973Y005359D01*
X016868Y005253D01*
X016810Y005115D01*
X016810Y004965D01*
X016868Y004827D01*
X016973Y004721D01*
X017048Y004690D01*
X016924Y004474D01*
X016906Y004375D01*
X016769Y004432D01*
X016619Y004432D01*
X016481Y004375D01*
X016376Y004269D01*
X016318Y004131D01*
X016318Y003981D01*
X016376Y003843D01*
X016481Y003737D01*
X016619Y003680D01*
X016769Y003680D01*
X016906Y003737D01*
X016924Y003638D01*
X016924Y003638D01*
X017033Y003448D01*
X017013Y003448D01*
X016875Y003390D01*
X016769Y003285D01*
X016712Y003146D01*
X016712Y002997D01*
X016769Y002859D01*
X016875Y002753D01*
X017013Y002696D01*
X017163Y002696D01*
X017301Y002753D01*
X017407Y002859D01*
X017464Y002996D01*
X017753Y002891D01*
X017696Y002753D01*
X017696Y002603D01*
X017753Y002465D01*
X017859Y002359D01*
X017997Y002302D01*
X018147Y002302D01*
X018285Y002359D01*
X018391Y002465D01*
X018448Y002603D01*
X018448Y002753D01*
X018391Y002891D01*
X018681Y002996D01*
X018738Y002859D01*
X018843Y002753D01*
X018982Y002696D01*
X019131Y002696D01*
X019269Y002753D01*
X019375Y002859D01*
X019432Y002997D01*
X019432Y003146D01*
X019375Y003285D01*
X019269Y003390D01*
X019131Y003448D01*
X019111Y003448D01*
X019221Y003638D01*
X019238Y003737D01*
X019375Y003680D01*
X019525Y003680D01*
X019663Y003737D01*
X019769Y003843D01*
X019826Y003981D01*
X019826Y004131D01*
X019769Y004269D01*
X019663Y004375D01*
X019525Y004432D01*
X019375Y004432D01*
X019238Y004375D01*
X019221Y004474D01*
X019111Y004664D01*
X019131Y004664D01*
X019269Y004721D01*
X019375Y004827D01*
X019432Y004965D01*
X019432Y005115D01*
X019375Y005253D01*
X019269Y005359D01*
X019131Y005416D01*
X018982Y005416D01*
X018843Y005359D01*
X018738Y005253D01*
X018681Y005115D01*
X018391Y005221D01*
X018448Y005359D01*
X018448Y005509D01*
X018391Y005647D01*
X018285Y005753D01*
X018147Y005810D01*
X017997Y005810D01*
X017859Y005753D01*
X017753Y005647D01*
X017698Y005355D02*
X017404Y005355D01*
X016969Y005355D02*
X015907Y005355D01*
X016301Y005355D01*
X016301Y005593D02*
X015907Y005593D01*
X015907Y005116D02*
X016811Y005116D01*
X016847Y004878D02*
X015907Y004878D01*
X016258Y004878D01*
X016301Y005116D02*
X015907Y005116D01*
X015907Y004639D02*
X017019Y004639D01*
X016924Y004474D02*
X016924Y004474D01*
X016911Y004401D02*
X016845Y004401D01*
X016544Y004401D02*
X015907Y004401D01*
X016111Y004401D02*
X015464Y004401D01*
X015862Y004639D02*
X016166Y004639D01*
X016301Y004162D02*
X015067Y004162D01*
X014926Y003828D02*
X014832Y003843D01*
X014793Y003843D01*
X014793Y003247D01*
X015389Y003247D01*
X015389Y003287D01*
X015374Y003380D01*
X015344Y003471D01*
X015301Y003555D01*
X015245Y003632D01*
X015178Y003700D01*
X015101Y003755D01*
X015017Y003799D01*
X014926Y003828D01*
X014777Y003843D02*
X014737Y003843D01*
X014643Y003828D01*
X014553Y003799D01*
X014468Y003755D01*
X014391Y003700D01*
X014324Y003632D01*
X014268Y003555D01*
X014225Y003471D01*
X014196Y003380D01*
X014181Y003287D01*
X014181Y003247D01*
X014777Y003247D01*
X014777Y003843D01*
X014669Y003924D02*
X016084Y003924D01*
X015907Y003924D02*
X016342Y003924D01*
X016331Y004162D02*
X015907Y004162D01*
X015907Y003685D02*
X016607Y003685D01*
X016781Y003685D02*
X016915Y003685D01*
X017011Y003447D02*
X015907Y003447D01*
X015907Y003208D02*
X016738Y003208D01*
X016723Y002970D02*
X015907Y002970D01*
X015907Y002731D02*
X016928Y002731D01*
X017248Y002731D02*
X017696Y002731D01*
X017742Y002493D02*
X015907Y002493D01*
X015907Y002254D02*
X020846Y002254D01*
X020846Y002016D02*
X015907Y002016D01*
X015907Y001777D02*
X020846Y001777D01*
X020846Y002493D02*
X018402Y002493D01*
X018448Y002731D02*
X018897Y002731D01*
X018692Y002970D02*
X018607Y002970D01*
X018386Y003512D02*
X018181Y003437D01*
X017963Y003437D01*
X017758Y003512D01*
X017591Y003652D01*
X017482Y003841D01*
X017444Y004056D01*
X017482Y004271D01*
X017591Y004460D01*
X017758Y004600D01*
X017963Y004674D01*
X018181Y004674D01*
X018386Y004600D01*
X018553Y004460D01*
X018662Y004271D01*
X018700Y004056D01*
X018662Y003841D01*
X018553Y003652D01*
X018386Y003512D01*
X018206Y003447D02*
X017938Y003447D01*
X017572Y003685D02*
X018572Y003685D01*
X018677Y003924D02*
X017467Y003924D01*
X017463Y004162D02*
X018681Y004162D01*
X018587Y004401D02*
X017557Y004401D01*
X017866Y004639D02*
X018278Y004639D01*
X018679Y005116D02*
X018681Y005116D01*
X018839Y005355D02*
X018446Y005355D01*
X018413Y005593D02*
X019689Y005593D01*
X019274Y005355D02*
X023897Y005355D01*
X023897Y005593D02*
X021013Y005593D01*
X021418Y005832D02*
X023897Y005832D01*
X023897Y006070D02*
X021639Y006070D01*
X021811Y006309D02*
X023897Y006309D01*
X023897Y006547D02*
X021926Y006547D01*
X021980Y006659D02*
X021980Y006659D01*
X021999Y006786D02*
X023897Y006786D01*
X023897Y007024D02*
X022035Y007024D01*
X021983Y004502D02*
X021983Y004502D01*
X021807Y004401D02*
X019600Y004401D01*
X019300Y004401D02*
X019234Y004401D01*
X019221Y004474D02*
X019221Y004474D01*
X019126Y004639D02*
X023897Y004639D01*
X023897Y004878D02*
X019396Y004878D01*
X019432Y005116D02*
X023897Y005116D01*
X021561Y004259D02*
X021561Y004259D01*
X021464Y004162D02*
X019813Y004162D01*
X019802Y003924D02*
X021226Y003924D01*
X021216Y003914D02*
X021216Y003914D01*
X021084Y003685D02*
X019537Y003685D01*
X019363Y003685D02*
X019229Y003685D01*
X019221Y003638D02*
X019221Y003638D01*
X019134Y003447D02*
X020960Y003447D01*
X020972Y003491D02*
X020972Y003491D01*
X020896Y003208D02*
X019407Y003208D01*
X019421Y002970D02*
X020846Y002970D01*
X020846Y002731D02*
X019216Y002731D01*
X017537Y002970D02*
X017452Y002970D01*
X016301Y002970D02*
X015325Y002970D01*
X015344Y003007D02*
X015301Y002922D01*
X015245Y002846D01*
X015178Y002778D01*
X015124Y002739D01*
X015178Y002700D01*
X015245Y002632D01*
X015301Y002555D01*
X015344Y002471D01*
X015374Y002380D01*
X015389Y002287D01*
X015389Y002247D01*
X014793Y002247D01*
X014793Y002231D01*
X015389Y002231D01*
X015389Y002191D01*
X015374Y002098D01*
X015344Y002007D01*
X015301Y001922D01*
X015245Y001846D01*
X015178Y001778D01*
X015101Y001723D01*
X015017Y001679D01*
X014926Y001650D01*
X014832Y001635D01*
X014793Y001635D01*
X014793Y002231D01*
X014777Y002231D01*
X014777Y001635D01*
X014737Y001635D01*
X014643Y001650D01*
X014553Y001679D01*
X014468Y001723D01*
X014391Y001778D01*
X014324Y001846D01*
X014268Y001922D01*
X014225Y002007D01*
X014196Y002098D01*
X014181Y002191D01*
X014181Y002231D01*
X014777Y002231D01*
X014777Y002247D01*
X014777Y002843D01*
X014777Y003231D01*
X014793Y003231D01*
X014793Y003247D01*
X014777Y003247D01*
X014777Y003231D01*
X014181Y003231D01*
X014181Y003191D01*
X014196Y003098D01*
X014225Y003007D01*
X014268Y002922D01*
X014324Y002846D01*
X014391Y002778D01*
X014446Y002739D01*
X014391Y002700D01*
X014324Y002632D01*
X014268Y002555D01*
X014225Y002471D01*
X014196Y002380D01*
X014181Y002287D01*
X014181Y002247D01*
X014777Y002247D01*
X014793Y002247D01*
X014793Y003231D01*
X015389Y003231D01*
X015389Y003191D01*
X015374Y003098D01*
X015344Y003007D01*
X015389Y003208D02*
X016270Y003208D01*
X016174Y003447D02*
X015352Y003447D01*
X015193Y003685D02*
X016115Y003685D01*
X016301Y002731D02*
X015135Y002731D01*
X015333Y002493D02*
X016301Y002493D01*
X016301Y002254D02*
X015389Y002254D01*
X015347Y002016D02*
X016301Y002016D01*
X016301Y001777D02*
X015176Y001777D01*
X014793Y001777D02*
X014777Y001777D01*
X014777Y002016D02*
X014793Y002016D01*
X014777Y002254D02*
X014793Y002254D01*
X014777Y002493D02*
X014793Y002493D01*
X014777Y002731D02*
X014793Y002731D01*
X014777Y002970D02*
X014793Y002970D01*
X014777Y003208D02*
X014793Y003208D01*
X014777Y003447D02*
X014793Y003447D01*
X014777Y003685D02*
X014793Y003685D01*
X014377Y003685D02*
X014272Y003685D01*
X014217Y003447D02*
X013938Y003447D01*
X013938Y003208D02*
X014181Y003208D01*
X014244Y002970D02*
X013938Y002970D01*
X013938Y002731D02*
X014435Y002731D01*
X014236Y002493D02*
X013938Y002493D01*
X013938Y002254D02*
X014181Y002254D01*
X014222Y002016D02*
X013938Y002016D01*
X013938Y001777D02*
X014393Y001777D01*
X013545Y001777D02*
X007818Y001777D01*
X007818Y002016D02*
X013545Y002016D01*
X013151Y002016D01*
X013151Y002254D02*
X013545Y002254D01*
X007818Y002254D01*
X013151Y001777D02*
X013545Y001777D01*
X013151Y003924D02*
X013980Y003924D01*
X014378Y004162D02*
X013151Y004162D01*
X013151Y004401D02*
X014775Y004401D01*
D40*
X019509Y012324D03*
X019844Y017442D03*
X017088Y021379D03*
X014726Y021772D03*
D41*
X015513Y021753D02*
X016301Y021753D01*
X016301Y021005D02*
X016301Y020178D01*
X016301Y019430D02*
X017088Y019430D01*
X017214Y019304D01*
X020001Y019304D01*
X020001Y018804D02*
X018856Y018804D01*
X018663Y018603D01*
X017875Y018603D01*
X017875Y017855D02*
X017875Y016867D01*
X017875Y015867D01*
X017875Y014867D01*
X018682Y017835D02*
X018663Y017855D01*
X019076Y017855D01*
X019253Y018032D01*
X019525Y018304D01*
X020001Y018304D01*
X020001Y020304D02*
X019360Y020304D01*
X019253Y020198D01*
X018663Y020572D02*
X017875Y020572D01*
X018663Y020572D02*
X018895Y020804D01*
X020001Y020804D01*
X020001Y021304D02*
X018757Y021304D01*
X018663Y021398D01*
X018663Y021772D01*
X018269Y022166D01*
X017108Y022166D01*
X017088Y022186D01*
X017127Y022973D02*
X017127Y026064D01*
X016301Y026891D01*
X014332Y026891D01*
X015513Y021005D02*
X015513Y020178D01*
X015513Y019430D02*
X016301Y019430D01*
X015513Y019430D02*
X015513Y018623D01*
X015710Y018426D01*
X015710Y010946D01*
X015037Y010272D01*
X014787Y010272D01*
X014745Y010231D01*
X020651Y010552D02*
X021222Y010552D01*
X021222Y011536D02*
X020651Y011536D01*
D42*
X011694Y015513D02*
X011655Y015473D01*
X011694Y015513D02*
X011694Y016261D01*
X011675Y016280D01*
X011675Y017048D01*
X009155Y015473D02*
X008761Y015080D01*
X008466Y015080D01*
X007639Y015040D02*
X007600Y015080D01*
X007068Y022560D02*
X006458Y022560D01*
X007049Y022580D02*
X007049Y023150D01*
D43*
X008033Y021379D03*
D44*
X009608Y021615D03*
X010080Y021615D03*
X010080Y022087D03*
X009608Y022087D03*
X010631Y020670D03*
X011025Y021379D03*
X011261Y021694D03*
X011182Y022087D03*
X011025Y022402D03*
D45*
X006694Y020906D02*
X006694Y020237D01*
X006734Y020198D01*
X006694Y020906D02*
X006655Y020946D01*
X006655Y020965D01*
X006852Y016261D02*
X006458Y016261D01*
X006832Y016241D02*
X006852Y016261D01*
X006832Y016241D02*
X006832Y015473D01*
D46*
X013722Y014292D02*
X013741Y014312D01*
X013978Y014272D02*
X014704Y014272D01*
X014745Y014231D01*
X014704Y013272D02*
X013954Y013272D01*
X014704Y013272D02*
X014745Y013231D01*
X016694Y014292D02*
X016875Y014473D01*
X016875Y015867D01*
X016875Y016867D01*
X018875Y016867D02*
X018875Y015867D01*
X018875Y016867D02*
X018875Y013412D01*
X019056Y013231D01*
X020631Y014686D02*
X020631Y017422D01*
X020651Y017442D01*
X021399Y017442D02*
X021419Y017422D01*
X021419Y013505D01*
D47*
X020631Y014686D02*
X019942Y013997D01*
X019942Y011733D01*
X019824Y011615D01*
X019824Y011536D01*
X019824Y010552D02*
X019253Y010552D01*
X019056Y010749D01*
X019056Y013231D01*
X019074Y013231D01*
X019076Y013229D01*
X013919Y015867D02*
X013919Y016961D01*
X013832Y017048D01*
D48*
X011182Y013898D03*
X011182Y013111D03*
M02*
