G75*
%MOIN*%
%OFA0B0*%
%FSLAX24Y24*%
%IPPOS*%
%LPD*%
%AMOC8*
5,1,8,0,0,1.08239X$1,22.5*
%
%ADD10C,0.0080*%
%ADD11C,0.0110*%
%ADD12C,0.0060*%
%ADD13C,0.0000*%
%ADD14C,0.0079*%
%ADD15C,0.0050*%
%ADD16C,0.0039*%
%ADD17C,0.0120*%
%ADD18C,0.0100*%
D10*
X007580Y007166D02*
X007582Y007221D01*
X007588Y007275D01*
X007598Y007329D01*
X007612Y007381D01*
X007629Y007433D01*
X007651Y007483D01*
X007676Y007532D01*
X007704Y007579D01*
X007736Y007623D01*
X007771Y007665D01*
X007809Y007704D01*
X007850Y007741D01*
X007893Y007774D01*
X007938Y007804D01*
X007986Y007831D01*
X008035Y007854D01*
X008086Y007874D01*
X008139Y007890D01*
X008192Y007902D01*
X008246Y007910D01*
X008301Y007914D01*
X008355Y007914D01*
X008410Y007910D01*
X008464Y007902D01*
X008517Y007890D01*
X008570Y007874D01*
X008621Y007854D01*
X008670Y007831D01*
X008718Y007804D01*
X008763Y007774D01*
X008806Y007741D01*
X008847Y007704D01*
X008885Y007665D01*
X008920Y007623D01*
X008952Y007579D01*
X008980Y007532D01*
X009005Y007483D01*
X009027Y007433D01*
X009044Y007381D01*
X009058Y007329D01*
X009068Y007275D01*
X009074Y007221D01*
X009076Y007166D01*
X009074Y007111D01*
X009068Y007057D01*
X009058Y007003D01*
X009044Y006951D01*
X009027Y006899D01*
X009005Y006849D01*
X008980Y006800D01*
X008952Y006753D01*
X008920Y006709D01*
X008885Y006667D01*
X008847Y006628D01*
X008806Y006591D01*
X008763Y006558D01*
X008718Y006528D01*
X008670Y006501D01*
X008621Y006478D01*
X008570Y006458D01*
X008517Y006442D01*
X008464Y006430D01*
X008410Y006422D01*
X008355Y006418D01*
X008301Y006418D01*
X008246Y006422D01*
X008192Y006430D01*
X008139Y006442D01*
X008086Y006458D01*
X008035Y006478D01*
X007986Y006501D01*
X007938Y006528D01*
X007893Y006558D01*
X007850Y006591D01*
X007809Y006628D01*
X007771Y006667D01*
X007736Y006709D01*
X007704Y006753D01*
X007676Y006800D01*
X007651Y006849D01*
X007629Y006899D01*
X007612Y006951D01*
X007598Y007003D01*
X007588Y007057D01*
X007582Y007111D01*
X007580Y007166D01*
X010829Y007639D02*
X010989Y007639D01*
X010909Y007639D02*
X010909Y008120D01*
X010829Y008120D02*
X010989Y008120D01*
X011172Y007959D02*
X011253Y007959D01*
X011253Y007639D01*
X011333Y007639D02*
X011172Y007639D01*
X011253Y008120D02*
X011253Y008200D01*
X011516Y007959D02*
X011516Y007639D01*
X011516Y007959D02*
X011756Y007959D01*
X011836Y007879D01*
X011836Y007639D01*
X016341Y007639D02*
X016501Y007639D01*
X016421Y007639D02*
X016421Y008120D01*
X016341Y008120D02*
X016501Y008120D01*
X016684Y007879D02*
X016684Y007719D01*
X016764Y007639D01*
X016924Y007639D01*
X017005Y007719D01*
X017005Y007879D01*
X016924Y007959D01*
X016764Y007959D01*
X016684Y007879D01*
X017200Y007959D02*
X017200Y007719D01*
X017280Y007639D01*
X017520Y007639D01*
X017520Y007959D01*
X017716Y007959D02*
X017876Y007959D01*
X017796Y008040D02*
X017796Y007719D01*
X017876Y007639D01*
X019588Y007166D02*
X019590Y007221D01*
X019596Y007275D01*
X019606Y007329D01*
X019620Y007381D01*
X019637Y007433D01*
X019659Y007483D01*
X019684Y007532D01*
X019712Y007579D01*
X019744Y007623D01*
X019779Y007665D01*
X019817Y007704D01*
X019858Y007741D01*
X019901Y007774D01*
X019946Y007804D01*
X019994Y007831D01*
X020043Y007854D01*
X020094Y007874D01*
X020147Y007890D01*
X020200Y007902D01*
X020254Y007910D01*
X020309Y007914D01*
X020363Y007914D01*
X020418Y007910D01*
X020472Y007902D01*
X020525Y007890D01*
X020578Y007874D01*
X020629Y007854D01*
X020678Y007831D01*
X020726Y007804D01*
X020771Y007774D01*
X020814Y007741D01*
X020855Y007704D01*
X020893Y007665D01*
X020928Y007623D01*
X020960Y007579D01*
X020988Y007532D01*
X021013Y007483D01*
X021035Y007433D01*
X021052Y007381D01*
X021066Y007329D01*
X021076Y007275D01*
X021082Y007221D01*
X021084Y007166D01*
X021082Y007111D01*
X021076Y007057D01*
X021066Y007003D01*
X021052Y006951D01*
X021035Y006899D01*
X021013Y006849D01*
X020988Y006800D01*
X020960Y006753D01*
X020928Y006709D01*
X020893Y006667D01*
X020855Y006628D01*
X020814Y006591D01*
X020771Y006558D01*
X020726Y006528D01*
X020678Y006501D01*
X020629Y006478D01*
X020578Y006458D01*
X020525Y006442D01*
X020472Y006430D01*
X020418Y006422D01*
X020363Y006418D01*
X020309Y006418D01*
X020254Y006422D01*
X020200Y006430D01*
X020147Y006442D01*
X020094Y006458D01*
X020043Y006478D01*
X019994Y006501D01*
X019946Y006528D01*
X019901Y006558D01*
X019858Y006591D01*
X019817Y006628D01*
X019779Y006667D01*
X019744Y006709D01*
X019712Y006753D01*
X019684Y006800D01*
X019659Y006849D01*
X019637Y006899D01*
X019620Y006951D01*
X019606Y007003D01*
X019596Y007057D01*
X019590Y007111D01*
X019588Y007166D01*
X019588Y026930D02*
X019590Y026985D01*
X019596Y027039D01*
X019606Y027093D01*
X019620Y027145D01*
X019637Y027197D01*
X019659Y027247D01*
X019684Y027296D01*
X019712Y027343D01*
X019744Y027387D01*
X019779Y027429D01*
X019817Y027468D01*
X019858Y027505D01*
X019901Y027538D01*
X019946Y027568D01*
X019994Y027595D01*
X020043Y027618D01*
X020094Y027638D01*
X020147Y027654D01*
X020200Y027666D01*
X020254Y027674D01*
X020309Y027678D01*
X020363Y027678D01*
X020418Y027674D01*
X020472Y027666D01*
X020525Y027654D01*
X020578Y027638D01*
X020629Y027618D01*
X020678Y027595D01*
X020726Y027568D01*
X020771Y027538D01*
X020814Y027505D01*
X020855Y027468D01*
X020893Y027429D01*
X020928Y027387D01*
X020960Y027343D01*
X020988Y027296D01*
X021013Y027247D01*
X021035Y027197D01*
X021052Y027145D01*
X021066Y027093D01*
X021076Y027039D01*
X021082Y026985D01*
X021084Y026930D01*
X021082Y026875D01*
X021076Y026821D01*
X021066Y026767D01*
X021052Y026715D01*
X021035Y026663D01*
X021013Y026613D01*
X020988Y026564D01*
X020960Y026517D01*
X020928Y026473D01*
X020893Y026431D01*
X020855Y026392D01*
X020814Y026355D01*
X020771Y026322D01*
X020726Y026292D01*
X020678Y026265D01*
X020629Y026242D01*
X020578Y026222D01*
X020525Y026206D01*
X020472Y026194D01*
X020418Y026186D01*
X020363Y026182D01*
X020309Y026182D01*
X020254Y026186D01*
X020200Y026194D01*
X020147Y026206D01*
X020094Y026222D01*
X020043Y026242D01*
X019994Y026265D01*
X019946Y026292D01*
X019901Y026322D01*
X019858Y026355D01*
X019817Y026392D01*
X019779Y026431D01*
X019744Y026473D01*
X019712Y026517D01*
X019684Y026564D01*
X019659Y026613D01*
X019637Y026663D01*
X019620Y026715D01*
X019606Y026767D01*
X019596Y026821D01*
X019590Y026875D01*
X019588Y026930D01*
X018480Y029686D02*
X018319Y029686D01*
X018239Y029767D01*
X018239Y029927D02*
X018399Y030007D01*
X018480Y030007D01*
X018560Y029927D01*
X018560Y029767D01*
X018480Y029686D01*
X018239Y029927D02*
X018239Y030167D01*
X018560Y030167D01*
X018394Y030526D02*
X018233Y030526D01*
X018153Y030607D01*
X018153Y030767D01*
X018394Y030767D01*
X018474Y030687D01*
X018474Y030607D01*
X018394Y030526D01*
X018669Y030607D02*
X018989Y030927D01*
X018989Y030607D01*
X018909Y030526D01*
X018749Y030526D01*
X018669Y030607D01*
X018669Y030927D01*
X018749Y031007D01*
X018909Y031007D01*
X018989Y030927D01*
X019185Y030847D02*
X019185Y030526D01*
X019185Y030767D02*
X019505Y030767D01*
X019505Y030847D02*
X019505Y030526D01*
X019700Y030526D02*
X019860Y030687D01*
X019860Y030847D01*
X019700Y031007D01*
X019505Y030847D02*
X019345Y031007D01*
X019185Y030847D01*
X018474Y031007D02*
X018313Y030927D01*
X018153Y030767D01*
X017958Y031007D02*
X017638Y030526D01*
X017442Y030526D02*
X017442Y030847D01*
X017282Y031007D01*
X017122Y030847D01*
X017122Y030526D01*
X016927Y030607D02*
X016847Y030526D01*
X016687Y030526D01*
X016606Y030607D01*
X016927Y030927D01*
X016927Y030607D01*
X017122Y030767D02*
X017442Y030767D01*
X016927Y030927D02*
X016847Y031007D01*
X016687Y031007D01*
X016606Y030927D01*
X016606Y030607D01*
X016411Y030526D02*
X016091Y030526D01*
X016411Y030847D01*
X016411Y030927D01*
X016331Y031007D01*
X016171Y031007D01*
X016091Y030927D01*
X015981Y030167D02*
X015981Y029686D01*
X016177Y029767D02*
X016257Y029686D01*
X016417Y029686D01*
X016497Y029767D01*
X016497Y029847D01*
X016417Y029927D01*
X016257Y029927D01*
X016177Y030007D01*
X016177Y030087D01*
X016257Y030167D01*
X016417Y030167D01*
X016497Y030087D01*
X016692Y030087D02*
X016772Y030167D01*
X016933Y030167D01*
X017013Y030087D01*
X017013Y030007D01*
X016933Y029927D01*
X017013Y029847D01*
X017013Y029767D01*
X016933Y029686D01*
X016772Y029686D01*
X016692Y029767D01*
X016853Y029927D02*
X016933Y029927D01*
X017208Y029767D02*
X017208Y030087D01*
X017288Y030167D01*
X017448Y030167D01*
X017528Y030087D01*
X017208Y029767D01*
X017288Y029686D01*
X017448Y029686D01*
X017528Y029767D01*
X017528Y030087D01*
X017724Y030007D02*
X017884Y030167D01*
X017884Y029686D01*
X017724Y029686D02*
X018044Y029686D01*
X015981Y030167D02*
X015821Y030007D01*
X015661Y030167D01*
X015661Y029686D01*
X015466Y029767D02*
X015386Y029686D01*
X015226Y029686D01*
X015145Y029767D01*
X015145Y030087D01*
X015226Y030167D01*
X015386Y030167D01*
X015466Y030087D01*
X015380Y030526D02*
X015140Y030526D01*
X015060Y030607D01*
X015060Y030767D01*
X015140Y030847D01*
X015380Y030847D01*
X015380Y031007D02*
X015380Y030526D01*
X014864Y030687D02*
X014544Y030687D01*
X014544Y030767D02*
X014624Y030847D01*
X014784Y030847D01*
X014864Y030767D01*
X014864Y030687D01*
X014784Y030526D02*
X014624Y030526D01*
X014544Y030607D01*
X014544Y030767D01*
X014349Y030847D02*
X014108Y030847D01*
X014028Y030767D01*
X014108Y030687D01*
X014268Y030687D01*
X014349Y030607D01*
X014268Y030526D01*
X014028Y030526D01*
X013845Y030526D02*
X013684Y030526D01*
X013765Y030526D02*
X013765Y031007D01*
X013684Y031007D01*
X013489Y030847D02*
X013489Y030526D01*
X013249Y030526D01*
X013169Y030607D01*
X013169Y030847D01*
X012973Y030767D02*
X012973Y030607D01*
X012893Y030526D01*
X012653Y030526D01*
X012653Y030366D02*
X012653Y030847D01*
X012893Y030847D01*
X012973Y030767D01*
X012470Y031007D02*
X012309Y030847D01*
X012309Y030687D01*
X012470Y030526D01*
X012647Y030167D02*
X012807Y030167D01*
X012888Y030087D01*
X012567Y029767D01*
X012647Y029686D01*
X012807Y029686D01*
X012888Y029767D01*
X012888Y030087D01*
X013083Y030167D02*
X013083Y029927D01*
X013243Y030007D01*
X013323Y030007D01*
X013403Y029927D01*
X013403Y029767D01*
X013323Y029686D01*
X013163Y029686D01*
X013083Y029767D01*
X013083Y030167D02*
X013403Y030167D01*
X014114Y029686D02*
X014434Y030167D01*
X012647Y030167D02*
X012567Y030087D01*
X012567Y029767D01*
X012372Y029767D02*
X012372Y030087D01*
X012052Y029767D01*
X012132Y029686D01*
X012292Y029686D01*
X012372Y029767D01*
X012372Y030087D02*
X012292Y030167D01*
X012132Y030167D01*
X012052Y030087D01*
X012052Y029767D01*
X011856Y029767D02*
X011856Y029847D01*
X011776Y029927D01*
X011696Y029927D01*
X011776Y029927D02*
X011856Y030007D01*
X011856Y030087D01*
X011776Y030167D01*
X011616Y030167D01*
X011536Y030087D01*
X011341Y030087D02*
X011261Y030167D01*
X011100Y030167D01*
X011020Y030087D01*
X011020Y030007D01*
X011100Y029927D01*
X011261Y029927D01*
X011341Y029847D01*
X011341Y029767D01*
X011261Y029686D01*
X011100Y029686D01*
X011020Y029767D01*
X010825Y029686D02*
X010825Y030167D01*
X010665Y030007D01*
X010505Y030167D01*
X010505Y029686D01*
X010309Y029767D02*
X010229Y029686D01*
X010069Y029686D01*
X009989Y029767D01*
X009989Y030087D01*
X010069Y030167D01*
X010229Y030167D01*
X010309Y030087D01*
X010247Y030526D02*
X010567Y030526D01*
X010407Y030526D02*
X010407Y031007D01*
X010247Y030847D01*
X010052Y031007D02*
X009731Y030526D01*
X009536Y030526D02*
X009536Y030847D01*
X009376Y031007D01*
X009216Y030847D01*
X009216Y030526D01*
X009020Y030607D02*
X008940Y030526D01*
X008780Y030526D01*
X008700Y030607D01*
X008700Y030767D02*
X008860Y030847D01*
X008940Y030847D01*
X009020Y030767D01*
X009020Y030607D01*
X009216Y030767D02*
X009536Y030767D01*
X009020Y031007D02*
X008700Y031007D01*
X008700Y030767D01*
X010763Y030767D02*
X010923Y030847D01*
X011003Y030847D01*
X011083Y030767D01*
X011083Y030607D01*
X011003Y030526D01*
X010843Y030526D01*
X010763Y030607D01*
X010763Y030767D02*
X010763Y031007D01*
X011083Y031007D01*
X011278Y030847D02*
X011438Y031007D01*
X011598Y030847D01*
X011598Y030526D01*
X011598Y030767D02*
X011278Y030767D01*
X011278Y030847D02*
X011278Y030526D01*
X011536Y029767D02*
X011616Y029686D01*
X011776Y029686D01*
X011856Y029767D01*
X007580Y026930D02*
X007582Y026985D01*
X007588Y027039D01*
X007598Y027093D01*
X007612Y027145D01*
X007629Y027197D01*
X007651Y027247D01*
X007676Y027296D01*
X007704Y027343D01*
X007736Y027387D01*
X007771Y027429D01*
X007809Y027468D01*
X007850Y027505D01*
X007893Y027538D01*
X007938Y027568D01*
X007986Y027595D01*
X008035Y027618D01*
X008086Y027638D01*
X008139Y027654D01*
X008192Y027666D01*
X008246Y027674D01*
X008301Y027678D01*
X008355Y027678D01*
X008410Y027674D01*
X008464Y027666D01*
X008517Y027654D01*
X008570Y027638D01*
X008621Y027618D01*
X008670Y027595D01*
X008718Y027568D01*
X008763Y027538D01*
X008806Y027505D01*
X008847Y027468D01*
X008885Y027429D01*
X008920Y027387D01*
X008952Y027343D01*
X008980Y027296D01*
X009005Y027247D01*
X009027Y027197D01*
X009044Y027145D01*
X009058Y027093D01*
X009068Y027039D01*
X009074Y026985D01*
X009076Y026930D01*
X009074Y026875D01*
X009068Y026821D01*
X009058Y026767D01*
X009044Y026715D01*
X009027Y026663D01*
X009005Y026613D01*
X008980Y026564D01*
X008952Y026517D01*
X008920Y026473D01*
X008885Y026431D01*
X008847Y026392D01*
X008806Y026355D01*
X008763Y026322D01*
X008718Y026292D01*
X008670Y026265D01*
X008621Y026242D01*
X008570Y026222D01*
X008517Y026206D01*
X008464Y026194D01*
X008410Y026186D01*
X008355Y026182D01*
X008301Y026182D01*
X008246Y026186D01*
X008192Y026194D01*
X008139Y026206D01*
X008086Y026222D01*
X008035Y026242D01*
X007986Y026265D01*
X007938Y026292D01*
X007893Y026322D01*
X007850Y026355D01*
X007809Y026392D01*
X007771Y026431D01*
X007736Y026473D01*
X007704Y026517D01*
X007676Y026564D01*
X007651Y026613D01*
X007629Y026663D01*
X007612Y026715D01*
X007598Y026767D01*
X007588Y026821D01*
X007582Y026875D01*
X007580Y026930D01*
D11*
X010681Y031670D02*
X010878Y031670D01*
X010779Y031670D02*
X010779Y032260D01*
X010681Y032260D02*
X010878Y032260D01*
X011111Y031965D02*
X011209Y032064D01*
X011504Y032064D01*
X011504Y032260D02*
X011504Y031670D01*
X011209Y031670D01*
X011111Y031768D01*
X011111Y031965D01*
X011755Y031965D02*
X011755Y031768D01*
X011854Y031670D01*
X012149Y031670D01*
X012149Y032064D02*
X011854Y032064D01*
X011755Y031965D01*
X013044Y031867D02*
X013339Y031867D01*
X013438Y031965D01*
X013438Y032162D01*
X013339Y032260D01*
X013044Y032260D01*
X013044Y031670D01*
X013689Y031670D02*
X013689Y032064D01*
X013689Y031867D02*
X013886Y032064D01*
X013984Y032064D01*
X014226Y031965D02*
X014226Y031768D01*
X014324Y031670D01*
X014521Y031670D01*
X014620Y031768D01*
X014620Y031965D01*
X014521Y032064D01*
X014324Y032064D01*
X014226Y031965D01*
X014870Y032064D02*
X015166Y032064D01*
X015264Y031965D01*
X015264Y031768D01*
X015166Y031670D01*
X014870Y031670D01*
X014870Y032260D01*
X015515Y031965D02*
X015613Y032064D01*
X015810Y032064D01*
X015909Y031965D01*
X015909Y031867D01*
X015515Y031867D01*
X015515Y031965D02*
X015515Y031768D01*
X015613Y031670D01*
X015810Y031670D01*
X016804Y031867D02*
X017001Y031670D01*
X017198Y031867D01*
X017198Y032260D01*
X017449Y032064D02*
X017645Y032260D01*
X017645Y031670D01*
X017449Y031670D02*
X017842Y031670D01*
X016804Y031867D02*
X016804Y032260D01*
D12*
X018986Y026930D02*
X018988Y027003D01*
X018994Y027076D01*
X019004Y027148D01*
X019018Y027220D01*
X019035Y027291D01*
X019057Y027361D01*
X019082Y027430D01*
X019111Y027497D01*
X019143Y027562D01*
X019179Y027626D01*
X019219Y027688D01*
X019261Y027747D01*
X019307Y027804D01*
X019356Y027858D01*
X019408Y027910D01*
X019462Y027959D01*
X019519Y028005D01*
X019578Y028047D01*
X019640Y028087D01*
X019704Y028123D01*
X019769Y028155D01*
X019836Y028184D01*
X019905Y028209D01*
X019975Y028231D01*
X020046Y028248D01*
X020118Y028262D01*
X020190Y028272D01*
X020263Y028278D01*
X020336Y028280D01*
X020409Y028278D01*
X020482Y028272D01*
X020554Y028262D01*
X020626Y028248D01*
X020697Y028231D01*
X020767Y028209D01*
X020836Y028184D01*
X020903Y028155D01*
X020968Y028123D01*
X021032Y028087D01*
X021094Y028047D01*
X021153Y028005D01*
X021210Y027959D01*
X021264Y027910D01*
X021316Y027858D01*
X021365Y027804D01*
X021411Y027747D01*
X021453Y027688D01*
X021493Y027626D01*
X021529Y027562D01*
X021561Y027497D01*
X021590Y027430D01*
X021615Y027361D01*
X021637Y027291D01*
X021654Y027220D01*
X021668Y027148D01*
X021678Y027076D01*
X021684Y027003D01*
X021686Y026930D01*
X021684Y026857D01*
X021678Y026784D01*
X021668Y026712D01*
X021654Y026640D01*
X021637Y026569D01*
X021615Y026499D01*
X021590Y026430D01*
X021561Y026363D01*
X021529Y026298D01*
X021493Y026234D01*
X021453Y026172D01*
X021411Y026113D01*
X021365Y026056D01*
X021316Y026002D01*
X021264Y025950D01*
X021210Y025901D01*
X021153Y025855D01*
X021094Y025813D01*
X021032Y025773D01*
X020968Y025737D01*
X020903Y025705D01*
X020836Y025676D01*
X020767Y025651D01*
X020697Y025629D01*
X020626Y025612D01*
X020554Y025598D01*
X020482Y025588D01*
X020409Y025582D01*
X020336Y025580D01*
X020263Y025582D01*
X020190Y025588D01*
X020118Y025598D01*
X020046Y025612D01*
X019975Y025629D01*
X019905Y025651D01*
X019836Y025676D01*
X019769Y025705D01*
X019704Y025737D01*
X019640Y025773D01*
X019578Y025813D01*
X019519Y025855D01*
X019462Y025901D01*
X019408Y025950D01*
X019356Y026002D01*
X019307Y026056D01*
X019261Y026113D01*
X019219Y026172D01*
X019179Y026234D01*
X019143Y026298D01*
X019111Y026363D01*
X019082Y026430D01*
X019057Y026499D01*
X019035Y026569D01*
X019018Y026640D01*
X019004Y026712D01*
X018994Y026784D01*
X018988Y026857D01*
X018986Y026930D01*
X014332Y020385D02*
X014285Y020387D01*
X014237Y020393D01*
X014191Y020402D01*
X014145Y020415D01*
X014101Y020431D01*
X014057Y020452D01*
X014016Y020475D01*
X013977Y020501D01*
X013940Y020531D01*
X013905Y020564D01*
X013873Y020599D01*
X013844Y020636D01*
X014332Y021585D02*
X014377Y021583D01*
X014423Y021578D01*
X014467Y021570D01*
X014511Y021558D01*
X014554Y021542D01*
X014596Y021524D01*
X014636Y021502D01*
X014674Y021478D01*
X014710Y021451D01*
X014745Y021421D01*
X014776Y021388D01*
X014806Y021353D01*
X014332Y021585D02*
X014287Y021583D01*
X014241Y021578D01*
X014197Y021570D01*
X014153Y021558D01*
X014110Y021542D01*
X014068Y021524D01*
X014028Y021502D01*
X013990Y021478D01*
X013954Y021451D01*
X013919Y021421D01*
X013888Y021388D01*
X013858Y021353D01*
X014332Y020385D02*
X014378Y020387D01*
X014424Y020392D01*
X014470Y020401D01*
X014515Y020413D01*
X014558Y020429D01*
X014600Y020448D01*
X014641Y020471D01*
X014680Y020496D01*
X014716Y020524D01*
X014751Y020555D01*
X014783Y020589D01*
X014812Y020625D01*
X011950Y021772D02*
X011950Y022560D01*
X011675Y022363D02*
X011517Y022127D01*
X011832Y022127D01*
X011675Y022363D01*
X011399Y022560D02*
X011399Y021772D01*
X010664Y021163D02*
X010664Y021023D01*
X010524Y021023D01*
X010664Y022523D02*
X010664Y022663D01*
X010524Y022663D01*
X009164Y022663D02*
X009024Y022663D01*
X009024Y022523D01*
X009024Y021163D02*
X009024Y021023D01*
X008774Y021023D01*
X009024Y021023D02*
X009024Y020773D01*
X009024Y021023D02*
X009164Y021023D01*
X008092Y020572D02*
X007304Y020572D01*
X007501Y020296D02*
X007738Y020139D01*
X007738Y020454D01*
X007501Y020296D01*
X007304Y020020D02*
X008092Y020020D01*
X009835Y013762D02*
X009835Y013442D01*
X010055Y013442D01*
X010735Y013442D02*
X010955Y013442D01*
X010955Y013762D01*
X006978Y007166D02*
X006980Y007239D01*
X006986Y007312D01*
X006996Y007384D01*
X007010Y007456D01*
X007027Y007527D01*
X007049Y007597D01*
X007074Y007666D01*
X007103Y007733D01*
X007135Y007798D01*
X007171Y007862D01*
X007211Y007924D01*
X007253Y007983D01*
X007299Y008040D01*
X007348Y008094D01*
X007400Y008146D01*
X007454Y008195D01*
X007511Y008241D01*
X007570Y008283D01*
X007632Y008323D01*
X007696Y008359D01*
X007761Y008391D01*
X007828Y008420D01*
X007897Y008445D01*
X007967Y008467D01*
X008038Y008484D01*
X008110Y008498D01*
X008182Y008508D01*
X008255Y008514D01*
X008328Y008516D01*
X008401Y008514D01*
X008474Y008508D01*
X008546Y008498D01*
X008618Y008484D01*
X008689Y008467D01*
X008759Y008445D01*
X008828Y008420D01*
X008895Y008391D01*
X008960Y008359D01*
X009024Y008323D01*
X009086Y008283D01*
X009145Y008241D01*
X009202Y008195D01*
X009256Y008146D01*
X009308Y008094D01*
X009357Y008040D01*
X009403Y007983D01*
X009445Y007924D01*
X009485Y007862D01*
X009521Y007798D01*
X009553Y007733D01*
X009582Y007666D01*
X009607Y007597D01*
X009629Y007527D01*
X009646Y007456D01*
X009660Y007384D01*
X009670Y007312D01*
X009676Y007239D01*
X009678Y007166D01*
X009676Y007093D01*
X009670Y007020D01*
X009660Y006948D01*
X009646Y006876D01*
X009629Y006805D01*
X009607Y006735D01*
X009582Y006666D01*
X009553Y006599D01*
X009521Y006534D01*
X009485Y006470D01*
X009445Y006408D01*
X009403Y006349D01*
X009357Y006292D01*
X009308Y006238D01*
X009256Y006186D01*
X009202Y006137D01*
X009145Y006091D01*
X009086Y006049D01*
X009024Y006009D01*
X008960Y005973D01*
X008895Y005941D01*
X008828Y005912D01*
X008759Y005887D01*
X008689Y005865D01*
X008618Y005848D01*
X008546Y005834D01*
X008474Y005824D01*
X008401Y005818D01*
X008328Y005816D01*
X008255Y005818D01*
X008182Y005824D01*
X008110Y005834D01*
X008038Y005848D01*
X007967Y005865D01*
X007897Y005887D01*
X007828Y005912D01*
X007761Y005941D01*
X007696Y005973D01*
X007632Y006009D01*
X007570Y006049D01*
X007511Y006091D01*
X007454Y006137D01*
X007400Y006186D01*
X007348Y006238D01*
X007299Y006292D01*
X007253Y006349D01*
X007211Y006408D01*
X007171Y006470D01*
X007135Y006534D01*
X007103Y006599D01*
X007074Y006666D01*
X007049Y006735D01*
X007027Y006805D01*
X007010Y006876D01*
X006996Y006948D01*
X006986Y007020D01*
X006980Y007093D01*
X006978Y007166D01*
X009667Y004056D02*
X009669Y004116D01*
X009675Y004177D01*
X009685Y004236D01*
X009699Y004295D01*
X009716Y004353D01*
X009737Y004410D01*
X009762Y004465D01*
X009791Y004518D01*
X009823Y004570D01*
X009858Y004619D01*
X009897Y004666D01*
X009938Y004710D01*
X009982Y004751D01*
X010029Y004790D01*
X010078Y004825D01*
X010129Y004857D01*
X010183Y004886D01*
X010238Y004911D01*
X010295Y004932D01*
X010353Y004949D01*
X010412Y004963D01*
X010471Y004973D01*
X010532Y004979D01*
X010592Y004981D01*
X010652Y004979D01*
X010713Y004973D01*
X010772Y004963D01*
X010831Y004949D01*
X010889Y004932D01*
X010946Y004911D01*
X011001Y004886D01*
X011054Y004857D01*
X011106Y004825D01*
X011155Y004790D01*
X011202Y004751D01*
X011246Y004710D01*
X011287Y004666D01*
X011326Y004619D01*
X011361Y004570D01*
X011393Y004519D01*
X011422Y004465D01*
X011447Y004410D01*
X011468Y004353D01*
X011485Y004295D01*
X011499Y004236D01*
X011509Y004177D01*
X011515Y004116D01*
X011517Y004056D01*
X011515Y003996D01*
X011509Y003935D01*
X011499Y003876D01*
X011485Y003817D01*
X011468Y003759D01*
X011447Y003702D01*
X011422Y003647D01*
X011393Y003594D01*
X011361Y003542D01*
X011326Y003493D01*
X011287Y003446D01*
X011246Y003402D01*
X011202Y003361D01*
X011155Y003322D01*
X011106Y003287D01*
X011055Y003255D01*
X011001Y003226D01*
X010946Y003201D01*
X010889Y003180D01*
X010831Y003163D01*
X010772Y003149D01*
X010713Y003139D01*
X010652Y003133D01*
X010592Y003131D01*
X010532Y003133D01*
X010471Y003139D01*
X010412Y003149D01*
X010353Y003163D01*
X010295Y003180D01*
X010238Y003201D01*
X010183Y003226D01*
X010130Y003255D01*
X010078Y003287D01*
X010029Y003322D01*
X009982Y003361D01*
X009938Y003402D01*
X009897Y003446D01*
X009858Y003493D01*
X009823Y003542D01*
X009791Y003593D01*
X009762Y003647D01*
X009737Y003702D01*
X009716Y003759D01*
X009699Y003817D01*
X009685Y003876D01*
X009675Y003935D01*
X009669Y003996D01*
X009667Y004056D01*
X017147Y004056D02*
X017149Y004116D01*
X017155Y004177D01*
X017165Y004236D01*
X017179Y004295D01*
X017196Y004353D01*
X017217Y004410D01*
X017242Y004465D01*
X017271Y004518D01*
X017303Y004570D01*
X017338Y004619D01*
X017377Y004666D01*
X017418Y004710D01*
X017462Y004751D01*
X017509Y004790D01*
X017558Y004825D01*
X017609Y004857D01*
X017663Y004886D01*
X017718Y004911D01*
X017775Y004932D01*
X017833Y004949D01*
X017892Y004963D01*
X017951Y004973D01*
X018012Y004979D01*
X018072Y004981D01*
X018132Y004979D01*
X018193Y004973D01*
X018252Y004963D01*
X018311Y004949D01*
X018369Y004932D01*
X018426Y004911D01*
X018481Y004886D01*
X018534Y004857D01*
X018586Y004825D01*
X018635Y004790D01*
X018682Y004751D01*
X018726Y004710D01*
X018767Y004666D01*
X018806Y004619D01*
X018841Y004570D01*
X018873Y004519D01*
X018902Y004465D01*
X018927Y004410D01*
X018948Y004353D01*
X018965Y004295D01*
X018979Y004236D01*
X018989Y004177D01*
X018995Y004116D01*
X018997Y004056D01*
X018995Y003996D01*
X018989Y003935D01*
X018979Y003876D01*
X018965Y003817D01*
X018948Y003759D01*
X018927Y003702D01*
X018902Y003647D01*
X018873Y003594D01*
X018841Y003542D01*
X018806Y003493D01*
X018767Y003446D01*
X018726Y003402D01*
X018682Y003361D01*
X018635Y003322D01*
X018586Y003287D01*
X018535Y003255D01*
X018481Y003226D01*
X018426Y003201D01*
X018369Y003180D01*
X018311Y003163D01*
X018252Y003149D01*
X018193Y003139D01*
X018132Y003133D01*
X018072Y003131D01*
X018012Y003133D01*
X017951Y003139D01*
X017892Y003149D01*
X017833Y003163D01*
X017775Y003180D01*
X017718Y003201D01*
X017663Y003226D01*
X017610Y003255D01*
X017558Y003287D01*
X017509Y003322D01*
X017462Y003361D01*
X017418Y003402D01*
X017377Y003446D01*
X017338Y003493D01*
X017303Y003542D01*
X017271Y003593D01*
X017242Y003647D01*
X017217Y003702D01*
X017196Y003759D01*
X017179Y003817D01*
X017165Y003876D01*
X017155Y003935D01*
X017149Y003996D01*
X017147Y004056D01*
X018986Y007166D02*
X018988Y007239D01*
X018994Y007312D01*
X019004Y007384D01*
X019018Y007456D01*
X019035Y007527D01*
X019057Y007597D01*
X019082Y007666D01*
X019111Y007733D01*
X019143Y007798D01*
X019179Y007862D01*
X019219Y007924D01*
X019261Y007983D01*
X019307Y008040D01*
X019356Y008094D01*
X019408Y008146D01*
X019462Y008195D01*
X019519Y008241D01*
X019578Y008283D01*
X019640Y008323D01*
X019704Y008359D01*
X019769Y008391D01*
X019836Y008420D01*
X019905Y008445D01*
X019975Y008467D01*
X020046Y008484D01*
X020118Y008498D01*
X020190Y008508D01*
X020263Y008514D01*
X020336Y008516D01*
X020409Y008514D01*
X020482Y008508D01*
X020554Y008498D01*
X020626Y008484D01*
X020697Y008467D01*
X020767Y008445D01*
X020836Y008420D01*
X020903Y008391D01*
X020968Y008359D01*
X021032Y008323D01*
X021094Y008283D01*
X021153Y008241D01*
X021210Y008195D01*
X021264Y008146D01*
X021316Y008094D01*
X021365Y008040D01*
X021411Y007983D01*
X021453Y007924D01*
X021493Y007862D01*
X021529Y007798D01*
X021561Y007733D01*
X021590Y007666D01*
X021615Y007597D01*
X021637Y007527D01*
X021654Y007456D01*
X021668Y007384D01*
X021678Y007312D01*
X021684Y007239D01*
X021686Y007166D01*
X021684Y007093D01*
X021678Y007020D01*
X021668Y006948D01*
X021654Y006876D01*
X021637Y006805D01*
X021615Y006735D01*
X021590Y006666D01*
X021561Y006599D01*
X021529Y006534D01*
X021493Y006470D01*
X021453Y006408D01*
X021411Y006349D01*
X021365Y006292D01*
X021316Y006238D01*
X021264Y006186D01*
X021210Y006137D01*
X021153Y006091D01*
X021094Y006049D01*
X021032Y006009D01*
X020968Y005973D01*
X020903Y005941D01*
X020836Y005912D01*
X020767Y005887D01*
X020697Y005865D01*
X020626Y005848D01*
X020554Y005834D01*
X020482Y005824D01*
X020409Y005818D01*
X020336Y005816D01*
X020263Y005818D01*
X020190Y005824D01*
X020118Y005834D01*
X020046Y005848D01*
X019975Y005865D01*
X019905Y005887D01*
X019836Y005912D01*
X019769Y005941D01*
X019704Y005973D01*
X019640Y006009D01*
X019578Y006049D01*
X019519Y006091D01*
X019462Y006137D01*
X019408Y006186D01*
X019356Y006238D01*
X019307Y006292D01*
X019261Y006349D01*
X019219Y006408D01*
X019179Y006470D01*
X019143Y006534D01*
X019111Y006599D01*
X019082Y006666D01*
X019057Y006735D01*
X019035Y006805D01*
X019018Y006876D01*
X019004Y006948D01*
X018994Y007020D01*
X018988Y007093D01*
X018986Y007166D01*
X021857Y010385D02*
X021744Y010499D01*
X021744Y010725D01*
X021971Y010725D02*
X021971Y010499D01*
X021857Y010385D01*
X022112Y010555D02*
X022339Y010555D01*
X022226Y011426D02*
X022226Y011653D01*
X022339Y011540D02*
X022112Y011540D01*
X021971Y011483D02*
X021971Y011710D01*
X021744Y011710D02*
X021744Y011483D01*
X021857Y011369D01*
X021971Y011483D01*
X006978Y026930D02*
X006980Y027003D01*
X006986Y027076D01*
X006996Y027148D01*
X007010Y027220D01*
X007027Y027291D01*
X007049Y027361D01*
X007074Y027430D01*
X007103Y027497D01*
X007135Y027562D01*
X007171Y027626D01*
X007211Y027688D01*
X007253Y027747D01*
X007299Y027804D01*
X007348Y027858D01*
X007400Y027910D01*
X007454Y027959D01*
X007511Y028005D01*
X007570Y028047D01*
X007632Y028087D01*
X007696Y028123D01*
X007761Y028155D01*
X007828Y028184D01*
X007897Y028209D01*
X007967Y028231D01*
X008038Y028248D01*
X008110Y028262D01*
X008182Y028272D01*
X008255Y028278D01*
X008328Y028280D01*
X008401Y028278D01*
X008474Y028272D01*
X008546Y028262D01*
X008618Y028248D01*
X008689Y028231D01*
X008759Y028209D01*
X008828Y028184D01*
X008895Y028155D01*
X008960Y028123D01*
X009024Y028087D01*
X009086Y028047D01*
X009145Y028005D01*
X009202Y027959D01*
X009256Y027910D01*
X009308Y027858D01*
X009357Y027804D01*
X009403Y027747D01*
X009445Y027688D01*
X009485Y027626D01*
X009521Y027562D01*
X009553Y027497D01*
X009582Y027430D01*
X009607Y027361D01*
X009629Y027291D01*
X009646Y027220D01*
X009660Y027148D01*
X009670Y027076D01*
X009676Y027003D01*
X009678Y026930D01*
X009676Y026857D01*
X009670Y026784D01*
X009660Y026712D01*
X009646Y026640D01*
X009629Y026569D01*
X009607Y026499D01*
X009582Y026430D01*
X009553Y026363D01*
X009521Y026298D01*
X009485Y026234D01*
X009445Y026172D01*
X009403Y026113D01*
X009357Y026056D01*
X009308Y026002D01*
X009256Y025950D01*
X009202Y025901D01*
X009145Y025855D01*
X009086Y025813D01*
X009024Y025773D01*
X008960Y025737D01*
X008895Y025705D01*
X008828Y025676D01*
X008759Y025651D01*
X008689Y025629D01*
X008618Y025612D01*
X008546Y025598D01*
X008474Y025588D01*
X008401Y025582D01*
X008328Y025580D01*
X008255Y025582D01*
X008182Y025588D01*
X008110Y025598D01*
X008038Y025612D01*
X007967Y025629D01*
X007897Y025651D01*
X007828Y025676D01*
X007761Y025705D01*
X007696Y025737D01*
X007632Y025773D01*
X007570Y025813D01*
X007511Y025855D01*
X007454Y025901D01*
X007400Y025950D01*
X007348Y026002D01*
X007299Y026056D01*
X007253Y026113D01*
X007211Y026172D01*
X007171Y026234D01*
X007135Y026298D01*
X007103Y026363D01*
X007074Y026430D01*
X007049Y026499D01*
X007027Y026569D01*
X007010Y026640D01*
X006996Y026712D01*
X006986Y026784D01*
X006980Y026857D01*
X006978Y026930D01*
D13*
X005966Y004351D02*
X004489Y004351D01*
X004489Y029745D01*
X005966Y029745D01*
X006043Y029747D01*
X006120Y029753D01*
X006197Y029762D01*
X006273Y029775D01*
X006349Y029792D01*
X006423Y029813D01*
X006497Y029837D01*
X006569Y029865D01*
X006639Y029896D01*
X006708Y029931D01*
X006776Y029969D01*
X006841Y030010D01*
X006904Y030055D01*
X006965Y030103D01*
X007024Y030153D01*
X007080Y030206D01*
X007133Y030262D01*
X007183Y030321D01*
X007231Y030382D01*
X007276Y030445D01*
X007317Y030510D01*
X007355Y030578D01*
X007390Y030647D01*
X007421Y030717D01*
X007449Y030789D01*
X007473Y030863D01*
X007494Y030937D01*
X007511Y031013D01*
X007524Y031089D01*
X007533Y031166D01*
X007539Y031243D01*
X007541Y031320D01*
X007541Y032796D01*
X021123Y032796D01*
X021123Y031320D01*
X021125Y031243D01*
X021131Y031166D01*
X021140Y031089D01*
X021153Y031013D01*
X021170Y030937D01*
X021191Y030863D01*
X021215Y030789D01*
X021243Y030717D01*
X021274Y030647D01*
X021309Y030578D01*
X021347Y030510D01*
X021388Y030445D01*
X021433Y030382D01*
X021481Y030321D01*
X021531Y030262D01*
X021584Y030206D01*
X021640Y030153D01*
X021699Y030103D01*
X021760Y030055D01*
X021823Y030010D01*
X021888Y029969D01*
X021956Y029931D01*
X022025Y029896D01*
X022095Y029865D01*
X022167Y029837D01*
X022241Y029813D01*
X022315Y029792D01*
X022391Y029775D01*
X022467Y029762D01*
X022544Y029753D01*
X022621Y029747D01*
X022698Y029745D01*
X024175Y029745D01*
X024175Y004351D01*
X022698Y004351D01*
X022621Y004349D01*
X022544Y004343D01*
X022467Y004334D01*
X022391Y004321D01*
X022315Y004304D01*
X022241Y004283D01*
X022167Y004259D01*
X022095Y004231D01*
X022025Y004200D01*
X021956Y004165D01*
X021888Y004127D01*
X021823Y004086D01*
X021760Y004041D01*
X021699Y003993D01*
X021640Y003943D01*
X021584Y003890D01*
X021531Y003834D01*
X021481Y003775D01*
X021433Y003714D01*
X021388Y003651D01*
X021347Y003586D01*
X021309Y003518D01*
X021274Y003449D01*
X021243Y003379D01*
X021215Y003307D01*
X021191Y003233D01*
X021170Y003159D01*
X021153Y003083D01*
X021140Y003007D01*
X021131Y002930D01*
X021125Y002853D01*
X021123Y002776D01*
X021123Y001300D01*
X007541Y001300D01*
X007541Y002776D01*
X007539Y002853D01*
X007533Y002930D01*
X007524Y003007D01*
X007511Y003083D01*
X007494Y003159D01*
X007473Y003233D01*
X007449Y003307D01*
X007421Y003379D01*
X007390Y003449D01*
X007355Y003518D01*
X007317Y003586D01*
X007276Y003651D01*
X007231Y003714D01*
X007183Y003775D01*
X007133Y003834D01*
X007080Y003890D01*
X007024Y003943D01*
X006965Y003993D01*
X006904Y004041D01*
X006841Y004086D01*
X006776Y004127D01*
X006708Y004165D01*
X006639Y004200D01*
X006569Y004231D01*
X006497Y004259D01*
X006423Y004283D01*
X006349Y004304D01*
X006273Y004321D01*
X006197Y004334D01*
X006120Y004343D01*
X006043Y004349D01*
X005966Y004351D01*
X007698Y007166D02*
X007700Y007216D01*
X007706Y007266D01*
X007716Y007315D01*
X007730Y007363D01*
X007747Y007410D01*
X007768Y007455D01*
X007793Y007499D01*
X007821Y007540D01*
X007853Y007579D01*
X007887Y007616D01*
X007924Y007650D01*
X007964Y007680D01*
X008006Y007707D01*
X008050Y007731D01*
X008096Y007752D01*
X008143Y007768D01*
X008191Y007781D01*
X008241Y007790D01*
X008290Y007795D01*
X008341Y007796D01*
X008391Y007793D01*
X008440Y007786D01*
X008489Y007775D01*
X008537Y007760D01*
X008583Y007742D01*
X008628Y007720D01*
X008671Y007694D01*
X008712Y007665D01*
X008751Y007633D01*
X008787Y007598D01*
X008819Y007560D01*
X008849Y007520D01*
X008876Y007477D01*
X008899Y007433D01*
X008918Y007387D01*
X008934Y007339D01*
X008946Y007290D01*
X008954Y007241D01*
X008958Y007191D01*
X008958Y007141D01*
X008954Y007091D01*
X008946Y007042D01*
X008934Y006993D01*
X008918Y006945D01*
X008899Y006899D01*
X008876Y006855D01*
X008849Y006812D01*
X008819Y006772D01*
X008787Y006734D01*
X008751Y006699D01*
X008712Y006667D01*
X008671Y006638D01*
X008628Y006612D01*
X008583Y006590D01*
X008537Y006572D01*
X008489Y006557D01*
X008440Y006546D01*
X008391Y006539D01*
X008341Y006536D01*
X008290Y006537D01*
X008241Y006542D01*
X008191Y006551D01*
X008143Y006564D01*
X008096Y006580D01*
X008050Y006601D01*
X008006Y006625D01*
X007964Y006652D01*
X007924Y006682D01*
X007887Y006716D01*
X007853Y006753D01*
X007821Y006792D01*
X007793Y006833D01*
X007768Y006877D01*
X007747Y006922D01*
X007730Y006969D01*
X007716Y007017D01*
X007706Y007066D01*
X007700Y007116D01*
X007698Y007166D01*
X009608Y005040D02*
X009610Y005059D01*
X009615Y005078D01*
X009625Y005094D01*
X009637Y005109D01*
X009652Y005121D01*
X009668Y005131D01*
X009687Y005136D01*
X009706Y005138D01*
X009725Y005136D01*
X009744Y005131D01*
X009760Y005121D01*
X009775Y005109D01*
X009787Y005094D01*
X009797Y005078D01*
X009802Y005059D01*
X009804Y005040D01*
X009802Y005021D01*
X009797Y005002D01*
X009787Y004986D01*
X009775Y004971D01*
X009760Y004959D01*
X009744Y004949D01*
X009725Y004944D01*
X009706Y004942D01*
X009687Y004944D01*
X009668Y004949D01*
X009652Y004959D01*
X009637Y004971D01*
X009625Y004986D01*
X009615Y005002D01*
X009610Y005021D01*
X009608Y005040D01*
X010494Y005434D02*
X010496Y005453D01*
X010501Y005472D01*
X010511Y005488D01*
X010523Y005503D01*
X010538Y005515D01*
X010554Y005525D01*
X010573Y005530D01*
X010592Y005532D01*
X010611Y005530D01*
X010630Y005525D01*
X010646Y005515D01*
X010661Y005503D01*
X010673Y005488D01*
X010683Y005472D01*
X010688Y005453D01*
X010690Y005434D01*
X010688Y005415D01*
X010683Y005396D01*
X010673Y005380D01*
X010661Y005365D01*
X010646Y005353D01*
X010630Y005343D01*
X010611Y005338D01*
X010592Y005336D01*
X010573Y005338D01*
X010554Y005343D01*
X010538Y005353D01*
X010523Y005365D01*
X010511Y005380D01*
X010501Y005396D01*
X010496Y005415D01*
X010494Y005434D01*
X011478Y005040D02*
X011480Y005059D01*
X011485Y005078D01*
X011495Y005094D01*
X011507Y005109D01*
X011522Y005121D01*
X011538Y005131D01*
X011557Y005136D01*
X011576Y005138D01*
X011595Y005136D01*
X011614Y005131D01*
X011630Y005121D01*
X011645Y005109D01*
X011657Y005094D01*
X011667Y005078D01*
X011672Y005059D01*
X011674Y005040D01*
X011672Y005021D01*
X011667Y005002D01*
X011657Y004986D01*
X011645Y004971D01*
X011630Y004959D01*
X011614Y004949D01*
X011595Y004944D01*
X011576Y004942D01*
X011557Y004944D01*
X011538Y004949D01*
X011522Y004959D01*
X011507Y004971D01*
X011495Y004986D01*
X011485Y005002D01*
X011480Y005021D01*
X011478Y005040D01*
X011872Y004056D02*
X011874Y004075D01*
X011879Y004094D01*
X011889Y004110D01*
X011901Y004125D01*
X011916Y004137D01*
X011932Y004147D01*
X011951Y004152D01*
X011970Y004154D01*
X011989Y004152D01*
X012008Y004147D01*
X012024Y004137D01*
X012039Y004125D01*
X012051Y004110D01*
X012061Y004094D01*
X012066Y004075D01*
X012068Y004056D01*
X012066Y004037D01*
X012061Y004018D01*
X012051Y004002D01*
X012039Y003987D01*
X012024Y003975D01*
X012008Y003965D01*
X011989Y003960D01*
X011970Y003958D01*
X011951Y003960D01*
X011932Y003965D01*
X011916Y003975D01*
X011901Y003987D01*
X011889Y004002D01*
X011879Y004018D01*
X011874Y004037D01*
X011872Y004056D01*
X011478Y003072D02*
X011480Y003091D01*
X011485Y003110D01*
X011495Y003126D01*
X011507Y003141D01*
X011522Y003153D01*
X011538Y003163D01*
X011557Y003168D01*
X011576Y003170D01*
X011595Y003168D01*
X011614Y003163D01*
X011630Y003153D01*
X011645Y003141D01*
X011657Y003126D01*
X011667Y003110D01*
X011672Y003091D01*
X011674Y003072D01*
X011672Y003053D01*
X011667Y003034D01*
X011657Y003018D01*
X011645Y003003D01*
X011630Y002991D01*
X011614Y002981D01*
X011595Y002976D01*
X011576Y002974D01*
X011557Y002976D01*
X011538Y002981D01*
X011522Y002991D01*
X011507Y003003D01*
X011495Y003018D01*
X011485Y003034D01*
X011480Y003053D01*
X011478Y003072D01*
X010494Y002678D02*
X010496Y002697D01*
X010501Y002716D01*
X010511Y002732D01*
X010523Y002747D01*
X010538Y002759D01*
X010554Y002769D01*
X010573Y002774D01*
X010592Y002776D01*
X010611Y002774D01*
X010630Y002769D01*
X010646Y002759D01*
X010661Y002747D01*
X010673Y002732D01*
X010683Y002716D01*
X010688Y002697D01*
X010690Y002678D01*
X010688Y002659D01*
X010683Y002640D01*
X010673Y002624D01*
X010661Y002609D01*
X010646Y002597D01*
X010630Y002587D01*
X010611Y002582D01*
X010592Y002580D01*
X010573Y002582D01*
X010554Y002587D01*
X010538Y002597D01*
X010523Y002609D01*
X010511Y002624D01*
X010501Y002640D01*
X010496Y002659D01*
X010494Y002678D01*
X009510Y003072D02*
X009512Y003091D01*
X009517Y003110D01*
X009527Y003126D01*
X009539Y003141D01*
X009554Y003153D01*
X009570Y003163D01*
X009589Y003168D01*
X009608Y003170D01*
X009627Y003168D01*
X009646Y003163D01*
X009662Y003153D01*
X009677Y003141D01*
X009689Y003126D01*
X009699Y003110D01*
X009704Y003091D01*
X009706Y003072D01*
X009704Y003053D01*
X009699Y003034D01*
X009689Y003018D01*
X009677Y003003D01*
X009662Y002991D01*
X009646Y002981D01*
X009627Y002976D01*
X009608Y002974D01*
X009589Y002976D01*
X009570Y002981D01*
X009554Y002991D01*
X009539Y003003D01*
X009527Y003018D01*
X009517Y003034D01*
X009512Y003053D01*
X009510Y003072D01*
X009116Y004056D02*
X009118Y004075D01*
X009123Y004094D01*
X009133Y004110D01*
X009145Y004125D01*
X009160Y004137D01*
X009176Y004147D01*
X009195Y004152D01*
X009214Y004154D01*
X009233Y004152D01*
X009252Y004147D01*
X009268Y004137D01*
X009283Y004125D01*
X009295Y004110D01*
X009305Y004094D01*
X009310Y004075D01*
X009312Y004056D01*
X009310Y004037D01*
X009305Y004018D01*
X009295Y004002D01*
X009283Y003987D01*
X009268Y003975D01*
X009252Y003965D01*
X009233Y003960D01*
X009214Y003958D01*
X009195Y003960D01*
X009176Y003965D01*
X009160Y003975D01*
X009145Y003987D01*
X009133Y004002D01*
X009123Y004018D01*
X009118Y004037D01*
X009116Y004056D01*
X016596Y004056D02*
X016598Y004075D01*
X016603Y004094D01*
X016613Y004110D01*
X016625Y004125D01*
X016640Y004137D01*
X016656Y004147D01*
X016675Y004152D01*
X016694Y004154D01*
X016713Y004152D01*
X016732Y004147D01*
X016748Y004137D01*
X016763Y004125D01*
X016775Y004110D01*
X016785Y004094D01*
X016790Y004075D01*
X016792Y004056D01*
X016790Y004037D01*
X016785Y004018D01*
X016775Y004002D01*
X016763Y003987D01*
X016748Y003975D01*
X016732Y003965D01*
X016713Y003960D01*
X016694Y003958D01*
X016675Y003960D01*
X016656Y003965D01*
X016640Y003975D01*
X016625Y003987D01*
X016613Y004002D01*
X016603Y004018D01*
X016598Y004037D01*
X016596Y004056D01*
X016990Y003072D02*
X016992Y003091D01*
X016997Y003110D01*
X017007Y003126D01*
X017019Y003141D01*
X017034Y003153D01*
X017050Y003163D01*
X017069Y003168D01*
X017088Y003170D01*
X017107Y003168D01*
X017126Y003163D01*
X017142Y003153D01*
X017157Y003141D01*
X017169Y003126D01*
X017179Y003110D01*
X017184Y003091D01*
X017186Y003072D01*
X017184Y003053D01*
X017179Y003034D01*
X017169Y003018D01*
X017157Y003003D01*
X017142Y002991D01*
X017126Y002981D01*
X017107Y002976D01*
X017088Y002974D01*
X017069Y002976D01*
X017050Y002981D01*
X017034Y002991D01*
X017019Y003003D01*
X017007Y003018D01*
X016997Y003034D01*
X016992Y003053D01*
X016990Y003072D01*
X017974Y002678D02*
X017976Y002697D01*
X017981Y002716D01*
X017991Y002732D01*
X018003Y002747D01*
X018018Y002759D01*
X018034Y002769D01*
X018053Y002774D01*
X018072Y002776D01*
X018091Y002774D01*
X018110Y002769D01*
X018126Y002759D01*
X018141Y002747D01*
X018153Y002732D01*
X018163Y002716D01*
X018168Y002697D01*
X018170Y002678D01*
X018168Y002659D01*
X018163Y002640D01*
X018153Y002624D01*
X018141Y002609D01*
X018126Y002597D01*
X018110Y002587D01*
X018091Y002582D01*
X018072Y002580D01*
X018053Y002582D01*
X018034Y002587D01*
X018018Y002597D01*
X018003Y002609D01*
X017991Y002624D01*
X017981Y002640D01*
X017976Y002659D01*
X017974Y002678D01*
X018958Y003072D02*
X018960Y003091D01*
X018965Y003110D01*
X018975Y003126D01*
X018987Y003141D01*
X019002Y003153D01*
X019018Y003163D01*
X019037Y003168D01*
X019056Y003170D01*
X019075Y003168D01*
X019094Y003163D01*
X019110Y003153D01*
X019125Y003141D01*
X019137Y003126D01*
X019147Y003110D01*
X019152Y003091D01*
X019154Y003072D01*
X019152Y003053D01*
X019147Y003034D01*
X019137Y003018D01*
X019125Y003003D01*
X019110Y002991D01*
X019094Y002981D01*
X019075Y002976D01*
X019056Y002974D01*
X019037Y002976D01*
X019018Y002981D01*
X019002Y002991D01*
X018987Y003003D01*
X018975Y003018D01*
X018965Y003034D01*
X018960Y003053D01*
X018958Y003072D01*
X019352Y004056D02*
X019354Y004075D01*
X019359Y004094D01*
X019369Y004110D01*
X019381Y004125D01*
X019396Y004137D01*
X019412Y004147D01*
X019431Y004152D01*
X019450Y004154D01*
X019469Y004152D01*
X019488Y004147D01*
X019504Y004137D01*
X019519Y004125D01*
X019531Y004110D01*
X019541Y004094D01*
X019546Y004075D01*
X019548Y004056D01*
X019546Y004037D01*
X019541Y004018D01*
X019531Y004002D01*
X019519Y003987D01*
X019504Y003975D01*
X019488Y003965D01*
X019469Y003960D01*
X019450Y003958D01*
X019431Y003960D01*
X019412Y003965D01*
X019396Y003975D01*
X019381Y003987D01*
X019369Y004002D01*
X019359Y004018D01*
X019354Y004037D01*
X019352Y004056D01*
X018958Y005040D02*
X018960Y005059D01*
X018965Y005078D01*
X018975Y005094D01*
X018987Y005109D01*
X019002Y005121D01*
X019018Y005131D01*
X019037Y005136D01*
X019056Y005138D01*
X019075Y005136D01*
X019094Y005131D01*
X019110Y005121D01*
X019125Y005109D01*
X019137Y005094D01*
X019147Y005078D01*
X019152Y005059D01*
X019154Y005040D01*
X019152Y005021D01*
X019147Y005002D01*
X019137Y004986D01*
X019125Y004971D01*
X019110Y004959D01*
X019094Y004949D01*
X019075Y004944D01*
X019056Y004942D01*
X019037Y004944D01*
X019018Y004949D01*
X019002Y004959D01*
X018987Y004971D01*
X018975Y004986D01*
X018965Y005002D01*
X018960Y005021D01*
X018958Y005040D01*
X017974Y005434D02*
X017976Y005453D01*
X017981Y005472D01*
X017991Y005488D01*
X018003Y005503D01*
X018018Y005515D01*
X018034Y005525D01*
X018053Y005530D01*
X018072Y005532D01*
X018091Y005530D01*
X018110Y005525D01*
X018126Y005515D01*
X018141Y005503D01*
X018153Y005488D01*
X018163Y005472D01*
X018168Y005453D01*
X018170Y005434D01*
X018168Y005415D01*
X018163Y005396D01*
X018153Y005380D01*
X018141Y005365D01*
X018126Y005353D01*
X018110Y005343D01*
X018091Y005338D01*
X018072Y005336D01*
X018053Y005338D01*
X018034Y005343D01*
X018018Y005353D01*
X018003Y005365D01*
X017991Y005380D01*
X017981Y005396D01*
X017976Y005415D01*
X017974Y005434D01*
X017088Y005040D02*
X017090Y005059D01*
X017095Y005078D01*
X017105Y005094D01*
X017117Y005109D01*
X017132Y005121D01*
X017148Y005131D01*
X017167Y005136D01*
X017186Y005138D01*
X017205Y005136D01*
X017224Y005131D01*
X017240Y005121D01*
X017255Y005109D01*
X017267Y005094D01*
X017277Y005078D01*
X017282Y005059D01*
X017284Y005040D01*
X017282Y005021D01*
X017277Y005002D01*
X017267Y004986D01*
X017255Y004971D01*
X017240Y004959D01*
X017224Y004949D01*
X017205Y004944D01*
X017186Y004942D01*
X017167Y004944D01*
X017148Y004949D01*
X017132Y004959D01*
X017117Y004971D01*
X017105Y004986D01*
X017095Y005002D01*
X017090Y005021D01*
X017088Y005040D01*
X019706Y007166D02*
X019708Y007216D01*
X019714Y007266D01*
X019724Y007315D01*
X019738Y007363D01*
X019755Y007410D01*
X019776Y007455D01*
X019801Y007499D01*
X019829Y007540D01*
X019861Y007579D01*
X019895Y007616D01*
X019932Y007650D01*
X019972Y007680D01*
X020014Y007707D01*
X020058Y007731D01*
X020104Y007752D01*
X020151Y007768D01*
X020199Y007781D01*
X020249Y007790D01*
X020298Y007795D01*
X020349Y007796D01*
X020399Y007793D01*
X020448Y007786D01*
X020497Y007775D01*
X020545Y007760D01*
X020591Y007742D01*
X020636Y007720D01*
X020679Y007694D01*
X020720Y007665D01*
X020759Y007633D01*
X020795Y007598D01*
X020827Y007560D01*
X020857Y007520D01*
X020884Y007477D01*
X020907Y007433D01*
X020926Y007387D01*
X020942Y007339D01*
X020954Y007290D01*
X020962Y007241D01*
X020966Y007191D01*
X020966Y007141D01*
X020962Y007091D01*
X020954Y007042D01*
X020942Y006993D01*
X020926Y006945D01*
X020907Y006899D01*
X020884Y006855D01*
X020857Y006812D01*
X020827Y006772D01*
X020795Y006734D01*
X020759Y006699D01*
X020720Y006667D01*
X020679Y006638D01*
X020636Y006612D01*
X020591Y006590D01*
X020545Y006572D01*
X020497Y006557D01*
X020448Y006546D01*
X020399Y006539D01*
X020349Y006536D01*
X020298Y006537D01*
X020249Y006542D01*
X020199Y006551D01*
X020151Y006564D01*
X020104Y006580D01*
X020058Y006601D01*
X020014Y006625D01*
X019972Y006652D01*
X019932Y006682D01*
X019895Y006716D01*
X019861Y006753D01*
X019829Y006792D01*
X019801Y006833D01*
X019776Y006877D01*
X019755Y006922D01*
X019738Y006969D01*
X019724Y007017D01*
X019714Y007066D01*
X019708Y007116D01*
X019706Y007166D01*
X014253Y020985D02*
X014255Y021003D01*
X014261Y021019D01*
X014270Y021034D01*
X014283Y021047D01*
X014298Y021056D01*
X014314Y021062D01*
X014332Y021064D01*
X014350Y021062D01*
X014366Y021056D01*
X014381Y021047D01*
X014394Y021034D01*
X014403Y021019D01*
X014409Y021003D01*
X014411Y020985D01*
X014409Y020967D01*
X014403Y020951D01*
X014394Y020936D01*
X014381Y020923D01*
X014366Y020914D01*
X014350Y020908D01*
X014332Y020906D01*
X014314Y020908D01*
X014298Y020914D01*
X014283Y020923D01*
X014270Y020936D01*
X014261Y020951D01*
X014255Y020967D01*
X014253Y020985D01*
X007698Y026930D02*
X007700Y026980D01*
X007706Y027030D01*
X007716Y027079D01*
X007730Y027127D01*
X007747Y027174D01*
X007768Y027219D01*
X007793Y027263D01*
X007821Y027304D01*
X007853Y027343D01*
X007887Y027380D01*
X007924Y027414D01*
X007964Y027444D01*
X008006Y027471D01*
X008050Y027495D01*
X008096Y027516D01*
X008143Y027532D01*
X008191Y027545D01*
X008241Y027554D01*
X008290Y027559D01*
X008341Y027560D01*
X008391Y027557D01*
X008440Y027550D01*
X008489Y027539D01*
X008537Y027524D01*
X008583Y027506D01*
X008628Y027484D01*
X008671Y027458D01*
X008712Y027429D01*
X008751Y027397D01*
X008787Y027362D01*
X008819Y027324D01*
X008849Y027284D01*
X008876Y027241D01*
X008899Y027197D01*
X008918Y027151D01*
X008934Y027103D01*
X008946Y027054D01*
X008954Y027005D01*
X008958Y026955D01*
X008958Y026905D01*
X008954Y026855D01*
X008946Y026806D01*
X008934Y026757D01*
X008918Y026709D01*
X008899Y026663D01*
X008876Y026619D01*
X008849Y026576D01*
X008819Y026536D01*
X008787Y026498D01*
X008751Y026463D01*
X008712Y026431D01*
X008671Y026402D01*
X008628Y026376D01*
X008583Y026354D01*
X008537Y026336D01*
X008489Y026321D01*
X008440Y026310D01*
X008391Y026303D01*
X008341Y026300D01*
X008290Y026301D01*
X008241Y026306D01*
X008191Y026315D01*
X008143Y026328D01*
X008096Y026344D01*
X008050Y026365D01*
X008006Y026389D01*
X007964Y026416D01*
X007924Y026446D01*
X007887Y026480D01*
X007853Y026517D01*
X007821Y026556D01*
X007793Y026597D01*
X007768Y026641D01*
X007747Y026686D01*
X007730Y026733D01*
X007716Y026781D01*
X007706Y026830D01*
X007700Y026880D01*
X007698Y026930D01*
X019706Y026930D02*
X019708Y026980D01*
X019714Y027030D01*
X019724Y027079D01*
X019738Y027127D01*
X019755Y027174D01*
X019776Y027219D01*
X019801Y027263D01*
X019829Y027304D01*
X019861Y027343D01*
X019895Y027380D01*
X019932Y027414D01*
X019972Y027444D01*
X020014Y027471D01*
X020058Y027495D01*
X020104Y027516D01*
X020151Y027532D01*
X020199Y027545D01*
X020249Y027554D01*
X020298Y027559D01*
X020349Y027560D01*
X020399Y027557D01*
X020448Y027550D01*
X020497Y027539D01*
X020545Y027524D01*
X020591Y027506D01*
X020636Y027484D01*
X020679Y027458D01*
X020720Y027429D01*
X020759Y027397D01*
X020795Y027362D01*
X020827Y027324D01*
X020857Y027284D01*
X020884Y027241D01*
X020907Y027197D01*
X020926Y027151D01*
X020942Y027103D01*
X020954Y027054D01*
X020962Y027005D01*
X020966Y026955D01*
X020966Y026905D01*
X020962Y026855D01*
X020954Y026806D01*
X020942Y026757D01*
X020926Y026709D01*
X020907Y026663D01*
X020884Y026619D01*
X020857Y026576D01*
X020827Y026536D01*
X020795Y026498D01*
X020759Y026463D01*
X020720Y026431D01*
X020679Y026402D01*
X020636Y026376D01*
X020591Y026354D01*
X020545Y026336D01*
X020497Y026321D01*
X020448Y026310D01*
X020399Y026303D01*
X020349Y026300D01*
X020298Y026301D01*
X020249Y026306D01*
X020199Y026315D01*
X020151Y026328D01*
X020104Y026344D01*
X020058Y026365D01*
X020014Y026389D01*
X019972Y026416D01*
X019932Y026446D01*
X019895Y026480D01*
X019861Y026517D01*
X019829Y026556D01*
X019801Y026597D01*
X019776Y026641D01*
X019755Y026686D01*
X019738Y026733D01*
X019724Y026781D01*
X019714Y026830D01*
X019708Y026880D01*
X019706Y026930D01*
D14*
X018171Y023347D02*
X017580Y023347D01*
X017580Y021379D02*
X018171Y021379D01*
X018367Y021379D02*
X018958Y021379D01*
X018958Y019804D02*
X018367Y019804D01*
X018171Y019804D02*
X017580Y019804D01*
X017383Y019804D02*
X016793Y019804D01*
X016596Y021379D02*
X016005Y021379D01*
X015808Y021379D02*
X015218Y021379D01*
X012068Y021280D02*
X012068Y020690D01*
X012068Y020493D02*
X012068Y019902D01*
X012068Y019706D02*
X012068Y019115D01*
X012068Y018918D02*
X012068Y018328D01*
X011182Y017540D02*
X010592Y017540D01*
X010395Y017540D02*
X009804Y017540D01*
X009608Y018623D02*
X009017Y018623D01*
X008722Y017540D02*
X008131Y017540D01*
X007934Y017540D02*
X007344Y017540D01*
X006360Y017540D02*
X006360Y018131D01*
X006360Y018328D02*
X006360Y018918D01*
X006360Y019115D02*
X006360Y019706D01*
X006360Y019902D02*
X006360Y020493D01*
X006360Y021379D02*
X006950Y021379D01*
X007147Y021379D02*
X007738Y021379D01*
X007442Y022265D02*
X007442Y022855D01*
X007442Y023446D02*
X007442Y024036D01*
X008328Y024135D02*
X008919Y024135D01*
X009115Y024135D02*
X009706Y024135D01*
X010100Y024135D02*
X010690Y024135D01*
X010887Y024135D02*
X011478Y024135D01*
X009765Y020414D02*
X009765Y019824D01*
X010513Y019233D02*
X010513Y018643D01*
X012068Y016556D02*
X012068Y015965D01*
X012068Y015769D02*
X012068Y015178D01*
X013446Y014686D02*
X014037Y014686D01*
X014037Y012914D02*
X013446Y012914D01*
X014037Y017048D02*
X014627Y017048D01*
X009312Y013702D02*
X008722Y013702D01*
X008131Y013702D02*
X007541Y013702D01*
X006458Y014391D02*
X006458Y014981D01*
X006458Y015178D02*
X006458Y015769D01*
X006163Y021379D02*
X005572Y021379D01*
X020238Y011831D02*
X020238Y011241D01*
X020238Y010847D02*
X020238Y010257D01*
X021025Y016753D02*
X021025Y017343D01*
D15*
X021014Y016523D02*
X021102Y016523D01*
X021147Y016479D01*
X021147Y016435D01*
X021102Y016391D01*
X021147Y016346D01*
X021147Y016302D01*
X021102Y016258D01*
X021014Y016258D01*
X020970Y016302D01*
X020857Y016302D02*
X020812Y016258D01*
X020724Y016258D01*
X020680Y016302D01*
X020680Y016479D01*
X020724Y016523D01*
X020812Y016523D01*
X020857Y016479D01*
X020970Y016479D02*
X021014Y016523D01*
X021058Y016391D02*
X021102Y016391D01*
X021260Y016479D02*
X021260Y016302D01*
X021437Y016479D01*
X021437Y016302D01*
X021393Y016258D01*
X021304Y016258D01*
X021260Y016302D01*
X021260Y016479D02*
X021304Y016523D01*
X021393Y016523D01*
X021437Y016479D01*
X021990Y014686D02*
X021992Y014735D01*
X021998Y014784D01*
X022008Y014832D01*
X022021Y014879D01*
X022039Y014925D01*
X022060Y014969D01*
X022084Y015012D01*
X022112Y015052D01*
X022143Y015091D01*
X022177Y015126D01*
X022214Y015159D01*
X022253Y015188D01*
X022295Y015214D01*
X022338Y015237D01*
X022384Y015256D01*
X022430Y015272D01*
X022478Y015284D01*
X022526Y015292D01*
X022575Y015296D01*
X022625Y015296D01*
X022674Y015292D01*
X022722Y015284D01*
X022770Y015272D01*
X022816Y015256D01*
X022862Y015237D01*
X022905Y015214D01*
X022947Y015188D01*
X022986Y015159D01*
X023023Y015126D01*
X023057Y015091D01*
X023088Y015052D01*
X023116Y015012D01*
X023140Y014969D01*
X023161Y014925D01*
X023179Y014879D01*
X023192Y014832D01*
X023202Y014784D01*
X023208Y014735D01*
X023210Y014686D01*
X023208Y014637D01*
X023202Y014588D01*
X023192Y014540D01*
X023179Y014493D01*
X023161Y014447D01*
X023140Y014403D01*
X023116Y014360D01*
X023088Y014320D01*
X023057Y014281D01*
X023023Y014246D01*
X022986Y014213D01*
X022947Y014184D01*
X022905Y014158D01*
X022862Y014135D01*
X022816Y014116D01*
X022770Y014100D01*
X022722Y014088D01*
X022674Y014080D01*
X022625Y014076D01*
X022575Y014076D01*
X022526Y014080D01*
X022478Y014088D01*
X022430Y014100D01*
X022384Y014116D01*
X022338Y014135D01*
X022295Y014158D01*
X022253Y014184D01*
X022214Y014213D01*
X022177Y014246D01*
X022143Y014281D01*
X022112Y014320D01*
X022084Y014360D01*
X022060Y014403D01*
X022039Y014447D01*
X022021Y014493D01*
X022008Y014540D01*
X021998Y014588D01*
X021992Y014637D01*
X021990Y014686D01*
X019121Y011708D02*
X019165Y011664D01*
X019165Y011620D01*
X019121Y011576D01*
X019032Y011576D01*
X018988Y011620D01*
X018988Y011664D01*
X019032Y011708D01*
X019121Y011708D01*
X019121Y011576D02*
X019165Y011532D01*
X019165Y011487D01*
X019121Y011443D01*
X019032Y011443D01*
X018988Y011487D01*
X018988Y011532D01*
X019032Y011576D01*
X018875Y011576D02*
X018831Y011532D01*
X018698Y011532D01*
X018787Y011532D02*
X018875Y011443D01*
X018875Y011576D02*
X018875Y011664D01*
X018831Y011708D01*
X018698Y011708D01*
X018698Y011443D01*
X018698Y010527D02*
X018831Y010527D01*
X018875Y010483D01*
X018875Y010395D01*
X018831Y010350D01*
X018698Y010350D01*
X018698Y010262D02*
X018698Y010527D01*
X018787Y010350D02*
X018875Y010262D01*
X018988Y010306D02*
X019032Y010262D01*
X019121Y010262D01*
X019165Y010306D01*
X019165Y010483D01*
X019121Y010527D01*
X019032Y010527D01*
X018988Y010483D01*
X018988Y010439D01*
X019032Y010395D01*
X019165Y010395D01*
X015122Y016448D02*
X014857Y016448D01*
X014857Y016580D01*
X014901Y016625D01*
X014989Y016625D01*
X015034Y016580D01*
X015034Y016448D01*
X015034Y016536D02*
X015122Y016625D01*
X015122Y016738D02*
X015078Y016738D01*
X014901Y016915D01*
X014857Y016915D01*
X014857Y016738D01*
X015430Y017664D02*
X015430Y017929D01*
X015518Y017929D02*
X015341Y017929D01*
X015631Y017929D02*
X015631Y017664D01*
X015631Y017752D02*
X015764Y017752D01*
X015808Y017796D01*
X015808Y017885D01*
X015764Y017929D01*
X015631Y017929D01*
X015921Y017929D02*
X016098Y017929D01*
X016098Y017885D01*
X015921Y017708D01*
X015921Y017664D01*
X016719Y017778D02*
X016719Y017910D01*
X016763Y017955D01*
X016852Y017955D01*
X016896Y017910D01*
X016896Y017778D01*
X016984Y017778D02*
X016719Y017778D01*
X016896Y017866D02*
X016984Y017955D01*
X016984Y018068D02*
X016984Y018245D01*
X016984Y018156D02*
X016719Y018156D01*
X016807Y018068D01*
X016852Y018358D02*
X016719Y018358D01*
X016719Y018535D01*
X016807Y018490D02*
X016852Y018535D01*
X016940Y018535D01*
X016984Y018490D01*
X016984Y018402D01*
X016940Y018358D01*
X016852Y018358D02*
X016807Y018446D01*
X016807Y018490D01*
X017113Y018535D02*
X017157Y018446D01*
X017245Y018358D01*
X017245Y018490D01*
X017289Y018535D01*
X017334Y018535D01*
X017378Y018490D01*
X017378Y018402D01*
X017334Y018358D01*
X017245Y018358D01*
X017378Y018245D02*
X017378Y018068D01*
X017378Y018156D02*
X017113Y018156D01*
X017201Y018068D01*
X017157Y017955D02*
X017245Y017955D01*
X017289Y017910D01*
X017289Y017778D01*
X017289Y017866D02*
X017378Y017955D01*
X017378Y017778D02*
X017113Y017778D01*
X017113Y017910D01*
X017157Y017955D01*
X015094Y018943D02*
X014829Y018943D01*
X014829Y019076D01*
X014873Y019120D01*
X014962Y019120D01*
X015006Y019076D01*
X015006Y018943D01*
X015006Y019032D02*
X015094Y019120D01*
X015094Y019233D02*
X015094Y019410D01*
X015094Y019322D02*
X014829Y019322D01*
X014918Y019233D01*
X014720Y019233D02*
X014720Y019410D01*
X014720Y019322D02*
X014455Y019322D01*
X014544Y019233D01*
X014588Y019120D02*
X014632Y019076D01*
X014632Y018943D01*
X014720Y018943D02*
X014455Y018943D01*
X014455Y019076D01*
X014499Y019120D01*
X014588Y019120D01*
X014632Y019032D02*
X014720Y019120D01*
X014676Y019523D02*
X014632Y019523D01*
X014588Y019567D01*
X014588Y019656D01*
X014632Y019700D01*
X014676Y019700D01*
X014720Y019656D01*
X014720Y019567D01*
X014676Y019523D01*
X014588Y019567D02*
X014544Y019523D01*
X014499Y019523D01*
X014455Y019567D01*
X014455Y019656D01*
X014499Y019700D01*
X014544Y019700D01*
X014588Y019656D01*
X014829Y019700D02*
X014873Y019700D01*
X015050Y019523D01*
X015094Y019523D01*
X014829Y019523D02*
X014829Y019700D01*
X014342Y019809D02*
X014165Y019809D01*
X014254Y019809D02*
X014254Y020074D01*
X014165Y019986D01*
X014052Y020030D02*
X014008Y020074D01*
X013875Y020074D01*
X013875Y019809D01*
X014008Y019809D01*
X014052Y019853D01*
X014052Y020030D01*
X013762Y020074D02*
X013585Y020074D01*
X013585Y019809D01*
X013762Y019809D01*
X013756Y019700D02*
X013712Y019700D01*
X013668Y019656D01*
X013668Y019567D01*
X013712Y019523D01*
X013539Y019567D02*
X013495Y019523D01*
X013539Y019567D02*
X013539Y019656D01*
X013495Y019700D01*
X013451Y019700D01*
X013407Y019656D01*
X013407Y019612D01*
X013407Y019656D02*
X013363Y019700D01*
X013318Y019700D01*
X013274Y019656D01*
X013274Y019567D01*
X013318Y019523D01*
X013274Y019322D02*
X013539Y019322D01*
X013539Y019410D02*
X013539Y019233D01*
X013539Y019120D02*
X013451Y019032D01*
X013451Y019076D02*
X013451Y018943D01*
X013539Y018943D02*
X013274Y018943D01*
X013274Y019076D01*
X013318Y019120D01*
X013407Y019120D01*
X013451Y019076D01*
X013363Y019233D02*
X013274Y019322D01*
X013668Y019322D02*
X013933Y019322D01*
X013933Y019410D02*
X013933Y019233D01*
X013933Y019120D02*
X013845Y019032D01*
X013845Y019076D02*
X013845Y018943D01*
X013933Y018943D02*
X013668Y018943D01*
X013668Y019076D01*
X013712Y019120D01*
X013800Y019120D01*
X013845Y019076D01*
X013756Y019233D02*
X013668Y019322D01*
X013933Y019523D02*
X013756Y019700D01*
X013933Y019700D02*
X013933Y019523D01*
X014062Y019567D02*
X014106Y019523D01*
X014150Y019523D01*
X014194Y019567D01*
X014194Y019700D01*
X014282Y019700D02*
X014106Y019700D01*
X014062Y019656D01*
X014062Y019567D01*
X014106Y019410D02*
X014062Y019366D01*
X014062Y019277D01*
X014106Y019233D01*
X014106Y019120D02*
X014062Y019076D01*
X014062Y018987D01*
X014106Y018943D01*
X014282Y018943D01*
X014327Y018987D01*
X014327Y019076D01*
X014282Y019120D01*
X014327Y019233D02*
X014150Y019410D01*
X014106Y019410D01*
X014282Y019523D02*
X014327Y019567D01*
X014327Y019656D01*
X014282Y019700D01*
X014327Y019410D02*
X014327Y019233D01*
X013674Y019942D02*
X013585Y019942D01*
X013472Y019809D02*
X013295Y019809D01*
X013295Y020074D01*
X013348Y022048D02*
X013348Y022284D01*
X014357Y022241D02*
X014357Y022153D01*
X014401Y022109D01*
X014578Y022109D01*
X014622Y022153D01*
X014622Y022241D01*
X014578Y022285D01*
X014622Y022399D02*
X014445Y022575D01*
X014401Y022575D01*
X014357Y022531D01*
X014357Y022443D01*
X014401Y022399D01*
X014401Y022285D02*
X014357Y022241D01*
X014622Y022399D02*
X014622Y022575D01*
X014578Y022689D02*
X014534Y022689D01*
X014489Y022733D01*
X014489Y022821D01*
X014534Y022865D01*
X014578Y022865D01*
X014622Y022821D01*
X014622Y022733D01*
X014578Y022689D01*
X014489Y022733D02*
X014445Y022689D01*
X014401Y022689D01*
X014357Y022733D01*
X014357Y022821D01*
X014401Y022865D01*
X014445Y022865D01*
X014489Y022821D01*
X014750Y022865D02*
X014795Y022777D01*
X014883Y022689D01*
X014883Y022821D01*
X014927Y022865D01*
X014971Y022865D01*
X015016Y022821D01*
X015016Y022733D01*
X014971Y022689D01*
X014883Y022689D01*
X014839Y022575D02*
X014795Y022575D01*
X014750Y022531D01*
X014750Y022443D01*
X014795Y022399D01*
X014795Y022285D02*
X014750Y022241D01*
X014750Y022153D01*
X014795Y022109D01*
X014971Y022109D01*
X015016Y022153D01*
X015016Y022241D01*
X014971Y022285D01*
X015016Y022399D02*
X014839Y022575D01*
X015016Y022575D02*
X015016Y022399D01*
X015510Y022827D02*
X015510Y022960D01*
X015555Y023004D01*
X015643Y023004D01*
X015687Y022960D01*
X015687Y022827D01*
X015687Y022915D02*
X015776Y023004D01*
X015776Y023117D02*
X015599Y023294D01*
X015555Y023294D01*
X015510Y023250D01*
X015510Y023161D01*
X015555Y023117D01*
X015776Y023117D02*
X015776Y023294D01*
X015776Y023407D02*
X015776Y023584D01*
X015776Y023495D02*
X015510Y023495D01*
X015599Y023407D01*
X015510Y022827D02*
X015776Y022827D01*
X016995Y023471D02*
X016995Y023603D01*
X017039Y023647D01*
X017127Y023647D01*
X017171Y023603D01*
X017171Y023471D01*
X017171Y023559D02*
X017260Y023647D01*
X017260Y023761D02*
X017083Y023937D01*
X017039Y023937D01*
X016995Y023893D01*
X016995Y023805D01*
X017039Y023761D01*
X017260Y023761D02*
X017260Y023937D01*
X017260Y024051D02*
X017083Y024227D01*
X017039Y024227D01*
X016995Y024183D01*
X016995Y024095D01*
X017039Y024051D01*
X017260Y024051D02*
X017260Y024227D01*
X017676Y024294D02*
X017720Y024250D01*
X017897Y024250D01*
X017941Y024294D01*
X017941Y024383D01*
X017897Y024427D01*
X017897Y024540D02*
X017941Y024584D01*
X017941Y024673D01*
X017897Y024717D01*
X017852Y024717D01*
X017808Y024673D01*
X017808Y024629D01*
X017808Y024673D02*
X017764Y024717D01*
X017720Y024717D01*
X017676Y024673D01*
X017676Y024584D01*
X017720Y024540D01*
X017720Y024427D02*
X017676Y024383D01*
X017676Y024294D01*
X017764Y024830D02*
X017676Y024919D01*
X017941Y024919D01*
X017941Y025007D02*
X017941Y024830D01*
X017260Y023471D02*
X016995Y023471D01*
X017650Y022464D02*
X017650Y022199D01*
X017650Y022287D02*
X017783Y022287D01*
X017827Y022332D01*
X017827Y022420D01*
X017783Y022464D01*
X017650Y022464D01*
X017739Y022287D02*
X017827Y022199D01*
X017940Y022199D02*
X018117Y022199D01*
X018029Y022199D02*
X018029Y022464D01*
X017940Y022376D01*
X018230Y022376D02*
X018275Y022332D01*
X018407Y022332D01*
X018407Y022420D02*
X018407Y022243D01*
X018363Y022199D01*
X018275Y022199D01*
X018230Y022243D01*
X018230Y022376D02*
X018230Y022420D01*
X018275Y022464D01*
X018363Y022464D01*
X018407Y022420D01*
X018688Y022456D02*
X018688Y022191D01*
X018688Y022280D02*
X018820Y022280D01*
X018865Y022324D01*
X018865Y022412D01*
X018820Y022456D01*
X018688Y022456D01*
X018776Y022280D02*
X018865Y022191D01*
X018978Y022191D02*
X019155Y022368D01*
X019155Y022412D01*
X019110Y022456D01*
X019022Y022456D01*
X018978Y022412D01*
X018978Y022191D02*
X019155Y022191D01*
X019268Y022235D02*
X019445Y022412D01*
X019445Y022235D01*
X019400Y022191D01*
X019312Y022191D01*
X019268Y022235D01*
X019268Y022412D01*
X019312Y022456D01*
X019400Y022456D01*
X019445Y022412D01*
X020154Y023668D02*
X020154Y023933D01*
X020066Y023933D02*
X020242Y023933D01*
X020356Y023933D02*
X020356Y023668D01*
X020356Y023756D02*
X020488Y023756D01*
X020532Y023800D01*
X020532Y023889D01*
X020488Y023933D01*
X020356Y023933D01*
X020646Y023889D02*
X020646Y023844D01*
X020690Y023800D01*
X020822Y023800D01*
X020822Y023712D02*
X020822Y023889D01*
X020778Y023933D01*
X020690Y023933D01*
X020646Y023889D01*
X020646Y023712D02*
X020690Y023668D01*
X020778Y023668D01*
X020822Y023712D01*
X020841Y021900D02*
X020753Y021900D01*
X020797Y021900D02*
X020797Y021635D01*
X020753Y021635D02*
X020841Y021635D01*
X020946Y021679D02*
X020991Y021635D01*
X021079Y021635D01*
X021123Y021679D01*
X021236Y021635D02*
X021413Y021635D01*
X021325Y021635D02*
X021325Y021900D01*
X021236Y021812D01*
X021123Y021856D02*
X021079Y021900D01*
X020991Y021900D01*
X020946Y021856D01*
X020946Y021679D01*
X021990Y022954D02*
X021992Y023003D01*
X021998Y023052D01*
X022008Y023100D01*
X022021Y023147D01*
X022039Y023193D01*
X022060Y023237D01*
X022084Y023280D01*
X022112Y023320D01*
X022143Y023359D01*
X022177Y023394D01*
X022214Y023427D01*
X022253Y023456D01*
X022295Y023482D01*
X022338Y023505D01*
X022384Y023524D01*
X022430Y023540D01*
X022478Y023552D01*
X022526Y023560D01*
X022575Y023564D01*
X022625Y023564D01*
X022674Y023560D01*
X022722Y023552D01*
X022770Y023540D01*
X022816Y023524D01*
X022862Y023505D01*
X022905Y023482D01*
X022947Y023456D01*
X022986Y023427D01*
X023023Y023394D01*
X023057Y023359D01*
X023088Y023320D01*
X023116Y023280D01*
X023140Y023237D01*
X023161Y023193D01*
X023179Y023147D01*
X023192Y023100D01*
X023202Y023052D01*
X023208Y023003D01*
X023210Y022954D01*
X023208Y022905D01*
X023202Y022856D01*
X023192Y022808D01*
X023179Y022761D01*
X023161Y022715D01*
X023140Y022671D01*
X023116Y022628D01*
X023088Y022588D01*
X023057Y022549D01*
X023023Y022514D01*
X022986Y022481D01*
X022947Y022452D01*
X022905Y022426D01*
X022862Y022403D01*
X022816Y022384D01*
X022770Y022368D01*
X022722Y022356D01*
X022674Y022348D01*
X022625Y022344D01*
X022575Y022344D01*
X022526Y022348D01*
X022478Y022356D01*
X022430Y022368D01*
X022384Y022384D01*
X022338Y022403D01*
X022295Y022426D01*
X022253Y022452D01*
X022214Y022481D01*
X022177Y022514D01*
X022143Y022549D01*
X022112Y022588D01*
X022084Y022628D01*
X022060Y022671D01*
X022039Y022715D01*
X022021Y022761D01*
X022008Y022808D01*
X021998Y022856D01*
X021992Y022905D01*
X021990Y022954D01*
X014611Y023904D02*
X014434Y023904D01*
X014523Y023904D02*
X014523Y024169D01*
X014434Y024081D01*
X014321Y024169D02*
X014144Y023904D01*
X014321Y023904D02*
X014144Y024169D01*
X012954Y023889D02*
X012954Y023844D01*
X012777Y023668D01*
X012954Y023668D01*
X012954Y023889D02*
X012910Y023933D01*
X012821Y023933D01*
X012777Y023889D01*
X012664Y023668D02*
X012487Y023668D01*
X012487Y023933D01*
X011886Y023145D02*
X011930Y023101D01*
X011930Y023057D01*
X011886Y023013D01*
X011930Y022969D01*
X011930Y022924D01*
X011886Y022880D01*
X011798Y022880D01*
X011753Y022924D01*
X011640Y022924D02*
X011640Y023101D01*
X011596Y023145D01*
X011463Y023145D01*
X011463Y022880D01*
X011596Y022880D01*
X011640Y022924D01*
X011753Y023101D02*
X011798Y023145D01*
X011886Y023145D01*
X011886Y023013D02*
X011842Y023013D01*
X012167Y022284D02*
X012167Y022048D01*
X011172Y022872D02*
X010996Y022872D01*
X011172Y023049D01*
X011172Y023093D01*
X011128Y023137D01*
X011040Y023137D01*
X010996Y023093D01*
X010882Y023137D02*
X010882Y022916D01*
X010838Y022872D01*
X010750Y022872D01*
X010706Y022916D01*
X010706Y023137D01*
X010567Y025045D02*
X010302Y025045D01*
X010302Y025178D01*
X010346Y025222D01*
X010434Y025222D01*
X010478Y025178D01*
X010478Y025045D01*
X010478Y025134D02*
X010567Y025222D01*
X010434Y025335D02*
X010434Y025512D01*
X010302Y025468D02*
X010567Y025468D01*
X010434Y025335D02*
X010302Y025468D01*
X011089Y025424D02*
X011177Y025335D01*
X011133Y025222D02*
X011089Y025178D01*
X011089Y025090D01*
X011133Y025045D01*
X011310Y025045D01*
X011354Y025090D01*
X011354Y025178D01*
X011310Y025222D01*
X011354Y025335D02*
X011354Y025512D01*
X011354Y025424D02*
X011089Y025424D01*
X011177Y025625D02*
X011089Y025714D01*
X011354Y025714D01*
X011354Y025802D02*
X011354Y025625D01*
X009484Y025468D02*
X009484Y025380D01*
X009440Y025335D01*
X009484Y025222D02*
X009396Y025134D01*
X009396Y025178D02*
X009396Y025045D01*
X009484Y025045D02*
X009219Y025045D01*
X009219Y025178D01*
X009263Y025222D01*
X009352Y025222D01*
X009396Y025178D01*
X009263Y025335D02*
X009219Y025380D01*
X009219Y025468D01*
X009263Y025512D01*
X009307Y025512D01*
X009352Y025468D01*
X009396Y025512D01*
X009440Y025512D01*
X009484Y025468D01*
X009352Y025468D02*
X009352Y025424D01*
X008795Y025424D02*
X008530Y025424D01*
X008618Y025335D01*
X008574Y025222D02*
X008530Y025178D01*
X008530Y025090D01*
X008574Y025045D01*
X008751Y025045D01*
X008795Y025090D01*
X008795Y025178D01*
X008751Y025222D01*
X008795Y025335D02*
X008795Y025512D01*
X008751Y025625D02*
X008795Y025670D01*
X008795Y025758D01*
X008751Y025802D01*
X008574Y025802D01*
X008751Y025625D01*
X008574Y025625D01*
X008530Y025670D01*
X008530Y025758D01*
X008574Y025802D01*
X006155Y024389D02*
X006155Y024212D01*
X006110Y024168D01*
X006022Y024168D01*
X005978Y024212D01*
X006022Y024300D02*
X006155Y024300D01*
X006155Y024389D02*
X006110Y024433D01*
X006022Y024433D01*
X005978Y024389D01*
X005978Y024344D01*
X006022Y024300D01*
X005865Y024212D02*
X005820Y024168D01*
X005732Y024168D01*
X005688Y024212D01*
X005688Y024389D01*
X005732Y024433D01*
X005820Y024433D01*
X005865Y024389D01*
X005820Y024039D02*
X005732Y024039D01*
X005688Y023995D01*
X005688Y023818D01*
X005732Y023774D01*
X005820Y023774D01*
X005865Y023818D01*
X005978Y023818D02*
X005978Y023862D01*
X006022Y023906D01*
X006110Y023906D01*
X006155Y023862D01*
X006155Y023818D01*
X006110Y023774D01*
X006022Y023774D01*
X005978Y023818D01*
X006022Y023906D02*
X005978Y023951D01*
X005978Y023995D01*
X006022Y024039D01*
X006110Y024039D01*
X006155Y023995D01*
X006155Y023951D01*
X006110Y023906D01*
X005865Y023995D02*
X005820Y024039D01*
X005774Y023445D02*
X005818Y023357D01*
X005907Y023269D01*
X005907Y023401D01*
X005951Y023445D01*
X005995Y023445D01*
X006039Y023401D01*
X006039Y023313D01*
X005995Y023269D01*
X005907Y023269D01*
X005907Y023155D02*
X005951Y023111D01*
X005951Y022979D01*
X005951Y023067D02*
X006039Y023155D01*
X005907Y023155D02*
X005818Y023155D01*
X005774Y023111D01*
X005774Y022979D01*
X006039Y022979D01*
X005646Y022979D02*
X005380Y022979D01*
X005380Y023111D01*
X005425Y023155D01*
X005513Y023155D01*
X005557Y023111D01*
X005557Y022979D01*
X005557Y023067D02*
X005646Y023155D01*
X005601Y023269D02*
X005646Y023313D01*
X005646Y023401D01*
X005601Y023445D01*
X005513Y023445D01*
X005469Y023401D01*
X005469Y023357D01*
X005513Y023269D01*
X005380Y023269D01*
X005380Y023445D01*
X005252Y023445D02*
X005252Y023269D01*
X005252Y023357D02*
X004987Y023357D01*
X005075Y023269D01*
X005031Y023155D02*
X004987Y023111D01*
X004987Y023023D01*
X005031Y022979D01*
X005208Y022979D01*
X005252Y023023D01*
X005252Y023111D01*
X005208Y023155D01*
X005252Y023559D02*
X005075Y023735D01*
X005031Y023735D01*
X004987Y023691D01*
X004987Y023603D01*
X005031Y023559D01*
X005252Y023559D02*
X005252Y023735D01*
X007979Y020980D02*
X007979Y020715D01*
X008112Y020715D01*
X008156Y020759D01*
X008156Y020936D01*
X008112Y020980D01*
X007979Y020980D01*
X008269Y020936D02*
X008313Y020980D01*
X008402Y020980D01*
X008446Y020936D01*
X008446Y020892D01*
X008269Y020715D01*
X008446Y020715D01*
X008451Y020586D02*
X008451Y020321D01*
X008628Y020321D01*
X008742Y020321D02*
X008918Y020321D01*
X008830Y020321D02*
X008830Y020586D01*
X008742Y020498D01*
X008426Y019233D02*
X008426Y018997D01*
X008621Y018669D02*
X008753Y018536D01*
X008753Y018713D01*
X008621Y018669D02*
X008886Y018669D01*
X008842Y018423D02*
X008886Y018379D01*
X008886Y018290D01*
X008842Y018246D01*
X008665Y018246D01*
X008621Y018290D01*
X008621Y018379D01*
X008665Y018423D01*
X008924Y017343D02*
X008924Y017166D01*
X009056Y017166D01*
X009012Y017255D01*
X009012Y017299D01*
X009056Y017343D01*
X009145Y017343D01*
X009189Y017299D01*
X009189Y017210D01*
X009145Y017166D01*
X009145Y017053D02*
X009189Y017009D01*
X009189Y016920D01*
X009145Y016876D01*
X008968Y016876D01*
X008924Y016920D01*
X008924Y017009D01*
X008968Y017053D01*
X009310Y017001D02*
X009310Y016913D01*
X009354Y016868D01*
X009531Y016868D01*
X009575Y016913D01*
X009575Y017001D01*
X009531Y017045D01*
X009575Y017158D02*
X009398Y017335D01*
X009354Y017335D01*
X009310Y017291D01*
X009310Y017203D01*
X009354Y017158D01*
X009354Y017045D02*
X009310Y017001D01*
X009575Y017158D02*
X009575Y017335D01*
X009767Y018262D02*
X009856Y018262D01*
X009900Y018306D01*
X010013Y018306D02*
X010057Y018262D01*
X010146Y018262D01*
X010190Y018306D01*
X010190Y018350D01*
X010146Y018395D01*
X010102Y018395D01*
X010146Y018395D02*
X010190Y018439D01*
X010190Y018483D01*
X010146Y018527D01*
X010057Y018527D01*
X010013Y018483D01*
X009900Y018483D02*
X009856Y018527D01*
X009767Y018527D01*
X009723Y018483D01*
X009723Y018306D01*
X009767Y018262D01*
X010707Y018306D02*
X010752Y018262D01*
X010840Y018262D01*
X010884Y018306D01*
X010997Y018306D02*
X011042Y018262D01*
X011130Y018262D01*
X011174Y018306D01*
X011174Y018350D01*
X011130Y018395D01*
X010997Y018395D01*
X010997Y018306D01*
X010997Y018395D02*
X011086Y018483D01*
X011174Y018527D01*
X010884Y018483D02*
X010840Y018527D01*
X010752Y018527D01*
X010707Y018483D01*
X010707Y018306D01*
X011478Y017560D02*
X011478Y017324D01*
X012659Y017324D02*
X012659Y017560D01*
X011162Y019435D02*
X010986Y019435D01*
X011162Y019612D01*
X011162Y019656D01*
X011118Y019700D01*
X011030Y019700D01*
X010986Y019656D01*
X010872Y019656D02*
X010872Y019568D01*
X010828Y019524D01*
X010696Y019524D01*
X010784Y019524D02*
X010872Y019435D01*
X010696Y019435D02*
X010696Y019700D01*
X010828Y019700D01*
X010872Y019656D01*
X010818Y019927D02*
X010641Y019927D01*
X010597Y019972D01*
X010597Y020060D01*
X010641Y020104D01*
X010597Y020217D02*
X010597Y020394D01*
X010641Y020394D01*
X010818Y020217D01*
X010862Y020217D01*
X010818Y020104D02*
X010862Y020060D01*
X010862Y019972D01*
X010818Y019927D01*
X010109Y015685D02*
X010109Y015419D01*
X010021Y015419D02*
X010198Y015419D01*
X010021Y015596D02*
X010109Y015685D01*
X009908Y015685D02*
X009908Y015464D01*
X009864Y015419D01*
X009775Y015419D01*
X009731Y015464D01*
X009731Y015685D01*
X009549Y015808D02*
X009549Y015335D01*
X008958Y014981D02*
X008682Y014981D01*
X008682Y015808D01*
X008000Y015071D02*
X008000Y014895D01*
X008000Y014983D02*
X007735Y014983D01*
X007823Y014895D01*
X007779Y014781D02*
X007735Y014737D01*
X007735Y014649D01*
X007779Y014605D01*
X007956Y014605D01*
X008000Y014649D01*
X008000Y014737D01*
X007956Y014781D01*
X008325Y013757D02*
X008590Y013757D01*
X008590Y013845D02*
X008590Y013668D01*
X008590Y013555D02*
X008502Y013467D01*
X008502Y013511D02*
X008502Y013378D01*
X008590Y013378D02*
X008325Y013378D01*
X008325Y013511D01*
X008369Y013555D01*
X008458Y013555D01*
X008502Y013511D01*
X008414Y013668D02*
X008325Y013757D01*
X009742Y012791D02*
X009742Y012526D01*
X009874Y012526D01*
X009918Y012570D01*
X009918Y012747D01*
X009874Y012791D01*
X009742Y012791D01*
X010032Y012703D02*
X010120Y012791D01*
X010120Y012526D01*
X010032Y012526D02*
X010208Y012526D01*
X010145Y011786D02*
X010145Y011286D01*
X010645Y011286D02*
X010645Y011786D01*
X011117Y011671D02*
X011382Y011671D01*
X011382Y011759D02*
X011382Y011582D01*
X011205Y011582D02*
X011117Y011671D01*
X011117Y011469D02*
X011117Y011292D01*
X011382Y011292D01*
X011249Y011292D02*
X011249Y011381D01*
X011700Y011758D02*
X011700Y012023D01*
X011832Y012023D01*
X011876Y011979D01*
X011876Y011891D01*
X011832Y011846D01*
X011700Y011846D01*
X011788Y011846D02*
X011876Y011758D01*
X011990Y011758D02*
X012166Y011758D01*
X012078Y011758D02*
X012078Y012023D01*
X011990Y011935D01*
X011876Y012152D02*
X011700Y012152D01*
X011700Y012417D01*
X011744Y012545D02*
X011700Y012590D01*
X011700Y012766D01*
X011744Y012811D01*
X011832Y012811D01*
X011876Y012766D01*
X011990Y012766D02*
X012034Y012811D01*
X012122Y012811D01*
X012166Y012766D01*
X012166Y012722D01*
X011990Y012545D01*
X012166Y012545D01*
X012280Y012545D02*
X012456Y012722D01*
X012456Y012766D01*
X012412Y012811D01*
X012324Y012811D01*
X012280Y012766D01*
X012324Y012939D02*
X012412Y012939D01*
X012456Y012983D01*
X012456Y013028D01*
X012412Y013072D01*
X012280Y013072D01*
X012280Y012983D01*
X012324Y012939D01*
X012280Y013072D02*
X012368Y013160D01*
X012456Y013204D01*
X012412Y013333D02*
X012324Y013333D01*
X012280Y013377D01*
X012280Y013465D02*
X012368Y013510D01*
X012412Y013510D01*
X012456Y013465D01*
X012456Y013377D01*
X012412Y013333D01*
X012280Y013465D02*
X012280Y013598D01*
X012456Y013598D01*
X012412Y013727D02*
X012412Y013992D01*
X012280Y013859D01*
X012456Y013859D01*
X012412Y014120D02*
X012324Y014120D01*
X012280Y014164D01*
X012166Y014120D02*
X011990Y014120D01*
X012078Y014120D02*
X012078Y014385D01*
X011990Y014297D01*
X011876Y014341D02*
X011832Y014385D01*
X011744Y014385D01*
X011700Y014341D01*
X011700Y014164D01*
X011744Y014120D01*
X011832Y014120D01*
X011876Y014164D01*
X011832Y013992D02*
X011744Y013992D01*
X011700Y013948D01*
X011700Y013771D01*
X011744Y013727D01*
X011832Y013727D01*
X011876Y013771D01*
X011990Y013727D02*
X012166Y013727D01*
X012078Y013727D02*
X012078Y013992D01*
X011990Y013903D01*
X011876Y013948D02*
X011832Y013992D01*
X011832Y013598D02*
X011744Y013598D01*
X011700Y013554D01*
X011700Y013377D01*
X011744Y013333D01*
X011832Y013333D01*
X011876Y013377D01*
X011990Y013333D02*
X012166Y013333D01*
X012078Y013333D02*
X012078Y013598D01*
X011990Y013510D01*
X011876Y013554D02*
X011832Y013598D01*
X011832Y013204D02*
X011744Y013204D01*
X011700Y013160D01*
X011700Y012983D01*
X011744Y012939D01*
X011832Y012939D01*
X011876Y012983D01*
X011990Y012939D02*
X012166Y012939D01*
X012078Y012939D02*
X012078Y013204D01*
X011990Y013116D01*
X011876Y013160D02*
X011832Y013204D01*
X011876Y012590D02*
X011832Y012545D01*
X011744Y012545D01*
X011990Y012284D02*
X012166Y012284D01*
X012122Y012152D02*
X012122Y012417D01*
X011990Y012284D01*
X012280Y012545D02*
X012456Y012545D01*
X012368Y012023D02*
X012368Y011758D01*
X012280Y011758D02*
X012456Y011758D01*
X012280Y011935D02*
X012368Y012023D01*
X012861Y012393D02*
X012905Y012349D01*
X013082Y012349D01*
X013126Y012393D01*
X013126Y012481D01*
X013082Y012525D01*
X013126Y012639D02*
X012949Y012815D01*
X012905Y012815D01*
X012861Y012771D01*
X012861Y012683D01*
X012905Y012639D01*
X012905Y012525D02*
X012861Y012481D01*
X012861Y012393D01*
X013126Y012639D02*
X013126Y012815D01*
X013126Y012929D02*
X013082Y012929D01*
X012905Y013105D01*
X012861Y013105D01*
X012861Y012929D01*
X012905Y013923D02*
X013082Y013923D01*
X013126Y013968D01*
X013126Y014056D01*
X013082Y014100D01*
X013126Y014213D02*
X012949Y014390D01*
X012905Y014390D01*
X012861Y014346D01*
X012861Y014258D01*
X012905Y014213D01*
X012905Y014100D02*
X012861Y014056D01*
X012861Y013968D01*
X012905Y013923D01*
X013126Y014213D02*
X013126Y014390D01*
X013082Y014503D02*
X013126Y014548D01*
X013126Y014636D01*
X013082Y014680D01*
X012993Y014680D01*
X012949Y014636D01*
X012949Y014592D01*
X012993Y014503D01*
X012861Y014503D01*
X012861Y014680D01*
X012456Y014341D02*
X012456Y014297D01*
X012412Y014253D01*
X012456Y014209D01*
X012456Y014164D01*
X012412Y014120D01*
X012412Y014253D02*
X012368Y014253D01*
X012456Y014341D02*
X012412Y014385D01*
X012324Y014385D01*
X012280Y014341D01*
X010663Y014630D02*
X010486Y014630D01*
X010575Y014630D02*
X010575Y014895D01*
X010486Y014807D01*
X010373Y014851D02*
X010373Y014674D01*
X010329Y014630D01*
X010240Y014630D01*
X010196Y014674D01*
X010196Y014851D01*
X010240Y014895D01*
X010329Y014895D01*
X010373Y014851D01*
X010285Y014719D02*
X010373Y014630D01*
X007245Y018997D02*
X007245Y019233D01*
X007049Y016772D02*
X007049Y016536D01*
X005867Y016536D02*
X005867Y016772D01*
X005746Y013874D02*
X005657Y013874D01*
X005613Y013829D01*
X005613Y013653D01*
X005657Y013608D01*
X005746Y013608D01*
X005790Y013653D01*
X005903Y013608D02*
X006080Y013608D01*
X005991Y013608D02*
X005991Y013874D01*
X005903Y013785D01*
X005790Y013829D02*
X005746Y013874D01*
X005746Y013480D02*
X005657Y013480D01*
X005613Y013436D01*
X005613Y013259D01*
X005657Y013215D01*
X005746Y013215D01*
X005790Y013259D01*
X005903Y013215D02*
X006080Y013215D01*
X005991Y013215D02*
X005991Y013480D01*
X005903Y013392D01*
X005790Y013436D02*
X005746Y013480D01*
X005746Y013086D02*
X005657Y013086D01*
X005613Y013042D01*
X005613Y012865D01*
X005657Y012821D01*
X005746Y012821D01*
X005790Y012865D01*
X005903Y012821D02*
X006080Y012821D01*
X005991Y012821D02*
X005991Y013086D01*
X005903Y012998D01*
X005790Y013042D02*
X005746Y013086D01*
X005746Y012693D02*
X005657Y012693D01*
X005613Y012648D01*
X005613Y012472D01*
X005657Y012427D01*
X005746Y012427D01*
X005790Y012472D01*
X005903Y012427D02*
X006080Y012604D01*
X006080Y012648D01*
X006036Y012693D01*
X005947Y012693D01*
X005903Y012648D01*
X005790Y012648D02*
X005746Y012693D01*
X005903Y012427D02*
X006080Y012427D01*
X006193Y012472D02*
X006370Y012648D01*
X006370Y012472D01*
X006326Y012427D01*
X006237Y012427D01*
X006193Y012472D01*
X006193Y012648D01*
X006237Y012693D01*
X006326Y012693D01*
X006370Y012648D01*
X006326Y012821D02*
X006370Y012865D01*
X006370Y013042D01*
X006326Y013086D01*
X006237Y013086D01*
X006193Y013042D01*
X006193Y012998D01*
X006237Y012954D01*
X006370Y012954D01*
X006326Y012821D02*
X006237Y012821D01*
X006193Y012865D01*
X006237Y013215D02*
X006193Y013259D01*
X006193Y013303D01*
X006237Y013347D01*
X006326Y013347D01*
X006370Y013303D01*
X006370Y013259D01*
X006326Y013215D01*
X006237Y013215D01*
X006237Y013347D02*
X006193Y013392D01*
X006193Y013436D01*
X006237Y013480D01*
X006326Y013480D01*
X006370Y013436D01*
X006370Y013392D01*
X006326Y013347D01*
X006193Y013608D02*
X006193Y013653D01*
X006370Y013829D01*
X006370Y013874D01*
X006193Y013874D01*
X006237Y012299D02*
X006326Y012299D01*
X006370Y012255D01*
X006370Y012210D01*
X006326Y012166D01*
X006370Y012122D01*
X006370Y012078D01*
X006326Y012034D01*
X006237Y012034D01*
X006193Y012078D01*
X006080Y012034D02*
X005903Y012034D01*
X005903Y012299D01*
X006193Y012255D02*
X006237Y012299D01*
X006281Y012166D02*
X006326Y012166D01*
X006281Y011905D02*
X006281Y011640D01*
X006193Y011640D02*
X006370Y011640D01*
X006326Y011511D02*
X006370Y011467D01*
X006193Y011290D01*
X006237Y011246D01*
X006326Y011246D01*
X006370Y011290D01*
X006370Y011467D01*
X006326Y011511D02*
X006237Y011511D01*
X006193Y011467D01*
X006193Y011290D01*
X006080Y011246D02*
X005903Y011246D01*
X005991Y011246D02*
X005991Y011511D01*
X005903Y011423D01*
X005790Y011379D02*
X005746Y011335D01*
X005613Y011335D01*
X005701Y011335D02*
X005790Y011246D01*
X005790Y011379D02*
X005790Y011467D01*
X005746Y011511D01*
X005613Y011511D01*
X005613Y011246D01*
X005657Y011640D02*
X005746Y011640D01*
X005790Y011684D01*
X005903Y011640D02*
X006080Y011817D01*
X006080Y011861D01*
X006036Y011905D01*
X005947Y011905D01*
X005903Y011861D01*
X005790Y011861D02*
X005746Y011905D01*
X005657Y011905D01*
X005613Y011861D01*
X005613Y011684D01*
X005657Y011640D01*
X005903Y011640D02*
X006080Y011640D01*
X006193Y011817D02*
X006281Y011905D01*
X005454Y010355D02*
X005456Y010404D01*
X005462Y010453D01*
X005472Y010501D01*
X005485Y010548D01*
X005503Y010594D01*
X005524Y010638D01*
X005548Y010681D01*
X005576Y010721D01*
X005607Y010760D01*
X005641Y010795D01*
X005678Y010828D01*
X005717Y010857D01*
X005759Y010883D01*
X005802Y010906D01*
X005848Y010925D01*
X005894Y010941D01*
X005942Y010953D01*
X005990Y010961D01*
X006039Y010965D01*
X006089Y010965D01*
X006138Y010961D01*
X006186Y010953D01*
X006234Y010941D01*
X006280Y010925D01*
X006326Y010906D01*
X006369Y010883D01*
X006411Y010857D01*
X006450Y010828D01*
X006487Y010795D01*
X006521Y010760D01*
X006552Y010721D01*
X006580Y010681D01*
X006604Y010638D01*
X006625Y010594D01*
X006643Y010548D01*
X006656Y010501D01*
X006666Y010453D01*
X006672Y010404D01*
X006674Y010355D01*
X006672Y010306D01*
X006666Y010257D01*
X006656Y010209D01*
X006643Y010162D01*
X006625Y010116D01*
X006604Y010072D01*
X006580Y010029D01*
X006552Y009989D01*
X006521Y009950D01*
X006487Y009915D01*
X006450Y009882D01*
X006411Y009853D01*
X006369Y009827D01*
X006326Y009804D01*
X006280Y009785D01*
X006234Y009769D01*
X006186Y009757D01*
X006138Y009749D01*
X006089Y009745D01*
X006039Y009745D01*
X005990Y009749D01*
X005942Y009757D01*
X005894Y009769D01*
X005848Y009785D01*
X005802Y009804D01*
X005759Y009827D01*
X005717Y009853D01*
X005678Y009882D01*
X005641Y009915D01*
X005607Y009950D01*
X005576Y009989D01*
X005548Y010029D01*
X005524Y010072D01*
X005503Y010116D01*
X005485Y010162D01*
X005472Y010209D01*
X005462Y010257D01*
X005456Y010306D01*
X005454Y010355D01*
D16*
X009667Y004056D02*
X009669Y004116D01*
X009675Y004177D01*
X009685Y004236D01*
X009699Y004295D01*
X009716Y004353D01*
X009737Y004410D01*
X009762Y004465D01*
X009791Y004518D01*
X009823Y004570D01*
X009858Y004619D01*
X009897Y004666D01*
X009938Y004710D01*
X009982Y004751D01*
X010029Y004790D01*
X010078Y004825D01*
X010129Y004857D01*
X010183Y004886D01*
X010238Y004911D01*
X010295Y004932D01*
X010353Y004949D01*
X010412Y004963D01*
X010471Y004973D01*
X010532Y004979D01*
X010592Y004981D01*
X010652Y004979D01*
X010713Y004973D01*
X010772Y004963D01*
X010831Y004949D01*
X010889Y004932D01*
X010946Y004911D01*
X011001Y004886D01*
X011054Y004857D01*
X011106Y004825D01*
X011155Y004790D01*
X011202Y004751D01*
X011246Y004710D01*
X011287Y004666D01*
X011326Y004619D01*
X011361Y004570D01*
X011393Y004519D01*
X011422Y004465D01*
X011447Y004410D01*
X011468Y004353D01*
X011485Y004295D01*
X011499Y004236D01*
X011509Y004177D01*
X011515Y004116D01*
X011517Y004056D01*
X011515Y003996D01*
X011509Y003935D01*
X011499Y003876D01*
X011485Y003817D01*
X011468Y003759D01*
X011447Y003702D01*
X011422Y003647D01*
X011393Y003594D01*
X011361Y003542D01*
X011326Y003493D01*
X011287Y003446D01*
X011246Y003402D01*
X011202Y003361D01*
X011155Y003322D01*
X011106Y003287D01*
X011055Y003255D01*
X011001Y003226D01*
X010946Y003201D01*
X010889Y003180D01*
X010831Y003163D01*
X010772Y003149D01*
X010713Y003139D01*
X010652Y003133D01*
X010592Y003131D01*
X010532Y003133D01*
X010471Y003139D01*
X010412Y003149D01*
X010353Y003163D01*
X010295Y003180D01*
X010238Y003201D01*
X010183Y003226D01*
X010130Y003255D01*
X010078Y003287D01*
X010029Y003322D01*
X009982Y003361D01*
X009938Y003402D01*
X009897Y003446D01*
X009858Y003493D01*
X009823Y003542D01*
X009791Y003593D01*
X009762Y003647D01*
X009737Y003702D01*
X009716Y003759D01*
X009699Y003817D01*
X009685Y003876D01*
X009675Y003935D01*
X009669Y003996D01*
X009667Y004056D01*
X017147Y004056D02*
X017149Y004116D01*
X017155Y004177D01*
X017165Y004236D01*
X017179Y004295D01*
X017196Y004353D01*
X017217Y004410D01*
X017242Y004465D01*
X017271Y004518D01*
X017303Y004570D01*
X017338Y004619D01*
X017377Y004666D01*
X017418Y004710D01*
X017462Y004751D01*
X017509Y004790D01*
X017558Y004825D01*
X017609Y004857D01*
X017663Y004886D01*
X017718Y004911D01*
X017775Y004932D01*
X017833Y004949D01*
X017892Y004963D01*
X017951Y004973D01*
X018012Y004979D01*
X018072Y004981D01*
X018132Y004979D01*
X018193Y004973D01*
X018252Y004963D01*
X018311Y004949D01*
X018369Y004932D01*
X018426Y004911D01*
X018481Y004886D01*
X018534Y004857D01*
X018586Y004825D01*
X018635Y004790D01*
X018682Y004751D01*
X018726Y004710D01*
X018767Y004666D01*
X018806Y004619D01*
X018841Y004570D01*
X018873Y004519D01*
X018902Y004465D01*
X018927Y004410D01*
X018948Y004353D01*
X018965Y004295D01*
X018979Y004236D01*
X018989Y004177D01*
X018995Y004116D01*
X018997Y004056D01*
X018995Y003996D01*
X018989Y003935D01*
X018979Y003876D01*
X018965Y003817D01*
X018948Y003759D01*
X018927Y003702D01*
X018902Y003647D01*
X018873Y003594D01*
X018841Y003542D01*
X018806Y003493D01*
X018767Y003446D01*
X018726Y003402D01*
X018682Y003361D01*
X018635Y003322D01*
X018586Y003287D01*
X018535Y003255D01*
X018481Y003226D01*
X018426Y003201D01*
X018369Y003180D01*
X018311Y003163D01*
X018252Y003149D01*
X018193Y003139D01*
X018132Y003133D01*
X018072Y003131D01*
X018012Y003133D01*
X017951Y003139D01*
X017892Y003149D01*
X017833Y003163D01*
X017775Y003180D01*
X017718Y003201D01*
X017663Y003226D01*
X017610Y003255D01*
X017558Y003287D01*
X017509Y003322D01*
X017462Y003361D01*
X017418Y003402D01*
X017377Y003446D01*
X017338Y003493D01*
X017303Y003542D01*
X017271Y003593D01*
X017242Y003647D01*
X017217Y003702D01*
X017196Y003759D01*
X017179Y003817D01*
X017165Y003876D01*
X017155Y003935D01*
X017149Y003996D01*
X017147Y004056D01*
D17*
X014922Y027088D02*
X014905Y027133D01*
X014884Y027177D01*
X014860Y027219D01*
X014833Y027259D01*
X014803Y027297D01*
X014770Y027333D01*
X014734Y027366D01*
X014696Y027396D01*
X014655Y027422D01*
X014613Y027446D01*
X014569Y027466D01*
X014523Y027483D01*
X014476Y027496D01*
X014429Y027505D01*
X014381Y027511D01*
X014332Y027513D01*
X014283Y027511D01*
X014235Y027505D01*
X014188Y027496D01*
X014141Y027483D01*
X014095Y027466D01*
X014051Y027446D01*
X014009Y027422D01*
X013968Y027396D01*
X013930Y027366D01*
X013894Y027333D01*
X013861Y027297D01*
X013831Y027259D01*
X013804Y027219D01*
X013780Y027177D01*
X013759Y027133D01*
X013742Y027088D01*
X013742Y026694D02*
X013759Y026649D01*
X013780Y026605D01*
X013804Y026563D01*
X013831Y026523D01*
X013861Y026485D01*
X013894Y026449D01*
X013930Y026416D01*
X013968Y026386D01*
X014009Y026360D01*
X014051Y026336D01*
X014095Y026316D01*
X014141Y026299D01*
X014188Y026286D01*
X014235Y026277D01*
X014283Y026271D01*
X014332Y026269D01*
X014381Y026271D01*
X014429Y026277D01*
X014476Y026286D01*
X014523Y026299D01*
X014569Y026316D01*
X014613Y026336D01*
X014655Y026360D01*
X014696Y026386D01*
X014734Y026416D01*
X014770Y026449D01*
X014803Y026485D01*
X014833Y026523D01*
X014860Y026563D01*
X014884Y026605D01*
X014905Y026649D01*
X014922Y026694D01*
D18*
X012523Y026891D02*
X012525Y026976D01*
X012531Y027060D01*
X012541Y027145D01*
X012555Y027228D01*
X012572Y027311D01*
X012594Y027393D01*
X012620Y027474D01*
X012649Y027554D01*
X012682Y027632D01*
X012718Y027708D01*
X012758Y027783D01*
X012802Y027856D01*
X012849Y027927D01*
X012899Y027995D01*
X012952Y028061D01*
X013009Y028124D01*
X013068Y028185D01*
X013130Y028243D01*
X013195Y028298D01*
X013262Y028350D01*
X013331Y028398D01*
X013403Y028443D01*
X013477Y028485D01*
X013553Y028523D01*
X013630Y028558D01*
X013709Y028589D01*
X013789Y028617D01*
X013871Y028640D01*
X013953Y028660D01*
X014036Y028676D01*
X014120Y028688D01*
X014205Y028696D01*
X014290Y028700D01*
X014374Y028700D01*
X014459Y028696D01*
X014544Y028688D01*
X014628Y028676D01*
X014711Y028660D01*
X014793Y028640D01*
X014875Y028617D01*
X014955Y028589D01*
X015034Y028558D01*
X015111Y028523D01*
X015187Y028485D01*
X015261Y028443D01*
X015333Y028398D01*
X015402Y028350D01*
X015469Y028298D01*
X015534Y028243D01*
X015596Y028185D01*
X015655Y028124D01*
X015712Y028061D01*
X015765Y027995D01*
X015815Y027927D01*
X015862Y027856D01*
X015906Y027783D01*
X015946Y027708D01*
X015982Y027632D01*
X016015Y027554D01*
X016044Y027474D01*
X016070Y027393D01*
X016092Y027311D01*
X016109Y027228D01*
X016123Y027145D01*
X016133Y027060D01*
X016139Y026976D01*
X016141Y026891D01*
X016139Y026806D01*
X016133Y026722D01*
X016123Y026637D01*
X016109Y026554D01*
X016092Y026471D01*
X016070Y026389D01*
X016044Y026308D01*
X016015Y026228D01*
X015982Y026150D01*
X015946Y026074D01*
X015906Y025999D01*
X015862Y025926D01*
X015815Y025855D01*
X015765Y025787D01*
X015712Y025721D01*
X015655Y025658D01*
X015596Y025597D01*
X015534Y025539D01*
X015469Y025484D01*
X015402Y025432D01*
X015333Y025384D01*
X015261Y025339D01*
X015187Y025297D01*
X015111Y025259D01*
X015034Y025224D01*
X014955Y025193D01*
X014875Y025165D01*
X014793Y025142D01*
X014711Y025122D01*
X014628Y025106D01*
X014544Y025094D01*
X014459Y025086D01*
X014374Y025082D01*
X014290Y025082D01*
X014205Y025086D01*
X014120Y025094D01*
X014036Y025106D01*
X013953Y025122D01*
X013871Y025142D01*
X013789Y025165D01*
X013709Y025193D01*
X013630Y025224D01*
X013553Y025259D01*
X013477Y025297D01*
X013403Y025339D01*
X013331Y025384D01*
X013262Y025432D01*
X013195Y025484D01*
X013130Y025539D01*
X013068Y025597D01*
X013009Y025658D01*
X012952Y025721D01*
X012899Y025787D01*
X012849Y025855D01*
X012802Y025926D01*
X012758Y025999D01*
X012718Y026074D01*
X012682Y026150D01*
X012649Y026228D01*
X012620Y026308D01*
X012594Y026389D01*
X012572Y026471D01*
X012555Y026554D01*
X012541Y026637D01*
X012531Y026722D01*
X012525Y026806D01*
X012523Y026891D01*
X012532Y027291D02*
X012182Y027291D01*
X012182Y026491D01*
X012532Y026491D01*
X011970Y025548D02*
X011970Y028233D01*
X012989Y029253D02*
X015675Y029253D01*
X016694Y028233D02*
X016694Y025548D01*
X016482Y026491D02*
X016132Y026491D01*
X016482Y026491D02*
X016482Y027291D01*
X016132Y027291D01*
X015675Y024528D02*
X012989Y024528D01*
X015038Y020609D02*
X015011Y020562D01*
X014981Y020517D01*
X014948Y020474D01*
X014912Y020434D01*
X014873Y020396D01*
X014832Y020361D01*
X014789Y020328D01*
X014744Y020299D01*
X014696Y020273D01*
X014647Y020250D01*
X014597Y020230D01*
X014546Y020214D01*
X014493Y020201D01*
X014440Y020192D01*
X014386Y020187D01*
X014332Y020185D01*
X015027Y021382D02*
X014997Y021430D01*
X014964Y021475D01*
X014928Y021518D01*
X014890Y021559D01*
X014848Y021596D01*
X014804Y021631D01*
X014758Y021662D01*
X014709Y021691D01*
X014659Y021715D01*
X014607Y021736D01*
X014553Y021754D01*
X014499Y021767D01*
X014444Y021777D01*
X014388Y021783D01*
X014332Y021785D01*
X014279Y021783D01*
X014225Y021778D01*
X014173Y021769D01*
X014121Y021757D01*
X014070Y021741D01*
X014020Y021722D01*
X013971Y021699D01*
X013924Y021673D01*
X013879Y021645D01*
X013836Y021613D01*
X013796Y021579D01*
X013757Y021541D01*
X013721Y021502D01*
X013717Y020473D02*
X013753Y020433D01*
X013792Y020395D01*
X013833Y020360D01*
X013876Y020328D01*
X013921Y020298D01*
X013968Y020272D01*
X014017Y020250D01*
X014068Y020230D01*
X014119Y020214D01*
X014171Y020201D01*
X014225Y020192D01*
X014278Y020187D01*
X014332Y020185D01*
X014135Y018426D02*
X015218Y018426D01*
X014135Y018426D02*
X014133Y018387D01*
X014127Y018349D01*
X014118Y018312D01*
X014105Y018275D01*
X014088Y018240D01*
X014069Y018207D01*
X014046Y018176D01*
X014020Y018147D01*
X013991Y018121D01*
X013960Y018098D01*
X013927Y018079D01*
X013892Y018062D01*
X013855Y018049D01*
X013818Y018040D01*
X013780Y018034D01*
X013741Y018032D01*
X014135Y018426D02*
X014133Y018465D01*
X014127Y018503D01*
X014118Y018540D01*
X014105Y018577D01*
X014088Y018612D01*
X014069Y018645D01*
X014046Y018676D01*
X014020Y018705D01*
X013991Y018731D01*
X013960Y018754D01*
X013927Y018773D01*
X013892Y018790D01*
X013855Y018803D01*
X013818Y018812D01*
X013780Y018818D01*
X013741Y018820D01*
X009312Y012648D02*
X009312Y012422D01*
X009312Y012648D02*
X007541Y012648D01*
X007541Y011438D02*
X007541Y011211D01*
X009312Y011211D01*
X009312Y011438D01*
X007541Y012422D02*
X007542Y012535D01*
X007541Y012648D01*
X019352Y022954D02*
X020434Y022954D01*
X020436Y022993D01*
X020442Y023031D01*
X020451Y023068D01*
X020464Y023105D01*
X020481Y023140D01*
X020500Y023173D01*
X020523Y023204D01*
X020549Y023233D01*
X020578Y023259D01*
X020609Y023282D01*
X020642Y023301D01*
X020677Y023318D01*
X020714Y023331D01*
X020751Y023340D01*
X020789Y023346D01*
X020828Y023348D01*
X020434Y022954D02*
X020436Y022915D01*
X020442Y022877D01*
X020451Y022840D01*
X020464Y022803D01*
X020481Y022768D01*
X020500Y022735D01*
X020523Y022704D01*
X020549Y022675D01*
X020578Y022649D01*
X020609Y022626D01*
X020642Y022607D01*
X020677Y022590D01*
X020714Y022577D01*
X020751Y022568D01*
X020789Y022562D01*
X020828Y022560D01*
M02*
