G75*
%MOIN*%
%OFA0B0*%
%FSLAX24Y24*%
%IPPOS*%
%LPD*%
%AMOC8*
5,1,8,0,0,1.08239X$1,22.5*
%
%ADD10C,0.0080*%
%ADD11C,0.0110*%
%ADD12C,0.0060*%
%ADD13C,0.0079*%
%ADD14C,0.0050*%
%ADD15C,0.0000*%
%ADD16C,0.0039*%
%ADD17C,0.0120*%
%ADD18C,0.0100*%
%ADD19C,0.0020*%
D10*
X007580Y007166D02*
X007582Y007221D01*
X007588Y007275D01*
X007598Y007329D01*
X007612Y007381D01*
X007629Y007433D01*
X007651Y007483D01*
X007676Y007532D01*
X007704Y007579D01*
X007736Y007623D01*
X007771Y007665D01*
X007809Y007704D01*
X007850Y007741D01*
X007893Y007774D01*
X007938Y007804D01*
X007986Y007831D01*
X008035Y007854D01*
X008086Y007874D01*
X008139Y007890D01*
X008192Y007902D01*
X008246Y007910D01*
X008301Y007914D01*
X008355Y007914D01*
X008410Y007910D01*
X008464Y007902D01*
X008517Y007890D01*
X008570Y007874D01*
X008621Y007854D01*
X008670Y007831D01*
X008718Y007804D01*
X008763Y007774D01*
X008806Y007741D01*
X008847Y007704D01*
X008885Y007665D01*
X008920Y007623D01*
X008952Y007579D01*
X008980Y007532D01*
X009005Y007483D01*
X009027Y007433D01*
X009044Y007381D01*
X009058Y007329D01*
X009068Y007275D01*
X009074Y007221D01*
X009076Y007166D01*
X009074Y007111D01*
X009068Y007057D01*
X009058Y007003D01*
X009044Y006951D01*
X009027Y006899D01*
X009005Y006849D01*
X008980Y006800D01*
X008952Y006753D01*
X008920Y006709D01*
X008885Y006667D01*
X008847Y006628D01*
X008806Y006591D01*
X008763Y006558D01*
X008718Y006528D01*
X008670Y006501D01*
X008621Y006478D01*
X008570Y006458D01*
X008517Y006442D01*
X008464Y006430D01*
X008410Y006422D01*
X008355Y006418D01*
X008301Y006418D01*
X008246Y006422D01*
X008192Y006430D01*
X008139Y006442D01*
X008086Y006458D01*
X008035Y006478D01*
X007986Y006501D01*
X007938Y006528D01*
X007893Y006558D01*
X007850Y006591D01*
X007809Y006628D01*
X007771Y006667D01*
X007736Y006709D01*
X007704Y006753D01*
X007676Y006800D01*
X007651Y006849D01*
X007629Y006899D01*
X007612Y006951D01*
X007598Y007003D01*
X007588Y007057D01*
X007582Y007111D01*
X007580Y007166D01*
X010829Y007639D02*
X010989Y007639D01*
X010909Y007639D02*
X010909Y008120D01*
X010829Y008120D02*
X010989Y008120D01*
X011172Y007959D02*
X011253Y007959D01*
X011253Y007639D01*
X011333Y007639D02*
X011172Y007639D01*
X011253Y008120D02*
X011253Y008200D01*
X011516Y007959D02*
X011516Y007639D01*
X011516Y007959D02*
X011756Y007959D01*
X011836Y007879D01*
X011836Y007639D01*
X016341Y007639D02*
X016501Y007639D01*
X016421Y007639D02*
X016421Y008120D01*
X016341Y008120D02*
X016501Y008120D01*
X016684Y007879D02*
X016684Y007719D01*
X016764Y007639D01*
X016924Y007639D01*
X017005Y007719D01*
X017005Y007879D01*
X016924Y007959D01*
X016764Y007959D01*
X016684Y007879D01*
X017200Y007959D02*
X017200Y007719D01*
X017280Y007639D01*
X017520Y007639D01*
X017520Y007959D01*
X017716Y007959D02*
X017876Y007959D01*
X017796Y008040D02*
X017796Y007719D01*
X017876Y007639D01*
X019588Y007166D02*
X019590Y007221D01*
X019596Y007275D01*
X019606Y007329D01*
X019620Y007381D01*
X019637Y007433D01*
X019659Y007483D01*
X019684Y007532D01*
X019712Y007579D01*
X019744Y007623D01*
X019779Y007665D01*
X019817Y007704D01*
X019858Y007741D01*
X019901Y007774D01*
X019946Y007804D01*
X019994Y007831D01*
X020043Y007854D01*
X020094Y007874D01*
X020147Y007890D01*
X020200Y007902D01*
X020254Y007910D01*
X020309Y007914D01*
X020363Y007914D01*
X020418Y007910D01*
X020472Y007902D01*
X020525Y007890D01*
X020578Y007874D01*
X020629Y007854D01*
X020678Y007831D01*
X020726Y007804D01*
X020771Y007774D01*
X020814Y007741D01*
X020855Y007704D01*
X020893Y007665D01*
X020928Y007623D01*
X020960Y007579D01*
X020988Y007532D01*
X021013Y007483D01*
X021035Y007433D01*
X021052Y007381D01*
X021066Y007329D01*
X021076Y007275D01*
X021082Y007221D01*
X021084Y007166D01*
X021082Y007111D01*
X021076Y007057D01*
X021066Y007003D01*
X021052Y006951D01*
X021035Y006899D01*
X021013Y006849D01*
X020988Y006800D01*
X020960Y006753D01*
X020928Y006709D01*
X020893Y006667D01*
X020855Y006628D01*
X020814Y006591D01*
X020771Y006558D01*
X020726Y006528D01*
X020678Y006501D01*
X020629Y006478D01*
X020578Y006458D01*
X020525Y006442D01*
X020472Y006430D01*
X020418Y006422D01*
X020363Y006418D01*
X020309Y006418D01*
X020254Y006422D01*
X020200Y006430D01*
X020147Y006442D01*
X020094Y006458D01*
X020043Y006478D01*
X019994Y006501D01*
X019946Y006528D01*
X019901Y006558D01*
X019858Y006591D01*
X019817Y006628D01*
X019779Y006667D01*
X019744Y006709D01*
X019712Y006753D01*
X019684Y006800D01*
X019659Y006849D01*
X019637Y006899D01*
X019620Y006951D01*
X019606Y007003D01*
X019596Y007057D01*
X019590Y007111D01*
X019588Y007166D01*
X010907Y014902D02*
X009096Y014902D01*
X009096Y015080D01*
X009608Y015080D02*
X009608Y015867D01*
X009096Y015867D02*
X009096Y016044D01*
X010907Y016044D01*
X010907Y015867D01*
X010907Y015080D02*
X010907Y014902D01*
X007580Y026930D02*
X007582Y026985D01*
X007588Y027039D01*
X007598Y027093D01*
X007612Y027145D01*
X007629Y027197D01*
X007651Y027247D01*
X007676Y027296D01*
X007704Y027343D01*
X007736Y027387D01*
X007771Y027429D01*
X007809Y027468D01*
X007850Y027505D01*
X007893Y027538D01*
X007938Y027568D01*
X007986Y027595D01*
X008035Y027618D01*
X008086Y027638D01*
X008139Y027654D01*
X008192Y027666D01*
X008246Y027674D01*
X008301Y027678D01*
X008355Y027678D01*
X008410Y027674D01*
X008464Y027666D01*
X008517Y027654D01*
X008570Y027638D01*
X008621Y027618D01*
X008670Y027595D01*
X008718Y027568D01*
X008763Y027538D01*
X008806Y027505D01*
X008847Y027468D01*
X008885Y027429D01*
X008920Y027387D01*
X008952Y027343D01*
X008980Y027296D01*
X009005Y027247D01*
X009027Y027197D01*
X009044Y027145D01*
X009058Y027093D01*
X009068Y027039D01*
X009074Y026985D01*
X009076Y026930D01*
X009074Y026875D01*
X009068Y026821D01*
X009058Y026767D01*
X009044Y026715D01*
X009027Y026663D01*
X009005Y026613D01*
X008980Y026564D01*
X008952Y026517D01*
X008920Y026473D01*
X008885Y026431D01*
X008847Y026392D01*
X008806Y026355D01*
X008763Y026322D01*
X008718Y026292D01*
X008670Y026265D01*
X008621Y026242D01*
X008570Y026222D01*
X008517Y026206D01*
X008464Y026194D01*
X008410Y026186D01*
X008355Y026182D01*
X008301Y026182D01*
X008246Y026186D01*
X008192Y026194D01*
X008139Y026206D01*
X008086Y026222D01*
X008035Y026242D01*
X007986Y026265D01*
X007938Y026292D01*
X007893Y026322D01*
X007850Y026355D01*
X007809Y026392D01*
X007771Y026431D01*
X007736Y026473D01*
X007704Y026517D01*
X007676Y026564D01*
X007651Y026613D01*
X007629Y026663D01*
X007612Y026715D01*
X007598Y026767D01*
X007588Y026821D01*
X007582Y026875D01*
X007580Y026930D01*
X010069Y029686D02*
X010229Y029686D01*
X010309Y029767D01*
X010505Y029686D02*
X010505Y030167D01*
X010665Y030007D01*
X010825Y030167D01*
X010825Y029686D01*
X011020Y029767D02*
X011100Y029686D01*
X011261Y029686D01*
X011341Y029767D01*
X011341Y029847D01*
X011261Y029927D01*
X011100Y029927D01*
X011020Y030007D01*
X011020Y030087D01*
X011100Y030167D01*
X011261Y030167D01*
X011341Y030087D01*
X011536Y030087D02*
X011616Y030167D01*
X011776Y030167D01*
X011856Y030087D01*
X011856Y030007D01*
X011776Y029927D01*
X011856Y029847D01*
X011856Y029767D01*
X011776Y029686D01*
X011616Y029686D01*
X011536Y029767D01*
X011696Y029927D02*
X011776Y029927D01*
X012052Y029767D02*
X012052Y030087D01*
X012132Y030167D01*
X012292Y030167D01*
X012372Y030087D01*
X012052Y029767D01*
X012132Y029686D01*
X012292Y029686D01*
X012372Y029767D01*
X012372Y030087D01*
X012567Y030087D02*
X012567Y029767D01*
X012888Y030087D01*
X012888Y029767D01*
X012807Y029686D01*
X012647Y029686D01*
X012567Y029767D01*
X012567Y030087D02*
X012647Y030167D01*
X012807Y030167D01*
X012888Y030087D01*
X013083Y030167D02*
X013083Y029927D01*
X013243Y030007D01*
X013323Y030007D01*
X013403Y029927D01*
X013403Y029767D01*
X013323Y029686D01*
X013163Y029686D01*
X013083Y029767D01*
X013083Y030167D02*
X013403Y030167D01*
X013489Y030526D02*
X013249Y030526D01*
X013169Y030607D01*
X013169Y030847D01*
X012973Y030767D02*
X012973Y030607D01*
X012893Y030526D01*
X012653Y030526D01*
X012653Y030366D02*
X012653Y030847D01*
X012893Y030847D01*
X012973Y030767D01*
X013489Y030847D02*
X013489Y030526D01*
X013684Y030526D02*
X013845Y030526D01*
X013765Y030526D02*
X013765Y031007D01*
X013684Y031007D01*
X014028Y030767D02*
X014108Y030847D01*
X014349Y030847D01*
X014268Y030687D02*
X014108Y030687D01*
X014028Y030767D01*
X014028Y030526D02*
X014268Y030526D01*
X014349Y030607D01*
X014268Y030687D01*
X014544Y030687D02*
X014864Y030687D01*
X014864Y030767D01*
X014784Y030847D01*
X014624Y030847D01*
X014544Y030767D01*
X014544Y030607D01*
X014624Y030526D01*
X014784Y030526D01*
X015060Y030607D02*
X015060Y030767D01*
X015140Y030847D01*
X015380Y030847D01*
X015380Y031007D02*
X015380Y030526D01*
X015140Y030526D01*
X015060Y030607D01*
X015226Y030167D02*
X015145Y030087D01*
X015145Y029767D01*
X015226Y029686D01*
X015386Y029686D01*
X015466Y029767D01*
X015661Y029686D02*
X015661Y030167D01*
X015821Y030007D01*
X015981Y030167D01*
X015981Y029686D01*
X016177Y029767D02*
X016257Y029686D01*
X016417Y029686D01*
X016497Y029767D01*
X016497Y029847D01*
X016417Y029927D01*
X016257Y029927D01*
X016177Y030007D01*
X016177Y030087D01*
X016257Y030167D01*
X016417Y030167D01*
X016497Y030087D01*
X016692Y030087D02*
X016772Y030167D01*
X016933Y030167D01*
X017013Y030087D01*
X017013Y030007D01*
X016933Y029927D01*
X017013Y029847D01*
X017013Y029767D01*
X016933Y029686D01*
X016772Y029686D01*
X016692Y029767D01*
X016853Y029927D02*
X016933Y029927D01*
X017208Y029767D02*
X017208Y030087D01*
X017288Y030167D01*
X017448Y030167D01*
X017528Y030087D01*
X017208Y029767D01*
X017288Y029686D01*
X017448Y029686D01*
X017528Y029767D01*
X017528Y030087D01*
X017724Y030007D02*
X017884Y030167D01*
X017884Y029686D01*
X017724Y029686D02*
X018044Y029686D01*
X018239Y029767D02*
X018319Y029686D01*
X018480Y029686D01*
X018560Y029767D01*
X018560Y029927D01*
X018480Y030007D01*
X018399Y030007D01*
X018239Y029927D01*
X018239Y030167D01*
X018560Y030167D01*
X018394Y030526D02*
X018233Y030526D01*
X018153Y030607D01*
X018153Y030767D01*
X018394Y030767D01*
X018474Y030687D01*
X018474Y030607D01*
X018394Y030526D01*
X018669Y030607D02*
X018989Y030927D01*
X018989Y030607D01*
X018909Y030526D01*
X018749Y030526D01*
X018669Y030607D01*
X018669Y030927D01*
X018749Y031007D01*
X018909Y031007D01*
X018989Y030927D01*
X019185Y030847D02*
X019185Y030526D01*
X019185Y030767D02*
X019505Y030767D01*
X019505Y030847D02*
X019505Y030526D01*
X019700Y030526D02*
X019860Y030687D01*
X019860Y030847D01*
X019700Y031007D01*
X019505Y030847D02*
X019345Y031007D01*
X019185Y030847D01*
X018474Y031007D02*
X018313Y030927D01*
X018153Y030767D01*
X017958Y031007D02*
X017638Y030526D01*
X017442Y030526D02*
X017442Y030847D01*
X017282Y031007D01*
X017122Y030847D01*
X017122Y030526D01*
X016927Y030607D02*
X016847Y030526D01*
X016687Y030526D01*
X016606Y030607D01*
X016927Y030927D01*
X016927Y030607D01*
X017122Y030767D02*
X017442Y030767D01*
X016927Y030927D02*
X016847Y031007D01*
X016687Y031007D01*
X016606Y030927D01*
X016606Y030607D01*
X016411Y030526D02*
X016091Y030526D01*
X016411Y030847D01*
X016411Y030927D01*
X016331Y031007D01*
X016171Y031007D01*
X016091Y030927D01*
X015386Y030167D02*
X015466Y030087D01*
X015386Y030167D02*
X015226Y030167D01*
X014434Y030167D02*
X014114Y029686D01*
X012470Y030526D02*
X012309Y030687D01*
X012309Y030847D01*
X012470Y031007D01*
X011598Y030847D02*
X011598Y030526D01*
X011598Y030767D02*
X011278Y030767D01*
X011278Y030847D02*
X011438Y031007D01*
X011598Y030847D01*
X011278Y030847D02*
X011278Y030526D01*
X011083Y030607D02*
X011003Y030526D01*
X010843Y030526D01*
X010763Y030607D01*
X010763Y030767D02*
X010923Y030847D01*
X011003Y030847D01*
X011083Y030767D01*
X011083Y030607D01*
X010763Y030767D02*
X010763Y031007D01*
X011083Y031007D01*
X010407Y031007D02*
X010407Y030526D01*
X010247Y030526D02*
X010567Y030526D01*
X010247Y030847D02*
X010407Y031007D01*
X010052Y031007D02*
X009731Y030526D01*
X009536Y030526D02*
X009536Y030847D01*
X009376Y031007D01*
X009216Y030847D01*
X009216Y030526D01*
X009020Y030607D02*
X008940Y030526D01*
X008780Y030526D01*
X008700Y030607D01*
X008700Y030767D02*
X008860Y030847D01*
X008940Y030847D01*
X009020Y030767D01*
X009020Y030607D01*
X009216Y030767D02*
X009536Y030767D01*
X009020Y031007D02*
X008700Y031007D01*
X008700Y030767D01*
X009989Y030087D02*
X009989Y029767D01*
X010069Y029686D01*
X009989Y030087D02*
X010069Y030167D01*
X010229Y030167D01*
X010309Y030087D01*
X019588Y026930D02*
X019590Y026985D01*
X019596Y027039D01*
X019606Y027093D01*
X019620Y027145D01*
X019637Y027197D01*
X019659Y027247D01*
X019684Y027296D01*
X019712Y027343D01*
X019744Y027387D01*
X019779Y027429D01*
X019817Y027468D01*
X019858Y027505D01*
X019901Y027538D01*
X019946Y027568D01*
X019994Y027595D01*
X020043Y027618D01*
X020094Y027638D01*
X020147Y027654D01*
X020200Y027666D01*
X020254Y027674D01*
X020309Y027678D01*
X020363Y027678D01*
X020418Y027674D01*
X020472Y027666D01*
X020525Y027654D01*
X020578Y027638D01*
X020629Y027618D01*
X020678Y027595D01*
X020726Y027568D01*
X020771Y027538D01*
X020814Y027505D01*
X020855Y027468D01*
X020893Y027429D01*
X020928Y027387D01*
X020960Y027343D01*
X020988Y027296D01*
X021013Y027247D01*
X021035Y027197D01*
X021052Y027145D01*
X021066Y027093D01*
X021076Y027039D01*
X021082Y026985D01*
X021084Y026930D01*
X021082Y026875D01*
X021076Y026821D01*
X021066Y026767D01*
X021052Y026715D01*
X021035Y026663D01*
X021013Y026613D01*
X020988Y026564D01*
X020960Y026517D01*
X020928Y026473D01*
X020893Y026431D01*
X020855Y026392D01*
X020814Y026355D01*
X020771Y026322D01*
X020726Y026292D01*
X020678Y026265D01*
X020629Y026242D01*
X020578Y026222D01*
X020525Y026206D01*
X020472Y026194D01*
X020418Y026186D01*
X020363Y026182D01*
X020309Y026182D01*
X020254Y026186D01*
X020200Y026194D01*
X020147Y026206D01*
X020094Y026222D01*
X020043Y026242D01*
X019994Y026265D01*
X019946Y026292D01*
X019901Y026322D01*
X019858Y026355D01*
X019817Y026392D01*
X019779Y026431D01*
X019744Y026473D01*
X019712Y026517D01*
X019684Y026564D01*
X019659Y026613D01*
X019637Y026663D01*
X019620Y026715D01*
X019606Y026767D01*
X019596Y026821D01*
X019590Y026875D01*
X019588Y026930D01*
D11*
X017842Y031670D02*
X017449Y031670D01*
X017645Y031670D02*
X017645Y032260D01*
X017449Y032064D01*
X017198Y032260D02*
X017198Y031867D01*
X017001Y031670D01*
X016804Y031867D01*
X016804Y032260D01*
X015909Y031965D02*
X015909Y031867D01*
X015515Y031867D01*
X015515Y031965D02*
X015613Y032064D01*
X015810Y032064D01*
X015909Y031965D01*
X015810Y031670D02*
X015613Y031670D01*
X015515Y031768D01*
X015515Y031965D01*
X015264Y031965D02*
X015166Y032064D01*
X014870Y032064D01*
X014870Y032260D02*
X014870Y031670D01*
X015166Y031670D01*
X015264Y031768D01*
X015264Y031965D01*
X014620Y031965D02*
X014521Y032064D01*
X014324Y032064D01*
X014226Y031965D01*
X014226Y031768D01*
X014324Y031670D01*
X014521Y031670D01*
X014620Y031768D01*
X014620Y031965D01*
X013984Y032064D02*
X013886Y032064D01*
X013689Y031867D01*
X013689Y031670D02*
X013689Y032064D01*
X013438Y032162D02*
X013438Y031965D01*
X013339Y031867D01*
X013044Y031867D01*
X013044Y031670D02*
X013044Y032260D01*
X013339Y032260D01*
X013438Y032162D01*
X012149Y032064D02*
X011854Y032064D01*
X011755Y031965D01*
X011755Y031768D01*
X011854Y031670D01*
X012149Y031670D01*
X011504Y031670D02*
X011504Y032260D01*
X011504Y032064D02*
X011209Y032064D01*
X011111Y031965D01*
X011111Y031768D01*
X011209Y031670D01*
X011504Y031670D01*
X010878Y031670D02*
X010681Y031670D01*
X010779Y031670D02*
X010779Y032260D01*
X010681Y032260D02*
X010878Y032260D01*
D12*
X006978Y026930D02*
X006980Y027003D01*
X006986Y027076D01*
X006996Y027148D01*
X007010Y027220D01*
X007027Y027291D01*
X007049Y027361D01*
X007074Y027430D01*
X007103Y027497D01*
X007135Y027562D01*
X007171Y027626D01*
X007211Y027688D01*
X007253Y027747D01*
X007299Y027804D01*
X007348Y027858D01*
X007400Y027910D01*
X007454Y027959D01*
X007511Y028005D01*
X007570Y028047D01*
X007632Y028087D01*
X007696Y028123D01*
X007761Y028155D01*
X007828Y028184D01*
X007897Y028209D01*
X007967Y028231D01*
X008038Y028248D01*
X008110Y028262D01*
X008182Y028272D01*
X008255Y028278D01*
X008328Y028280D01*
X008401Y028278D01*
X008474Y028272D01*
X008546Y028262D01*
X008618Y028248D01*
X008689Y028231D01*
X008759Y028209D01*
X008828Y028184D01*
X008895Y028155D01*
X008960Y028123D01*
X009024Y028087D01*
X009086Y028047D01*
X009145Y028005D01*
X009202Y027959D01*
X009256Y027910D01*
X009308Y027858D01*
X009357Y027804D01*
X009403Y027747D01*
X009445Y027688D01*
X009485Y027626D01*
X009521Y027562D01*
X009553Y027497D01*
X009582Y027430D01*
X009607Y027361D01*
X009629Y027291D01*
X009646Y027220D01*
X009660Y027148D01*
X009670Y027076D01*
X009676Y027003D01*
X009678Y026930D01*
X009676Y026857D01*
X009670Y026784D01*
X009660Y026712D01*
X009646Y026640D01*
X009629Y026569D01*
X009607Y026499D01*
X009582Y026430D01*
X009553Y026363D01*
X009521Y026298D01*
X009485Y026234D01*
X009445Y026172D01*
X009403Y026113D01*
X009357Y026056D01*
X009308Y026002D01*
X009256Y025950D01*
X009202Y025901D01*
X009145Y025855D01*
X009086Y025813D01*
X009024Y025773D01*
X008960Y025737D01*
X008895Y025705D01*
X008828Y025676D01*
X008759Y025651D01*
X008689Y025629D01*
X008618Y025612D01*
X008546Y025598D01*
X008474Y025588D01*
X008401Y025582D01*
X008328Y025580D01*
X008255Y025582D01*
X008182Y025588D01*
X008110Y025598D01*
X008038Y025612D01*
X007967Y025629D01*
X007897Y025651D01*
X007828Y025676D01*
X007761Y025705D01*
X007696Y025737D01*
X007632Y025773D01*
X007570Y025813D01*
X007511Y025855D01*
X007454Y025901D01*
X007400Y025950D01*
X007348Y026002D01*
X007299Y026056D01*
X007253Y026113D01*
X007211Y026172D01*
X007171Y026234D01*
X007135Y026298D01*
X007103Y026363D01*
X007074Y026430D01*
X007049Y026499D01*
X007027Y026569D01*
X007010Y026640D01*
X006996Y026712D01*
X006986Y026784D01*
X006980Y026857D01*
X006978Y026930D01*
X009024Y022663D02*
X009024Y022523D01*
X009024Y022663D02*
X009164Y022663D01*
X009024Y021163D02*
X009024Y021023D01*
X008774Y021023D01*
X009024Y021023D02*
X009024Y020773D01*
X009024Y021023D02*
X009164Y021023D01*
X008092Y020572D02*
X007304Y020572D01*
X007501Y020296D02*
X007738Y020139D01*
X007738Y020454D01*
X007501Y020296D01*
X007304Y020020D02*
X008092Y020020D01*
X010524Y021023D02*
X010664Y021023D01*
X010664Y021163D01*
X011399Y021772D02*
X011399Y022560D01*
X011675Y022363D02*
X011517Y022127D01*
X011832Y022127D01*
X011675Y022363D01*
X011950Y022560D02*
X011950Y021772D01*
X010664Y022523D02*
X010664Y022663D01*
X010524Y022663D01*
X014332Y017648D02*
X014379Y017646D01*
X014427Y017640D01*
X014473Y017631D01*
X014519Y017618D01*
X014563Y017602D01*
X014607Y017581D01*
X014648Y017558D01*
X014687Y017532D01*
X014724Y017502D01*
X014759Y017469D01*
X014791Y017434D01*
X014820Y017397D01*
X014332Y016448D02*
X014287Y016450D01*
X014241Y016455D01*
X014197Y016463D01*
X014153Y016475D01*
X014110Y016491D01*
X014068Y016509D01*
X014028Y016531D01*
X013990Y016555D01*
X013954Y016582D01*
X013919Y016612D01*
X013888Y016645D01*
X013858Y016680D01*
X014332Y016448D02*
X014377Y016450D01*
X014423Y016455D01*
X014467Y016463D01*
X014511Y016475D01*
X014554Y016491D01*
X014596Y016509D01*
X014636Y016531D01*
X014674Y016555D01*
X014710Y016582D01*
X014745Y016612D01*
X014776Y016645D01*
X014806Y016680D01*
X014332Y017648D02*
X014286Y017646D01*
X014240Y017641D01*
X014194Y017632D01*
X014149Y017620D01*
X014106Y017604D01*
X014064Y017585D01*
X014023Y017562D01*
X013984Y017537D01*
X013948Y017509D01*
X013913Y017478D01*
X013881Y017444D01*
X013852Y017408D01*
X008426Y016143D02*
X007639Y016143D01*
X007993Y016024D02*
X008230Y015867D01*
X007993Y015709D01*
X007993Y016024D01*
X007639Y015591D02*
X008426Y015591D01*
X006978Y007166D02*
X006980Y007239D01*
X006986Y007312D01*
X006996Y007384D01*
X007010Y007456D01*
X007027Y007527D01*
X007049Y007597D01*
X007074Y007666D01*
X007103Y007733D01*
X007135Y007798D01*
X007171Y007862D01*
X007211Y007924D01*
X007253Y007983D01*
X007299Y008040D01*
X007348Y008094D01*
X007400Y008146D01*
X007454Y008195D01*
X007511Y008241D01*
X007570Y008283D01*
X007632Y008323D01*
X007696Y008359D01*
X007761Y008391D01*
X007828Y008420D01*
X007897Y008445D01*
X007967Y008467D01*
X008038Y008484D01*
X008110Y008498D01*
X008182Y008508D01*
X008255Y008514D01*
X008328Y008516D01*
X008401Y008514D01*
X008474Y008508D01*
X008546Y008498D01*
X008618Y008484D01*
X008689Y008467D01*
X008759Y008445D01*
X008828Y008420D01*
X008895Y008391D01*
X008960Y008359D01*
X009024Y008323D01*
X009086Y008283D01*
X009145Y008241D01*
X009202Y008195D01*
X009256Y008146D01*
X009308Y008094D01*
X009357Y008040D01*
X009403Y007983D01*
X009445Y007924D01*
X009485Y007862D01*
X009521Y007798D01*
X009553Y007733D01*
X009582Y007666D01*
X009607Y007597D01*
X009629Y007527D01*
X009646Y007456D01*
X009660Y007384D01*
X009670Y007312D01*
X009676Y007239D01*
X009678Y007166D01*
X009676Y007093D01*
X009670Y007020D01*
X009660Y006948D01*
X009646Y006876D01*
X009629Y006805D01*
X009607Y006735D01*
X009582Y006666D01*
X009553Y006599D01*
X009521Y006534D01*
X009485Y006470D01*
X009445Y006408D01*
X009403Y006349D01*
X009357Y006292D01*
X009308Y006238D01*
X009256Y006186D01*
X009202Y006137D01*
X009145Y006091D01*
X009086Y006049D01*
X009024Y006009D01*
X008960Y005973D01*
X008895Y005941D01*
X008828Y005912D01*
X008759Y005887D01*
X008689Y005865D01*
X008618Y005848D01*
X008546Y005834D01*
X008474Y005824D01*
X008401Y005818D01*
X008328Y005816D01*
X008255Y005818D01*
X008182Y005824D01*
X008110Y005834D01*
X008038Y005848D01*
X007967Y005865D01*
X007897Y005887D01*
X007828Y005912D01*
X007761Y005941D01*
X007696Y005973D01*
X007632Y006009D01*
X007570Y006049D01*
X007511Y006091D01*
X007454Y006137D01*
X007400Y006186D01*
X007348Y006238D01*
X007299Y006292D01*
X007253Y006349D01*
X007211Y006408D01*
X007171Y006470D01*
X007135Y006534D01*
X007103Y006599D01*
X007074Y006666D01*
X007049Y006735D01*
X007027Y006805D01*
X007010Y006876D01*
X006996Y006948D01*
X006986Y007020D01*
X006980Y007093D01*
X006978Y007166D01*
X009667Y004056D02*
X009669Y004116D01*
X009675Y004177D01*
X009685Y004236D01*
X009699Y004295D01*
X009716Y004353D01*
X009737Y004410D01*
X009762Y004465D01*
X009791Y004518D01*
X009823Y004570D01*
X009858Y004619D01*
X009897Y004666D01*
X009938Y004710D01*
X009982Y004751D01*
X010029Y004790D01*
X010078Y004825D01*
X010129Y004857D01*
X010183Y004886D01*
X010238Y004911D01*
X010295Y004932D01*
X010353Y004949D01*
X010412Y004963D01*
X010471Y004973D01*
X010532Y004979D01*
X010592Y004981D01*
X010652Y004979D01*
X010713Y004973D01*
X010772Y004963D01*
X010831Y004949D01*
X010889Y004932D01*
X010946Y004911D01*
X011001Y004886D01*
X011054Y004857D01*
X011106Y004825D01*
X011155Y004790D01*
X011202Y004751D01*
X011246Y004710D01*
X011287Y004666D01*
X011326Y004619D01*
X011361Y004570D01*
X011393Y004519D01*
X011422Y004465D01*
X011447Y004410D01*
X011468Y004353D01*
X011485Y004295D01*
X011499Y004236D01*
X011509Y004177D01*
X011515Y004116D01*
X011517Y004056D01*
X011515Y003996D01*
X011509Y003935D01*
X011499Y003876D01*
X011485Y003817D01*
X011468Y003759D01*
X011447Y003702D01*
X011422Y003647D01*
X011393Y003594D01*
X011361Y003542D01*
X011326Y003493D01*
X011287Y003446D01*
X011246Y003402D01*
X011202Y003361D01*
X011155Y003322D01*
X011106Y003287D01*
X011055Y003255D01*
X011001Y003226D01*
X010946Y003201D01*
X010889Y003180D01*
X010831Y003163D01*
X010772Y003149D01*
X010713Y003139D01*
X010652Y003133D01*
X010592Y003131D01*
X010532Y003133D01*
X010471Y003139D01*
X010412Y003149D01*
X010353Y003163D01*
X010295Y003180D01*
X010238Y003201D01*
X010183Y003226D01*
X010130Y003255D01*
X010078Y003287D01*
X010029Y003322D01*
X009982Y003361D01*
X009938Y003402D01*
X009897Y003446D01*
X009858Y003493D01*
X009823Y003542D01*
X009791Y003593D01*
X009762Y003647D01*
X009737Y003702D01*
X009716Y003759D01*
X009699Y003817D01*
X009685Y003876D01*
X009675Y003935D01*
X009669Y003996D01*
X009667Y004056D01*
X017147Y004056D02*
X017149Y004116D01*
X017155Y004177D01*
X017165Y004236D01*
X017179Y004295D01*
X017196Y004353D01*
X017217Y004410D01*
X017242Y004465D01*
X017271Y004518D01*
X017303Y004570D01*
X017338Y004619D01*
X017377Y004666D01*
X017418Y004710D01*
X017462Y004751D01*
X017509Y004790D01*
X017558Y004825D01*
X017609Y004857D01*
X017663Y004886D01*
X017718Y004911D01*
X017775Y004932D01*
X017833Y004949D01*
X017892Y004963D01*
X017951Y004973D01*
X018012Y004979D01*
X018072Y004981D01*
X018132Y004979D01*
X018193Y004973D01*
X018252Y004963D01*
X018311Y004949D01*
X018369Y004932D01*
X018426Y004911D01*
X018481Y004886D01*
X018534Y004857D01*
X018586Y004825D01*
X018635Y004790D01*
X018682Y004751D01*
X018726Y004710D01*
X018767Y004666D01*
X018806Y004619D01*
X018841Y004570D01*
X018873Y004519D01*
X018902Y004465D01*
X018927Y004410D01*
X018948Y004353D01*
X018965Y004295D01*
X018979Y004236D01*
X018989Y004177D01*
X018995Y004116D01*
X018997Y004056D01*
X018995Y003996D01*
X018989Y003935D01*
X018979Y003876D01*
X018965Y003817D01*
X018948Y003759D01*
X018927Y003702D01*
X018902Y003647D01*
X018873Y003594D01*
X018841Y003542D01*
X018806Y003493D01*
X018767Y003446D01*
X018726Y003402D01*
X018682Y003361D01*
X018635Y003322D01*
X018586Y003287D01*
X018535Y003255D01*
X018481Y003226D01*
X018426Y003201D01*
X018369Y003180D01*
X018311Y003163D01*
X018252Y003149D01*
X018193Y003139D01*
X018132Y003133D01*
X018072Y003131D01*
X018012Y003133D01*
X017951Y003139D01*
X017892Y003149D01*
X017833Y003163D01*
X017775Y003180D01*
X017718Y003201D01*
X017663Y003226D01*
X017610Y003255D01*
X017558Y003287D01*
X017509Y003322D01*
X017462Y003361D01*
X017418Y003402D01*
X017377Y003446D01*
X017338Y003493D01*
X017303Y003542D01*
X017271Y003593D01*
X017242Y003647D01*
X017217Y003702D01*
X017196Y003759D01*
X017179Y003817D01*
X017165Y003876D01*
X017155Y003935D01*
X017149Y003996D01*
X017147Y004056D01*
X018986Y007166D02*
X018988Y007239D01*
X018994Y007312D01*
X019004Y007384D01*
X019018Y007456D01*
X019035Y007527D01*
X019057Y007597D01*
X019082Y007666D01*
X019111Y007733D01*
X019143Y007798D01*
X019179Y007862D01*
X019219Y007924D01*
X019261Y007983D01*
X019307Y008040D01*
X019356Y008094D01*
X019408Y008146D01*
X019462Y008195D01*
X019519Y008241D01*
X019578Y008283D01*
X019640Y008323D01*
X019704Y008359D01*
X019769Y008391D01*
X019836Y008420D01*
X019905Y008445D01*
X019975Y008467D01*
X020046Y008484D01*
X020118Y008498D01*
X020190Y008508D01*
X020263Y008514D01*
X020336Y008516D01*
X020409Y008514D01*
X020482Y008508D01*
X020554Y008498D01*
X020626Y008484D01*
X020697Y008467D01*
X020767Y008445D01*
X020836Y008420D01*
X020903Y008391D01*
X020968Y008359D01*
X021032Y008323D01*
X021094Y008283D01*
X021153Y008241D01*
X021210Y008195D01*
X021264Y008146D01*
X021316Y008094D01*
X021365Y008040D01*
X021411Y007983D01*
X021453Y007924D01*
X021493Y007862D01*
X021529Y007798D01*
X021561Y007733D01*
X021590Y007666D01*
X021615Y007597D01*
X021637Y007527D01*
X021654Y007456D01*
X021668Y007384D01*
X021678Y007312D01*
X021684Y007239D01*
X021686Y007166D01*
X021684Y007093D01*
X021678Y007020D01*
X021668Y006948D01*
X021654Y006876D01*
X021637Y006805D01*
X021615Y006735D01*
X021590Y006666D01*
X021561Y006599D01*
X021529Y006534D01*
X021493Y006470D01*
X021453Y006408D01*
X021411Y006349D01*
X021365Y006292D01*
X021316Y006238D01*
X021264Y006186D01*
X021210Y006137D01*
X021153Y006091D01*
X021094Y006049D01*
X021032Y006009D01*
X020968Y005973D01*
X020903Y005941D01*
X020836Y005912D01*
X020767Y005887D01*
X020697Y005865D01*
X020626Y005848D01*
X020554Y005834D01*
X020482Y005824D01*
X020409Y005818D01*
X020336Y005816D01*
X020263Y005818D01*
X020190Y005824D01*
X020118Y005834D01*
X020046Y005848D01*
X019975Y005865D01*
X019905Y005887D01*
X019836Y005912D01*
X019769Y005941D01*
X019704Y005973D01*
X019640Y006009D01*
X019578Y006049D01*
X019519Y006091D01*
X019462Y006137D01*
X019408Y006186D01*
X019356Y006238D01*
X019307Y006292D01*
X019261Y006349D01*
X019219Y006408D01*
X019179Y006470D01*
X019143Y006534D01*
X019111Y006599D01*
X019082Y006666D01*
X019057Y006735D01*
X019035Y006805D01*
X019018Y006876D01*
X019004Y006948D01*
X018994Y007020D01*
X018988Y007093D01*
X018986Y007166D01*
X021857Y010385D02*
X021744Y010499D01*
X021744Y010725D01*
X021971Y010725D02*
X021971Y010499D01*
X021857Y010385D01*
X022112Y010555D02*
X022339Y010555D01*
X022226Y011426D02*
X022226Y011653D01*
X022339Y011540D02*
X022112Y011540D01*
X021971Y011483D02*
X021971Y011710D01*
X021744Y011710D02*
X021744Y011483D01*
X021857Y011369D01*
X021971Y011483D01*
X018986Y026930D02*
X018988Y027003D01*
X018994Y027076D01*
X019004Y027148D01*
X019018Y027220D01*
X019035Y027291D01*
X019057Y027361D01*
X019082Y027430D01*
X019111Y027497D01*
X019143Y027562D01*
X019179Y027626D01*
X019219Y027688D01*
X019261Y027747D01*
X019307Y027804D01*
X019356Y027858D01*
X019408Y027910D01*
X019462Y027959D01*
X019519Y028005D01*
X019578Y028047D01*
X019640Y028087D01*
X019704Y028123D01*
X019769Y028155D01*
X019836Y028184D01*
X019905Y028209D01*
X019975Y028231D01*
X020046Y028248D01*
X020118Y028262D01*
X020190Y028272D01*
X020263Y028278D01*
X020336Y028280D01*
X020409Y028278D01*
X020482Y028272D01*
X020554Y028262D01*
X020626Y028248D01*
X020697Y028231D01*
X020767Y028209D01*
X020836Y028184D01*
X020903Y028155D01*
X020968Y028123D01*
X021032Y028087D01*
X021094Y028047D01*
X021153Y028005D01*
X021210Y027959D01*
X021264Y027910D01*
X021316Y027858D01*
X021365Y027804D01*
X021411Y027747D01*
X021453Y027688D01*
X021493Y027626D01*
X021529Y027562D01*
X021561Y027497D01*
X021590Y027430D01*
X021615Y027361D01*
X021637Y027291D01*
X021654Y027220D01*
X021668Y027148D01*
X021678Y027076D01*
X021684Y027003D01*
X021686Y026930D01*
X021684Y026857D01*
X021678Y026784D01*
X021668Y026712D01*
X021654Y026640D01*
X021637Y026569D01*
X021615Y026499D01*
X021590Y026430D01*
X021561Y026363D01*
X021529Y026298D01*
X021493Y026234D01*
X021453Y026172D01*
X021411Y026113D01*
X021365Y026056D01*
X021316Y026002D01*
X021264Y025950D01*
X021210Y025901D01*
X021153Y025855D01*
X021094Y025813D01*
X021032Y025773D01*
X020968Y025737D01*
X020903Y025705D01*
X020836Y025676D01*
X020767Y025651D01*
X020697Y025629D01*
X020626Y025612D01*
X020554Y025598D01*
X020482Y025588D01*
X020409Y025582D01*
X020336Y025580D01*
X020263Y025582D01*
X020190Y025588D01*
X020118Y025598D01*
X020046Y025612D01*
X019975Y025629D01*
X019905Y025651D01*
X019836Y025676D01*
X019769Y025705D01*
X019704Y025737D01*
X019640Y025773D01*
X019578Y025813D01*
X019519Y025855D01*
X019462Y025901D01*
X019408Y025950D01*
X019356Y026002D01*
X019307Y026056D01*
X019261Y026113D01*
X019219Y026172D01*
X019179Y026234D01*
X019143Y026298D01*
X019111Y026363D01*
X019082Y026430D01*
X019057Y026499D01*
X019035Y026569D01*
X019018Y026640D01*
X019004Y026712D01*
X018994Y026784D01*
X018988Y026857D01*
X018986Y026930D01*
D13*
X018171Y023347D02*
X017580Y023347D01*
X016596Y021379D02*
X016005Y021379D01*
X015808Y021379D02*
X015218Y021379D01*
X016793Y019804D02*
X017383Y019804D01*
X017580Y020985D02*
X018171Y020985D01*
X018367Y020985D02*
X018958Y020985D01*
X021025Y017737D02*
X021025Y017146D01*
X020238Y011831D02*
X020238Y011241D01*
X020238Y010847D02*
X020238Y010257D01*
X014332Y015572D02*
X014332Y016162D01*
X014037Y014686D02*
X013446Y014686D01*
X012068Y015178D02*
X012068Y015769D01*
X012068Y015965D02*
X012068Y016556D01*
X011182Y017540D02*
X010592Y017540D01*
X010395Y017540D02*
X009804Y017540D01*
X009608Y018623D02*
X009017Y018623D01*
X008722Y017540D02*
X008131Y017540D01*
X007934Y017540D02*
X007344Y017540D01*
X006360Y017540D02*
X006360Y018131D01*
X006360Y018328D02*
X006360Y018918D01*
X006360Y019115D02*
X006360Y019706D01*
X006360Y019902D02*
X006360Y020493D01*
X006360Y021379D02*
X006950Y021379D01*
X007147Y021379D02*
X007738Y021379D01*
X007442Y022265D02*
X007442Y022855D01*
X007442Y023446D02*
X007442Y024036D01*
X008328Y024135D02*
X008919Y024135D01*
X009115Y024135D02*
X009706Y024135D01*
X010100Y024135D02*
X010690Y024135D01*
X010887Y024135D02*
X011478Y024135D01*
X012068Y021280D02*
X012068Y020690D01*
X012068Y020493D02*
X012068Y019902D01*
X012068Y019706D02*
X012068Y019115D01*
X012068Y018918D02*
X012068Y018328D01*
X010513Y018643D02*
X010513Y019233D01*
X009765Y019824D02*
X009765Y020414D01*
X006458Y015769D02*
X006458Y015178D01*
X006458Y014981D02*
X006458Y014391D01*
X006163Y021379D02*
X005572Y021379D01*
X013446Y012914D02*
X014037Y012914D01*
D14*
X013126Y012973D02*
X013082Y012929D01*
X012905Y013105D01*
X013082Y013105D01*
X013126Y013061D01*
X013126Y012973D01*
X013082Y012929D02*
X012905Y012929D01*
X012861Y012973D01*
X012861Y013061D01*
X012905Y013105D01*
X012653Y013160D02*
X012476Y012983D01*
X012476Y012939D01*
X012363Y012939D02*
X012186Y012939D01*
X012363Y013116D01*
X012363Y013160D01*
X012319Y013204D01*
X012231Y013204D01*
X012186Y013160D01*
X012073Y013160D02*
X012029Y013204D01*
X011941Y013204D01*
X011896Y013160D01*
X011896Y012983D01*
X011941Y012939D01*
X012029Y012939D01*
X012073Y012983D01*
X012029Y012811D02*
X011941Y012811D01*
X011896Y012766D01*
X011896Y012590D01*
X011941Y012545D01*
X012029Y012545D01*
X012073Y012590D01*
X012186Y012545D02*
X012363Y012722D01*
X012363Y012766D01*
X012319Y012811D01*
X012231Y012811D01*
X012186Y012766D01*
X012073Y012766D02*
X012029Y012811D01*
X012186Y012545D02*
X012363Y012545D01*
X012476Y012590D02*
X012476Y012634D01*
X012521Y012678D01*
X012609Y012678D01*
X012653Y012634D01*
X012653Y012590D01*
X012609Y012545D01*
X012521Y012545D01*
X012476Y012590D01*
X012521Y012678D02*
X012476Y012722D01*
X012476Y012766D01*
X012521Y012811D01*
X012609Y012811D01*
X012653Y012766D01*
X012653Y012722D01*
X012609Y012678D01*
X012861Y012683D02*
X012905Y012639D01*
X012861Y012683D02*
X012861Y012771D01*
X012905Y012815D01*
X012949Y012815D01*
X013126Y012639D01*
X013126Y012815D01*
X013082Y012525D02*
X013126Y012481D01*
X013126Y012393D01*
X013082Y012349D01*
X012905Y012349D01*
X012861Y012393D01*
X012861Y012481D01*
X012905Y012525D01*
X012609Y012023D02*
X012521Y012023D01*
X012476Y011979D01*
X012476Y011935D01*
X012521Y011891D01*
X012653Y011891D01*
X012653Y011979D02*
X012653Y011802D01*
X012609Y011758D01*
X012521Y011758D01*
X012476Y011802D01*
X012363Y011758D02*
X012186Y011758D01*
X012275Y011758D02*
X012275Y012023D01*
X012186Y011935D01*
X012073Y011979D02*
X012073Y011891D01*
X012029Y011846D01*
X011896Y011846D01*
X011896Y011758D02*
X011896Y012023D01*
X012029Y012023D01*
X012073Y011979D01*
X011985Y011846D02*
X012073Y011758D01*
X012073Y012152D02*
X011896Y012152D01*
X011896Y012417D01*
X012186Y012373D02*
X012231Y012417D01*
X012319Y012417D01*
X012363Y012373D01*
X012363Y012329D01*
X012319Y012284D01*
X012363Y012240D01*
X012363Y012196D01*
X012319Y012152D01*
X012231Y012152D01*
X012186Y012196D01*
X012275Y012284D02*
X012319Y012284D01*
X012609Y012023D02*
X012653Y011979D01*
X012653Y013160D02*
X012653Y013204D01*
X012476Y013204D01*
X012476Y013333D02*
X012476Y013377D01*
X012653Y013554D01*
X012653Y013598D01*
X012476Y013598D01*
X012521Y013727D02*
X012609Y013727D01*
X012653Y013771D01*
X012653Y013815D01*
X012609Y013859D01*
X012476Y013859D01*
X012476Y013771D01*
X012521Y013727D01*
X012476Y013859D02*
X012565Y013948D01*
X012653Y013992D01*
X012861Y013968D02*
X012905Y013923D01*
X013082Y013923D01*
X013126Y013968D01*
X013126Y014056D01*
X013082Y014100D01*
X013126Y014213D02*
X013126Y014390D01*
X013126Y014302D02*
X012861Y014302D01*
X012949Y014213D01*
X012905Y014100D02*
X012861Y014056D01*
X012861Y013968D01*
X012905Y014503D02*
X012949Y014503D01*
X012993Y014548D01*
X012993Y014680D01*
X012905Y014680D02*
X012861Y014636D01*
X012861Y014548D01*
X012905Y014503D01*
X013082Y014503D02*
X013126Y014548D01*
X013126Y014636D01*
X013082Y014680D01*
X012905Y014680D01*
X012363Y014341D02*
X012363Y014164D01*
X012319Y014120D01*
X012231Y014120D01*
X012186Y014164D01*
X012231Y014253D02*
X012363Y014253D01*
X012363Y014341D02*
X012319Y014385D01*
X012231Y014385D01*
X012186Y014341D01*
X012186Y014297D01*
X012231Y014253D01*
X012073Y014341D02*
X012029Y014385D01*
X011941Y014385D01*
X011896Y014341D01*
X011896Y014164D01*
X011941Y014120D01*
X012029Y014120D01*
X012073Y014164D01*
X012029Y013992D02*
X011941Y013992D01*
X011896Y013948D01*
X011896Y013771D01*
X011941Y013727D01*
X012029Y013727D01*
X012073Y013771D01*
X012186Y013727D02*
X012363Y013727D01*
X012275Y013727D02*
X012275Y013992D01*
X012186Y013903D01*
X012073Y013948D02*
X012029Y013992D01*
X012029Y013598D02*
X011941Y013598D01*
X011896Y013554D01*
X011896Y013377D01*
X011941Y013333D01*
X012029Y013333D01*
X012073Y013377D01*
X012186Y013333D02*
X012363Y013333D01*
X012275Y013333D02*
X012275Y013598D01*
X012186Y013510D01*
X012073Y013554D02*
X012029Y013598D01*
X010887Y014164D02*
X010843Y014120D01*
X010754Y014120D01*
X010710Y014164D01*
X010710Y014253D02*
X010798Y014297D01*
X010843Y014297D01*
X010887Y014253D01*
X010887Y014164D01*
X010710Y014253D02*
X010710Y014385D01*
X010887Y014385D01*
X010597Y014341D02*
X010597Y014164D01*
X010553Y014120D01*
X010420Y014120D01*
X010420Y014385D01*
X010553Y014385D01*
X010597Y014341D01*
X010099Y014317D02*
X009923Y014317D01*
X010099Y014494D01*
X010099Y014538D01*
X010055Y014582D01*
X009967Y014582D01*
X009923Y014538D01*
X009809Y014538D02*
X009765Y014582D01*
X009633Y014582D01*
X009633Y014317D01*
X009765Y014317D01*
X009809Y014361D01*
X009809Y014538D01*
X009809Y014189D02*
X009633Y014189D01*
X009633Y013923D01*
X009633Y014056D02*
X009721Y014056D01*
X009923Y014100D02*
X010011Y014189D01*
X010011Y013923D01*
X009923Y013923D02*
X010099Y013923D01*
X008604Y011930D02*
X008606Y011979D01*
X008612Y012028D01*
X008622Y012076D01*
X008635Y012123D01*
X008653Y012169D01*
X008674Y012213D01*
X008698Y012256D01*
X008726Y012296D01*
X008757Y012335D01*
X008791Y012370D01*
X008828Y012403D01*
X008867Y012432D01*
X008909Y012458D01*
X008952Y012481D01*
X008998Y012500D01*
X009044Y012516D01*
X009092Y012528D01*
X009140Y012536D01*
X009189Y012540D01*
X009239Y012540D01*
X009288Y012536D01*
X009336Y012528D01*
X009384Y012516D01*
X009430Y012500D01*
X009476Y012481D01*
X009519Y012458D01*
X009561Y012432D01*
X009600Y012403D01*
X009637Y012370D01*
X009671Y012335D01*
X009702Y012296D01*
X009730Y012256D01*
X009754Y012213D01*
X009775Y012169D01*
X009793Y012123D01*
X009806Y012076D01*
X009816Y012028D01*
X009822Y011979D01*
X009824Y011930D01*
X009822Y011881D01*
X009816Y011832D01*
X009806Y011784D01*
X009793Y011737D01*
X009775Y011691D01*
X009754Y011647D01*
X009730Y011604D01*
X009702Y011564D01*
X009671Y011525D01*
X009637Y011490D01*
X009600Y011457D01*
X009561Y011428D01*
X009519Y011402D01*
X009476Y011379D01*
X009430Y011360D01*
X009384Y011344D01*
X009336Y011332D01*
X009288Y011324D01*
X009239Y011320D01*
X009189Y011320D01*
X009140Y011324D01*
X009092Y011332D01*
X009044Y011344D01*
X008998Y011360D01*
X008952Y011379D01*
X008909Y011402D01*
X008867Y011428D01*
X008828Y011457D01*
X008791Y011490D01*
X008757Y011525D01*
X008726Y011564D01*
X008698Y011604D01*
X008674Y011647D01*
X008653Y011691D01*
X008635Y011737D01*
X008622Y011784D01*
X008612Y011832D01*
X008606Y011881D01*
X008604Y011930D01*
X007029Y011930D02*
X007031Y011979D01*
X007037Y012028D01*
X007047Y012076D01*
X007060Y012123D01*
X007078Y012169D01*
X007099Y012213D01*
X007123Y012256D01*
X007151Y012296D01*
X007182Y012335D01*
X007216Y012370D01*
X007253Y012403D01*
X007292Y012432D01*
X007334Y012458D01*
X007377Y012481D01*
X007423Y012500D01*
X007469Y012516D01*
X007517Y012528D01*
X007565Y012536D01*
X007614Y012540D01*
X007664Y012540D01*
X007713Y012536D01*
X007761Y012528D01*
X007809Y012516D01*
X007855Y012500D01*
X007901Y012481D01*
X007944Y012458D01*
X007986Y012432D01*
X008025Y012403D01*
X008062Y012370D01*
X008096Y012335D01*
X008127Y012296D01*
X008155Y012256D01*
X008179Y012213D01*
X008200Y012169D01*
X008218Y012123D01*
X008231Y012076D01*
X008241Y012028D01*
X008247Y011979D01*
X008249Y011930D01*
X008247Y011881D01*
X008241Y011832D01*
X008231Y011784D01*
X008218Y011737D01*
X008200Y011691D01*
X008179Y011647D01*
X008155Y011604D01*
X008127Y011564D01*
X008096Y011525D01*
X008062Y011490D01*
X008025Y011457D01*
X007986Y011428D01*
X007944Y011402D01*
X007901Y011379D01*
X007855Y011360D01*
X007809Y011344D01*
X007761Y011332D01*
X007713Y011324D01*
X007664Y011320D01*
X007614Y011320D01*
X007565Y011324D01*
X007517Y011332D01*
X007469Y011344D01*
X007423Y011360D01*
X007377Y011379D01*
X007334Y011402D01*
X007292Y011428D01*
X007253Y011457D01*
X007216Y011490D01*
X007182Y011525D01*
X007151Y011564D01*
X007123Y011604D01*
X007099Y011647D01*
X007078Y011691D01*
X007060Y011737D01*
X007047Y011784D01*
X007037Y011832D01*
X007031Y011881D01*
X007029Y011930D01*
X006763Y011861D02*
X006719Y011905D01*
X006631Y011905D01*
X006587Y011861D01*
X006763Y011861D02*
X006763Y011817D01*
X006587Y011640D01*
X006763Y011640D01*
X006719Y011511D02*
X006631Y011511D01*
X006587Y011467D01*
X006587Y011423D01*
X006631Y011379D01*
X006719Y011379D01*
X006763Y011335D01*
X006763Y011290D01*
X006719Y011246D01*
X006631Y011246D01*
X006587Y011290D01*
X006587Y011335D01*
X006631Y011379D01*
X006719Y011379D02*
X006763Y011423D01*
X006763Y011467D01*
X006719Y011511D01*
X006473Y011640D02*
X006297Y011640D01*
X006385Y011640D02*
X006385Y011905D01*
X006297Y011817D01*
X006183Y011861D02*
X006139Y011905D01*
X006051Y011905D01*
X006007Y011861D01*
X006007Y011684D01*
X006051Y011640D01*
X006139Y011640D01*
X006183Y011684D01*
X006139Y011511D02*
X006007Y011511D01*
X006007Y011246D01*
X006007Y011335D02*
X006139Y011335D01*
X006183Y011379D01*
X006183Y011467D01*
X006139Y011511D01*
X006297Y011423D02*
X006385Y011511D01*
X006385Y011246D01*
X006297Y011246D02*
X006473Y011246D01*
X006183Y011246D02*
X006095Y011335D01*
X006297Y012034D02*
X006473Y012034D01*
X006587Y012166D02*
X006763Y012166D01*
X006719Y012034D02*
X006719Y012299D01*
X006587Y012166D01*
X006631Y012427D02*
X006587Y012472D01*
X006631Y012427D02*
X006719Y012427D01*
X006763Y012472D01*
X006763Y012560D01*
X006719Y012604D01*
X006675Y012604D01*
X006587Y012560D01*
X006587Y012693D01*
X006763Y012693D01*
X006719Y012821D02*
X006631Y012821D01*
X006587Y012865D01*
X006473Y012821D02*
X006297Y012821D01*
X006385Y012821D02*
X006385Y013086D01*
X006297Y012998D01*
X006183Y013042D02*
X006139Y013086D01*
X006051Y013086D01*
X006007Y013042D01*
X006007Y012865D01*
X006051Y012821D01*
X006139Y012821D01*
X006183Y012865D01*
X006139Y012693D02*
X006051Y012693D01*
X006007Y012648D01*
X006007Y012472D01*
X006051Y012427D01*
X006139Y012427D01*
X006183Y012472D01*
X006297Y012427D02*
X006473Y012427D01*
X006385Y012427D02*
X006385Y012693D01*
X006297Y012604D01*
X006183Y012648D02*
X006139Y012693D01*
X006139Y013215D02*
X006051Y013215D01*
X006007Y013259D01*
X006007Y013436D01*
X006051Y013480D01*
X006139Y013480D01*
X006183Y013436D01*
X006297Y013392D02*
X006385Y013480D01*
X006385Y013215D01*
X006297Y013215D02*
X006473Y013215D01*
X006587Y013347D02*
X006763Y013347D01*
X006719Y013215D02*
X006719Y013480D01*
X006587Y013347D01*
X006587Y013608D02*
X006763Y013608D01*
X006675Y013608D02*
X006675Y013874D01*
X006587Y013785D01*
X006473Y013608D02*
X006297Y013608D01*
X006385Y013608D02*
X006385Y013874D01*
X006297Y013785D01*
X006183Y013829D02*
X006139Y013874D01*
X006051Y013874D01*
X006007Y013829D01*
X006007Y013653D01*
X006051Y013608D01*
X006139Y013608D01*
X006183Y013653D01*
X006183Y013259D02*
X006139Y013215D01*
X006587Y013042D02*
X006631Y013086D01*
X006719Y013086D01*
X006763Y013042D01*
X006763Y012998D01*
X006719Y012954D01*
X006763Y012909D01*
X006763Y012865D01*
X006719Y012821D01*
X006719Y012954D02*
X006675Y012954D01*
X006297Y012299D02*
X006297Y012034D01*
X005867Y016536D02*
X005867Y016772D01*
X007049Y016772D02*
X007049Y016536D01*
X008665Y018246D02*
X008842Y018246D01*
X008886Y018290D01*
X008886Y018379D01*
X008842Y018423D01*
X008886Y018536D02*
X008709Y018713D01*
X008665Y018713D01*
X008621Y018669D01*
X008621Y018580D01*
X008665Y018536D01*
X008665Y018423D02*
X008621Y018379D01*
X008621Y018290D01*
X008665Y018246D01*
X008886Y018536D02*
X008886Y018713D01*
X008426Y018997D02*
X008426Y019233D01*
X008451Y020321D02*
X008628Y020321D01*
X008742Y020321D02*
X008918Y020321D01*
X008830Y020321D02*
X008830Y020586D01*
X008742Y020498D01*
X008451Y020586D02*
X008451Y020321D01*
X008402Y020715D02*
X008402Y020980D01*
X008269Y020847D01*
X008446Y020847D01*
X008156Y020759D02*
X008156Y020936D01*
X008112Y020980D01*
X007979Y020980D01*
X007979Y020715D01*
X008112Y020715D01*
X008156Y020759D01*
X007245Y019233D02*
X007245Y018997D01*
X008924Y017255D02*
X009189Y017255D01*
X009189Y017343D02*
X009189Y017166D01*
X009145Y017053D02*
X009189Y017009D01*
X009189Y016920D01*
X009145Y016876D01*
X008968Y016876D01*
X008924Y016920D01*
X008924Y017009D01*
X008968Y017053D01*
X009012Y017166D02*
X008924Y017255D01*
X009310Y017291D02*
X009354Y017335D01*
X009398Y017335D01*
X009442Y017291D01*
X009486Y017335D01*
X009531Y017335D01*
X009575Y017291D01*
X009575Y017203D01*
X009531Y017158D01*
X009531Y017045D02*
X009575Y017001D01*
X009575Y016913D01*
X009531Y016868D01*
X009354Y016868D01*
X009310Y016913D01*
X009310Y017001D01*
X009354Y017045D01*
X009354Y017158D02*
X009310Y017203D01*
X009310Y017291D01*
X009442Y017291D02*
X009442Y017247D01*
X009354Y017448D02*
X009310Y017493D01*
X009310Y017581D01*
X009354Y017625D01*
X009531Y017448D01*
X009575Y017493D01*
X009575Y017581D01*
X009531Y017625D01*
X009354Y017625D01*
X009354Y017448D02*
X009531Y017448D01*
X009767Y018262D02*
X009856Y018262D01*
X009900Y018306D01*
X010013Y018262D02*
X010190Y018439D01*
X010190Y018483D01*
X010146Y018527D01*
X010057Y018527D01*
X010013Y018483D01*
X009900Y018483D02*
X009856Y018527D01*
X009767Y018527D01*
X009723Y018483D01*
X009723Y018306D01*
X009767Y018262D01*
X010013Y018262D02*
X010190Y018262D01*
X010303Y018306D02*
X010347Y018262D01*
X010436Y018262D01*
X010480Y018306D01*
X010480Y018483D01*
X010436Y018527D01*
X010347Y018527D01*
X010303Y018483D01*
X010303Y018439D01*
X010347Y018395D01*
X010480Y018395D01*
X010707Y018483D02*
X010707Y018306D01*
X010752Y018262D01*
X010840Y018262D01*
X010884Y018306D01*
X010997Y018306D02*
X011042Y018262D01*
X011130Y018262D01*
X011174Y018306D01*
X011174Y018350D01*
X011130Y018395D01*
X011086Y018395D01*
X011130Y018395D02*
X011174Y018439D01*
X011174Y018483D01*
X011130Y018527D01*
X011042Y018527D01*
X010997Y018483D01*
X010884Y018483D02*
X010840Y018527D01*
X010752Y018527D01*
X010707Y018483D01*
X010696Y019435D02*
X010696Y019700D01*
X010828Y019700D01*
X010872Y019656D01*
X010872Y019568D01*
X010828Y019524D01*
X010696Y019524D01*
X010784Y019524D02*
X010872Y019435D01*
X010986Y019435D02*
X011162Y019612D01*
X011162Y019656D01*
X011118Y019700D01*
X011030Y019700D01*
X010986Y019656D01*
X010986Y019435D02*
X011162Y019435D01*
X010818Y019927D02*
X010862Y019972D01*
X010862Y020060D01*
X010818Y020104D01*
X010730Y020217D02*
X010597Y020350D01*
X010862Y020350D01*
X010730Y020394D02*
X010730Y020217D01*
X010641Y020104D02*
X010597Y020060D01*
X010597Y019972D01*
X010641Y019927D01*
X010818Y019927D01*
X011478Y017560D02*
X011478Y017324D01*
X012659Y017324D02*
X012659Y017560D01*
X013943Y019435D02*
X013943Y019568D01*
X013988Y019612D01*
X014076Y019612D01*
X014120Y019568D01*
X014120Y019435D01*
X014209Y019435D02*
X013943Y019435D01*
X014120Y019524D02*
X014209Y019612D01*
X014209Y019725D02*
X014209Y019902D01*
X014209Y019814D02*
X013943Y019814D01*
X014032Y019725D01*
X013988Y020015D02*
X013943Y020059D01*
X013943Y020148D01*
X013988Y020192D01*
X014164Y020015D01*
X014209Y020059D01*
X014209Y020148D01*
X014164Y020192D01*
X013988Y020192D01*
X013988Y020015D02*
X014164Y020015D01*
X014337Y019858D02*
X014337Y019769D01*
X014381Y019725D01*
X014425Y019725D01*
X014470Y019769D01*
X014470Y019902D01*
X014558Y019902D02*
X014381Y019902D01*
X014337Y019858D01*
X014558Y019902D02*
X014602Y019858D01*
X014602Y019769D01*
X014558Y019725D01*
X014602Y019612D02*
X014514Y019524D01*
X014514Y019568D02*
X014514Y019435D01*
X014602Y019435D02*
X014337Y019435D01*
X014337Y019568D01*
X014381Y019612D01*
X014470Y019612D01*
X014514Y019568D01*
X014731Y019568D02*
X014731Y019479D01*
X014775Y019435D01*
X014952Y019435D01*
X014996Y019479D01*
X014996Y019568D01*
X014952Y019612D01*
X014996Y019725D02*
X014819Y019902D01*
X014775Y019902D01*
X014731Y019858D01*
X014731Y019769D01*
X014775Y019725D01*
X014775Y019612D02*
X014731Y019568D01*
X014996Y019725D02*
X014996Y019902D01*
X014863Y020015D02*
X014863Y020192D01*
X014731Y020148D02*
X014863Y020015D01*
X014731Y020148D02*
X014996Y020148D01*
X014971Y020534D02*
X014795Y020534D01*
X014750Y020578D01*
X014750Y020666D01*
X014795Y020710D01*
X014795Y020824D02*
X014750Y020868D01*
X014750Y020956D01*
X014795Y021001D01*
X014839Y021001D01*
X015016Y020824D01*
X015016Y021001D01*
X014971Y021114D02*
X015016Y021158D01*
X015016Y021246D01*
X014971Y021291D01*
X014927Y021291D01*
X014883Y021246D01*
X014883Y021202D01*
X014883Y021246D02*
X014839Y021291D01*
X014795Y021291D01*
X014750Y021246D01*
X014750Y021158D01*
X014795Y021114D01*
X014622Y021158D02*
X014578Y021114D01*
X014622Y021158D02*
X014622Y021246D01*
X014578Y021291D01*
X014489Y021291D01*
X014445Y021246D01*
X014445Y021202D01*
X014489Y021114D01*
X014357Y021114D01*
X014357Y021291D01*
X014401Y021001D02*
X014357Y020956D01*
X014357Y020868D01*
X014401Y020824D01*
X014401Y020710D02*
X014357Y020666D01*
X014357Y020578D01*
X014401Y020534D01*
X014578Y020534D01*
X014622Y020578D01*
X014622Y020666D01*
X014578Y020710D01*
X014622Y020824D02*
X014445Y021001D01*
X014401Y021001D01*
X014622Y021001D02*
X014622Y020824D01*
X014971Y020710D02*
X015016Y020666D01*
X015016Y020578D01*
X014971Y020534D01*
X013348Y022048D02*
X013348Y022284D01*
X012954Y023668D02*
X012777Y023668D01*
X012954Y023844D01*
X012954Y023889D01*
X012910Y023933D01*
X012821Y023933D01*
X012777Y023889D01*
X012664Y023668D02*
X012487Y023668D01*
X012487Y023933D01*
X011842Y023145D02*
X011842Y022880D01*
X011930Y022880D02*
X011753Y022880D01*
X011640Y022924D02*
X011640Y023101D01*
X011596Y023145D01*
X011463Y023145D01*
X011463Y022880D01*
X011596Y022880D01*
X011640Y022924D01*
X011753Y023057D02*
X011842Y023145D01*
X011172Y022872D02*
X010996Y022872D01*
X011084Y022872D02*
X011084Y023137D01*
X010996Y023049D01*
X010882Y023137D02*
X010882Y022916D01*
X010838Y022872D01*
X010750Y022872D01*
X010706Y022916D01*
X010706Y023137D01*
X012167Y022284D02*
X012167Y022048D01*
X014144Y023904D02*
X014321Y024169D01*
X014434Y024125D02*
X014479Y024169D01*
X014567Y024169D01*
X014611Y024125D01*
X014611Y024081D01*
X014567Y024036D01*
X014611Y023992D01*
X014611Y023948D01*
X014567Y023904D01*
X014479Y023904D01*
X014434Y023948D01*
X014321Y023904D02*
X014144Y024169D01*
X014523Y024036D02*
X014567Y024036D01*
X015510Y023540D02*
X015510Y023451D01*
X015555Y023407D01*
X015510Y023540D02*
X015555Y023584D01*
X015599Y023584D01*
X015776Y023407D01*
X015776Y023584D01*
X015776Y023294D02*
X015776Y023117D01*
X015776Y023205D02*
X015510Y023205D01*
X015599Y023117D01*
X015643Y023004D02*
X015687Y022960D01*
X015687Y022827D01*
X015687Y022915D02*
X015776Y023004D01*
X015643Y023004D02*
X015555Y023004D01*
X015510Y022960D01*
X015510Y022827D01*
X015776Y022827D01*
X016995Y023471D02*
X016995Y023603D01*
X017039Y023647D01*
X017127Y023647D01*
X017171Y023603D01*
X017171Y023471D01*
X017171Y023559D02*
X017260Y023647D01*
X017260Y023761D02*
X017260Y023937D01*
X017260Y023849D02*
X016995Y023849D01*
X017083Y023761D01*
X017083Y024051D02*
X016995Y024139D01*
X017260Y024139D01*
X017260Y024051D02*
X017260Y024227D01*
X017676Y024294D02*
X017720Y024250D01*
X017897Y024250D01*
X017941Y024294D01*
X017941Y024383D01*
X017897Y024427D01*
X017941Y024540D02*
X017764Y024717D01*
X017720Y024717D01*
X017676Y024673D01*
X017676Y024584D01*
X017720Y024540D01*
X017720Y024427D02*
X017676Y024383D01*
X017676Y024294D01*
X017941Y024540D02*
X017941Y024717D01*
X017897Y024830D02*
X017941Y024874D01*
X017941Y024963D01*
X017897Y025007D01*
X017852Y025007D01*
X017808Y024963D01*
X017808Y024830D01*
X017897Y024830D01*
X017808Y024830D02*
X017720Y024919D01*
X017676Y025007D01*
X017260Y023471D02*
X016995Y023471D01*
X017907Y020139D02*
X017907Y019962D01*
X017774Y020095D01*
X018039Y020095D01*
X018039Y019849D02*
X018039Y019672D01*
X018039Y019760D02*
X017774Y019760D01*
X017863Y019672D01*
X017907Y019559D02*
X017951Y019515D01*
X017951Y019382D01*
X018039Y019382D02*
X017774Y019382D01*
X017774Y019515D01*
X017818Y019559D01*
X017907Y019559D01*
X017951Y019470D02*
X018039Y019559D01*
X018463Y019515D02*
X018463Y019382D01*
X018728Y019382D01*
X018640Y019382D02*
X018640Y019515D01*
X018596Y019559D01*
X018507Y019559D01*
X018463Y019515D01*
X018551Y019672D02*
X018463Y019760D01*
X018728Y019760D01*
X018728Y019672D02*
X018728Y019849D01*
X018684Y019962D02*
X018728Y020006D01*
X018728Y020095D01*
X018684Y020139D01*
X018640Y020139D01*
X018596Y020095D01*
X018596Y020051D01*
X018596Y020095D02*
X018551Y020139D01*
X018507Y020139D01*
X018463Y020095D01*
X018463Y020006D01*
X018507Y019962D01*
X018728Y019559D02*
X018640Y019470D01*
X019453Y017604D02*
X019453Y017427D01*
X019453Y017515D02*
X019187Y017515D01*
X019276Y017427D01*
X019320Y017314D02*
X019364Y017269D01*
X019364Y017137D01*
X019364Y017225D02*
X019453Y017314D01*
X019320Y017314D02*
X019232Y017314D01*
X019187Y017269D01*
X019187Y017137D01*
X019453Y017137D01*
X020680Y016873D02*
X020680Y016696D01*
X020724Y016652D01*
X020812Y016652D01*
X020857Y016696D01*
X020970Y016652D02*
X021147Y016652D01*
X021058Y016652D02*
X021058Y016917D01*
X020970Y016829D01*
X020857Y016873D02*
X020812Y016917D01*
X020724Y016917D01*
X020680Y016873D01*
X021260Y016873D02*
X021260Y016829D01*
X021304Y016784D01*
X021393Y016784D01*
X021437Y016740D01*
X021437Y016696D01*
X021393Y016652D01*
X021304Y016652D01*
X021260Y016696D01*
X021260Y016740D01*
X021304Y016784D01*
X021393Y016784D02*
X021437Y016829D01*
X021437Y016873D01*
X021393Y016917D01*
X021304Y016917D01*
X021260Y016873D01*
X020960Y021629D02*
X020783Y021629D01*
X020872Y021629D02*
X020872Y021894D01*
X020783Y021806D01*
X020670Y021850D02*
X020626Y021894D01*
X020537Y021894D01*
X020493Y021850D01*
X020493Y021673D01*
X020537Y021629D01*
X020626Y021629D01*
X020670Y021673D01*
X020388Y021629D02*
X020300Y021629D01*
X020344Y021629D02*
X020344Y021894D01*
X020300Y021894D02*
X020388Y021894D01*
X020356Y023668D02*
X020356Y023933D01*
X020488Y023933D01*
X020532Y023889D01*
X020532Y023800D01*
X020488Y023756D01*
X020356Y023756D01*
X020242Y023933D02*
X020066Y023933D01*
X020154Y023933D02*
X020154Y023668D01*
X020646Y023712D02*
X020690Y023668D01*
X020778Y023668D01*
X020822Y023712D01*
X020822Y023889D01*
X020778Y023933D01*
X020690Y023933D01*
X020646Y023889D01*
X020646Y023844D01*
X020690Y023800D01*
X020822Y023800D01*
X021990Y022560D02*
X021992Y022609D01*
X021998Y022658D01*
X022008Y022706D01*
X022021Y022753D01*
X022039Y022799D01*
X022060Y022843D01*
X022084Y022886D01*
X022112Y022926D01*
X022143Y022965D01*
X022177Y023000D01*
X022214Y023033D01*
X022253Y023062D01*
X022295Y023088D01*
X022338Y023111D01*
X022384Y023130D01*
X022430Y023146D01*
X022478Y023158D01*
X022526Y023166D01*
X022575Y023170D01*
X022625Y023170D01*
X022674Y023166D01*
X022722Y023158D01*
X022770Y023146D01*
X022816Y023130D01*
X022862Y023111D01*
X022905Y023088D01*
X022947Y023062D01*
X022986Y023033D01*
X023023Y023000D01*
X023057Y022965D01*
X023088Y022926D01*
X023116Y022886D01*
X023140Y022843D01*
X023161Y022799D01*
X023179Y022753D01*
X023192Y022706D01*
X023202Y022658D01*
X023208Y022609D01*
X023210Y022560D01*
X023208Y022511D01*
X023202Y022462D01*
X023192Y022414D01*
X023179Y022367D01*
X023161Y022321D01*
X023140Y022277D01*
X023116Y022234D01*
X023088Y022194D01*
X023057Y022155D01*
X023023Y022120D01*
X022986Y022087D01*
X022947Y022058D01*
X022905Y022032D01*
X022862Y022009D01*
X022816Y021990D01*
X022770Y021974D01*
X022722Y021962D01*
X022674Y021954D01*
X022625Y021950D01*
X022575Y021950D01*
X022526Y021954D01*
X022478Y021962D01*
X022430Y021974D01*
X022384Y021990D01*
X022338Y022009D01*
X022295Y022032D01*
X022253Y022058D01*
X022214Y022087D01*
X022177Y022120D01*
X022143Y022155D01*
X022112Y022194D01*
X022084Y022234D01*
X022060Y022277D01*
X022039Y022321D01*
X022021Y022367D01*
X022008Y022414D01*
X021998Y022462D01*
X021992Y022511D01*
X021990Y022560D01*
X017250Y017704D02*
X017073Y017704D01*
X017073Y017572D01*
X017161Y017616D01*
X017205Y017616D01*
X017250Y017572D01*
X017250Y017483D01*
X017205Y017439D01*
X017117Y017439D01*
X017073Y017483D01*
X016960Y017439D02*
X016783Y017439D01*
X016871Y017439D02*
X016871Y017704D01*
X016783Y017616D01*
X016670Y017660D02*
X016670Y017572D01*
X016625Y017528D01*
X016493Y017528D01*
X016581Y017528D02*
X016670Y017439D01*
X016493Y017439D02*
X016493Y017704D01*
X016625Y017704D01*
X016670Y017660D01*
X016098Y017885D02*
X015921Y017708D01*
X015921Y017664D01*
X015808Y017796D02*
X015764Y017752D01*
X015631Y017752D01*
X015631Y017664D02*
X015631Y017929D01*
X015764Y017929D01*
X015808Y017885D01*
X015808Y017796D01*
X015921Y017929D02*
X016098Y017929D01*
X016098Y017885D01*
X015518Y017929D02*
X015341Y017929D01*
X015430Y017929D02*
X015430Y017664D01*
X015341Y016748D02*
X015341Y016482D01*
X015518Y016482D01*
X015631Y016482D02*
X015808Y016482D01*
X015921Y016482D02*
X016054Y016482D01*
X016098Y016527D01*
X016098Y016703D01*
X016054Y016748D01*
X015921Y016748D01*
X015921Y016482D01*
X015720Y016615D02*
X015631Y016615D01*
X015631Y016748D02*
X015631Y016482D01*
X015631Y016748D02*
X015808Y016748D01*
X016211Y016659D02*
X016300Y016748D01*
X016300Y016482D01*
X016388Y016482D02*
X016211Y016482D01*
X016045Y015870D02*
X015868Y015870D01*
X016045Y015870D02*
X016045Y015826D01*
X015868Y015649D01*
X015868Y015605D01*
X015755Y015605D02*
X015578Y015605D01*
X015667Y015605D02*
X015667Y015870D01*
X015578Y015781D01*
X015465Y015737D02*
X015421Y015693D01*
X015288Y015693D01*
X015288Y015605D02*
X015288Y015870D01*
X015421Y015870D01*
X015465Y015826D01*
X015465Y015737D01*
X015377Y015693D02*
X015465Y015605D01*
X018698Y011708D02*
X018698Y011443D01*
X018698Y011532D02*
X018831Y011532D01*
X018875Y011576D01*
X018875Y011664D01*
X018831Y011708D01*
X018698Y011708D01*
X018787Y011532D02*
X018875Y011443D01*
X018988Y011443D02*
X018988Y011487D01*
X019165Y011664D01*
X019165Y011708D01*
X018988Y011708D01*
X019032Y010527D02*
X019121Y010527D01*
X019165Y010483D01*
X019165Y010439D01*
X019121Y010395D01*
X019032Y010395D01*
X018988Y010439D01*
X018988Y010483D01*
X019032Y010527D01*
X019032Y010395D02*
X018988Y010350D01*
X018988Y010306D01*
X019032Y010262D01*
X019121Y010262D01*
X019165Y010306D01*
X019165Y010350D01*
X019121Y010395D01*
X018875Y010395D02*
X018875Y010483D01*
X018831Y010527D01*
X018698Y010527D01*
X018698Y010262D01*
X018698Y010350D02*
X018831Y010350D01*
X018875Y010395D01*
X018787Y010350D02*
X018875Y010262D01*
X011310Y025045D02*
X011133Y025045D01*
X011089Y025090D01*
X011089Y025178D01*
X011133Y025222D01*
X011133Y025335D02*
X011177Y025335D01*
X011222Y025380D01*
X011222Y025468D01*
X011266Y025512D01*
X011310Y025512D01*
X011354Y025468D01*
X011354Y025380D01*
X011310Y025335D01*
X011266Y025335D01*
X011222Y025380D01*
X011222Y025468D02*
X011177Y025512D01*
X011133Y025512D01*
X011089Y025468D01*
X011089Y025380D01*
X011133Y025335D01*
X011310Y025222D02*
X011354Y025178D01*
X011354Y025090D01*
X011310Y025045D01*
X010567Y025045D02*
X010302Y025045D01*
X010302Y025178D01*
X010346Y025222D01*
X010434Y025222D01*
X010478Y025178D01*
X010478Y025045D01*
X010478Y025134D02*
X010567Y025222D01*
X010434Y025335D02*
X010434Y025512D01*
X010302Y025468D02*
X010567Y025468D01*
X010434Y025335D02*
X010302Y025468D01*
X009484Y025468D02*
X009484Y025380D01*
X009440Y025335D01*
X009484Y025222D02*
X009396Y025134D01*
X009396Y025178D02*
X009396Y025045D01*
X009484Y025045D02*
X009219Y025045D01*
X009219Y025178D01*
X009263Y025222D01*
X009352Y025222D01*
X009396Y025178D01*
X009263Y025335D02*
X009219Y025380D01*
X009219Y025468D01*
X009263Y025512D01*
X009307Y025512D01*
X009352Y025468D01*
X009396Y025512D01*
X009440Y025512D01*
X009484Y025468D01*
X009352Y025468D02*
X009352Y025424D01*
X008795Y025335D02*
X008751Y025335D01*
X008574Y025512D01*
X008530Y025512D01*
X008530Y025335D01*
X008574Y025222D02*
X008530Y025178D01*
X008530Y025090D01*
X008574Y025045D01*
X008751Y025045D01*
X008795Y025090D01*
X008795Y025178D01*
X008751Y025222D01*
X006155Y024433D02*
X006066Y024389D01*
X005978Y024300D01*
X006110Y024300D01*
X006155Y024256D01*
X006155Y024212D01*
X006110Y024168D01*
X006022Y024168D01*
X005978Y024212D01*
X005978Y024300D01*
X005865Y024212D02*
X005820Y024168D01*
X005732Y024168D01*
X005688Y024212D01*
X005688Y024389D01*
X005732Y024433D01*
X005820Y024433D01*
X005865Y024389D01*
X005820Y024039D02*
X005732Y024039D01*
X005688Y023995D01*
X005688Y023818D01*
X005732Y023774D01*
X005820Y023774D01*
X005865Y023818D01*
X005978Y023818D02*
X006022Y023774D01*
X006110Y023774D01*
X006155Y023818D01*
X006155Y023906D01*
X006110Y023951D01*
X006066Y023951D01*
X005978Y023906D01*
X005978Y024039D01*
X006155Y024039D01*
X005865Y023995D02*
X005820Y024039D01*
X005774Y023445D02*
X005818Y023357D01*
X005907Y023269D01*
X005907Y023401D01*
X005951Y023445D01*
X005995Y023445D01*
X006039Y023401D01*
X006039Y023313D01*
X005995Y023269D01*
X005907Y023269D01*
X005907Y023155D02*
X005951Y023111D01*
X005951Y022979D01*
X005951Y023067D02*
X006039Y023155D01*
X005907Y023155D02*
X005818Y023155D01*
X005774Y023111D01*
X005774Y022979D01*
X006039Y022979D01*
X005646Y022979D02*
X005380Y022979D01*
X005380Y023111D01*
X005425Y023155D01*
X005513Y023155D01*
X005557Y023111D01*
X005557Y022979D01*
X005557Y023067D02*
X005646Y023155D01*
X005601Y023269D02*
X005646Y023313D01*
X005646Y023401D01*
X005601Y023445D01*
X005513Y023445D01*
X005469Y023401D01*
X005469Y023357D01*
X005513Y023269D01*
X005380Y023269D01*
X005380Y023445D01*
X005252Y023445D02*
X005252Y023269D01*
X005252Y023357D02*
X004987Y023357D01*
X005075Y023269D01*
X005031Y023155D02*
X004987Y023111D01*
X004987Y023023D01*
X005031Y022979D01*
X005208Y022979D01*
X005252Y023023D01*
X005252Y023111D01*
X005208Y023155D01*
X005208Y023559D02*
X005031Y023735D01*
X005208Y023735D01*
X005252Y023691D01*
X005252Y023603D01*
X005208Y023559D01*
X005031Y023559D01*
X004987Y023603D01*
X004987Y023691D01*
X005031Y023735D01*
D15*
X004489Y004351D02*
X005966Y004351D01*
X006043Y004349D01*
X006120Y004343D01*
X006197Y004334D01*
X006273Y004321D01*
X006349Y004304D01*
X006423Y004283D01*
X006497Y004259D01*
X006569Y004231D01*
X006639Y004200D01*
X006708Y004165D01*
X006776Y004127D01*
X006841Y004086D01*
X006904Y004041D01*
X006965Y003993D01*
X007024Y003943D01*
X007080Y003890D01*
X007133Y003834D01*
X007183Y003775D01*
X007231Y003714D01*
X007276Y003651D01*
X007317Y003586D01*
X007355Y003518D01*
X007390Y003449D01*
X007421Y003379D01*
X007449Y003307D01*
X007473Y003233D01*
X007494Y003159D01*
X007511Y003083D01*
X007524Y003007D01*
X007533Y002930D01*
X007539Y002853D01*
X007541Y002776D01*
X007541Y001300D01*
X021123Y001300D01*
X021123Y002776D01*
X021125Y002853D01*
X021131Y002930D01*
X021140Y003007D01*
X021153Y003083D01*
X021170Y003159D01*
X021191Y003233D01*
X021215Y003307D01*
X021243Y003379D01*
X021274Y003449D01*
X021309Y003518D01*
X021347Y003586D01*
X021388Y003651D01*
X021433Y003714D01*
X021481Y003775D01*
X021531Y003834D01*
X021584Y003890D01*
X021640Y003943D01*
X021699Y003993D01*
X021760Y004041D01*
X021823Y004086D01*
X021888Y004127D01*
X021956Y004165D01*
X022025Y004200D01*
X022095Y004231D01*
X022167Y004259D01*
X022241Y004283D01*
X022315Y004304D01*
X022391Y004321D01*
X022467Y004334D01*
X022544Y004343D01*
X022621Y004349D01*
X022698Y004351D01*
X024175Y004351D01*
X024175Y029745D01*
X022698Y029745D01*
X022621Y029747D01*
X022544Y029753D01*
X022467Y029762D01*
X022391Y029775D01*
X022315Y029792D01*
X022241Y029813D01*
X022167Y029837D01*
X022095Y029865D01*
X022025Y029896D01*
X021956Y029931D01*
X021888Y029969D01*
X021823Y030010D01*
X021760Y030055D01*
X021699Y030103D01*
X021640Y030153D01*
X021584Y030206D01*
X021531Y030262D01*
X021481Y030321D01*
X021433Y030382D01*
X021388Y030445D01*
X021347Y030510D01*
X021309Y030578D01*
X021274Y030647D01*
X021243Y030717D01*
X021215Y030789D01*
X021191Y030863D01*
X021170Y030937D01*
X021153Y031013D01*
X021140Y031089D01*
X021131Y031166D01*
X021125Y031243D01*
X021123Y031320D01*
X021123Y032796D01*
X007541Y032796D01*
X007541Y031320D01*
X007539Y031243D01*
X007533Y031166D01*
X007524Y031089D01*
X007511Y031013D01*
X007494Y030937D01*
X007473Y030863D01*
X007449Y030789D01*
X007421Y030717D01*
X007390Y030647D01*
X007355Y030578D01*
X007317Y030510D01*
X007276Y030445D01*
X007231Y030382D01*
X007183Y030321D01*
X007133Y030262D01*
X007080Y030206D01*
X007024Y030153D01*
X006965Y030103D01*
X006904Y030055D01*
X006841Y030010D01*
X006776Y029969D01*
X006708Y029931D01*
X006639Y029896D01*
X006569Y029865D01*
X006497Y029837D01*
X006423Y029813D01*
X006349Y029792D01*
X006273Y029775D01*
X006197Y029762D01*
X006120Y029753D01*
X006043Y029747D01*
X005966Y029745D01*
X004489Y029745D01*
X004489Y004351D01*
X007619Y007166D02*
X007621Y007219D01*
X007627Y007272D01*
X007637Y007324D01*
X007650Y007375D01*
X007668Y007425D01*
X007689Y007474D01*
X007714Y007521D01*
X007742Y007565D01*
X007774Y007608D01*
X007808Y007648D01*
X007846Y007686D01*
X007886Y007720D01*
X007929Y007752D01*
X007974Y007780D01*
X008020Y007805D01*
X008069Y007826D01*
X008119Y007844D01*
X008170Y007857D01*
X008222Y007867D01*
X008275Y007873D01*
X008328Y007875D01*
X008381Y007873D01*
X008434Y007867D01*
X008486Y007857D01*
X008537Y007844D01*
X008587Y007826D01*
X008636Y007805D01*
X008683Y007780D01*
X008727Y007752D01*
X008770Y007720D01*
X008810Y007686D01*
X008848Y007648D01*
X008882Y007608D01*
X008914Y007565D01*
X008942Y007520D01*
X008967Y007474D01*
X008988Y007425D01*
X009006Y007375D01*
X009019Y007324D01*
X009029Y007272D01*
X009035Y007219D01*
X009037Y007166D01*
X009035Y007113D01*
X009029Y007060D01*
X009019Y007008D01*
X009006Y006957D01*
X008988Y006907D01*
X008967Y006858D01*
X008942Y006811D01*
X008914Y006767D01*
X008882Y006724D01*
X008848Y006684D01*
X008810Y006646D01*
X008770Y006612D01*
X008727Y006580D01*
X008682Y006552D01*
X008636Y006527D01*
X008587Y006506D01*
X008537Y006488D01*
X008486Y006475D01*
X008434Y006465D01*
X008381Y006459D01*
X008328Y006457D01*
X008275Y006459D01*
X008222Y006465D01*
X008170Y006475D01*
X008119Y006488D01*
X008069Y006506D01*
X008020Y006527D01*
X007973Y006552D01*
X007929Y006580D01*
X007886Y006612D01*
X007846Y006646D01*
X007808Y006684D01*
X007774Y006724D01*
X007742Y006767D01*
X007714Y006812D01*
X007689Y006858D01*
X007668Y006907D01*
X007650Y006957D01*
X007637Y007008D01*
X007627Y007060D01*
X007621Y007113D01*
X007619Y007166D01*
X009608Y005040D02*
X009610Y005059D01*
X009615Y005078D01*
X009625Y005094D01*
X009637Y005109D01*
X009652Y005121D01*
X009668Y005131D01*
X009687Y005136D01*
X009706Y005138D01*
X009725Y005136D01*
X009744Y005131D01*
X009760Y005121D01*
X009775Y005109D01*
X009787Y005094D01*
X009797Y005078D01*
X009802Y005059D01*
X009804Y005040D01*
X009802Y005021D01*
X009797Y005002D01*
X009787Y004986D01*
X009775Y004971D01*
X009760Y004959D01*
X009744Y004949D01*
X009725Y004944D01*
X009706Y004942D01*
X009687Y004944D01*
X009668Y004949D01*
X009652Y004959D01*
X009637Y004971D01*
X009625Y004986D01*
X009615Y005002D01*
X009610Y005021D01*
X009608Y005040D01*
X010494Y005434D02*
X010496Y005453D01*
X010501Y005472D01*
X010511Y005488D01*
X010523Y005503D01*
X010538Y005515D01*
X010554Y005525D01*
X010573Y005530D01*
X010592Y005532D01*
X010611Y005530D01*
X010630Y005525D01*
X010646Y005515D01*
X010661Y005503D01*
X010673Y005488D01*
X010683Y005472D01*
X010688Y005453D01*
X010690Y005434D01*
X010688Y005415D01*
X010683Y005396D01*
X010673Y005380D01*
X010661Y005365D01*
X010646Y005353D01*
X010630Y005343D01*
X010611Y005338D01*
X010592Y005336D01*
X010573Y005338D01*
X010554Y005343D01*
X010538Y005353D01*
X010523Y005365D01*
X010511Y005380D01*
X010501Y005396D01*
X010496Y005415D01*
X010494Y005434D01*
X011478Y005040D02*
X011480Y005059D01*
X011485Y005078D01*
X011495Y005094D01*
X011507Y005109D01*
X011522Y005121D01*
X011538Y005131D01*
X011557Y005136D01*
X011576Y005138D01*
X011595Y005136D01*
X011614Y005131D01*
X011630Y005121D01*
X011645Y005109D01*
X011657Y005094D01*
X011667Y005078D01*
X011672Y005059D01*
X011674Y005040D01*
X011672Y005021D01*
X011667Y005002D01*
X011657Y004986D01*
X011645Y004971D01*
X011630Y004959D01*
X011614Y004949D01*
X011595Y004944D01*
X011576Y004942D01*
X011557Y004944D01*
X011538Y004949D01*
X011522Y004959D01*
X011507Y004971D01*
X011495Y004986D01*
X011485Y005002D01*
X011480Y005021D01*
X011478Y005040D01*
X011872Y004056D02*
X011874Y004075D01*
X011879Y004094D01*
X011889Y004110D01*
X011901Y004125D01*
X011916Y004137D01*
X011932Y004147D01*
X011951Y004152D01*
X011970Y004154D01*
X011989Y004152D01*
X012008Y004147D01*
X012024Y004137D01*
X012039Y004125D01*
X012051Y004110D01*
X012061Y004094D01*
X012066Y004075D01*
X012068Y004056D01*
X012066Y004037D01*
X012061Y004018D01*
X012051Y004002D01*
X012039Y003987D01*
X012024Y003975D01*
X012008Y003965D01*
X011989Y003960D01*
X011970Y003958D01*
X011951Y003960D01*
X011932Y003965D01*
X011916Y003975D01*
X011901Y003987D01*
X011889Y004002D01*
X011879Y004018D01*
X011874Y004037D01*
X011872Y004056D01*
X011478Y003072D02*
X011480Y003091D01*
X011485Y003110D01*
X011495Y003126D01*
X011507Y003141D01*
X011522Y003153D01*
X011538Y003163D01*
X011557Y003168D01*
X011576Y003170D01*
X011595Y003168D01*
X011614Y003163D01*
X011630Y003153D01*
X011645Y003141D01*
X011657Y003126D01*
X011667Y003110D01*
X011672Y003091D01*
X011674Y003072D01*
X011672Y003053D01*
X011667Y003034D01*
X011657Y003018D01*
X011645Y003003D01*
X011630Y002991D01*
X011614Y002981D01*
X011595Y002976D01*
X011576Y002974D01*
X011557Y002976D01*
X011538Y002981D01*
X011522Y002991D01*
X011507Y003003D01*
X011495Y003018D01*
X011485Y003034D01*
X011480Y003053D01*
X011478Y003072D01*
X010494Y002678D02*
X010496Y002697D01*
X010501Y002716D01*
X010511Y002732D01*
X010523Y002747D01*
X010538Y002759D01*
X010554Y002769D01*
X010573Y002774D01*
X010592Y002776D01*
X010611Y002774D01*
X010630Y002769D01*
X010646Y002759D01*
X010661Y002747D01*
X010673Y002732D01*
X010683Y002716D01*
X010688Y002697D01*
X010690Y002678D01*
X010688Y002659D01*
X010683Y002640D01*
X010673Y002624D01*
X010661Y002609D01*
X010646Y002597D01*
X010630Y002587D01*
X010611Y002582D01*
X010592Y002580D01*
X010573Y002582D01*
X010554Y002587D01*
X010538Y002597D01*
X010523Y002609D01*
X010511Y002624D01*
X010501Y002640D01*
X010496Y002659D01*
X010494Y002678D01*
X009510Y003072D02*
X009512Y003091D01*
X009517Y003110D01*
X009527Y003126D01*
X009539Y003141D01*
X009554Y003153D01*
X009570Y003163D01*
X009589Y003168D01*
X009608Y003170D01*
X009627Y003168D01*
X009646Y003163D01*
X009662Y003153D01*
X009677Y003141D01*
X009689Y003126D01*
X009699Y003110D01*
X009704Y003091D01*
X009706Y003072D01*
X009704Y003053D01*
X009699Y003034D01*
X009689Y003018D01*
X009677Y003003D01*
X009662Y002991D01*
X009646Y002981D01*
X009627Y002976D01*
X009608Y002974D01*
X009589Y002976D01*
X009570Y002981D01*
X009554Y002991D01*
X009539Y003003D01*
X009527Y003018D01*
X009517Y003034D01*
X009512Y003053D01*
X009510Y003072D01*
X009116Y004056D02*
X009118Y004075D01*
X009123Y004094D01*
X009133Y004110D01*
X009145Y004125D01*
X009160Y004137D01*
X009176Y004147D01*
X009195Y004152D01*
X009214Y004154D01*
X009233Y004152D01*
X009252Y004147D01*
X009268Y004137D01*
X009283Y004125D01*
X009295Y004110D01*
X009305Y004094D01*
X009310Y004075D01*
X009312Y004056D01*
X009310Y004037D01*
X009305Y004018D01*
X009295Y004002D01*
X009283Y003987D01*
X009268Y003975D01*
X009252Y003965D01*
X009233Y003960D01*
X009214Y003958D01*
X009195Y003960D01*
X009176Y003965D01*
X009160Y003975D01*
X009145Y003987D01*
X009133Y004002D01*
X009123Y004018D01*
X009118Y004037D01*
X009116Y004056D01*
X016596Y004056D02*
X016598Y004075D01*
X016603Y004094D01*
X016613Y004110D01*
X016625Y004125D01*
X016640Y004137D01*
X016656Y004147D01*
X016675Y004152D01*
X016694Y004154D01*
X016713Y004152D01*
X016732Y004147D01*
X016748Y004137D01*
X016763Y004125D01*
X016775Y004110D01*
X016785Y004094D01*
X016790Y004075D01*
X016792Y004056D01*
X016790Y004037D01*
X016785Y004018D01*
X016775Y004002D01*
X016763Y003987D01*
X016748Y003975D01*
X016732Y003965D01*
X016713Y003960D01*
X016694Y003958D01*
X016675Y003960D01*
X016656Y003965D01*
X016640Y003975D01*
X016625Y003987D01*
X016613Y004002D01*
X016603Y004018D01*
X016598Y004037D01*
X016596Y004056D01*
X016990Y003072D02*
X016992Y003091D01*
X016997Y003110D01*
X017007Y003126D01*
X017019Y003141D01*
X017034Y003153D01*
X017050Y003163D01*
X017069Y003168D01*
X017088Y003170D01*
X017107Y003168D01*
X017126Y003163D01*
X017142Y003153D01*
X017157Y003141D01*
X017169Y003126D01*
X017179Y003110D01*
X017184Y003091D01*
X017186Y003072D01*
X017184Y003053D01*
X017179Y003034D01*
X017169Y003018D01*
X017157Y003003D01*
X017142Y002991D01*
X017126Y002981D01*
X017107Y002976D01*
X017088Y002974D01*
X017069Y002976D01*
X017050Y002981D01*
X017034Y002991D01*
X017019Y003003D01*
X017007Y003018D01*
X016997Y003034D01*
X016992Y003053D01*
X016990Y003072D01*
X017974Y002678D02*
X017976Y002697D01*
X017981Y002716D01*
X017991Y002732D01*
X018003Y002747D01*
X018018Y002759D01*
X018034Y002769D01*
X018053Y002774D01*
X018072Y002776D01*
X018091Y002774D01*
X018110Y002769D01*
X018126Y002759D01*
X018141Y002747D01*
X018153Y002732D01*
X018163Y002716D01*
X018168Y002697D01*
X018170Y002678D01*
X018168Y002659D01*
X018163Y002640D01*
X018153Y002624D01*
X018141Y002609D01*
X018126Y002597D01*
X018110Y002587D01*
X018091Y002582D01*
X018072Y002580D01*
X018053Y002582D01*
X018034Y002587D01*
X018018Y002597D01*
X018003Y002609D01*
X017991Y002624D01*
X017981Y002640D01*
X017976Y002659D01*
X017974Y002678D01*
X018958Y003072D02*
X018960Y003091D01*
X018965Y003110D01*
X018975Y003126D01*
X018987Y003141D01*
X019002Y003153D01*
X019018Y003163D01*
X019037Y003168D01*
X019056Y003170D01*
X019075Y003168D01*
X019094Y003163D01*
X019110Y003153D01*
X019125Y003141D01*
X019137Y003126D01*
X019147Y003110D01*
X019152Y003091D01*
X019154Y003072D01*
X019152Y003053D01*
X019147Y003034D01*
X019137Y003018D01*
X019125Y003003D01*
X019110Y002991D01*
X019094Y002981D01*
X019075Y002976D01*
X019056Y002974D01*
X019037Y002976D01*
X019018Y002981D01*
X019002Y002991D01*
X018987Y003003D01*
X018975Y003018D01*
X018965Y003034D01*
X018960Y003053D01*
X018958Y003072D01*
X019352Y004056D02*
X019354Y004075D01*
X019359Y004094D01*
X019369Y004110D01*
X019381Y004125D01*
X019396Y004137D01*
X019412Y004147D01*
X019431Y004152D01*
X019450Y004154D01*
X019469Y004152D01*
X019488Y004147D01*
X019504Y004137D01*
X019519Y004125D01*
X019531Y004110D01*
X019541Y004094D01*
X019546Y004075D01*
X019548Y004056D01*
X019546Y004037D01*
X019541Y004018D01*
X019531Y004002D01*
X019519Y003987D01*
X019504Y003975D01*
X019488Y003965D01*
X019469Y003960D01*
X019450Y003958D01*
X019431Y003960D01*
X019412Y003965D01*
X019396Y003975D01*
X019381Y003987D01*
X019369Y004002D01*
X019359Y004018D01*
X019354Y004037D01*
X019352Y004056D01*
X018958Y005040D02*
X018960Y005059D01*
X018965Y005078D01*
X018975Y005094D01*
X018987Y005109D01*
X019002Y005121D01*
X019018Y005131D01*
X019037Y005136D01*
X019056Y005138D01*
X019075Y005136D01*
X019094Y005131D01*
X019110Y005121D01*
X019125Y005109D01*
X019137Y005094D01*
X019147Y005078D01*
X019152Y005059D01*
X019154Y005040D01*
X019152Y005021D01*
X019147Y005002D01*
X019137Y004986D01*
X019125Y004971D01*
X019110Y004959D01*
X019094Y004949D01*
X019075Y004944D01*
X019056Y004942D01*
X019037Y004944D01*
X019018Y004949D01*
X019002Y004959D01*
X018987Y004971D01*
X018975Y004986D01*
X018965Y005002D01*
X018960Y005021D01*
X018958Y005040D01*
X017974Y005434D02*
X017976Y005453D01*
X017981Y005472D01*
X017991Y005488D01*
X018003Y005503D01*
X018018Y005515D01*
X018034Y005525D01*
X018053Y005530D01*
X018072Y005532D01*
X018091Y005530D01*
X018110Y005525D01*
X018126Y005515D01*
X018141Y005503D01*
X018153Y005488D01*
X018163Y005472D01*
X018168Y005453D01*
X018170Y005434D01*
X018168Y005415D01*
X018163Y005396D01*
X018153Y005380D01*
X018141Y005365D01*
X018126Y005353D01*
X018110Y005343D01*
X018091Y005338D01*
X018072Y005336D01*
X018053Y005338D01*
X018034Y005343D01*
X018018Y005353D01*
X018003Y005365D01*
X017991Y005380D01*
X017981Y005396D01*
X017976Y005415D01*
X017974Y005434D01*
X017088Y005040D02*
X017090Y005059D01*
X017095Y005078D01*
X017105Y005094D01*
X017117Y005109D01*
X017132Y005121D01*
X017148Y005131D01*
X017167Y005136D01*
X017186Y005138D01*
X017205Y005136D01*
X017224Y005131D01*
X017240Y005121D01*
X017255Y005109D01*
X017267Y005094D01*
X017277Y005078D01*
X017282Y005059D01*
X017284Y005040D01*
X017282Y005021D01*
X017277Y005002D01*
X017267Y004986D01*
X017255Y004971D01*
X017240Y004959D01*
X017224Y004949D01*
X017205Y004944D01*
X017186Y004942D01*
X017167Y004944D01*
X017148Y004949D01*
X017132Y004959D01*
X017117Y004971D01*
X017105Y004986D01*
X017095Y005002D01*
X017090Y005021D01*
X017088Y005040D01*
X019627Y007166D02*
X019629Y007219D01*
X019635Y007272D01*
X019645Y007324D01*
X019658Y007375D01*
X019676Y007425D01*
X019697Y007474D01*
X019722Y007521D01*
X019750Y007565D01*
X019782Y007608D01*
X019816Y007648D01*
X019854Y007686D01*
X019894Y007720D01*
X019937Y007752D01*
X019982Y007780D01*
X020028Y007805D01*
X020077Y007826D01*
X020127Y007844D01*
X020178Y007857D01*
X020230Y007867D01*
X020283Y007873D01*
X020336Y007875D01*
X020389Y007873D01*
X020442Y007867D01*
X020494Y007857D01*
X020545Y007844D01*
X020595Y007826D01*
X020644Y007805D01*
X020691Y007780D01*
X020735Y007752D01*
X020778Y007720D01*
X020818Y007686D01*
X020856Y007648D01*
X020890Y007608D01*
X020922Y007565D01*
X020950Y007520D01*
X020975Y007474D01*
X020996Y007425D01*
X021014Y007375D01*
X021027Y007324D01*
X021037Y007272D01*
X021043Y007219D01*
X021045Y007166D01*
X021043Y007113D01*
X021037Y007060D01*
X021027Y007008D01*
X021014Y006957D01*
X020996Y006907D01*
X020975Y006858D01*
X020950Y006811D01*
X020922Y006767D01*
X020890Y006724D01*
X020856Y006684D01*
X020818Y006646D01*
X020778Y006612D01*
X020735Y006580D01*
X020690Y006552D01*
X020644Y006527D01*
X020595Y006506D01*
X020545Y006488D01*
X020494Y006475D01*
X020442Y006465D01*
X020389Y006459D01*
X020336Y006457D01*
X020283Y006459D01*
X020230Y006465D01*
X020178Y006475D01*
X020127Y006488D01*
X020077Y006506D01*
X020028Y006527D01*
X019981Y006552D01*
X019937Y006580D01*
X019894Y006612D01*
X019854Y006646D01*
X019816Y006684D01*
X019782Y006724D01*
X019750Y006767D01*
X019722Y006812D01*
X019697Y006858D01*
X019676Y006907D01*
X019658Y006957D01*
X019645Y007008D01*
X019635Y007060D01*
X019629Y007113D01*
X019627Y007166D01*
X019627Y026930D02*
X019629Y026983D01*
X019635Y027036D01*
X019645Y027088D01*
X019658Y027139D01*
X019676Y027189D01*
X019697Y027238D01*
X019722Y027285D01*
X019750Y027329D01*
X019782Y027372D01*
X019816Y027412D01*
X019854Y027450D01*
X019894Y027484D01*
X019937Y027516D01*
X019982Y027544D01*
X020028Y027569D01*
X020077Y027590D01*
X020127Y027608D01*
X020178Y027621D01*
X020230Y027631D01*
X020283Y027637D01*
X020336Y027639D01*
X020389Y027637D01*
X020442Y027631D01*
X020494Y027621D01*
X020545Y027608D01*
X020595Y027590D01*
X020644Y027569D01*
X020691Y027544D01*
X020735Y027516D01*
X020778Y027484D01*
X020818Y027450D01*
X020856Y027412D01*
X020890Y027372D01*
X020922Y027329D01*
X020950Y027284D01*
X020975Y027238D01*
X020996Y027189D01*
X021014Y027139D01*
X021027Y027088D01*
X021037Y027036D01*
X021043Y026983D01*
X021045Y026930D01*
X021043Y026877D01*
X021037Y026824D01*
X021027Y026772D01*
X021014Y026721D01*
X020996Y026671D01*
X020975Y026622D01*
X020950Y026575D01*
X020922Y026531D01*
X020890Y026488D01*
X020856Y026448D01*
X020818Y026410D01*
X020778Y026376D01*
X020735Y026344D01*
X020690Y026316D01*
X020644Y026291D01*
X020595Y026270D01*
X020545Y026252D01*
X020494Y026239D01*
X020442Y026229D01*
X020389Y026223D01*
X020336Y026221D01*
X020283Y026223D01*
X020230Y026229D01*
X020178Y026239D01*
X020127Y026252D01*
X020077Y026270D01*
X020028Y026291D01*
X019981Y026316D01*
X019937Y026344D01*
X019894Y026376D01*
X019854Y026410D01*
X019816Y026448D01*
X019782Y026488D01*
X019750Y026531D01*
X019722Y026576D01*
X019697Y026622D01*
X019676Y026671D01*
X019658Y026721D01*
X019645Y026772D01*
X019635Y026824D01*
X019629Y026877D01*
X019627Y026930D01*
X007619Y026930D02*
X007621Y026983D01*
X007627Y027036D01*
X007637Y027088D01*
X007650Y027139D01*
X007668Y027189D01*
X007689Y027238D01*
X007714Y027285D01*
X007742Y027329D01*
X007774Y027372D01*
X007808Y027412D01*
X007846Y027450D01*
X007886Y027484D01*
X007929Y027516D01*
X007974Y027544D01*
X008020Y027569D01*
X008069Y027590D01*
X008119Y027608D01*
X008170Y027621D01*
X008222Y027631D01*
X008275Y027637D01*
X008328Y027639D01*
X008381Y027637D01*
X008434Y027631D01*
X008486Y027621D01*
X008537Y027608D01*
X008587Y027590D01*
X008636Y027569D01*
X008683Y027544D01*
X008727Y027516D01*
X008770Y027484D01*
X008810Y027450D01*
X008848Y027412D01*
X008882Y027372D01*
X008914Y027329D01*
X008942Y027284D01*
X008967Y027238D01*
X008988Y027189D01*
X009006Y027139D01*
X009019Y027088D01*
X009029Y027036D01*
X009035Y026983D01*
X009037Y026930D01*
X009035Y026877D01*
X009029Y026824D01*
X009019Y026772D01*
X009006Y026721D01*
X008988Y026671D01*
X008967Y026622D01*
X008942Y026575D01*
X008914Y026531D01*
X008882Y026488D01*
X008848Y026448D01*
X008810Y026410D01*
X008770Y026376D01*
X008727Y026344D01*
X008682Y026316D01*
X008636Y026291D01*
X008587Y026270D01*
X008537Y026252D01*
X008486Y026239D01*
X008434Y026229D01*
X008381Y026223D01*
X008328Y026221D01*
X008275Y026223D01*
X008222Y026229D01*
X008170Y026239D01*
X008119Y026252D01*
X008069Y026270D01*
X008020Y026291D01*
X007973Y026316D01*
X007929Y026344D01*
X007886Y026376D01*
X007846Y026410D01*
X007808Y026448D01*
X007774Y026488D01*
X007742Y026531D01*
X007714Y026576D01*
X007689Y026622D01*
X007668Y026671D01*
X007650Y026721D01*
X007637Y026772D01*
X007627Y026824D01*
X007621Y026877D01*
X007619Y026930D01*
D16*
X009667Y004056D02*
X009669Y004116D01*
X009675Y004177D01*
X009685Y004236D01*
X009699Y004295D01*
X009716Y004353D01*
X009737Y004410D01*
X009762Y004465D01*
X009791Y004518D01*
X009823Y004570D01*
X009858Y004619D01*
X009897Y004666D01*
X009938Y004710D01*
X009982Y004751D01*
X010029Y004790D01*
X010078Y004825D01*
X010129Y004857D01*
X010183Y004886D01*
X010238Y004911D01*
X010295Y004932D01*
X010353Y004949D01*
X010412Y004963D01*
X010471Y004973D01*
X010532Y004979D01*
X010592Y004981D01*
X010652Y004979D01*
X010713Y004973D01*
X010772Y004963D01*
X010831Y004949D01*
X010889Y004932D01*
X010946Y004911D01*
X011001Y004886D01*
X011054Y004857D01*
X011106Y004825D01*
X011155Y004790D01*
X011202Y004751D01*
X011246Y004710D01*
X011287Y004666D01*
X011326Y004619D01*
X011361Y004570D01*
X011393Y004519D01*
X011422Y004465D01*
X011447Y004410D01*
X011468Y004353D01*
X011485Y004295D01*
X011499Y004236D01*
X011509Y004177D01*
X011515Y004116D01*
X011517Y004056D01*
X011515Y003996D01*
X011509Y003935D01*
X011499Y003876D01*
X011485Y003817D01*
X011468Y003759D01*
X011447Y003702D01*
X011422Y003647D01*
X011393Y003594D01*
X011361Y003542D01*
X011326Y003493D01*
X011287Y003446D01*
X011246Y003402D01*
X011202Y003361D01*
X011155Y003322D01*
X011106Y003287D01*
X011055Y003255D01*
X011001Y003226D01*
X010946Y003201D01*
X010889Y003180D01*
X010831Y003163D01*
X010772Y003149D01*
X010713Y003139D01*
X010652Y003133D01*
X010592Y003131D01*
X010532Y003133D01*
X010471Y003139D01*
X010412Y003149D01*
X010353Y003163D01*
X010295Y003180D01*
X010238Y003201D01*
X010183Y003226D01*
X010130Y003255D01*
X010078Y003287D01*
X010029Y003322D01*
X009982Y003361D01*
X009938Y003402D01*
X009897Y003446D01*
X009858Y003493D01*
X009823Y003542D01*
X009791Y003593D01*
X009762Y003647D01*
X009737Y003702D01*
X009716Y003759D01*
X009699Y003817D01*
X009685Y003876D01*
X009675Y003935D01*
X009669Y003996D01*
X009667Y004056D01*
X017147Y004056D02*
X017149Y004116D01*
X017155Y004177D01*
X017165Y004236D01*
X017179Y004295D01*
X017196Y004353D01*
X017217Y004410D01*
X017242Y004465D01*
X017271Y004518D01*
X017303Y004570D01*
X017338Y004619D01*
X017377Y004666D01*
X017418Y004710D01*
X017462Y004751D01*
X017509Y004790D01*
X017558Y004825D01*
X017609Y004857D01*
X017663Y004886D01*
X017718Y004911D01*
X017775Y004932D01*
X017833Y004949D01*
X017892Y004963D01*
X017951Y004973D01*
X018012Y004979D01*
X018072Y004981D01*
X018132Y004979D01*
X018193Y004973D01*
X018252Y004963D01*
X018311Y004949D01*
X018369Y004932D01*
X018426Y004911D01*
X018481Y004886D01*
X018534Y004857D01*
X018586Y004825D01*
X018635Y004790D01*
X018682Y004751D01*
X018726Y004710D01*
X018767Y004666D01*
X018806Y004619D01*
X018841Y004570D01*
X018873Y004519D01*
X018902Y004465D01*
X018927Y004410D01*
X018948Y004353D01*
X018965Y004295D01*
X018979Y004236D01*
X018989Y004177D01*
X018995Y004116D01*
X018997Y004056D01*
X018995Y003996D01*
X018989Y003935D01*
X018979Y003876D01*
X018965Y003817D01*
X018948Y003759D01*
X018927Y003702D01*
X018902Y003647D01*
X018873Y003594D01*
X018841Y003542D01*
X018806Y003493D01*
X018767Y003446D01*
X018726Y003402D01*
X018682Y003361D01*
X018635Y003322D01*
X018586Y003287D01*
X018535Y003255D01*
X018481Y003226D01*
X018426Y003201D01*
X018369Y003180D01*
X018311Y003163D01*
X018252Y003149D01*
X018193Y003139D01*
X018132Y003133D01*
X018072Y003131D01*
X018012Y003133D01*
X017951Y003139D01*
X017892Y003149D01*
X017833Y003163D01*
X017775Y003180D01*
X017718Y003201D01*
X017663Y003226D01*
X017610Y003255D01*
X017558Y003287D01*
X017509Y003322D01*
X017462Y003361D01*
X017418Y003402D01*
X017377Y003446D01*
X017338Y003493D01*
X017303Y003542D01*
X017271Y003593D01*
X017242Y003647D01*
X017217Y003702D01*
X017196Y003759D01*
X017179Y003817D01*
X017165Y003876D01*
X017155Y003935D01*
X017149Y003996D01*
X017147Y004056D01*
D17*
X014922Y027088D02*
X014905Y027133D01*
X014884Y027177D01*
X014860Y027219D01*
X014833Y027259D01*
X014803Y027297D01*
X014770Y027333D01*
X014734Y027366D01*
X014696Y027396D01*
X014655Y027422D01*
X014613Y027446D01*
X014569Y027466D01*
X014523Y027483D01*
X014476Y027496D01*
X014429Y027505D01*
X014381Y027511D01*
X014332Y027513D01*
X014283Y027511D01*
X014235Y027505D01*
X014188Y027496D01*
X014141Y027483D01*
X014095Y027466D01*
X014051Y027446D01*
X014009Y027422D01*
X013968Y027396D01*
X013930Y027366D01*
X013894Y027333D01*
X013861Y027297D01*
X013831Y027259D01*
X013804Y027219D01*
X013780Y027177D01*
X013759Y027133D01*
X013742Y027088D01*
X013742Y026694D02*
X013759Y026649D01*
X013780Y026605D01*
X013804Y026563D01*
X013831Y026523D01*
X013861Y026485D01*
X013894Y026449D01*
X013930Y026416D01*
X013968Y026386D01*
X014009Y026360D01*
X014051Y026336D01*
X014095Y026316D01*
X014141Y026299D01*
X014188Y026286D01*
X014235Y026277D01*
X014283Y026271D01*
X014332Y026269D01*
X014381Y026271D01*
X014429Y026277D01*
X014476Y026286D01*
X014523Y026299D01*
X014569Y026316D01*
X014613Y026336D01*
X014655Y026360D01*
X014696Y026386D01*
X014734Y026416D01*
X014770Y026449D01*
X014803Y026485D01*
X014833Y026523D01*
X014860Y026563D01*
X014884Y026605D01*
X014905Y026649D01*
X014922Y026694D01*
D18*
X012523Y026891D02*
X012525Y026976D01*
X012531Y027060D01*
X012541Y027145D01*
X012555Y027228D01*
X012572Y027311D01*
X012594Y027393D01*
X012620Y027474D01*
X012649Y027554D01*
X012682Y027632D01*
X012718Y027708D01*
X012758Y027783D01*
X012802Y027856D01*
X012849Y027927D01*
X012899Y027995D01*
X012952Y028061D01*
X013009Y028124D01*
X013068Y028185D01*
X013130Y028243D01*
X013195Y028298D01*
X013262Y028350D01*
X013331Y028398D01*
X013403Y028443D01*
X013477Y028485D01*
X013553Y028523D01*
X013630Y028558D01*
X013709Y028589D01*
X013789Y028617D01*
X013871Y028640D01*
X013953Y028660D01*
X014036Y028676D01*
X014120Y028688D01*
X014205Y028696D01*
X014290Y028700D01*
X014374Y028700D01*
X014459Y028696D01*
X014544Y028688D01*
X014628Y028676D01*
X014711Y028660D01*
X014793Y028640D01*
X014875Y028617D01*
X014955Y028589D01*
X015034Y028558D01*
X015111Y028523D01*
X015187Y028485D01*
X015261Y028443D01*
X015333Y028398D01*
X015402Y028350D01*
X015469Y028298D01*
X015534Y028243D01*
X015596Y028185D01*
X015655Y028124D01*
X015712Y028061D01*
X015765Y027995D01*
X015815Y027927D01*
X015862Y027856D01*
X015906Y027783D01*
X015946Y027708D01*
X015982Y027632D01*
X016015Y027554D01*
X016044Y027474D01*
X016070Y027393D01*
X016092Y027311D01*
X016109Y027228D01*
X016123Y027145D01*
X016133Y027060D01*
X016139Y026976D01*
X016141Y026891D01*
X016139Y026806D01*
X016133Y026722D01*
X016123Y026637D01*
X016109Y026554D01*
X016092Y026471D01*
X016070Y026389D01*
X016044Y026308D01*
X016015Y026228D01*
X015982Y026150D01*
X015946Y026074D01*
X015906Y025999D01*
X015862Y025926D01*
X015815Y025855D01*
X015765Y025787D01*
X015712Y025721D01*
X015655Y025658D01*
X015596Y025597D01*
X015534Y025539D01*
X015469Y025484D01*
X015402Y025432D01*
X015333Y025384D01*
X015261Y025339D01*
X015187Y025297D01*
X015111Y025259D01*
X015034Y025224D01*
X014955Y025193D01*
X014875Y025165D01*
X014793Y025142D01*
X014711Y025122D01*
X014628Y025106D01*
X014544Y025094D01*
X014459Y025086D01*
X014374Y025082D01*
X014290Y025082D01*
X014205Y025086D01*
X014120Y025094D01*
X014036Y025106D01*
X013953Y025122D01*
X013871Y025142D01*
X013789Y025165D01*
X013709Y025193D01*
X013630Y025224D01*
X013553Y025259D01*
X013477Y025297D01*
X013403Y025339D01*
X013331Y025384D01*
X013262Y025432D01*
X013195Y025484D01*
X013130Y025539D01*
X013068Y025597D01*
X013009Y025658D01*
X012952Y025721D01*
X012899Y025787D01*
X012849Y025855D01*
X012802Y025926D01*
X012758Y025999D01*
X012718Y026074D01*
X012682Y026150D01*
X012649Y026228D01*
X012620Y026308D01*
X012594Y026389D01*
X012572Y026471D01*
X012555Y026554D01*
X012541Y026637D01*
X012531Y026722D01*
X012525Y026806D01*
X012523Y026891D01*
X012532Y027291D02*
X012182Y027291D01*
X012182Y026491D01*
X012532Y026491D01*
X011970Y025548D02*
X011970Y028233D01*
X012989Y029253D02*
X015675Y029253D01*
X016694Y028233D02*
X016694Y025548D01*
X016482Y026491D02*
X016132Y026491D01*
X016482Y026491D02*
X016482Y027291D01*
X016132Y027291D01*
X015675Y024528D02*
X012989Y024528D01*
X014135Y018426D02*
X014133Y018387D01*
X014127Y018349D01*
X014118Y018312D01*
X014105Y018275D01*
X014088Y018240D01*
X014069Y018207D01*
X014046Y018176D01*
X014020Y018147D01*
X013991Y018121D01*
X013960Y018098D01*
X013927Y018079D01*
X013892Y018062D01*
X013855Y018049D01*
X013818Y018040D01*
X013780Y018034D01*
X013741Y018032D01*
X014135Y018426D02*
X014133Y018465D01*
X014127Y018503D01*
X014118Y018540D01*
X014105Y018577D01*
X014088Y018612D01*
X014069Y018645D01*
X014046Y018676D01*
X014020Y018705D01*
X013991Y018731D01*
X013960Y018754D01*
X013927Y018773D01*
X013892Y018790D01*
X013855Y018803D01*
X013818Y018812D01*
X013780Y018818D01*
X013741Y018820D01*
X014135Y018426D02*
X015218Y018426D01*
X014332Y017848D02*
X014278Y017846D01*
X014224Y017841D01*
X014171Y017832D01*
X014118Y017819D01*
X014067Y017803D01*
X014017Y017783D01*
X013968Y017760D01*
X013920Y017734D01*
X013875Y017705D01*
X013832Y017672D01*
X013791Y017637D01*
X013752Y017599D01*
X013716Y017559D01*
X013683Y017516D01*
X013653Y017471D01*
X013626Y017424D01*
X013637Y016651D02*
X013667Y016603D01*
X013700Y016558D01*
X013736Y016515D01*
X013774Y016474D01*
X013816Y016437D01*
X013860Y016402D01*
X013906Y016371D01*
X013955Y016342D01*
X014005Y016318D01*
X014057Y016297D01*
X014111Y016279D01*
X014165Y016266D01*
X014220Y016256D01*
X014276Y016250D01*
X014332Y016248D01*
X014385Y016250D01*
X014439Y016255D01*
X014491Y016264D01*
X014543Y016276D01*
X014594Y016292D01*
X014644Y016311D01*
X014693Y016334D01*
X014740Y016360D01*
X014785Y016388D01*
X014828Y016420D01*
X014868Y016454D01*
X014907Y016492D01*
X014943Y016531D01*
X014947Y017560D02*
X014911Y017600D01*
X014872Y017638D01*
X014831Y017673D01*
X014788Y017705D01*
X014743Y017735D01*
X014696Y017761D01*
X014647Y017783D01*
X014596Y017803D01*
X014545Y017819D01*
X014493Y017832D01*
X014439Y017841D01*
X014386Y017846D01*
X014332Y017848D01*
X019352Y022954D02*
X020434Y022954D01*
X020436Y022993D01*
X020442Y023031D01*
X020451Y023068D01*
X020464Y023105D01*
X020481Y023140D01*
X020500Y023173D01*
X020523Y023204D01*
X020549Y023233D01*
X020578Y023259D01*
X020609Y023282D01*
X020642Y023301D01*
X020677Y023318D01*
X020714Y023331D01*
X020751Y023340D01*
X020789Y023346D01*
X020828Y023348D01*
X020434Y022954D02*
X020436Y022915D01*
X020442Y022877D01*
X020451Y022840D01*
X020464Y022803D01*
X020481Y022768D01*
X020500Y022735D01*
X020523Y022704D01*
X020549Y022675D01*
X020578Y022649D01*
X020609Y022626D01*
X020642Y022607D01*
X020677Y022590D01*
X020714Y022577D01*
X020751Y022568D01*
X020789Y022562D01*
X020828Y022560D01*
D19*
X008230Y015375D02*
X007836Y015375D01*
X007836Y014784D02*
X008230Y014784D01*
M02*
