G75*
%MOIN*%
%OFA0B0*%
%FSLAX24Y24*%
%IPPOS*%
%LPD*%
%AMOC8*
5,1,8,0,0,1.08239X$1,22.5*
%
%ADD10C,0.0000*%
%ADD11R,0.0512X0.0591*%
%ADD12R,0.0591X0.0512*%
%ADD13R,0.1181X0.0394*%
%ADD14R,0.0472X0.0591*%
%ADD15R,0.0591X0.0472*%
%ADD16R,0.0120X0.0320*%
%ADD17R,0.0320X0.0120*%
%ADD18R,0.0945X0.0945*%
%ADD19C,0.0780*%
%ADD20R,0.0866X0.0236*%
%ADD21C,0.3543*%
%ADD22C,0.0039*%
%ADD23C,0.0765*%
%ADD24C,0.0594*%
%ADD25C,0.0397*%
%ADD26R,0.0740X0.0740*%
%ADD27C,0.0740*%
%ADD28OC8,0.0660*%
%ADD29OC8,0.0520*%
%ADD30C,0.0554*%
%ADD31C,0.0768*%
%ADD32R,0.0236X0.0236*%
%ADD33R,0.0157X0.0185*%
%ADD34R,0.0669X0.0374*%
%ADD35R,0.0315X0.0551*%
%ADD36R,0.0591X0.0394*%
%ADD37R,0.0787X0.0787*%
%ADD38C,0.0100*%
%ADD39C,0.0120*%
%ADD40C,0.0317*%
%ADD41C,0.0160*%
%ADD42C,0.0240*%
%ADD43C,0.0356*%
%ADD44C,0.0157*%
%ADD45C,0.0320*%
%ADD46C,0.0277*%
%ADD47C,0.0400*%
%ADD48C,0.0236*%
%ADD49C,0.0118*%
%ADD50C,0.0472*%
%ADD51C,0.0500*%
D10*
X004489Y004351D02*
X005966Y004351D01*
X006043Y004349D01*
X006120Y004343D01*
X006197Y004334D01*
X006273Y004321D01*
X006349Y004304D01*
X006423Y004283D01*
X006497Y004259D01*
X006569Y004231D01*
X006639Y004200D01*
X006708Y004165D01*
X006776Y004127D01*
X006841Y004086D01*
X006904Y004041D01*
X006965Y003993D01*
X007024Y003943D01*
X007080Y003890D01*
X007133Y003834D01*
X007183Y003775D01*
X007231Y003714D01*
X007276Y003651D01*
X007317Y003586D01*
X007355Y003518D01*
X007390Y003449D01*
X007421Y003379D01*
X007449Y003307D01*
X007473Y003233D01*
X007494Y003159D01*
X007511Y003083D01*
X007524Y003007D01*
X007533Y002930D01*
X007539Y002853D01*
X007541Y002776D01*
X007541Y001300D01*
X021123Y001300D01*
X021123Y002776D01*
X021125Y002853D01*
X021131Y002930D01*
X021140Y003007D01*
X021153Y003083D01*
X021170Y003159D01*
X021191Y003233D01*
X021215Y003307D01*
X021243Y003379D01*
X021274Y003449D01*
X021309Y003518D01*
X021347Y003586D01*
X021388Y003651D01*
X021433Y003714D01*
X021481Y003775D01*
X021531Y003834D01*
X021584Y003890D01*
X021640Y003943D01*
X021699Y003993D01*
X021760Y004041D01*
X021823Y004086D01*
X021888Y004127D01*
X021956Y004165D01*
X022025Y004200D01*
X022095Y004231D01*
X022167Y004259D01*
X022241Y004283D01*
X022315Y004304D01*
X022391Y004321D01*
X022467Y004334D01*
X022544Y004343D01*
X022621Y004349D01*
X022698Y004351D01*
X024175Y004351D01*
X024175Y029745D01*
X022698Y029745D01*
X022621Y029747D01*
X022544Y029753D01*
X022467Y029762D01*
X022391Y029775D01*
X022315Y029792D01*
X022241Y029813D01*
X022167Y029837D01*
X022095Y029865D01*
X022025Y029896D01*
X021956Y029931D01*
X021888Y029969D01*
X021823Y030010D01*
X021760Y030055D01*
X021699Y030103D01*
X021640Y030153D01*
X021584Y030206D01*
X021531Y030262D01*
X021481Y030321D01*
X021433Y030382D01*
X021388Y030445D01*
X021347Y030510D01*
X021309Y030578D01*
X021274Y030647D01*
X021243Y030717D01*
X021215Y030789D01*
X021191Y030863D01*
X021170Y030937D01*
X021153Y031013D01*
X021140Y031089D01*
X021131Y031166D01*
X021125Y031243D01*
X021123Y031320D01*
X021123Y032796D01*
X007541Y032796D01*
X007541Y031320D01*
X007539Y031243D01*
X007533Y031166D01*
X007524Y031089D01*
X007511Y031013D01*
X007494Y030937D01*
X007473Y030863D01*
X007449Y030789D01*
X007421Y030717D01*
X007390Y030647D01*
X007355Y030578D01*
X007317Y030510D01*
X007276Y030445D01*
X007231Y030382D01*
X007183Y030321D01*
X007133Y030262D01*
X007080Y030206D01*
X007024Y030153D01*
X006965Y030103D01*
X006904Y030055D01*
X006841Y030010D01*
X006776Y029969D01*
X006708Y029931D01*
X006639Y029896D01*
X006569Y029865D01*
X006497Y029837D01*
X006423Y029813D01*
X006349Y029792D01*
X006273Y029775D01*
X006197Y029762D01*
X006120Y029753D01*
X006043Y029747D01*
X005966Y029745D01*
X004489Y029745D01*
X004489Y004351D01*
X007698Y007166D02*
X007700Y007216D01*
X007706Y007266D01*
X007716Y007315D01*
X007730Y007363D01*
X007747Y007410D01*
X007768Y007455D01*
X007793Y007499D01*
X007821Y007540D01*
X007853Y007579D01*
X007887Y007616D01*
X007924Y007650D01*
X007964Y007680D01*
X008006Y007707D01*
X008050Y007731D01*
X008096Y007752D01*
X008143Y007768D01*
X008191Y007781D01*
X008241Y007790D01*
X008290Y007795D01*
X008341Y007796D01*
X008391Y007793D01*
X008440Y007786D01*
X008489Y007775D01*
X008537Y007760D01*
X008583Y007742D01*
X008628Y007720D01*
X008671Y007694D01*
X008712Y007665D01*
X008751Y007633D01*
X008787Y007598D01*
X008819Y007560D01*
X008849Y007520D01*
X008876Y007477D01*
X008899Y007433D01*
X008918Y007387D01*
X008934Y007339D01*
X008946Y007290D01*
X008954Y007241D01*
X008958Y007191D01*
X008958Y007141D01*
X008954Y007091D01*
X008946Y007042D01*
X008934Y006993D01*
X008918Y006945D01*
X008899Y006899D01*
X008876Y006855D01*
X008849Y006812D01*
X008819Y006772D01*
X008787Y006734D01*
X008751Y006699D01*
X008712Y006667D01*
X008671Y006638D01*
X008628Y006612D01*
X008583Y006590D01*
X008537Y006572D01*
X008489Y006557D01*
X008440Y006546D01*
X008391Y006539D01*
X008341Y006536D01*
X008290Y006537D01*
X008241Y006542D01*
X008191Y006551D01*
X008143Y006564D01*
X008096Y006580D01*
X008050Y006601D01*
X008006Y006625D01*
X007964Y006652D01*
X007924Y006682D01*
X007887Y006716D01*
X007853Y006753D01*
X007821Y006792D01*
X007793Y006833D01*
X007768Y006877D01*
X007747Y006922D01*
X007730Y006969D01*
X007716Y007017D01*
X007706Y007066D01*
X007700Y007116D01*
X007698Y007166D01*
X009608Y005040D02*
X009610Y005059D01*
X009615Y005078D01*
X009625Y005094D01*
X009637Y005109D01*
X009652Y005121D01*
X009668Y005131D01*
X009687Y005136D01*
X009706Y005138D01*
X009725Y005136D01*
X009744Y005131D01*
X009760Y005121D01*
X009775Y005109D01*
X009787Y005094D01*
X009797Y005078D01*
X009802Y005059D01*
X009804Y005040D01*
X009802Y005021D01*
X009797Y005002D01*
X009787Y004986D01*
X009775Y004971D01*
X009760Y004959D01*
X009744Y004949D01*
X009725Y004944D01*
X009706Y004942D01*
X009687Y004944D01*
X009668Y004949D01*
X009652Y004959D01*
X009637Y004971D01*
X009625Y004986D01*
X009615Y005002D01*
X009610Y005021D01*
X009608Y005040D01*
X010494Y005434D02*
X010496Y005453D01*
X010501Y005472D01*
X010511Y005488D01*
X010523Y005503D01*
X010538Y005515D01*
X010554Y005525D01*
X010573Y005530D01*
X010592Y005532D01*
X010611Y005530D01*
X010630Y005525D01*
X010646Y005515D01*
X010661Y005503D01*
X010673Y005488D01*
X010683Y005472D01*
X010688Y005453D01*
X010690Y005434D01*
X010688Y005415D01*
X010683Y005396D01*
X010673Y005380D01*
X010661Y005365D01*
X010646Y005353D01*
X010630Y005343D01*
X010611Y005338D01*
X010592Y005336D01*
X010573Y005338D01*
X010554Y005343D01*
X010538Y005353D01*
X010523Y005365D01*
X010511Y005380D01*
X010501Y005396D01*
X010496Y005415D01*
X010494Y005434D01*
X011478Y005040D02*
X011480Y005059D01*
X011485Y005078D01*
X011495Y005094D01*
X011507Y005109D01*
X011522Y005121D01*
X011538Y005131D01*
X011557Y005136D01*
X011576Y005138D01*
X011595Y005136D01*
X011614Y005131D01*
X011630Y005121D01*
X011645Y005109D01*
X011657Y005094D01*
X011667Y005078D01*
X011672Y005059D01*
X011674Y005040D01*
X011672Y005021D01*
X011667Y005002D01*
X011657Y004986D01*
X011645Y004971D01*
X011630Y004959D01*
X011614Y004949D01*
X011595Y004944D01*
X011576Y004942D01*
X011557Y004944D01*
X011538Y004949D01*
X011522Y004959D01*
X011507Y004971D01*
X011495Y004986D01*
X011485Y005002D01*
X011480Y005021D01*
X011478Y005040D01*
X011872Y004056D02*
X011874Y004075D01*
X011879Y004094D01*
X011889Y004110D01*
X011901Y004125D01*
X011916Y004137D01*
X011932Y004147D01*
X011951Y004152D01*
X011970Y004154D01*
X011989Y004152D01*
X012008Y004147D01*
X012024Y004137D01*
X012039Y004125D01*
X012051Y004110D01*
X012061Y004094D01*
X012066Y004075D01*
X012068Y004056D01*
X012066Y004037D01*
X012061Y004018D01*
X012051Y004002D01*
X012039Y003987D01*
X012024Y003975D01*
X012008Y003965D01*
X011989Y003960D01*
X011970Y003958D01*
X011951Y003960D01*
X011932Y003965D01*
X011916Y003975D01*
X011901Y003987D01*
X011889Y004002D01*
X011879Y004018D01*
X011874Y004037D01*
X011872Y004056D01*
X011478Y003072D02*
X011480Y003091D01*
X011485Y003110D01*
X011495Y003126D01*
X011507Y003141D01*
X011522Y003153D01*
X011538Y003163D01*
X011557Y003168D01*
X011576Y003170D01*
X011595Y003168D01*
X011614Y003163D01*
X011630Y003153D01*
X011645Y003141D01*
X011657Y003126D01*
X011667Y003110D01*
X011672Y003091D01*
X011674Y003072D01*
X011672Y003053D01*
X011667Y003034D01*
X011657Y003018D01*
X011645Y003003D01*
X011630Y002991D01*
X011614Y002981D01*
X011595Y002976D01*
X011576Y002974D01*
X011557Y002976D01*
X011538Y002981D01*
X011522Y002991D01*
X011507Y003003D01*
X011495Y003018D01*
X011485Y003034D01*
X011480Y003053D01*
X011478Y003072D01*
X010494Y002678D02*
X010496Y002697D01*
X010501Y002716D01*
X010511Y002732D01*
X010523Y002747D01*
X010538Y002759D01*
X010554Y002769D01*
X010573Y002774D01*
X010592Y002776D01*
X010611Y002774D01*
X010630Y002769D01*
X010646Y002759D01*
X010661Y002747D01*
X010673Y002732D01*
X010683Y002716D01*
X010688Y002697D01*
X010690Y002678D01*
X010688Y002659D01*
X010683Y002640D01*
X010673Y002624D01*
X010661Y002609D01*
X010646Y002597D01*
X010630Y002587D01*
X010611Y002582D01*
X010592Y002580D01*
X010573Y002582D01*
X010554Y002587D01*
X010538Y002597D01*
X010523Y002609D01*
X010511Y002624D01*
X010501Y002640D01*
X010496Y002659D01*
X010494Y002678D01*
X009510Y003072D02*
X009512Y003091D01*
X009517Y003110D01*
X009527Y003126D01*
X009539Y003141D01*
X009554Y003153D01*
X009570Y003163D01*
X009589Y003168D01*
X009608Y003170D01*
X009627Y003168D01*
X009646Y003163D01*
X009662Y003153D01*
X009677Y003141D01*
X009689Y003126D01*
X009699Y003110D01*
X009704Y003091D01*
X009706Y003072D01*
X009704Y003053D01*
X009699Y003034D01*
X009689Y003018D01*
X009677Y003003D01*
X009662Y002991D01*
X009646Y002981D01*
X009627Y002976D01*
X009608Y002974D01*
X009589Y002976D01*
X009570Y002981D01*
X009554Y002991D01*
X009539Y003003D01*
X009527Y003018D01*
X009517Y003034D01*
X009512Y003053D01*
X009510Y003072D01*
X009116Y004056D02*
X009118Y004075D01*
X009123Y004094D01*
X009133Y004110D01*
X009145Y004125D01*
X009160Y004137D01*
X009176Y004147D01*
X009195Y004152D01*
X009214Y004154D01*
X009233Y004152D01*
X009252Y004147D01*
X009268Y004137D01*
X009283Y004125D01*
X009295Y004110D01*
X009305Y004094D01*
X009310Y004075D01*
X009312Y004056D01*
X009310Y004037D01*
X009305Y004018D01*
X009295Y004002D01*
X009283Y003987D01*
X009268Y003975D01*
X009252Y003965D01*
X009233Y003960D01*
X009214Y003958D01*
X009195Y003960D01*
X009176Y003965D01*
X009160Y003975D01*
X009145Y003987D01*
X009133Y004002D01*
X009123Y004018D01*
X009118Y004037D01*
X009116Y004056D01*
X016596Y004056D02*
X016598Y004075D01*
X016603Y004094D01*
X016613Y004110D01*
X016625Y004125D01*
X016640Y004137D01*
X016656Y004147D01*
X016675Y004152D01*
X016694Y004154D01*
X016713Y004152D01*
X016732Y004147D01*
X016748Y004137D01*
X016763Y004125D01*
X016775Y004110D01*
X016785Y004094D01*
X016790Y004075D01*
X016792Y004056D01*
X016790Y004037D01*
X016785Y004018D01*
X016775Y004002D01*
X016763Y003987D01*
X016748Y003975D01*
X016732Y003965D01*
X016713Y003960D01*
X016694Y003958D01*
X016675Y003960D01*
X016656Y003965D01*
X016640Y003975D01*
X016625Y003987D01*
X016613Y004002D01*
X016603Y004018D01*
X016598Y004037D01*
X016596Y004056D01*
X016990Y003072D02*
X016992Y003091D01*
X016997Y003110D01*
X017007Y003126D01*
X017019Y003141D01*
X017034Y003153D01*
X017050Y003163D01*
X017069Y003168D01*
X017088Y003170D01*
X017107Y003168D01*
X017126Y003163D01*
X017142Y003153D01*
X017157Y003141D01*
X017169Y003126D01*
X017179Y003110D01*
X017184Y003091D01*
X017186Y003072D01*
X017184Y003053D01*
X017179Y003034D01*
X017169Y003018D01*
X017157Y003003D01*
X017142Y002991D01*
X017126Y002981D01*
X017107Y002976D01*
X017088Y002974D01*
X017069Y002976D01*
X017050Y002981D01*
X017034Y002991D01*
X017019Y003003D01*
X017007Y003018D01*
X016997Y003034D01*
X016992Y003053D01*
X016990Y003072D01*
X017974Y002678D02*
X017976Y002697D01*
X017981Y002716D01*
X017991Y002732D01*
X018003Y002747D01*
X018018Y002759D01*
X018034Y002769D01*
X018053Y002774D01*
X018072Y002776D01*
X018091Y002774D01*
X018110Y002769D01*
X018126Y002759D01*
X018141Y002747D01*
X018153Y002732D01*
X018163Y002716D01*
X018168Y002697D01*
X018170Y002678D01*
X018168Y002659D01*
X018163Y002640D01*
X018153Y002624D01*
X018141Y002609D01*
X018126Y002597D01*
X018110Y002587D01*
X018091Y002582D01*
X018072Y002580D01*
X018053Y002582D01*
X018034Y002587D01*
X018018Y002597D01*
X018003Y002609D01*
X017991Y002624D01*
X017981Y002640D01*
X017976Y002659D01*
X017974Y002678D01*
X018958Y003072D02*
X018960Y003091D01*
X018965Y003110D01*
X018975Y003126D01*
X018987Y003141D01*
X019002Y003153D01*
X019018Y003163D01*
X019037Y003168D01*
X019056Y003170D01*
X019075Y003168D01*
X019094Y003163D01*
X019110Y003153D01*
X019125Y003141D01*
X019137Y003126D01*
X019147Y003110D01*
X019152Y003091D01*
X019154Y003072D01*
X019152Y003053D01*
X019147Y003034D01*
X019137Y003018D01*
X019125Y003003D01*
X019110Y002991D01*
X019094Y002981D01*
X019075Y002976D01*
X019056Y002974D01*
X019037Y002976D01*
X019018Y002981D01*
X019002Y002991D01*
X018987Y003003D01*
X018975Y003018D01*
X018965Y003034D01*
X018960Y003053D01*
X018958Y003072D01*
X019352Y004056D02*
X019354Y004075D01*
X019359Y004094D01*
X019369Y004110D01*
X019381Y004125D01*
X019396Y004137D01*
X019412Y004147D01*
X019431Y004152D01*
X019450Y004154D01*
X019469Y004152D01*
X019488Y004147D01*
X019504Y004137D01*
X019519Y004125D01*
X019531Y004110D01*
X019541Y004094D01*
X019546Y004075D01*
X019548Y004056D01*
X019546Y004037D01*
X019541Y004018D01*
X019531Y004002D01*
X019519Y003987D01*
X019504Y003975D01*
X019488Y003965D01*
X019469Y003960D01*
X019450Y003958D01*
X019431Y003960D01*
X019412Y003965D01*
X019396Y003975D01*
X019381Y003987D01*
X019369Y004002D01*
X019359Y004018D01*
X019354Y004037D01*
X019352Y004056D01*
X018958Y005040D02*
X018960Y005059D01*
X018965Y005078D01*
X018975Y005094D01*
X018987Y005109D01*
X019002Y005121D01*
X019018Y005131D01*
X019037Y005136D01*
X019056Y005138D01*
X019075Y005136D01*
X019094Y005131D01*
X019110Y005121D01*
X019125Y005109D01*
X019137Y005094D01*
X019147Y005078D01*
X019152Y005059D01*
X019154Y005040D01*
X019152Y005021D01*
X019147Y005002D01*
X019137Y004986D01*
X019125Y004971D01*
X019110Y004959D01*
X019094Y004949D01*
X019075Y004944D01*
X019056Y004942D01*
X019037Y004944D01*
X019018Y004949D01*
X019002Y004959D01*
X018987Y004971D01*
X018975Y004986D01*
X018965Y005002D01*
X018960Y005021D01*
X018958Y005040D01*
X017974Y005434D02*
X017976Y005453D01*
X017981Y005472D01*
X017991Y005488D01*
X018003Y005503D01*
X018018Y005515D01*
X018034Y005525D01*
X018053Y005530D01*
X018072Y005532D01*
X018091Y005530D01*
X018110Y005525D01*
X018126Y005515D01*
X018141Y005503D01*
X018153Y005488D01*
X018163Y005472D01*
X018168Y005453D01*
X018170Y005434D01*
X018168Y005415D01*
X018163Y005396D01*
X018153Y005380D01*
X018141Y005365D01*
X018126Y005353D01*
X018110Y005343D01*
X018091Y005338D01*
X018072Y005336D01*
X018053Y005338D01*
X018034Y005343D01*
X018018Y005353D01*
X018003Y005365D01*
X017991Y005380D01*
X017981Y005396D01*
X017976Y005415D01*
X017974Y005434D01*
X017088Y005040D02*
X017090Y005059D01*
X017095Y005078D01*
X017105Y005094D01*
X017117Y005109D01*
X017132Y005121D01*
X017148Y005131D01*
X017167Y005136D01*
X017186Y005138D01*
X017205Y005136D01*
X017224Y005131D01*
X017240Y005121D01*
X017255Y005109D01*
X017267Y005094D01*
X017277Y005078D01*
X017282Y005059D01*
X017284Y005040D01*
X017282Y005021D01*
X017277Y005002D01*
X017267Y004986D01*
X017255Y004971D01*
X017240Y004959D01*
X017224Y004949D01*
X017205Y004944D01*
X017186Y004942D01*
X017167Y004944D01*
X017148Y004949D01*
X017132Y004959D01*
X017117Y004971D01*
X017105Y004986D01*
X017095Y005002D01*
X017090Y005021D01*
X017088Y005040D01*
X019706Y007166D02*
X019708Y007216D01*
X019714Y007266D01*
X019724Y007315D01*
X019738Y007363D01*
X019755Y007410D01*
X019776Y007455D01*
X019801Y007499D01*
X019829Y007540D01*
X019861Y007579D01*
X019895Y007616D01*
X019932Y007650D01*
X019972Y007680D01*
X020014Y007707D01*
X020058Y007731D01*
X020104Y007752D01*
X020151Y007768D01*
X020199Y007781D01*
X020249Y007790D01*
X020298Y007795D01*
X020349Y007796D01*
X020399Y007793D01*
X020448Y007786D01*
X020497Y007775D01*
X020545Y007760D01*
X020591Y007742D01*
X020636Y007720D01*
X020679Y007694D01*
X020720Y007665D01*
X020759Y007633D01*
X020795Y007598D01*
X020827Y007560D01*
X020857Y007520D01*
X020884Y007477D01*
X020907Y007433D01*
X020926Y007387D01*
X020942Y007339D01*
X020954Y007290D01*
X020962Y007241D01*
X020966Y007191D01*
X020966Y007141D01*
X020962Y007091D01*
X020954Y007042D01*
X020942Y006993D01*
X020926Y006945D01*
X020907Y006899D01*
X020884Y006855D01*
X020857Y006812D01*
X020827Y006772D01*
X020795Y006734D01*
X020759Y006699D01*
X020720Y006667D01*
X020679Y006638D01*
X020636Y006612D01*
X020591Y006590D01*
X020545Y006572D01*
X020497Y006557D01*
X020448Y006546D01*
X020399Y006539D01*
X020349Y006536D01*
X020298Y006537D01*
X020249Y006542D01*
X020199Y006551D01*
X020151Y006564D01*
X020104Y006580D01*
X020058Y006601D01*
X020014Y006625D01*
X019972Y006652D01*
X019932Y006682D01*
X019895Y006716D01*
X019861Y006753D01*
X019829Y006792D01*
X019801Y006833D01*
X019776Y006877D01*
X019755Y006922D01*
X019738Y006969D01*
X019724Y007017D01*
X019714Y007066D01*
X019708Y007116D01*
X019706Y007166D01*
X014253Y017048D02*
X014255Y017066D01*
X014261Y017082D01*
X014270Y017097D01*
X014283Y017110D01*
X014298Y017119D01*
X014314Y017125D01*
X014332Y017127D01*
X014350Y017125D01*
X014366Y017119D01*
X014381Y017110D01*
X014394Y017097D01*
X014403Y017082D01*
X014409Y017066D01*
X014411Y017048D01*
X014409Y017030D01*
X014403Y017014D01*
X014394Y016999D01*
X014381Y016986D01*
X014366Y016977D01*
X014350Y016971D01*
X014332Y016969D01*
X014314Y016971D01*
X014298Y016977D01*
X014283Y016986D01*
X014270Y016999D01*
X014261Y017014D01*
X014255Y017030D01*
X014253Y017048D01*
X007698Y026930D02*
X007700Y026980D01*
X007706Y027030D01*
X007716Y027079D01*
X007730Y027127D01*
X007747Y027174D01*
X007768Y027219D01*
X007793Y027263D01*
X007821Y027304D01*
X007853Y027343D01*
X007887Y027380D01*
X007924Y027414D01*
X007964Y027444D01*
X008006Y027471D01*
X008050Y027495D01*
X008096Y027516D01*
X008143Y027532D01*
X008191Y027545D01*
X008241Y027554D01*
X008290Y027559D01*
X008341Y027560D01*
X008391Y027557D01*
X008440Y027550D01*
X008489Y027539D01*
X008537Y027524D01*
X008583Y027506D01*
X008628Y027484D01*
X008671Y027458D01*
X008712Y027429D01*
X008751Y027397D01*
X008787Y027362D01*
X008819Y027324D01*
X008849Y027284D01*
X008876Y027241D01*
X008899Y027197D01*
X008918Y027151D01*
X008934Y027103D01*
X008946Y027054D01*
X008954Y027005D01*
X008958Y026955D01*
X008958Y026905D01*
X008954Y026855D01*
X008946Y026806D01*
X008934Y026757D01*
X008918Y026709D01*
X008899Y026663D01*
X008876Y026619D01*
X008849Y026576D01*
X008819Y026536D01*
X008787Y026498D01*
X008751Y026463D01*
X008712Y026431D01*
X008671Y026402D01*
X008628Y026376D01*
X008583Y026354D01*
X008537Y026336D01*
X008489Y026321D01*
X008440Y026310D01*
X008391Y026303D01*
X008341Y026300D01*
X008290Y026301D01*
X008241Y026306D01*
X008191Y026315D01*
X008143Y026328D01*
X008096Y026344D01*
X008050Y026365D01*
X008006Y026389D01*
X007964Y026416D01*
X007924Y026446D01*
X007887Y026480D01*
X007853Y026517D01*
X007821Y026556D01*
X007793Y026597D01*
X007768Y026641D01*
X007747Y026686D01*
X007730Y026733D01*
X007716Y026781D01*
X007706Y026830D01*
X007700Y026880D01*
X007698Y026930D01*
X019706Y026930D02*
X019708Y026980D01*
X019714Y027030D01*
X019724Y027079D01*
X019738Y027127D01*
X019755Y027174D01*
X019776Y027219D01*
X019801Y027263D01*
X019829Y027304D01*
X019861Y027343D01*
X019895Y027380D01*
X019932Y027414D01*
X019972Y027444D01*
X020014Y027471D01*
X020058Y027495D01*
X020104Y027516D01*
X020151Y027532D01*
X020199Y027545D01*
X020249Y027554D01*
X020298Y027559D01*
X020349Y027560D01*
X020399Y027557D01*
X020448Y027550D01*
X020497Y027539D01*
X020545Y027524D01*
X020591Y027506D01*
X020636Y027484D01*
X020679Y027458D01*
X020720Y027429D01*
X020759Y027397D01*
X020795Y027362D01*
X020827Y027324D01*
X020857Y027284D01*
X020884Y027241D01*
X020907Y027197D01*
X020926Y027151D01*
X020942Y027103D01*
X020954Y027054D01*
X020962Y027005D01*
X020966Y026955D01*
X020966Y026905D01*
X020962Y026855D01*
X020954Y026806D01*
X020942Y026757D01*
X020926Y026709D01*
X020907Y026663D01*
X020884Y026619D01*
X020857Y026576D01*
X020827Y026536D01*
X020795Y026498D01*
X020759Y026463D01*
X020720Y026431D01*
X020679Y026402D01*
X020636Y026376D01*
X020591Y026354D01*
X020545Y026336D01*
X020497Y026321D01*
X020448Y026310D01*
X020399Y026303D01*
X020349Y026300D01*
X020298Y026301D01*
X020249Y026306D01*
X020199Y026315D01*
X020151Y026328D01*
X020104Y026344D01*
X020058Y026365D01*
X020014Y026389D01*
X019972Y026416D01*
X019932Y026446D01*
X019895Y026480D01*
X019861Y026517D01*
X019829Y026556D01*
X019801Y026597D01*
X019776Y026641D01*
X019755Y026686D01*
X019738Y026733D01*
X019724Y026781D01*
X019714Y026830D01*
X019708Y026880D01*
X019706Y026930D01*
D11*
X012442Y020985D03*
X012442Y020198D03*
X012442Y019410D03*
X011694Y019410D03*
X011694Y020198D03*
X011694Y020985D03*
X010139Y020119D03*
X009391Y020119D03*
X007816Y022560D03*
X007068Y022560D03*
X007068Y023741D03*
X007816Y023741D03*
X006734Y020198D03*
X006734Y019410D03*
X005986Y019410D03*
X005986Y020198D03*
X005986Y018623D03*
X005986Y017835D03*
X006734Y017835D03*
X006734Y018623D03*
X006832Y015473D03*
X006084Y015473D03*
X011694Y016261D03*
X012442Y016261D03*
X012442Y018623D03*
X011694Y018623D03*
X020651Y016654D03*
X021399Y016654D03*
D12*
X018663Y017658D03*
X018663Y018406D03*
X017875Y018406D03*
X017875Y017658D03*
X017088Y019430D03*
X017088Y020178D03*
X016301Y020178D03*
X016301Y019430D03*
X015513Y019430D03*
X015513Y020178D03*
X015513Y021005D03*
X015513Y021753D03*
X016301Y021753D03*
X016301Y021005D03*
X017088Y022186D03*
X017088Y022934D03*
X017875Y022973D03*
X017875Y023721D03*
X016301Y023721D03*
X016301Y022973D03*
X011182Y023761D03*
X011182Y024509D03*
X008623Y024509D03*
X008623Y023761D03*
X005867Y021753D03*
X005867Y021005D03*
X007639Y017914D03*
X007639Y017166D03*
X008426Y017166D03*
X008426Y017914D03*
X009312Y018249D03*
X009312Y018997D03*
X010100Y017914D03*
X010100Y017166D03*
X010887Y017166D03*
X010887Y017914D03*
X013741Y015060D03*
X013741Y014312D03*
X013741Y013288D03*
X013741Y012540D03*
X007836Y013328D03*
X007836Y014076D03*
D13*
X006458Y016261D03*
X006458Y017048D03*
X007836Y018721D03*
X007836Y019509D03*
X012068Y017835D03*
X012068Y017048D03*
X012757Y021772D03*
X012757Y022560D03*
D14*
X010926Y018938D03*
X010100Y018938D03*
X011655Y015473D03*
X012482Y015473D03*
X013919Y015867D03*
X014745Y015867D03*
X019824Y011536D03*
X019824Y010552D03*
X020651Y010552D03*
X020651Y011536D03*
X006871Y014686D03*
X006045Y014686D03*
D15*
X009017Y014115D03*
X009017Y013288D03*
X007442Y020965D03*
X007442Y021792D03*
X006655Y021792D03*
X006655Y020965D03*
X009411Y023721D03*
X009411Y024548D03*
X010395Y024548D03*
X010395Y023721D03*
X017875Y021792D03*
X017875Y020965D03*
X017875Y020217D03*
X017875Y019391D03*
X018663Y019391D03*
X018663Y020217D03*
X018663Y020965D03*
X018663Y021792D03*
D16*
X010334Y021063D03*
X010144Y021063D03*
X009944Y021063D03*
X009744Y021063D03*
X009544Y021063D03*
X009354Y021063D03*
X009354Y022623D03*
X009544Y022623D03*
X009744Y022623D03*
X009944Y022623D03*
X010144Y022623D03*
X010334Y022623D03*
D17*
X010624Y022333D03*
X010624Y022143D03*
X010624Y021943D03*
X010624Y021743D03*
X010624Y021543D03*
X010624Y021353D03*
X009064Y021353D03*
X009064Y021543D03*
X009064Y021743D03*
X009064Y021943D03*
X009064Y022143D03*
X009064Y022333D03*
D18*
X009844Y021833D03*
D19*
X006064Y010355D03*
X022600Y014686D03*
X022600Y022954D03*
D20*
X022049Y020910D03*
X022049Y020410D03*
X022049Y019910D03*
X022049Y019410D03*
X022049Y018910D03*
X022049Y018410D03*
X022049Y017910D03*
X020001Y017910D03*
X020001Y018410D03*
X020001Y018910D03*
X020001Y019410D03*
X020001Y019910D03*
X020001Y020410D03*
X020001Y020910D03*
D21*
X018072Y004056D03*
X010592Y004056D03*
D22*
X009667Y004056D02*
X009669Y004116D01*
X009675Y004177D01*
X009685Y004236D01*
X009699Y004295D01*
X009716Y004353D01*
X009737Y004410D01*
X009762Y004465D01*
X009791Y004518D01*
X009823Y004570D01*
X009858Y004619D01*
X009897Y004666D01*
X009938Y004710D01*
X009982Y004751D01*
X010029Y004790D01*
X010078Y004825D01*
X010129Y004857D01*
X010183Y004886D01*
X010238Y004911D01*
X010295Y004932D01*
X010353Y004949D01*
X010412Y004963D01*
X010471Y004973D01*
X010532Y004979D01*
X010592Y004981D01*
X010652Y004979D01*
X010713Y004973D01*
X010772Y004963D01*
X010831Y004949D01*
X010889Y004932D01*
X010946Y004911D01*
X011001Y004886D01*
X011054Y004857D01*
X011106Y004825D01*
X011155Y004790D01*
X011202Y004751D01*
X011246Y004710D01*
X011287Y004666D01*
X011326Y004619D01*
X011361Y004570D01*
X011393Y004519D01*
X011422Y004465D01*
X011447Y004410D01*
X011468Y004353D01*
X011485Y004295D01*
X011499Y004236D01*
X011509Y004177D01*
X011515Y004116D01*
X011517Y004056D01*
X011515Y003996D01*
X011509Y003935D01*
X011499Y003876D01*
X011485Y003817D01*
X011468Y003759D01*
X011447Y003702D01*
X011422Y003647D01*
X011393Y003594D01*
X011361Y003542D01*
X011326Y003493D01*
X011287Y003446D01*
X011246Y003402D01*
X011202Y003361D01*
X011155Y003322D01*
X011106Y003287D01*
X011055Y003255D01*
X011001Y003226D01*
X010946Y003201D01*
X010889Y003180D01*
X010831Y003163D01*
X010772Y003149D01*
X010713Y003139D01*
X010652Y003133D01*
X010592Y003131D01*
X010532Y003133D01*
X010471Y003139D01*
X010412Y003149D01*
X010353Y003163D01*
X010295Y003180D01*
X010238Y003201D01*
X010183Y003226D01*
X010130Y003255D01*
X010078Y003287D01*
X010029Y003322D01*
X009982Y003361D01*
X009938Y003402D01*
X009897Y003446D01*
X009858Y003493D01*
X009823Y003542D01*
X009791Y003593D01*
X009762Y003647D01*
X009737Y003702D01*
X009716Y003759D01*
X009699Y003817D01*
X009685Y003876D01*
X009675Y003935D01*
X009669Y003996D01*
X009667Y004056D01*
X017147Y004056D02*
X017149Y004116D01*
X017155Y004177D01*
X017165Y004236D01*
X017179Y004295D01*
X017196Y004353D01*
X017217Y004410D01*
X017242Y004465D01*
X017271Y004518D01*
X017303Y004570D01*
X017338Y004619D01*
X017377Y004666D01*
X017418Y004710D01*
X017462Y004751D01*
X017509Y004790D01*
X017558Y004825D01*
X017609Y004857D01*
X017663Y004886D01*
X017718Y004911D01*
X017775Y004932D01*
X017833Y004949D01*
X017892Y004963D01*
X017951Y004973D01*
X018012Y004979D01*
X018072Y004981D01*
X018132Y004979D01*
X018193Y004973D01*
X018252Y004963D01*
X018311Y004949D01*
X018369Y004932D01*
X018426Y004911D01*
X018481Y004886D01*
X018534Y004857D01*
X018586Y004825D01*
X018635Y004790D01*
X018682Y004751D01*
X018726Y004710D01*
X018767Y004666D01*
X018806Y004619D01*
X018841Y004570D01*
X018873Y004519D01*
X018902Y004465D01*
X018927Y004410D01*
X018948Y004353D01*
X018965Y004295D01*
X018979Y004236D01*
X018989Y004177D01*
X018995Y004116D01*
X018997Y004056D01*
X018995Y003996D01*
X018989Y003935D01*
X018979Y003876D01*
X018965Y003817D01*
X018948Y003759D01*
X018927Y003702D01*
X018902Y003647D01*
X018873Y003594D01*
X018841Y003542D01*
X018806Y003493D01*
X018767Y003446D01*
X018726Y003402D01*
X018682Y003361D01*
X018635Y003322D01*
X018586Y003287D01*
X018535Y003255D01*
X018481Y003226D01*
X018426Y003201D01*
X018369Y003180D01*
X018311Y003163D01*
X018252Y003149D01*
X018193Y003139D01*
X018132Y003133D01*
X018072Y003131D01*
X018012Y003133D01*
X017951Y003139D01*
X017892Y003149D01*
X017833Y003163D01*
X017775Y003180D01*
X017718Y003201D01*
X017663Y003226D01*
X017610Y003255D01*
X017558Y003287D01*
X017509Y003322D01*
X017462Y003361D01*
X017418Y003402D01*
X017377Y003446D01*
X017338Y003493D01*
X017303Y003542D01*
X017271Y003593D01*
X017242Y003647D01*
X017217Y003702D01*
X017196Y003759D01*
X017179Y003817D01*
X017165Y003876D01*
X017155Y003935D01*
X017149Y003996D01*
X017147Y004056D01*
D23*
X016332Y024891D03*
X014332Y026891D03*
X012332Y028891D03*
X012332Y024891D03*
X016332Y028891D03*
D24*
X018860Y022954D03*
X015710Y018426D03*
D25*
X013741Y018426D03*
X020828Y022954D03*
D26*
X008820Y010552D03*
D27*
X007820Y010552D03*
D28*
X016875Y015709D03*
X016875Y016709D03*
X017875Y016709D03*
X017875Y015709D03*
X017875Y014709D03*
X018875Y015709D03*
X018875Y016709D03*
D29*
X014832Y017048D03*
X013832Y017048D03*
D30*
X014745Y014231D03*
X014745Y013231D03*
X014745Y012231D03*
X014745Y011231D03*
X014745Y010231D03*
D31*
X014785Y006239D03*
X014785Y005239D03*
X014785Y003239D03*
X014785Y002239D03*
D32*
X008131Y020296D03*
X007265Y020296D03*
X011675Y021733D03*
X011675Y022599D03*
D33*
X009371Y015965D03*
X009115Y015965D03*
X008860Y015965D03*
X008860Y015178D03*
X009115Y015178D03*
X009371Y015178D03*
D34*
X009115Y015572D03*
D35*
X009824Y014135D03*
X010198Y013269D03*
X010572Y014135D03*
D36*
X010198Y011969D03*
X010198Y011103D03*
D37*
X009214Y011930D03*
X007639Y011930D03*
D38*
X009017Y013288D02*
X009155Y013426D01*
X009568Y013426D01*
X009844Y013702D01*
X010297Y013702D01*
X010572Y013977D01*
X010572Y014135D01*
X010001Y015414D02*
X008269Y015414D01*
X008269Y015709D01*
X010001Y015709D01*
X010001Y015414D01*
X010001Y015484D02*
X008269Y015484D01*
X008269Y015583D02*
X010001Y015583D01*
X010001Y015681D02*
X008269Y015681D01*
X009096Y015926D02*
X009096Y017698D01*
X009056Y017757D01*
X007285Y017757D01*
X007285Y018859D01*
X008348Y018859D01*
X008348Y018387D01*
X010572Y018387D01*
X010572Y020257D01*
X010545Y020294D01*
X010545Y020476D01*
X010516Y020505D01*
X010516Y020674D01*
X010399Y020791D01*
X010185Y020791D01*
X010159Y020828D01*
X010159Y021032D01*
X010336Y021032D01*
X010336Y020926D01*
X010679Y020918D01*
X010724Y020810D01*
X010811Y020724D01*
X010924Y020677D01*
X011047Y020677D01*
X011140Y020715D01*
X011182Y020715D01*
X011182Y017757D01*
X009450Y017757D01*
X009391Y017698D01*
X009391Y015926D01*
X009096Y015926D01*
X009096Y015977D02*
X009391Y015977D01*
X009391Y016075D02*
X009096Y016075D01*
X009096Y016174D02*
X009391Y016174D01*
X009391Y016272D02*
X009096Y016272D01*
X009096Y016371D02*
X009391Y016371D01*
X009391Y016469D02*
X009096Y016469D01*
X009096Y016568D02*
X009391Y016568D01*
X009391Y016666D02*
X009096Y016666D01*
X009096Y016765D02*
X009391Y016765D01*
X009391Y016863D02*
X009096Y016863D01*
X009096Y016962D02*
X009391Y016962D01*
X009391Y017060D02*
X009096Y017060D01*
X009096Y017159D02*
X009391Y017159D01*
X009391Y017257D02*
X009096Y017257D01*
X009096Y017356D02*
X009391Y017356D01*
X009391Y017454D02*
X009096Y017454D01*
X009096Y017553D02*
X009391Y017553D01*
X009391Y017651D02*
X009096Y017651D01*
X009061Y017750D02*
X009443Y017750D01*
X009923Y018623D02*
X009923Y020450D01*
X009944Y020471D01*
X009944Y020670D01*
X009962Y020670D01*
X010080Y020591D01*
X010316Y020591D01*
X010316Y018623D01*
X009923Y018623D01*
X009923Y018636D02*
X010316Y018636D01*
X010316Y018735D02*
X009923Y018735D01*
X009923Y018833D02*
X010316Y018833D01*
X010316Y018932D02*
X009923Y018932D01*
X009923Y019030D02*
X010316Y019030D01*
X010316Y019129D02*
X009923Y019129D01*
X009923Y019227D02*
X010316Y019227D01*
X010316Y019326D02*
X009923Y019326D01*
X009923Y019424D02*
X010316Y019424D01*
X010316Y019523D02*
X009923Y019523D01*
X009923Y019621D02*
X010316Y019621D01*
X010316Y019720D02*
X009923Y019720D01*
X009923Y019818D02*
X010316Y019818D01*
X010316Y019917D02*
X009923Y019917D01*
X009923Y020015D02*
X010316Y020015D01*
X010316Y020114D02*
X009923Y020114D01*
X009923Y020212D02*
X010316Y020212D01*
X010316Y020311D02*
X009923Y020311D01*
X009923Y020409D02*
X010316Y020409D01*
X010316Y020508D02*
X009944Y020508D01*
X009944Y020606D02*
X010058Y020606D01*
X010177Y020803D02*
X010731Y020803D01*
X010686Y020902D02*
X010159Y020902D01*
X010159Y020906D02*
X010316Y020906D01*
X010334Y020924D01*
X010334Y021063D01*
X010336Y021000D02*
X010159Y021000D01*
X010144Y021063D02*
X010144Y020921D01*
X010159Y020906D01*
X010486Y020705D02*
X010857Y020705D01*
X011114Y020705D02*
X011182Y020705D01*
X011182Y020606D02*
X010516Y020606D01*
X010516Y020508D02*
X011182Y020508D01*
X011182Y020409D02*
X010545Y020409D01*
X010545Y020311D02*
X011182Y020311D01*
X011182Y020212D02*
X010572Y020212D01*
X010572Y020114D02*
X011182Y020114D01*
X011182Y020015D02*
X010572Y020015D01*
X010572Y019917D02*
X011182Y019917D01*
X011182Y019818D02*
X010572Y019818D01*
X010572Y019720D02*
X011182Y019720D01*
X011182Y019621D02*
X010572Y019621D01*
X010572Y019523D02*
X011182Y019523D01*
X011182Y019424D02*
X010572Y019424D01*
X010572Y019326D02*
X011182Y019326D01*
X011182Y019227D02*
X010572Y019227D01*
X010572Y019129D02*
X011182Y019129D01*
X011182Y019030D02*
X010572Y019030D01*
X010572Y018932D02*
X011182Y018932D01*
X011182Y018833D02*
X010572Y018833D01*
X010572Y018735D02*
X011182Y018735D01*
X011182Y018636D02*
X010572Y018636D01*
X010572Y018538D02*
X011182Y018538D01*
X011182Y018439D02*
X010572Y018439D01*
X011182Y018341D02*
X007285Y018341D01*
X007285Y018439D02*
X008348Y018439D01*
X008348Y018538D02*
X007285Y018538D01*
X007285Y018636D02*
X008348Y018636D01*
X008348Y018735D02*
X007285Y018735D01*
X007285Y018833D02*
X008348Y018833D01*
X008604Y018833D02*
X009424Y018833D01*
X009411Y018820D02*
X009411Y018800D01*
X008604Y018800D01*
X008604Y019856D01*
X009437Y020690D01*
X009442Y020690D01*
X009496Y020748D01*
X009552Y020804D01*
X009552Y020808D01*
X009555Y020811D01*
X009552Y020890D01*
X009552Y020969D01*
X009549Y020972D01*
X009543Y021132D01*
X009745Y021132D01*
X009745Y020871D01*
X009744Y020869D01*
X009744Y020554D01*
X009724Y020534D01*
X009724Y020534D01*
X009665Y020475D01*
X009665Y020421D01*
X009608Y020355D01*
X009608Y019017D01*
X009411Y018820D01*
X009523Y018932D02*
X008604Y018932D01*
X008604Y019030D02*
X009608Y019030D01*
X009608Y019129D02*
X008604Y019129D01*
X008604Y019227D02*
X009608Y019227D01*
X009608Y019326D02*
X008604Y019326D01*
X008604Y019424D02*
X009608Y019424D01*
X009608Y019523D02*
X008604Y019523D01*
X008604Y019621D02*
X009608Y019621D01*
X009608Y019720D02*
X008604Y019720D01*
X008604Y019818D02*
X009608Y019818D01*
X009608Y019917D02*
X008664Y019917D01*
X008763Y020015D02*
X009608Y020015D01*
X009608Y020114D02*
X008861Y020114D01*
X008960Y020212D02*
X009608Y020212D01*
X009608Y020311D02*
X009058Y020311D01*
X009157Y020409D02*
X009655Y020409D01*
X009697Y020508D02*
X009255Y020508D01*
X009354Y020606D02*
X009744Y020606D01*
X009744Y020705D02*
X009455Y020705D01*
X009551Y020803D02*
X009744Y020803D01*
X009745Y020902D02*
X009552Y020902D01*
X009548Y021000D02*
X009745Y021000D01*
X009744Y021063D02*
X009744Y021733D01*
X009844Y021833D01*
X009344Y022333D01*
X009064Y022333D01*
X009064Y021943D02*
X008393Y021943D01*
X007816Y022520D01*
X007816Y022560D01*
X008308Y023249D02*
X007816Y023741D01*
X008426Y023758D02*
X009608Y023758D01*
X009608Y023660D02*
X008426Y023660D01*
X008426Y023583D02*
X008426Y023898D01*
X009608Y023898D01*
X009608Y023177D01*
X009544Y023114D01*
X009544Y022954D01*
X009536Y022954D01*
X009453Y023036D01*
X009336Y023154D01*
X009001Y023154D01*
X008706Y023449D01*
X008702Y023449D01*
X008584Y023583D01*
X008426Y023583D01*
X008604Y023561D02*
X009608Y023561D01*
X009608Y023463D02*
X008690Y023463D01*
X008791Y023364D02*
X009608Y023364D01*
X009608Y023266D02*
X008889Y023266D01*
X008988Y023167D02*
X009597Y023167D01*
X009544Y023155D02*
X009544Y022623D01*
X009354Y022623D02*
X009354Y022853D01*
X009253Y022954D01*
X008919Y022954D01*
X008623Y023249D01*
X008308Y023249D01*
X008623Y023643D02*
X008623Y023761D01*
X008426Y023857D02*
X009608Y023857D01*
X009903Y023190D02*
X009903Y024528D01*
X010375Y024528D01*
X010395Y024548D01*
X011182Y024548D01*
X011182Y024509D01*
X011182Y023761D02*
X011182Y023721D01*
X010395Y023721D01*
X010336Y023662D01*
X010159Y023662D01*
X010159Y023190D01*
X009944Y022975D01*
X009944Y022623D01*
X010144Y022623D02*
X010144Y022761D01*
X010178Y022796D01*
X010159Y022796D02*
X010316Y022796D01*
X010334Y022779D01*
X010334Y022623D01*
X010154Y022710D02*
X010154Y022845D01*
X010144Y022855D01*
X010144Y022892D01*
X010205Y022954D01*
X013348Y022954D01*
X013348Y022520D01*
X011289Y022520D01*
X011270Y022566D01*
X011188Y022647D01*
X011082Y022691D01*
X010967Y022691D01*
X010861Y022647D01*
X010780Y022566D01*
X010771Y022543D01*
X010643Y022543D01*
X010643Y022622D01*
X010556Y022710D01*
X010154Y022710D01*
X010154Y022773D02*
X013348Y022773D01*
X013348Y022675D02*
X011122Y022675D01*
X011260Y022576D02*
X013348Y022576D01*
X013348Y022872D02*
X010144Y022872D01*
X009903Y023190D02*
X009744Y023031D01*
X009744Y022623D01*
X009544Y022970D02*
X009520Y022970D01*
X009544Y023069D02*
X009421Y023069D01*
X010159Y023532D02*
X010159Y023741D01*
X011419Y023741D01*
X011419Y023539D01*
X010420Y023539D01*
X010405Y023532D01*
X010159Y023532D01*
X010159Y023561D02*
X011419Y023561D01*
X011419Y023660D02*
X010159Y023660D01*
X009903Y024528D02*
X009430Y024528D01*
X009411Y024548D01*
X010591Y022675D02*
X010928Y022675D01*
X010790Y022576D02*
X010643Y022576D01*
X010624Y022143D02*
X010845Y022143D01*
X011025Y022324D01*
X011025Y022402D01*
X011182Y022087D02*
X011038Y021943D01*
X010624Y021943D01*
X010624Y021743D02*
X011232Y021743D01*
X011261Y021694D01*
X011576Y021690D02*
X011773Y021690D01*
X011773Y021772D02*
X011576Y021772D01*
X011576Y017737D01*
X011871Y017737D01*
X011871Y021379D01*
X011773Y021576D01*
X011773Y021772D01*
X011773Y021591D02*
X011576Y021591D01*
X011576Y021493D02*
X011814Y021493D01*
X011864Y021394D02*
X011576Y021394D01*
X011576Y021296D02*
X011871Y021296D01*
X011871Y021197D02*
X011576Y021197D01*
X011576Y021099D02*
X011871Y021099D01*
X011871Y021000D02*
X011576Y021000D01*
X011576Y020902D02*
X011871Y020902D01*
X011871Y020803D02*
X011576Y020803D01*
X011576Y020705D02*
X011871Y020705D01*
X011871Y020606D02*
X011576Y020606D01*
X011576Y020508D02*
X011871Y020508D01*
X011871Y020409D02*
X011576Y020409D01*
X011576Y020311D02*
X011871Y020311D01*
X011871Y020212D02*
X011576Y020212D01*
X011576Y020114D02*
X011871Y020114D01*
X011871Y020015D02*
X011576Y020015D01*
X011576Y019917D02*
X011871Y019917D01*
X011871Y019818D02*
X011576Y019818D01*
X011576Y019720D02*
X011871Y019720D01*
X011871Y019621D02*
X011576Y019621D01*
X011576Y019523D02*
X011871Y019523D01*
X011871Y019424D02*
X011576Y019424D01*
X011576Y019326D02*
X011871Y019326D01*
X011871Y019227D02*
X011576Y019227D01*
X011576Y019129D02*
X011871Y019129D01*
X011871Y019030D02*
X011576Y019030D01*
X011576Y018932D02*
X011871Y018932D01*
X011871Y018833D02*
X011576Y018833D01*
X011576Y018735D02*
X011871Y018735D01*
X011871Y018636D02*
X011576Y018636D01*
X011576Y018538D02*
X011871Y018538D01*
X011871Y018439D02*
X011576Y018439D01*
X011576Y018341D02*
X011871Y018341D01*
X011871Y018242D02*
X011576Y018242D01*
X011576Y018144D02*
X011871Y018144D01*
X011871Y018045D02*
X011576Y018045D01*
X011576Y017947D02*
X011871Y017947D01*
X011871Y017848D02*
X011576Y017848D01*
X011576Y017750D02*
X011871Y017750D01*
X012265Y018229D02*
X013249Y018229D01*
X013249Y021871D01*
X012265Y021871D01*
X012265Y018229D01*
X012265Y018242D02*
X013249Y018242D01*
X013249Y018341D02*
X012265Y018341D01*
X012265Y018439D02*
X013249Y018439D01*
X013249Y018538D02*
X012265Y018538D01*
X012265Y018636D02*
X013249Y018636D01*
X013249Y018735D02*
X012265Y018735D01*
X012265Y018833D02*
X013249Y018833D01*
X013249Y018932D02*
X012265Y018932D01*
X012265Y019030D02*
X013249Y019030D01*
X013249Y019129D02*
X012265Y019129D01*
X012265Y019227D02*
X013249Y019227D01*
X013249Y019326D02*
X012265Y019326D01*
X012265Y019424D02*
X013249Y019424D01*
X013249Y019523D02*
X012265Y019523D01*
X012265Y019621D02*
X013249Y019621D01*
X013249Y019720D02*
X012265Y019720D01*
X012265Y019818D02*
X013249Y019818D01*
X013249Y019917D02*
X012265Y019917D01*
X012265Y020015D02*
X013249Y020015D01*
X013249Y020114D02*
X012265Y020114D01*
X012265Y020212D02*
X013249Y020212D01*
X013249Y020311D02*
X012265Y020311D01*
X012265Y020409D02*
X013249Y020409D01*
X013249Y020508D02*
X012265Y020508D01*
X012265Y020606D02*
X013249Y020606D01*
X013249Y020705D02*
X012265Y020705D01*
X012265Y020803D02*
X013249Y020803D01*
X013249Y020902D02*
X012265Y020902D01*
X012265Y021000D02*
X013249Y021000D01*
X013249Y021099D02*
X012265Y021099D01*
X012265Y021197D02*
X013249Y021197D01*
X013249Y021296D02*
X012265Y021296D01*
X012265Y021394D02*
X013249Y021394D01*
X013249Y021493D02*
X012265Y021493D01*
X012265Y021591D02*
X013249Y021591D01*
X013249Y021690D02*
X012265Y021690D01*
X012265Y021788D02*
X013249Y021788D01*
X011025Y021379D02*
X010860Y021543D01*
X010624Y021543D01*
X009745Y021099D02*
X009544Y021099D01*
X009547Y021063D02*
X009547Y021733D01*
X009064Y021543D02*
X008788Y021543D01*
X007678Y020434D01*
X006950Y020434D01*
X006930Y020414D01*
X006930Y020394D01*
X006734Y020198D01*
X006537Y020212D02*
X007403Y020212D01*
X007403Y020119D02*
X007403Y020434D01*
X007403Y020335D01*
X007265Y020296D01*
X007403Y020311D02*
X006537Y020311D01*
X006537Y020409D02*
X007403Y020409D01*
X007403Y020434D02*
X006537Y020434D01*
X006537Y016969D01*
X006930Y016969D01*
X006930Y019804D01*
X007167Y020040D01*
X007324Y020040D01*
X007403Y020119D01*
X007398Y020114D02*
X006537Y020114D01*
X006537Y020015D02*
X007142Y020015D01*
X007043Y019917D02*
X006537Y019917D01*
X006537Y019818D02*
X006945Y019818D01*
X006930Y019720D02*
X006537Y019720D01*
X006537Y019621D02*
X006930Y019621D01*
X006930Y019523D02*
X006537Y019523D01*
X006537Y019424D02*
X006930Y019424D01*
X006930Y019326D02*
X006537Y019326D01*
X006537Y019227D02*
X006930Y019227D01*
X006930Y019129D02*
X006537Y019129D01*
X006537Y019030D02*
X006930Y019030D01*
X006930Y018932D02*
X006537Y018932D01*
X006537Y018833D02*
X006930Y018833D01*
X006930Y018735D02*
X006537Y018735D01*
X006537Y018636D02*
X006930Y018636D01*
X006930Y018538D02*
X006537Y018538D01*
X006537Y018439D02*
X006930Y018439D01*
X006930Y018341D02*
X006537Y018341D01*
X006537Y018242D02*
X006930Y018242D01*
X006930Y018144D02*
X006537Y018144D01*
X006537Y018045D02*
X006930Y018045D01*
X006930Y017947D02*
X006537Y017947D01*
X006537Y017848D02*
X006930Y017848D01*
X006930Y017750D02*
X006537Y017750D01*
X006537Y017651D02*
X006930Y017651D01*
X006930Y017553D02*
X006537Y017553D01*
X006537Y017454D02*
X006930Y017454D01*
X006930Y017356D02*
X006537Y017356D01*
X006537Y017257D02*
X006930Y017257D01*
X006930Y017159D02*
X006537Y017159D01*
X006537Y017060D02*
X006930Y017060D01*
X007285Y017848D02*
X011182Y017848D01*
X011182Y017947D02*
X007285Y017947D01*
X007285Y018045D02*
X011182Y018045D01*
X011182Y018144D02*
X007285Y018144D01*
X007285Y018242D02*
X011182Y018242D01*
X009071Y020606D02*
X008133Y020606D01*
X008035Y020508D02*
X008973Y020508D01*
X008874Y020409D02*
X007936Y020409D01*
X007878Y020351D02*
X008252Y020725D01*
X008873Y021333D01*
X009064Y021333D01*
X009064Y021120D01*
X009152Y021032D01*
X009334Y021032D01*
X009334Y020869D01*
X008348Y019883D01*
X008348Y019410D01*
X007324Y019410D01*
X007324Y019840D01*
X007407Y019840D01*
X007524Y019957D01*
X007603Y020036D01*
X007603Y020234D01*
X007761Y020234D01*
X007878Y020351D01*
X007878Y020351D01*
X007838Y020311D02*
X008776Y020311D01*
X008677Y020212D02*
X007603Y020212D01*
X007603Y020114D02*
X008579Y020114D01*
X008480Y020015D02*
X007582Y020015D01*
X007483Y019917D02*
X008382Y019917D01*
X008348Y019818D02*
X007324Y019818D01*
X007324Y019720D02*
X008348Y019720D01*
X008348Y019621D02*
X007324Y019621D01*
X007324Y019523D02*
X008348Y019523D01*
X008348Y019424D02*
X007324Y019424D01*
X008232Y020705D02*
X009170Y020705D01*
X009268Y020803D02*
X008332Y020803D01*
X008432Y020902D02*
X009334Y020902D01*
X009334Y021000D02*
X008533Y021000D01*
X008633Y021099D02*
X009085Y021099D01*
X009017Y021083D02*
X009115Y020985D01*
X009276Y020985D01*
X009354Y021063D01*
X009064Y021197D02*
X008734Y021197D01*
X008834Y021296D02*
X009064Y021296D01*
X009064Y021327D02*
X009017Y021280D01*
X009017Y021083D01*
X009064Y021327D02*
X009064Y021353D01*
X006655Y021792D02*
X006419Y021753D01*
X008446Y014115D02*
X008426Y014095D01*
X008446Y014115D02*
X009017Y014115D01*
X016241Y021753D02*
X016222Y021772D01*
X016241Y021753D02*
X016301Y021753D01*
X016332Y024891D02*
X016301Y024922D01*
X016301Y028859D02*
X016332Y028891D01*
X012364Y028859D02*
X012332Y028891D01*
X012364Y024922D02*
X012332Y024891D01*
D39*
X011222Y023741D02*
X011182Y023761D01*
X009411Y023721D02*
X009371Y023761D01*
X008623Y022855D02*
X008426Y023052D01*
X008131Y023052D01*
X008033Y023150D01*
X007049Y023150D01*
X007442Y021792D02*
X007491Y021743D01*
X009064Y021743D01*
X009064Y022333D02*
X008751Y022333D01*
X008623Y022461D01*
X009744Y021063D02*
X009744Y020649D01*
X009371Y020276D01*
X009944Y020314D02*
X009944Y021063D01*
X009944Y020314D02*
X010139Y020119D01*
X008190Y015473D02*
X008190Y014922D01*
X008899Y014922D01*
X008860Y014961D01*
X008860Y015178D01*
X009115Y015178D02*
X009115Y014922D01*
X008899Y014922D01*
X020001Y019410D02*
X020533Y019410D01*
X020730Y019213D01*
X020730Y016733D01*
X020651Y016654D01*
X021320Y016733D02*
X021399Y016654D01*
X021320Y016733D02*
X021320Y019213D01*
X021517Y019410D01*
X022049Y019410D01*
D40*
X022797Y018918D03*
X022797Y019902D03*
X021025Y019804D03*
X021025Y021379D03*
X019253Y020099D03*
X019253Y017639D03*
X021025Y018229D03*
X023387Y016261D03*
X021419Y013505D03*
X020631Y014686D03*
X019076Y013229D03*
X021222Y011536D03*
X021222Y010552D03*
X021025Y009961D03*
X018663Y009961D03*
X016104Y009961D03*
X016694Y013898D03*
X016202Y015080D03*
X014726Y015178D03*
X013052Y015080D03*
X013052Y015473D03*
X013052Y015867D03*
X013052Y016261D03*
X013052Y016654D03*
X013052Y017442D03*
X013052Y018623D03*
X013052Y019017D03*
X013052Y019410D03*
X013052Y019804D03*
X013052Y020198D03*
X013052Y020591D03*
X013052Y020985D03*
X013446Y020985D03*
X013840Y020985D03*
X013840Y021772D03*
X013840Y022560D03*
X013840Y023347D03*
X013052Y023347D03*
X012344Y023347D03*
X011773Y023741D03*
X010789Y025316D03*
X010001Y025316D03*
X008623Y022678D03*
X007836Y024528D03*
X007049Y024331D03*
X006458Y023741D03*
X007049Y023150D03*
X006458Y022560D03*
X005277Y022560D03*
X005277Y021379D03*
X005277Y020198D03*
X005277Y019804D03*
X005277Y019410D03*
X005277Y019017D03*
X005277Y018623D03*
X005277Y018229D03*
X005277Y017835D03*
X005277Y016851D03*
X005277Y015867D03*
X005277Y015473D03*
X005277Y015080D03*
X005277Y014686D03*
X005277Y014292D03*
X005277Y013505D03*
X005277Y012324D03*
X005277Y011143D03*
X005277Y009961D03*
X010001Y009961D03*
X012364Y009961D03*
X012364Y014686D03*
X010986Y016457D03*
X010592Y016457D03*
X010198Y016457D03*
X009804Y016457D03*
X008623Y016457D03*
X008230Y016457D03*
X007836Y016457D03*
X007442Y016457D03*
X008741Y019017D03*
X008741Y019410D03*
X008741Y019784D03*
X009096Y019568D03*
X009470Y019568D03*
X010119Y019528D03*
X010986Y020985D03*
X005277Y025709D03*
X005277Y028859D03*
X008426Y032009D03*
X020238Y032009D03*
X023387Y029253D03*
X023387Y026103D03*
X023387Y013111D03*
X023387Y009961D03*
D41*
X019253Y017639D02*
X018486Y017639D01*
X018663Y017658D01*
X019253Y017639D02*
X019525Y017910D01*
X020001Y017910D01*
X020001Y018410D02*
X018667Y018410D01*
X018663Y018406D01*
X018663Y019391D02*
X017875Y019391D01*
X017482Y018918D02*
X017285Y019115D01*
X017285Y019233D01*
X017088Y019430D01*
X017482Y018918D02*
X019993Y018918D01*
X020001Y018910D01*
X020001Y019910D02*
X019556Y019910D01*
X019037Y019391D01*
X018663Y019391D01*
X018663Y020217D02*
X019135Y020217D01*
X019253Y020099D01*
X019533Y020410D02*
X018958Y020985D01*
X018682Y020985D01*
X018663Y020965D01*
X018663Y021792D02*
X018840Y021792D01*
X019722Y020910D01*
X020001Y020910D01*
X020001Y020410D02*
X019533Y020410D01*
X021025Y021379D02*
X021025Y018229D01*
X022049Y018410D02*
X022576Y018410D01*
X022678Y018308D01*
X022678Y017993D01*
X022596Y017910D01*
X022049Y017910D01*
X022049Y018910D02*
X023281Y018910D01*
X023190Y018623D01*
X022576Y020410D02*
X022049Y020410D01*
X022049Y020910D02*
X022596Y020910D01*
X022678Y020828D01*
X022678Y020513D01*
X022576Y020410D01*
X018860Y022954D02*
X017895Y022954D01*
X017875Y022973D01*
X017875Y021792D02*
X017875Y021694D01*
X017304Y021694D01*
X017088Y021477D01*
X017088Y021694D02*
X016222Y021694D01*
X016222Y021772D01*
X016222Y021792D01*
X017127Y020217D02*
X017088Y020178D01*
X017127Y020217D02*
X017875Y020217D01*
X011773Y023741D02*
X011222Y023741D01*
X008623Y022855D02*
X008623Y022461D01*
X007068Y022560D02*
X007049Y022580D01*
X007049Y023150D02*
X007068Y023170D01*
X009371Y015178D02*
X009371Y014765D01*
X009293Y014686D01*
X008623Y014686D01*
X008426Y014489D01*
X008426Y014095D01*
X008426Y013505D01*
X008249Y013328D01*
X007836Y013328D01*
X007836Y012914D01*
X007639Y012717D01*
X007639Y011930D01*
D42*
X006709Y012033D02*
X004769Y012033D01*
X004769Y012271D02*
X006709Y012271D01*
X006709Y012490D02*
X006709Y011370D01*
X006760Y011245D01*
X006905Y011100D01*
X006905Y009894D01*
X006957Y009769D01*
X007053Y009673D01*
X007178Y009621D01*
X009380Y009621D01*
X009505Y009673D01*
X010241Y010409D01*
X010758Y010409D01*
X010883Y010461D01*
X010979Y010556D01*
X011030Y010681D01*
X011030Y012391D01*
X010979Y012516D01*
X010883Y012612D01*
X010758Y012664D01*
X010638Y012664D01*
X010638Y013356D01*
X010636Y013362D01*
X010636Y013574D01*
X010641Y013579D01*
X010785Y013579D01*
X010888Y013622D01*
X010967Y013700D01*
X011010Y013803D01*
X011010Y014466D01*
X010967Y014569D01*
X010888Y014648D01*
X010785Y014690D01*
X010359Y014690D01*
X010256Y014648D01*
X010177Y014569D01*
X010163Y014535D01*
X010158Y014545D01*
X010117Y014586D01*
X010067Y014615D01*
X010011Y014630D01*
X009824Y014630D01*
X009705Y014630D01*
X009731Y014693D01*
X009731Y014852D01*
X009795Y014879D01*
X009887Y014971D01*
X009938Y015093D01*
X009938Y015303D01*
X009887Y015424D01*
X009795Y015517D01*
X009673Y015567D01*
X009670Y015567D01*
X009670Y015572D01*
X009670Y015616D01*
X009673Y015616D01*
X009795Y015666D01*
X009887Y015759D01*
X009938Y015880D01*
X009938Y016090D01*
X009887Y016211D01*
X009795Y016304D01*
X009721Y016335D01*
X009721Y016705D01*
X009775Y016690D01*
X010092Y016690D01*
X010092Y017158D01*
X010108Y017158D01*
X010108Y017174D01*
X010615Y017174D01*
X010879Y017174D01*
X010879Y017158D01*
X010895Y017158D01*
X010895Y016690D01*
X011191Y016690D01*
X011158Y016612D01*
X011158Y015910D01*
X011166Y015891D01*
X011139Y015824D01*
X011139Y015122D01*
X011181Y015019D01*
X011260Y014941D01*
X011294Y014926D01*
X011294Y013602D01*
X011355Y013455D01*
X011729Y013081D01*
X011842Y012969D01*
X011989Y012908D01*
X013195Y012908D01*
X013209Y012874D01*
X013233Y012850D01*
X013226Y012825D01*
X013226Y012548D01*
X013733Y012548D01*
X013733Y012532D01*
X013226Y012532D01*
X013226Y012255D01*
X013241Y012199D01*
X013270Y012149D01*
X013311Y012108D01*
X013361Y012079D01*
X013417Y012064D01*
X013734Y012064D01*
X013734Y012532D01*
X013749Y012532D01*
X013749Y012064D01*
X013834Y012064D01*
X013834Y010669D01*
X013894Y010522D01*
X014007Y010410D01*
X014154Y010349D01*
X014191Y010349D01*
X014188Y010342D01*
X014188Y010120D01*
X014273Y009915D01*
X014430Y009759D01*
X014635Y009674D01*
X014856Y009674D01*
X015061Y009759D01*
X015218Y009915D01*
X015240Y009968D01*
X015341Y010069D01*
X015341Y010069D01*
X016014Y010742D01*
X016069Y010874D01*
X016069Y017969D01*
X016199Y018099D01*
X016287Y018311D01*
X016287Y018541D01*
X016199Y018753D01*
X016058Y018894D01*
X016651Y018894D01*
X016694Y018912D01*
X016737Y018894D01*
X016997Y018894D01*
X017081Y018810D01*
X017278Y018613D01*
X017300Y018604D01*
X017300Y018095D01*
X017326Y018032D01*
X017300Y017970D01*
X017300Y017347D01*
X017343Y017244D01*
X017421Y017165D01*
X017454Y017151D01*
X017375Y017072D01*
X017128Y017319D01*
X016623Y017319D01*
X016265Y016962D01*
X016265Y016457D01*
X016477Y016245D01*
X016477Y016174D01*
X016265Y015962D01*
X016265Y015457D01*
X016477Y015245D01*
X016477Y014283D01*
X016446Y014270D01*
X016323Y014147D01*
X016256Y013986D01*
X016256Y013811D01*
X016323Y013650D01*
X016446Y013527D01*
X016607Y013460D01*
X016781Y013460D01*
X016943Y013527D01*
X017066Y013650D01*
X017106Y013747D01*
X017213Y013854D01*
X017273Y014000D01*
X017273Y014449D01*
X017623Y014099D01*
X018128Y014099D01*
X018477Y014449D01*
X018477Y013333D01*
X018538Y013187D01*
X018677Y013048D01*
X018704Y012981D01*
X018717Y012968D01*
X018717Y010681D01*
X018769Y010557D01*
X019061Y010265D01*
X019186Y010213D01*
X019308Y010213D01*
X019308Y010201D01*
X019351Y010098D01*
X019429Y010019D01*
X019532Y009977D01*
X020116Y009977D01*
X020219Y010019D01*
X020238Y010038D01*
X020256Y010019D01*
X020359Y009977D01*
X020943Y009977D01*
X021046Y010019D01*
X021124Y010098D01*
X021131Y010115D01*
X021135Y010114D01*
X021309Y010114D01*
X021470Y010180D01*
X021593Y010304D01*
X021660Y010465D01*
X021660Y010639D01*
X021593Y010800D01*
X021470Y010924D01*
X021309Y010990D01*
X021135Y010990D01*
X021131Y010989D01*
X021124Y011006D01*
X021086Y011044D01*
X021124Y011082D01*
X021131Y011099D01*
X021135Y011098D01*
X021309Y011098D01*
X021470Y011165D01*
X021593Y011288D01*
X021660Y011449D01*
X021660Y011623D01*
X021593Y011785D01*
X021470Y011908D01*
X021309Y011975D01*
X021135Y011975D01*
X021131Y011973D01*
X021124Y011990D01*
X021046Y012069D01*
X020943Y012111D01*
X020359Y012111D01*
X020281Y012079D01*
X020281Y013856D01*
X020672Y014247D01*
X020718Y014247D01*
X020880Y014314D01*
X021003Y014437D01*
X021021Y014480D01*
X021021Y013689D01*
X020980Y013592D01*
X020980Y013418D01*
X021047Y013256D01*
X021170Y013133D01*
X021331Y013066D01*
X021506Y013066D01*
X021667Y013133D01*
X021790Y013256D01*
X021857Y013418D01*
X021857Y013592D01*
X021817Y013689D01*
X021817Y016125D01*
X021892Y016200D01*
X021935Y016303D01*
X021935Y017005D01*
X021892Y017108D01*
X021813Y017187D01*
X021711Y017230D01*
X021660Y017230D01*
X021660Y017512D01*
X022537Y017512D01*
X022629Y017550D01*
X022667Y017550D01*
X022800Y017605D01*
X022984Y017789D01*
X023038Y017921D01*
X023038Y018379D01*
X022984Y018512D01*
X022882Y018613D01*
X022780Y018715D01*
X022698Y018749D01*
X022702Y018763D01*
X022702Y018910D01*
X022049Y018910D01*
X022049Y018910D01*
X022702Y018910D01*
X022702Y019057D01*
X022689Y019104D01*
X022719Y019134D01*
X022762Y019236D01*
X022762Y019584D01*
X022719Y019687D01*
X022689Y019717D01*
X022702Y019763D01*
X022702Y019910D01*
X022049Y019910D01*
X022049Y019910D01*
X022702Y019910D01*
X022702Y020057D01*
X022698Y020071D01*
X022780Y020105D01*
X022882Y020207D01*
X022984Y020309D01*
X023038Y020441D01*
X023038Y020899D01*
X022984Y021031D01*
X022882Y021133D01*
X022800Y021215D01*
X022667Y021270D01*
X022629Y021270D01*
X022537Y021308D01*
X021560Y021308D01*
X021457Y021266D01*
X021378Y021187D01*
X021335Y021084D01*
X021335Y020736D01*
X021367Y020660D01*
X021335Y020584D01*
X021335Y020236D01*
X021378Y020134D01*
X021408Y020104D01*
X021395Y020057D01*
X021395Y019910D01*
X021395Y019763D01*
X021404Y019731D01*
X021324Y019698D01*
X021128Y019502D01*
X021032Y019406D01*
X021025Y019389D01*
X021018Y019406D01*
X020922Y019502D01*
X020725Y019698D01*
X020703Y019708D01*
X020714Y019736D01*
X020714Y020084D01*
X020683Y020160D01*
X020714Y020236D01*
X020714Y020584D01*
X020683Y020660D01*
X020714Y020736D01*
X020714Y021084D01*
X020672Y021187D01*
X020593Y021266D01*
X020490Y021308D01*
X019833Y021308D01*
X019238Y021903D01*
X019238Y022084D01*
X019195Y022187D01*
X019117Y022266D01*
X019014Y022308D01*
X018733Y022308D01*
X018607Y022434D01*
X018745Y022377D01*
X018974Y022377D01*
X019186Y022465D01*
X019349Y022627D01*
X019436Y022839D01*
X019436Y023068D01*
X019349Y023280D01*
X019186Y023443D01*
X018974Y023530D01*
X018745Y023530D01*
X018533Y023443D01*
X018428Y023338D01*
X018408Y023388D01*
X018384Y023412D01*
X018391Y023436D01*
X018391Y023713D01*
X017883Y023713D01*
X017883Y023729D01*
X017867Y023729D01*
X017867Y024197D01*
X017551Y024197D01*
X017495Y024182D01*
X017486Y024177D01*
X017486Y026135D01*
X017431Y026267D01*
X016605Y027094D01*
X016504Y027195D01*
X016372Y027249D01*
X014900Y027249D01*
X014894Y027266D01*
X014707Y027452D01*
X014464Y027553D01*
X014200Y027553D01*
X013957Y027452D01*
X013770Y027266D01*
X013670Y027022D01*
X013670Y026759D01*
X013770Y026515D01*
X013957Y026329D01*
X014200Y026228D01*
X014464Y026228D01*
X014707Y026329D01*
X014894Y026515D01*
X014900Y026532D01*
X016152Y026532D01*
X016769Y025915D01*
X016769Y025561D01*
X016588Y025666D01*
X016588Y025666D01*
X016256Y025700D01*
X015939Y025597D01*
X015939Y025597D01*
X015691Y025374D01*
X015555Y025069D01*
X015555Y024736D01*
X015691Y024431D01*
X015691Y024431D01*
X015939Y024207D01*
X015973Y024196D01*
X015920Y024182D01*
X015870Y024153D01*
X015829Y024112D01*
X015800Y024062D01*
X015785Y024006D01*
X015785Y023729D01*
X016293Y023729D01*
X016293Y023713D01*
X015785Y023713D01*
X015785Y023436D01*
X015792Y023412D01*
X015768Y023388D01*
X015725Y023285D01*
X015725Y022662D01*
X015768Y022559D01*
X015847Y022480D01*
X015950Y022437D01*
X016076Y022437D01*
X016119Y022333D01*
X016223Y022229D01*
X015976Y022229D01*
X015920Y022214D01*
X015907Y022206D01*
X015893Y022214D01*
X015837Y022229D01*
X015521Y022229D01*
X015521Y021761D01*
X015505Y021761D01*
X015505Y022229D01*
X015189Y022229D01*
X015133Y022214D01*
X015083Y022185D01*
X015042Y022144D01*
X015013Y022094D01*
X014998Y022038D01*
X014998Y021761D01*
X015505Y021761D01*
X015505Y021745D01*
X014998Y021745D01*
X014998Y021468D01*
X015004Y021443D01*
X014980Y021419D01*
X014938Y021316D01*
X014938Y020693D01*
X014980Y020591D01*
X014938Y020490D01*
X014938Y019866D01*
X014964Y019804D01*
X014938Y019742D01*
X014938Y019118D01*
X014980Y019015D01*
X015059Y018937D01*
X015154Y018897D01*
X015154Y018592D01*
X015133Y018541D01*
X015133Y018311D01*
X015221Y018099D01*
X015351Y017969D01*
X015351Y014079D01*
X015297Y014102D01*
X015295Y014102D01*
X015303Y014120D01*
X015303Y014342D01*
X015218Y014547D01*
X015061Y014703D01*
X014893Y014773D01*
X014974Y014806D01*
X015097Y014930D01*
X015164Y015091D01*
X015164Y015265D01*
X015145Y015310D01*
X015145Y015339D01*
X015219Y015413D01*
X015262Y015516D01*
X015262Y016218D01*
X015219Y016321D01*
X015140Y016400D01*
X015037Y016442D01*
X014453Y016442D01*
X014351Y016400D01*
X014332Y016381D01*
X014313Y016400D01*
X014258Y016423D01*
X014258Y016691D01*
X014261Y016689D01*
X014403Y016689D01*
X014480Y016721D01*
X014633Y016568D01*
X014832Y016568D01*
X014832Y017048D01*
X014832Y017048D01*
X014832Y016568D01*
X015031Y016568D01*
X015312Y016849D01*
X015312Y017048D01*
X014832Y017048D01*
X014832Y017048D01*
X015312Y017048D01*
X015312Y017247D01*
X015031Y017528D01*
X014832Y017528D01*
X014633Y017528D01*
X014480Y017375D01*
X014403Y017407D01*
X014261Y017407D01*
X014244Y017400D01*
X014056Y017588D01*
X013608Y017588D01*
X013292Y017272D01*
X013292Y016824D01*
X013580Y016537D01*
X013580Y016423D01*
X013524Y016400D01*
X013445Y016321D01*
X013402Y016218D01*
X013402Y015532D01*
X013361Y015521D01*
X013311Y015492D01*
X013270Y015451D01*
X013241Y015401D01*
X013226Y015345D01*
X013226Y015068D01*
X013733Y015068D01*
X013733Y015052D01*
X013226Y015052D01*
X013226Y014775D01*
X013233Y014750D01*
X013209Y014726D01*
X013166Y014623D01*
X013166Y014396D01*
X013164Y014391D01*
X013164Y014232D01*
X013166Y014228D01*
X013166Y014000D01*
X013209Y013897D01*
X013288Y013819D01*
X013332Y013800D01*
X013288Y013781D01*
X013214Y013708D01*
X012234Y013708D01*
X012094Y013848D01*
X012094Y014985D01*
X012111Y015002D01*
X012160Y014973D01*
X012216Y014958D01*
X012482Y014958D01*
X012747Y014958D01*
X012803Y014973D01*
X012853Y015002D01*
X012894Y015043D01*
X012923Y015093D01*
X012938Y015149D01*
X012938Y015473D01*
X012482Y015473D01*
X012482Y015473D01*
X012482Y014958D01*
X012482Y015473D01*
X012482Y015473D01*
X012938Y015473D01*
X012938Y015797D01*
X012923Y015853D01*
X012904Y015885D01*
X012918Y015936D01*
X012918Y016253D01*
X012450Y016253D01*
X012450Y016269D01*
X012918Y016269D01*
X012918Y016585D01*
X012903Y016641D01*
X012882Y016678D01*
X012896Y016693D01*
X012939Y016795D01*
X012939Y017301D01*
X012896Y017403D01*
X012858Y017442D01*
X012896Y017480D01*
X012939Y017583D01*
X012939Y018088D01*
X012896Y018191D01*
X012882Y018205D01*
X012903Y018243D01*
X012918Y018299D01*
X012918Y018615D01*
X012450Y018615D01*
X012450Y018631D01*
X012434Y018631D01*
X012434Y019138D01*
X012434Y019402D01*
X012450Y019402D01*
X012450Y018631D01*
X012918Y018631D01*
X012918Y018947D01*
X012903Y019003D01*
X012895Y019017D01*
X012903Y019030D01*
X012918Y019086D01*
X012918Y019402D01*
X012450Y019402D01*
X012450Y019418D01*
X012918Y019418D01*
X012918Y019734D01*
X012903Y019790D01*
X012895Y019804D01*
X012903Y019817D01*
X012918Y019873D01*
X012918Y020190D01*
X012450Y020190D01*
X012450Y020206D01*
X012434Y020206D01*
X012434Y020713D01*
X012434Y020977D01*
X012450Y020977D01*
X012450Y020206D01*
X012918Y020206D01*
X012918Y020522D01*
X012903Y020578D01*
X012895Y020591D01*
X012903Y020605D01*
X012918Y020661D01*
X012918Y020977D01*
X012450Y020977D01*
X012450Y020993D01*
X012918Y020993D01*
X012918Y021309D01*
X012906Y021356D01*
X013377Y021356D01*
X013433Y021371D01*
X013483Y021400D01*
X013524Y021441D01*
X013553Y021491D01*
X013568Y021547D01*
X013568Y021772D01*
X012757Y021772D01*
X012757Y021772D01*
X013568Y021772D01*
X013568Y021998D01*
X013553Y022054D01*
X013524Y022104D01*
X013504Y022125D01*
X013506Y022126D01*
X013585Y022204D01*
X013628Y022307D01*
X013628Y022334D01*
X013678Y022455D01*
X013678Y023019D01*
X013628Y023140D01*
X013535Y023233D01*
X013413Y023284D01*
X011652Y023284D01*
X011676Y023307D01*
X011686Y023303D01*
X011860Y023303D01*
X012021Y023369D01*
X012145Y023493D01*
X012211Y023654D01*
X012211Y023828D01*
X012145Y023989D01*
X012021Y024113D01*
X011860Y024179D01*
X011750Y024179D01*
X011758Y024197D01*
X011758Y024337D01*
X011923Y024188D01*
X012240Y024085D01*
X012240Y024085D01*
X012572Y024120D01*
X012861Y024286D01*
X012861Y024286D01*
X012861Y024286D01*
X013057Y024556D01*
X013057Y024556D01*
X013127Y024883D01*
X013057Y025209D01*
X013057Y025209D01*
X012861Y025479D01*
X012572Y025646D01*
X012240Y025681D01*
X011923Y025578D01*
X011675Y025354D01*
X011539Y025050D01*
X011539Y025042D01*
X011533Y025045D01*
X010831Y025045D01*
X010812Y025037D01*
X010746Y025064D01*
X010044Y025064D01*
X009941Y025022D01*
X009903Y024983D01*
X009865Y025022D01*
X009762Y025064D01*
X009060Y025064D01*
X008957Y025022D01*
X008920Y024985D01*
X008631Y024985D01*
X008631Y024517D01*
X008615Y024517D01*
X008615Y024985D01*
X008299Y024985D01*
X008243Y024970D01*
X008193Y024941D01*
X008152Y024900D01*
X008123Y024849D01*
X008108Y024794D01*
X008108Y024517D01*
X008615Y024517D01*
X008615Y024501D01*
X008108Y024501D01*
X008108Y024316D01*
X007505Y024316D01*
X007402Y024274D01*
X007378Y024250D01*
X007353Y024256D01*
X007076Y024256D01*
X007076Y023749D01*
X007060Y023749D01*
X007060Y023733D01*
X006592Y023733D01*
X006592Y023417D01*
X006607Y023361D01*
X006636Y023311D01*
X006677Y023270D01*
X006727Y023241D01*
X006783Y023226D01*
X007060Y023226D01*
X007060Y023733D01*
X007076Y023733D01*
X007076Y023226D01*
X007353Y023226D01*
X007378Y023232D01*
X007402Y023208D01*
X007505Y023166D01*
X007925Y023166D01*
X007955Y023135D01*
X007505Y023135D01*
X007402Y023092D01*
X007378Y023069D01*
X007353Y023075D01*
X007076Y023075D01*
X007076Y022568D01*
X007060Y022568D01*
X007060Y022552D01*
X006592Y022552D01*
X006592Y022308D01*
X006304Y022308D01*
X006237Y022281D01*
X006218Y022289D01*
X005516Y022289D01*
X005414Y022246D01*
X005335Y022167D01*
X005292Y022064D01*
X005292Y021441D01*
X005318Y021379D01*
X005292Y021316D01*
X005292Y020693D01*
X005335Y020590D01*
X005414Y020511D01*
X005510Y020472D01*
X005510Y020206D01*
X005978Y020206D01*
X005978Y020190D01*
X005994Y020190D01*
X005994Y019418D01*
X005978Y019418D01*
X005978Y019682D01*
X005978Y020190D01*
X005510Y020190D01*
X005510Y019873D01*
X005525Y019817D01*
X005532Y019804D01*
X005525Y019790D01*
X005510Y019734D01*
X005510Y019418D01*
X005978Y019418D01*
X005978Y019402D01*
X005994Y019402D01*
X005994Y018631D01*
X005978Y018631D01*
X005978Y019138D01*
X005978Y019402D01*
X005510Y019402D01*
X005510Y019086D01*
X005525Y019030D01*
X005532Y019017D01*
X005525Y019003D01*
X005510Y018947D01*
X005510Y018631D01*
X005978Y018631D01*
X005978Y018615D01*
X005978Y018351D01*
X005978Y017843D01*
X005978Y017827D01*
X005510Y017827D01*
X005510Y017511D01*
X005525Y017455D01*
X005554Y017405D01*
X005595Y017364D01*
X005610Y017355D01*
X005587Y017301D01*
X005587Y016795D01*
X005630Y016693D01*
X005668Y016654D01*
X005630Y016616D01*
X005587Y016513D01*
X005587Y016008D01*
X005630Y015905D01*
X005645Y015891D01*
X005623Y015853D01*
X005608Y015797D01*
X005608Y015481D01*
X006076Y015481D01*
X006076Y015465D01*
X005608Y015465D01*
X005608Y015149D01*
X005622Y015098D01*
X005603Y015066D01*
X005588Y015010D01*
X005588Y014686D01*
X006045Y014686D01*
X006045Y014171D01*
X006310Y014171D01*
X006366Y014186D01*
X006415Y014214D01*
X006426Y014203D01*
X006414Y014191D01*
X006335Y014001D01*
X006335Y013796D01*
X006414Y013606D01*
X006452Y013568D01*
X006452Y013441D01*
X006414Y013403D01*
X006335Y013214D01*
X006335Y013008D01*
X006414Y012819D01*
X006559Y012673D01*
X006749Y012595D01*
X006752Y012595D01*
X006709Y012490D01*
X006717Y012510D02*
X004769Y012510D01*
X004769Y012748D02*
X006485Y012748D01*
X006345Y012987D02*
X004769Y012987D01*
X004769Y013225D02*
X006340Y013225D01*
X006452Y013464D02*
X004769Y013464D01*
X004769Y013702D02*
X006374Y013702D01*
X006335Y013941D02*
X004769Y013941D01*
X004769Y014179D02*
X005748Y014179D01*
X005723Y014186D02*
X005779Y014171D01*
X006045Y014171D01*
X006045Y014686D01*
X006045Y014686D01*
X006045Y014686D01*
X005588Y014686D01*
X005588Y014362D01*
X005603Y014306D01*
X005632Y014255D01*
X005673Y014215D01*
X005723Y014186D01*
X005588Y014418D02*
X004769Y014418D01*
X004769Y014656D02*
X005588Y014656D01*
X005588Y014895D02*
X004769Y014895D01*
X004769Y015133D02*
X005612Y015133D01*
X005608Y015372D02*
X004769Y015372D01*
X004769Y015610D02*
X005608Y015610D01*
X005622Y015849D02*
X004769Y015849D01*
X004769Y016087D02*
X005587Y016087D01*
X005587Y016326D02*
X004769Y016326D01*
X004769Y016564D02*
X005609Y016564D01*
X005587Y016803D02*
X004769Y016803D01*
X004769Y017041D02*
X005587Y017041D01*
X005587Y017280D02*
X004769Y017280D01*
X004769Y017518D02*
X005510Y017518D01*
X005510Y017757D02*
X004769Y017757D01*
X004769Y017995D02*
X005510Y017995D01*
X005510Y017843D02*
X005510Y018160D01*
X005525Y018216D01*
X005532Y018229D01*
X005525Y018243D01*
X005510Y018299D01*
X005510Y018615D01*
X005978Y018615D01*
X005994Y018615D01*
X005994Y017843D01*
X005978Y017843D01*
X005510Y017843D01*
X005530Y018234D02*
X004769Y018234D01*
X004769Y018472D02*
X005510Y018472D01*
X005510Y018711D02*
X004769Y018711D01*
X004769Y018949D02*
X005510Y018949D01*
X005510Y019188D02*
X004769Y019188D01*
X004769Y019426D02*
X005510Y019426D01*
X005510Y019665D02*
X004769Y019665D01*
X004769Y019903D02*
X005510Y019903D01*
X005510Y020142D02*
X004769Y020142D01*
X004769Y020380D02*
X005510Y020380D01*
X005323Y020619D02*
X004769Y020619D01*
X004769Y020857D02*
X005292Y020857D01*
X005292Y021096D02*
X004769Y021096D01*
X004769Y021334D02*
X005299Y021334D01*
X005292Y021573D02*
X004769Y021573D01*
X004769Y021811D02*
X005292Y021811D01*
X005292Y022050D02*
X004769Y022050D01*
X004769Y022288D02*
X005515Y022288D01*
X005867Y021753D02*
X006419Y021753D01*
X006655Y021792D02*
X007442Y021792D01*
X007914Y021336D02*
X007975Y021397D01*
X007977Y021403D01*
X008181Y021403D01*
X007958Y021180D01*
X007958Y021231D01*
X007943Y021286D01*
X007914Y021336D01*
X007915Y021334D02*
X008112Y021334D01*
X008083Y021379D02*
X007619Y020965D01*
X007442Y020965D01*
X007743Y020965D01*
X007743Y020965D01*
X007442Y020965D01*
X007442Y020965D01*
X006655Y020965D02*
X006615Y021005D01*
X005867Y021005D01*
X005978Y020142D02*
X005994Y020142D01*
X005978Y019903D02*
X005994Y019903D01*
X005978Y019665D02*
X005994Y019665D01*
X005978Y019426D02*
X005994Y019426D01*
X005978Y019188D02*
X005994Y019188D01*
X005978Y018949D02*
X005994Y018949D01*
X005978Y018711D02*
X005994Y018711D01*
X005978Y018472D02*
X005994Y018472D01*
X005978Y018234D02*
X005994Y018234D01*
X005978Y017995D02*
X005994Y017995D01*
X006734Y017835D02*
X006734Y017048D01*
X006458Y017048D01*
X007248Y016654D02*
X007286Y016693D01*
X007288Y016697D01*
X007315Y016690D01*
X007631Y016690D01*
X007631Y017158D01*
X007647Y017158D01*
X007647Y016690D01*
X007963Y016690D01*
X008019Y016705D01*
X008033Y016713D01*
X008046Y016705D01*
X008102Y016690D01*
X008419Y016690D01*
X008419Y017158D01*
X008434Y017158D01*
X008434Y016690D01*
X008751Y016690D01*
X008766Y016694D01*
X008766Y016339D01*
X008728Y016354D01*
X008597Y016354D01*
X008476Y016304D01*
X008383Y016211D01*
X008333Y016090D01*
X008333Y015880D01*
X008383Y015759D01*
X008476Y015666D01*
X008561Y015631D01*
X008561Y015572D01*
X009115Y015572D01*
X009115Y015572D01*
X008561Y015572D01*
X008561Y015552D01*
X008476Y015517D01*
X008383Y015424D01*
X008333Y015303D01*
X008333Y015093D01*
X008383Y014971D01*
X008391Y014963D01*
X008223Y014794D01*
X008121Y014693D01*
X008066Y014561D01*
X008066Y014551D01*
X007844Y014551D01*
X007844Y014084D01*
X007828Y014084D01*
X007828Y014551D01*
X007512Y014551D01*
X007456Y014537D01*
X007406Y014508D01*
X007388Y014490D01*
X007388Y015037D01*
X007360Y015103D01*
X007368Y015122D01*
X007368Y015824D01*
X007325Y015927D01*
X007312Y015940D01*
X007312Y015968D01*
X007329Y016008D01*
X007329Y016158D01*
X007332Y016165D01*
X007332Y016356D01*
X007329Y016364D01*
X007329Y016513D01*
X007286Y016616D01*
X007248Y016654D01*
X007307Y016564D02*
X008766Y016564D01*
X008527Y016326D02*
X007332Y016326D01*
X007329Y016087D02*
X008333Y016087D01*
X008346Y015849D02*
X007358Y015849D01*
X007368Y015610D02*
X008561Y015610D01*
X008361Y015372D02*
X007368Y015372D01*
X007368Y015133D02*
X008333Y015133D01*
X008323Y014895D02*
X007388Y014895D01*
X007388Y014656D02*
X008106Y014656D01*
X008223Y014794D02*
X008223Y014794D01*
X007844Y014418D02*
X007828Y014418D01*
X007828Y014179D02*
X007844Y014179D01*
X006871Y013918D02*
X006852Y013898D01*
X006852Y013111D01*
X006871Y013918D02*
X006871Y014686D01*
X006871Y015473D01*
X006832Y015473D01*
X006045Y014656D02*
X006045Y014656D01*
X006045Y014418D02*
X006045Y014418D01*
X006045Y014179D02*
X006045Y014179D01*
X006341Y014179D02*
X006409Y014179D01*
X006709Y011794D02*
X004769Y011794D01*
X004769Y011556D02*
X006709Y011556D01*
X006731Y011317D02*
X004769Y011317D01*
X004769Y011079D02*
X006905Y011079D01*
X006905Y010840D02*
X006434Y010840D01*
X006462Y010820D02*
X006384Y010877D01*
X006298Y010920D01*
X006207Y010950D01*
X006112Y010965D01*
X006074Y010965D01*
X006074Y010365D01*
X006054Y010365D01*
X006054Y010345D01*
X005455Y010345D01*
X005455Y010307D01*
X005470Y010212D01*
X005499Y010121D01*
X005543Y010036D01*
X005599Y009958D01*
X005667Y009890D01*
X005745Y009834D01*
X005830Y009790D01*
X005922Y009760D01*
X006016Y009745D01*
X006054Y009745D01*
X006054Y010345D01*
X006074Y010345D01*
X006074Y009745D01*
X006112Y009745D01*
X006207Y009760D01*
X006298Y009790D01*
X006384Y009834D01*
X006462Y009890D01*
X006529Y009958D01*
X006586Y010036D01*
X006629Y010121D01*
X006659Y010212D01*
X006674Y010307D01*
X006674Y010345D01*
X006074Y010345D01*
X006074Y010365D01*
X006674Y010365D01*
X006674Y010403D01*
X006659Y010498D01*
X006629Y010589D01*
X006586Y010675D01*
X006529Y010752D01*
X006462Y010820D01*
X006623Y010602D02*
X006905Y010602D01*
X006905Y010363D02*
X006074Y010363D01*
X006054Y010363D02*
X004769Y010363D01*
X004769Y010125D02*
X005498Y010125D01*
X005455Y010365D02*
X006054Y010365D01*
X006054Y010965D01*
X006016Y010965D01*
X005922Y010950D01*
X005830Y010920D01*
X005745Y010877D01*
X005667Y010820D01*
X005599Y010752D01*
X005543Y010675D01*
X005499Y010589D01*
X005470Y010498D01*
X005455Y010403D01*
X005455Y010365D01*
X005505Y010602D02*
X004769Y010602D01*
X004769Y010840D02*
X005694Y010840D01*
X006054Y010840D02*
X006074Y010840D01*
X006054Y010602D02*
X006074Y010602D01*
X006054Y010125D02*
X006074Y010125D01*
X006054Y009886D02*
X006074Y009886D01*
X005673Y009886D02*
X004769Y009886D01*
X004769Y009648D02*
X007115Y009648D01*
X006909Y009886D02*
X006456Y009886D01*
X006631Y010125D02*
X006905Y010125D01*
X004769Y009568D02*
X004769Y029465D01*
X006210Y029465D01*
X006682Y029591D01*
X007105Y029835D01*
X007450Y030181D01*
X007694Y030604D01*
X007821Y031075D01*
X007821Y032516D01*
X020843Y032516D01*
X020843Y031075D01*
X020970Y030604D01*
X021214Y030181D01*
X021559Y029835D01*
X021982Y029591D01*
X022454Y029465D01*
X023895Y029465D01*
X023895Y009568D01*
X004769Y009568D01*
X004767Y007206D02*
X006627Y007206D01*
X006627Y006910D01*
X006778Y006420D01*
X007067Y005996D01*
X007067Y005996D01*
X007067Y005996D01*
X007468Y005677D01*
X007945Y005489D01*
X007945Y005489D01*
X008457Y005451D01*
X008956Y005565D01*
X008956Y005565D01*
X009400Y005821D01*
X009400Y005821D01*
X009749Y006197D01*
X009972Y006659D01*
X010048Y007166D01*
X010042Y007206D01*
X013545Y007206D01*
X013545Y001577D01*
X007818Y001577D01*
X007818Y003020D01*
X007692Y003491D01*
X007692Y003491D01*
X007448Y003914D01*
X007103Y004259D01*
X006681Y004502D01*
X006210Y004629D01*
X004767Y004629D01*
X004767Y007206D01*
X004767Y007024D02*
X006627Y007024D01*
X006666Y006786D02*
X004767Y006786D01*
X004767Y006547D02*
X006739Y006547D01*
X006778Y006420D02*
X006778Y006420D01*
X006854Y006309D02*
X004767Y006309D01*
X004767Y006070D02*
X007017Y006070D01*
X007274Y005832D02*
X004767Y005832D01*
X004767Y005593D02*
X007681Y005593D01*
X007468Y005677D02*
X007468Y005677D01*
X008457Y005451D02*
X008457Y005451D01*
X009005Y005593D02*
X010251Y005593D01*
X010273Y005647D02*
X010216Y005509D01*
X010216Y005359D01*
X010273Y005221D01*
X010069Y005147D01*
X010025Y005253D01*
X009919Y005359D01*
X009781Y005416D01*
X009631Y005416D01*
X009493Y005359D01*
X009387Y005253D01*
X009330Y005115D01*
X009330Y004965D01*
X009387Y004827D01*
X009493Y004721D01*
X009568Y004690D01*
X009443Y004474D01*
X009443Y004474D01*
X009426Y004375D01*
X009289Y004432D01*
X009139Y004432D01*
X009001Y004375D01*
X008895Y004269D01*
X008838Y004131D01*
X008838Y003981D01*
X008895Y003843D01*
X009001Y003737D01*
X009139Y003680D01*
X009289Y003680D01*
X009426Y003737D01*
X009443Y003638D01*
X009553Y003448D01*
X009533Y003448D01*
X009395Y003390D01*
X009289Y003285D01*
X009232Y003146D01*
X009232Y002997D01*
X009289Y002859D01*
X009395Y002753D01*
X009533Y002696D01*
X009682Y002696D01*
X009821Y002753D01*
X009926Y002859D01*
X009983Y002996D01*
X010273Y002891D01*
X010216Y002753D01*
X010216Y002603D01*
X010273Y002465D01*
X010379Y002359D01*
X010517Y002302D01*
X010667Y002302D01*
X010805Y002359D01*
X010911Y002465D01*
X010968Y002603D01*
X010968Y002753D01*
X010911Y002891D01*
X011200Y002996D01*
X011257Y002859D01*
X011363Y002753D01*
X011501Y002696D01*
X011651Y002696D01*
X011789Y002753D01*
X011895Y002859D01*
X011952Y002997D01*
X011952Y003146D01*
X011895Y003285D01*
X011789Y003390D01*
X011651Y003448D01*
X011631Y003448D01*
X011740Y003638D01*
X011758Y003737D01*
X011895Y003680D01*
X012045Y003680D01*
X012183Y003737D01*
X012288Y003843D01*
X012346Y003981D01*
X012346Y004131D01*
X012288Y004269D01*
X012183Y004375D01*
X012045Y004432D01*
X011895Y004432D01*
X011758Y004375D01*
X011740Y004474D01*
X011631Y004664D01*
X011651Y004664D01*
X011789Y004721D01*
X011895Y004827D01*
X011952Y004965D01*
X011952Y005115D01*
X011895Y005253D01*
X011789Y005359D01*
X011651Y005416D01*
X011501Y005416D01*
X011363Y005359D01*
X011257Y005253D01*
X011200Y005115D01*
X010911Y005221D01*
X010968Y005359D01*
X010968Y005509D01*
X010911Y005647D01*
X010805Y005753D01*
X010667Y005810D01*
X010517Y005810D01*
X010379Y005753D01*
X010273Y005647D01*
X010218Y005355D02*
X009923Y005355D01*
X009489Y005355D02*
X004767Y005355D01*
X004767Y005116D02*
X009331Y005116D01*
X009367Y004878D02*
X004767Y004878D01*
X004767Y004639D02*
X009538Y004639D01*
X009430Y004401D02*
X009364Y004401D01*
X009064Y004401D02*
X006857Y004401D01*
X006681Y004502D02*
X006681Y004502D01*
X007103Y004259D02*
X007103Y004259D01*
X007200Y004162D02*
X008851Y004162D01*
X008862Y003924D02*
X007438Y003924D01*
X007448Y003914D02*
X007448Y003914D01*
X007580Y003685D02*
X009127Y003685D01*
X009301Y003685D02*
X009435Y003685D01*
X009530Y003447D02*
X007704Y003447D01*
X007768Y003208D02*
X009257Y003208D01*
X009243Y002970D02*
X007818Y002970D01*
X007818Y002731D02*
X009448Y002731D01*
X009767Y002731D02*
X010216Y002731D01*
X010262Y002493D02*
X007818Y002493D01*
X007818Y002254D02*
X013545Y002254D01*
X013151Y002254D01*
X013151Y002016D02*
X013545Y002016D01*
X007818Y002016D01*
X007818Y001777D02*
X013545Y001777D01*
X013151Y001777D01*
X013151Y001577D02*
X013151Y007206D01*
X015513Y007206D01*
X015513Y004843D01*
X013545Y003662D01*
X013545Y001577D01*
X013151Y001577D01*
X013151Y002493D02*
X013545Y002493D01*
X010922Y002493D01*
X010968Y002731D02*
X011416Y002731D01*
X011212Y002970D02*
X011127Y002970D01*
X010906Y003512D02*
X010701Y003437D01*
X010483Y003437D01*
X010278Y003512D01*
X010111Y003652D01*
X010002Y003841D01*
X009964Y004056D01*
X010002Y004271D01*
X010111Y004460D01*
X010278Y004600D01*
X010483Y004674D01*
X010701Y004674D01*
X010906Y004600D01*
X011073Y004460D01*
X011182Y004271D01*
X011220Y004056D01*
X011182Y003841D01*
X011073Y003652D01*
X010906Y003512D01*
X010726Y003447D02*
X010458Y003447D01*
X010092Y003685D02*
X011092Y003685D01*
X011197Y003924D02*
X009987Y003924D01*
X009983Y004162D02*
X011201Y004162D01*
X011107Y004401D02*
X010077Y004401D01*
X010386Y004639D02*
X010798Y004639D01*
X011199Y005116D02*
X011201Y005116D01*
X011359Y005355D02*
X010966Y005355D01*
X010933Y005593D02*
X013545Y005593D01*
X013545Y005355D02*
X011793Y005355D01*
X011952Y005116D02*
X013545Y005116D01*
X013545Y004878D02*
X011916Y004878D01*
X011645Y004639D02*
X013545Y004639D01*
X013545Y004401D02*
X012120Y004401D01*
X011819Y004401D02*
X011753Y004401D01*
X011740Y004474D02*
X011740Y004474D01*
X012333Y004162D02*
X013545Y004162D01*
X013545Y003924D02*
X012322Y003924D01*
X012057Y003685D02*
X013545Y003685D01*
X013583Y003685D02*
X013151Y003685D01*
X013151Y003447D02*
X013545Y003447D01*
X011653Y003447D01*
X011740Y003638D02*
X011740Y003638D01*
X011749Y003685D02*
X011883Y003685D01*
X011927Y003208D02*
X013545Y003208D01*
X013151Y003208D01*
X013151Y002970D02*
X013545Y002970D01*
X011941Y002970D01*
X011736Y002731D02*
X013545Y002731D01*
X013151Y002731D01*
X013938Y002731D02*
X014435Y002731D01*
X014446Y002739D02*
X014391Y002700D01*
X014324Y002632D01*
X014268Y002555D01*
X014225Y002471D01*
X014196Y002380D01*
X014181Y002287D01*
X014181Y002247D01*
X014777Y002247D01*
X014777Y002843D01*
X014777Y003231D01*
X014793Y003231D01*
X014793Y003247D01*
X015389Y003247D01*
X015389Y003287D01*
X015374Y003380D01*
X015344Y003471D01*
X015301Y003555D01*
X015245Y003632D01*
X015178Y003700D01*
X015101Y003755D01*
X015017Y003799D01*
X014926Y003828D01*
X014832Y003843D01*
X014793Y003843D01*
X014793Y003247D01*
X014777Y003247D01*
X014777Y003843D01*
X014737Y003843D01*
X014643Y003828D01*
X014553Y003799D01*
X014468Y003755D01*
X014391Y003700D01*
X014324Y003632D01*
X014268Y003555D01*
X014225Y003471D01*
X014196Y003380D01*
X014181Y003287D01*
X014181Y003247D01*
X014777Y003247D01*
X014777Y003231D01*
X014181Y003231D01*
X014181Y003191D01*
X014196Y003098D01*
X014225Y003007D01*
X014268Y002922D01*
X014324Y002846D01*
X014391Y002778D01*
X014446Y002739D01*
X014244Y002970D02*
X013938Y002970D01*
X013938Y003208D02*
X014181Y003208D01*
X014217Y003447D02*
X013938Y003447D01*
X013938Y003485D02*
X013938Y001577D01*
X016301Y001577D01*
X016301Y003143D01*
X016230Y003293D01*
X016171Y003456D01*
X016126Y003624D01*
X016096Y003796D01*
X016083Y003936D01*
X016301Y003936D01*
X016301Y004176D01*
X016083Y004176D01*
X016096Y004316D01*
X016126Y004487D01*
X016171Y004655D01*
X016230Y004819D01*
X016301Y004969D01*
X016301Y007206D01*
X015907Y007206D01*
X015907Y001577D01*
X020846Y001577D01*
X020846Y003020D01*
X020972Y003491D01*
X020972Y003491D01*
X021216Y003914D01*
X021216Y003914D01*
X021561Y004259D01*
X021561Y004259D01*
X021983Y004502D01*
X021983Y004502D01*
X022454Y004629D01*
X023897Y004629D01*
X023897Y007206D01*
X022050Y007206D01*
X022056Y007166D01*
X021980Y006659D01*
X021980Y006659D01*
X021757Y006197D01*
X021757Y006197D01*
X021408Y005821D01*
X021408Y005821D01*
X020964Y005565D01*
X020964Y005565D01*
X020464Y005451D01*
X020464Y005451D01*
X019953Y005489D01*
X019953Y005489D01*
X019476Y005677D01*
X019476Y005677D01*
X019075Y005996D01*
X019075Y005996D01*
X019075Y005996D01*
X018786Y006420D01*
X018786Y006420D01*
X018635Y006910D01*
X018635Y007206D01*
X015907Y007206D01*
X015907Y004666D01*
X013938Y003485D01*
X014272Y003685D02*
X014377Y003685D01*
X013980Y003924D02*
X013151Y003924D01*
X013151Y004162D02*
X014378Y004162D01*
X014553Y004679D02*
X014643Y004650D01*
X014737Y004635D01*
X014777Y004635D01*
X014777Y005231D01*
X014793Y005231D01*
X014793Y005247D01*
X015389Y005247D01*
X015389Y005287D01*
X015374Y005380D01*
X015344Y005471D01*
X015301Y005555D01*
X015245Y005632D01*
X015178Y005700D01*
X015124Y005739D01*
X015178Y005778D01*
X015245Y005846D01*
X015301Y005922D01*
X015344Y006007D01*
X015374Y006098D01*
X015389Y006191D01*
X015389Y006231D01*
X014793Y006231D01*
X014793Y006247D01*
X015389Y006247D01*
X015389Y006287D01*
X015374Y006380D01*
X015344Y006471D01*
X015301Y006555D01*
X015245Y006632D01*
X015178Y006700D01*
X015101Y006755D01*
X015017Y006799D01*
X014926Y006828D01*
X014832Y006843D01*
X014793Y006843D01*
X014793Y006247D01*
X014777Y006247D01*
X014777Y006843D01*
X014737Y006843D01*
X014643Y006828D01*
X014553Y006799D01*
X014468Y006755D01*
X014391Y006700D01*
X014324Y006632D01*
X014268Y006555D01*
X014225Y006471D01*
X014196Y006380D01*
X014181Y006287D01*
X014181Y006247D01*
X014777Y006247D01*
X014777Y006231D01*
X014793Y006231D01*
X014793Y005635D01*
X014793Y005247D01*
X014777Y005247D01*
X014777Y006231D01*
X014181Y006231D01*
X014181Y006191D01*
X014196Y006098D01*
X014225Y006007D01*
X014268Y005922D01*
X014324Y005846D01*
X014391Y005778D01*
X014446Y005739D01*
X014391Y005700D01*
X014324Y005632D01*
X014268Y005555D01*
X014225Y005471D01*
X014196Y005380D01*
X014181Y005287D01*
X014181Y005247D01*
X014777Y005247D01*
X014777Y005231D01*
X014181Y005231D01*
X014181Y005191D01*
X014196Y005098D01*
X014225Y005007D01*
X014268Y004922D01*
X014324Y004846D01*
X014391Y004778D01*
X014468Y004723D01*
X014553Y004679D01*
X014713Y004639D02*
X013151Y004639D01*
X013151Y004401D02*
X014775Y004401D01*
X014793Y004635D02*
X014832Y004635D01*
X014926Y004650D01*
X015017Y004679D01*
X015101Y004723D01*
X015178Y004778D01*
X015245Y004846D01*
X015301Y004922D01*
X015344Y005007D01*
X015374Y005098D01*
X015389Y005191D01*
X015389Y005231D01*
X014793Y005231D01*
X014793Y004635D01*
X014793Y004639D02*
X014777Y004639D01*
X014857Y004639D02*
X015173Y004639D01*
X015269Y004878D02*
X015513Y004878D01*
X015513Y005116D02*
X015377Y005116D01*
X015378Y005355D02*
X015513Y005355D01*
X015513Y005593D02*
X015274Y005593D01*
X015231Y005832D02*
X015513Y005832D01*
X015513Y006070D02*
X015365Y006070D01*
X015385Y006309D02*
X015513Y006309D01*
X015513Y006547D02*
X015306Y006547D01*
X015513Y006786D02*
X015042Y006786D01*
X014793Y006786D02*
X014777Y006786D01*
X014777Y006547D02*
X014793Y006547D01*
X014777Y006309D02*
X014793Y006309D01*
X014777Y006070D02*
X014793Y006070D01*
X014777Y005832D02*
X014793Y005832D01*
X014777Y005593D02*
X014793Y005593D01*
X014777Y005355D02*
X014793Y005355D01*
X014777Y005116D02*
X014793Y005116D01*
X014777Y004878D02*
X014793Y004878D01*
X014301Y004878D02*
X013151Y004878D01*
X013151Y005116D02*
X014193Y005116D01*
X014192Y005355D02*
X013151Y005355D01*
X013151Y005593D02*
X014296Y005593D01*
X014338Y005832D02*
X013151Y005832D01*
X013151Y006070D02*
X014205Y006070D01*
X014184Y006309D02*
X013151Y006309D01*
X013151Y006547D02*
X014264Y006547D01*
X014527Y006786D02*
X013151Y006786D01*
X013151Y007024D02*
X015513Y007024D01*
X015907Y007024D02*
X018635Y007024D01*
X018673Y006786D02*
X015907Y006786D01*
X016301Y006786D01*
X016301Y007024D02*
X015907Y007024D01*
X015907Y006547D02*
X018747Y006547D01*
X018862Y006309D02*
X015907Y006309D01*
X016301Y006309D01*
X016301Y006547D02*
X015907Y006547D01*
X015907Y006070D02*
X019025Y006070D01*
X019282Y005832D02*
X015907Y005832D01*
X016301Y005832D01*
X016301Y006070D02*
X015907Y006070D01*
X015907Y005593D02*
X017731Y005593D01*
X017753Y005647D02*
X017696Y005509D01*
X017696Y005359D01*
X017753Y005221D01*
X017549Y005147D01*
X017505Y005253D01*
X017399Y005359D01*
X017261Y005416D01*
X017112Y005416D01*
X016973Y005359D01*
X016868Y005253D01*
X016810Y005115D01*
X016810Y004965D01*
X016868Y004827D01*
X016973Y004721D01*
X017048Y004690D01*
X016924Y004474D01*
X016906Y004375D01*
X016769Y004432D01*
X016619Y004432D01*
X016481Y004375D01*
X016376Y004269D01*
X016318Y004131D01*
X016318Y003981D01*
X016376Y003843D01*
X016481Y003737D01*
X016619Y003680D01*
X016769Y003680D01*
X016906Y003737D01*
X016924Y003638D01*
X016924Y003638D01*
X017033Y003448D01*
X017013Y003448D01*
X016875Y003390D01*
X016769Y003285D01*
X016712Y003146D01*
X016712Y002997D01*
X016769Y002859D01*
X016875Y002753D01*
X017013Y002696D01*
X017163Y002696D01*
X017301Y002753D01*
X017407Y002859D01*
X017464Y002996D01*
X017753Y002891D01*
X017696Y002753D01*
X017696Y002603D01*
X017753Y002465D01*
X017859Y002359D01*
X017997Y002302D01*
X018147Y002302D01*
X018285Y002359D01*
X018391Y002465D01*
X018448Y002603D01*
X018448Y002753D01*
X018391Y002891D01*
X018681Y002996D01*
X018738Y002859D01*
X018843Y002753D01*
X018982Y002696D01*
X019131Y002696D01*
X019269Y002753D01*
X019375Y002859D01*
X019432Y002997D01*
X019432Y003146D01*
X019375Y003285D01*
X019269Y003390D01*
X019131Y003448D01*
X019111Y003448D01*
X019221Y003638D01*
X019238Y003737D01*
X019375Y003680D01*
X019525Y003680D01*
X019663Y003737D01*
X019769Y003843D01*
X019826Y003981D01*
X019826Y004131D01*
X019769Y004269D01*
X019663Y004375D01*
X019525Y004432D01*
X019375Y004432D01*
X019238Y004375D01*
X019221Y004474D01*
X019111Y004664D01*
X019131Y004664D01*
X019269Y004721D01*
X019375Y004827D01*
X019432Y004965D01*
X019432Y005115D01*
X019375Y005253D01*
X019269Y005359D01*
X019131Y005416D01*
X018982Y005416D01*
X018843Y005359D01*
X018738Y005253D01*
X018681Y005115D01*
X018391Y005221D01*
X018448Y005359D01*
X018448Y005509D01*
X018391Y005647D01*
X018285Y005753D01*
X018147Y005810D01*
X017997Y005810D01*
X017859Y005753D01*
X017753Y005647D01*
X017698Y005355D02*
X017404Y005355D01*
X016969Y005355D02*
X015907Y005355D01*
X016301Y005355D01*
X016301Y005593D02*
X015907Y005593D01*
X015907Y005116D02*
X016811Y005116D01*
X016847Y004878D02*
X015907Y004878D01*
X016258Y004878D01*
X016301Y005116D02*
X015907Y005116D01*
X015907Y004639D02*
X017019Y004639D01*
X016924Y004474D02*
X016924Y004474D01*
X016911Y004401D02*
X016845Y004401D01*
X016544Y004401D02*
X015907Y004401D01*
X016111Y004401D02*
X015464Y004401D01*
X015862Y004639D02*
X016166Y004639D01*
X016301Y004162D02*
X015067Y004162D01*
X014669Y003924D02*
X016084Y003924D01*
X015907Y003924D02*
X016342Y003924D01*
X016331Y004162D02*
X015907Y004162D01*
X015907Y003685D02*
X016607Y003685D01*
X016781Y003685D02*
X016915Y003685D01*
X017011Y003447D02*
X015907Y003447D01*
X015907Y003208D02*
X016738Y003208D01*
X016723Y002970D02*
X015907Y002970D01*
X015907Y002731D02*
X016928Y002731D01*
X017248Y002731D02*
X017696Y002731D01*
X017742Y002493D02*
X015907Y002493D01*
X015907Y002254D02*
X020846Y002254D01*
X020846Y002016D02*
X015907Y002016D01*
X015907Y001777D02*
X020846Y001777D01*
X020846Y002493D02*
X018402Y002493D01*
X018448Y002731D02*
X018897Y002731D01*
X018692Y002970D02*
X018607Y002970D01*
X018386Y003512D02*
X018181Y003437D01*
X017963Y003437D01*
X017758Y003512D01*
X017591Y003652D01*
X017482Y003841D01*
X017444Y004056D01*
X017482Y004271D01*
X017591Y004460D01*
X017758Y004600D01*
X017963Y004674D01*
X018181Y004674D01*
X018386Y004600D01*
X018553Y004460D01*
X018662Y004271D01*
X018700Y004056D01*
X018662Y003841D01*
X018553Y003652D01*
X018386Y003512D01*
X018206Y003447D02*
X017938Y003447D01*
X017572Y003685D02*
X018572Y003685D01*
X018677Y003924D02*
X017467Y003924D01*
X017463Y004162D02*
X018681Y004162D01*
X018587Y004401D02*
X017557Y004401D01*
X017866Y004639D02*
X018278Y004639D01*
X018679Y005116D02*
X018681Y005116D01*
X018839Y005355D02*
X018446Y005355D01*
X018413Y005593D02*
X019689Y005593D01*
X019274Y005355D02*
X023897Y005355D01*
X023897Y005593D02*
X021013Y005593D01*
X021408Y005821D02*
X021408Y005821D01*
X021418Y005832D02*
X023897Y005832D01*
X023897Y006070D02*
X021639Y006070D01*
X021811Y006309D02*
X023897Y006309D01*
X023897Y006547D02*
X021926Y006547D01*
X021999Y006786D02*
X023897Y006786D01*
X023897Y007024D02*
X022035Y007024D01*
X021807Y004401D02*
X019600Y004401D01*
X019300Y004401D02*
X019234Y004401D01*
X019126Y004639D02*
X023897Y004639D01*
X023897Y004878D02*
X019396Y004878D01*
X019432Y005116D02*
X023897Y005116D01*
X021464Y004162D02*
X019813Y004162D01*
X019802Y003924D02*
X021226Y003924D01*
X021084Y003685D02*
X019537Y003685D01*
X019363Y003685D02*
X019229Y003685D01*
X019221Y003638D02*
X019221Y003638D01*
X019134Y003447D02*
X020960Y003447D01*
X020896Y003208D02*
X019407Y003208D01*
X019421Y002970D02*
X020846Y002970D01*
X020846Y002731D02*
X019216Y002731D01*
X017537Y002970D02*
X017452Y002970D01*
X016301Y002970D02*
X015325Y002970D01*
X015344Y003007D02*
X015301Y002922D01*
X015245Y002846D01*
X015178Y002778D01*
X015124Y002739D01*
X015178Y002700D01*
X015245Y002632D01*
X015301Y002555D01*
X015344Y002471D01*
X015374Y002380D01*
X015389Y002287D01*
X015389Y002247D01*
X014793Y002247D01*
X014793Y002231D01*
X015389Y002231D01*
X015389Y002191D01*
X015374Y002098D01*
X015344Y002007D01*
X015301Y001922D01*
X015245Y001846D01*
X015178Y001778D01*
X015101Y001723D01*
X015017Y001679D01*
X014926Y001650D01*
X014832Y001635D01*
X014793Y001635D01*
X014793Y002231D01*
X014777Y002231D01*
X014777Y001635D01*
X014737Y001635D01*
X014643Y001650D01*
X014553Y001679D01*
X014468Y001723D01*
X014391Y001778D01*
X014324Y001846D01*
X014268Y001922D01*
X014225Y002007D01*
X014196Y002098D01*
X014181Y002191D01*
X014181Y002231D01*
X014777Y002231D01*
X014777Y002247D01*
X014793Y002247D01*
X014793Y003231D01*
X015389Y003231D01*
X015389Y003191D01*
X015374Y003098D01*
X015344Y003007D01*
X015389Y003208D02*
X016270Y003208D01*
X016174Y003447D02*
X015352Y003447D01*
X015193Y003685D02*
X016115Y003685D01*
X016301Y002731D02*
X015135Y002731D01*
X015333Y002493D02*
X016301Y002493D01*
X016301Y002254D02*
X015389Y002254D01*
X015347Y002016D02*
X016301Y002016D01*
X016301Y001777D02*
X015176Y001777D01*
X014793Y001777D02*
X014777Y001777D01*
X014777Y002016D02*
X014793Y002016D01*
X014777Y002254D02*
X014793Y002254D01*
X014777Y002493D02*
X014793Y002493D01*
X014777Y002731D02*
X014793Y002731D01*
X014777Y002970D02*
X014793Y002970D01*
X014777Y003208D02*
X014793Y003208D01*
X014777Y003447D02*
X014793Y003447D01*
X014777Y003685D02*
X014793Y003685D01*
X014236Y002493D02*
X013938Y002493D01*
X013938Y002254D02*
X014181Y002254D01*
X014222Y002016D02*
X013938Y002016D01*
X013938Y001777D02*
X014393Y001777D01*
X013545Y005832D02*
X009410Y005832D01*
X009631Y006070D02*
X013545Y006070D01*
X013545Y006309D02*
X009803Y006309D01*
X009749Y006197D02*
X009749Y006197D01*
X009918Y006547D02*
X013545Y006547D01*
X013545Y006786D02*
X009991Y006786D01*
X009972Y006659D02*
X009972Y006659D01*
X010027Y007024D02*
X013545Y007024D01*
X014303Y009886D02*
X009718Y009886D01*
X009956Y010125D02*
X014188Y010125D01*
X014120Y010363D02*
X010195Y010363D01*
X010997Y010602D02*
X013862Y010602D01*
X013834Y010840D02*
X011030Y010840D01*
X011030Y011079D02*
X013834Y011079D01*
X013751Y011231D02*
X013741Y011241D01*
X013751Y011231D02*
X014745Y011231D01*
X014745Y012231D02*
X014523Y012231D01*
X014234Y012520D01*
X013761Y012520D01*
X013741Y012540D01*
X013734Y012510D02*
X013749Y012510D01*
X013734Y012271D02*
X013749Y012271D01*
X013834Y012033D02*
X011030Y012033D01*
X011030Y012271D02*
X013226Y012271D01*
X013226Y012510D02*
X010981Y012510D01*
X010638Y012748D02*
X013226Y012748D01*
X013741Y013288D02*
X013722Y013308D01*
X012068Y013308D01*
X011694Y013682D01*
X011694Y015513D01*
X011139Y015610D02*
X009670Y015610D01*
X009670Y015572D02*
X009115Y015572D01*
X009115Y015572D01*
X009670Y015572D01*
X009909Y015372D02*
X011139Y015372D01*
X011139Y015133D02*
X009938Y015133D01*
X009811Y014895D02*
X011294Y014895D01*
X011294Y014656D02*
X010868Y014656D01*
X011010Y014418D02*
X011294Y014418D01*
X011294Y014179D02*
X011010Y014179D01*
X011010Y013941D02*
X011294Y013941D01*
X011294Y013702D02*
X010968Y013702D01*
X010636Y013464D02*
X011352Y013464D01*
X011585Y013225D02*
X010638Y013225D01*
X010638Y012987D02*
X011824Y012987D01*
X012094Y013941D02*
X013191Y013941D01*
X013166Y014179D02*
X012094Y014179D01*
X012094Y014418D02*
X013166Y014418D01*
X013180Y014656D02*
X012094Y014656D01*
X012094Y014895D02*
X013226Y014895D01*
X013226Y015133D02*
X012934Y015133D01*
X012938Y015372D02*
X013233Y015372D01*
X013402Y015610D02*
X012938Y015610D01*
X012924Y015849D02*
X013402Y015849D01*
X013402Y016087D02*
X012918Y016087D01*
X012918Y016326D02*
X013450Y016326D01*
X013552Y016564D02*
X012918Y016564D01*
X012939Y016803D02*
X013314Y016803D01*
X013292Y017041D02*
X012939Y017041D01*
X012939Y017280D02*
X013300Y017280D01*
X013538Y017518D02*
X012912Y017518D01*
X012939Y017757D02*
X015351Y017757D01*
X015351Y017518D02*
X015041Y017518D01*
X014832Y017518D02*
X014832Y017518D01*
X014832Y017528D02*
X014832Y017048D01*
X014832Y017048D01*
X014832Y017528D01*
X014623Y017518D02*
X014126Y017518D01*
X013902Y018038D02*
X013839Y018018D01*
X013774Y018008D01*
X013741Y018008D01*
X013741Y018426D01*
X013323Y018426D01*
X013741Y018426D01*
X013741Y018426D01*
X013741Y018426D01*
X013741Y018844D01*
X013709Y018844D01*
X013643Y018834D01*
X013581Y018814D01*
X013522Y018784D01*
X013469Y018745D01*
X013422Y018699D01*
X013384Y018645D01*
X013354Y018587D01*
X013333Y018524D01*
X013323Y018459D01*
X013323Y018426D01*
X013323Y018393D01*
X013333Y018328D01*
X013354Y018265D01*
X013384Y018207D01*
X013422Y018153D01*
X013469Y018107D01*
X013522Y018068D01*
X013581Y018038D01*
X013643Y018018D01*
X013709Y018008D01*
X013741Y018008D01*
X013741Y018426D01*
X013741Y018426D01*
X013741Y018844D01*
X013774Y018844D01*
X013839Y018834D01*
X013902Y018814D01*
X013961Y018784D01*
X014014Y018745D01*
X014061Y018699D01*
X014099Y018645D01*
X014129Y018587D01*
X014150Y018524D01*
X014160Y018459D01*
X014160Y018426D01*
X013741Y018426D01*
X013741Y018426D01*
X014160Y018426D01*
X014160Y018393D01*
X014150Y018328D01*
X014129Y018265D01*
X014099Y018207D01*
X014061Y018153D01*
X014014Y018107D01*
X013961Y018068D01*
X013902Y018038D01*
X013741Y018234D02*
X013741Y018234D01*
X013741Y018472D02*
X013741Y018472D01*
X013741Y018711D02*
X013741Y018711D01*
X013434Y018711D02*
X012918Y018711D01*
X012918Y018949D02*
X015047Y018949D01*
X015154Y018711D02*
X014049Y018711D01*
X014158Y018472D02*
X015133Y018472D01*
X015165Y018234D02*
X014113Y018234D01*
X013370Y018234D02*
X012898Y018234D01*
X012918Y018472D02*
X013325Y018472D01*
X012939Y017995D02*
X015325Y017995D01*
X015351Y017280D02*
X015279Y017280D01*
X015312Y017041D02*
X015351Y017041D01*
X015351Y016803D02*
X015265Y016803D01*
X015351Y016564D02*
X014258Y016564D01*
X014832Y016803D02*
X014832Y016803D01*
X014832Y017041D02*
X014832Y017041D01*
X014832Y017280D02*
X014832Y017280D01*
X015214Y016326D02*
X015351Y016326D01*
X015351Y016087D02*
X015262Y016087D01*
X015262Y015849D02*
X015351Y015849D01*
X015351Y015610D02*
X015262Y015610D01*
X015177Y015372D02*
X015351Y015372D01*
X015351Y015133D02*
X015164Y015133D01*
X015062Y014895D02*
X015351Y014895D01*
X015351Y014656D02*
X015108Y014656D01*
X015271Y014418D02*
X015351Y014418D01*
X015351Y014179D02*
X015303Y014179D01*
X014726Y015178D02*
X014745Y015198D01*
X014745Y015867D01*
X014318Y015338D02*
X014287Y015265D01*
X014287Y015091D01*
X014354Y014930D01*
X014477Y014806D01*
X014578Y014765D01*
X014430Y014703D01*
X014397Y014671D01*
X014297Y014671D01*
X014274Y014726D01*
X014250Y014750D01*
X014257Y014775D01*
X014257Y015052D01*
X013749Y015052D01*
X013749Y015068D01*
X014257Y015068D01*
X014257Y015311D01*
X014313Y015334D01*
X014318Y015338D01*
X014287Y015133D02*
X014257Y015133D01*
X014257Y014895D02*
X014389Y014895D01*
X013978Y014272D02*
X013741Y014312D01*
X013564Y014312D01*
X013741Y013288D02*
X013923Y013272D01*
X013954Y013272D02*
X013741Y013288D01*
X013834Y011794D02*
X011030Y011794D01*
X011030Y011556D02*
X013834Y011556D01*
X013834Y011317D02*
X011030Y011317D01*
X009443Y009648D02*
X023895Y009648D01*
X023895Y009886D02*
X015188Y009886D01*
X015240Y009968D02*
X015240Y009968D01*
X015396Y010125D02*
X019340Y010125D01*
X018963Y010363D02*
X015635Y010363D01*
X015873Y010602D02*
X018750Y010602D01*
X018717Y010840D02*
X016054Y010840D01*
X016069Y011079D02*
X018717Y011079D01*
X018717Y011317D02*
X016069Y011317D01*
X016069Y011556D02*
X018717Y011556D01*
X018717Y011794D02*
X016069Y011794D01*
X016069Y012033D02*
X018717Y012033D01*
X018717Y012271D02*
X016069Y012271D01*
X016069Y012510D02*
X018717Y012510D01*
X018717Y012748D02*
X016069Y012748D01*
X016069Y012987D02*
X018702Y012987D01*
X018522Y013225D02*
X016069Y013225D01*
X016069Y013464D02*
X016599Y013464D01*
X016790Y013464D02*
X018477Y013464D01*
X018477Y013702D02*
X017087Y013702D01*
X017249Y013941D02*
X018477Y013941D01*
X018477Y014179D02*
X018208Y014179D01*
X018446Y014418D02*
X018477Y014418D01*
X019273Y014418D02*
X019883Y014418D01*
X019655Y014189D02*
X019603Y014064D01*
X019603Y012111D01*
X019532Y012111D01*
X019429Y012069D01*
X019395Y012035D01*
X019395Y012928D01*
X019448Y012981D01*
X019515Y013142D01*
X019515Y013316D01*
X019448Y013477D01*
X019324Y013601D01*
X019273Y013622D01*
X019273Y015245D01*
X019485Y015457D01*
X019485Y015962D01*
X019273Y016174D01*
X019273Y016245D01*
X019485Y016457D01*
X019485Y016962D01*
X019247Y017200D01*
X019340Y017200D01*
X019502Y017267D01*
X019625Y017390D01*
X019675Y017512D01*
X020390Y017512D01*
X020390Y017230D01*
X020339Y017230D01*
X020236Y017187D01*
X020158Y017108D01*
X020115Y017005D01*
X020115Y016303D01*
X020158Y016200D01*
X020233Y016125D01*
X020233Y014870D01*
X020193Y014773D01*
X020193Y014727D01*
X019655Y014189D01*
X019651Y014179D02*
X019273Y014179D01*
X019273Y013941D02*
X019603Y013941D01*
X019603Y013702D02*
X019273Y013702D01*
X019454Y013464D02*
X019603Y013464D01*
X019603Y013225D02*
X019515Y013225D01*
X019450Y012987D02*
X019603Y012987D01*
X019603Y012748D02*
X019395Y012748D01*
X019395Y012510D02*
X019603Y012510D01*
X019603Y012271D02*
X019395Y012271D01*
X020281Y012271D02*
X023895Y012271D01*
X023895Y012033D02*
X021082Y012033D01*
X021584Y011794D02*
X023895Y011794D01*
X023895Y011556D02*
X021660Y011556D01*
X021606Y011317D02*
X023895Y011317D01*
X023895Y011079D02*
X021121Y011079D01*
X021554Y010840D02*
X023895Y010840D01*
X023895Y010602D02*
X021660Y010602D01*
X021618Y010363D02*
X023895Y010363D01*
X023895Y010125D02*
X021335Y010125D01*
X020281Y012510D02*
X023895Y012510D01*
X023895Y012748D02*
X020281Y012748D01*
X020281Y012987D02*
X023895Y012987D01*
X023895Y013225D02*
X021759Y013225D01*
X021857Y013464D02*
X023895Y013464D01*
X023895Y013702D02*
X021817Y013702D01*
X021817Y013941D02*
X023895Y013941D01*
X023895Y014179D02*
X022940Y014179D01*
X022919Y014164D02*
X022997Y014221D01*
X023065Y014289D01*
X023121Y014366D01*
X023165Y014452D01*
X023194Y014543D01*
X023209Y014638D01*
X023209Y014676D01*
X022610Y014676D01*
X022610Y014696D01*
X023209Y014696D01*
X023209Y014734D01*
X023194Y014829D01*
X023165Y014920D01*
X023121Y015005D01*
X023065Y015083D01*
X022997Y015151D01*
X022919Y015207D01*
X022834Y015251D01*
X022743Y015281D01*
X022648Y015296D01*
X022610Y015296D01*
X022610Y014696D01*
X022590Y014696D01*
X022590Y015296D01*
X022552Y015296D01*
X022457Y015281D01*
X022366Y015251D01*
X022280Y015207D01*
X022202Y015151D01*
X022135Y015083D01*
X022078Y015005D01*
X022035Y014920D01*
X022005Y014829D01*
X021990Y014734D01*
X021990Y014696D01*
X022590Y014696D01*
X022590Y014676D01*
X022610Y014676D01*
X022610Y014076D01*
X022648Y014076D01*
X022743Y014091D01*
X022834Y014121D01*
X022919Y014164D01*
X023147Y014418D02*
X023895Y014418D01*
X023895Y014656D02*
X023209Y014656D01*
X023173Y014895D02*
X023895Y014895D01*
X023895Y015133D02*
X023015Y015133D01*
X022610Y015133D02*
X022590Y015133D01*
X022590Y014895D02*
X022610Y014895D01*
X022590Y014676D02*
X021990Y014676D01*
X021990Y014638D01*
X022005Y014543D01*
X022035Y014452D01*
X022078Y014366D01*
X022135Y014289D01*
X022202Y014221D01*
X022280Y014164D01*
X022366Y014121D01*
X022457Y014091D01*
X022552Y014076D01*
X022590Y014076D01*
X022590Y014676D01*
X022590Y014656D02*
X022610Y014656D01*
X022590Y014418D02*
X022610Y014418D01*
X022590Y014179D02*
X022610Y014179D01*
X022260Y014179D02*
X021817Y014179D01*
X021817Y014418D02*
X022052Y014418D01*
X021990Y014656D02*
X021817Y014656D01*
X021817Y014895D02*
X022026Y014895D01*
X022185Y015133D02*
X021817Y015133D01*
X021817Y015372D02*
X023895Y015372D01*
X023895Y015610D02*
X021817Y015610D01*
X021817Y015849D02*
X023895Y015849D01*
X023895Y016087D02*
X021817Y016087D01*
X021935Y016326D02*
X023895Y016326D01*
X023895Y016564D02*
X021935Y016564D01*
X021935Y016803D02*
X023895Y016803D01*
X023895Y017041D02*
X021920Y017041D01*
X021660Y017280D02*
X023895Y017280D01*
X023895Y017518D02*
X022552Y017518D01*
X022951Y017757D02*
X023895Y017757D01*
X023895Y017995D02*
X023038Y017995D01*
X023038Y018234D02*
X023895Y018234D01*
X023895Y018472D02*
X023000Y018472D01*
X022882Y018613D02*
X022882Y018613D01*
X022785Y018711D02*
X023895Y018711D01*
X023895Y018949D02*
X022702Y018949D01*
X022741Y019188D02*
X023895Y019188D01*
X023895Y019426D02*
X022762Y019426D01*
X022728Y019665D02*
X023895Y019665D01*
X023895Y019903D02*
X022702Y019903D01*
X022817Y020142D02*
X023895Y020142D01*
X023895Y020380D02*
X023013Y020380D01*
X023038Y020619D02*
X023895Y020619D01*
X023895Y020857D02*
X023038Y020857D01*
X022920Y021096D02*
X023895Y021096D01*
X023895Y021334D02*
X019807Y021334D01*
X019569Y021573D02*
X023895Y021573D01*
X023895Y021811D02*
X019330Y021811D01*
X019238Y022050D02*
X023895Y022050D01*
X023895Y022288D02*
X019063Y022288D01*
X019248Y022527D02*
X022164Y022527D01*
X022135Y022556D02*
X022202Y022488D01*
X022280Y022432D01*
X022366Y022388D01*
X022457Y022359D01*
X022552Y022344D01*
X022590Y022344D01*
X022590Y022944D01*
X021990Y022944D01*
X021990Y022906D01*
X022005Y022811D01*
X022035Y022719D01*
X022078Y022634D01*
X022135Y022556D01*
X022020Y022765D02*
X021202Y022765D01*
X021216Y022793D02*
X021236Y022856D01*
X021246Y022921D01*
X021246Y022954D01*
X021246Y022986D01*
X021236Y023052D01*
X021216Y023114D01*
X021186Y023173D01*
X021147Y023226D01*
X021101Y023273D01*
X021047Y023311D01*
X020989Y023341D01*
X020926Y023362D01*
X020861Y023372D01*
X020828Y023372D01*
X020795Y023372D01*
X020730Y023362D01*
X020667Y023341D01*
X020609Y023311D01*
X020555Y023273D01*
X020509Y023226D01*
X020470Y023173D01*
X020440Y023114D01*
X020420Y023052D01*
X020410Y022986D01*
X020410Y022954D01*
X020828Y022954D01*
X020828Y023372D01*
X020828Y022954D01*
X020828Y022954D01*
X020828Y022954D01*
X021246Y022954D01*
X020828Y022954D01*
X020828Y022954D01*
X020410Y022954D01*
X020410Y022921D01*
X020420Y022856D01*
X020440Y022793D01*
X020470Y022734D01*
X020509Y022681D01*
X020555Y022634D01*
X020609Y022596D01*
X020667Y022566D01*
X020730Y022545D01*
X020795Y022535D01*
X020828Y022535D01*
X020828Y022954D01*
X020828Y022954D01*
X020828Y022535D01*
X020861Y022535D01*
X020926Y022545D01*
X020989Y022566D01*
X021047Y022596D01*
X021101Y022634D01*
X021147Y022681D01*
X021186Y022734D01*
X021216Y022793D01*
X021244Y023004D02*
X021990Y023004D01*
X021990Y023002D02*
X021990Y022963D01*
X022590Y022963D01*
X022590Y022944D01*
X022610Y022944D01*
X022610Y022963D01*
X023209Y022963D01*
X023209Y023002D01*
X023194Y023096D01*
X023165Y023188D01*
X023121Y023273D01*
X023065Y023351D01*
X022997Y023419D01*
X022919Y023475D01*
X022834Y023519D01*
X022743Y023548D01*
X022648Y023563D01*
X022610Y023563D01*
X022610Y022963D01*
X022590Y022963D01*
X022590Y023563D01*
X022552Y023563D01*
X022457Y023548D01*
X022366Y023519D01*
X022280Y023475D01*
X022202Y023419D01*
X022135Y023351D01*
X022078Y023273D01*
X022035Y023188D01*
X022005Y023096D01*
X021990Y023002D01*
X022062Y023242D02*
X021131Y023242D01*
X020828Y023242D02*
X020828Y023242D01*
X020828Y023004D02*
X020828Y023004D01*
X020828Y022765D02*
X020828Y022765D01*
X020525Y023242D02*
X019364Y023242D01*
X019436Y023004D02*
X020412Y023004D01*
X020455Y022765D02*
X019406Y022765D01*
X019095Y023481D02*
X022291Y023481D01*
X022590Y023481D02*
X022610Y023481D01*
X022590Y023242D02*
X022610Y023242D01*
X022590Y023004D02*
X022610Y023004D01*
X022610Y022944D02*
X023209Y022944D01*
X023209Y022906D01*
X023194Y022811D01*
X023165Y022719D01*
X023121Y022634D01*
X023065Y022556D01*
X022997Y022488D01*
X022919Y022432D01*
X022834Y022388D01*
X022743Y022359D01*
X022648Y022344D01*
X022610Y022344D01*
X022610Y022944D01*
X022610Y022765D02*
X022590Y022765D01*
X022590Y022527D02*
X022610Y022527D01*
X023035Y022527D02*
X023895Y022527D01*
X023895Y022765D02*
X023180Y022765D01*
X023209Y023004D02*
X023895Y023004D01*
X023895Y023242D02*
X023137Y023242D01*
X022909Y023481D02*
X023895Y023481D01*
X023895Y023719D02*
X017883Y023719D01*
X017883Y023729D02*
X018391Y023729D01*
X018391Y024006D01*
X018376Y024062D01*
X018347Y024112D01*
X018306Y024153D01*
X018256Y024182D01*
X018200Y024197D01*
X017883Y024197D01*
X017883Y023729D01*
X017867Y023958D02*
X017883Y023958D01*
X017867Y024196D02*
X017883Y024196D01*
X018204Y024196D02*
X023895Y024196D01*
X023895Y023958D02*
X018391Y023958D01*
X018391Y023481D02*
X018624Y023481D01*
X017875Y022973D02*
X017127Y022973D01*
X017088Y022934D01*
X017068Y022324D02*
X016694Y022324D01*
X016458Y022560D01*
X016458Y022875D01*
X016301Y022954D01*
X016301Y022973D01*
X015725Y023004D02*
X013678Y023004D01*
X013678Y022765D02*
X015725Y022765D01*
X015800Y022527D02*
X013678Y022527D01*
X013620Y022288D02*
X016164Y022288D01*
X016293Y021761D02*
X016028Y021761D01*
X015521Y021761D01*
X015521Y021745D01*
X016293Y021745D01*
X016293Y021761D01*
X016816Y021650D02*
X016816Y021468D01*
X016809Y021443D01*
X016833Y021419D01*
X016876Y021316D01*
X016876Y020693D01*
X016860Y020654D01*
X017080Y020654D01*
X017080Y020186D01*
X017096Y020186D01*
X017096Y020654D01*
X017308Y020654D01*
X017300Y020673D01*
X017300Y021257D01*
X017343Y021360D01*
X017404Y021421D01*
X017375Y021471D01*
X017360Y021527D01*
X017360Y021650D01*
X016816Y021650D01*
X016816Y021573D02*
X017360Y021573D01*
X017332Y021334D02*
X016868Y021334D01*
X016876Y021096D02*
X017300Y021096D01*
X017300Y020857D02*
X016876Y020857D01*
X017080Y020619D02*
X017096Y020619D01*
X017080Y020380D02*
X017096Y020380D01*
X017875Y021482D02*
X017875Y021792D01*
X017875Y021792D01*
X017875Y021482D01*
X017875Y021482D01*
X017875Y021573D02*
X017875Y021573D01*
X017088Y022186D02*
X017068Y022324D01*
X016293Y023719D02*
X012211Y023719D01*
X012158Y023958D02*
X015785Y023958D01*
X015939Y024207D02*
X015939Y024207D01*
X015972Y024196D02*
X012705Y024196D01*
X012572Y024120D02*
X012572Y024120D01*
X012969Y024435D02*
X015689Y024435D01*
X015583Y024673D02*
X013082Y024673D01*
X013120Y024912D02*
X015555Y024912D01*
X015513Y024922D02*
X016301Y024922D01*
X016030Y025627D02*
X012605Y025627D01*
X012572Y025646D02*
X012572Y025646D01*
X012861Y025479D02*
X012861Y025479D01*
X012861Y025479D01*
X012927Y025389D02*
X015707Y025389D01*
X015691Y025374D02*
X015691Y025374D01*
X015591Y025150D02*
X013070Y025150D01*
X013151Y024922D02*
X012364Y024922D01*
X012075Y025627D02*
X009661Y025627D01*
X009559Y025509D02*
X009910Y025914D01*
X010132Y026400D01*
X010132Y026400D01*
X010208Y026930D01*
X010132Y027460D01*
X009910Y027946D01*
X009910Y027946D01*
X009559Y028351D01*
X009109Y028640D01*
X009109Y028640D01*
X008596Y028791D01*
X008061Y028791D01*
X007547Y028640D01*
X007097Y028351D01*
X007097Y028351D01*
X007097Y028351D01*
X006747Y027946D01*
X006524Y027460D01*
X006524Y027460D01*
X006448Y026930D01*
X006448Y026930D01*
X006524Y026400D01*
X006747Y025914D01*
X006747Y025914D01*
X007097Y025509D01*
X007547Y025220D01*
X007547Y025220D01*
X008061Y025069D01*
X008596Y025069D01*
X009109Y025220D01*
X009559Y025509D01*
X009559Y025509D01*
X009559Y025509D01*
X009372Y025389D02*
X011713Y025389D01*
X011675Y025354D02*
X011675Y025354D01*
X011584Y025150D02*
X008871Y025150D01*
X009109Y025220D02*
X009109Y025220D01*
X008631Y024912D02*
X008615Y024912D01*
X008615Y024673D02*
X008631Y024673D01*
X008623Y024509D02*
X007226Y024509D01*
X007049Y024331D01*
X007049Y023761D01*
X007068Y023741D01*
X007060Y023749D02*
X006592Y023749D01*
X006592Y024065D01*
X006607Y024121D01*
X006636Y024171D01*
X006677Y024212D01*
X006727Y024241D01*
X006783Y024256D01*
X007060Y024256D01*
X007060Y023749D01*
X007060Y023719D02*
X007076Y023719D01*
X007060Y023481D02*
X007076Y023481D01*
X007060Y023242D02*
X007076Y023242D01*
X007060Y023075D02*
X006783Y023075D01*
X006727Y023060D01*
X006677Y023031D01*
X006636Y022990D01*
X006607Y022940D01*
X006592Y022884D01*
X006592Y022568D01*
X007060Y022568D01*
X007060Y023075D01*
X007060Y023004D02*
X007076Y023004D01*
X007060Y022765D02*
X007076Y022765D01*
X006725Y023242D02*
X004769Y023242D01*
X004769Y023004D02*
X006650Y023004D01*
X006592Y022765D02*
X004769Y022765D01*
X004769Y022527D02*
X006592Y022527D01*
X006255Y022288D02*
X006220Y022288D01*
X006592Y023481D02*
X004769Y023481D01*
X004769Y023719D02*
X006592Y023719D01*
X006592Y023958D02*
X004769Y023958D01*
X004769Y024196D02*
X006661Y024196D01*
X007060Y024196D02*
X007076Y024196D01*
X007060Y023958D02*
X007076Y023958D01*
X007785Y025150D02*
X004769Y025150D01*
X004769Y024912D02*
X008164Y024912D01*
X008108Y024673D02*
X004769Y024673D01*
X004769Y024435D02*
X008108Y024435D01*
X007285Y025389D02*
X004769Y025389D01*
X004769Y025627D02*
X006995Y025627D01*
X007097Y025509D02*
X007097Y025509D01*
X006788Y025866D02*
X004769Y025866D01*
X004769Y026104D02*
X006660Y026104D01*
X006551Y026343D02*
X004769Y026343D01*
X004769Y026581D02*
X006498Y026581D01*
X006524Y026400D02*
X006524Y026400D01*
X006464Y026820D02*
X004769Y026820D01*
X004769Y027058D02*
X006466Y027058D01*
X006501Y027297D02*
X004769Y027297D01*
X004769Y027535D02*
X006559Y027535D01*
X006668Y027774D02*
X004769Y027774D01*
X004769Y028012D02*
X006803Y028012D01*
X006747Y027946D02*
X006747Y027946D01*
X007010Y028251D02*
X004769Y028251D01*
X004769Y028489D02*
X007312Y028489D01*
X007547Y028640D02*
X007547Y028640D01*
X007845Y028728D02*
X004769Y028728D01*
X004769Y028966D02*
X011539Y028966D01*
X011539Y029065D02*
X011539Y028732D01*
X011675Y028427D01*
X011675Y028427D01*
X011923Y028203D01*
X012240Y028100D01*
X012240Y028100D01*
X012572Y028135D01*
X012861Y028302D01*
X012861Y028302D01*
X012861Y028302D01*
X013057Y028572D01*
X013127Y028898D01*
X013057Y029225D01*
X012861Y029495D01*
X012572Y029662D01*
X012240Y029696D01*
X011923Y029593D01*
X011675Y029370D01*
X011539Y029065D01*
X011601Y029205D02*
X004769Y029205D01*
X004769Y029443D02*
X011756Y029443D01*
X011675Y029370D02*
X011675Y029370D01*
X011541Y028728D02*
X008811Y028728D01*
X009344Y028489D02*
X011647Y028489D01*
X011871Y028251D02*
X009646Y028251D01*
X009559Y028351D02*
X009559Y028351D01*
X009853Y028012D02*
X018811Y028012D01*
X018754Y027946D02*
X018754Y027946D01*
X018532Y027460D01*
X018532Y027460D01*
X018456Y026930D01*
X018456Y026930D01*
X018532Y026400D01*
X018754Y025914D01*
X018754Y025914D01*
X019105Y025509D01*
X019555Y025220D01*
X020068Y025069D01*
X020603Y025069D01*
X021117Y025220D01*
X021567Y025509D01*
X021567Y025509D01*
X021567Y025509D01*
X021918Y025914D01*
X022140Y026400D01*
X022140Y026400D01*
X022216Y026930D01*
X022140Y027460D01*
X021918Y027946D01*
X021918Y027946D01*
X021567Y028351D01*
X021117Y028640D01*
X021117Y028640D01*
X020603Y028791D01*
X020068Y028791D01*
X019555Y028640D01*
X019555Y028640D01*
X019105Y028351D01*
X019105Y028351D01*
X019105Y028351D01*
X018754Y027946D01*
X018675Y027774D02*
X009989Y027774D01*
X010097Y027535D02*
X014157Y027535D01*
X014507Y027535D02*
X018567Y027535D01*
X018509Y027297D02*
X014863Y027297D01*
X014721Y026343D02*
X016341Y026343D01*
X016580Y026104D02*
X009997Y026104D01*
X009910Y025914D02*
X009910Y025914D01*
X009868Y025866D02*
X016769Y025866D01*
X016769Y025627D02*
X016655Y025627D01*
X016256Y025700D02*
X016256Y025700D01*
X017117Y026581D02*
X018506Y026581D01*
X018532Y026400D02*
X018532Y026400D01*
X018558Y026343D02*
X017356Y026343D01*
X017486Y026104D02*
X018667Y026104D01*
X018796Y025866D02*
X017486Y025866D01*
X017486Y025627D02*
X019003Y025627D01*
X019105Y025509D02*
X019105Y025509D01*
X019292Y025389D02*
X017486Y025389D01*
X017486Y025150D02*
X019793Y025150D01*
X019555Y025220D02*
X019555Y025220D01*
X018472Y026820D02*
X016879Y026820D01*
X016640Y027058D02*
X018474Y027058D01*
X019018Y028251D02*
X016802Y028251D01*
X016857Y028282D02*
X016857Y028282D01*
X016568Y028116D01*
X016568Y028116D01*
X016236Y028081D01*
X016236Y028081D01*
X015919Y028184D01*
X015919Y028184D01*
X015671Y028407D01*
X015671Y028407D01*
X015671Y028407D01*
X015535Y028712D01*
X015535Y029046D01*
X015671Y029350D01*
X015671Y029350D01*
X015919Y029574D01*
X015919Y029574D01*
X016236Y029677D01*
X016236Y029677D01*
X016568Y029642D01*
X016568Y029642D01*
X016857Y029475D01*
X016857Y029475D01*
X016857Y029475D01*
X017053Y029205D01*
X017053Y029205D01*
X017123Y028879D01*
X017053Y028552D01*
X016857Y028282D01*
X016857Y028282D01*
X017007Y028489D02*
X019320Y028489D01*
X019853Y028728D02*
X017090Y028728D01*
X017053Y028552D02*
X017053Y028552D01*
X017104Y028966D02*
X023895Y028966D01*
X023895Y028728D02*
X020819Y028728D01*
X021352Y028489D02*
X023895Y028489D01*
X023895Y028251D02*
X021654Y028251D01*
X021567Y028351D02*
X021567Y028351D01*
X021861Y028012D02*
X023895Y028012D01*
X023895Y027774D02*
X021996Y027774D01*
X022105Y027535D02*
X023895Y027535D01*
X023895Y027297D02*
X022163Y027297D01*
X022140Y027460D02*
X022140Y027460D01*
X022198Y027058D02*
X023895Y027058D01*
X023895Y026820D02*
X022200Y026820D01*
X022166Y026581D02*
X023895Y026581D01*
X023895Y026343D02*
X022113Y026343D01*
X022005Y026104D02*
X023895Y026104D01*
X023895Y025866D02*
X021876Y025866D01*
X021918Y025914D02*
X021918Y025914D01*
X021669Y025627D02*
X023895Y025627D01*
X023895Y025389D02*
X021379Y025389D01*
X021117Y025220D02*
X021117Y025220D01*
X020879Y025150D02*
X023895Y025150D01*
X023895Y024912D02*
X017486Y024912D01*
X017486Y024673D02*
X023895Y024673D01*
X023895Y024435D02*
X017486Y024435D01*
X017486Y024196D02*
X017547Y024196D01*
X015785Y023481D02*
X012133Y023481D01*
X012285Y023269D02*
X012364Y023347D01*
X012285Y023269D02*
X010474Y023269D01*
X011757Y024196D02*
X011914Y024196D01*
X011923Y024188D02*
X011923Y024188D01*
X011923Y025578D02*
X011923Y025578D01*
X012240Y025681D02*
X012240Y025681D01*
X013743Y026581D02*
X010158Y026581D01*
X010192Y026820D02*
X013670Y026820D01*
X013684Y027058D02*
X010190Y027058D01*
X010155Y027297D02*
X013801Y027297D01*
X013943Y026343D02*
X010106Y026343D01*
X011923Y028203D02*
X011923Y028203D01*
X012364Y028859D02*
X013151Y028859D01*
X013127Y028898D02*
X013127Y028898D01*
X013112Y028966D02*
X015535Y028966D01*
X015513Y028859D02*
X016301Y028859D01*
X015845Y028251D02*
X012772Y028251D01*
X012572Y028135D02*
X012572Y028135D01*
X012997Y028489D02*
X015635Y028489D01*
X015535Y028728D02*
X013090Y028728D01*
X013057Y028572D02*
X013057Y028572D01*
X013062Y029205D02*
X015606Y029205D01*
X015774Y029443D02*
X012899Y029443D01*
X012861Y029495D02*
X012861Y029495D01*
X013057Y029225D02*
X013057Y029225D01*
X012382Y029682D02*
X021826Y029682D01*
X021559Y029835D02*
X021559Y029835D01*
X021475Y029920D02*
X007189Y029920D01*
X007105Y029835D02*
X007105Y029835D01*
X006838Y029682D02*
X012194Y029682D01*
X007767Y030874D02*
X020897Y030874D01*
X020843Y031113D02*
X007821Y031113D01*
X007821Y031351D02*
X020843Y031351D01*
X020843Y031590D02*
X007821Y031590D01*
X007821Y031828D02*
X020843Y031828D01*
X020843Y032067D02*
X007821Y032067D01*
X007821Y032305D02*
X020843Y032305D01*
X020961Y030636D02*
X007703Y030636D01*
X007694Y030604D02*
X007694Y030604D01*
X007575Y030397D02*
X021089Y030397D01*
X020970Y030604D02*
X020970Y030604D01*
X021236Y030159D02*
X007428Y030159D01*
X007450Y030181D02*
X007450Y030181D01*
X006682Y029591D02*
X006682Y029591D01*
X008349Y022919D02*
X008487Y022919D01*
X008732Y022674D01*
X008853Y022624D01*
X008937Y022624D01*
X008934Y022616D01*
X008934Y022613D01*
X008875Y022613D01*
X008819Y022598D01*
X008769Y022569D01*
X008728Y022528D01*
X008699Y022478D01*
X008684Y022422D01*
X008684Y022379D01*
X008666Y022362D01*
X008630Y022273D01*
X008530Y022273D01*
X008352Y022451D01*
X008352Y022911D01*
X008349Y022919D01*
X008352Y022765D02*
X008640Y022765D01*
X008727Y022527D02*
X008352Y022527D01*
X008515Y022288D02*
X008636Y022288D01*
X009383Y020111D02*
X009399Y020111D01*
X009399Y019604D01*
X009499Y019604D01*
X009578Y019524D01*
X009593Y019518D01*
X009593Y019473D01*
X009320Y019473D01*
X009320Y019005D01*
X009304Y019005D01*
X009304Y018989D01*
X008797Y018989D01*
X008797Y018717D01*
X008706Y018717D01*
X008706Y018974D01*
X008664Y019077D01*
X008626Y019115D01*
X008664Y019153D01*
X008706Y019256D01*
X008706Y019761D01*
X008703Y019771D01*
X008915Y019983D01*
X008915Y019795D01*
X008930Y019739D01*
X008959Y019689D01*
X009000Y019648D01*
X009050Y019619D01*
X009106Y019604D01*
X009383Y019604D01*
X009383Y020111D01*
X009383Y019903D02*
X009399Y019903D01*
X009383Y019665D02*
X009399Y019665D01*
X009304Y019473D02*
X008988Y019473D01*
X008932Y019458D01*
X008882Y019429D01*
X008841Y019388D01*
X008812Y019338D01*
X008797Y019282D01*
X008797Y019005D01*
X009304Y019005D01*
X009304Y019473D01*
X009304Y019426D02*
X009320Y019426D01*
X009304Y019188D02*
X009320Y019188D01*
X008879Y019426D02*
X008706Y019426D01*
X008706Y019665D02*
X008983Y019665D01*
X008915Y019903D02*
X008835Y019903D01*
X008797Y019188D02*
X008678Y019188D01*
X008706Y018949D02*
X008797Y018949D01*
X008419Y017174D02*
X008419Y017158D01*
X008154Y017158D01*
X007647Y017158D01*
X007647Y017174D01*
X008419Y017174D01*
X008419Y017041D02*
X008434Y017041D01*
X008419Y016803D02*
X008434Y016803D01*
X007647Y016803D02*
X007631Y016803D01*
X007631Y017041D02*
X007647Y017041D01*
X009721Y016564D02*
X011158Y016564D01*
X011158Y016326D02*
X009743Y016326D01*
X009938Y016087D02*
X011158Y016087D01*
X011149Y015849D02*
X009925Y015849D01*
X010108Y016690D02*
X010424Y016690D01*
X010480Y016705D01*
X010493Y016713D01*
X010507Y016705D01*
X010563Y016690D01*
X010879Y016690D01*
X010879Y017158D01*
X010108Y017158D01*
X010108Y016690D01*
X010108Y016803D02*
X010092Y016803D01*
X010092Y017041D02*
X010108Y017041D01*
X010879Y017041D02*
X010895Y017041D01*
X010879Y016803D02*
X010895Y016803D01*
X011675Y017048D02*
X012068Y017048D01*
X012068Y017835D02*
X011871Y017835D01*
X011773Y017934D01*
X011773Y018544D01*
X011694Y018623D01*
X012434Y018711D02*
X012450Y018711D01*
X012434Y018949D02*
X012450Y018949D01*
X012434Y019188D02*
X012450Y019188D01*
X012450Y019418D02*
X012434Y019418D01*
X012434Y019926D01*
X012434Y020190D01*
X012450Y020190D01*
X012450Y019418D01*
X012450Y019426D02*
X012434Y019426D01*
X012434Y019665D02*
X012450Y019665D01*
X012434Y019903D02*
X012450Y019903D01*
X012434Y020142D02*
X012450Y020142D01*
X012434Y020380D02*
X012450Y020380D01*
X012434Y020619D02*
X012450Y020619D01*
X012434Y020857D02*
X012450Y020857D01*
X012918Y020857D02*
X014938Y020857D01*
X014938Y021096D02*
X012918Y021096D01*
X012912Y021334D02*
X014945Y021334D01*
X014998Y021573D02*
X013568Y021573D01*
X013568Y021811D02*
X014998Y021811D01*
X015001Y022050D02*
X013554Y022050D01*
X013514Y023242D02*
X015725Y023242D01*
X015521Y022050D02*
X015505Y022050D01*
X015505Y021811D02*
X015521Y021811D01*
X014969Y020619D02*
X012907Y020619D01*
X012918Y020380D02*
X014938Y020380D01*
X014938Y020142D02*
X012918Y020142D01*
X012918Y019903D02*
X014938Y019903D01*
X014938Y019665D02*
X012918Y019665D01*
X012918Y019426D02*
X014938Y019426D01*
X014938Y019188D02*
X012918Y019188D01*
X011675Y020985D02*
X010986Y020985D01*
X012482Y015372D02*
X012482Y015372D01*
X012482Y015133D02*
X012482Y015133D01*
X010276Y014656D02*
X009716Y014656D01*
X009824Y014630D02*
X009824Y014135D01*
X009824Y014135D01*
X009824Y014630D01*
X009824Y014418D02*
X009824Y014418D01*
X009824Y014179D02*
X009824Y014179D01*
X016069Y014179D02*
X016355Y014179D01*
X016256Y013941D02*
X016069Y013941D01*
X016069Y013702D02*
X016301Y013702D01*
X016477Y014418D02*
X016069Y014418D01*
X016069Y014656D02*
X016477Y014656D01*
X016477Y014895D02*
X016069Y014895D01*
X016069Y015133D02*
X016477Y015133D01*
X016351Y015372D02*
X016069Y015372D01*
X016069Y015610D02*
X016265Y015610D01*
X016265Y015849D02*
X016069Y015849D01*
X016069Y016087D02*
X016390Y016087D01*
X016397Y016326D02*
X016069Y016326D01*
X016069Y016564D02*
X016265Y016564D01*
X016265Y016803D02*
X016069Y016803D01*
X016069Y017041D02*
X016344Y017041D01*
X016583Y017280D02*
X016069Y017280D01*
X016069Y017518D02*
X017300Y017518D01*
X017300Y017757D02*
X016069Y017757D01*
X016095Y017995D02*
X017310Y017995D01*
X017300Y018234D02*
X016255Y018234D01*
X016287Y018472D02*
X017300Y018472D01*
X017180Y018711D02*
X016216Y018711D01*
X017168Y017280D02*
X017328Y017280D01*
X019406Y017041D02*
X020130Y017041D01*
X020115Y016803D02*
X019485Y016803D01*
X019485Y016564D02*
X020115Y016564D01*
X020115Y016326D02*
X019354Y016326D01*
X019360Y016087D02*
X020233Y016087D01*
X020233Y015849D02*
X019485Y015849D01*
X019485Y015610D02*
X020233Y015610D01*
X020233Y015372D02*
X019400Y015372D01*
X019273Y015133D02*
X020233Y015133D01*
X020233Y014895D02*
X019273Y014895D01*
X019273Y014656D02*
X020122Y014656D01*
X020604Y014179D02*
X021021Y014179D01*
X021021Y013941D02*
X020365Y013941D01*
X020281Y013702D02*
X021021Y013702D01*
X020980Y013464D02*
X020281Y013464D01*
X020281Y013225D02*
X021078Y013225D01*
X021021Y014418D02*
X020983Y014418D01*
X020390Y017280D02*
X019514Y017280D01*
X020998Y019426D02*
X021052Y019426D01*
X021290Y019665D02*
X020759Y019665D01*
X020714Y019903D02*
X021395Y019903D01*
X021395Y019910D02*
X022049Y019910D01*
X022049Y019910D01*
X021395Y019910D01*
X021375Y020142D02*
X020691Y020142D01*
X020714Y020380D02*
X021335Y020380D01*
X021350Y020619D02*
X020700Y020619D01*
X020714Y020857D02*
X021335Y020857D01*
X021340Y021096D02*
X020710Y021096D01*
X022882Y021133D02*
X022882Y021133D01*
X017543Y014179D02*
X017273Y014179D01*
X017273Y014418D02*
X017305Y014418D01*
X010057Y002970D02*
X009972Y002970D01*
X017053Y029205D02*
X023895Y029205D01*
X023895Y029443D02*
X016880Y029443D01*
D43*
X014726Y021772D03*
X017088Y021477D03*
X017088Y020887D03*
X019989Y021550D03*
X021989Y021550D03*
X021989Y017300D03*
X019989Y017300D03*
X019509Y012324D03*
X008083Y021379D03*
D44*
X014332Y026891D02*
X016301Y026891D01*
X017127Y026064D01*
X017127Y022973D01*
X017108Y022265D02*
X017088Y022186D01*
X017108Y022265D02*
X018269Y022265D01*
X018466Y022068D01*
X018466Y021969D01*
X018663Y021772D01*
X018663Y021792D01*
X018663Y020965D02*
X017875Y020965D01*
X017088Y019430D02*
X017214Y019304D01*
X017088Y019430D02*
X016301Y019430D01*
X015513Y019430D01*
X015513Y018623D01*
X015710Y018426D01*
X015710Y010946D01*
X015037Y010272D01*
X014787Y010272D01*
X014745Y010231D01*
X017875Y014709D02*
X017875Y015709D01*
X017875Y016709D01*
X017875Y017658D01*
X017875Y018406D02*
X018663Y018406D01*
X016301Y020178D02*
X016301Y021005D01*
X016301Y021753D02*
X015513Y021753D01*
X015513Y021005D02*
X015513Y020178D01*
X020651Y011536D02*
X021222Y011536D01*
X021222Y010552D02*
X020651Y010552D01*
D45*
X011694Y015513D02*
X011655Y015473D01*
X011694Y015513D02*
X011694Y016261D01*
X011675Y016280D01*
X011675Y017048D01*
X009824Y014883D02*
X009824Y014135D01*
X010198Y013269D02*
X010198Y012127D01*
X010001Y011930D01*
X009214Y011930D01*
X007068Y022560D02*
X006458Y022560D01*
X007049Y022580D02*
X007049Y023150D01*
D46*
X009608Y022087D03*
X010080Y022087D03*
X010080Y021615D03*
X009608Y021615D03*
X010631Y020670D03*
X011025Y021379D03*
X011261Y021694D03*
X011182Y022087D03*
X011025Y022402D03*
D47*
X006694Y020906D02*
X006694Y020237D01*
X006734Y020198D01*
X006694Y020906D02*
X006655Y020946D01*
X006655Y020965D01*
X006852Y016261D02*
X006458Y016261D01*
X006832Y016241D02*
X006852Y016261D01*
X006832Y016241D02*
X006832Y015473D01*
X009529Y011969D02*
X010198Y011969D01*
X010198Y011103D02*
X009962Y011103D01*
X009411Y010552D01*
X008820Y010552D01*
D48*
X013722Y014292D02*
X013741Y014312D01*
X013978Y014272D02*
X014704Y014272D01*
X014745Y014231D01*
X014704Y013272D02*
X013954Y013272D01*
X014704Y013272D02*
X014745Y013231D01*
X016694Y013898D02*
X016875Y014080D01*
X016875Y015709D01*
X016875Y016709D01*
X018875Y016709D02*
X018875Y015709D01*
X018875Y016709D02*
X018875Y013412D01*
X019056Y013231D01*
X020631Y014686D02*
X020631Y016635D01*
X020651Y016654D01*
X021399Y016654D02*
X021419Y016635D01*
X021419Y013505D01*
D49*
X020631Y014686D02*
X019942Y013997D01*
X019942Y011733D01*
X019824Y011615D01*
X019824Y011536D01*
X019824Y010552D02*
X019253Y010552D01*
X019056Y010749D01*
X019056Y013231D01*
X019074Y013231D01*
X019076Y013229D01*
X013919Y015867D02*
X013919Y016961D01*
X013832Y017048D01*
D50*
X006852Y013898D03*
X006852Y013111D03*
D51*
X007820Y011985D02*
X007820Y010552D01*
M02*
