G75*
%MOIN*%
%OFA0B0*%
%FSLAX24Y24*%
%IPPOS*%
%LPD*%
%AMOC8*
5,1,8,0,0,1.08239X$1,22.5*
%
%ADD10C,0.0768*%
%ADD11C,0.0476*%
%ADD12R,0.0472X0.0472*%
%ADD13C,0.0780*%
%ADD14C,0.0000*%
%ADD15C,0.3543*%
%ADD16C,0.0765*%
%ADD17R,0.0740X0.0740*%
%ADD18C,0.0740*%
%ADD19OC8,0.0660*%
%ADD20OC8,0.0520*%
%ADD21C,0.0554*%
%ADD22C,0.0317*%
%ADD23C,0.0240*%
%ADD24C,0.0356*%
%ADD25C,0.0277*%
%ADD26C,0.0100*%
%ADD27C,0.0413*%
%ADD28C,0.0120*%
%ADD29C,0.0236*%
%ADD30C,0.0118*%
%ADD31C,0.0157*%
D10*
X006261Y014883D03*
X011084Y015867D03*
X016891Y018426D03*
X018860Y022954D03*
X014785Y006239D03*
X014785Y005239D03*
X014785Y003239D03*
X014785Y002239D03*
D11*
X005588Y013033D03*
X013052Y015867D03*
X014923Y018426D03*
X020828Y022954D03*
D12*
X021793Y011536D03*
X022619Y011536D03*
X022619Y010552D03*
X021793Y010552D03*
D13*
X012954Y018426D03*
X005671Y024922D03*
X022797Y024331D03*
D14*
X005966Y004351D02*
X004489Y004351D01*
X004489Y029745D01*
X005966Y029745D01*
X006043Y029747D01*
X006120Y029753D01*
X006197Y029762D01*
X006273Y029775D01*
X006349Y029792D01*
X006423Y029813D01*
X006497Y029837D01*
X006569Y029865D01*
X006639Y029896D01*
X006708Y029931D01*
X006776Y029969D01*
X006841Y030010D01*
X006904Y030055D01*
X006965Y030103D01*
X007024Y030153D01*
X007080Y030206D01*
X007133Y030262D01*
X007183Y030321D01*
X007231Y030382D01*
X007276Y030445D01*
X007317Y030510D01*
X007355Y030578D01*
X007390Y030647D01*
X007421Y030717D01*
X007449Y030789D01*
X007473Y030863D01*
X007494Y030937D01*
X007511Y031013D01*
X007524Y031089D01*
X007533Y031166D01*
X007539Y031243D01*
X007541Y031320D01*
X007541Y032796D01*
X021123Y032796D01*
X021123Y031320D01*
X021125Y031243D01*
X021131Y031166D01*
X021140Y031089D01*
X021153Y031013D01*
X021170Y030937D01*
X021191Y030863D01*
X021215Y030789D01*
X021243Y030717D01*
X021274Y030647D01*
X021309Y030578D01*
X021347Y030510D01*
X021388Y030445D01*
X021433Y030382D01*
X021481Y030321D01*
X021531Y030262D01*
X021584Y030206D01*
X021640Y030153D01*
X021699Y030103D01*
X021760Y030055D01*
X021823Y030010D01*
X021888Y029969D01*
X021956Y029931D01*
X022025Y029896D01*
X022095Y029865D01*
X022167Y029837D01*
X022241Y029813D01*
X022315Y029792D01*
X022391Y029775D01*
X022467Y029762D01*
X022544Y029753D01*
X022621Y029747D01*
X022698Y029745D01*
X024175Y029745D01*
X024175Y004351D01*
X022698Y004351D01*
X022621Y004349D01*
X022544Y004343D01*
X022467Y004334D01*
X022391Y004321D01*
X022315Y004304D01*
X022241Y004283D01*
X022167Y004259D01*
X022095Y004231D01*
X022025Y004200D01*
X021956Y004165D01*
X021888Y004127D01*
X021823Y004086D01*
X021760Y004041D01*
X021699Y003993D01*
X021640Y003943D01*
X021584Y003890D01*
X021531Y003834D01*
X021481Y003775D01*
X021433Y003714D01*
X021388Y003651D01*
X021347Y003586D01*
X021309Y003518D01*
X021274Y003449D01*
X021243Y003379D01*
X021215Y003307D01*
X021191Y003233D01*
X021170Y003159D01*
X021153Y003083D01*
X021140Y003007D01*
X021131Y002930D01*
X021125Y002853D01*
X021123Y002776D01*
X021123Y001300D01*
X007541Y001300D01*
X007541Y002776D01*
X007539Y002853D01*
X007533Y002930D01*
X007524Y003007D01*
X007511Y003083D01*
X007494Y003159D01*
X007473Y003233D01*
X007449Y003307D01*
X007421Y003379D01*
X007390Y003449D01*
X007355Y003518D01*
X007317Y003586D01*
X007276Y003651D01*
X007231Y003714D01*
X007183Y003775D01*
X007133Y003834D01*
X007080Y003890D01*
X007024Y003943D01*
X006965Y003993D01*
X006904Y004041D01*
X006841Y004086D01*
X006776Y004127D01*
X006708Y004165D01*
X006639Y004200D01*
X006569Y004231D01*
X006497Y004259D01*
X006423Y004283D01*
X006349Y004304D01*
X006273Y004321D01*
X006197Y004334D01*
X006120Y004343D01*
X006043Y004349D01*
X005966Y004351D01*
X007619Y007166D02*
X007621Y007219D01*
X007627Y007272D01*
X007637Y007324D01*
X007650Y007375D01*
X007668Y007425D01*
X007689Y007474D01*
X007714Y007521D01*
X007742Y007565D01*
X007774Y007608D01*
X007808Y007648D01*
X007846Y007686D01*
X007886Y007720D01*
X007929Y007752D01*
X007974Y007780D01*
X008020Y007805D01*
X008069Y007826D01*
X008119Y007844D01*
X008170Y007857D01*
X008222Y007867D01*
X008275Y007873D01*
X008328Y007875D01*
X008381Y007873D01*
X008434Y007867D01*
X008486Y007857D01*
X008537Y007844D01*
X008587Y007826D01*
X008636Y007805D01*
X008683Y007780D01*
X008727Y007752D01*
X008770Y007720D01*
X008810Y007686D01*
X008848Y007648D01*
X008882Y007608D01*
X008914Y007565D01*
X008942Y007520D01*
X008967Y007474D01*
X008988Y007425D01*
X009006Y007375D01*
X009019Y007324D01*
X009029Y007272D01*
X009035Y007219D01*
X009037Y007166D01*
X009035Y007113D01*
X009029Y007060D01*
X009019Y007008D01*
X009006Y006957D01*
X008988Y006907D01*
X008967Y006858D01*
X008942Y006811D01*
X008914Y006767D01*
X008882Y006724D01*
X008848Y006684D01*
X008810Y006646D01*
X008770Y006612D01*
X008727Y006580D01*
X008682Y006552D01*
X008636Y006527D01*
X008587Y006506D01*
X008537Y006488D01*
X008486Y006475D01*
X008434Y006465D01*
X008381Y006459D01*
X008328Y006457D01*
X008275Y006459D01*
X008222Y006465D01*
X008170Y006475D01*
X008119Y006488D01*
X008069Y006506D01*
X008020Y006527D01*
X007973Y006552D01*
X007929Y006580D01*
X007886Y006612D01*
X007846Y006646D01*
X007808Y006684D01*
X007774Y006724D01*
X007742Y006767D01*
X007714Y006812D01*
X007689Y006858D01*
X007668Y006907D01*
X007650Y006957D01*
X007637Y007008D01*
X007627Y007060D01*
X007621Y007113D01*
X007619Y007166D01*
X019627Y007166D02*
X019629Y007219D01*
X019635Y007272D01*
X019645Y007324D01*
X019658Y007375D01*
X019676Y007425D01*
X019697Y007474D01*
X019722Y007521D01*
X019750Y007565D01*
X019782Y007608D01*
X019816Y007648D01*
X019854Y007686D01*
X019894Y007720D01*
X019937Y007752D01*
X019982Y007780D01*
X020028Y007805D01*
X020077Y007826D01*
X020127Y007844D01*
X020178Y007857D01*
X020230Y007867D01*
X020283Y007873D01*
X020336Y007875D01*
X020389Y007873D01*
X020442Y007867D01*
X020494Y007857D01*
X020545Y007844D01*
X020595Y007826D01*
X020644Y007805D01*
X020691Y007780D01*
X020735Y007752D01*
X020778Y007720D01*
X020818Y007686D01*
X020856Y007648D01*
X020890Y007608D01*
X020922Y007565D01*
X020950Y007520D01*
X020975Y007474D01*
X020996Y007425D01*
X021014Y007375D01*
X021027Y007324D01*
X021037Y007272D01*
X021043Y007219D01*
X021045Y007166D01*
X021043Y007113D01*
X021037Y007060D01*
X021027Y007008D01*
X021014Y006957D01*
X020996Y006907D01*
X020975Y006858D01*
X020950Y006811D01*
X020922Y006767D01*
X020890Y006724D01*
X020856Y006684D01*
X020818Y006646D01*
X020778Y006612D01*
X020735Y006580D01*
X020690Y006552D01*
X020644Y006527D01*
X020595Y006506D01*
X020545Y006488D01*
X020494Y006475D01*
X020442Y006465D01*
X020389Y006459D01*
X020336Y006457D01*
X020283Y006459D01*
X020230Y006465D01*
X020178Y006475D01*
X020127Y006488D01*
X020077Y006506D01*
X020028Y006527D01*
X019981Y006552D01*
X019937Y006580D01*
X019894Y006612D01*
X019854Y006646D01*
X019816Y006684D01*
X019782Y006724D01*
X019750Y006767D01*
X019722Y006812D01*
X019697Y006858D01*
X019676Y006907D01*
X019658Y006957D01*
X019645Y007008D01*
X019635Y007060D01*
X019629Y007113D01*
X019627Y007166D01*
X019627Y026930D02*
X019629Y026983D01*
X019635Y027036D01*
X019645Y027088D01*
X019658Y027139D01*
X019676Y027189D01*
X019697Y027238D01*
X019722Y027285D01*
X019750Y027329D01*
X019782Y027372D01*
X019816Y027412D01*
X019854Y027450D01*
X019894Y027484D01*
X019937Y027516D01*
X019982Y027544D01*
X020028Y027569D01*
X020077Y027590D01*
X020127Y027608D01*
X020178Y027621D01*
X020230Y027631D01*
X020283Y027637D01*
X020336Y027639D01*
X020389Y027637D01*
X020442Y027631D01*
X020494Y027621D01*
X020545Y027608D01*
X020595Y027590D01*
X020644Y027569D01*
X020691Y027544D01*
X020735Y027516D01*
X020778Y027484D01*
X020818Y027450D01*
X020856Y027412D01*
X020890Y027372D01*
X020922Y027329D01*
X020950Y027284D01*
X020975Y027238D01*
X020996Y027189D01*
X021014Y027139D01*
X021027Y027088D01*
X021037Y027036D01*
X021043Y026983D01*
X021045Y026930D01*
X021043Y026877D01*
X021037Y026824D01*
X021027Y026772D01*
X021014Y026721D01*
X020996Y026671D01*
X020975Y026622D01*
X020950Y026575D01*
X020922Y026531D01*
X020890Y026488D01*
X020856Y026448D01*
X020818Y026410D01*
X020778Y026376D01*
X020735Y026344D01*
X020690Y026316D01*
X020644Y026291D01*
X020595Y026270D01*
X020545Y026252D01*
X020494Y026239D01*
X020442Y026229D01*
X020389Y026223D01*
X020336Y026221D01*
X020283Y026223D01*
X020230Y026229D01*
X020178Y026239D01*
X020127Y026252D01*
X020077Y026270D01*
X020028Y026291D01*
X019981Y026316D01*
X019937Y026344D01*
X019894Y026376D01*
X019854Y026410D01*
X019816Y026448D01*
X019782Y026488D01*
X019750Y026531D01*
X019722Y026576D01*
X019697Y026622D01*
X019676Y026671D01*
X019658Y026721D01*
X019645Y026772D01*
X019635Y026824D01*
X019629Y026877D01*
X019627Y026930D01*
X007619Y026930D02*
X007621Y026983D01*
X007627Y027036D01*
X007637Y027088D01*
X007650Y027139D01*
X007668Y027189D01*
X007689Y027238D01*
X007714Y027285D01*
X007742Y027329D01*
X007774Y027372D01*
X007808Y027412D01*
X007846Y027450D01*
X007886Y027484D01*
X007929Y027516D01*
X007974Y027544D01*
X008020Y027569D01*
X008069Y027590D01*
X008119Y027608D01*
X008170Y027621D01*
X008222Y027631D01*
X008275Y027637D01*
X008328Y027639D01*
X008381Y027637D01*
X008434Y027631D01*
X008486Y027621D01*
X008537Y027608D01*
X008587Y027590D01*
X008636Y027569D01*
X008683Y027544D01*
X008727Y027516D01*
X008770Y027484D01*
X008810Y027450D01*
X008848Y027412D01*
X008882Y027372D01*
X008914Y027329D01*
X008942Y027284D01*
X008967Y027238D01*
X008988Y027189D01*
X009006Y027139D01*
X009019Y027088D01*
X009029Y027036D01*
X009035Y026983D01*
X009037Y026930D01*
X009035Y026877D01*
X009029Y026824D01*
X009019Y026772D01*
X009006Y026721D01*
X008988Y026671D01*
X008967Y026622D01*
X008942Y026575D01*
X008914Y026531D01*
X008882Y026488D01*
X008848Y026448D01*
X008810Y026410D01*
X008770Y026376D01*
X008727Y026344D01*
X008682Y026316D01*
X008636Y026291D01*
X008587Y026270D01*
X008537Y026252D01*
X008486Y026239D01*
X008434Y026229D01*
X008381Y026223D01*
X008328Y026221D01*
X008275Y026223D01*
X008222Y026229D01*
X008170Y026239D01*
X008119Y026252D01*
X008069Y026270D01*
X008020Y026291D01*
X007973Y026316D01*
X007929Y026344D01*
X007886Y026376D01*
X007846Y026410D01*
X007808Y026448D01*
X007774Y026488D01*
X007742Y026531D01*
X007714Y026576D01*
X007689Y026622D01*
X007668Y026671D01*
X007650Y026721D01*
X007637Y026772D01*
X007627Y026824D01*
X007621Y026877D01*
X007619Y026930D01*
D15*
X010592Y004056D03*
X018072Y004056D03*
D16*
X016332Y024891D03*
X014332Y026891D03*
X012332Y028891D03*
X012332Y024891D03*
X016332Y028891D03*
D17*
X008426Y013505D03*
D18*
X007426Y013505D03*
D19*
X016875Y015867D03*
X016875Y016867D03*
X017875Y016867D03*
X017875Y015867D03*
X017875Y014867D03*
X018875Y015867D03*
X018875Y016867D03*
D20*
X014832Y017048D03*
X013832Y017048D03*
D21*
X014745Y014231D03*
X014745Y013231D03*
X014745Y012231D03*
X014745Y011231D03*
X014745Y010231D03*
D22*
X016694Y014292D03*
X016301Y015080D03*
X015218Y015080D03*
X019076Y013229D03*
X020631Y014686D03*
X021419Y013505D03*
X021222Y011536D03*
X021222Y010552D03*
X021025Y018229D03*
X019253Y018032D03*
X019253Y020198D03*
X021025Y021379D03*
X012856Y021182D03*
X012265Y021182D03*
X011379Y022068D03*
X011379Y023741D03*
X009115Y020493D03*
X008820Y020198D03*
X008623Y019804D03*
X008623Y019410D03*
X008033Y021143D03*
X008230Y022757D03*
X006655Y023150D03*
X005080Y022166D03*
X005080Y020749D03*
X004982Y017245D03*
X005277Y014292D03*
X005277Y010355D03*
X009214Y010355D03*
X011182Y013898D03*
X011182Y014686D03*
X010001Y016261D03*
X010001Y016851D03*
X009411Y016851D03*
X009411Y016261D03*
D23*
X010420Y015999D02*
X010420Y015735D01*
X010521Y015491D01*
X010708Y015304D01*
X010952Y015203D01*
X011216Y015203D01*
X011460Y015304D01*
X011647Y015491D01*
X011748Y015735D01*
X011748Y015999D01*
X011647Y016243D01*
X011460Y016430D01*
X011216Y016531D01*
X010952Y016531D01*
X010708Y016430D01*
X010521Y016243D01*
X010420Y015999D01*
X010457Y016087D02*
X004769Y016087D01*
X004769Y015849D02*
X010420Y015849D01*
X010472Y015610D02*
X004769Y015610D01*
X004769Y015372D02*
X005811Y015372D01*
X005885Y015445D02*
X005698Y015259D01*
X005597Y015015D01*
X005597Y014751D01*
X005698Y014507D01*
X005885Y014320D01*
X006129Y014219D01*
X006393Y014219D01*
X006637Y014320D01*
X006824Y014507D01*
X006925Y014751D01*
X006925Y015015D01*
X006824Y015259D01*
X006637Y015445D01*
X006393Y015547D01*
X006129Y015547D01*
X005885Y015445D01*
X005646Y015133D02*
X004769Y015133D01*
X004769Y014895D02*
X005597Y014895D01*
X005636Y014656D02*
X004769Y014656D01*
X004769Y014418D02*
X005787Y014418D01*
X005624Y013491D02*
X005552Y013491D01*
X005481Y013479D01*
X005412Y013457D01*
X005348Y013424D01*
X005290Y013382D01*
X005239Y013331D01*
X005196Y013273D01*
X005164Y013209D01*
X005157Y013190D01*
X005588Y013033D01*
X005588Y013033D01*
X005745Y013463D01*
X005764Y013457D01*
X005828Y013424D01*
X005886Y013382D01*
X005937Y013331D01*
X005979Y013273D01*
X006012Y013209D01*
X006034Y013140D01*
X006046Y013069D01*
X006046Y012997D01*
X006034Y012926D01*
X006018Y012876D01*
X005588Y013033D01*
X006018Y012876D01*
X006012Y012857D01*
X005979Y012793D01*
X005937Y012735D01*
X005886Y012684D01*
X005828Y012641D01*
X005764Y012609D01*
X005695Y012586D01*
X005624Y012575D01*
X005552Y012575D01*
X005481Y012586D01*
X005431Y012602D01*
X005588Y013033D01*
X005588Y013033D01*
X005745Y013463D01*
X005695Y013479D01*
X005624Y013491D01*
X005744Y013464D02*
X006776Y013464D01*
X006776Y013375D02*
X006776Y013634D01*
X006875Y013873D01*
X007058Y014056D01*
X007297Y014155D01*
X007556Y014155D01*
X007795Y014056D01*
X007866Y013985D01*
X007880Y014010D01*
X007921Y014051D01*
X007972Y014080D01*
X008028Y014095D01*
X008426Y014095D01*
X008426Y013505D01*
X008427Y013505D01*
X009016Y013505D01*
X009016Y013904D01*
X009002Y013960D01*
X008973Y014010D01*
X008932Y014051D01*
X008881Y014080D01*
X008825Y014095D01*
X008427Y014095D01*
X008427Y013505D01*
X008427Y013505D01*
X009016Y013505D01*
X009016Y013106D01*
X009002Y013050D01*
X008973Y013000D01*
X008932Y012959D01*
X008881Y012930D01*
X008825Y012915D01*
X008427Y012915D01*
X008427Y013505D01*
X008426Y013505D01*
X008426Y012915D01*
X008028Y012915D01*
X007972Y012930D01*
X007921Y012959D01*
X007880Y013000D01*
X007866Y013025D01*
X007795Y012954D01*
X007556Y012855D01*
X007297Y012855D01*
X007058Y012954D01*
X006875Y013137D01*
X006776Y013375D01*
X006839Y013225D02*
X006004Y013225D01*
X006044Y012987D02*
X007025Y012987D01*
X006805Y013702D02*
X004769Y013702D01*
X004769Y013464D02*
X005432Y013464D01*
X005658Y013225D02*
X005658Y013225D01*
X005588Y013033D02*
X005588Y013033D01*
X005431Y012602D01*
X005412Y012609D01*
X005348Y012641D01*
X005290Y012684D01*
X005239Y012735D01*
X005196Y012793D01*
X005164Y012857D01*
X005141Y012926D01*
X005130Y012997D01*
X005130Y013069D01*
X005141Y013140D01*
X005157Y013190D01*
X005588Y013033D01*
X005588Y013033D01*
X005571Y012987D02*
X005571Y012987D01*
X005715Y012987D02*
X005715Y012987D01*
X005484Y012748D02*
X005484Y012748D01*
X005229Y012748D02*
X004769Y012748D01*
X004769Y012510D02*
X014333Y012510D01*
X014320Y012492D02*
X014285Y012422D01*
X014260Y012348D01*
X014248Y012270D01*
X014248Y012231D01*
X014248Y012192D01*
X014260Y012115D01*
X014285Y012040D01*
X014320Y011971D01*
X014366Y011907D01*
X014422Y011852D01*
X014485Y011806D01*
X014555Y011770D01*
X014629Y011746D01*
X014706Y011734D01*
X014745Y011734D01*
X014745Y012231D01*
X014248Y012231D01*
X014745Y012231D01*
X014745Y012231D01*
X014745Y012231D01*
X014745Y011734D01*
X014785Y011734D01*
X014862Y011746D01*
X014936Y011770D01*
X015006Y011806D01*
X015069Y011852D01*
X015125Y011907D01*
X015171Y011971D01*
X015206Y012040D01*
X015230Y012115D01*
X015243Y012192D01*
X015243Y012231D01*
X014745Y012231D01*
X014745Y012231D01*
X015243Y012231D01*
X015243Y012270D01*
X015230Y012348D01*
X015206Y012422D01*
X015171Y012492D01*
X015125Y012555D01*
X015069Y012610D01*
X015006Y012656D01*
X014936Y012692D01*
X014916Y012699D01*
X015061Y012759D01*
X015135Y012833D01*
X018887Y012833D01*
X018989Y012791D01*
X019163Y012791D01*
X019265Y012833D01*
X021224Y012833D01*
X021371Y012894D01*
X021570Y013093D01*
X021667Y013133D01*
X021790Y013256D01*
X021857Y013418D01*
X021857Y013592D01*
X021790Y013753D01*
X021667Y013876D01*
X021506Y013943D01*
X021331Y013943D01*
X021170Y013876D01*
X021047Y013753D01*
X021007Y013656D01*
X020980Y013629D01*
X019256Y013629D01*
X019163Y013668D01*
X018989Y013668D01*
X018896Y013629D01*
X015135Y013629D01*
X015061Y013703D01*
X014994Y013731D01*
X015061Y013759D01*
X015177Y013874D01*
X016557Y013874D01*
X016607Y013854D01*
X016781Y013854D01*
X016879Y013894D01*
X020317Y013894D01*
X020463Y013955D01*
X020782Y014274D01*
X020880Y014314D01*
X021003Y014437D01*
X021070Y014599D01*
X021070Y014773D01*
X021003Y014934D01*
X020880Y015058D01*
X020718Y015124D01*
X020544Y015124D01*
X020383Y015058D01*
X020260Y014934D01*
X020219Y014837D01*
X020073Y014690D01*
X018485Y014690D01*
X018485Y015120D01*
X018238Y015367D01*
X018375Y015504D01*
X018623Y015257D01*
X019128Y015257D01*
X019485Y015614D01*
X019485Y016120D01*
X019238Y016367D01*
X019485Y016614D01*
X019485Y017120D01*
X019128Y017477D01*
X018623Y017477D01*
X018375Y017230D01*
X018128Y017477D01*
X017623Y017477D01*
X017375Y017230D01*
X017128Y017477D01*
X016623Y017477D01*
X016265Y017120D01*
X016265Y016614D01*
X016513Y016367D01*
X016265Y016120D01*
X016265Y015614D01*
X016623Y015257D01*
X017128Y015257D01*
X017375Y015504D01*
X017513Y015367D01*
X017265Y015120D01*
X017265Y014690D01*
X016879Y014690D01*
X016781Y014731D01*
X016607Y014731D01*
X016462Y014671D01*
X015094Y014671D01*
X015061Y014703D01*
X014856Y014788D01*
X014635Y014788D01*
X014430Y014703D01*
X014273Y014547D01*
X014188Y014342D01*
X014188Y014120D01*
X014273Y013915D01*
X014430Y013759D01*
X014497Y013731D01*
X014430Y013703D01*
X014273Y013547D01*
X014188Y013342D01*
X014188Y013120D01*
X014273Y012915D01*
X014430Y012759D01*
X014575Y012699D01*
X014555Y012692D01*
X014485Y012656D01*
X014422Y012610D01*
X014366Y012555D01*
X014320Y012492D01*
X014248Y012271D02*
X004769Y012271D01*
X004769Y012033D02*
X014289Y012033D01*
X014508Y011794D02*
X004769Y011794D01*
X004769Y011556D02*
X014367Y011556D01*
X014366Y011555D02*
X014320Y011492D01*
X014285Y011422D01*
X014260Y011348D01*
X014248Y011270D01*
X014248Y011231D01*
X014248Y011192D01*
X014260Y011115D01*
X014285Y011040D01*
X014320Y010971D01*
X014366Y010907D01*
X014422Y010852D01*
X014485Y010806D01*
X014555Y010770D01*
X014575Y010764D01*
X014430Y010703D01*
X014273Y010547D01*
X014188Y010342D01*
X014188Y010120D01*
X014273Y009915D01*
X014430Y009759D01*
X014635Y009674D01*
X014856Y009674D01*
X015061Y009759D01*
X015218Y009915D01*
X015303Y010120D01*
X015303Y010342D01*
X015218Y010547D01*
X015061Y010703D01*
X014916Y010764D01*
X014936Y010770D01*
X015006Y010806D01*
X015069Y010852D01*
X015125Y010907D01*
X015171Y010971D01*
X015206Y011040D01*
X015230Y011115D01*
X015243Y011192D01*
X015243Y011231D01*
X014745Y011231D01*
X014248Y011231D01*
X014745Y011231D01*
X014745Y011231D01*
X014745Y011728D01*
X014706Y011728D01*
X014629Y011716D01*
X014555Y011692D01*
X014485Y011656D01*
X014422Y011610D01*
X014366Y011555D01*
X014256Y011317D02*
X004769Y011317D01*
X004769Y011079D02*
X014272Y011079D01*
X014438Y010840D02*
X004769Y010840D01*
X004769Y010602D02*
X014328Y010602D01*
X014197Y010363D02*
X004769Y010363D01*
X004769Y010125D02*
X014188Y010125D01*
X014303Y009886D02*
X004769Y009886D01*
X004769Y009648D02*
X023895Y009648D01*
X023895Y009568D02*
X004769Y009568D01*
X004769Y029465D01*
X006210Y029465D01*
X006682Y029591D01*
X007105Y029835D01*
X007450Y030181D01*
X007694Y030604D01*
X007821Y031075D01*
X007821Y032516D01*
X020843Y032516D01*
X020843Y031075D01*
X020970Y030604D01*
X020970Y030604D01*
X021214Y030181D01*
X021214Y030181D01*
X021559Y029835D01*
X021559Y029835D01*
X021982Y029591D01*
X022454Y029465D01*
X023895Y029465D01*
X023895Y009568D01*
X023895Y009886D02*
X015188Y009886D01*
X015303Y010125D02*
X021108Y010125D01*
X021135Y010114D02*
X021309Y010114D01*
X021347Y010129D01*
X021398Y010078D01*
X021501Y010036D01*
X022085Y010036D01*
X022187Y010078D01*
X022249Y010139D01*
X022298Y010111D01*
X022354Y010096D01*
X022619Y010096D01*
X022619Y010552D01*
X022619Y011008D01*
X022354Y011008D01*
X022298Y010993D01*
X022249Y010964D01*
X022187Y011026D01*
X022143Y011044D01*
X022187Y011063D01*
X022249Y011124D01*
X022298Y011095D01*
X022354Y011080D01*
X022619Y011080D01*
X022619Y011536D01*
X022619Y011536D01*
X022619Y011080D01*
X022885Y011080D01*
X022941Y011095D01*
X022991Y011124D01*
X023032Y011165D01*
X023061Y011215D01*
X023076Y011271D01*
X023076Y011536D01*
X022619Y011536D01*
X022619Y011992D01*
X022354Y011992D01*
X022298Y011977D01*
X022249Y011949D01*
X022187Y012010D01*
X022085Y012052D01*
X021501Y012052D01*
X021398Y012010D01*
X021347Y011959D01*
X021309Y011975D01*
X021135Y011975D01*
X020973Y011908D01*
X020850Y011785D01*
X020783Y011623D01*
X020783Y011449D01*
X020850Y011288D01*
X020973Y011165D01*
X021135Y011098D01*
X021309Y011098D01*
X021347Y011114D01*
X021398Y011063D01*
X021443Y011044D01*
X021398Y011026D01*
X021347Y010975D01*
X021309Y010990D01*
X021135Y010990D01*
X020973Y010924D01*
X020850Y010800D01*
X020783Y010639D01*
X020783Y010465D01*
X020850Y010304D01*
X020973Y010180D01*
X021135Y010114D01*
X021335Y010125D02*
X021352Y010125D01*
X020825Y010363D02*
X015294Y010363D01*
X015163Y010602D02*
X020783Y010602D01*
X020890Y010840D02*
X015053Y010840D01*
X015219Y011079D02*
X021382Y011079D01*
X020838Y011317D02*
X015235Y011317D01*
X015230Y011348D02*
X015206Y011422D01*
X015171Y011492D01*
X015125Y011555D01*
X015069Y011610D01*
X015006Y011656D01*
X014936Y011692D01*
X014862Y011716D01*
X014785Y011728D01*
X014745Y011728D01*
X014745Y011231D01*
X014745Y011231D01*
X014745Y011231D01*
X015243Y011231D01*
X015243Y011270D01*
X015230Y011348D01*
X015124Y011556D02*
X020783Y011556D01*
X020860Y011794D02*
X014983Y011794D01*
X014745Y011794D02*
X014745Y011794D01*
X014745Y011556D02*
X014745Y011556D01*
X014745Y011317D02*
X014745Y011317D01*
X014745Y012033D02*
X014745Y012033D01*
X015202Y012033D02*
X021453Y012033D01*
X022133Y012033D02*
X023895Y012033D01*
X023895Y012271D02*
X015242Y012271D01*
X015158Y012510D02*
X023895Y012510D01*
X023895Y012748D02*
X015035Y012748D01*
X014456Y012748D02*
X005947Y012748D01*
X005132Y012987D02*
X004769Y012987D01*
X004769Y013225D02*
X005172Y013225D01*
X004769Y013941D02*
X006943Y013941D01*
X006735Y014418D02*
X010784Y014418D01*
X010784Y014501D02*
X010784Y014083D01*
X010744Y013986D01*
X010744Y013811D01*
X010811Y013650D01*
X010934Y013527D01*
X011095Y013460D01*
X011270Y013460D01*
X011431Y013527D01*
X011554Y013650D01*
X011621Y013811D01*
X011621Y013986D01*
X011581Y014083D01*
X011581Y014501D01*
X011621Y014599D01*
X011621Y014773D01*
X011554Y014934D01*
X011431Y015058D01*
X011270Y015124D01*
X011095Y015124D01*
X010934Y015058D01*
X010811Y014934D01*
X010744Y014773D01*
X010744Y014599D01*
X010784Y014501D01*
X010744Y014656D02*
X006886Y014656D01*
X006925Y014895D02*
X010794Y014895D01*
X010784Y014179D02*
X004769Y014179D01*
X004769Y016326D02*
X010604Y016326D01*
X010641Y015372D02*
X006711Y015372D01*
X006876Y015133D02*
X017279Y015133D01*
X017265Y014895D02*
X011571Y014895D01*
X011621Y014656D02*
X014382Y014656D01*
X014220Y014418D02*
X011581Y014418D01*
X011581Y014179D02*
X014188Y014179D01*
X014263Y013941D02*
X011621Y013941D01*
X011576Y013702D02*
X014428Y013702D01*
X014239Y013464D02*
X011278Y013464D01*
X011087Y013464D02*
X009016Y013464D01*
X009016Y013702D02*
X010789Y013702D01*
X010744Y013941D02*
X009007Y013941D01*
X008427Y013941D02*
X008426Y013941D01*
X008426Y013702D02*
X008427Y013702D01*
X008426Y013464D02*
X008427Y013464D01*
X008426Y013225D02*
X008427Y013225D01*
X008426Y012987D02*
X008427Y012987D01*
X007894Y012987D02*
X007828Y012987D01*
X008959Y012987D02*
X014244Y012987D01*
X014188Y013225D02*
X009016Y013225D01*
X011527Y015372D02*
X016508Y015372D01*
X016270Y015610D02*
X013432Y015610D01*
X013444Y015627D02*
X013477Y015691D01*
X013499Y015760D01*
X013510Y015831D01*
X013510Y015867D01*
X013510Y015903D01*
X013499Y015974D01*
X013477Y016043D01*
X013444Y016107D01*
X013402Y016165D01*
X013351Y016216D01*
X013292Y016258D01*
X013228Y016291D01*
X013160Y016313D01*
X013089Y016325D01*
X013052Y016325D01*
X013016Y016325D01*
X012945Y016313D01*
X012877Y016291D01*
X012813Y016258D01*
X012754Y016216D01*
X012703Y016165D01*
X012661Y016107D01*
X012628Y016043D01*
X012606Y015974D01*
X012595Y015903D01*
X012595Y015867D01*
X013052Y015867D01*
X013052Y015867D01*
X012595Y015867D01*
X012595Y015831D01*
X012606Y015760D01*
X012628Y015691D01*
X012661Y015627D01*
X012703Y015569D01*
X012754Y015518D01*
X012813Y015475D01*
X012877Y015443D01*
X012945Y015420D01*
X013016Y015409D01*
X013052Y015409D01*
X013052Y015867D01*
X013052Y016325D01*
X013052Y015867D01*
X013052Y015867D01*
X013052Y015867D01*
X013052Y015409D01*
X013089Y015409D01*
X013160Y015420D01*
X013228Y015443D01*
X013292Y015475D01*
X013351Y015518D01*
X013402Y015569D01*
X013444Y015627D01*
X013510Y015849D02*
X016265Y015849D01*
X016265Y016087D02*
X013454Y016087D01*
X013510Y015867D02*
X013052Y015867D01*
X013052Y015867D01*
X013510Y015867D01*
X013052Y015849D02*
X013052Y015849D01*
X013052Y016087D02*
X013052Y016087D01*
X012651Y016087D02*
X011711Y016087D01*
X011748Y015849D02*
X012595Y015849D01*
X012673Y015610D02*
X011696Y015610D01*
X011564Y016326D02*
X016471Y016326D01*
X016316Y016564D02*
X014112Y016564D01*
X014056Y016508D02*
X014372Y016824D01*
X014372Y016829D01*
X014633Y016568D01*
X014832Y016568D01*
X014832Y017048D01*
X014832Y017048D01*
X014832Y016568D01*
X015031Y016568D01*
X015312Y016849D01*
X015312Y017048D01*
X014832Y017048D01*
X014832Y017048D01*
X015312Y017048D01*
X015312Y017247D01*
X015031Y017528D01*
X014832Y017528D01*
X014633Y017528D01*
X014372Y017267D01*
X014372Y017272D01*
X014056Y017588D01*
X013608Y017588D01*
X013292Y017272D01*
X013292Y016824D01*
X013608Y016508D01*
X014056Y016508D01*
X014350Y016803D02*
X014399Y016803D01*
X014385Y017280D02*
X014364Y017280D01*
X014126Y017518D02*
X014623Y017518D01*
X014832Y017518D02*
X014832Y017518D01*
X014832Y017528D02*
X014832Y017048D01*
X014832Y017048D01*
X014832Y017528D01*
X015041Y017518D02*
X023895Y017518D01*
X023895Y017280D02*
X019325Y017280D01*
X019485Y017041D02*
X023895Y017041D01*
X023895Y016803D02*
X019485Y016803D01*
X019435Y016564D02*
X023895Y016564D01*
X023895Y016326D02*
X019279Y016326D01*
X019485Y016087D02*
X023895Y016087D01*
X023895Y015849D02*
X019485Y015849D01*
X019481Y015610D02*
X023895Y015610D01*
X023895Y015372D02*
X019243Y015372D01*
X018508Y015372D02*
X018243Y015372D01*
X018472Y015133D02*
X023895Y015133D01*
X023895Y014895D02*
X021019Y014895D01*
X021070Y014656D02*
X023895Y014656D01*
X023895Y014418D02*
X020983Y014418D01*
X020687Y014179D02*
X023895Y014179D01*
X023895Y013941D02*
X021512Y013941D01*
X021325Y013941D02*
X020429Y013941D01*
X021026Y013702D02*
X015062Y013702D01*
X013052Y015610D02*
X013052Y015610D01*
X013552Y016564D02*
X004769Y016564D01*
X004769Y016803D02*
X013314Y016803D01*
X013292Y017041D02*
X004769Y017041D01*
X004769Y017280D02*
X007113Y017280D01*
X007167Y017226D02*
X007345Y017152D01*
X007539Y017152D01*
X007718Y017226D01*
X007855Y017363D01*
X007929Y017542D01*
X007929Y017735D01*
X007855Y017914D01*
X007718Y018051D01*
X007539Y018125D01*
X007345Y018125D01*
X007167Y018051D01*
X007030Y017914D01*
X006956Y017735D01*
X006956Y017542D01*
X007030Y017363D01*
X007167Y017226D01*
X006965Y017518D02*
X004769Y017518D01*
X004769Y017757D02*
X006964Y017757D01*
X007110Y017995D02*
X004769Y017995D01*
X004769Y018234D02*
X012375Y018234D01*
X012389Y018192D02*
X012433Y018106D01*
X012489Y018029D01*
X012557Y017961D01*
X012634Y017904D01*
X012720Y017861D01*
X012811Y017831D01*
X012906Y017816D01*
X012944Y017816D01*
X012944Y018416D01*
X012344Y018416D01*
X012344Y018378D01*
X012359Y018283D01*
X012389Y018192D01*
X012523Y017995D02*
X007774Y017995D01*
X007920Y017757D02*
X018909Y017757D01*
X018882Y017784D02*
X019005Y017661D01*
X019166Y017594D01*
X019340Y017594D01*
X019502Y017661D01*
X019625Y017784D01*
X019692Y017945D01*
X019692Y018119D01*
X019625Y018281D01*
X019612Y018294D01*
X019612Y019936D01*
X019625Y019949D01*
X019692Y020110D01*
X019692Y020285D01*
X019625Y020446D01*
X019502Y020569D01*
X019340Y020636D01*
X019166Y020636D01*
X019005Y020569D01*
X018882Y020446D01*
X018815Y020285D01*
X018815Y020110D01*
X018882Y019949D01*
X018895Y019936D01*
X018895Y018294D01*
X018882Y018281D01*
X018815Y018119D01*
X018815Y017945D01*
X018882Y017784D01*
X018815Y017995D02*
X017399Y017995D01*
X017454Y018050D02*
X017555Y018294D01*
X017555Y018558D01*
X017454Y018802D01*
X017267Y018989D01*
X017023Y019090D01*
X016759Y019090D01*
X016515Y018989D01*
X016328Y018802D01*
X016227Y018558D01*
X016227Y018294D01*
X016328Y018050D01*
X016515Y017863D01*
X016759Y017762D01*
X017023Y017762D01*
X017267Y017863D01*
X017454Y018050D01*
X017530Y018234D02*
X018862Y018234D01*
X018895Y018472D02*
X017555Y018472D01*
X017492Y018711D02*
X018895Y018711D01*
X018895Y018949D02*
X017307Y018949D01*
X016475Y018949D02*
X013271Y018949D01*
X013274Y018948D02*
X013188Y018991D01*
X013097Y019021D01*
X013002Y019036D01*
X012964Y019036D01*
X012964Y018436D01*
X012944Y018436D01*
X012944Y018416D01*
X012964Y018416D01*
X012964Y017816D01*
X013002Y017816D01*
X013097Y017831D01*
X013188Y017861D01*
X013274Y017904D01*
X013351Y017961D01*
X013419Y018029D01*
X013476Y018106D01*
X013519Y018192D01*
X013549Y018283D01*
X013564Y018378D01*
X013564Y018416D01*
X012964Y018416D01*
X012964Y018436D01*
X013564Y018436D01*
X013564Y018474D01*
X013549Y018569D01*
X013519Y018660D01*
X013476Y018746D01*
X013419Y018823D01*
X013351Y018891D01*
X013274Y018948D01*
X012964Y018949D02*
X012944Y018949D01*
X012944Y019036D02*
X012906Y019036D01*
X012811Y019021D01*
X012720Y018991D01*
X012634Y018948D01*
X012557Y018891D01*
X012489Y018823D01*
X012433Y018746D01*
X012389Y018660D01*
X012359Y018569D01*
X012344Y018474D01*
X012344Y018436D01*
X012944Y018436D01*
X012944Y019036D01*
X012637Y018949D02*
X004769Y018949D01*
X004769Y018711D02*
X012415Y018711D01*
X012344Y018472D02*
X004769Y018472D01*
X004769Y019188D02*
X018895Y019188D01*
X018895Y019426D02*
X004769Y019426D01*
X004769Y019665D02*
X018895Y019665D01*
X018895Y019903D02*
X004769Y019903D01*
X004769Y020142D02*
X009268Y020142D01*
X009253Y020157D02*
X009370Y020039D01*
X009524Y019976D01*
X009691Y019976D01*
X009845Y020039D01*
X009870Y020064D01*
X010559Y020064D01*
X010680Y020115D01*
X010773Y020208D01*
X010976Y020410D01*
X011068Y020503D01*
X011119Y020624D01*
X011119Y021018D01*
X011144Y021043D01*
X011207Y021197D01*
X011207Y021364D01*
X011144Y021518D01*
X011026Y021635D01*
X010872Y021699D01*
X010705Y021699D01*
X010552Y021635D01*
X010434Y021518D01*
X010370Y021364D01*
X010370Y021197D01*
X010434Y021043D01*
X010459Y021018D01*
X010459Y020826D01*
X010357Y020724D01*
X009870Y020724D01*
X009845Y020749D01*
X009691Y020813D01*
X009524Y020813D01*
X009370Y020749D01*
X009253Y020632D01*
X009189Y020478D01*
X009189Y020311D01*
X009253Y020157D01*
X009189Y020380D02*
X004769Y020380D01*
X004769Y020619D02*
X009247Y020619D01*
X010370Y021334D02*
X004769Y021334D01*
X004769Y021096D02*
X010412Y021096D01*
X010459Y020857D02*
X004769Y020857D01*
X004769Y021573D02*
X010489Y021573D01*
X011008Y021819D02*
X011131Y021696D01*
X011292Y021629D01*
X011466Y021629D01*
X011628Y021696D01*
X011751Y021819D01*
X011818Y021981D01*
X011818Y022155D01*
X011751Y022316D01*
X011719Y022348D01*
X011719Y023461D01*
X011751Y023493D01*
X011818Y023654D01*
X011818Y023828D01*
X011751Y023989D01*
X011628Y024113D01*
X011466Y024179D01*
X011292Y024179D01*
X011131Y024113D01*
X011008Y023989D01*
X010941Y023828D01*
X010941Y023654D01*
X011008Y023493D01*
X011039Y023461D01*
X011039Y022348D01*
X011008Y022316D01*
X010941Y022155D01*
X010941Y021981D01*
X011008Y021819D01*
X011016Y021811D02*
X004769Y021811D01*
X004769Y022050D02*
X010941Y022050D01*
X010996Y022288D02*
X004769Y022288D01*
X004769Y022527D02*
X011039Y022527D01*
X011039Y022765D02*
X004769Y022765D01*
X004769Y023004D02*
X011039Y023004D01*
X011039Y023242D02*
X004769Y023242D01*
X004769Y023481D02*
X011020Y023481D01*
X010941Y023719D02*
X004769Y023719D01*
X004769Y023958D02*
X010994Y023958D01*
X011764Y023958D02*
X022315Y023958D01*
X022331Y023934D02*
X022399Y023866D01*
X022477Y023810D01*
X022563Y023766D01*
X022654Y023737D01*
X022749Y023722D01*
X022787Y023722D01*
X022787Y024322D01*
X022187Y024322D01*
X022187Y024284D01*
X022202Y024189D01*
X022231Y024097D01*
X022275Y024012D01*
X022331Y023934D01*
X022201Y024196D02*
X004769Y024196D01*
X004769Y024435D02*
X005304Y024435D01*
X005273Y024457D02*
X005351Y024401D01*
X005437Y024357D01*
X005528Y024327D01*
X005623Y024312D01*
X005661Y024312D01*
X005661Y024912D01*
X005681Y024912D01*
X005681Y024932D01*
X006280Y024932D01*
X006280Y024970D01*
X006265Y025065D01*
X006236Y025156D01*
X006192Y025242D01*
X006136Y025319D01*
X006068Y025387D01*
X005990Y025444D01*
X005905Y025487D01*
X005813Y025517D01*
X005719Y025532D01*
X005681Y025532D01*
X005681Y024932D01*
X005661Y024932D01*
X005661Y025532D01*
X005623Y025532D01*
X005528Y025517D01*
X005437Y025487D01*
X005351Y025444D01*
X005273Y025387D01*
X005205Y025319D01*
X005149Y025242D01*
X005106Y025156D01*
X005076Y025065D01*
X005061Y024970D01*
X005061Y024932D01*
X005661Y024932D01*
X005661Y024912D01*
X005061Y024912D01*
X005061Y024874D01*
X005076Y024779D01*
X005106Y024688D01*
X005149Y024602D01*
X005205Y024525D01*
X005273Y024457D01*
X005113Y024673D02*
X004769Y024673D01*
X004769Y024912D02*
X005061Y024912D01*
X005104Y025150D02*
X004769Y025150D01*
X004769Y025389D02*
X005275Y025389D01*
X005661Y025389D02*
X005681Y025389D01*
X005661Y025150D02*
X005681Y025150D01*
X005681Y024912D02*
X006280Y024912D01*
X006280Y024874D01*
X006265Y024779D01*
X006236Y024688D01*
X006192Y024602D01*
X006136Y024525D01*
X006068Y024457D01*
X005990Y024401D01*
X005905Y024357D01*
X005813Y024327D01*
X005719Y024312D01*
X005681Y024312D01*
X005681Y024912D01*
X005661Y024912D01*
X005661Y024673D02*
X005681Y024673D01*
X005661Y024435D02*
X005681Y024435D01*
X006037Y024435D02*
X011936Y024435D01*
X011940Y024431D02*
X012016Y024375D01*
X012101Y024332D01*
X012191Y024303D01*
X012285Y024288D01*
X012325Y024288D01*
X012325Y024883D01*
X012340Y024883D01*
X012340Y024898D01*
X012935Y024898D01*
X012935Y024938D01*
X012920Y025032D01*
X012890Y025122D01*
X012847Y025206D01*
X012792Y025283D01*
X012725Y025350D01*
X012648Y025406D01*
X012563Y025449D01*
X012473Y025478D01*
X012379Y025493D01*
X012340Y025493D01*
X012340Y024898D01*
X012325Y024898D01*
X012325Y025493D01*
X012285Y025493D01*
X012191Y025478D01*
X012101Y025449D01*
X012016Y025406D01*
X011940Y025350D01*
X011872Y025283D01*
X011817Y025206D01*
X011774Y025122D01*
X011744Y025032D01*
X011730Y024938D01*
X011730Y024898D01*
X012324Y024898D01*
X012324Y024883D01*
X011730Y024883D01*
X011730Y024843D01*
X011744Y024749D01*
X011774Y024659D01*
X011817Y024575D01*
X011872Y024498D01*
X011940Y024431D01*
X011769Y024673D02*
X006228Y024673D01*
X006280Y024912D02*
X011730Y024912D01*
X011788Y025150D02*
X008871Y025150D01*
X009109Y025220D02*
X009109Y025220D01*
X009559Y025509D01*
X009559Y025509D01*
X009559Y025509D01*
X009910Y025914D01*
X010132Y026400D01*
X010132Y026400D01*
X010208Y026930D01*
X010132Y027460D01*
X009910Y027946D01*
X009910Y027946D01*
X009559Y028351D01*
X009109Y028640D01*
X008596Y028791D01*
X008061Y028791D01*
X007547Y028640D01*
X007097Y028351D01*
X007097Y028351D01*
X007097Y028351D01*
X006747Y027946D01*
X006524Y027460D01*
X006524Y027460D01*
X006448Y026930D01*
X006448Y026930D01*
X006524Y026400D01*
X006747Y025914D01*
X006747Y025914D01*
X007097Y025509D01*
X007547Y025220D01*
X007547Y025220D01*
X008061Y025069D01*
X008596Y025069D01*
X009109Y025220D01*
X009372Y025389D02*
X011992Y025389D01*
X012325Y025389D02*
X012340Y025389D01*
X012325Y025150D02*
X012340Y025150D01*
X012325Y024912D02*
X012340Y024912D01*
X012340Y024883D02*
X012935Y024883D01*
X012935Y024843D01*
X012920Y024749D01*
X012890Y024659D01*
X012847Y024575D01*
X012792Y024498D01*
X012725Y024431D01*
X012648Y024375D01*
X012563Y024332D01*
X012473Y024303D01*
X012379Y024288D01*
X012340Y024288D01*
X012340Y024883D01*
X012325Y024673D02*
X012340Y024673D01*
X012325Y024435D02*
X012340Y024435D01*
X012728Y024435D02*
X015936Y024435D01*
X015940Y024431D02*
X016016Y024375D01*
X016101Y024332D01*
X016191Y024303D01*
X016285Y024288D01*
X016325Y024288D01*
X016325Y024883D01*
X016340Y024883D01*
X016340Y024898D01*
X016935Y024898D01*
X016935Y024938D01*
X016920Y025032D01*
X016890Y025122D01*
X016847Y025206D01*
X016792Y025283D01*
X016725Y025350D01*
X016648Y025406D01*
X016563Y025449D01*
X016473Y025478D01*
X016379Y025493D01*
X016340Y025493D01*
X016340Y024898D01*
X016325Y024898D01*
X016325Y025493D01*
X016285Y025493D01*
X016191Y025478D01*
X016101Y025449D01*
X016016Y025406D01*
X015940Y025350D01*
X015872Y025283D01*
X015817Y025206D01*
X015774Y025122D01*
X015744Y025032D01*
X015730Y024938D01*
X015730Y024898D01*
X016324Y024898D01*
X016324Y024883D01*
X015730Y024883D01*
X015730Y024843D01*
X015744Y024749D01*
X015774Y024659D01*
X015817Y024575D01*
X015872Y024498D01*
X015940Y024431D01*
X015769Y024673D02*
X012895Y024673D01*
X012935Y024912D02*
X015730Y024912D01*
X015788Y025150D02*
X012876Y025150D01*
X012672Y025389D02*
X015992Y025389D01*
X016325Y025389D02*
X016340Y025389D01*
X016325Y025150D02*
X016340Y025150D01*
X016325Y024912D02*
X016340Y024912D01*
X016340Y024883D02*
X016935Y024883D01*
X016935Y024843D01*
X016920Y024749D01*
X016890Y024659D01*
X016847Y024575D01*
X016792Y024498D01*
X016725Y024431D01*
X016648Y024375D01*
X016563Y024332D01*
X016473Y024303D01*
X016379Y024288D01*
X016340Y024288D01*
X016340Y024883D01*
X016325Y024673D02*
X016340Y024673D01*
X016325Y024435D02*
X016340Y024435D01*
X016728Y024435D02*
X022196Y024435D01*
X022202Y024474D02*
X022187Y024379D01*
X022187Y024341D01*
X022787Y024341D01*
X022787Y024322D01*
X022806Y024322D01*
X022806Y023722D01*
X022845Y023722D01*
X022939Y023737D01*
X023031Y023766D01*
X023116Y023810D01*
X023194Y023866D01*
X023262Y023934D01*
X023318Y024012D01*
X023362Y024097D01*
X023391Y024189D01*
X023406Y024284D01*
X023406Y024322D01*
X022807Y024322D01*
X022807Y024341D01*
X023406Y024341D01*
X023406Y024379D01*
X023391Y024474D01*
X023362Y024566D01*
X023318Y024651D01*
X023262Y024729D01*
X023194Y024797D01*
X023116Y024853D01*
X023031Y024897D01*
X022939Y024926D01*
X022845Y024941D01*
X022806Y024941D01*
X022806Y024341D01*
X022787Y024341D01*
X022787Y024941D01*
X022749Y024941D01*
X022654Y024926D01*
X022563Y024897D01*
X022477Y024853D01*
X022399Y024797D01*
X022331Y024729D01*
X022275Y024651D01*
X022231Y024566D01*
X022202Y024474D01*
X022291Y024673D02*
X016895Y024673D01*
X016935Y024912D02*
X022608Y024912D01*
X022787Y024912D02*
X022806Y024912D01*
X022985Y024912D02*
X023895Y024912D01*
X023895Y025150D02*
X020879Y025150D01*
X021117Y025220D02*
X021117Y025220D01*
X021567Y025509D01*
X021567Y025509D01*
X021567Y025509D01*
X021918Y025914D01*
X022140Y026400D01*
X022140Y026400D01*
X022216Y026930D01*
X022140Y027460D01*
X021918Y027946D01*
X021918Y027946D01*
X021567Y028351D01*
X021117Y028640D01*
X021117Y028640D01*
X020603Y028791D01*
X020068Y028791D01*
X019555Y028640D01*
X019555Y028640D01*
X019105Y028351D01*
X019105Y028351D01*
X019105Y028351D01*
X018754Y027946D01*
X018532Y027460D01*
X018456Y026930D01*
X018532Y026400D01*
X018754Y025914D01*
X019105Y025509D01*
X019555Y025220D01*
X020068Y025069D01*
X020603Y025069D01*
X021117Y025220D01*
X021379Y025389D02*
X023895Y025389D01*
X023895Y025627D02*
X021669Y025627D01*
X021876Y025866D02*
X023895Y025866D01*
X023895Y026104D02*
X022005Y026104D01*
X021918Y025914D02*
X021918Y025914D01*
X022113Y026343D02*
X023895Y026343D01*
X023895Y026581D02*
X022166Y026581D01*
X022200Y026820D02*
X023895Y026820D01*
X023895Y027058D02*
X022198Y027058D01*
X022163Y027297D02*
X023895Y027297D01*
X023895Y027535D02*
X022105Y027535D01*
X022140Y027460D02*
X022140Y027460D01*
X021996Y027774D02*
X023895Y027774D01*
X023895Y028012D02*
X021861Y028012D01*
X021654Y028251D02*
X023895Y028251D01*
X023895Y028489D02*
X021352Y028489D01*
X021567Y028351D02*
X021567Y028351D01*
X020819Y028728D02*
X023895Y028728D01*
X023895Y028966D02*
X016930Y028966D01*
X016935Y028938D02*
X016920Y029032D01*
X016890Y029122D01*
X016847Y029206D01*
X016792Y029283D01*
X016725Y029350D01*
X016648Y029406D01*
X016563Y029449D01*
X016473Y029478D01*
X016379Y029493D01*
X016340Y029493D01*
X016340Y028898D01*
X016935Y028898D01*
X016935Y028938D01*
X016935Y028883D02*
X016340Y028883D01*
X016340Y028898D01*
X016325Y028898D01*
X016325Y029493D01*
X016285Y029493D01*
X016191Y029478D01*
X016101Y029449D01*
X016016Y029406D01*
X015940Y029350D01*
X015872Y029283D01*
X015817Y029206D01*
X015774Y029122D01*
X015744Y029032D01*
X015730Y028938D01*
X015730Y028898D01*
X016324Y028898D01*
X016324Y028883D01*
X015730Y028883D01*
X015730Y028843D01*
X015744Y028749D01*
X015774Y028659D01*
X015817Y028575D01*
X015872Y028498D01*
X015940Y028431D01*
X016016Y028375D01*
X016101Y028332D01*
X016191Y028303D01*
X016285Y028288D01*
X016325Y028288D01*
X016325Y028883D01*
X016340Y028883D01*
X016340Y028288D01*
X016379Y028288D01*
X016473Y028303D01*
X016563Y028332D01*
X016648Y028375D01*
X016725Y028431D01*
X016792Y028498D01*
X016847Y028575D01*
X016890Y028659D01*
X016920Y028749D01*
X016935Y028843D01*
X016935Y028883D01*
X016913Y028728D02*
X019853Y028728D01*
X019320Y028489D02*
X016783Y028489D01*
X016340Y028489D02*
X016325Y028489D01*
X016325Y028728D02*
X016340Y028728D01*
X016325Y028966D02*
X016340Y028966D01*
X016325Y029205D02*
X016340Y029205D01*
X016325Y029443D02*
X016340Y029443D01*
X016575Y029443D02*
X023895Y029443D01*
X023895Y029205D02*
X016848Y029205D01*
X016089Y029443D02*
X012575Y029443D01*
X012563Y029449D02*
X012473Y029478D01*
X012379Y029493D01*
X012340Y029493D01*
X012340Y028898D01*
X012935Y028898D01*
X012935Y028938D01*
X012920Y029032D01*
X012890Y029122D01*
X012847Y029206D01*
X012792Y029283D01*
X012725Y029350D01*
X012648Y029406D01*
X012563Y029449D01*
X012340Y029443D02*
X012325Y029443D01*
X012325Y029493D02*
X012285Y029493D01*
X012191Y029478D01*
X012101Y029449D01*
X012016Y029406D01*
X011940Y029350D01*
X011872Y029283D01*
X011817Y029206D01*
X011774Y029122D01*
X011744Y029032D01*
X011730Y028938D01*
X011730Y028898D01*
X012324Y028898D01*
X012324Y028883D01*
X011730Y028883D01*
X011730Y028843D01*
X011744Y028749D01*
X011774Y028659D01*
X011817Y028575D01*
X011872Y028498D01*
X011940Y028431D01*
X012016Y028375D01*
X012101Y028332D01*
X012191Y028303D01*
X012285Y028288D01*
X012325Y028288D01*
X012325Y028883D01*
X012340Y028883D01*
X012340Y028898D01*
X012325Y028898D01*
X012325Y029493D01*
X012089Y029443D02*
X004769Y029443D01*
X004769Y029205D02*
X011816Y029205D01*
X011734Y028966D02*
X004769Y028966D01*
X004769Y028728D02*
X007845Y028728D01*
X007547Y028640D02*
X007547Y028640D01*
X007312Y028489D02*
X004769Y028489D01*
X004769Y028251D02*
X007010Y028251D01*
X006803Y028012D02*
X004769Y028012D01*
X004769Y027774D02*
X006668Y027774D01*
X006747Y027946D02*
X006747Y027946D01*
X006559Y027535D02*
X004769Y027535D01*
X004769Y027297D02*
X006501Y027297D01*
X006466Y027058D02*
X004769Y027058D01*
X004769Y026820D02*
X006464Y026820D01*
X006498Y026581D02*
X004769Y026581D01*
X004769Y026343D02*
X006551Y026343D01*
X006524Y026400D02*
X006524Y026400D01*
X006660Y026104D02*
X004769Y026104D01*
X004769Y025866D02*
X006788Y025866D01*
X006995Y025627D02*
X004769Y025627D01*
X006066Y025389D02*
X007285Y025389D01*
X007097Y025509D02*
X007097Y025509D01*
X007785Y025150D02*
X006238Y025150D01*
X009109Y028640D02*
X009109Y028640D01*
X009344Y028489D02*
X011881Y028489D01*
X011751Y028728D02*
X008811Y028728D01*
X009559Y028351D02*
X009559Y028351D01*
X009646Y028251D02*
X019018Y028251D01*
X018811Y028012D02*
X009853Y028012D01*
X009989Y027774D02*
X018675Y027774D01*
X018754Y027946D02*
X018754Y027946D01*
X018567Y027535D02*
X014507Y027535D01*
X014464Y027553D02*
X014200Y027553D01*
X013957Y027452D01*
X013770Y027266D01*
X013670Y027022D01*
X013670Y026759D01*
X013770Y026515D01*
X013957Y026329D01*
X014200Y026228D01*
X014464Y026228D01*
X014707Y026329D01*
X014894Y026515D01*
X014995Y026759D01*
X014995Y027022D01*
X014894Y027266D01*
X014707Y027452D01*
X014464Y027553D01*
X014157Y027535D02*
X010097Y027535D01*
X010132Y027460D02*
X010132Y027460D01*
X010155Y027297D02*
X013801Y027297D01*
X013684Y027058D02*
X010190Y027058D01*
X010192Y026820D02*
X013670Y026820D01*
X013743Y026581D02*
X010158Y026581D01*
X010106Y026343D02*
X013943Y026343D01*
X014721Y026343D02*
X018558Y026343D01*
X018506Y026581D02*
X014921Y026581D01*
X014995Y026820D02*
X018472Y026820D01*
X018474Y027058D02*
X014980Y027058D01*
X014863Y027297D02*
X018509Y027297D01*
X018667Y026104D02*
X009997Y026104D01*
X009910Y025914D02*
X009910Y025914D01*
X009868Y025866D02*
X018796Y025866D01*
X019003Y025627D02*
X009661Y025627D01*
X011818Y023719D02*
X023895Y023719D01*
X023895Y023481D02*
X019271Y023481D01*
X019236Y023516D02*
X019422Y023330D01*
X019523Y023086D01*
X019523Y022821D01*
X019422Y022577D01*
X019236Y022391D01*
X018992Y022290D01*
X018728Y022290D01*
X018484Y022391D01*
X018297Y022577D01*
X018196Y022821D01*
X018196Y023086D01*
X018297Y023330D01*
X018484Y023516D01*
X018728Y023617D01*
X018992Y023617D01*
X019236Y023516D01*
X019459Y023242D02*
X020472Y023242D01*
X020479Y023252D02*
X020437Y023193D01*
X020404Y023129D01*
X020382Y023061D01*
X020370Y022990D01*
X020370Y022954D01*
X020828Y022954D01*
X020828Y023411D01*
X020792Y023411D01*
X020721Y023400D01*
X020652Y023378D01*
X020588Y023345D01*
X020530Y023303D01*
X020479Y023252D01*
X020372Y023004D02*
X019523Y023004D01*
X019500Y022765D02*
X020410Y022765D01*
X020404Y022778D02*
X020437Y022714D01*
X020479Y022655D01*
X020530Y022604D01*
X020588Y022562D01*
X020652Y022529D01*
X020721Y022507D01*
X020792Y022496D01*
X020828Y022496D01*
X020828Y022954D01*
X020828Y022954D01*
X020828Y023411D01*
X020864Y023411D01*
X020935Y023400D01*
X021004Y023378D01*
X021068Y023345D01*
X021126Y023303D01*
X021177Y023252D01*
X021220Y023193D01*
X021252Y023129D01*
X021275Y023061D01*
X021286Y022990D01*
X021286Y022954D01*
X020828Y022954D01*
X020828Y022954D01*
X020828Y022954D01*
X020370Y022954D01*
X020370Y022918D01*
X020382Y022846D01*
X020404Y022778D01*
X020661Y022527D02*
X019371Y022527D01*
X018348Y022527D02*
X011719Y022527D01*
X011719Y022765D02*
X018219Y022765D01*
X018196Y023004D02*
X011719Y023004D01*
X011719Y023242D02*
X018261Y023242D01*
X018448Y023481D02*
X011739Y023481D01*
X011763Y022288D02*
X023895Y022288D01*
X023895Y022050D02*
X011818Y022050D01*
X011743Y021811D02*
X023895Y021811D01*
X023895Y021573D02*
X011089Y021573D01*
X011207Y021334D02*
X023895Y021334D01*
X023895Y021096D02*
X011165Y021096D01*
X011119Y020857D02*
X023895Y020857D01*
X023895Y020619D02*
X019383Y020619D01*
X019124Y020619D02*
X011116Y020619D01*
X010976Y020410D02*
X010976Y020410D01*
X010946Y020380D02*
X018854Y020380D01*
X018815Y020142D02*
X010707Y020142D01*
X010773Y020208D02*
X010773Y020208D01*
X012944Y018711D02*
X012964Y018711D01*
X012944Y018472D02*
X012964Y018472D01*
X012944Y018234D02*
X012964Y018234D01*
X012944Y017995D02*
X012964Y017995D01*
X013385Y017995D02*
X014767Y017995D01*
X014747Y018002D02*
X014815Y017979D01*
X014887Y017968D01*
X014923Y017968D01*
X014959Y017968D01*
X015030Y017979D01*
X015098Y018002D01*
X015162Y018034D01*
X015221Y018077D01*
X015272Y018128D01*
X015314Y018186D01*
X015347Y018250D01*
X015369Y018319D01*
X015380Y018390D01*
X015380Y018426D01*
X014923Y018426D01*
X015380Y018426D01*
X015380Y018462D01*
X015369Y018533D01*
X015347Y018602D01*
X015314Y018666D01*
X015272Y018724D01*
X015221Y018775D01*
X015162Y018818D01*
X015098Y018850D01*
X015030Y018873D01*
X014959Y018884D01*
X014923Y018884D01*
X014923Y018426D01*
X014923Y018426D01*
X014923Y017968D01*
X014923Y018426D01*
X014923Y018426D01*
X014923Y018426D01*
X014923Y018884D01*
X014887Y018884D01*
X014815Y018873D01*
X014747Y018850D01*
X014683Y018818D01*
X014624Y018775D01*
X014573Y018724D01*
X014531Y018666D01*
X014498Y018602D01*
X014476Y018533D01*
X014465Y018462D01*
X014465Y018426D01*
X014465Y018390D01*
X014476Y018319D01*
X014498Y018250D01*
X014531Y018186D01*
X014573Y018128D01*
X014624Y018077D01*
X014683Y018034D01*
X014747Y018002D01*
X014923Y017995D02*
X014923Y017995D01*
X015078Y017995D02*
X016383Y017995D01*
X016252Y018234D02*
X015338Y018234D01*
X015379Y018472D02*
X016227Y018472D01*
X016290Y018711D02*
X015282Y018711D01*
X014923Y018711D02*
X014923Y018711D01*
X014923Y018472D02*
X014923Y018472D01*
X014923Y018426D02*
X014923Y018426D01*
X014465Y018426D01*
X014923Y018426D01*
X014923Y018234D02*
X014923Y018234D01*
X014507Y018234D02*
X013533Y018234D01*
X013564Y018472D02*
X014466Y018472D01*
X014563Y018711D02*
X013493Y018711D01*
X013538Y017518D02*
X007919Y017518D01*
X007771Y017280D02*
X013300Y017280D01*
X014832Y017280D02*
X014832Y017280D01*
X014832Y017041D02*
X014832Y017041D01*
X014832Y016803D02*
X014832Y016803D01*
X015265Y016803D02*
X016265Y016803D01*
X016265Y017041D02*
X015312Y017041D01*
X015279Y017280D02*
X016425Y017280D01*
X017325Y017280D02*
X017425Y017280D01*
X018325Y017280D02*
X018425Y017280D01*
X019598Y017757D02*
X023895Y017757D01*
X023895Y017995D02*
X019692Y017995D01*
X019644Y018234D02*
X023895Y018234D01*
X023895Y018472D02*
X019612Y018472D01*
X019612Y018711D02*
X023895Y018711D01*
X023895Y018949D02*
X019612Y018949D01*
X019612Y019188D02*
X023895Y019188D01*
X023895Y019426D02*
X019612Y019426D01*
X019612Y019665D02*
X023895Y019665D01*
X023895Y019903D02*
X019612Y019903D01*
X019692Y020142D02*
X023895Y020142D01*
X023895Y020380D02*
X019652Y020380D01*
X020828Y022496D02*
X020864Y022496D01*
X020935Y022507D01*
X021004Y022529D01*
X021068Y022562D01*
X021126Y022604D01*
X021177Y022655D01*
X021220Y022714D01*
X021252Y022778D01*
X021275Y022846D01*
X021286Y022918D01*
X021286Y022954D01*
X020828Y022954D01*
X020828Y022954D01*
X020828Y022496D01*
X020828Y022527D02*
X020828Y022527D01*
X020995Y022527D02*
X023895Y022527D01*
X023895Y022765D02*
X021246Y022765D01*
X021284Y023004D02*
X023895Y023004D01*
X023895Y023242D02*
X021184Y023242D01*
X020828Y023242D02*
X020828Y023242D01*
X020828Y023004D02*
X020828Y023004D01*
X020828Y022765D02*
X020828Y022765D01*
X022787Y023958D02*
X022806Y023958D01*
X022787Y024196D02*
X022806Y024196D01*
X022787Y024435D02*
X022806Y024435D01*
X022787Y024673D02*
X022806Y024673D01*
X023302Y024673D02*
X023895Y024673D01*
X023895Y024435D02*
X023398Y024435D01*
X023392Y024196D02*
X023895Y024196D01*
X023895Y023958D02*
X023279Y023958D01*
X019793Y025150D02*
X016876Y025150D01*
X016672Y025389D02*
X019292Y025389D01*
X019105Y025509D02*
X019105Y025509D01*
X019555Y025220D02*
X019555Y025220D01*
X015881Y028489D02*
X012783Y028489D01*
X012792Y028498D02*
X012847Y028575D01*
X012890Y028659D01*
X012920Y028749D01*
X012935Y028843D01*
X012935Y028883D01*
X012340Y028883D01*
X012340Y028288D01*
X012379Y028288D01*
X012473Y028303D01*
X012563Y028332D01*
X012648Y028375D01*
X012725Y028431D01*
X012792Y028498D01*
X012913Y028728D02*
X015751Y028728D01*
X015734Y028966D02*
X012930Y028966D01*
X012848Y029205D02*
X015816Y029205D01*
X012340Y029205D02*
X012325Y029205D01*
X012325Y028966D02*
X012340Y028966D01*
X012325Y028728D02*
X012340Y028728D01*
X012325Y028489D02*
X012340Y028489D01*
X007703Y030636D02*
X020961Y030636D01*
X020897Y030874D02*
X007767Y030874D01*
X007821Y031113D02*
X020843Y031113D01*
X020843Y031351D02*
X007821Y031351D01*
X007821Y031590D02*
X020843Y031590D01*
X020843Y031828D02*
X007821Y031828D01*
X007821Y032067D02*
X020843Y032067D01*
X020843Y032305D02*
X007821Y032305D01*
X007575Y030397D02*
X021089Y030397D01*
X021236Y030159D02*
X007428Y030159D01*
X007450Y030181D02*
X007450Y030181D01*
X007189Y029920D02*
X021475Y029920D01*
X021826Y029682D02*
X006838Y029682D01*
X006682Y029591D02*
X006682Y029591D01*
X007105Y029835D02*
X007105Y029835D01*
X017243Y015372D02*
X017508Y015372D01*
X018485Y014895D02*
X020243Y014895D01*
X021759Y013225D02*
X023895Y013225D01*
X023895Y012987D02*
X021463Y012987D01*
X021857Y013464D02*
X023895Y013464D01*
X023895Y013702D02*
X021811Y013702D01*
X022619Y011992D02*
X022619Y011536D01*
X022619Y011536D01*
X022619Y011536D01*
X023076Y011536D01*
X023076Y011801D01*
X023061Y011857D01*
X023032Y011908D01*
X022991Y011948D01*
X022941Y011977D01*
X022885Y011992D01*
X022619Y011992D01*
X022619Y011794D02*
X022619Y011794D01*
X022619Y011556D02*
X022619Y011556D01*
X022619Y011317D02*
X022619Y011317D01*
X022619Y011008D02*
X022619Y010552D01*
X022619Y010552D01*
X022619Y010552D01*
X022619Y010096D01*
X022885Y010096D01*
X022941Y010111D01*
X022991Y010140D01*
X023032Y010181D01*
X023061Y010231D01*
X023076Y010287D01*
X023076Y010552D01*
X023076Y010817D01*
X023061Y010873D01*
X023032Y010923D01*
X022991Y010964D01*
X022941Y010993D01*
X022885Y011008D01*
X022619Y011008D01*
X022619Y010840D02*
X022619Y010840D01*
X022619Y010602D02*
X022619Y010602D01*
X022619Y010552D02*
X023076Y010552D01*
X022619Y010552D01*
X022619Y010552D01*
X022619Y010363D02*
X022619Y010363D01*
X022619Y010125D02*
X022619Y010125D01*
X022274Y010125D02*
X022234Y010125D01*
X022964Y010125D02*
X023895Y010125D01*
X023895Y010363D02*
X023076Y010363D01*
X023076Y010602D02*
X023895Y010602D01*
X023895Y010840D02*
X023070Y010840D01*
X023076Y011317D02*
X023895Y011317D01*
X023895Y011079D02*
X022203Y011079D01*
X023076Y011556D02*
X023895Y011556D01*
X023895Y011794D02*
X023076Y011794D01*
X023897Y007206D02*
X022050Y007206D01*
X022056Y007166D01*
X021980Y006659D01*
X021980Y006659D01*
X021757Y006197D01*
X021757Y006197D01*
X021408Y005821D01*
X021408Y005821D01*
X020964Y005565D01*
X020964Y005565D01*
X020464Y005451D01*
X020464Y005451D01*
X019953Y005489D01*
X019953Y005489D01*
X019476Y005677D01*
X019476Y005677D01*
X019075Y005996D01*
X019075Y005996D01*
X019075Y005996D01*
X018786Y006420D01*
X018786Y006420D01*
X018635Y006910D01*
X018635Y007206D01*
X015907Y007206D01*
X015907Y004666D01*
X013938Y003485D01*
X013938Y001577D01*
X020846Y001577D01*
X020846Y003020D01*
X020972Y003491D01*
X020972Y003491D01*
X021216Y003914D01*
X021216Y003914D01*
X021561Y004259D01*
X021561Y004259D01*
X021983Y004502D01*
X021983Y004502D01*
X022454Y004629D01*
X023897Y004629D01*
X023897Y007206D01*
X023897Y007024D02*
X022035Y007024D01*
X021999Y006786D02*
X023897Y006786D01*
X023897Y006547D02*
X021926Y006547D01*
X021811Y006309D02*
X023897Y006309D01*
X023897Y006070D02*
X021639Y006070D01*
X021418Y005832D02*
X023897Y005832D01*
X023897Y005593D02*
X021013Y005593D01*
X019840Y004976D02*
X019914Y004819D01*
X019973Y004655D01*
X020018Y004487D01*
X020049Y004316D01*
X020061Y004176D01*
X018192Y004176D01*
X017952Y004176D01*
X017952Y003936D01*
X016083Y003936D01*
X016096Y003796D01*
X016126Y003624D01*
X016171Y003456D01*
X016230Y003293D01*
X016304Y003135D01*
X016391Y002985D01*
X016491Y002842D01*
X016602Y002709D01*
X016725Y002586D01*
X016859Y002474D01*
X017001Y002375D01*
X017152Y002288D01*
X017309Y002214D01*
X017473Y002155D01*
X017641Y002110D01*
X017812Y002079D01*
X017952Y002067D01*
X017952Y003936D01*
X018192Y003936D01*
X018192Y002067D01*
X018332Y002079D01*
X018504Y002110D01*
X018672Y002155D01*
X018835Y002214D01*
X018993Y002288D01*
X019143Y002375D01*
X019286Y002474D01*
X019419Y002586D01*
X019542Y002709D01*
X019654Y002842D01*
X019754Y002985D01*
X019840Y003135D01*
X019914Y003293D01*
X019973Y003456D01*
X020018Y003624D01*
X020049Y003796D01*
X020061Y003936D01*
X018192Y003936D01*
X018192Y004176D01*
X018192Y006045D01*
X018332Y006032D01*
X018504Y006002D01*
X018672Y005957D01*
X018835Y005898D01*
X018993Y005824D01*
X019143Y005737D01*
X019286Y005637D01*
X019419Y005526D01*
X019542Y005403D01*
X019654Y005270D01*
X019754Y005127D01*
X019840Y004976D01*
X019887Y004878D02*
X023897Y004878D01*
X023897Y005116D02*
X019760Y005116D01*
X019582Y005355D02*
X023897Y005355D01*
X023897Y004639D02*
X019978Y004639D01*
X020034Y004401D02*
X021807Y004401D01*
X021464Y004162D02*
X018192Y004162D01*
X018192Y003924D02*
X017952Y003924D01*
X017952Y004162D02*
X015067Y004162D01*
X014926Y003828D02*
X014832Y003843D01*
X014793Y003843D01*
X014793Y003247D01*
X015389Y003247D01*
X015389Y003287D01*
X015374Y003380D01*
X015344Y003471D01*
X015301Y003555D01*
X015245Y003632D01*
X015178Y003700D01*
X015101Y003755D01*
X015017Y003799D01*
X014926Y003828D01*
X014777Y003843D02*
X014737Y003843D01*
X014643Y003828D01*
X014553Y003799D01*
X014468Y003755D01*
X014391Y003700D01*
X014324Y003632D01*
X014268Y003555D01*
X014225Y003471D01*
X014196Y003380D01*
X014181Y003287D01*
X014181Y003247D01*
X014777Y003247D01*
X014777Y003843D01*
X014669Y003924D02*
X016084Y003924D01*
X016115Y003685D02*
X015193Y003685D01*
X015352Y003447D02*
X016174Y003447D01*
X016270Y003208D02*
X015389Y003208D01*
X015389Y003191D02*
X015389Y003231D01*
X014793Y003231D01*
X014793Y003247D01*
X014777Y003247D01*
X014777Y003231D01*
X014793Y003231D01*
X014793Y002247D01*
X015389Y002247D01*
X015389Y002287D01*
X015374Y002380D01*
X015344Y002471D01*
X015301Y002555D01*
X015245Y002632D01*
X015178Y002700D01*
X015124Y002739D01*
X015178Y002778D01*
X015245Y002846D01*
X015301Y002922D01*
X015344Y003007D01*
X015374Y003098D01*
X015389Y003191D01*
X015325Y002970D02*
X016402Y002970D01*
X016584Y002731D02*
X015135Y002731D01*
X015333Y002493D02*
X016837Y002493D01*
X017224Y002254D02*
X015389Y002254D01*
X015389Y002231D02*
X014793Y002231D01*
X014793Y002247D01*
X014777Y002247D01*
X014777Y002843D01*
X014777Y003231D01*
X014181Y003231D01*
X014181Y003191D01*
X014196Y003098D01*
X014225Y003007D01*
X014268Y002922D01*
X014324Y002846D01*
X014391Y002778D01*
X014446Y002739D01*
X014391Y002700D01*
X014324Y002632D01*
X014268Y002555D01*
X014225Y002471D01*
X014196Y002380D01*
X014181Y002287D01*
X014181Y002247D01*
X014777Y002247D01*
X014777Y002231D01*
X014793Y002231D01*
X014793Y001635D01*
X014832Y001635D01*
X014926Y001650D01*
X015017Y001679D01*
X015101Y001723D01*
X015178Y001778D01*
X015245Y001846D01*
X015301Y001922D01*
X015344Y002007D01*
X015374Y002098D01*
X015389Y002191D01*
X015389Y002231D01*
X015347Y002016D02*
X020846Y002016D01*
X020846Y002254D02*
X018921Y002254D01*
X019307Y002493D02*
X020846Y002493D01*
X020846Y002731D02*
X019560Y002731D01*
X019743Y002970D02*
X020846Y002970D01*
X020896Y003208D02*
X019874Y003208D01*
X019970Y003447D02*
X020960Y003447D01*
X021084Y003685D02*
X020029Y003685D01*
X020060Y003924D02*
X021226Y003924D01*
X019689Y005593D02*
X019339Y005593D01*
X019282Y005832D02*
X018977Y005832D01*
X019025Y006070D02*
X015907Y006070D01*
X015907Y005832D02*
X017167Y005832D01*
X017152Y005824D02*
X017001Y005737D01*
X016859Y005637D01*
X016725Y005526D01*
X016602Y005403D01*
X016491Y005270D01*
X016391Y005127D01*
X016304Y004976D01*
X016230Y004819D01*
X016171Y004655D01*
X016126Y004487D01*
X016096Y004316D01*
X016083Y004176D01*
X017952Y004176D01*
X017952Y006045D01*
X017812Y006032D01*
X017641Y006002D01*
X017473Y005957D01*
X017309Y005898D01*
X017152Y005824D01*
X016806Y005593D02*
X015907Y005593D01*
X015907Y005355D02*
X016562Y005355D01*
X016384Y005116D02*
X015907Y005116D01*
X015907Y004878D02*
X016258Y004878D01*
X016166Y004639D02*
X015862Y004639D01*
X016111Y004401D02*
X015464Y004401D01*
X015173Y004639D02*
X014857Y004639D01*
X014832Y004635D02*
X014926Y004650D01*
X015017Y004679D01*
X015101Y004723D01*
X015178Y004778D01*
X015245Y004846D01*
X015301Y004922D01*
X015344Y005007D01*
X015374Y005098D01*
X015389Y005191D01*
X015389Y005231D01*
X014793Y005231D01*
X014793Y005247D01*
X015389Y005247D01*
X015389Y005287D01*
X015374Y005380D01*
X015344Y005471D01*
X015301Y005555D01*
X015245Y005632D01*
X015178Y005700D01*
X015124Y005739D01*
X015178Y005778D01*
X015245Y005846D01*
X015301Y005922D01*
X015344Y006007D01*
X015374Y006098D01*
X015389Y006191D01*
X015389Y006231D01*
X014793Y006231D01*
X014793Y006247D01*
X015389Y006247D01*
X015389Y006287D01*
X015374Y006380D01*
X015344Y006471D01*
X015301Y006555D01*
X015245Y006632D01*
X015178Y006700D01*
X015101Y006755D01*
X015017Y006799D01*
X014926Y006828D01*
X014832Y006843D01*
X014793Y006843D01*
X014793Y006247D01*
X014777Y006247D01*
X014777Y006843D01*
X014737Y006843D01*
X014643Y006828D01*
X014553Y006799D01*
X014468Y006755D01*
X014391Y006700D01*
X014324Y006632D01*
X014268Y006555D01*
X014225Y006471D01*
X014196Y006380D01*
X014181Y006287D01*
X014181Y006247D01*
X014777Y006247D01*
X014777Y006231D01*
X014793Y006231D01*
X014793Y005635D01*
X014793Y005247D01*
X014777Y005247D01*
X014777Y006231D01*
X014181Y006231D01*
X014181Y006191D01*
X014196Y006098D01*
X014225Y006007D01*
X014268Y005922D01*
X014324Y005846D01*
X014391Y005778D01*
X014446Y005739D01*
X014391Y005700D01*
X014324Y005632D01*
X014268Y005555D01*
X014225Y005471D01*
X014196Y005380D01*
X014181Y005287D01*
X014181Y005247D01*
X014777Y005247D01*
X014777Y005231D01*
X014793Y005231D01*
X014793Y004635D01*
X014832Y004635D01*
X014793Y004639D02*
X014777Y004639D01*
X014777Y004635D02*
X014777Y005231D01*
X014181Y005231D01*
X014181Y005191D01*
X014196Y005098D01*
X014225Y005007D01*
X014268Y004922D01*
X014324Y004846D01*
X014391Y004778D01*
X014468Y004723D01*
X014553Y004679D01*
X014643Y004650D01*
X014737Y004635D01*
X014777Y004635D01*
X014713Y004639D02*
X012498Y004639D01*
X012493Y004655D02*
X012434Y004819D01*
X012360Y004976D01*
X012273Y005127D01*
X012173Y005270D01*
X012062Y005403D01*
X011939Y005526D01*
X011805Y005637D01*
X011663Y005737D01*
X011512Y005824D01*
X011355Y005898D01*
X011191Y005957D01*
X011023Y006002D01*
X010852Y006032D01*
X010712Y006045D01*
X010712Y004176D01*
X012581Y004176D01*
X012568Y004316D01*
X012538Y004487D01*
X012493Y004655D01*
X012406Y004878D02*
X014301Y004878D01*
X014193Y005116D02*
X012280Y005116D01*
X012102Y005355D02*
X014192Y005355D01*
X014296Y005593D02*
X011858Y005593D01*
X011497Y005832D02*
X014338Y005832D01*
X014205Y006070D02*
X009631Y006070D01*
X009749Y006197D02*
X009749Y006197D01*
X009972Y006659D01*
X010048Y007166D01*
X010042Y007206D01*
X015513Y007206D01*
X015513Y004843D01*
X013545Y003662D01*
X013545Y001577D01*
X007818Y001577D01*
X007818Y003020D01*
X007692Y003491D01*
X007692Y003491D01*
X007448Y003914D01*
X007103Y004259D01*
X006681Y004502D01*
X006210Y004629D01*
X004767Y004629D01*
X004767Y007206D01*
X006627Y007206D01*
X006627Y006910D01*
X006778Y006420D01*
X006778Y006420D01*
X007067Y005996D01*
X007468Y005677D01*
X007945Y005489D01*
X007945Y005489D01*
X008457Y005451D01*
X008956Y005565D01*
X008956Y005565D01*
X009400Y005821D01*
X009400Y005821D01*
X009749Y006197D01*
X009803Y006309D02*
X014184Y006309D01*
X014264Y006547D02*
X009918Y006547D01*
X009972Y006659D02*
X009972Y006659D01*
X009991Y006786D02*
X014527Y006786D01*
X014777Y006786D02*
X014793Y006786D01*
X014777Y006547D02*
X014793Y006547D01*
X014777Y006309D02*
X014793Y006309D01*
X014777Y006070D02*
X014793Y006070D01*
X014777Y005832D02*
X014793Y005832D01*
X014777Y005593D02*
X014793Y005593D01*
X014777Y005355D02*
X014793Y005355D01*
X014777Y005116D02*
X014793Y005116D01*
X014777Y004878D02*
X014793Y004878D01*
X015269Y004878D02*
X015513Y004878D01*
X015513Y005116D02*
X015377Y005116D01*
X015378Y005355D02*
X015513Y005355D01*
X015513Y005593D02*
X015274Y005593D01*
X015231Y005832D02*
X015513Y005832D01*
X015513Y006070D02*
X015365Y006070D01*
X015385Y006309D02*
X015513Y006309D01*
X015513Y006547D02*
X015306Y006547D01*
X015513Y006786D02*
X015042Y006786D01*
X015513Y007024D02*
X010027Y007024D01*
X010160Y006002D02*
X009992Y005957D01*
X009829Y005898D01*
X009671Y005824D01*
X009521Y005737D01*
X009378Y005637D01*
X009245Y005526D01*
X009122Y005403D01*
X009010Y005270D01*
X008911Y005127D01*
X008824Y004976D01*
X008750Y004819D01*
X008691Y004655D01*
X008646Y004487D01*
X008615Y004316D01*
X008603Y004176D01*
X010472Y004176D01*
X010472Y006045D01*
X010332Y006032D01*
X010160Y006002D01*
X010472Y005832D02*
X010712Y005832D01*
X010712Y005593D02*
X010472Y005593D01*
X010472Y005355D02*
X010712Y005355D01*
X010712Y005116D02*
X010472Y005116D01*
X010472Y004878D02*
X010712Y004878D01*
X010712Y004639D02*
X010472Y004639D01*
X010472Y004401D02*
X010712Y004401D01*
X010712Y004176D02*
X010472Y004176D01*
X010472Y003936D01*
X010712Y003936D01*
X010712Y004176D01*
X010712Y004162D02*
X014378Y004162D01*
X014775Y004401D02*
X012553Y004401D01*
X012581Y003936D02*
X010712Y003936D01*
X010712Y002067D01*
X010852Y002079D01*
X011023Y002110D01*
X011191Y002155D01*
X011355Y002214D01*
X011512Y002288D01*
X011663Y002375D01*
X011805Y002474D01*
X011939Y002586D01*
X012062Y002709D01*
X012173Y002842D01*
X012273Y002985D01*
X012360Y003135D01*
X012434Y003293D01*
X012493Y003456D01*
X012538Y003624D01*
X012568Y003796D01*
X012581Y003936D01*
X012580Y003924D02*
X013980Y003924D01*
X014272Y003685D02*
X014377Y003685D01*
X014217Y003447D02*
X013938Y003447D01*
X013938Y003208D02*
X014181Y003208D01*
X014244Y002970D02*
X013938Y002970D01*
X013938Y002731D02*
X014435Y002731D01*
X014236Y002493D02*
X013938Y002493D01*
X013938Y002254D02*
X014181Y002254D01*
X014181Y002231D02*
X014181Y002191D01*
X014196Y002098D01*
X014225Y002007D01*
X014268Y001922D01*
X014324Y001846D01*
X014391Y001778D01*
X014468Y001723D01*
X014553Y001679D01*
X014643Y001650D01*
X014737Y001635D01*
X014777Y001635D01*
X014777Y002231D01*
X014181Y002231D01*
X014222Y002016D02*
X013938Y002016D01*
X013938Y001777D02*
X014393Y001777D01*
X014777Y001777D02*
X014793Y001777D01*
X014777Y002016D02*
X014793Y002016D01*
X014777Y002254D02*
X014793Y002254D01*
X014777Y002493D02*
X014793Y002493D01*
X014777Y002731D02*
X014793Y002731D01*
X014777Y002970D02*
X014793Y002970D01*
X014777Y003208D02*
X014793Y003208D01*
X014777Y003447D02*
X014793Y003447D01*
X014777Y003685D02*
X014793Y003685D01*
X013583Y003685D02*
X012549Y003685D01*
X012490Y003447D02*
X013545Y003447D01*
X013545Y003208D02*
X012394Y003208D01*
X012263Y002970D02*
X013545Y002970D01*
X013545Y002731D02*
X012080Y002731D01*
X011827Y002493D02*
X013545Y002493D01*
X013545Y002254D02*
X011440Y002254D01*
X010712Y002254D02*
X010472Y002254D01*
X010472Y002067D02*
X010332Y002079D01*
X010160Y002110D01*
X009992Y002155D01*
X009829Y002214D01*
X009671Y002288D01*
X009521Y002375D01*
X009378Y002474D01*
X009245Y002586D01*
X009122Y002709D01*
X009010Y002842D01*
X008911Y002985D01*
X008824Y003135D01*
X008750Y003293D01*
X008691Y003456D01*
X008646Y003624D01*
X008615Y003796D01*
X008603Y003936D01*
X010472Y003936D01*
X010472Y002067D01*
X010472Y002493D02*
X010712Y002493D01*
X010712Y002731D02*
X010472Y002731D01*
X010472Y002970D02*
X010712Y002970D01*
X010712Y003208D02*
X010472Y003208D01*
X010472Y003447D02*
X010712Y003447D01*
X010712Y003685D02*
X010472Y003685D01*
X010472Y003924D02*
X010712Y003924D01*
X010472Y004162D02*
X007200Y004162D01*
X007103Y004259D02*
X007103Y004259D01*
X006857Y004401D02*
X008630Y004401D01*
X008686Y004639D02*
X004767Y004639D01*
X004767Y004878D02*
X008777Y004878D01*
X008904Y005116D02*
X004767Y005116D01*
X004767Y005355D02*
X009082Y005355D01*
X009005Y005593D02*
X009325Y005593D01*
X009410Y005832D02*
X009687Y005832D01*
X008457Y005451D02*
X008457Y005451D01*
X007681Y005593D02*
X004767Y005593D01*
X004767Y005832D02*
X007274Y005832D01*
X007468Y005677D02*
X007468Y005677D01*
X007067Y005996D02*
X007067Y005996D01*
X007017Y006070D02*
X004767Y006070D01*
X004767Y006309D02*
X006854Y006309D01*
X006739Y006547D02*
X004767Y006547D01*
X004767Y006786D02*
X006666Y006786D01*
X006627Y007024D02*
X004767Y007024D01*
X006681Y004502D02*
X006681Y004502D01*
X007438Y003924D02*
X008604Y003924D01*
X008635Y003685D02*
X007580Y003685D01*
X007448Y003914D02*
X007448Y003914D01*
X007704Y003447D02*
X008694Y003447D01*
X008790Y003208D02*
X007768Y003208D01*
X007818Y002970D02*
X008921Y002970D01*
X009104Y002731D02*
X007818Y002731D01*
X007818Y002493D02*
X009357Y002493D01*
X009743Y002254D02*
X007818Y002254D01*
X007818Y002016D02*
X013545Y002016D01*
X013545Y001777D02*
X007818Y001777D01*
X015176Y001777D02*
X020846Y001777D01*
X018192Y002254D02*
X017952Y002254D01*
X017952Y002493D02*
X018192Y002493D01*
X018192Y002731D02*
X017952Y002731D01*
X017952Y002970D02*
X018192Y002970D01*
X018192Y003208D02*
X017952Y003208D01*
X017952Y003447D02*
X018192Y003447D01*
X018192Y003685D02*
X017952Y003685D01*
X017952Y004401D02*
X018192Y004401D01*
X018192Y004639D02*
X017952Y004639D01*
X017952Y004878D02*
X018192Y004878D01*
X018192Y005116D02*
X017952Y005116D01*
X017952Y005355D02*
X018192Y005355D01*
X018192Y005593D02*
X017952Y005593D01*
X017952Y005832D02*
X018192Y005832D01*
X018862Y006309D02*
X015907Y006309D01*
X015907Y006547D02*
X018747Y006547D01*
X018673Y006786D02*
X015907Y006786D01*
X015907Y007024D02*
X018635Y007024D01*
X021982Y029591D02*
X021982Y029591D01*
D24*
X017088Y021379D03*
X014726Y021772D03*
X019844Y017442D03*
X019450Y012324D03*
D25*
X010789Y021280D03*
X009608Y020394D03*
D26*
X010493Y020394D01*
X010789Y020690D01*
X010789Y021280D01*
D27*
X007442Y017639D03*
D28*
X011379Y022068D02*
X011379Y023741D01*
D29*
X011182Y014686D02*
X011182Y013898D01*
X014726Y014292D02*
X014745Y014272D01*
X014787Y014272D01*
X016675Y014272D01*
X016694Y014292D01*
X020238Y014292D01*
X020631Y014686D01*
X021419Y013505D02*
X021145Y013231D01*
X014745Y013231D01*
X014745Y014231D02*
X014787Y014272D01*
X021186Y013272D02*
X021419Y013505D01*
D30*
X021143Y013229D01*
X019076Y013229D01*
X019058Y013229D01*
X019038Y013250D01*
X019076Y013229D02*
X019076Y013209D01*
X019056Y013190D01*
D31*
X021222Y011536D02*
X021793Y011536D01*
X021793Y010552D02*
X021222Y010552D01*
X019253Y018032D02*
X019253Y020198D01*
M02*
