G75*
%MOIN*%
%OFA0B0*%
%FSLAX24Y24*%
%IPPOS*%
%LPD*%
%AMOC8*
5,1,8,0,0,1.08239X$1,22.5*
%
%ADD10R,0.0512X0.0591*%
%ADD11R,0.0591X0.0512*%
%ADD12R,0.0630X0.0709*%
%ADD13R,0.0551X0.0551*%
%ADD14R,0.1181X0.0394*%
%ADD15R,0.0472X0.0591*%
%ADD16R,0.0591X0.0472*%
%ADD17R,0.0120X0.0320*%
%ADD18R,0.0320X0.0120*%
%ADD19R,0.0945X0.0945*%
%ADD20C,0.0768*%
%ADD21C,0.0476*%
%ADD22C,0.0780*%
%ADD23R,0.0866X0.0236*%
%ADD24C,0.0000*%
%ADD25C,0.3543*%
%ADD26C,0.0039*%
%ADD27C,0.0765*%
%ADD28R,0.0740X0.0740*%
%ADD29C,0.0740*%
%ADD30OC8,0.0660*%
%ADD31OC8,0.0520*%
%ADD32R,0.1000X0.1000*%
%ADD33C,0.0554*%
%ADD34C,0.0100*%
%ADD35C,0.0120*%
%ADD36C,0.0317*%
%ADD37C,0.0160*%
%ADD38C,0.0236*%
%ADD39C,0.0240*%
%ADD40C,0.0356*%
%ADD41C,0.0157*%
%ADD42C,0.0277*%
%ADD43C,0.0400*%
%ADD44C,0.0413*%
%ADD45C,0.0118*%
D10*
X007856Y016064D03*
X007856Y016851D03*
X008604Y016851D03*
X008604Y016064D03*
X007423Y022560D03*
X006675Y022560D03*
X006675Y023741D03*
X007423Y023741D03*
X020651Y017442D03*
X021399Y017442D03*
D11*
X018663Y017855D03*
X018663Y018603D03*
X017875Y018603D03*
X017875Y017855D03*
X017088Y019430D03*
X017088Y020178D03*
X016301Y020178D03*
X016301Y019430D03*
X015513Y019430D03*
X015513Y020178D03*
X015513Y021005D03*
X015513Y021753D03*
X016301Y021753D03*
X016301Y021005D03*
X017088Y022186D03*
X017088Y022934D03*
X017875Y022973D03*
X017875Y023721D03*
X016301Y023721D03*
X016301Y022973D03*
X010789Y023761D03*
X010789Y024509D03*
X008230Y024509D03*
X008230Y023761D03*
X005867Y021753D03*
X005867Y021005D03*
X008623Y018603D03*
X008623Y017855D03*
X009411Y018249D03*
X009411Y018997D03*
X013741Y015060D03*
X013741Y014312D03*
X013741Y013288D03*
X013741Y012540D03*
D12*
X012127Y017245D03*
X011025Y017245D03*
X011025Y019607D03*
X011025Y020493D03*
X012127Y020493D03*
X012127Y019607D03*
X006222Y019312D03*
X006222Y018426D03*
X005119Y018426D03*
X005119Y019312D03*
X005119Y016064D03*
X006222Y016064D03*
D13*
X005907Y020198D03*
X007403Y020198D03*
X011379Y021418D03*
X011379Y022914D03*
D14*
X012560Y022560D03*
X012560Y021772D03*
X011281Y018820D03*
X011281Y018032D03*
X007442Y018623D03*
X007442Y019410D03*
X005966Y017639D03*
X005966Y016851D03*
D15*
X009391Y019804D03*
X010218Y019804D03*
X013919Y015867D03*
X014745Y015867D03*
X019824Y011536D03*
X019824Y010552D03*
X020651Y010552D03*
X020651Y011536D03*
D16*
X018663Y020572D03*
X018663Y021398D03*
X017875Y021398D03*
X017875Y020572D03*
X010001Y023721D03*
X010001Y024548D03*
X009017Y024548D03*
X009017Y023721D03*
X007442Y021792D03*
X007442Y020965D03*
X006655Y020965D03*
X006655Y021792D03*
D17*
X008960Y021063D03*
X009150Y021063D03*
X009350Y021063D03*
X009550Y021063D03*
X009750Y021063D03*
X009940Y021063D03*
X009940Y022623D03*
X009750Y022623D03*
X009550Y022623D03*
X009350Y022623D03*
X009150Y022623D03*
X008960Y022623D03*
D18*
X008670Y022333D03*
X008670Y022143D03*
X008670Y021943D03*
X008670Y021743D03*
X008670Y021543D03*
X008670Y021353D03*
X010230Y021353D03*
X010230Y021543D03*
X010230Y021743D03*
X010230Y021943D03*
X010230Y022143D03*
X010230Y022333D03*
D19*
X009450Y021833D03*
D20*
X011084Y015867D03*
X006261Y014883D03*
X014785Y006239D03*
X014785Y005239D03*
X014785Y003239D03*
X014785Y002239D03*
X016891Y018426D03*
X018860Y022954D03*
D21*
X020828Y022954D03*
X014923Y018426D03*
X013052Y015867D03*
X005588Y013033D03*
D22*
X012954Y018426D03*
X005671Y024922D03*
X022797Y025119D03*
D23*
X022049Y021304D03*
X022049Y020804D03*
X022049Y020304D03*
X022049Y019804D03*
X022049Y019304D03*
X022049Y018804D03*
X022049Y018304D03*
X020001Y018304D03*
X020001Y018804D03*
X020001Y019304D03*
X020001Y019804D03*
X020001Y020304D03*
X020001Y020804D03*
X020001Y021304D03*
D24*
X005966Y004351D02*
X004489Y004351D01*
X004489Y029745D01*
X005966Y029745D01*
X006043Y029747D01*
X006120Y029753D01*
X006197Y029762D01*
X006273Y029775D01*
X006349Y029792D01*
X006423Y029813D01*
X006497Y029837D01*
X006569Y029865D01*
X006639Y029896D01*
X006708Y029931D01*
X006776Y029969D01*
X006841Y030010D01*
X006904Y030055D01*
X006965Y030103D01*
X007024Y030153D01*
X007080Y030206D01*
X007133Y030262D01*
X007183Y030321D01*
X007231Y030382D01*
X007276Y030445D01*
X007317Y030510D01*
X007355Y030578D01*
X007390Y030647D01*
X007421Y030717D01*
X007449Y030789D01*
X007473Y030863D01*
X007494Y030937D01*
X007511Y031013D01*
X007524Y031089D01*
X007533Y031166D01*
X007539Y031243D01*
X007541Y031320D01*
X007541Y032796D01*
X021123Y032796D01*
X021123Y031320D01*
X021125Y031243D01*
X021131Y031166D01*
X021140Y031089D01*
X021153Y031013D01*
X021170Y030937D01*
X021191Y030863D01*
X021215Y030789D01*
X021243Y030717D01*
X021274Y030647D01*
X021309Y030578D01*
X021347Y030510D01*
X021388Y030445D01*
X021433Y030382D01*
X021481Y030321D01*
X021531Y030262D01*
X021584Y030206D01*
X021640Y030153D01*
X021699Y030103D01*
X021760Y030055D01*
X021823Y030010D01*
X021888Y029969D01*
X021956Y029931D01*
X022025Y029896D01*
X022095Y029865D01*
X022167Y029837D01*
X022241Y029813D01*
X022315Y029792D01*
X022391Y029775D01*
X022467Y029762D01*
X022544Y029753D01*
X022621Y029747D01*
X022698Y029745D01*
X024175Y029745D01*
X024175Y004351D01*
X022698Y004351D01*
X022621Y004349D01*
X022544Y004343D01*
X022467Y004334D01*
X022391Y004321D01*
X022315Y004304D01*
X022241Y004283D01*
X022167Y004259D01*
X022095Y004231D01*
X022025Y004200D01*
X021956Y004165D01*
X021888Y004127D01*
X021823Y004086D01*
X021760Y004041D01*
X021699Y003993D01*
X021640Y003943D01*
X021584Y003890D01*
X021531Y003834D01*
X021481Y003775D01*
X021433Y003714D01*
X021388Y003651D01*
X021347Y003586D01*
X021309Y003518D01*
X021274Y003449D01*
X021243Y003379D01*
X021215Y003307D01*
X021191Y003233D01*
X021170Y003159D01*
X021153Y003083D01*
X021140Y003007D01*
X021131Y002930D01*
X021125Y002853D01*
X021123Y002776D01*
X021123Y001300D01*
X007541Y001300D01*
X007541Y002776D01*
X007539Y002853D01*
X007533Y002930D01*
X007524Y003007D01*
X007511Y003083D01*
X007494Y003159D01*
X007473Y003233D01*
X007449Y003307D01*
X007421Y003379D01*
X007390Y003449D01*
X007355Y003518D01*
X007317Y003586D01*
X007276Y003651D01*
X007231Y003714D01*
X007183Y003775D01*
X007133Y003834D01*
X007080Y003890D01*
X007024Y003943D01*
X006965Y003993D01*
X006904Y004041D01*
X006841Y004086D01*
X006776Y004127D01*
X006708Y004165D01*
X006639Y004200D01*
X006569Y004231D01*
X006497Y004259D01*
X006423Y004283D01*
X006349Y004304D01*
X006273Y004321D01*
X006197Y004334D01*
X006120Y004343D01*
X006043Y004349D01*
X005966Y004351D01*
X007619Y007166D02*
X007621Y007219D01*
X007627Y007272D01*
X007637Y007324D01*
X007650Y007375D01*
X007668Y007425D01*
X007689Y007474D01*
X007714Y007521D01*
X007742Y007565D01*
X007774Y007608D01*
X007808Y007648D01*
X007846Y007686D01*
X007886Y007720D01*
X007929Y007752D01*
X007974Y007780D01*
X008020Y007805D01*
X008069Y007826D01*
X008119Y007844D01*
X008170Y007857D01*
X008222Y007867D01*
X008275Y007873D01*
X008328Y007875D01*
X008381Y007873D01*
X008434Y007867D01*
X008486Y007857D01*
X008537Y007844D01*
X008587Y007826D01*
X008636Y007805D01*
X008683Y007780D01*
X008727Y007752D01*
X008770Y007720D01*
X008810Y007686D01*
X008848Y007648D01*
X008882Y007608D01*
X008914Y007565D01*
X008942Y007520D01*
X008967Y007474D01*
X008988Y007425D01*
X009006Y007375D01*
X009019Y007324D01*
X009029Y007272D01*
X009035Y007219D01*
X009037Y007166D01*
X009035Y007113D01*
X009029Y007060D01*
X009019Y007008D01*
X009006Y006957D01*
X008988Y006907D01*
X008967Y006858D01*
X008942Y006811D01*
X008914Y006767D01*
X008882Y006724D01*
X008848Y006684D01*
X008810Y006646D01*
X008770Y006612D01*
X008727Y006580D01*
X008682Y006552D01*
X008636Y006527D01*
X008587Y006506D01*
X008537Y006488D01*
X008486Y006475D01*
X008434Y006465D01*
X008381Y006459D01*
X008328Y006457D01*
X008275Y006459D01*
X008222Y006465D01*
X008170Y006475D01*
X008119Y006488D01*
X008069Y006506D01*
X008020Y006527D01*
X007973Y006552D01*
X007929Y006580D01*
X007886Y006612D01*
X007846Y006646D01*
X007808Y006684D01*
X007774Y006724D01*
X007742Y006767D01*
X007714Y006812D01*
X007689Y006858D01*
X007668Y006907D01*
X007650Y006957D01*
X007637Y007008D01*
X007627Y007060D01*
X007621Y007113D01*
X007619Y007166D01*
X009608Y005040D02*
X009610Y005059D01*
X009615Y005078D01*
X009625Y005094D01*
X009637Y005109D01*
X009652Y005121D01*
X009668Y005131D01*
X009687Y005136D01*
X009706Y005138D01*
X009725Y005136D01*
X009744Y005131D01*
X009760Y005121D01*
X009775Y005109D01*
X009787Y005094D01*
X009797Y005078D01*
X009802Y005059D01*
X009804Y005040D01*
X009802Y005021D01*
X009797Y005002D01*
X009787Y004986D01*
X009775Y004971D01*
X009760Y004959D01*
X009744Y004949D01*
X009725Y004944D01*
X009706Y004942D01*
X009687Y004944D01*
X009668Y004949D01*
X009652Y004959D01*
X009637Y004971D01*
X009625Y004986D01*
X009615Y005002D01*
X009610Y005021D01*
X009608Y005040D01*
X010494Y005434D02*
X010496Y005453D01*
X010501Y005472D01*
X010511Y005488D01*
X010523Y005503D01*
X010538Y005515D01*
X010554Y005525D01*
X010573Y005530D01*
X010592Y005532D01*
X010611Y005530D01*
X010630Y005525D01*
X010646Y005515D01*
X010661Y005503D01*
X010673Y005488D01*
X010683Y005472D01*
X010688Y005453D01*
X010690Y005434D01*
X010688Y005415D01*
X010683Y005396D01*
X010673Y005380D01*
X010661Y005365D01*
X010646Y005353D01*
X010630Y005343D01*
X010611Y005338D01*
X010592Y005336D01*
X010573Y005338D01*
X010554Y005343D01*
X010538Y005353D01*
X010523Y005365D01*
X010511Y005380D01*
X010501Y005396D01*
X010496Y005415D01*
X010494Y005434D01*
X011478Y005040D02*
X011480Y005059D01*
X011485Y005078D01*
X011495Y005094D01*
X011507Y005109D01*
X011522Y005121D01*
X011538Y005131D01*
X011557Y005136D01*
X011576Y005138D01*
X011595Y005136D01*
X011614Y005131D01*
X011630Y005121D01*
X011645Y005109D01*
X011657Y005094D01*
X011667Y005078D01*
X011672Y005059D01*
X011674Y005040D01*
X011672Y005021D01*
X011667Y005002D01*
X011657Y004986D01*
X011645Y004971D01*
X011630Y004959D01*
X011614Y004949D01*
X011595Y004944D01*
X011576Y004942D01*
X011557Y004944D01*
X011538Y004949D01*
X011522Y004959D01*
X011507Y004971D01*
X011495Y004986D01*
X011485Y005002D01*
X011480Y005021D01*
X011478Y005040D01*
X011872Y004056D02*
X011874Y004075D01*
X011879Y004094D01*
X011889Y004110D01*
X011901Y004125D01*
X011916Y004137D01*
X011932Y004147D01*
X011951Y004152D01*
X011970Y004154D01*
X011989Y004152D01*
X012008Y004147D01*
X012024Y004137D01*
X012039Y004125D01*
X012051Y004110D01*
X012061Y004094D01*
X012066Y004075D01*
X012068Y004056D01*
X012066Y004037D01*
X012061Y004018D01*
X012051Y004002D01*
X012039Y003987D01*
X012024Y003975D01*
X012008Y003965D01*
X011989Y003960D01*
X011970Y003958D01*
X011951Y003960D01*
X011932Y003965D01*
X011916Y003975D01*
X011901Y003987D01*
X011889Y004002D01*
X011879Y004018D01*
X011874Y004037D01*
X011872Y004056D01*
X011478Y003072D02*
X011480Y003091D01*
X011485Y003110D01*
X011495Y003126D01*
X011507Y003141D01*
X011522Y003153D01*
X011538Y003163D01*
X011557Y003168D01*
X011576Y003170D01*
X011595Y003168D01*
X011614Y003163D01*
X011630Y003153D01*
X011645Y003141D01*
X011657Y003126D01*
X011667Y003110D01*
X011672Y003091D01*
X011674Y003072D01*
X011672Y003053D01*
X011667Y003034D01*
X011657Y003018D01*
X011645Y003003D01*
X011630Y002991D01*
X011614Y002981D01*
X011595Y002976D01*
X011576Y002974D01*
X011557Y002976D01*
X011538Y002981D01*
X011522Y002991D01*
X011507Y003003D01*
X011495Y003018D01*
X011485Y003034D01*
X011480Y003053D01*
X011478Y003072D01*
X010494Y002678D02*
X010496Y002697D01*
X010501Y002716D01*
X010511Y002732D01*
X010523Y002747D01*
X010538Y002759D01*
X010554Y002769D01*
X010573Y002774D01*
X010592Y002776D01*
X010611Y002774D01*
X010630Y002769D01*
X010646Y002759D01*
X010661Y002747D01*
X010673Y002732D01*
X010683Y002716D01*
X010688Y002697D01*
X010690Y002678D01*
X010688Y002659D01*
X010683Y002640D01*
X010673Y002624D01*
X010661Y002609D01*
X010646Y002597D01*
X010630Y002587D01*
X010611Y002582D01*
X010592Y002580D01*
X010573Y002582D01*
X010554Y002587D01*
X010538Y002597D01*
X010523Y002609D01*
X010511Y002624D01*
X010501Y002640D01*
X010496Y002659D01*
X010494Y002678D01*
X009510Y003072D02*
X009512Y003091D01*
X009517Y003110D01*
X009527Y003126D01*
X009539Y003141D01*
X009554Y003153D01*
X009570Y003163D01*
X009589Y003168D01*
X009608Y003170D01*
X009627Y003168D01*
X009646Y003163D01*
X009662Y003153D01*
X009677Y003141D01*
X009689Y003126D01*
X009699Y003110D01*
X009704Y003091D01*
X009706Y003072D01*
X009704Y003053D01*
X009699Y003034D01*
X009689Y003018D01*
X009677Y003003D01*
X009662Y002991D01*
X009646Y002981D01*
X009627Y002976D01*
X009608Y002974D01*
X009589Y002976D01*
X009570Y002981D01*
X009554Y002991D01*
X009539Y003003D01*
X009527Y003018D01*
X009517Y003034D01*
X009512Y003053D01*
X009510Y003072D01*
X009116Y004056D02*
X009118Y004075D01*
X009123Y004094D01*
X009133Y004110D01*
X009145Y004125D01*
X009160Y004137D01*
X009176Y004147D01*
X009195Y004152D01*
X009214Y004154D01*
X009233Y004152D01*
X009252Y004147D01*
X009268Y004137D01*
X009283Y004125D01*
X009295Y004110D01*
X009305Y004094D01*
X009310Y004075D01*
X009312Y004056D01*
X009310Y004037D01*
X009305Y004018D01*
X009295Y004002D01*
X009283Y003987D01*
X009268Y003975D01*
X009252Y003965D01*
X009233Y003960D01*
X009214Y003958D01*
X009195Y003960D01*
X009176Y003965D01*
X009160Y003975D01*
X009145Y003987D01*
X009133Y004002D01*
X009123Y004018D01*
X009118Y004037D01*
X009116Y004056D01*
X016596Y004056D02*
X016598Y004075D01*
X016603Y004094D01*
X016613Y004110D01*
X016625Y004125D01*
X016640Y004137D01*
X016656Y004147D01*
X016675Y004152D01*
X016694Y004154D01*
X016713Y004152D01*
X016732Y004147D01*
X016748Y004137D01*
X016763Y004125D01*
X016775Y004110D01*
X016785Y004094D01*
X016790Y004075D01*
X016792Y004056D01*
X016790Y004037D01*
X016785Y004018D01*
X016775Y004002D01*
X016763Y003987D01*
X016748Y003975D01*
X016732Y003965D01*
X016713Y003960D01*
X016694Y003958D01*
X016675Y003960D01*
X016656Y003965D01*
X016640Y003975D01*
X016625Y003987D01*
X016613Y004002D01*
X016603Y004018D01*
X016598Y004037D01*
X016596Y004056D01*
X016990Y003072D02*
X016992Y003091D01*
X016997Y003110D01*
X017007Y003126D01*
X017019Y003141D01*
X017034Y003153D01*
X017050Y003163D01*
X017069Y003168D01*
X017088Y003170D01*
X017107Y003168D01*
X017126Y003163D01*
X017142Y003153D01*
X017157Y003141D01*
X017169Y003126D01*
X017179Y003110D01*
X017184Y003091D01*
X017186Y003072D01*
X017184Y003053D01*
X017179Y003034D01*
X017169Y003018D01*
X017157Y003003D01*
X017142Y002991D01*
X017126Y002981D01*
X017107Y002976D01*
X017088Y002974D01*
X017069Y002976D01*
X017050Y002981D01*
X017034Y002991D01*
X017019Y003003D01*
X017007Y003018D01*
X016997Y003034D01*
X016992Y003053D01*
X016990Y003072D01*
X017974Y002678D02*
X017976Y002697D01*
X017981Y002716D01*
X017991Y002732D01*
X018003Y002747D01*
X018018Y002759D01*
X018034Y002769D01*
X018053Y002774D01*
X018072Y002776D01*
X018091Y002774D01*
X018110Y002769D01*
X018126Y002759D01*
X018141Y002747D01*
X018153Y002732D01*
X018163Y002716D01*
X018168Y002697D01*
X018170Y002678D01*
X018168Y002659D01*
X018163Y002640D01*
X018153Y002624D01*
X018141Y002609D01*
X018126Y002597D01*
X018110Y002587D01*
X018091Y002582D01*
X018072Y002580D01*
X018053Y002582D01*
X018034Y002587D01*
X018018Y002597D01*
X018003Y002609D01*
X017991Y002624D01*
X017981Y002640D01*
X017976Y002659D01*
X017974Y002678D01*
X018958Y003072D02*
X018960Y003091D01*
X018965Y003110D01*
X018975Y003126D01*
X018987Y003141D01*
X019002Y003153D01*
X019018Y003163D01*
X019037Y003168D01*
X019056Y003170D01*
X019075Y003168D01*
X019094Y003163D01*
X019110Y003153D01*
X019125Y003141D01*
X019137Y003126D01*
X019147Y003110D01*
X019152Y003091D01*
X019154Y003072D01*
X019152Y003053D01*
X019147Y003034D01*
X019137Y003018D01*
X019125Y003003D01*
X019110Y002991D01*
X019094Y002981D01*
X019075Y002976D01*
X019056Y002974D01*
X019037Y002976D01*
X019018Y002981D01*
X019002Y002991D01*
X018987Y003003D01*
X018975Y003018D01*
X018965Y003034D01*
X018960Y003053D01*
X018958Y003072D01*
X019352Y004056D02*
X019354Y004075D01*
X019359Y004094D01*
X019369Y004110D01*
X019381Y004125D01*
X019396Y004137D01*
X019412Y004147D01*
X019431Y004152D01*
X019450Y004154D01*
X019469Y004152D01*
X019488Y004147D01*
X019504Y004137D01*
X019519Y004125D01*
X019531Y004110D01*
X019541Y004094D01*
X019546Y004075D01*
X019548Y004056D01*
X019546Y004037D01*
X019541Y004018D01*
X019531Y004002D01*
X019519Y003987D01*
X019504Y003975D01*
X019488Y003965D01*
X019469Y003960D01*
X019450Y003958D01*
X019431Y003960D01*
X019412Y003965D01*
X019396Y003975D01*
X019381Y003987D01*
X019369Y004002D01*
X019359Y004018D01*
X019354Y004037D01*
X019352Y004056D01*
X018958Y005040D02*
X018960Y005059D01*
X018965Y005078D01*
X018975Y005094D01*
X018987Y005109D01*
X019002Y005121D01*
X019018Y005131D01*
X019037Y005136D01*
X019056Y005138D01*
X019075Y005136D01*
X019094Y005131D01*
X019110Y005121D01*
X019125Y005109D01*
X019137Y005094D01*
X019147Y005078D01*
X019152Y005059D01*
X019154Y005040D01*
X019152Y005021D01*
X019147Y005002D01*
X019137Y004986D01*
X019125Y004971D01*
X019110Y004959D01*
X019094Y004949D01*
X019075Y004944D01*
X019056Y004942D01*
X019037Y004944D01*
X019018Y004949D01*
X019002Y004959D01*
X018987Y004971D01*
X018975Y004986D01*
X018965Y005002D01*
X018960Y005021D01*
X018958Y005040D01*
X017974Y005434D02*
X017976Y005453D01*
X017981Y005472D01*
X017991Y005488D01*
X018003Y005503D01*
X018018Y005515D01*
X018034Y005525D01*
X018053Y005530D01*
X018072Y005532D01*
X018091Y005530D01*
X018110Y005525D01*
X018126Y005515D01*
X018141Y005503D01*
X018153Y005488D01*
X018163Y005472D01*
X018168Y005453D01*
X018170Y005434D01*
X018168Y005415D01*
X018163Y005396D01*
X018153Y005380D01*
X018141Y005365D01*
X018126Y005353D01*
X018110Y005343D01*
X018091Y005338D01*
X018072Y005336D01*
X018053Y005338D01*
X018034Y005343D01*
X018018Y005353D01*
X018003Y005365D01*
X017991Y005380D01*
X017981Y005396D01*
X017976Y005415D01*
X017974Y005434D01*
X017088Y005040D02*
X017090Y005059D01*
X017095Y005078D01*
X017105Y005094D01*
X017117Y005109D01*
X017132Y005121D01*
X017148Y005131D01*
X017167Y005136D01*
X017186Y005138D01*
X017205Y005136D01*
X017224Y005131D01*
X017240Y005121D01*
X017255Y005109D01*
X017267Y005094D01*
X017277Y005078D01*
X017282Y005059D01*
X017284Y005040D01*
X017282Y005021D01*
X017277Y005002D01*
X017267Y004986D01*
X017255Y004971D01*
X017240Y004959D01*
X017224Y004949D01*
X017205Y004944D01*
X017186Y004942D01*
X017167Y004944D01*
X017148Y004949D01*
X017132Y004959D01*
X017117Y004971D01*
X017105Y004986D01*
X017095Y005002D01*
X017090Y005021D01*
X017088Y005040D01*
X019627Y007166D02*
X019629Y007219D01*
X019635Y007272D01*
X019645Y007324D01*
X019658Y007375D01*
X019676Y007425D01*
X019697Y007474D01*
X019722Y007521D01*
X019750Y007565D01*
X019782Y007608D01*
X019816Y007648D01*
X019854Y007686D01*
X019894Y007720D01*
X019937Y007752D01*
X019982Y007780D01*
X020028Y007805D01*
X020077Y007826D01*
X020127Y007844D01*
X020178Y007857D01*
X020230Y007867D01*
X020283Y007873D01*
X020336Y007875D01*
X020389Y007873D01*
X020442Y007867D01*
X020494Y007857D01*
X020545Y007844D01*
X020595Y007826D01*
X020644Y007805D01*
X020691Y007780D01*
X020735Y007752D01*
X020778Y007720D01*
X020818Y007686D01*
X020856Y007648D01*
X020890Y007608D01*
X020922Y007565D01*
X020950Y007520D01*
X020975Y007474D01*
X020996Y007425D01*
X021014Y007375D01*
X021027Y007324D01*
X021037Y007272D01*
X021043Y007219D01*
X021045Y007166D01*
X021043Y007113D01*
X021037Y007060D01*
X021027Y007008D01*
X021014Y006957D01*
X020996Y006907D01*
X020975Y006858D01*
X020950Y006811D01*
X020922Y006767D01*
X020890Y006724D01*
X020856Y006684D01*
X020818Y006646D01*
X020778Y006612D01*
X020735Y006580D01*
X020690Y006552D01*
X020644Y006527D01*
X020595Y006506D01*
X020545Y006488D01*
X020494Y006475D01*
X020442Y006465D01*
X020389Y006459D01*
X020336Y006457D01*
X020283Y006459D01*
X020230Y006465D01*
X020178Y006475D01*
X020127Y006488D01*
X020077Y006506D01*
X020028Y006527D01*
X019981Y006552D01*
X019937Y006580D01*
X019894Y006612D01*
X019854Y006646D01*
X019816Y006684D01*
X019782Y006724D01*
X019750Y006767D01*
X019722Y006812D01*
X019697Y006858D01*
X019676Y006907D01*
X019658Y006957D01*
X019645Y007008D01*
X019635Y007060D01*
X019629Y007113D01*
X019627Y007166D01*
X019627Y026930D02*
X019629Y026983D01*
X019635Y027036D01*
X019645Y027088D01*
X019658Y027139D01*
X019676Y027189D01*
X019697Y027238D01*
X019722Y027285D01*
X019750Y027329D01*
X019782Y027372D01*
X019816Y027412D01*
X019854Y027450D01*
X019894Y027484D01*
X019937Y027516D01*
X019982Y027544D01*
X020028Y027569D01*
X020077Y027590D01*
X020127Y027608D01*
X020178Y027621D01*
X020230Y027631D01*
X020283Y027637D01*
X020336Y027639D01*
X020389Y027637D01*
X020442Y027631D01*
X020494Y027621D01*
X020545Y027608D01*
X020595Y027590D01*
X020644Y027569D01*
X020691Y027544D01*
X020735Y027516D01*
X020778Y027484D01*
X020818Y027450D01*
X020856Y027412D01*
X020890Y027372D01*
X020922Y027329D01*
X020950Y027284D01*
X020975Y027238D01*
X020996Y027189D01*
X021014Y027139D01*
X021027Y027088D01*
X021037Y027036D01*
X021043Y026983D01*
X021045Y026930D01*
X021043Y026877D01*
X021037Y026824D01*
X021027Y026772D01*
X021014Y026721D01*
X020996Y026671D01*
X020975Y026622D01*
X020950Y026575D01*
X020922Y026531D01*
X020890Y026488D01*
X020856Y026448D01*
X020818Y026410D01*
X020778Y026376D01*
X020735Y026344D01*
X020690Y026316D01*
X020644Y026291D01*
X020595Y026270D01*
X020545Y026252D01*
X020494Y026239D01*
X020442Y026229D01*
X020389Y026223D01*
X020336Y026221D01*
X020283Y026223D01*
X020230Y026229D01*
X020178Y026239D01*
X020127Y026252D01*
X020077Y026270D01*
X020028Y026291D01*
X019981Y026316D01*
X019937Y026344D01*
X019894Y026376D01*
X019854Y026410D01*
X019816Y026448D01*
X019782Y026488D01*
X019750Y026531D01*
X019722Y026576D01*
X019697Y026622D01*
X019676Y026671D01*
X019658Y026721D01*
X019645Y026772D01*
X019635Y026824D01*
X019629Y026877D01*
X019627Y026930D01*
X007619Y026930D02*
X007621Y026983D01*
X007627Y027036D01*
X007637Y027088D01*
X007650Y027139D01*
X007668Y027189D01*
X007689Y027238D01*
X007714Y027285D01*
X007742Y027329D01*
X007774Y027372D01*
X007808Y027412D01*
X007846Y027450D01*
X007886Y027484D01*
X007929Y027516D01*
X007974Y027544D01*
X008020Y027569D01*
X008069Y027590D01*
X008119Y027608D01*
X008170Y027621D01*
X008222Y027631D01*
X008275Y027637D01*
X008328Y027639D01*
X008381Y027637D01*
X008434Y027631D01*
X008486Y027621D01*
X008537Y027608D01*
X008587Y027590D01*
X008636Y027569D01*
X008683Y027544D01*
X008727Y027516D01*
X008770Y027484D01*
X008810Y027450D01*
X008848Y027412D01*
X008882Y027372D01*
X008914Y027329D01*
X008942Y027284D01*
X008967Y027238D01*
X008988Y027189D01*
X009006Y027139D01*
X009019Y027088D01*
X009029Y027036D01*
X009035Y026983D01*
X009037Y026930D01*
X009035Y026877D01*
X009029Y026824D01*
X009019Y026772D01*
X009006Y026721D01*
X008988Y026671D01*
X008967Y026622D01*
X008942Y026575D01*
X008914Y026531D01*
X008882Y026488D01*
X008848Y026448D01*
X008810Y026410D01*
X008770Y026376D01*
X008727Y026344D01*
X008682Y026316D01*
X008636Y026291D01*
X008587Y026270D01*
X008537Y026252D01*
X008486Y026239D01*
X008434Y026229D01*
X008381Y026223D01*
X008328Y026221D01*
X008275Y026223D01*
X008222Y026229D01*
X008170Y026239D01*
X008119Y026252D01*
X008069Y026270D01*
X008020Y026291D01*
X007973Y026316D01*
X007929Y026344D01*
X007886Y026376D01*
X007846Y026410D01*
X007808Y026448D01*
X007774Y026488D01*
X007742Y026531D01*
X007714Y026576D01*
X007689Y026622D01*
X007668Y026671D01*
X007650Y026721D01*
X007637Y026772D01*
X007627Y026824D01*
X007621Y026877D01*
X007619Y026930D01*
D25*
X010592Y004056D03*
X018072Y004056D03*
D26*
X017147Y004056D02*
X017149Y004116D01*
X017155Y004177D01*
X017165Y004236D01*
X017179Y004295D01*
X017196Y004353D01*
X017217Y004410D01*
X017242Y004465D01*
X017271Y004518D01*
X017303Y004570D01*
X017338Y004619D01*
X017377Y004666D01*
X017418Y004710D01*
X017462Y004751D01*
X017509Y004790D01*
X017558Y004825D01*
X017609Y004857D01*
X017663Y004886D01*
X017718Y004911D01*
X017775Y004932D01*
X017833Y004949D01*
X017892Y004963D01*
X017951Y004973D01*
X018012Y004979D01*
X018072Y004981D01*
X018132Y004979D01*
X018193Y004973D01*
X018252Y004963D01*
X018311Y004949D01*
X018369Y004932D01*
X018426Y004911D01*
X018481Y004886D01*
X018534Y004857D01*
X018586Y004825D01*
X018635Y004790D01*
X018682Y004751D01*
X018726Y004710D01*
X018767Y004666D01*
X018806Y004619D01*
X018841Y004570D01*
X018873Y004519D01*
X018902Y004465D01*
X018927Y004410D01*
X018948Y004353D01*
X018965Y004295D01*
X018979Y004236D01*
X018989Y004177D01*
X018995Y004116D01*
X018997Y004056D01*
X018995Y003996D01*
X018989Y003935D01*
X018979Y003876D01*
X018965Y003817D01*
X018948Y003759D01*
X018927Y003702D01*
X018902Y003647D01*
X018873Y003594D01*
X018841Y003542D01*
X018806Y003493D01*
X018767Y003446D01*
X018726Y003402D01*
X018682Y003361D01*
X018635Y003322D01*
X018586Y003287D01*
X018535Y003255D01*
X018481Y003226D01*
X018426Y003201D01*
X018369Y003180D01*
X018311Y003163D01*
X018252Y003149D01*
X018193Y003139D01*
X018132Y003133D01*
X018072Y003131D01*
X018012Y003133D01*
X017951Y003139D01*
X017892Y003149D01*
X017833Y003163D01*
X017775Y003180D01*
X017718Y003201D01*
X017663Y003226D01*
X017610Y003255D01*
X017558Y003287D01*
X017509Y003322D01*
X017462Y003361D01*
X017418Y003402D01*
X017377Y003446D01*
X017338Y003493D01*
X017303Y003542D01*
X017271Y003593D01*
X017242Y003647D01*
X017217Y003702D01*
X017196Y003759D01*
X017179Y003817D01*
X017165Y003876D01*
X017155Y003935D01*
X017149Y003996D01*
X017147Y004056D01*
X009667Y004056D02*
X009669Y004116D01*
X009675Y004177D01*
X009685Y004236D01*
X009699Y004295D01*
X009716Y004353D01*
X009737Y004410D01*
X009762Y004465D01*
X009791Y004518D01*
X009823Y004570D01*
X009858Y004619D01*
X009897Y004666D01*
X009938Y004710D01*
X009982Y004751D01*
X010029Y004790D01*
X010078Y004825D01*
X010129Y004857D01*
X010183Y004886D01*
X010238Y004911D01*
X010295Y004932D01*
X010353Y004949D01*
X010412Y004963D01*
X010471Y004973D01*
X010532Y004979D01*
X010592Y004981D01*
X010652Y004979D01*
X010713Y004973D01*
X010772Y004963D01*
X010831Y004949D01*
X010889Y004932D01*
X010946Y004911D01*
X011001Y004886D01*
X011054Y004857D01*
X011106Y004825D01*
X011155Y004790D01*
X011202Y004751D01*
X011246Y004710D01*
X011287Y004666D01*
X011326Y004619D01*
X011361Y004570D01*
X011393Y004519D01*
X011422Y004465D01*
X011447Y004410D01*
X011468Y004353D01*
X011485Y004295D01*
X011499Y004236D01*
X011509Y004177D01*
X011515Y004116D01*
X011517Y004056D01*
X011515Y003996D01*
X011509Y003935D01*
X011499Y003876D01*
X011485Y003817D01*
X011468Y003759D01*
X011447Y003702D01*
X011422Y003647D01*
X011393Y003594D01*
X011361Y003542D01*
X011326Y003493D01*
X011287Y003446D01*
X011246Y003402D01*
X011202Y003361D01*
X011155Y003322D01*
X011106Y003287D01*
X011055Y003255D01*
X011001Y003226D01*
X010946Y003201D01*
X010889Y003180D01*
X010831Y003163D01*
X010772Y003149D01*
X010713Y003139D01*
X010652Y003133D01*
X010592Y003131D01*
X010532Y003133D01*
X010471Y003139D01*
X010412Y003149D01*
X010353Y003163D01*
X010295Y003180D01*
X010238Y003201D01*
X010183Y003226D01*
X010130Y003255D01*
X010078Y003287D01*
X010029Y003322D01*
X009982Y003361D01*
X009938Y003402D01*
X009897Y003446D01*
X009858Y003493D01*
X009823Y003542D01*
X009791Y003593D01*
X009762Y003647D01*
X009737Y003702D01*
X009716Y003759D01*
X009699Y003817D01*
X009685Y003876D01*
X009675Y003935D01*
X009669Y003996D01*
X009667Y004056D01*
D27*
X012332Y024891D03*
X014332Y026891D03*
X012332Y028891D03*
X016332Y028891D03*
X016332Y024891D03*
D28*
X008426Y013505D03*
D29*
X007426Y013505D03*
D30*
X016875Y015867D03*
X016875Y016867D03*
X017875Y016867D03*
X017875Y015867D03*
X017875Y014867D03*
X018875Y015867D03*
X018875Y016867D03*
D31*
X014832Y017048D03*
X013832Y017048D03*
D32*
X009351Y014883D03*
X007501Y014883D03*
D33*
X014745Y014231D03*
X014745Y013231D03*
X014745Y012231D03*
X014745Y011231D03*
X014745Y010231D03*
D34*
X010257Y017363D02*
X007836Y017363D01*
X007836Y013111D01*
X006891Y013111D01*
X006891Y018780D01*
X007993Y018780D01*
X007993Y017757D01*
X009942Y017757D01*
X009942Y020611D01*
X009750Y020822D01*
X009750Y020831D01*
X009760Y020841D01*
X009760Y021143D01*
X009942Y021143D01*
X009942Y020926D01*
X010257Y020611D01*
X010257Y017363D01*
X010257Y017454D02*
X006891Y017454D01*
X006891Y017356D02*
X007836Y017356D01*
X007836Y017257D02*
X006891Y017257D01*
X006891Y017159D02*
X007836Y017159D01*
X007836Y017060D02*
X006891Y017060D01*
X006891Y016962D02*
X007836Y016962D01*
X007836Y016863D02*
X006891Y016863D01*
X006891Y016765D02*
X007836Y016765D01*
X007836Y016666D02*
X006891Y016666D01*
X006891Y016568D02*
X007836Y016568D01*
X007836Y016469D02*
X006891Y016469D01*
X006891Y016371D02*
X007836Y016371D01*
X007836Y016272D02*
X006891Y016272D01*
X006891Y016174D02*
X007836Y016174D01*
X007836Y016075D02*
X006891Y016075D01*
X006891Y015977D02*
X007836Y015977D01*
X007836Y015878D02*
X006891Y015878D01*
X006891Y015780D02*
X007836Y015780D01*
X007836Y015681D02*
X006891Y015681D01*
X006891Y015583D02*
X007836Y015583D01*
X007836Y015484D02*
X006891Y015484D01*
X006891Y015386D02*
X007836Y015386D01*
X007836Y015287D02*
X006891Y015287D01*
X006891Y015189D02*
X007836Y015189D01*
X007836Y015090D02*
X006891Y015090D01*
X006891Y014992D02*
X007836Y014992D01*
X007836Y014893D02*
X006891Y014893D01*
X006891Y014795D02*
X007836Y014795D01*
X007836Y014696D02*
X006891Y014696D01*
X006891Y014598D02*
X007836Y014598D01*
X007836Y014499D02*
X006891Y014499D01*
X006891Y014401D02*
X007836Y014401D01*
X007836Y014302D02*
X006891Y014302D01*
X006891Y014204D02*
X007836Y014204D01*
X007836Y014105D02*
X006891Y014105D01*
X006891Y014007D02*
X007836Y014007D01*
X007836Y013908D02*
X006891Y013908D01*
X006891Y013810D02*
X007836Y013810D01*
X007836Y013711D02*
X006891Y013711D01*
X006891Y013613D02*
X007836Y013613D01*
X007836Y013514D02*
X006891Y013514D01*
X006891Y013416D02*
X007836Y013416D01*
X007836Y013317D02*
X006891Y013317D01*
X006891Y013219D02*
X007836Y013219D01*
X007836Y013120D02*
X006891Y013120D01*
X006891Y017553D02*
X010257Y017553D01*
X010257Y017651D02*
X006891Y017651D01*
X006891Y017750D02*
X010257Y017750D01*
X010257Y017848D02*
X009942Y017848D01*
X009942Y017947D02*
X010257Y017947D01*
X010257Y018045D02*
X009942Y018045D01*
X009942Y018144D02*
X010257Y018144D01*
X010257Y018242D02*
X009942Y018242D01*
X009942Y018341D02*
X010257Y018341D01*
X010257Y018439D02*
X009942Y018439D01*
X009942Y018538D02*
X010257Y018538D01*
X010257Y018636D02*
X009942Y018636D01*
X009942Y018735D02*
X010257Y018735D01*
X010257Y018833D02*
X009942Y018833D01*
X009942Y018932D02*
X010257Y018932D01*
X010257Y019030D02*
X009942Y019030D01*
X009942Y019129D02*
X010257Y019129D01*
X010257Y019227D02*
X009942Y019227D01*
X009942Y019326D02*
X010257Y019326D01*
X010257Y019424D02*
X009942Y019424D01*
X009942Y019523D02*
X010257Y019523D01*
X010257Y019621D02*
X009942Y019621D01*
X009942Y019720D02*
X010257Y019720D01*
X010218Y019804D02*
X010198Y019824D01*
X010257Y019818D02*
X009942Y019818D01*
X009942Y019917D02*
X010257Y019917D01*
X010257Y020015D02*
X009942Y020015D01*
X009942Y020114D02*
X010257Y020114D01*
X010257Y020212D02*
X009942Y020212D01*
X009942Y020311D02*
X010257Y020311D01*
X010257Y020409D02*
X009942Y020409D01*
X009942Y020508D02*
X010257Y020508D01*
X010257Y020606D02*
X009942Y020606D01*
X009857Y020705D02*
X010164Y020705D01*
X010065Y020803D02*
X009768Y020803D01*
X009760Y020902D02*
X009967Y020902D01*
X009942Y021000D02*
X009760Y021000D01*
X009760Y021099D02*
X009942Y021099D01*
X010230Y021543D02*
X010756Y021543D01*
X010789Y021511D01*
X010789Y021280D01*
X010756Y021543D02*
X010789Y021576D01*
X010789Y021772D01*
X010760Y021743D01*
X010230Y021743D01*
X010230Y021943D02*
X010763Y021943D01*
X010789Y021969D01*
X010789Y022143D01*
X010230Y022143D01*
X009985Y022520D02*
X009760Y022520D01*
X009760Y022845D01*
X009750Y022855D01*
X009750Y022912D01*
X010084Y023246D01*
X010107Y023269D01*
X013151Y023269D01*
X013151Y022520D01*
X010475Y022520D01*
X010452Y022543D01*
X010008Y022543D01*
X009985Y022520D01*
X009760Y022576D02*
X013151Y022576D01*
X013151Y022675D02*
X009760Y022675D01*
X009760Y022773D02*
X013151Y022773D01*
X013151Y022872D02*
X009750Y022872D01*
X009809Y022970D02*
X013151Y022970D01*
X013151Y023069D02*
X009907Y023069D01*
X010006Y023167D02*
X013151Y023167D01*
X013151Y023266D02*
X010104Y023266D01*
X010084Y023246D02*
X010084Y023246D01*
X010001Y023446D02*
X010001Y023721D01*
X010789Y023721D01*
X010789Y023761D01*
X010789Y024509D02*
X010789Y024548D01*
X010001Y024548D01*
X009982Y024528D01*
X009489Y024528D01*
X009037Y024528D01*
X009017Y024548D01*
X009489Y024528D02*
X009489Y023249D01*
X009350Y023090D01*
X009350Y022623D01*
X009150Y022623D02*
X009150Y022998D01*
X008879Y023269D01*
X008623Y023269D01*
X008466Y023426D01*
X008466Y023524D01*
X008230Y023761D01*
X008230Y023643D01*
X008230Y023249D02*
X007915Y023249D01*
X007423Y023741D01*
X008230Y023249D02*
X008525Y022954D01*
X008860Y022954D01*
X008960Y022853D01*
X008960Y022623D01*
X008950Y022333D02*
X008670Y022333D01*
X008950Y022333D02*
X009450Y021833D01*
X009371Y021576D02*
X009135Y021576D01*
X009135Y021320D01*
X009170Y021285D01*
X009170Y020841D01*
X009168Y020839D01*
X009168Y020804D01*
X009135Y020771D01*
X009135Y020709D01*
X008407Y019981D01*
X008407Y018446D01*
X008801Y018446D01*
X008801Y019981D01*
X009350Y020531D01*
X009350Y020831D01*
X009340Y020841D01*
X009340Y021285D01*
X009371Y021317D01*
X009371Y021576D01*
X009371Y021493D02*
X009135Y021493D01*
X009135Y021394D02*
X009371Y021394D01*
X009350Y021296D02*
X009160Y021296D01*
X009170Y021197D02*
X009340Y021197D01*
X009340Y021099D02*
X009170Y021099D01*
X009170Y021000D02*
X009340Y021000D01*
X009340Y020902D02*
X009170Y020902D01*
X009167Y020803D02*
X009350Y020803D01*
X009350Y020705D02*
X009130Y020705D01*
X009032Y020606D02*
X009350Y020606D01*
X009327Y020508D02*
X008933Y020508D01*
X008835Y020409D02*
X009228Y020409D01*
X009130Y020311D02*
X008736Y020311D01*
X008638Y020212D02*
X009031Y020212D01*
X008933Y020114D02*
X008539Y020114D01*
X008441Y020015D02*
X008834Y020015D01*
X008801Y019917D02*
X008407Y019917D01*
X008407Y019818D02*
X008801Y019818D01*
X008801Y019720D02*
X008407Y019720D01*
X008407Y019621D02*
X008801Y019621D01*
X008801Y019523D02*
X008407Y019523D01*
X008407Y019424D02*
X008801Y019424D01*
X008801Y019326D02*
X008407Y019326D01*
X008407Y019227D02*
X008801Y019227D01*
X008801Y019129D02*
X008407Y019129D01*
X008407Y019030D02*
X008801Y019030D01*
X008801Y018932D02*
X008407Y018932D01*
X008407Y018833D02*
X008801Y018833D01*
X008801Y018735D02*
X008407Y018735D01*
X008407Y018636D02*
X008801Y018636D01*
X008801Y018538D02*
X008407Y018538D01*
X007993Y018538D02*
X006891Y018538D01*
X006891Y018636D02*
X007993Y018636D01*
X007993Y018735D02*
X006891Y018735D01*
X006891Y018439D02*
X007993Y018439D01*
X007993Y018341D02*
X006891Y018341D01*
X006891Y018242D02*
X007993Y018242D01*
X007993Y018144D02*
X006891Y018144D01*
X006891Y018045D02*
X007993Y018045D01*
X007993Y017947D02*
X006891Y017947D01*
X006891Y017848D02*
X007993Y017848D01*
X007836Y019410D02*
X007049Y019410D01*
X007049Y020394D01*
X007619Y020375D01*
X008079Y020834D01*
X008094Y020834D01*
X008208Y020881D01*
X008294Y020968D01*
X008341Y021081D01*
X008341Y021097D01*
X008466Y021221D01*
X008466Y021333D01*
X008771Y021333D01*
X008771Y021162D01*
X008940Y021162D01*
X008940Y020887D01*
X008722Y020887D01*
X007836Y020001D01*
X007836Y019410D01*
X007836Y019424D02*
X007049Y019424D01*
X007049Y019523D02*
X007836Y019523D01*
X007836Y019621D02*
X007049Y019621D01*
X007049Y019720D02*
X007836Y019720D01*
X007836Y019818D02*
X007049Y019818D01*
X007049Y019917D02*
X007836Y019917D01*
X007850Y020015D02*
X007049Y020015D01*
X007049Y020114D02*
X007949Y020114D01*
X008047Y020212D02*
X007049Y020212D01*
X007049Y020311D02*
X008146Y020311D01*
X008244Y020409D02*
X007654Y020409D01*
X007752Y020508D02*
X008343Y020508D01*
X008441Y020606D02*
X007851Y020606D01*
X007949Y020705D02*
X008540Y020705D01*
X008638Y020803D02*
X008048Y020803D01*
X008228Y020902D02*
X008940Y020902D01*
X008940Y021000D02*
X008308Y021000D01*
X008343Y021099D02*
X008940Y021099D01*
X008771Y021197D02*
X008442Y021197D01*
X008466Y021296D02*
X008771Y021296D01*
X008670Y021543D02*
X008001Y021543D01*
X007836Y021379D01*
X007049Y021379D01*
X006655Y020985D01*
X006655Y020965D01*
X005907Y020965D01*
X005867Y021005D01*
X005867Y021753D02*
X005907Y021792D01*
X006655Y021792D01*
X007442Y021792D01*
X007491Y021743D01*
X008670Y021743D01*
X008670Y021943D02*
X008157Y021943D01*
X007934Y022166D01*
X007934Y022363D01*
X007738Y022560D01*
X007423Y022560D01*
X009550Y022623D02*
X009550Y022994D01*
X010001Y023446D01*
X010789Y021969D02*
X010789Y021772D01*
X009550Y020452D02*
X009608Y020394D01*
X009550Y020452D02*
X009550Y021063D01*
X009391Y019804D02*
X009411Y019391D01*
X012009Y019424D02*
X013112Y019424D01*
X013112Y019326D02*
X012009Y019326D01*
X012009Y019292D02*
X013112Y019292D01*
X013112Y021930D01*
X012009Y021930D01*
X012009Y019292D01*
X012009Y019523D02*
X013112Y019523D01*
X013112Y019621D02*
X012009Y019621D01*
X012009Y019720D02*
X013112Y019720D01*
X013112Y019818D02*
X012009Y019818D01*
X012009Y019917D02*
X013112Y019917D01*
X013112Y020015D02*
X012009Y020015D01*
X012009Y020114D02*
X013112Y020114D01*
X013112Y020212D02*
X012009Y020212D01*
X012009Y020311D02*
X013112Y020311D01*
X013112Y020409D02*
X012009Y020409D01*
X012009Y020508D02*
X013112Y020508D01*
X013112Y020606D02*
X012009Y020606D01*
X012009Y020705D02*
X013112Y020705D01*
X013112Y020803D02*
X012009Y020803D01*
X012009Y020902D02*
X013112Y020902D01*
X013112Y021000D02*
X012009Y021000D01*
X012009Y021099D02*
X013112Y021099D01*
X013112Y021197D02*
X012009Y021197D01*
X012009Y021296D02*
X013112Y021296D01*
X013112Y021394D02*
X012009Y021394D01*
X012009Y021493D02*
X013112Y021493D01*
X013112Y021591D02*
X012009Y021591D01*
X012009Y021690D02*
X013112Y021690D01*
X013112Y021788D02*
X012009Y021788D01*
X012009Y021887D02*
X013112Y021887D01*
D35*
X011379Y022068D02*
X011379Y021418D01*
X011379Y023741D02*
X010828Y023741D01*
X010789Y023761D01*
X009017Y023721D02*
X008978Y023761D01*
X008230Y023761D01*
X008033Y023052D02*
X007738Y023052D01*
X007639Y023150D01*
X006655Y023150D01*
X008033Y023052D02*
X008230Y022855D01*
X008230Y022461D02*
X008358Y022333D01*
X008670Y022333D01*
X020001Y019804D02*
X020533Y019804D01*
X020730Y019607D01*
X020730Y017520D01*
X020651Y017442D01*
X021320Y017520D02*
X021399Y017442D01*
X021320Y017520D02*
X021320Y019607D01*
X021517Y019804D01*
X022049Y019804D01*
D36*
X021025Y021379D03*
X019253Y020198D03*
X019253Y018032D03*
X021025Y018229D03*
X023387Y018623D03*
X023387Y022166D03*
X023387Y028859D03*
X020238Y032009D03*
X012856Y021182D03*
X012265Y021182D03*
X011379Y022068D03*
X011379Y023741D03*
X009115Y020493D03*
X008820Y020198D03*
X008623Y019804D03*
X008623Y019410D03*
X008033Y021143D03*
X008230Y022757D03*
X006655Y023150D03*
X005080Y022166D03*
X005080Y020749D03*
X004982Y017245D03*
X005277Y014292D03*
X005277Y010355D03*
X009214Y010355D03*
X011970Y010355D03*
X011182Y013898D03*
X011182Y014686D03*
X010001Y016261D03*
X010001Y016851D03*
X009411Y016851D03*
X009411Y016261D03*
X015218Y015080D03*
X016301Y015080D03*
X016694Y014292D03*
X019076Y013229D03*
X020631Y014686D03*
X021419Y013505D03*
X021222Y011536D03*
X021222Y010552D03*
X022600Y010355D03*
X023387Y014686D03*
X016694Y010355D03*
X005277Y028859D03*
X008426Y032009D03*
D37*
X012332Y028891D02*
X016332Y028891D01*
X012364Y028859D02*
X012364Y024922D01*
X012364Y028859D02*
X012332Y028891D01*
X008230Y022855D02*
X008230Y022461D01*
X008033Y021143D02*
X007856Y020965D01*
X007442Y020965D01*
X006675Y022560D02*
X006655Y022580D01*
X006655Y023150D01*
X006675Y023170D01*
X008623Y018603D02*
X008623Y018426D01*
X009411Y018426D02*
X009411Y018249D01*
X012127Y019607D02*
X012127Y020493D01*
X017875Y022973D02*
X017895Y022954D01*
X018860Y022954D01*
X021025Y021379D02*
X021025Y018229D01*
X022049Y018304D02*
X022596Y018304D01*
X022678Y018387D01*
X022678Y018702D01*
X022576Y018804D01*
X022049Y018804D01*
X022049Y020804D02*
X022576Y020804D01*
X022678Y020906D01*
X022678Y021221D01*
X022596Y021304D01*
X022049Y021304D01*
D38*
X021399Y017442D02*
X021419Y017422D01*
X021419Y013505D01*
X020631Y014686D02*
X020631Y017422D01*
X020651Y017442D01*
X018875Y016867D02*
X018875Y015867D01*
X018875Y016867D02*
X018875Y013412D01*
X019056Y013231D01*
X016875Y014473D02*
X016694Y014292D01*
X016875Y014473D02*
X016875Y015867D01*
X016875Y016867D01*
X014745Y015867D02*
X014745Y014231D01*
X014704Y014272D01*
X013978Y014272D01*
X013741Y014312D02*
X013722Y014292D01*
X010789Y014292D01*
X011182Y013898D02*
X011182Y013505D01*
X011379Y013308D01*
X013722Y013308D01*
X013741Y013288D01*
X013954Y013272D02*
X014704Y013272D01*
X014745Y013231D01*
X011182Y014686D02*
X011025Y014843D01*
X011025Y015867D01*
X011084Y015867D01*
X011025Y015867D02*
X011025Y017245D01*
X009411Y018426D02*
X008623Y018426D01*
X009411Y018997D02*
X009411Y019391D01*
X009411Y019430D02*
X009391Y019804D01*
X009391Y020178D01*
X009608Y020394D01*
X007426Y015851D02*
X007426Y013505D01*
X006261Y014883D02*
X006261Y016103D01*
X016301Y023721D02*
X016301Y024859D01*
X016332Y024891D01*
D39*
X016324Y024898D02*
X016324Y024883D01*
X015730Y024883D01*
X015730Y024843D01*
X015744Y024749D01*
X015774Y024659D01*
X015817Y024575D01*
X015872Y024498D01*
X015940Y024431D01*
X016016Y024375D01*
X016101Y024332D01*
X016191Y024303D01*
X016285Y024288D01*
X016325Y024288D01*
X016325Y024883D01*
X016340Y024883D01*
X016340Y024288D01*
X016379Y024288D01*
X016473Y024303D01*
X016563Y024332D01*
X016648Y024375D01*
X016725Y024431D01*
X016769Y024475D01*
X016769Y024116D01*
X016731Y024153D01*
X016681Y024182D01*
X016625Y024197D01*
X016308Y024197D01*
X016308Y023729D01*
X016293Y023729D01*
X016293Y024197D01*
X015976Y024197D01*
X015920Y024182D01*
X015870Y024153D01*
X015829Y024112D01*
X015800Y024062D01*
X015785Y024006D01*
X015785Y023729D01*
X016293Y023729D01*
X016293Y023713D01*
X015785Y023713D01*
X015785Y023436D01*
X015792Y023412D01*
X015768Y023388D01*
X015725Y023285D01*
X015725Y022662D01*
X015768Y022559D01*
X015847Y022480D01*
X015950Y022437D01*
X016076Y022437D01*
X016119Y022333D01*
X016223Y022229D01*
X015976Y022229D01*
X015920Y022214D01*
X015907Y022206D01*
X015893Y022214D01*
X015837Y022229D01*
X015521Y022229D01*
X015521Y021761D01*
X015505Y021761D01*
X015505Y022229D01*
X015189Y022229D01*
X015133Y022214D01*
X015083Y022185D01*
X015042Y022144D01*
X015013Y022094D01*
X014998Y022038D01*
X014998Y021761D01*
X015505Y021761D01*
X015505Y021745D01*
X014998Y021745D01*
X014998Y021468D01*
X015004Y021443D01*
X014980Y021419D01*
X014938Y021316D01*
X014938Y020693D01*
X014980Y020591D01*
X014938Y020490D01*
X014938Y019866D01*
X014964Y019804D01*
X014938Y019742D01*
X014938Y019118D01*
X014980Y019015D01*
X015059Y018937D01*
X015154Y018897D01*
X015154Y018822D01*
X015098Y018850D01*
X015030Y018873D01*
X014959Y018884D01*
X014923Y018884D01*
X014923Y018426D01*
X014923Y017968D01*
X014959Y017968D01*
X015030Y017979D01*
X015098Y018002D01*
X015162Y018034D01*
X015221Y018077D01*
X015272Y018128D01*
X015314Y018186D01*
X015347Y018250D01*
X015351Y018264D01*
X015351Y011094D01*
X014990Y010733D01*
X014916Y010764D01*
X014936Y010770D01*
X015006Y010806D01*
X015069Y010852D01*
X015125Y010907D01*
X015171Y010971D01*
X015206Y011040D01*
X015230Y011115D01*
X015243Y011192D01*
X015243Y011231D01*
X014745Y011231D01*
X014248Y011231D01*
X014248Y011192D01*
X014260Y011115D01*
X014285Y011040D01*
X014320Y010971D01*
X014366Y010907D01*
X014422Y010852D01*
X014485Y010806D01*
X014555Y010770D01*
X014575Y010764D01*
X014430Y010703D01*
X014273Y010547D01*
X014188Y010342D01*
X014188Y010120D01*
X014273Y009915D01*
X014430Y009759D01*
X014635Y009674D01*
X014856Y009674D01*
X015061Y009759D01*
X015218Y009915D01*
X015240Y009968D01*
X016014Y010742D01*
X016069Y010874D01*
X016069Y018497D01*
X016014Y018629D01*
X015913Y018730D01*
X015872Y018771D01*
X015872Y018897D01*
X015907Y018912D01*
X015950Y018894D01*
X016420Y018894D01*
X016328Y018802D01*
X016227Y018558D01*
X016227Y018294D01*
X016328Y018050D01*
X016515Y017863D01*
X016759Y017762D01*
X017023Y017762D01*
X017267Y017863D01*
X017300Y017896D01*
X017300Y017544D01*
X017343Y017441D01*
X017421Y017362D01*
X017482Y017337D01*
X017375Y017230D01*
X017128Y017477D01*
X016623Y017477D01*
X016265Y017120D01*
X016265Y016614D01*
X016477Y016402D01*
X016477Y016331D01*
X016265Y016120D01*
X016265Y015614D01*
X016477Y015402D01*
X016477Y014677D01*
X016446Y014664D01*
X016323Y014540D01*
X016256Y014379D01*
X016256Y014205D01*
X016323Y014044D01*
X016446Y013920D01*
X016607Y013854D01*
X016781Y013854D01*
X016943Y013920D01*
X017066Y014044D01*
X017106Y014141D01*
X017213Y014248D01*
X017273Y014394D01*
X017273Y014606D01*
X017623Y014257D01*
X018128Y014257D01*
X018477Y014606D01*
X018477Y013333D01*
X018538Y013187D01*
X018677Y013048D01*
X018704Y012981D01*
X018717Y012968D01*
X018717Y010681D01*
X018769Y010557D01*
X019061Y010265D01*
X019186Y010213D01*
X019308Y010213D01*
X019308Y010201D01*
X019351Y010098D01*
X019429Y010019D01*
X019532Y009977D01*
X020116Y009977D01*
X020219Y010019D01*
X020238Y010038D01*
X020256Y010019D01*
X020359Y009977D01*
X020943Y009977D01*
X021046Y010019D01*
X021124Y010098D01*
X021131Y010115D01*
X021135Y010114D01*
X021309Y010114D01*
X021470Y010180D01*
X021593Y010304D01*
X021660Y010465D01*
X021660Y010639D01*
X021593Y010800D01*
X021470Y010924D01*
X021309Y010990D01*
X021135Y010990D01*
X021131Y010989D01*
X021124Y011006D01*
X021086Y011044D01*
X021124Y011082D01*
X021131Y011099D01*
X021135Y011098D01*
X021309Y011098D01*
X021470Y011165D01*
X021593Y011288D01*
X021660Y011449D01*
X021660Y011623D01*
X021593Y011785D01*
X021470Y011908D01*
X021309Y011975D01*
X021135Y011975D01*
X021131Y011973D01*
X021124Y011990D01*
X021046Y012069D01*
X020943Y012111D01*
X020359Y012111D01*
X020278Y012078D01*
X020263Y013838D01*
X020672Y014247D01*
X020718Y014247D01*
X020880Y014314D01*
X021003Y014437D01*
X021021Y014480D01*
X021021Y013689D01*
X020980Y013592D01*
X020980Y013418D01*
X021047Y013256D01*
X021170Y013133D01*
X021331Y013066D01*
X021506Y013066D01*
X021667Y013133D01*
X021790Y013256D01*
X021857Y013418D01*
X021857Y013592D01*
X021817Y013689D01*
X021817Y016912D01*
X021892Y016988D01*
X021935Y017091D01*
X021935Y017793D01*
X021892Y017896D01*
X021882Y017906D01*
X022537Y017906D01*
X022629Y017944D01*
X022667Y017944D01*
X022800Y017999D01*
X022984Y018183D01*
X023038Y018315D01*
X023038Y018773D01*
X022984Y018905D01*
X022882Y019007D01*
X022780Y019109D01*
X022698Y019143D01*
X022702Y019157D01*
X022702Y019304D01*
X022702Y019451D01*
X022689Y019497D01*
X022719Y019527D01*
X022762Y019630D01*
X022762Y019978D01*
X022719Y020081D01*
X022689Y020110D01*
X022702Y020157D01*
X022702Y020304D01*
X022702Y020451D01*
X022698Y020465D01*
X022780Y020499D01*
X022882Y020601D01*
X022984Y020702D01*
X023038Y020835D01*
X023038Y021293D01*
X022984Y021425D01*
X022882Y021526D01*
X022800Y021609D01*
X022667Y021664D01*
X022629Y021664D01*
X022537Y021702D01*
X021560Y021702D01*
X021457Y021659D01*
X021378Y021581D01*
X021335Y021478D01*
X021335Y021130D01*
X021367Y021054D01*
X021335Y020978D01*
X021335Y020630D01*
X021378Y020527D01*
X021408Y020497D01*
X021395Y020451D01*
X021395Y020304D01*
X022049Y020304D01*
X022702Y020304D01*
X022049Y020304D01*
X022049Y020304D01*
X022049Y020304D01*
X021395Y020304D01*
X021395Y020157D01*
X021404Y020125D01*
X021324Y020092D01*
X021128Y019895D01*
X021032Y019800D01*
X021025Y019783D01*
X021018Y019800D01*
X020922Y019895D01*
X020725Y020092D01*
X020703Y020102D01*
X020714Y020130D01*
X020714Y020478D01*
X020683Y020554D01*
X020714Y020630D01*
X020714Y020978D01*
X020683Y021054D01*
X020714Y021130D01*
X020714Y021478D01*
X020672Y021581D01*
X020593Y021659D01*
X020490Y021702D01*
X019513Y021702D01*
X019417Y021663D01*
X019238Y021663D01*
X019238Y021690D01*
X019195Y021793D01*
X019117Y021872D01*
X019014Y021915D01*
X018992Y021915D01*
X018967Y021976D01*
X018600Y022343D01*
X018728Y022290D01*
X018992Y022290D01*
X019236Y022391D01*
X019422Y022577D01*
X019523Y022821D01*
X019523Y023086D01*
X019422Y023330D01*
X019236Y023516D01*
X018992Y023617D01*
X018728Y023617D01*
X018484Y023516D01*
X018386Y023419D01*
X018391Y023436D01*
X018391Y023713D01*
X017883Y023713D01*
X017883Y023729D01*
X017867Y023729D01*
X017867Y024197D01*
X017551Y024197D01*
X017495Y024182D01*
X017486Y024177D01*
X017486Y026135D01*
X017431Y026267D01*
X016605Y027094D01*
X016504Y027195D01*
X016372Y027249D01*
X014900Y027249D01*
X014894Y027266D01*
X014707Y027452D01*
X014464Y027553D01*
X014200Y027553D01*
X013957Y027452D01*
X013770Y027266D01*
X013670Y027022D01*
X013670Y026759D01*
X013770Y026515D01*
X013957Y026329D01*
X014200Y026228D01*
X014464Y026228D01*
X014707Y026329D01*
X014894Y026515D01*
X014900Y026532D01*
X016152Y026532D01*
X016769Y025915D01*
X016769Y025306D01*
X016725Y025350D01*
X016648Y025406D01*
X016563Y025449D01*
X016473Y025478D01*
X016379Y025493D01*
X016340Y025493D01*
X016340Y024898D01*
X016325Y024898D01*
X016325Y025493D01*
X016285Y025493D01*
X016191Y025478D01*
X016101Y025449D01*
X016016Y025406D01*
X015940Y025350D01*
X015872Y025283D01*
X015817Y025206D01*
X015774Y025122D01*
X015744Y025032D01*
X015730Y024938D01*
X015730Y024898D01*
X016324Y024898D01*
X016325Y024912D02*
X016340Y024912D01*
X016325Y025150D02*
X016340Y025150D01*
X016325Y025389D02*
X016340Y025389D01*
X016672Y025389D02*
X016769Y025389D01*
X016769Y025627D02*
X009661Y025627D01*
X009559Y025509D02*
X009910Y025914D01*
X010132Y026400D01*
X010132Y026400D01*
X010208Y026930D01*
X010132Y027460D01*
X009910Y027946D01*
X009910Y027946D01*
X009559Y028351D01*
X009109Y028640D01*
X008596Y028791D01*
X008061Y028791D01*
X007547Y028640D01*
X007097Y028351D01*
X007097Y028351D01*
X007097Y028351D01*
X006747Y027946D01*
X006524Y027460D01*
X006524Y027460D01*
X006448Y026930D01*
X006448Y026930D01*
X006524Y026400D01*
X006747Y025914D01*
X006747Y025914D01*
X007097Y025509D01*
X007547Y025220D01*
X007547Y025220D01*
X008061Y025069D01*
X008596Y025069D01*
X009109Y025220D01*
X009559Y025509D01*
X009559Y025509D01*
X009559Y025509D01*
X009372Y025389D02*
X011992Y025389D01*
X012016Y025406D02*
X011940Y025350D01*
X011872Y025283D01*
X011817Y025206D01*
X011774Y025122D01*
X011744Y025032D01*
X011730Y024938D01*
X011730Y024898D01*
X012324Y024898D01*
X012324Y024883D01*
X011730Y024883D01*
X011730Y024843D01*
X011744Y024749D01*
X011774Y024659D01*
X011817Y024575D01*
X011872Y024498D01*
X011940Y024431D01*
X012016Y024375D01*
X012101Y024332D01*
X012191Y024303D01*
X012285Y024288D01*
X012325Y024288D01*
X012325Y024883D01*
X012340Y024883D01*
X012340Y024898D01*
X012935Y024898D01*
X012935Y024938D01*
X012920Y025032D01*
X012890Y025122D01*
X012847Y025206D01*
X012792Y025283D01*
X012725Y025350D01*
X012648Y025406D01*
X012563Y025449D01*
X012473Y025478D01*
X012379Y025493D01*
X012340Y025493D01*
X012340Y024898D01*
X012325Y024898D01*
X012325Y025493D01*
X012285Y025493D01*
X012191Y025478D01*
X012101Y025449D01*
X012016Y025406D01*
X012325Y025389D02*
X012340Y025389D01*
X012325Y025150D02*
X012340Y025150D01*
X012364Y024922D02*
X012332Y024891D01*
X012340Y024883D02*
X012935Y024883D01*
X012935Y024843D01*
X012920Y024749D01*
X012890Y024659D01*
X012847Y024575D01*
X012792Y024498D01*
X012725Y024431D01*
X012648Y024375D01*
X012563Y024332D01*
X012473Y024303D01*
X012379Y024288D01*
X012340Y024288D01*
X012340Y024883D01*
X012340Y024912D02*
X012325Y024912D01*
X012325Y024673D02*
X012340Y024673D01*
X012325Y024435D02*
X012340Y024435D01*
X012728Y024435D02*
X015936Y024435D01*
X015972Y024196D02*
X011364Y024196D01*
X011364Y024197D02*
X011364Y024820D01*
X011321Y024923D01*
X011243Y025002D01*
X011140Y025045D01*
X010438Y025045D01*
X010419Y025037D01*
X010352Y025064D01*
X009650Y025064D01*
X009547Y025022D01*
X009509Y024983D01*
X009471Y025022D01*
X009368Y025064D01*
X008666Y025064D01*
X008563Y025022D01*
X008526Y024985D01*
X008238Y024985D01*
X008238Y024517D01*
X008222Y024517D01*
X008222Y024985D01*
X007905Y024985D01*
X007849Y024970D01*
X007799Y024941D01*
X007758Y024900D01*
X007729Y024849D01*
X007714Y024794D01*
X007714Y024517D01*
X008222Y024517D01*
X008222Y024501D01*
X007714Y024501D01*
X007714Y024316D01*
X007111Y024316D01*
X007008Y024274D01*
X006984Y024250D01*
X006959Y024256D01*
X006682Y024256D01*
X006682Y023749D01*
X006667Y023749D01*
X006667Y024256D01*
X006390Y024256D01*
X006334Y024241D01*
X006284Y024212D01*
X006243Y024171D01*
X006214Y024121D01*
X006199Y024065D01*
X006199Y023749D01*
X006667Y023749D01*
X006667Y023733D01*
X006682Y023733D01*
X006682Y023226D01*
X006959Y023226D01*
X006984Y023232D01*
X007008Y023208D01*
X007111Y023166D01*
X007531Y023166D01*
X007562Y023135D01*
X007111Y023135D01*
X007008Y023092D01*
X006984Y023069D01*
X006959Y023075D01*
X006682Y023075D01*
X006682Y022568D01*
X006667Y022568D01*
X006667Y023075D01*
X006390Y023075D01*
X006334Y023060D01*
X006284Y023031D01*
X006243Y022990D01*
X006214Y022940D01*
X006199Y022884D01*
X006199Y022568D01*
X006667Y022568D01*
X006667Y022552D01*
X006199Y022552D01*
X006199Y022289D01*
X005516Y022289D01*
X005414Y022246D01*
X005335Y022167D01*
X005292Y022064D01*
X005292Y021441D01*
X005318Y021379D01*
X005292Y021316D01*
X005292Y020693D01*
X005335Y020590D01*
X005364Y020561D01*
X005351Y020529D01*
X005351Y019886D01*
X005157Y019886D01*
X005157Y019349D01*
X005082Y019349D01*
X005082Y019886D01*
X004775Y019886D01*
X004769Y019885D01*
X004769Y029465D01*
X006210Y029465D01*
X006682Y029591D01*
X007105Y029835D01*
X007450Y030181D01*
X007694Y030604D01*
X007821Y031075D01*
X007821Y032516D01*
X020843Y032516D01*
X020843Y031075D01*
X020970Y030604D01*
X020970Y030604D01*
X021214Y030181D01*
X021214Y030181D01*
X021559Y029835D01*
X021559Y029835D01*
X021982Y029591D01*
X022454Y029465D01*
X023895Y029465D01*
X023895Y009568D01*
X004769Y009568D01*
X004769Y015491D01*
X004775Y015489D01*
X005082Y015489D01*
X005082Y016026D01*
X005157Y016026D01*
X005157Y015489D01*
X005463Y015489D01*
X005519Y015504D01*
X005569Y015533D01*
X005610Y015574D01*
X005639Y015624D01*
X005669Y015551D01*
X005748Y015472D01*
X005851Y015429D01*
X005863Y015429D01*
X005863Y015423D01*
X005698Y015259D01*
X005597Y015015D01*
X005597Y014751D01*
X005698Y014507D01*
X005861Y014344D01*
X005861Y013400D01*
X005828Y013424D01*
X005764Y013457D01*
X005745Y013463D01*
X005588Y013033D01*
X005588Y013033D01*
X005745Y013463D01*
X005695Y013479D01*
X005624Y013491D01*
X005552Y013491D01*
X005481Y013479D01*
X005412Y013457D01*
X005348Y013424D01*
X005290Y013382D01*
X005239Y013331D01*
X005196Y013273D01*
X005164Y013209D01*
X005157Y013190D01*
X005588Y013033D01*
X005588Y013033D01*
X005431Y012602D01*
X005588Y013033D01*
X005588Y013033D01*
X005157Y013190D01*
X005141Y013140D01*
X005130Y013069D01*
X005130Y012997D01*
X005141Y012926D01*
X005164Y012857D01*
X005196Y012793D01*
X005239Y012735D01*
X005290Y012684D01*
X005348Y012641D01*
X005412Y012609D01*
X005431Y012602D01*
X005481Y012586D01*
X005552Y012575D01*
X005624Y012575D01*
X005695Y012586D01*
X005764Y012609D01*
X005828Y012641D01*
X005886Y012684D01*
X005913Y012710D01*
X005922Y012688D01*
X006389Y012221D01*
X006536Y012160D01*
X009136Y012160D01*
X009283Y012221D01*
X009396Y012333D01*
X010782Y013720D01*
X010784Y013714D01*
X010784Y013426D01*
X010845Y013279D01*
X011154Y012970D01*
X011300Y012910D01*
X013194Y012910D01*
X013209Y012874D01*
X013233Y012850D01*
X013226Y012825D01*
X013226Y012548D01*
X013733Y012548D01*
X013733Y012532D01*
X013226Y012532D01*
X013226Y012255D01*
X013241Y012199D01*
X013270Y012149D01*
X013311Y012108D01*
X013361Y012079D01*
X013417Y012064D01*
X013734Y012064D01*
X013734Y012532D01*
X013749Y012532D01*
X013749Y012064D01*
X014066Y012064D01*
X014122Y012079D01*
X014172Y012108D01*
X014213Y012149D01*
X014242Y012199D01*
X014248Y012224D01*
X014248Y012192D01*
X014260Y012115D01*
X014285Y012040D01*
X014320Y011971D01*
X014366Y011907D01*
X014422Y011852D01*
X014485Y011806D01*
X014555Y011770D01*
X014629Y011746D01*
X014706Y011734D01*
X014745Y011734D01*
X014745Y012231D01*
X014745Y012231D01*
X014745Y011734D01*
X014785Y011734D01*
X014862Y011746D01*
X014936Y011770D01*
X015006Y011806D01*
X015069Y011852D01*
X015125Y011907D01*
X015171Y011971D01*
X015206Y012040D01*
X015230Y012115D01*
X015243Y012192D01*
X015243Y012231D01*
X014745Y012231D01*
X014745Y012231D01*
X015243Y012231D01*
X015243Y012270D01*
X015230Y012348D01*
X015206Y012422D01*
X015171Y012492D01*
X015125Y012555D01*
X015069Y012610D01*
X015006Y012656D01*
X014936Y012692D01*
X014916Y012699D01*
X015061Y012759D01*
X015218Y012915D01*
X015303Y013120D01*
X015303Y013342D01*
X015218Y013547D01*
X015061Y013703D01*
X014994Y013731D01*
X015061Y013759D01*
X015218Y013915D01*
X015303Y014120D01*
X015303Y014342D01*
X015218Y014547D01*
X015144Y014621D01*
X015144Y015338D01*
X015219Y015413D01*
X015262Y015516D01*
X015262Y016218D01*
X015219Y016321D01*
X015140Y016400D01*
X015037Y016442D01*
X014453Y016442D01*
X014351Y016400D01*
X014332Y016381D01*
X014313Y016400D01*
X014258Y016423D01*
X014258Y016710D01*
X014372Y016824D01*
X014372Y016829D01*
X014633Y016568D01*
X014832Y016568D01*
X014832Y017048D01*
X014832Y017048D01*
X014832Y016568D01*
X015031Y016568D01*
X015312Y016849D01*
X015312Y017048D01*
X014832Y017048D01*
X014832Y017048D01*
X015312Y017048D01*
X015312Y017247D01*
X015031Y017528D01*
X014832Y017528D01*
X014633Y017528D01*
X014372Y017267D01*
X014372Y017272D01*
X014056Y017588D01*
X013608Y017588D01*
X013292Y017272D01*
X013292Y016824D01*
X013580Y016537D01*
X013580Y016423D01*
X013524Y016400D01*
X013445Y016321D01*
X013402Y016218D01*
X013402Y016164D01*
X013402Y016165D01*
X013351Y016216D01*
X013292Y016258D01*
X013228Y016291D01*
X013160Y016313D01*
X013089Y016325D01*
X013052Y016325D01*
X013016Y016325D01*
X012945Y016313D01*
X012877Y016291D01*
X012813Y016258D01*
X012754Y016216D01*
X012703Y016165D01*
X012661Y016107D01*
X012628Y016043D01*
X012606Y015974D01*
X012595Y015903D01*
X012595Y015867D01*
X013052Y015867D01*
X013052Y015867D01*
X012595Y015867D01*
X012595Y015831D01*
X012606Y015760D01*
X012628Y015691D01*
X012661Y015627D01*
X012703Y015569D01*
X012754Y015518D01*
X012813Y015475D01*
X012877Y015443D01*
X012945Y015420D01*
X013016Y015409D01*
X013052Y015409D01*
X013052Y015867D01*
X013052Y016325D01*
X013052Y015867D01*
X013052Y015867D01*
X013052Y015867D01*
X013052Y015409D01*
X013089Y015409D01*
X013160Y015420D01*
X013228Y015443D01*
X013292Y015475D01*
X013301Y015481D01*
X013270Y015451D01*
X013241Y015401D01*
X013226Y015345D01*
X013226Y015068D01*
X013733Y015068D01*
X013733Y015052D01*
X013226Y015052D01*
X013226Y014775D01*
X013233Y014750D01*
X013209Y014726D01*
X013194Y014690D01*
X011621Y014690D01*
X011621Y014773D01*
X011554Y014934D01*
X011431Y015058D01*
X011423Y015061D01*
X011423Y015289D01*
X011460Y015304D01*
X011647Y015491D01*
X011748Y015735D01*
X011748Y015999D01*
X011647Y016243D01*
X011460Y016430D01*
X011423Y016445D01*
X011423Y016622D01*
X011498Y016653D01*
X011577Y016732D01*
X011608Y016805D01*
X011636Y016755D01*
X011677Y016715D01*
X011727Y016686D01*
X011783Y016671D01*
X012090Y016671D01*
X012090Y017207D01*
X012165Y017207D01*
X012165Y016671D01*
X012471Y016671D01*
X012527Y016686D01*
X012577Y016715D01*
X012618Y016755D01*
X012647Y016806D01*
X012662Y016862D01*
X012662Y017207D01*
X012165Y017207D01*
X012165Y017282D01*
X012662Y017282D01*
X012662Y017628D01*
X012647Y017684D01*
X012618Y017734D01*
X012577Y017775D01*
X012527Y017804D01*
X012471Y017819D01*
X012165Y017819D01*
X012165Y017282D01*
X012090Y017282D01*
X012090Y017658D01*
X012109Y017677D01*
X012151Y017780D01*
X012151Y018285D01*
X012109Y018388D01*
X012071Y018426D01*
X012109Y018464D01*
X012151Y018567D01*
X012151Y019072D01*
X012109Y019175D01*
X012090Y019194D01*
X012090Y019570D01*
X012165Y019570D01*
X012165Y019645D01*
X012090Y019645D01*
X012090Y020181D01*
X012090Y020455D01*
X012165Y020455D01*
X012165Y019645D01*
X012662Y019645D01*
X012662Y019990D01*
X012647Y020046D01*
X012645Y020050D01*
X012647Y020054D01*
X012662Y020110D01*
X012662Y020455D01*
X012165Y020455D01*
X012165Y020530D01*
X012662Y020530D01*
X012662Y020876D01*
X012647Y020932D01*
X012618Y020982D01*
X012577Y021023D01*
X012527Y021052D01*
X012471Y021067D01*
X012165Y021067D01*
X012165Y020530D01*
X012090Y020530D01*
X012090Y021067D01*
X011927Y021067D01*
X011935Y021087D01*
X011935Y021357D01*
X011941Y021356D01*
X012560Y021356D01*
X012560Y021772D01*
X012560Y021772D01*
X012560Y021356D01*
X013180Y021356D01*
X013236Y021371D01*
X013286Y021400D01*
X013327Y021441D01*
X013356Y021491D01*
X013371Y021547D01*
X013371Y021772D01*
X012560Y021772D01*
X012560Y021772D01*
X013371Y021772D01*
X013371Y021998D01*
X013356Y022054D01*
X013327Y022104D01*
X013307Y022125D01*
X013310Y022126D01*
X013388Y022204D01*
X013431Y022307D01*
X013431Y022334D01*
X013481Y022455D01*
X013481Y023334D01*
X013431Y023455D01*
X013338Y023548D01*
X013217Y023599D01*
X011795Y023599D01*
X011818Y023654D01*
X011818Y023828D01*
X011751Y023989D01*
X011628Y024113D01*
X011466Y024179D01*
X011357Y024179D01*
X011364Y024197D01*
X011364Y024435D02*
X011936Y024435D01*
X011769Y024673D02*
X011364Y024673D01*
X011326Y024912D02*
X011730Y024912D01*
X011788Y025150D02*
X008871Y025150D01*
X009109Y025220D02*
X009109Y025220D01*
X009868Y025866D02*
X016769Y025866D01*
X016580Y026104D02*
X009997Y026104D01*
X009910Y025914D02*
X009910Y025914D01*
X010106Y026343D02*
X013943Y026343D01*
X013743Y026581D02*
X010158Y026581D01*
X010192Y026820D02*
X013670Y026820D01*
X013684Y027058D02*
X010190Y027058D01*
X010155Y027297D02*
X013801Y027297D01*
X014157Y027535D02*
X010097Y027535D01*
X010132Y027460D02*
X010132Y027460D01*
X009989Y027774D02*
X018675Y027774D01*
X018754Y027946D02*
X018532Y027460D01*
X018532Y027460D01*
X018456Y026930D01*
X018456Y026930D01*
X018532Y026400D01*
X018754Y025914D01*
X018754Y025914D01*
X019105Y025509D01*
X019555Y025220D01*
X020068Y025069D01*
X020603Y025069D01*
X021117Y025220D01*
X021567Y025509D01*
X021567Y025509D01*
X021918Y025914D01*
X022140Y026400D01*
X022216Y026930D01*
X022140Y027460D01*
X021918Y027946D01*
X021918Y027946D01*
X021567Y028351D01*
X021117Y028640D01*
X021117Y028640D01*
X020603Y028791D01*
X020068Y028791D01*
X019555Y028640D01*
X019555Y028640D01*
X019105Y028351D01*
X019105Y028351D01*
X019105Y028351D01*
X018754Y027946D01*
X018754Y027946D01*
X018811Y028012D02*
X009853Y028012D01*
X009646Y028251D02*
X019018Y028251D01*
X019320Y028489D02*
X016783Y028489D01*
X016792Y028498D02*
X016725Y028431D01*
X016648Y028375D01*
X016563Y028332D01*
X016473Y028303D01*
X016379Y028288D01*
X016340Y028288D01*
X016340Y028883D01*
X016340Y028898D01*
X016935Y028898D01*
X016935Y028938D01*
X016920Y029032D01*
X016890Y029122D01*
X016847Y029206D01*
X016792Y029283D01*
X016725Y029350D01*
X016648Y029406D01*
X016563Y029449D01*
X016473Y029478D01*
X016379Y029493D01*
X016340Y029493D01*
X016340Y028898D01*
X016325Y028898D01*
X016325Y029493D01*
X016285Y029493D01*
X016191Y029478D01*
X016101Y029449D01*
X016016Y029406D01*
X015940Y029350D01*
X015872Y029283D01*
X015817Y029206D01*
X015774Y029122D01*
X015744Y029032D01*
X015730Y028938D01*
X015730Y028898D01*
X016324Y028898D01*
X016324Y028883D01*
X015730Y028883D01*
X015730Y028843D01*
X015744Y028749D01*
X015774Y028659D01*
X015817Y028575D01*
X015872Y028498D01*
X015940Y028431D01*
X016016Y028375D01*
X016101Y028332D01*
X016191Y028303D01*
X016285Y028288D01*
X016325Y028288D01*
X016325Y028883D01*
X016340Y028883D01*
X016935Y028883D01*
X016935Y028843D01*
X016920Y028749D01*
X016890Y028659D01*
X016847Y028575D01*
X016792Y028498D01*
X016913Y028728D02*
X019853Y028728D01*
X020819Y028728D02*
X023895Y028728D01*
X023895Y028966D02*
X016930Y028966D01*
X016848Y029205D02*
X023895Y029205D01*
X023895Y029443D02*
X016575Y029443D01*
X016340Y029443D02*
X016325Y029443D01*
X016089Y029443D02*
X012575Y029443D01*
X012563Y029449D02*
X012473Y029478D01*
X012379Y029493D01*
X012340Y029493D01*
X012340Y028898D01*
X012935Y028898D01*
X012935Y028938D01*
X012920Y029032D01*
X012890Y029122D01*
X012847Y029206D01*
X012792Y029283D01*
X012725Y029350D01*
X012648Y029406D01*
X012563Y029449D01*
X012340Y029443D02*
X012325Y029443D01*
X012325Y029493D02*
X012325Y028898D01*
X012340Y028898D01*
X012340Y028883D01*
X012935Y028883D01*
X012935Y028843D01*
X012920Y028749D01*
X012890Y028659D01*
X012847Y028575D01*
X012792Y028498D01*
X012725Y028431D01*
X012648Y028375D01*
X012563Y028332D01*
X012473Y028303D01*
X012379Y028288D01*
X012340Y028288D01*
X012340Y028883D01*
X012325Y028883D01*
X012325Y028288D01*
X012285Y028288D01*
X012191Y028303D01*
X012101Y028332D01*
X012016Y028375D01*
X011940Y028431D01*
X011872Y028498D01*
X011817Y028575D01*
X011774Y028659D01*
X011744Y028749D01*
X011730Y028843D01*
X011730Y028883D01*
X012324Y028883D01*
X012324Y028898D01*
X011730Y028898D01*
X011730Y028938D01*
X011744Y029032D01*
X011774Y029122D01*
X011817Y029206D01*
X011872Y029283D01*
X011940Y029350D01*
X012016Y029406D01*
X012101Y029449D01*
X012191Y029478D01*
X012285Y029493D01*
X012325Y029493D01*
X012089Y029443D02*
X004769Y029443D01*
X004769Y029205D02*
X011816Y029205D01*
X011734Y028966D02*
X004769Y028966D01*
X004769Y028728D02*
X007845Y028728D01*
X007547Y028640D02*
X007547Y028640D01*
X007312Y028489D02*
X004769Y028489D01*
X004769Y028251D02*
X007010Y028251D01*
X006803Y028012D02*
X004769Y028012D01*
X004769Y027774D02*
X006668Y027774D01*
X006747Y027946D02*
X006747Y027946D01*
X006559Y027535D02*
X004769Y027535D01*
X004769Y027297D02*
X006501Y027297D01*
X006466Y027058D02*
X004769Y027058D01*
X004769Y026820D02*
X006464Y026820D01*
X006498Y026581D02*
X004769Y026581D01*
X004769Y026343D02*
X006551Y026343D01*
X006524Y026400D02*
X006524Y026400D01*
X006660Y026104D02*
X004769Y026104D01*
X004769Y025866D02*
X006788Y025866D01*
X006995Y025627D02*
X004769Y025627D01*
X004769Y025389D02*
X005275Y025389D01*
X005273Y025387D02*
X005205Y025319D01*
X005149Y025242D01*
X005106Y025156D01*
X005076Y025065D01*
X005061Y024970D01*
X005061Y024932D01*
X005661Y024932D01*
X005661Y025532D01*
X005623Y025532D01*
X005528Y025517D01*
X005437Y025487D01*
X005351Y025444D01*
X005273Y025387D01*
X005104Y025150D02*
X004769Y025150D01*
X004769Y024912D02*
X005061Y024912D01*
X005061Y024874D01*
X005076Y024779D01*
X005106Y024688D01*
X005149Y024602D01*
X005205Y024525D01*
X005273Y024457D01*
X005351Y024401D01*
X005437Y024357D01*
X005528Y024327D01*
X005623Y024312D01*
X005661Y024312D01*
X005661Y024912D01*
X005681Y024912D01*
X005681Y024932D01*
X006280Y024932D01*
X006280Y024970D01*
X006265Y025065D01*
X006236Y025156D01*
X006192Y025242D01*
X006136Y025319D01*
X006068Y025387D01*
X005990Y025444D01*
X005905Y025487D01*
X005813Y025517D01*
X005719Y025532D01*
X005681Y025532D01*
X005681Y024932D01*
X005661Y024932D01*
X005661Y024912D01*
X005061Y024912D01*
X005113Y024673D02*
X004769Y024673D01*
X004769Y024435D02*
X005304Y024435D01*
X005661Y024435D02*
X005681Y024435D01*
X005681Y024312D02*
X005719Y024312D01*
X005813Y024327D01*
X005905Y024357D01*
X005990Y024401D01*
X006068Y024457D01*
X006136Y024525D01*
X006192Y024602D01*
X006236Y024688D01*
X006265Y024779D01*
X006280Y024874D01*
X006280Y024912D01*
X005681Y024912D01*
X005681Y024312D01*
X005661Y024673D02*
X005681Y024673D01*
X005661Y024912D02*
X005681Y024912D01*
X005661Y025150D02*
X005681Y025150D01*
X005661Y025389D02*
X005681Y025389D01*
X006066Y025389D02*
X007285Y025389D01*
X007097Y025509D02*
X007097Y025509D01*
X007714Y024673D02*
X006228Y024673D01*
X006280Y024912D02*
X007770Y024912D01*
X007785Y025150D02*
X006238Y025150D01*
X006037Y024435D02*
X007714Y024435D01*
X008230Y024509D02*
X006832Y024509D01*
X006655Y024331D01*
X006655Y023761D01*
X006675Y023741D01*
X006675Y023170D01*
X006655Y023150D02*
X005671Y023150D01*
X005080Y022560D01*
X005080Y022166D01*
X005080Y019410D01*
X005082Y019426D02*
X005157Y019426D01*
X005119Y019312D02*
X005119Y018426D01*
X005080Y018387D01*
X005080Y018229D01*
X005080Y016103D01*
X005119Y016064D01*
X005082Y016101D02*
X005082Y016638D01*
X004775Y016638D01*
X004769Y016637D01*
X004769Y017853D01*
X004775Y017852D01*
X005082Y017852D01*
X005082Y018388D01*
X005157Y018388D01*
X005157Y018013D01*
X005138Y017994D01*
X005095Y017891D01*
X005095Y017386D01*
X005138Y017283D01*
X005176Y017245D01*
X005138Y017207D01*
X005095Y017104D01*
X005095Y016599D01*
X005138Y016496D01*
X005157Y016477D01*
X005157Y016101D01*
X005082Y016101D01*
X005082Y016326D02*
X005157Y016326D01*
X005110Y016564D02*
X005082Y016564D01*
X005095Y016803D02*
X004769Y016803D01*
X004769Y017041D02*
X005095Y017041D01*
X005142Y017280D02*
X004769Y017280D01*
X004769Y017518D02*
X005095Y017518D01*
X005095Y017757D02*
X004769Y017757D01*
X005082Y017995D02*
X005139Y017995D01*
X005157Y018234D02*
X005082Y018234D01*
X005080Y018229D02*
X005119Y018269D01*
X005119Y018426D01*
X005082Y018463D02*
X005082Y018737D01*
X005082Y019274D01*
X005157Y019274D01*
X005157Y018463D01*
X005082Y018463D01*
X005082Y018472D02*
X005157Y018472D01*
X005157Y018711D02*
X005082Y018711D01*
X005082Y018949D02*
X005157Y018949D01*
X005157Y019188D02*
X005082Y019188D01*
X005119Y019312D02*
X005120Y019330D01*
X005118Y019349D01*
X005112Y019366D01*
X005104Y019383D01*
X005093Y019398D01*
X005080Y019410D01*
X005082Y019665D02*
X005157Y019665D01*
X005351Y019903D02*
X004769Y019903D01*
X004769Y020142D02*
X005351Y020142D01*
X005351Y020380D02*
X004769Y020380D01*
X004769Y020619D02*
X005323Y020619D01*
X005292Y020857D02*
X004769Y020857D01*
X004769Y021096D02*
X005292Y021096D01*
X005299Y021334D02*
X004769Y021334D01*
X004769Y021573D02*
X005292Y021573D01*
X005292Y021811D02*
X004769Y021811D01*
X004769Y022050D02*
X005292Y022050D01*
X005515Y022288D02*
X004769Y022288D01*
X004769Y022527D02*
X006199Y022527D01*
X006199Y022765D02*
X004769Y022765D01*
X004769Y023004D02*
X006256Y023004D01*
X006334Y023241D02*
X006390Y023226D01*
X006667Y023226D01*
X006667Y023733D01*
X006199Y023733D01*
X006199Y023417D01*
X006214Y023361D01*
X006243Y023311D01*
X006284Y023270D01*
X006334Y023241D01*
X006331Y023242D02*
X004769Y023242D01*
X004769Y023481D02*
X006199Y023481D01*
X006199Y023719D02*
X004769Y023719D01*
X004769Y023958D02*
X006199Y023958D01*
X006267Y024196D02*
X004769Y024196D01*
X006667Y024196D02*
X006682Y024196D01*
X006667Y023958D02*
X006682Y023958D01*
X006667Y023719D02*
X006682Y023719D01*
X006667Y023481D02*
X006682Y023481D01*
X006667Y023242D02*
X006682Y023242D01*
X006667Y023004D02*
X006682Y023004D01*
X006667Y022765D02*
X006682Y022765D01*
X007958Y022806D02*
X007958Y022911D01*
X007955Y022919D01*
X008093Y022919D01*
X008338Y022674D01*
X008459Y022624D01*
X008620Y022624D01*
X008620Y022613D01*
X008481Y022613D01*
X008425Y022598D01*
X008375Y022569D01*
X008334Y022528D01*
X008305Y022478D01*
X008290Y022422D01*
X008290Y022379D01*
X008273Y022362D01*
X008264Y022342D01*
X008264Y022429D01*
X008214Y022550D01*
X008017Y022747D01*
X007958Y022806D01*
X007999Y022765D02*
X008247Y022765D01*
X008224Y022527D02*
X008333Y022527D01*
X008858Y020557D02*
X009033Y020557D01*
X009155Y020607D01*
X009220Y020672D01*
X009220Y020570D01*
X009054Y020403D01*
X009032Y020351D01*
X008996Y020337D01*
X008917Y020258D01*
X008875Y020155D01*
X008875Y019453D01*
X008888Y019421D01*
X008878Y019411D01*
X008835Y019308D01*
X008835Y019079D01*
X008631Y019079D01*
X008631Y018611D01*
X008615Y018611D01*
X008615Y019079D01*
X008299Y019079D01*
X008278Y019073D01*
X008313Y019158D01*
X008313Y019663D01*
X008270Y019766D01*
X008191Y019844D01*
X008166Y019855D01*
X008166Y019864D01*
X008858Y020557D01*
X008682Y020380D02*
X009044Y020380D01*
X009166Y020619D02*
X009220Y020619D01*
X008875Y020142D02*
X008443Y020142D01*
X008205Y019903D02*
X008875Y019903D01*
X008875Y019665D02*
X008312Y019665D01*
X008313Y019426D02*
X008886Y019426D01*
X008835Y019188D02*
X008313Y019188D01*
X008615Y018949D02*
X008631Y018949D01*
X008615Y018711D02*
X008631Y018711D01*
X008631Y018595D02*
X008631Y018391D01*
X008615Y018391D01*
X008615Y018595D01*
X008631Y018595D01*
X008631Y018472D02*
X008615Y018472D01*
X009403Y018461D02*
X009403Y018257D01*
X009419Y018257D01*
X009419Y018461D01*
X009403Y018461D01*
X009080Y017033D02*
X010323Y017033D01*
X010430Y017077D01*
X010430Y016835D01*
X010473Y016732D01*
X010551Y016653D01*
X010627Y016622D01*
X010627Y016349D01*
X010521Y016243D01*
X010420Y015999D01*
X010420Y015735D01*
X010521Y015491D01*
X010627Y015385D01*
X010627Y014764D01*
X010664Y014674D01*
X010562Y014631D01*
X009009Y013078D01*
X009016Y013106D01*
X009016Y013505D01*
X009016Y013904D01*
X009002Y013960D01*
X008973Y014010D01*
X008932Y014051D01*
X008881Y014080D01*
X008825Y014095D01*
X008427Y014095D01*
X008427Y013505D01*
X009016Y013505D01*
X008427Y013505D01*
X008427Y013505D01*
X008426Y013505D01*
X008426Y014095D01*
X008166Y014095D01*
X008166Y014151D01*
X008239Y014224D01*
X008281Y014327D01*
X008281Y015438D01*
X008247Y015522D01*
X008270Y015531D01*
X008294Y015555D01*
X008319Y015549D01*
X008596Y015549D01*
X008596Y016056D01*
X008612Y016056D01*
X008612Y016072D01*
X009080Y016072D01*
X009080Y016388D01*
X009065Y016444D01*
X009057Y016457D01*
X009065Y016471D01*
X009080Y016527D01*
X009080Y016843D01*
X008612Y016843D01*
X008612Y016859D01*
X009080Y016859D01*
X009080Y017033D01*
X009080Y016803D02*
X010443Y016803D01*
X010430Y017041D02*
X010342Y017041D01*
X010627Y016564D02*
X009080Y016564D01*
X009080Y016326D02*
X010604Y016326D01*
X010457Y016087D02*
X009080Y016087D01*
X009080Y016056D02*
X008612Y016056D01*
X008612Y015549D01*
X008706Y015549D01*
X008675Y015518D01*
X008646Y015468D01*
X008631Y015412D01*
X008631Y015003D01*
X009231Y015003D01*
X009231Y014763D01*
X008631Y014763D01*
X008631Y014354D01*
X008646Y014298D01*
X008675Y014248D01*
X008716Y014207D01*
X008767Y014178D01*
X008823Y014163D01*
X009231Y014163D01*
X009231Y014763D01*
X009471Y014763D01*
X009471Y014163D01*
X009880Y014163D01*
X009936Y014178D01*
X009987Y014207D01*
X010028Y014248D01*
X010057Y014298D01*
X010071Y014354D01*
X010071Y014763D01*
X009471Y014763D01*
X009471Y015003D01*
X009231Y015003D01*
X009231Y015603D01*
X009005Y015603D01*
X009036Y015633D01*
X009065Y015684D01*
X009080Y015740D01*
X009080Y016056D01*
X009080Y015849D02*
X010420Y015849D01*
X010472Y015610D02*
X009012Y015610D01*
X009231Y015372D02*
X009471Y015372D01*
X009471Y015603D02*
X009471Y015003D01*
X010071Y015003D01*
X010071Y015412D01*
X010057Y015468D01*
X010028Y015518D01*
X009987Y015559D01*
X009936Y015588D01*
X009880Y015603D01*
X009471Y015603D01*
X009471Y015133D02*
X009231Y015133D01*
X009231Y014895D02*
X008281Y014895D01*
X008281Y015133D02*
X008631Y015133D01*
X008631Y015372D02*
X008281Y015372D01*
X008596Y015610D02*
X008612Y015610D01*
X008596Y015849D02*
X008612Y015849D01*
X008612Y016072D02*
X008596Y016072D01*
X008596Y016579D01*
X008596Y016843D01*
X008612Y016843D01*
X008612Y016072D01*
X008612Y016087D02*
X008596Y016087D01*
X008596Y016326D02*
X008612Y016326D01*
X008596Y016564D02*
X008612Y016564D01*
X008596Y016803D02*
X008612Y016803D01*
X007856Y016064D02*
X007541Y015965D01*
X007442Y015867D01*
X007426Y015851D01*
X007442Y015867D02*
X007442Y015769D01*
X007639Y015572D01*
X007442Y015572D01*
X007344Y015670D01*
X006261Y016103D02*
X006222Y016064D01*
X006261Y016103D02*
X006261Y016851D01*
X005966Y016851D01*
X005966Y017639D02*
X006261Y017639D01*
X006261Y018387D01*
X006222Y018426D01*
X006222Y019312D01*
X006261Y019351D01*
X006261Y019804D01*
X005907Y020158D01*
X005907Y020198D01*
X005907Y020965D01*
X008222Y024673D02*
X008238Y024673D01*
X008222Y024912D02*
X008238Y024912D01*
X009559Y028351D02*
X009559Y028351D01*
X009344Y028489D02*
X011881Y028489D01*
X011751Y028728D02*
X008811Y028728D01*
X009109Y028640D02*
X009109Y028640D01*
X007575Y030397D02*
X021089Y030397D01*
X020961Y030636D02*
X007703Y030636D01*
X007694Y030604D02*
X007694Y030604D01*
X007767Y030874D02*
X020897Y030874D01*
X020843Y031113D02*
X007821Y031113D01*
X007821Y031351D02*
X020843Y031351D01*
X020843Y031590D02*
X007821Y031590D01*
X007821Y031828D02*
X020843Y031828D01*
X020843Y032067D02*
X007821Y032067D01*
X007821Y032305D02*
X020843Y032305D01*
X021236Y030159D02*
X007428Y030159D01*
X007450Y030181D02*
X007450Y030181D01*
X007450Y030181D01*
X007189Y029920D02*
X021475Y029920D01*
X021826Y029682D02*
X006838Y029682D01*
X006682Y029591D02*
X006682Y029591D01*
X007105Y029835D02*
X007105Y029835D01*
X011764Y023958D02*
X015785Y023958D01*
X015785Y023481D02*
X013406Y023481D01*
X013481Y023242D02*
X015725Y023242D01*
X015725Y023004D02*
X013481Y023004D01*
X013481Y022765D02*
X015725Y022765D01*
X015800Y022527D02*
X013481Y022527D01*
X013423Y022288D02*
X016164Y022288D01*
X016458Y022560D02*
X016694Y022324D01*
X017068Y022324D01*
X017088Y022186D01*
X016816Y021650D02*
X017360Y021650D01*
X017360Y021398D01*
X017360Y021133D01*
X017375Y021077D01*
X017404Y021028D01*
X017343Y020966D01*
X017300Y020864D01*
X017300Y020654D01*
X017096Y020654D01*
X017096Y020186D01*
X017080Y020186D01*
X017080Y020654D01*
X016860Y020654D01*
X016876Y020693D01*
X016876Y021316D01*
X016833Y021419D01*
X016809Y021443D01*
X016816Y021468D01*
X016816Y021650D01*
X016816Y021573D02*
X017360Y021573D01*
X017360Y021398D02*
X017875Y021398D01*
X017360Y021398D01*
X017360Y021334D02*
X016868Y021334D01*
X016876Y021096D02*
X017370Y021096D01*
X017300Y020857D02*
X016876Y020857D01*
X017080Y020619D02*
X017096Y020619D01*
X017080Y020380D02*
X017096Y020380D01*
X017875Y021398D02*
X017875Y021398D01*
X018654Y022288D02*
X023895Y022288D01*
X023895Y022050D02*
X018893Y022050D01*
X019178Y021811D02*
X023895Y021811D01*
X023895Y021573D02*
X022836Y021573D01*
X022882Y021526D02*
X022882Y021526D01*
X023021Y021334D02*
X023895Y021334D01*
X023895Y021096D02*
X023038Y021096D01*
X023038Y020857D02*
X023895Y020857D01*
X023895Y020619D02*
X022900Y020619D01*
X022702Y020380D02*
X023895Y020380D01*
X023895Y020142D02*
X022698Y020142D01*
X022762Y019903D02*
X023895Y019903D01*
X023895Y019665D02*
X022762Y019665D01*
X022702Y019426D02*
X023895Y019426D01*
X023895Y019188D02*
X022702Y019188D01*
X022702Y019304D02*
X022049Y019304D01*
X022702Y019304D01*
X022882Y019007D02*
X022882Y019007D01*
X022940Y018949D02*
X023895Y018949D01*
X023895Y018711D02*
X023038Y018711D01*
X023038Y018472D02*
X023895Y018472D01*
X023895Y018234D02*
X023005Y018234D01*
X022791Y017995D02*
X023895Y017995D01*
X023895Y017757D02*
X021935Y017757D01*
X021935Y017518D02*
X023895Y017518D01*
X023895Y017280D02*
X021935Y017280D01*
X021914Y017041D02*
X023895Y017041D01*
X023895Y016803D02*
X021817Y016803D01*
X021817Y016564D02*
X023895Y016564D01*
X023895Y016326D02*
X021817Y016326D01*
X021817Y016087D02*
X023895Y016087D01*
X023895Y015849D02*
X021817Y015849D01*
X021817Y015610D02*
X023895Y015610D01*
X023895Y015372D02*
X021817Y015372D01*
X021817Y015133D02*
X023895Y015133D01*
X023895Y014895D02*
X021817Y014895D01*
X021817Y014656D02*
X023895Y014656D01*
X023895Y014418D02*
X021817Y014418D01*
X021817Y014179D02*
X023895Y014179D01*
X023895Y013941D02*
X021817Y013941D01*
X021817Y013702D02*
X023895Y013702D01*
X023895Y013464D02*
X021857Y013464D01*
X021759Y013225D02*
X023895Y013225D01*
X023895Y012987D02*
X020270Y012987D01*
X020268Y013225D02*
X021078Y013225D01*
X020980Y013464D02*
X020266Y013464D01*
X020264Y013702D02*
X021021Y013702D01*
X021021Y013941D02*
X020365Y013941D01*
X020604Y014179D02*
X021021Y014179D01*
X021021Y014418D02*
X020983Y014418D01*
X020193Y014727D02*
X019729Y014264D01*
X019728Y014263D01*
X019682Y014216D01*
X019635Y014169D01*
X019635Y014168D01*
X019633Y014167D01*
X019609Y014106D01*
X019584Y014045D01*
X019584Y014043D01*
X019583Y014042D01*
X019584Y013976D01*
X019584Y013910D01*
X019584Y013908D01*
X019600Y012111D01*
X019532Y012111D01*
X019429Y012069D01*
X019395Y012035D01*
X019395Y012928D01*
X019448Y012981D01*
X019515Y013142D01*
X019515Y013316D01*
X019448Y013477D01*
X019324Y013601D01*
X019273Y013622D01*
X019273Y015402D01*
X019485Y015614D01*
X019485Y016120D01*
X019273Y016331D01*
X019273Y016402D01*
X019485Y016614D01*
X019485Y017120D01*
X019180Y017425D01*
X019195Y017441D01*
X019233Y017532D01*
X019279Y017551D01*
X019322Y017594D01*
X019340Y017594D01*
X019502Y017661D01*
X019625Y017784D01*
X019675Y017906D01*
X020168Y017906D01*
X020158Y017896D01*
X020115Y017793D01*
X020115Y017091D01*
X020158Y016988D01*
X020233Y016912D01*
X020233Y014870D01*
X020193Y014773D01*
X020193Y014727D01*
X020122Y014656D02*
X019273Y014656D01*
X019273Y014418D02*
X019883Y014418D01*
X019645Y014179D02*
X019273Y014179D01*
X019273Y013941D02*
X019584Y013941D01*
X019586Y013702D02*
X019273Y013702D01*
X019454Y013464D02*
X019588Y013464D01*
X019590Y013225D02*
X019515Y013225D01*
X019450Y012987D02*
X019592Y012987D01*
X019594Y012748D02*
X019395Y012748D01*
X019395Y012510D02*
X019596Y012510D01*
X019598Y012271D02*
X019395Y012271D01*
X018717Y012271D02*
X016069Y012271D01*
X016069Y012033D02*
X018717Y012033D01*
X018717Y011794D02*
X016069Y011794D01*
X016069Y011556D02*
X018717Y011556D01*
X018717Y011317D02*
X016069Y011317D01*
X016069Y011079D02*
X018717Y011079D01*
X018717Y010840D02*
X016054Y010840D01*
X015873Y010602D02*
X018750Y010602D01*
X018963Y010363D02*
X015635Y010363D01*
X015396Y010125D02*
X019340Y010125D01*
X020277Y012271D02*
X023895Y012271D01*
X023895Y012033D02*
X021082Y012033D01*
X021584Y011794D02*
X023895Y011794D01*
X023895Y011556D02*
X021660Y011556D01*
X021606Y011317D02*
X023895Y011317D01*
X023895Y011079D02*
X021121Y011079D01*
X021554Y010840D02*
X023895Y010840D01*
X023895Y010602D02*
X021660Y010602D01*
X021618Y010363D02*
X023895Y010363D01*
X023895Y010125D02*
X021335Y010125D01*
X020275Y012510D02*
X023895Y012510D01*
X023895Y012748D02*
X020272Y012748D01*
X020233Y014895D02*
X019273Y014895D01*
X019273Y015133D02*
X020233Y015133D01*
X020233Y015372D02*
X019273Y015372D01*
X019481Y015610D02*
X020233Y015610D01*
X020233Y015849D02*
X019485Y015849D01*
X019485Y016087D02*
X020233Y016087D01*
X020233Y016326D02*
X019279Y016326D01*
X019435Y016564D02*
X020233Y016564D01*
X020233Y016803D02*
X019485Y016803D01*
X019485Y017041D02*
X020136Y017041D01*
X020115Y017280D02*
X019325Y017280D01*
X019227Y017518D02*
X020115Y017518D01*
X020115Y017757D02*
X019598Y017757D01*
X020915Y019903D02*
X021135Y019903D01*
X021400Y020142D02*
X020714Y020142D01*
X020714Y020380D02*
X021395Y020380D01*
X021340Y020619D02*
X020710Y020619D01*
X020714Y020857D02*
X021335Y020857D01*
X021350Y021096D02*
X020700Y021096D01*
X020714Y021334D02*
X021335Y021334D01*
X021375Y021573D02*
X020675Y021573D01*
X020792Y022496D02*
X020721Y022507D01*
X020652Y022529D01*
X020588Y022562D01*
X020530Y022604D01*
X020479Y022655D01*
X020437Y022714D01*
X020404Y022778D01*
X020382Y022846D01*
X020370Y022918D01*
X020370Y022954D01*
X020828Y022954D01*
X020828Y023411D01*
X020792Y023411D01*
X020721Y023400D01*
X020652Y023378D01*
X020588Y023345D01*
X020530Y023303D01*
X020479Y023252D01*
X020437Y023193D01*
X020404Y023129D01*
X020382Y023061D01*
X020370Y022990D01*
X020370Y022954D01*
X020828Y022954D01*
X020828Y022954D01*
X020828Y023411D01*
X020864Y023411D01*
X020935Y023400D01*
X021004Y023378D01*
X021068Y023345D01*
X021126Y023303D01*
X021177Y023252D01*
X021220Y023193D01*
X021252Y023129D01*
X021275Y023061D01*
X021286Y022990D01*
X021286Y022954D01*
X020828Y022954D01*
X020828Y022954D01*
X020828Y022954D01*
X021286Y022954D01*
X021286Y022918D01*
X021275Y022846D01*
X021252Y022778D01*
X021220Y022714D01*
X021177Y022655D01*
X021126Y022604D01*
X021068Y022562D01*
X021004Y022529D01*
X020935Y022507D01*
X020864Y022496D01*
X020828Y022496D01*
X020828Y022954D01*
X020828Y022954D01*
X020828Y022496D01*
X020792Y022496D01*
X020828Y022527D02*
X020828Y022527D01*
X020661Y022527D02*
X019371Y022527D01*
X019500Y022765D02*
X020410Y022765D01*
X020372Y023004D02*
X019523Y023004D01*
X019459Y023242D02*
X020472Y023242D01*
X020828Y023242D02*
X020828Y023242D01*
X020828Y023004D02*
X020828Y023004D01*
X020828Y022765D02*
X020828Y022765D01*
X020995Y022527D02*
X023895Y022527D01*
X023895Y022765D02*
X021246Y022765D01*
X021284Y023004D02*
X023895Y023004D01*
X023895Y023242D02*
X021184Y023242D01*
X022399Y024654D02*
X022331Y024722D01*
X022275Y024799D01*
X022231Y024885D01*
X022202Y024976D01*
X022187Y025071D01*
X022187Y025109D01*
X022787Y025109D01*
X022806Y025109D01*
X022806Y024509D01*
X022845Y024509D01*
X022939Y024524D01*
X023031Y024554D01*
X023116Y024597D01*
X023194Y024654D01*
X023262Y024722D01*
X023318Y024799D01*
X023362Y024885D01*
X023391Y024976D01*
X023406Y025071D01*
X023406Y025109D01*
X022807Y025109D01*
X022807Y025129D01*
X023406Y025129D01*
X023406Y025167D01*
X023391Y025262D01*
X023362Y025353D01*
X023318Y025438D01*
X023262Y025516D01*
X023194Y025584D01*
X023116Y025640D01*
X023031Y025684D01*
X022939Y025714D01*
X022845Y025729D01*
X022806Y025729D01*
X022806Y025129D01*
X022787Y025129D01*
X022787Y025729D01*
X022749Y025729D01*
X022654Y025714D01*
X022563Y025684D01*
X022477Y025640D01*
X022399Y025584D01*
X022331Y025516D01*
X022275Y025438D01*
X022231Y025353D01*
X022202Y025262D01*
X022187Y025167D01*
X022187Y025129D01*
X022787Y025129D01*
X022787Y025109D01*
X022787Y024509D01*
X022749Y024509D01*
X022654Y024524D01*
X022563Y024554D01*
X022477Y024597D01*
X022399Y024654D01*
X022380Y024673D02*
X017486Y024673D01*
X017486Y024435D02*
X023895Y024435D01*
X023895Y024673D02*
X023213Y024673D01*
X023370Y024912D02*
X023895Y024912D01*
X023895Y025150D02*
X023406Y025150D01*
X023344Y025389D02*
X023895Y025389D01*
X023895Y025627D02*
X023135Y025627D01*
X022806Y025627D02*
X022787Y025627D01*
X022787Y025389D02*
X022806Y025389D01*
X022787Y025150D02*
X022806Y025150D01*
X022787Y024912D02*
X022806Y024912D01*
X022787Y024673D02*
X022806Y024673D01*
X022223Y024912D02*
X017486Y024912D01*
X017486Y025150D02*
X019793Y025150D01*
X019555Y025220D02*
X019555Y025220D01*
X019292Y025389D02*
X017486Y025389D01*
X017486Y025627D02*
X019003Y025627D01*
X019105Y025509D02*
X019105Y025509D01*
X018796Y025866D02*
X017486Y025866D01*
X017486Y026104D02*
X018667Y026104D01*
X018558Y026343D02*
X017356Y026343D01*
X017117Y026581D02*
X018506Y026581D01*
X018532Y026400D02*
X018532Y026400D01*
X018472Y026820D02*
X016879Y026820D01*
X016640Y027058D02*
X018474Y027058D01*
X018509Y027297D02*
X014863Y027297D01*
X014507Y027535D02*
X018567Y027535D01*
X016340Y028489D02*
X016325Y028489D01*
X016325Y028728D02*
X016340Y028728D01*
X016325Y028966D02*
X016340Y028966D01*
X016325Y029205D02*
X016340Y029205D01*
X015816Y029205D02*
X012848Y029205D01*
X012930Y028966D02*
X015734Y028966D01*
X015751Y028728D02*
X012913Y028728D01*
X012783Y028489D02*
X015881Y028489D01*
X016341Y026343D02*
X014721Y026343D01*
X015788Y025150D02*
X012876Y025150D01*
X012935Y024912D02*
X015730Y024912D01*
X015769Y024673D02*
X012895Y024673D01*
X012672Y025389D02*
X015992Y025389D01*
X016325Y024673D02*
X016340Y024673D01*
X016325Y024435D02*
X016340Y024435D01*
X016308Y024196D02*
X016293Y024196D01*
X016293Y023958D02*
X016308Y023958D01*
X016293Y023719D02*
X011818Y023719D01*
X013357Y022050D02*
X015001Y022050D01*
X014998Y021811D02*
X013371Y021811D01*
X013371Y021573D02*
X014998Y021573D01*
X014945Y021334D02*
X011935Y021334D01*
X011935Y021096D02*
X014938Y021096D01*
X014938Y020857D02*
X012662Y020857D01*
X012662Y020619D02*
X014969Y020619D01*
X014938Y020380D02*
X012662Y020380D01*
X012662Y020142D02*
X014938Y020142D01*
X014938Y019903D02*
X012662Y019903D01*
X012662Y019665D02*
X014938Y019665D01*
X014938Y019426D02*
X012662Y019426D01*
X012662Y019570D02*
X012165Y019570D01*
X012165Y019033D01*
X012471Y019033D01*
X012527Y019048D01*
X012577Y019077D01*
X012618Y019118D01*
X012647Y019168D01*
X012662Y019224D01*
X012662Y019570D01*
X012653Y019188D02*
X014938Y019188D01*
X015047Y018949D02*
X013271Y018949D01*
X013274Y018948D02*
X013188Y018991D01*
X013097Y019021D01*
X013002Y019036D01*
X012964Y019036D01*
X012964Y018436D01*
X012944Y018436D01*
X012944Y018416D01*
X012344Y018416D01*
X012344Y018378D01*
X012359Y018283D01*
X012389Y018192D01*
X012433Y018106D01*
X012489Y018029D01*
X012557Y017961D01*
X012634Y017904D01*
X012720Y017861D01*
X012811Y017831D01*
X012906Y017816D01*
X012944Y017816D01*
X012944Y018416D01*
X012964Y018416D01*
X012964Y017816D01*
X013002Y017816D01*
X013097Y017831D01*
X013188Y017861D01*
X013274Y017904D01*
X013351Y017961D01*
X013419Y018029D01*
X013476Y018106D01*
X013519Y018192D01*
X013549Y018283D01*
X013564Y018378D01*
X013564Y018416D01*
X012964Y018416D01*
X012964Y018436D01*
X013564Y018436D01*
X013564Y018474D01*
X013549Y018569D01*
X013519Y018660D01*
X013476Y018746D01*
X013419Y018823D01*
X013351Y018891D01*
X013274Y018948D01*
X012964Y018949D02*
X012944Y018949D01*
X012944Y019036D02*
X012944Y018436D01*
X012344Y018436D01*
X012344Y018474D01*
X012359Y018569D01*
X012389Y018660D01*
X012433Y018746D01*
X012489Y018823D01*
X012557Y018891D01*
X012634Y018948D01*
X012720Y018991D01*
X012811Y019021D01*
X012906Y019036D01*
X012944Y019036D01*
X012637Y018949D02*
X012151Y018949D01*
X012151Y018711D02*
X012415Y018711D01*
X012344Y018472D02*
X012112Y018472D01*
X012151Y018234D02*
X012375Y018234D01*
X012523Y017995D02*
X012151Y017995D01*
X012142Y017757D02*
X012165Y017757D01*
X012165Y017518D02*
X012090Y017518D01*
X012165Y017280D02*
X013300Y017280D01*
X013292Y017041D02*
X012662Y017041D01*
X012645Y016803D02*
X013314Y016803D01*
X013552Y016564D02*
X011423Y016564D01*
X011564Y016326D02*
X013450Y016326D01*
X013052Y016087D02*
X013052Y016087D01*
X013052Y015849D02*
X013052Y015849D01*
X013052Y015610D02*
X013052Y015610D01*
X013233Y015372D02*
X011527Y015372D01*
X011423Y015133D02*
X013226Y015133D01*
X013226Y014895D02*
X011571Y014895D01*
X011696Y015610D02*
X012673Y015610D01*
X012595Y015849D02*
X011748Y015849D01*
X011711Y016087D02*
X012651Y016087D01*
X012165Y016803D02*
X012090Y016803D01*
X012090Y017041D02*
X012165Y017041D01*
X012127Y017245D02*
X012127Y019607D01*
X012090Y019665D02*
X012165Y019665D01*
X012165Y019903D02*
X012090Y019903D01*
X012090Y020142D02*
X012165Y020142D01*
X012165Y020380D02*
X012090Y020380D01*
X012090Y020619D02*
X012165Y020619D01*
X012165Y020857D02*
X012090Y020857D01*
X012560Y021573D02*
X012560Y021573D01*
X011379Y021418D02*
X011379Y020847D01*
X011025Y020493D01*
X011025Y019804D01*
X010986Y019765D01*
X011025Y019804D02*
X011025Y019607D01*
X011084Y019548D01*
X011084Y018820D01*
X011281Y018820D01*
X011281Y018032D02*
X011084Y018032D01*
X011084Y017304D01*
X011025Y017245D01*
X011606Y016803D02*
X011609Y016803D01*
X012662Y017518D02*
X013538Y017518D01*
X013385Y017995D02*
X014767Y017995D01*
X014747Y018002D02*
X014815Y017979D01*
X014887Y017968D01*
X014923Y017968D01*
X014923Y018426D01*
X014923Y018426D01*
X014923Y018426D01*
X014923Y018884D01*
X014887Y018884D01*
X014815Y018873D01*
X014747Y018850D01*
X014683Y018818D01*
X014624Y018775D01*
X014573Y018724D01*
X014531Y018666D01*
X014498Y018602D01*
X014476Y018533D01*
X014465Y018462D01*
X014465Y018426D01*
X014465Y018390D01*
X014476Y018319D01*
X014498Y018250D01*
X014531Y018186D01*
X014573Y018128D01*
X014624Y018077D01*
X014683Y018034D01*
X014747Y018002D01*
X014923Y017995D02*
X014923Y017995D01*
X015078Y017995D02*
X015351Y017995D01*
X015351Y017757D02*
X012596Y017757D01*
X012944Y017995D02*
X012964Y017995D01*
X012944Y018234D02*
X012964Y018234D01*
X012944Y018472D02*
X012964Y018472D01*
X012944Y018711D02*
X012964Y018711D01*
X013493Y018711D02*
X014563Y018711D01*
X014466Y018472D02*
X013564Y018472D01*
X013533Y018234D02*
X014507Y018234D01*
X014465Y018426D02*
X014923Y018426D01*
X014923Y018426D01*
X014465Y018426D01*
X014923Y018472D02*
X014923Y018472D01*
X014923Y018234D02*
X014923Y018234D01*
X015338Y018234D02*
X015351Y018234D01*
X014923Y018711D02*
X014923Y018711D01*
X015933Y018711D02*
X016290Y018711D01*
X016227Y018472D02*
X016069Y018472D01*
X016069Y018234D02*
X016252Y018234D01*
X016383Y017995D02*
X016069Y017995D01*
X016069Y017757D02*
X017300Y017757D01*
X017311Y017518D02*
X016069Y017518D01*
X016069Y017280D02*
X016425Y017280D01*
X016265Y017041D02*
X016069Y017041D01*
X016069Y016803D02*
X016265Y016803D01*
X016316Y016564D02*
X016069Y016564D01*
X016069Y016326D02*
X016471Y016326D01*
X016265Y016087D02*
X016069Y016087D01*
X016069Y015849D02*
X016265Y015849D01*
X016270Y015610D02*
X016069Y015610D01*
X016069Y015372D02*
X016477Y015372D01*
X016477Y015133D02*
X016069Y015133D01*
X016069Y014895D02*
X016477Y014895D01*
X016438Y014656D02*
X016069Y014656D01*
X016069Y014418D02*
X016272Y014418D01*
X016267Y014179D02*
X016069Y014179D01*
X016069Y013941D02*
X016426Y013941D01*
X016069Y013702D02*
X018477Y013702D01*
X018477Y013464D02*
X016069Y013464D01*
X016069Y013225D02*
X018522Y013225D01*
X018702Y012987D02*
X016069Y012987D01*
X016069Y012748D02*
X018717Y012748D01*
X018717Y012510D02*
X016069Y012510D01*
X015351Y012510D02*
X015158Y012510D01*
X015242Y012271D02*
X015351Y012271D01*
X015351Y012033D02*
X015202Y012033D01*
X015351Y011794D02*
X014983Y011794D01*
X014936Y011692D02*
X014862Y011716D01*
X014785Y011728D01*
X014745Y011728D01*
X014706Y011728D01*
X014629Y011716D01*
X014555Y011692D01*
X014485Y011656D01*
X014422Y011610D01*
X014366Y011555D01*
X014320Y011492D01*
X014285Y011422D01*
X014260Y011348D01*
X014248Y011270D01*
X014248Y011231D01*
X014745Y011231D01*
X014745Y011231D01*
X014745Y011728D01*
X014745Y011231D01*
X014745Y011231D01*
X014745Y011231D01*
X015243Y011231D01*
X015243Y011270D01*
X015230Y011348D01*
X015206Y011422D01*
X015171Y011492D01*
X015125Y011555D01*
X015069Y011610D01*
X015006Y011656D01*
X014936Y011692D01*
X014745Y011794D02*
X014745Y011794D01*
X014508Y011794D02*
X004769Y011794D01*
X004769Y011556D02*
X014367Y011556D01*
X014256Y011317D02*
X004769Y011317D01*
X004769Y011079D02*
X014272Y011079D01*
X014438Y010840D02*
X004769Y010840D01*
X004769Y010602D02*
X014328Y010602D01*
X014197Y010363D02*
X004769Y010363D01*
X004769Y010125D02*
X014188Y010125D01*
X014303Y009886D02*
X004769Y009886D01*
X004769Y009648D02*
X023895Y009648D01*
X023895Y009886D02*
X015188Y009886D01*
X015240Y009968D02*
X015240Y009968D01*
X015097Y010840D02*
X015053Y010840D01*
X015219Y011079D02*
X015335Y011079D01*
X015351Y011317D02*
X015235Y011317D01*
X015124Y011556D02*
X015351Y011556D01*
X014745Y011556D02*
X014745Y011556D01*
X014745Y011317D02*
X014745Y011317D01*
X014745Y012033D02*
X014745Y012033D01*
X014366Y012555D02*
X014422Y012610D01*
X014485Y012656D01*
X014555Y012692D01*
X014575Y012699D01*
X014430Y012759D01*
X014314Y012874D01*
X014274Y012874D01*
X014274Y012874D01*
X014250Y012850D01*
X014257Y012825D01*
X014257Y012548D01*
X013749Y012548D01*
X013749Y012532D01*
X014257Y012532D01*
X014257Y012324D01*
X014260Y012348D01*
X014285Y012422D01*
X014320Y012492D01*
X014366Y012555D01*
X014333Y012510D02*
X014257Y012510D01*
X014257Y012748D02*
X014456Y012748D01*
X015035Y012748D02*
X015351Y012748D01*
X015351Y012987D02*
X015247Y012987D01*
X015303Y013225D02*
X015351Y013225D01*
X015351Y013464D02*
X015252Y013464D01*
X015351Y013702D02*
X015062Y013702D01*
X015228Y013941D02*
X015351Y013941D01*
X015351Y014179D02*
X015303Y014179D01*
X015271Y014418D02*
X015351Y014418D01*
X015351Y014656D02*
X015144Y014656D01*
X015144Y014895D02*
X015351Y014895D01*
X015351Y015133D02*
X015144Y015133D01*
X015177Y015372D02*
X015351Y015372D01*
X015351Y015610D02*
X015262Y015610D01*
X015262Y015849D02*
X015351Y015849D01*
X015351Y016087D02*
X015262Y016087D01*
X015214Y016326D02*
X015351Y016326D01*
X015351Y016564D02*
X014258Y016564D01*
X014350Y016803D02*
X014399Y016803D01*
X014832Y016803D02*
X014832Y016803D01*
X014832Y017041D02*
X014832Y017041D01*
X014832Y017048D02*
X014832Y017528D01*
X014832Y017048D01*
X014832Y017048D01*
X014832Y017280D02*
X014832Y017280D01*
X014832Y017518D02*
X014832Y017518D01*
X014623Y017518D02*
X014126Y017518D01*
X014364Y017280D02*
X014385Y017280D01*
X015041Y017518D02*
X015351Y017518D01*
X015351Y017280D02*
X015279Y017280D01*
X015312Y017041D02*
X015351Y017041D01*
X015351Y016803D02*
X015265Y016803D01*
X014332Y015353D02*
X014347Y015338D01*
X014347Y014671D01*
X014297Y014671D01*
X014274Y014726D01*
X014250Y014750D01*
X014257Y014775D01*
X014257Y015052D01*
X013749Y015052D01*
X013749Y015068D01*
X014257Y015068D01*
X014257Y015311D01*
X014313Y015334D01*
X014332Y015353D01*
X014347Y015133D02*
X014257Y015133D01*
X014257Y014895D02*
X014347Y014895D01*
X013978Y014272D02*
X013741Y014312D01*
X013564Y014312D01*
X013741Y013288D02*
X013923Y013272D01*
X013954Y013272D02*
X013741Y013288D01*
X013226Y012748D02*
X009810Y012748D01*
X009572Y012510D02*
X013226Y012510D01*
X013226Y012271D02*
X009333Y012271D01*
X009056Y012560D02*
X006615Y012560D01*
X006261Y012914D01*
X006261Y014883D01*
X005646Y015133D02*
X004769Y015133D01*
X004769Y014895D02*
X005597Y014895D01*
X005636Y014656D02*
X004769Y014656D01*
X004769Y014418D02*
X005787Y014418D01*
X005861Y014179D02*
X004769Y014179D01*
X004769Y013941D02*
X005861Y013941D01*
X005861Y013702D02*
X004769Y013702D01*
X004769Y013464D02*
X005432Y013464D01*
X005744Y013464D02*
X005861Y013464D01*
X005658Y013225D02*
X005658Y013225D01*
X005571Y012987D02*
X005571Y012987D01*
X005484Y012748D02*
X005484Y012748D01*
X005229Y012748D02*
X004769Y012748D01*
X004769Y012510D02*
X006100Y012510D01*
X006339Y012271D02*
X004769Y012271D01*
X004769Y012033D02*
X014289Y012033D01*
X013749Y012271D02*
X013734Y012271D01*
X013734Y012510D02*
X013749Y012510D01*
X011138Y012987D02*
X010049Y012987D01*
X010287Y013225D02*
X010899Y013225D01*
X010784Y013464D02*
X010526Y013464D01*
X010764Y013702D02*
X010784Y013702D01*
X010789Y014292D02*
X009056Y012560D01*
X009016Y013225D02*
X009156Y013225D01*
X009016Y013464D02*
X009394Y013464D01*
X009633Y013702D02*
X009016Y013702D01*
X009007Y013941D02*
X009871Y013941D01*
X009939Y014179D02*
X010110Y014179D01*
X010071Y014418D02*
X010348Y014418D01*
X010622Y014656D02*
X010071Y014656D01*
X010071Y015133D02*
X010627Y015133D01*
X010627Y014895D02*
X009471Y014895D01*
X009471Y014656D02*
X009231Y014656D01*
X009231Y014418D02*
X009471Y014418D01*
X009471Y014179D02*
X009231Y014179D01*
X008764Y014179D02*
X008194Y014179D01*
X008281Y014418D02*
X008631Y014418D01*
X008631Y014656D02*
X008281Y014656D01*
X008426Y013941D02*
X008427Y013941D01*
X008426Y013702D02*
X008427Y013702D01*
X010071Y015372D02*
X010627Y015372D01*
X012096Y019188D02*
X012165Y019188D01*
X012165Y019426D02*
X012090Y019426D01*
X015521Y021745D02*
X015521Y021761D01*
X015785Y021761D01*
X016293Y021761D01*
X016293Y021745D01*
X015521Y021745D01*
X015521Y021811D02*
X015505Y021811D01*
X015505Y022050D02*
X015521Y022050D01*
X016458Y022560D02*
X016458Y022875D01*
X016301Y022954D01*
X016301Y022973D01*
X017088Y022934D02*
X017127Y022973D01*
X017875Y022973D01*
X018391Y023481D02*
X018448Y023481D01*
X018391Y023729D02*
X018391Y024006D01*
X018376Y024062D01*
X018347Y024112D01*
X018306Y024153D01*
X018256Y024182D01*
X018200Y024197D01*
X017883Y024197D01*
X017883Y023729D01*
X018391Y023729D01*
X018391Y023958D02*
X023895Y023958D01*
X023895Y024196D02*
X018204Y024196D01*
X017883Y024196D02*
X017867Y024196D01*
X017867Y023958D02*
X017883Y023958D01*
X017883Y023719D02*
X023895Y023719D01*
X023895Y023481D02*
X019271Y023481D01*
X020879Y025150D02*
X022187Y025150D01*
X022250Y025389D02*
X021379Y025389D01*
X021117Y025220D02*
X021117Y025220D01*
X021669Y025627D02*
X022459Y025627D01*
X021876Y025866D02*
X023895Y025866D01*
X023895Y026104D02*
X022005Y026104D01*
X022113Y026343D02*
X023895Y026343D01*
X023895Y026581D02*
X022166Y026581D01*
X022200Y026820D02*
X023895Y026820D01*
X023895Y027058D02*
X022198Y027058D01*
X022216Y026930D02*
X022216Y026930D01*
X022163Y027297D02*
X023895Y027297D01*
X023895Y027535D02*
X022105Y027535D01*
X022140Y027460D02*
X022140Y027460D01*
X021996Y027774D02*
X023895Y027774D01*
X023895Y028012D02*
X021861Y028012D01*
X021654Y028251D02*
X023895Y028251D01*
X023895Y028489D02*
X021352Y028489D01*
X021567Y028351D02*
X021567Y028351D01*
X021982Y029591D02*
X021982Y029591D01*
X017547Y024196D02*
X017486Y024196D01*
X016769Y024196D02*
X016629Y024196D01*
X016728Y024435D02*
X016769Y024435D01*
X012340Y028489D02*
X012325Y028489D01*
X012325Y028728D02*
X012340Y028728D01*
X012325Y028966D02*
X012340Y028966D01*
X012325Y029205D02*
X012340Y029205D01*
X017325Y017280D02*
X017425Y017280D01*
X017462Y014418D02*
X017273Y014418D01*
X017144Y014179D02*
X018477Y014179D01*
X018477Y013941D02*
X016963Y013941D01*
X018289Y014418D02*
X018477Y014418D01*
X022049Y019304D02*
X022049Y019304D01*
X022050Y007206D02*
X023897Y007206D01*
X023897Y004629D01*
X022454Y004629D01*
X021983Y004502D01*
X021561Y004259D01*
X021216Y003914D01*
X021216Y003914D01*
X020972Y003491D01*
X020846Y003020D01*
X020846Y001577D01*
X015907Y001577D01*
X015907Y007206D01*
X018635Y007206D01*
X018635Y006910D01*
X018786Y006420D01*
X019075Y005996D01*
X019476Y005677D01*
X019953Y005489D01*
X020464Y005451D01*
X020464Y005451D01*
X020964Y005565D01*
X020964Y005565D01*
X021408Y005821D01*
X021408Y005821D01*
X021757Y006197D01*
X021757Y006197D01*
X021980Y006659D01*
X022056Y007166D01*
X022050Y007206D01*
X022035Y007024D02*
X023897Y007024D01*
X023897Y006786D02*
X021999Y006786D01*
X021980Y006659D02*
X021980Y006659D01*
X021926Y006547D02*
X023897Y006547D01*
X023897Y006309D02*
X021811Y006309D01*
X021639Y006070D02*
X023897Y006070D01*
X023897Y005832D02*
X021418Y005832D01*
X021013Y005593D02*
X023897Y005593D01*
X023897Y005355D02*
X019274Y005355D01*
X019269Y005359D02*
X019131Y005416D01*
X018982Y005416D01*
X018843Y005359D01*
X018738Y005253D01*
X018681Y005115D01*
X018391Y005221D01*
X018448Y005359D01*
X018448Y005509D01*
X018391Y005647D01*
X018285Y005753D01*
X018147Y005810D01*
X017997Y005810D01*
X017859Y005753D01*
X017753Y005647D01*
X017696Y005509D01*
X017696Y005359D01*
X017753Y005221D01*
X017549Y005147D01*
X017505Y005253D01*
X017399Y005359D01*
X017261Y005416D01*
X017112Y005416D01*
X016973Y005359D01*
X016868Y005253D01*
X016810Y005115D01*
X016810Y004965D01*
X016868Y004827D01*
X016973Y004721D01*
X017048Y004690D01*
X016924Y004474D01*
X016906Y004375D01*
X016769Y004432D01*
X016619Y004432D01*
X016481Y004375D01*
X016376Y004269D01*
X016318Y004131D01*
X016318Y003981D01*
X016376Y003843D01*
X016481Y003737D01*
X016619Y003680D01*
X016769Y003680D01*
X016906Y003737D01*
X016924Y003638D01*
X016924Y003638D01*
X017033Y003448D01*
X017013Y003448D01*
X016875Y003390D01*
X016769Y003285D01*
X016712Y003146D01*
X016712Y002997D01*
X016769Y002859D01*
X016875Y002753D01*
X017013Y002696D01*
X017163Y002696D01*
X017301Y002753D01*
X017407Y002859D01*
X017464Y002996D01*
X017753Y002891D01*
X017696Y002753D01*
X017696Y002603D01*
X017753Y002465D01*
X017859Y002359D01*
X017997Y002302D01*
X018147Y002302D01*
X018285Y002359D01*
X018391Y002465D01*
X018448Y002603D01*
X018448Y002753D01*
X018391Y002891D01*
X018681Y002996D01*
X018738Y002859D01*
X018843Y002753D01*
X018982Y002696D01*
X019131Y002696D01*
X019269Y002753D01*
X019375Y002859D01*
X019432Y002997D01*
X019432Y003146D01*
X019375Y003285D01*
X019269Y003390D01*
X019131Y003448D01*
X019111Y003448D01*
X019221Y003638D01*
X019238Y003737D01*
X019375Y003680D01*
X019525Y003680D01*
X019663Y003737D01*
X019769Y003843D01*
X019826Y003981D01*
X019826Y004131D01*
X019769Y004269D01*
X019663Y004375D01*
X019525Y004432D01*
X019375Y004432D01*
X019238Y004375D01*
X019221Y004474D01*
X019111Y004664D01*
X019131Y004664D01*
X019269Y004721D01*
X019375Y004827D01*
X019432Y004965D01*
X019432Y005115D01*
X019375Y005253D01*
X019269Y005359D01*
X019432Y005116D02*
X023897Y005116D01*
X023897Y004878D02*
X019396Y004878D01*
X019126Y004639D02*
X023897Y004639D01*
X021983Y004502D02*
X021983Y004502D01*
X021807Y004401D02*
X019600Y004401D01*
X019300Y004401D02*
X019234Y004401D01*
X019221Y004474D02*
X019221Y004474D01*
X018662Y004271D02*
X018700Y004056D01*
X018662Y003841D01*
X018553Y003652D01*
X018386Y003512D01*
X018181Y003437D01*
X017963Y003437D01*
X017758Y003512D01*
X017591Y003652D01*
X017482Y003841D01*
X017444Y004056D01*
X017482Y004271D01*
X017591Y004460D01*
X017758Y004600D01*
X017963Y004674D01*
X018181Y004674D01*
X018386Y004600D01*
X018553Y004460D01*
X018662Y004271D01*
X018681Y004162D02*
X017463Y004162D01*
X017467Y003924D02*
X018677Y003924D01*
X018572Y003685D02*
X017572Y003685D01*
X017938Y003447D02*
X018206Y003447D01*
X018607Y002970D02*
X018692Y002970D01*
X018897Y002731D02*
X018448Y002731D01*
X018402Y002493D02*
X020846Y002493D01*
X020846Y002731D02*
X019216Y002731D01*
X019421Y002970D02*
X020846Y002970D01*
X020896Y003208D02*
X019407Y003208D01*
X019134Y003447D02*
X020960Y003447D01*
X021084Y003685D02*
X019537Y003685D01*
X019363Y003685D02*
X019229Y003685D01*
X019802Y003924D02*
X021226Y003924D01*
X021464Y004162D02*
X019813Y004162D01*
X019953Y005489D02*
X019953Y005489D01*
X019689Y005593D02*
X018413Y005593D01*
X018446Y005355D02*
X018839Y005355D01*
X018681Y005116D02*
X018679Y005116D01*
X018278Y004639D02*
X017866Y004639D01*
X017557Y004401D02*
X018587Y004401D01*
X017698Y005355D02*
X017404Y005355D01*
X017731Y005593D02*
X015907Y005593D01*
X016301Y005593D01*
X016301Y005355D02*
X015907Y005355D01*
X016969Y005355D01*
X016811Y005116D02*
X015907Y005116D01*
X016301Y005116D01*
X016301Y004969D02*
X016230Y004819D01*
X016171Y004655D01*
X016126Y004487D01*
X016096Y004316D01*
X016083Y004176D01*
X016301Y004176D01*
X016301Y003936D01*
X016083Y003936D01*
X016096Y003796D01*
X016126Y003624D01*
X016171Y003456D01*
X016230Y003293D01*
X016301Y003143D01*
X016301Y001577D01*
X013938Y001577D01*
X013938Y003485D01*
X015907Y004666D01*
X015907Y007206D01*
X016301Y007206D01*
X016301Y004969D01*
X016258Y004878D02*
X015907Y004878D01*
X016847Y004878D01*
X017019Y004639D02*
X015907Y004639D01*
X015862Y004639D02*
X016166Y004639D01*
X016111Y004401D02*
X015464Y004401D01*
X015907Y004401D02*
X016544Y004401D01*
X016845Y004401D02*
X016911Y004401D01*
X016924Y004474D02*
X016924Y004474D01*
X016331Y004162D02*
X015907Y004162D01*
X015907Y003924D02*
X016342Y003924D01*
X016301Y004162D02*
X015067Y004162D01*
X014926Y003828D02*
X014832Y003843D01*
X014793Y003843D01*
X014793Y003247D01*
X015389Y003247D01*
X015389Y003287D01*
X015374Y003380D01*
X015344Y003471D01*
X015301Y003555D01*
X015245Y003632D01*
X015178Y003700D01*
X015101Y003755D01*
X015017Y003799D01*
X014926Y003828D01*
X014777Y003843D02*
X014737Y003843D01*
X014643Y003828D01*
X014553Y003799D01*
X014468Y003755D01*
X014391Y003700D01*
X014324Y003632D01*
X014268Y003555D01*
X014225Y003471D01*
X014196Y003380D01*
X014181Y003287D01*
X014181Y003247D01*
X014777Y003247D01*
X014777Y003843D01*
X014669Y003924D02*
X016084Y003924D01*
X016115Y003685D02*
X015193Y003685D01*
X015352Y003447D02*
X016174Y003447D01*
X016270Y003208D02*
X015389Y003208D01*
X015389Y003191D02*
X015389Y003231D01*
X014793Y003231D01*
X014793Y003247D01*
X014777Y003247D01*
X014777Y003231D01*
X014793Y003231D01*
X014793Y002247D01*
X015389Y002247D01*
X015389Y002287D01*
X015374Y002380D01*
X015344Y002471D01*
X015301Y002555D01*
X015245Y002632D01*
X015178Y002700D01*
X015124Y002739D01*
X015178Y002778D01*
X015245Y002846D01*
X015301Y002922D01*
X015344Y003007D01*
X015374Y003098D01*
X015389Y003191D01*
X015325Y002970D02*
X016301Y002970D01*
X016301Y002731D02*
X015135Y002731D01*
X015333Y002493D02*
X016301Y002493D01*
X016301Y002254D02*
X015389Y002254D01*
X015389Y002231D02*
X014793Y002231D01*
X014793Y002247D01*
X014777Y002247D01*
X014777Y002843D01*
X014777Y003231D01*
X014181Y003231D01*
X014181Y003191D01*
X014196Y003098D01*
X014225Y003007D01*
X014268Y002922D01*
X014324Y002846D01*
X014391Y002778D01*
X014446Y002739D01*
X014391Y002700D01*
X014324Y002632D01*
X014268Y002555D01*
X014225Y002471D01*
X014196Y002380D01*
X014181Y002287D01*
X014181Y002247D01*
X014777Y002247D01*
X014777Y002231D01*
X014793Y002231D01*
X014793Y001635D01*
X014832Y001635D01*
X014926Y001650D01*
X015017Y001679D01*
X015101Y001723D01*
X015178Y001778D01*
X015245Y001846D01*
X015301Y001922D01*
X015344Y002007D01*
X015374Y002098D01*
X015389Y002191D01*
X015389Y002231D01*
X015347Y002016D02*
X016301Y002016D01*
X016301Y001777D02*
X015176Y001777D01*
X014793Y001777D02*
X014777Y001777D01*
X014777Y001635D02*
X014777Y002231D01*
X014181Y002231D01*
X014181Y002191D01*
X014196Y002098D01*
X014225Y002007D01*
X014268Y001922D01*
X014324Y001846D01*
X014391Y001778D01*
X014468Y001723D01*
X014553Y001679D01*
X014643Y001650D01*
X014737Y001635D01*
X014777Y001635D01*
X014777Y002016D02*
X014793Y002016D01*
X014777Y002254D02*
X014793Y002254D01*
X014777Y002493D02*
X014793Y002493D01*
X014777Y002731D02*
X014793Y002731D01*
X014777Y002970D02*
X014793Y002970D01*
X014777Y003208D02*
X014793Y003208D01*
X014777Y003447D02*
X014793Y003447D01*
X014777Y003685D02*
X014793Y003685D01*
X014377Y003685D02*
X014272Y003685D01*
X014217Y003447D02*
X013938Y003447D01*
X013938Y003208D02*
X014181Y003208D01*
X014244Y002970D02*
X013938Y002970D01*
X013938Y002731D02*
X014435Y002731D01*
X014236Y002493D02*
X013938Y002493D01*
X013938Y002254D02*
X014181Y002254D01*
X014222Y002016D02*
X013938Y002016D01*
X013938Y001777D02*
X014393Y001777D01*
X013545Y001777D02*
X007818Y001777D01*
X007818Y001577D02*
X007818Y003020D01*
X007692Y003491D01*
X007692Y003491D01*
X007448Y003914D01*
X007103Y004259D01*
X006681Y004502D01*
X006210Y004629D01*
X004767Y004629D01*
X004767Y007206D01*
X006627Y007206D01*
X006627Y006910D01*
X006778Y006420D01*
X007067Y005996D01*
X007067Y005996D01*
X007067Y005996D01*
X007468Y005677D01*
X007945Y005489D01*
X007945Y005489D01*
X008457Y005451D01*
X008956Y005565D01*
X008956Y005565D01*
X009400Y005821D01*
X009400Y005821D01*
X009400Y005821D01*
X009749Y006197D01*
X009972Y006659D01*
X010048Y007166D01*
X010042Y007206D01*
X013545Y007206D01*
X013545Y001577D01*
X007818Y001577D01*
X007818Y002016D02*
X013545Y002016D01*
X013151Y002016D01*
X013151Y002254D02*
X013545Y002254D01*
X007818Y002254D01*
X007818Y002493D02*
X010262Y002493D01*
X010273Y002465D02*
X010379Y002359D01*
X010517Y002302D01*
X010667Y002302D01*
X010805Y002359D01*
X010911Y002465D01*
X010968Y002603D01*
X010968Y002753D01*
X010911Y002891D01*
X011200Y002996D01*
X011257Y002859D01*
X011363Y002753D01*
X011501Y002696D01*
X011651Y002696D01*
X011789Y002753D01*
X011895Y002859D01*
X011952Y002997D01*
X011952Y003146D01*
X011895Y003285D01*
X011789Y003390D01*
X011651Y003448D01*
X011631Y003448D01*
X011740Y003638D01*
X011758Y003737D01*
X011895Y003680D01*
X012045Y003680D01*
X012183Y003737D01*
X012288Y003843D01*
X012346Y003981D01*
X012346Y004131D01*
X012288Y004269D01*
X012183Y004375D01*
X012045Y004432D01*
X011895Y004432D01*
X011758Y004375D01*
X011740Y004474D01*
X011631Y004664D01*
X011651Y004664D01*
X011789Y004721D01*
X011895Y004827D01*
X011952Y004965D01*
X011952Y005115D01*
X011895Y005253D01*
X011789Y005359D01*
X011651Y005416D01*
X011501Y005416D01*
X011363Y005359D01*
X011257Y005253D01*
X011200Y005115D01*
X010911Y005221D01*
X010968Y005359D01*
X010968Y005509D01*
X010911Y005647D01*
X010805Y005753D01*
X010667Y005810D01*
X010517Y005810D01*
X010379Y005753D01*
X010273Y005647D01*
X010216Y005509D01*
X010216Y005359D01*
X010273Y005221D01*
X010069Y005147D01*
X010025Y005253D01*
X009919Y005359D01*
X009781Y005416D01*
X009631Y005416D01*
X009493Y005359D01*
X009387Y005253D01*
X009330Y005115D01*
X009330Y004965D01*
X009387Y004827D01*
X009493Y004721D01*
X009568Y004690D01*
X009443Y004474D01*
X009443Y004474D01*
X009426Y004375D01*
X009289Y004432D01*
X009139Y004432D01*
X009001Y004375D01*
X008895Y004269D01*
X008838Y004131D01*
X008838Y003981D01*
X008895Y003843D01*
X009001Y003737D01*
X009139Y003680D01*
X009289Y003680D01*
X009426Y003737D01*
X009443Y003638D01*
X009443Y003638D01*
X009553Y003448D01*
X009533Y003448D01*
X009395Y003390D01*
X009289Y003285D01*
X009232Y003146D01*
X009232Y002997D01*
X009289Y002859D01*
X009395Y002753D01*
X009533Y002696D01*
X009682Y002696D01*
X009821Y002753D01*
X009926Y002859D01*
X009983Y002996D01*
X010273Y002891D01*
X010216Y002753D01*
X010216Y002603D01*
X010273Y002465D01*
X010216Y002731D02*
X009767Y002731D01*
X009972Y002970D02*
X010057Y002970D01*
X010278Y003512D02*
X010111Y003652D01*
X010002Y003841D01*
X009964Y004056D01*
X010002Y004271D01*
X010111Y004460D01*
X010278Y004600D01*
X010483Y004674D01*
X010701Y004674D01*
X010906Y004600D01*
X011073Y004460D01*
X011182Y004271D01*
X011220Y004056D01*
X011182Y003841D01*
X011073Y003652D01*
X010906Y003512D01*
X010701Y003437D01*
X010483Y003437D01*
X010278Y003512D01*
X010458Y003447D02*
X010726Y003447D01*
X011092Y003685D02*
X010092Y003685D01*
X009987Y003924D02*
X011197Y003924D01*
X011201Y004162D02*
X009983Y004162D01*
X010077Y004401D02*
X011107Y004401D01*
X010798Y004639D02*
X010386Y004639D01*
X010218Y005355D02*
X009923Y005355D01*
X010251Y005593D02*
X009005Y005593D01*
X009410Y005832D02*
X013545Y005832D01*
X013545Y006070D02*
X009631Y006070D01*
X009803Y006309D02*
X013545Y006309D01*
X013545Y006547D02*
X009918Y006547D01*
X009991Y006786D02*
X013545Y006786D01*
X013545Y007024D02*
X010027Y007024D01*
X010048Y007166D02*
X010048Y007166D01*
X010933Y005593D02*
X013545Y005593D01*
X013545Y005355D02*
X011793Y005355D01*
X011952Y005116D02*
X013545Y005116D01*
X013545Y004878D02*
X011916Y004878D01*
X011645Y004639D02*
X013545Y004639D01*
X013545Y004401D02*
X012120Y004401D01*
X011819Y004401D02*
X011753Y004401D01*
X011740Y004474D02*
X011740Y004474D01*
X012333Y004162D02*
X013545Y004162D01*
X013545Y003924D02*
X012322Y003924D01*
X012057Y003685D02*
X013545Y003685D01*
X013545Y003662D02*
X013545Y001577D01*
X013151Y001577D01*
X013151Y007206D01*
X015513Y007206D01*
X015513Y004843D01*
X013545Y003662D01*
X013583Y003685D02*
X013151Y003685D01*
X013151Y003447D02*
X013545Y003447D01*
X011653Y003447D01*
X011740Y003638D02*
X011740Y003638D01*
X011749Y003685D02*
X011883Y003685D01*
X011927Y003208D02*
X013545Y003208D01*
X013151Y003208D01*
X013151Y002970D02*
X013545Y002970D01*
X011941Y002970D01*
X011736Y002731D02*
X013545Y002731D01*
X013151Y002731D01*
X013151Y002493D02*
X013545Y002493D01*
X010922Y002493D01*
X010968Y002731D02*
X011416Y002731D01*
X011212Y002970D02*
X011127Y002970D01*
X009530Y003447D02*
X007704Y003447D01*
X007768Y003208D02*
X009257Y003208D01*
X009243Y002970D02*
X007818Y002970D01*
X007818Y002731D02*
X009448Y002731D01*
X009435Y003685D02*
X009301Y003685D01*
X009127Y003685D02*
X007580Y003685D01*
X007448Y003914D02*
X007448Y003914D01*
X007438Y003924D02*
X008862Y003924D01*
X008851Y004162D02*
X007200Y004162D01*
X007103Y004259D02*
X007103Y004259D01*
X006857Y004401D02*
X009064Y004401D01*
X009364Y004401D02*
X009430Y004401D01*
X009538Y004639D02*
X004767Y004639D01*
X004767Y004878D02*
X009367Y004878D01*
X009331Y005116D02*
X004767Y005116D01*
X004767Y005355D02*
X009489Y005355D01*
X008457Y005451D02*
X008457Y005451D01*
X007681Y005593D02*
X004767Y005593D01*
X004767Y005832D02*
X007274Y005832D01*
X007468Y005677D02*
X007468Y005677D01*
X007017Y006070D02*
X004767Y006070D01*
X004767Y006309D02*
X006854Y006309D01*
X006778Y006420D02*
X006778Y006420D01*
X006739Y006547D02*
X004767Y006547D01*
X004767Y006786D02*
X006666Y006786D01*
X006627Y007024D02*
X004767Y007024D01*
X006681Y004502D02*
X006681Y004502D01*
X010966Y005355D02*
X011359Y005355D01*
X011201Y005116D02*
X011199Y005116D01*
X013151Y005116D02*
X014193Y005116D01*
X014196Y005098D02*
X014225Y005007D01*
X014268Y004922D01*
X014324Y004846D01*
X014391Y004778D01*
X014468Y004723D01*
X014553Y004679D01*
X014643Y004650D01*
X014737Y004635D01*
X014777Y004635D01*
X014777Y005231D01*
X014793Y005231D01*
X014793Y005247D01*
X015389Y005247D01*
X015389Y005287D01*
X015374Y005380D01*
X015344Y005471D01*
X015301Y005555D01*
X015245Y005632D01*
X015178Y005700D01*
X015124Y005739D01*
X015178Y005778D01*
X015245Y005846D01*
X015301Y005922D01*
X015344Y006007D01*
X015374Y006098D01*
X015389Y006191D01*
X015389Y006231D01*
X014793Y006231D01*
X014793Y006247D01*
X015389Y006247D01*
X015389Y006287D01*
X015374Y006380D01*
X015344Y006471D01*
X015301Y006555D01*
X015245Y006632D01*
X015178Y006700D01*
X015101Y006755D01*
X015017Y006799D01*
X014926Y006828D01*
X014832Y006843D01*
X014793Y006843D01*
X014793Y006247D01*
X014777Y006247D01*
X014777Y006843D01*
X014737Y006843D01*
X014643Y006828D01*
X014553Y006799D01*
X014468Y006755D01*
X014391Y006700D01*
X014324Y006632D01*
X014268Y006555D01*
X014225Y006471D01*
X014196Y006380D01*
X014181Y006287D01*
X014181Y006247D01*
X014777Y006247D01*
X014777Y006231D01*
X014793Y006231D01*
X014793Y005843D01*
X014793Y005247D01*
X014777Y005247D01*
X014777Y006231D01*
X014181Y006231D01*
X014181Y006191D01*
X014196Y006098D01*
X014225Y006007D01*
X014268Y005922D01*
X014324Y005846D01*
X014391Y005778D01*
X014446Y005739D01*
X014391Y005700D01*
X014324Y005632D01*
X014268Y005555D01*
X014225Y005471D01*
X014196Y005380D01*
X014181Y005287D01*
X014181Y005247D01*
X014777Y005247D01*
X014777Y005231D01*
X014181Y005231D01*
X014181Y005191D01*
X014196Y005098D01*
X014301Y004878D02*
X013151Y004878D01*
X013151Y004639D02*
X014713Y004639D01*
X014777Y004639D02*
X014793Y004639D01*
X014793Y004635D02*
X014832Y004635D01*
X014926Y004650D01*
X015017Y004679D01*
X015101Y004723D01*
X015178Y004778D01*
X015245Y004846D01*
X015301Y004922D01*
X015344Y005007D01*
X015374Y005098D01*
X015389Y005191D01*
X015389Y005231D01*
X014793Y005231D01*
X014793Y004635D01*
X014857Y004639D02*
X015173Y004639D01*
X015269Y004878D02*
X015513Y004878D01*
X015513Y005116D02*
X015377Y005116D01*
X015378Y005355D02*
X015513Y005355D01*
X015513Y005593D02*
X015274Y005593D01*
X015231Y005832D02*
X015513Y005832D01*
X015513Y006070D02*
X015365Y006070D01*
X015385Y006309D02*
X015513Y006309D01*
X015513Y006547D02*
X015306Y006547D01*
X015513Y006786D02*
X015042Y006786D01*
X014793Y006786D02*
X014777Y006786D01*
X014777Y006547D02*
X014793Y006547D01*
X014777Y006309D02*
X014793Y006309D01*
X014777Y006070D02*
X014793Y006070D01*
X014777Y005832D02*
X014793Y005832D01*
X014777Y005593D02*
X014793Y005593D01*
X014777Y005355D02*
X014793Y005355D01*
X014777Y005116D02*
X014793Y005116D01*
X014777Y004878D02*
X014793Y004878D01*
X014775Y004401D02*
X013151Y004401D01*
X013151Y004162D02*
X014378Y004162D01*
X013980Y003924D02*
X013151Y003924D01*
X013151Y005355D02*
X014192Y005355D01*
X014296Y005593D02*
X013151Y005593D01*
X013151Y005832D02*
X014338Y005832D01*
X014205Y006070D02*
X013151Y006070D01*
X013151Y006309D02*
X014184Y006309D01*
X014264Y006547D02*
X013151Y006547D01*
X013151Y006786D02*
X014527Y006786D01*
X015513Y007024D02*
X013151Y007024D01*
X015907Y007024D02*
X018635Y007024D01*
X018673Y006786D02*
X015907Y006786D01*
X016301Y006786D01*
X016301Y007024D02*
X015907Y007024D01*
X015907Y006547D02*
X018747Y006547D01*
X018786Y006420D02*
X018786Y006420D01*
X018862Y006309D02*
X015907Y006309D01*
X016301Y006309D01*
X016301Y006547D02*
X015907Y006547D01*
X015907Y006070D02*
X019025Y006070D01*
X019075Y005996D02*
X019075Y005996D01*
X019075Y005996D01*
X019282Y005832D02*
X015907Y005832D01*
X016301Y005832D01*
X016301Y006070D02*
X015907Y006070D01*
X015907Y003685D02*
X016607Y003685D01*
X016781Y003685D02*
X016915Y003685D01*
X017011Y003447D02*
X015907Y003447D01*
X015907Y003208D02*
X016738Y003208D01*
X016723Y002970D02*
X015907Y002970D01*
X015907Y002731D02*
X016928Y002731D01*
X017248Y002731D02*
X017696Y002731D01*
X017742Y002493D02*
X015907Y002493D01*
X015907Y002254D02*
X020846Y002254D01*
X020846Y002016D02*
X015907Y002016D01*
X015907Y001777D02*
X020846Y001777D01*
X019476Y005677D02*
X019476Y005677D01*
X017537Y002970D02*
X017452Y002970D01*
X013545Y001777D02*
X013151Y001777D01*
X005132Y012987D02*
X004769Y012987D01*
X004769Y013225D02*
X005172Y013225D01*
X004769Y015372D02*
X005811Y015372D01*
X005645Y015610D02*
X005631Y015610D01*
X005157Y015610D02*
X005082Y015610D01*
X005082Y015849D02*
X005157Y015849D01*
D40*
X014726Y021772D03*
X017088Y021379D03*
X019844Y017442D03*
X019450Y012324D03*
D41*
X020651Y011536D02*
X021222Y011536D01*
X021222Y010552D02*
X020651Y010552D01*
X017875Y014867D02*
X017875Y015867D01*
X017875Y016867D01*
X017875Y017855D01*
X017875Y018603D02*
X018663Y018603D01*
X018856Y018804D01*
X020001Y018804D01*
X020001Y019304D02*
X017214Y019304D01*
X017088Y019430D01*
X016301Y019430D01*
X015513Y019430D01*
X015513Y018623D01*
X015710Y018426D01*
X015710Y010946D01*
X015037Y010272D01*
X014787Y010272D01*
X014745Y010231D01*
X018682Y017835D02*
X018663Y017855D01*
X019076Y017855D01*
X019253Y018032D01*
X019525Y018304D01*
X020001Y018304D01*
X020001Y020304D02*
X019360Y020304D01*
X019253Y020198D01*
X018663Y020572D02*
X017875Y020572D01*
X018663Y020572D02*
X018895Y020804D01*
X020001Y020804D01*
X020001Y021304D02*
X018757Y021304D01*
X018663Y021398D01*
X018663Y021772D01*
X018269Y022166D01*
X017108Y022166D01*
X017088Y022186D01*
X017127Y022973D02*
X017127Y026064D01*
X016301Y026891D01*
X014332Y026891D01*
X015513Y021753D02*
X016301Y021753D01*
X016301Y021005D02*
X016301Y020178D01*
X015513Y020178D02*
X015513Y021005D01*
D42*
X010789Y021280D03*
X009608Y020394D03*
D43*
X007442Y018623D02*
X007442Y017639D01*
X007364Y017757D01*
D44*
X007442Y017639D03*
D45*
X013832Y017048D02*
X013919Y016961D01*
X013919Y015867D01*
X016891Y018426D02*
X017088Y018623D01*
X017088Y019430D01*
X020631Y014686D02*
X019923Y013977D01*
X019942Y011733D01*
X019824Y011615D01*
X019824Y011536D01*
X019824Y010552D02*
X019253Y010552D01*
X019056Y010749D01*
X019056Y013231D01*
X019074Y013231D01*
X019076Y013229D01*
M02*
